<?xml version="1.0" encoding="UTF-8" standalone="no"?>
<!DOCTYPE svg PUBLIC "-//W3C//DTD SVG 1.1//EN"
 "http://www.w3.org/Graphics/SVG/1.1/DTD/svg11.dtd">
<!-- Generated by graphviz version 2.43.0 (0)
 -->
<!-- Title: %3 Pages: 1 -->
<svg width="202pt" height="188pt"
 viewBox="0.00 0.00 202.00 188.00" xmlns="http://www.w3.org/2000/svg" xmlns:xlink="http://www.w3.org/1999/xlink">
<g id="graph0" class="graph" transform="scale(1 1) rotate(0) translate(4 184)">
<title>%3</title>
<polygon fill="transparent" stroke="transparent" points="-4,4 -4,-184 198,-184 198,4 -4,4"/>
<!-- 2 -->
<g id="node1" class="node">
<title>2</title>
<g id="a_node1"><a xlink:title="ipc::Collision">
<polygon fill="#ffffff" stroke="black" points="151,-108 43,-108 43,-72 151,-72 151,-108"/>
<text text-anchor="middle" x="97" y="-86.3" font-family="Times,serif" font-size="14.00">ipc::Collision</text>
</a>
</g>
</g>
<!-- 3 -->
<g id="node2" class="node">
<title>3</title>
<g id="a_node2"><a xlink:title="ipc::CollisionStencil">
<polygon fill="#ffffff" stroke="black" points="176,-36 18,-36 18,0 176,0 176,-36"/>
<text text-anchor="middle" x="97" y="-14.3" font-family="Times,serif" font-size="14.00">ipc::CollisionStencil</text>
</a>
</g>
</g>
<!-- 2&#45;&gt;3 -->
<g id="edge1" class="edge">
<title>2&#45;&gt;3</title>
<g id="a_edge1"><a xlink:title="public&#45;inheritance">
<path fill="none" stroke="#ce93d8" d="M97,-71.7C97,-63.98 97,-54.71 97,-46.11"/>
<polygon fill="#ce93d8" stroke="#ce93d8" points="100.5,-46.1 97,-36.1 93.5,-46.1 100.5,-46.1"/>
</a>
</g>
</g>
<!-- 1 -->
<g id="node3" class="node">
<title>1</title>
<g id="a_node3"><a xlink:title="ipc::PlaneVertexCollision">
<polygon fill="#bfbfbf" stroke="black" points="194,-180 0,-180 0,-144 194,-144 194,-180"/>
<text text-anchor="middle" x="97" y="-158.3" font-family="Times,serif" font-size="14.00">ipc::PlaneVertexCollision</text>
</a>
</g>
</g>
<!-- 1&#45;&gt;2 -->
<g id="edge2" class="edge">
<title>1&#45;&gt;2</title>
<g id="a_edge2"><a xlink:title="public&#45;inheritance">
<path fill="none" stroke="#ce93d8" d="M97,-143.7C97,-135.98 97,-126.71 97,-118.11"/>
<polygon fill="#ce93d8" stroke="#ce93d8" points="100.5,-118.1 97,-108.1 93.5,-118.1 100.5,-118.1"/>
</a>
</g>
</g>
</g>
</svg>
