<?xml version="1.0" encoding="UTF-8" standalone="no"?>
<!DOCTYPE svg PUBLIC "-//W3C//DTD SVG 1.1//EN"
 "http://www.w3.org/Graphics/SVG/1.1/DTD/svg11.dtd">
<!-- Generated by graphviz version 2.43.0 (0)
 -->
<!-- Title: %3 Pages: 1 -->
<svg width="1038pt" height="188pt"
 viewBox="0.00 0.00 1037.50 188.00" xmlns="http://www.w3.org/2000/svg" xmlns:xlink="http://www.w3.org/1999/xlink">
<g id="graph0" class="graph" transform="scale(1 1) rotate(0) translate(4 184)">
<title>%3</title>
<polygon fill="transparent" stroke="transparent" points="-4,4 -4,-184 1033.5,-184 1033.5,4 -4,4"/>
<!-- 1 -->
<g id="node1" class="node">
<title>1</title>
<g id="a_node1"><a xlink:title="ipc::Collision">
<polygon fill="#bfbfbf" stroke="black" points="558,-108 450,-108 450,-72 558,-72 558,-108"/>
<text text-anchor="middle" x="504" y="-86.3" font-family="Times,serif" font-size="14.00">ipc::Collision</text>
</a>
</g>
</g>
<!-- 2 -->
<g id="node2" class="node">
<title>2</title>
<g id="a_node2"><a xlink:title="ipc::CollisionStencil">
<polygon fill="#ffffff" stroke="black" points="583,-36 425,-36 425,0 583,0 583,-36"/>
<text text-anchor="middle" x="504" y="-14.3" font-family="Times,serif" font-size="14.00">ipc::CollisionStencil</text>
</a>
</g>
</g>
<!-- 1&#45;&gt;2 -->
<g id="edge1" class="edge">
<title>1&#45;&gt;2</title>
<g id="a_edge1"><a xlink:title="public&#45;inheritance">
<path fill="none" stroke="#ce93d8" d="M504,-71.7C504,-63.98 504,-54.71 504,-46.11"/>
<polygon fill="#ce93d8" stroke="#ce93d8" points="507.5,-46.1 504,-36.1 500.5,-46.1 507.5,-46.1"/>
</a>
</g>
</g>
<!-- 3 -->
<g id="node3" class="node">
<title>3</title>
<g id="a_node3"><a xlink:title="ipc::EdgeEdgeCollision">
<polygon fill="#ffffff" stroke="black" points="182,-180 0,-180 0,-144 182,-144 182,-180"/>
<text text-anchor="middle" x="91" y="-158.3" font-family="Times,serif" font-size="14.00">ipc::EdgeEdgeCollision</text>
</a>
</g>
</g>
<!-- 3&#45;&gt;1 -->
<g id="edge2" class="edge">
<title>3&#45;&gt;1</title>
<g id="a_edge2"><a xlink:title="public&#45;inheritance">
<path fill="none" stroke="#ce93d8" d="M182.02,-145.52C185.05,-145.01 188.05,-144.5 191,-144 277.09,-129.39 376.5,-112.57 439.77,-101.86"/>
<polygon fill="#ce93d8" stroke="#ce93d8" points="440.72,-105.25 450,-100.13 439.55,-98.35 440.72,-105.25"/>
</a>
</g>
</g>
<!-- 4 -->
<g id="node4" class="node">
<title>4</title>
<g id="a_node4"><a xlink:title="ipc::EdgeVertexCollision">
<polygon fill="#ffffff" stroke="black" points="391.5,-180 200.5,-180 200.5,-144 391.5,-144 391.5,-180"/>
<text text-anchor="middle" x="296" y="-158.3" font-family="Times,serif" font-size="14.00">ipc::EdgeVertexCollision</text>
</a>
</g>
</g>
<!-- 4&#45;&gt;1 -->
<g id="edge3" class="edge">
<title>4&#45;&gt;1</title>
<g id="a_edge3"><a xlink:title="public&#45;inheritance">
<path fill="none" stroke="#ce93d8" d="M346.62,-143.97C375.81,-134.14 412.69,-121.73 443.42,-111.39"/>
<polygon fill="#ce93d8" stroke="#ce93d8" points="444.8,-114.62 453.16,-108.11 442.56,-107.98 444.8,-114.62"/>
</a>
</g>
</g>
<!-- 5 -->
<g id="node5" class="node">
<title>5</title>
<g id="a_node5"><a xlink:title="ipc::FaceVertexCollision">
<polygon fill="#ffffff" stroke="black" points="598,-180 410,-180 410,-144 598,-144 598,-180"/>
<text text-anchor="middle" x="504" y="-158.3" font-family="Times,serif" font-size="14.00">ipc::FaceVertexCollision</text>
</a>
</g>
</g>
<!-- 5&#45;&gt;1 -->
<g id="edge4" class="edge">
<title>5&#45;&gt;1</title>
<g id="a_edge4"><a xlink:title="public&#45;inheritance">
<path fill="none" stroke="#ce93d8" d="M504,-143.7C504,-135.98 504,-126.71 504,-118.11"/>
<polygon fill="#ce93d8" stroke="#ce93d8" points="507.5,-118.1 504,-108.1 500.5,-118.1 507.5,-118.1"/>
</a>
</g>
</g>
<!-- 6 -->
<g id="node6" class="node">
<title>6</title>
<g id="a_node6"><a xlink:title="ipc::PlaneVertexCollision">
<polygon fill="#ffffff" stroke="black" points="810,-180 616,-180 616,-144 810,-144 810,-180"/>
<text text-anchor="middle" x="713" y="-158.3" font-family="Times,serif" font-size="14.00">ipc::PlaneVertexCollision</text>
</a>
</g>
</g>
<!-- 6&#45;&gt;1 -->
<g id="edge5" class="edge">
<title>6&#45;&gt;1</title>
<g id="a_edge5"><a xlink:title="public&#45;inheritance">
<path fill="none" stroke="#ce93d8" d="M662.14,-143.97C632.81,-134.14 595.75,-121.73 564.88,-111.39"/>
<polygon fill="#ce93d8" stroke="#ce93d8" points="565.68,-107.97 555.09,-108.11 563.46,-114.61 565.68,-107.97"/>
</a>
</g>
</g>
<!-- 7 -->
<g id="node7" class="node">
<title>7</title>
<g id="a_node7"><a xlink:title="ipc::VertexVertexCollision">
<polygon fill="#ffffff" stroke="black" points="1029.5,-180 828.5,-180 828.5,-144 1029.5,-144 1029.5,-180"/>
<text text-anchor="middle" x="929" y="-158.3" font-family="Times,serif" font-size="14.00">ipc::VertexVertexCollision</text>
</a>
</g>
</g>
<!-- 7&#45;&gt;1 -->
<g id="edge6" class="edge">
<title>7&#45;&gt;1</title>
<g id="a_edge6"><a xlink:title="public&#45;inheritance">
<path fill="none" stroke="#ce93d8" d="M828.28,-144.41C747.85,-131.16 637.54,-113 568.55,-101.63"/>
<polygon fill="#ce93d8" stroke="#ce93d8" points="568.7,-98.11 558.26,-99.94 567.56,-105.02 568.7,-98.11"/>
</a>
</g>
</g>
</g>
</svg>
