<?xml version="1.0" encoding="UTF-8" standalone="no"?>
<!DOCTYPE svg PUBLIC "-//W3C//DTD SVG 1.1//EN"
 "http://www.w3.org/Graphics/SVG/1.1/DTD/svg11.dtd">
<!-- Generated by graphviz version 2.43.0 (0)
 -->
<!-- Title: %3 Pages: 1 -->
<svg width="422pt" height="188pt"
 viewBox="0.00 0.00 422.00 188.00" xmlns="http://www.w3.org/2000/svg" xmlns:xlink="http://www.w3.org/1999/xlink">
<g id="graph0" class="graph" transform="scale(1 1) rotate(0) translate(4 184)">
<title>%3</title>
<polygon fill="transparent" stroke="transparent" points="-4,4 -4,-184 418,-184 418,4 -4,4"/>
<!-- 3 -->
<g id="node1" class="node">
<title>3</title>
<g id="a_node1"><a xlink:title="ipc::CollisionStencil">
<polygon fill="#ffffff" stroke="black" points="279,-36 121,-36 121,0 279,0 279,-36"/>
<text text-anchor="middle" x="200" y="-14.3" font-family="Times,serif" font-size="14.00">ipc::CollisionStencil</text>
</a>
</g>
</g>
<!-- 4 -->
<g id="node2" class="node">
<title>4</title>
<g id="a_node2"><a xlink:title="ipc::CollisionConstraint">
<polygon fill="#ffffff" stroke="black" points="184,-108 0,-108 0,-72 184,-72 184,-108"/>
<text text-anchor="middle" x="92" y="-86.3" font-family="Times,serif" font-size="14.00">ipc::CollisionConstraint</text>
</a>
</g>
</g>
<!-- 4&#45;&gt;3 -->
<g id="edge1" class="edge">
<title>4&#45;&gt;3</title>
<g id="a_edge1"><a xlink:title="public&#45;inheritance">
<path fill="none" stroke="#ce93d8" d="M118.42,-71.88C132.41,-62.81 149.78,-51.55 164.89,-41.76"/>
<polygon fill="#ce93d8" stroke="#ce93d8" points="166.99,-44.57 173.48,-36.19 163.18,-38.69 166.99,-44.57"/>
</a>
</g>
</g>
<!-- 2 -->
<g id="node3" class="node">
<title>2</title>
<g id="a_node3"><a xlink:title="ipc::VertexVertexCandidate">
<polygon fill="#ffffff" stroke="black" points="414,-108 202,-108 202,-72 414,-72 414,-108"/>
<text text-anchor="middle" x="308" y="-86.3" font-family="Times,serif" font-size="14.00">ipc::VertexVertexCandidate</text>
</a>
</g>
</g>
<!-- 2&#45;&gt;3 -->
<g id="edge2" class="edge">
<title>2&#45;&gt;3</title>
<g id="a_edge2"><a xlink:title="public&#45;inheritance">
<path fill="none" stroke="#ce93d8" d="M281.58,-71.88C267.59,-62.81 250.22,-51.55 235.11,-41.76"/>
<polygon fill="#ce93d8" stroke="#ce93d8" points="236.82,-38.69 226.52,-36.19 233.01,-44.57 236.82,-38.69"/>
</a>
</g>
</g>
<!-- 1 -->
<g id="node4" class="node">
<title>1</title>
<g id="a_node4"><a xlink:title="ipc::VertexVertexConstraint">
<polygon fill="#bfbfbf" stroke="black" points="307.5,-180 92.5,-180 92.5,-144 307.5,-144 307.5,-180"/>
<text text-anchor="middle" x="200" y="-158.3" font-family="Times,serif" font-size="14.00">ipc::VertexVertexConstraint</text>
</a>
</g>
</g>
<!-- 1&#45;&gt;4 -->
<g id="edge4" class="edge">
<title>1&#45;&gt;4</title>
<g id="a_edge4"><a xlink:title="public&#45;inheritance">
<path fill="none" stroke="#ce93d8" d="M173.58,-143.88C159.59,-134.81 142.22,-123.55 127.11,-113.76"/>
<polygon fill="#ce93d8" stroke="#ce93d8" points="128.82,-110.69 118.52,-108.19 125.01,-116.57 128.82,-110.69"/>
</a>
</g>
</g>
<!-- 1&#45;&gt;2 -->
<g id="edge3" class="edge">
<title>1&#45;&gt;2</title>
<g id="a_edge3"><a xlink:title="public&#45;inheritance">
<path fill="none" stroke="#ce93d8" d="M226.42,-143.88C240.41,-134.81 257.78,-123.55 272.89,-113.76"/>
<polygon fill="#ce93d8" stroke="#ce93d8" points="274.99,-116.57 281.48,-108.19 271.18,-110.69 274.99,-116.57"/>
</a>
</g>
</g>
</g>
</svg>
