<?xml version="1.0" encoding="UTF-8" standalone="no"?>
<!DOCTYPE svg PUBLIC "-//W3C//DTD SVG 1.1//EN"
 "http://www.w3.org/Graphics/SVG/1.1/DTD/svg11.dtd">
<!-- Generated by graphviz version 2.43.0 (0)
 -->
<!-- Title: %3 Pages: 1 -->
<svg width="224pt" height="188pt"
 viewBox="0.00 0.00 224.00 188.00" xmlns="http://www.w3.org/2000/svg" xmlns:xlink="http://www.w3.org/1999/xlink">
<g id="graph0" class="graph" transform="scale(1 1) rotate(0) translate(4 184)">
<title>%3</title>
<polygon fill="transparent" stroke="transparent" points="-4,4 -4,-184 220,-184 220,4 -4,4"/>
<!-- 2 -->
<g id="node1" class="node">
<title>2</title>
<g id="a_node1"><a xlink:title="ipc::Potential&lt; Collisions &gt;">
<polygon fill="#ffffff" stroke="black" points="214,-36 2,-36 2,0 214,0 214,-36"/>
<text text-anchor="middle" x="108" y="-14.3" font-family="Times,serif" font-size="14.00">ipc::Potential&lt; Collisions &gt;</text>
</a>
</g>
</g>
<!-- 3 -->
<g id="node2" class="node">
<title>3</title>
<g id="a_node2"><a xlink:title="ipc::BarrierPotential">
<polygon fill="#ffffff" stroke="black" points="189,-180 27,-180 27,-144 189,-144 189,-180"/>
<text text-anchor="middle" x="108" y="-158.3" font-family="Times,serif" font-size="14.00">ipc::BarrierPotential</text>
</a>
</g>
</g>
<!-- 1 -->
<g id="node3" class="node">
<title>1</title>
<g id="a_node3"><a xlink:title="ipc::DistanceBasedPotential">
<polygon fill="#bfbfbf" stroke="black" points="216,-108 0,-108 0,-72 216,-72 216,-108"/>
<text text-anchor="middle" x="108" y="-86.3" font-family="Times,serif" font-size="14.00">ipc::DistanceBasedPotential</text>
</a>
</g>
</g>
<!-- 3&#45;&gt;1 -->
<g id="edge1" class="edge">
<title>3&#45;&gt;1</title>
<g id="a_edge1"><a xlink:title="public&#45;inheritance">
<path fill="none" stroke="#ce93d8" d="M108,-143.7C108,-135.98 108,-126.71 108,-118.11"/>
<polygon fill="#ce93d8" stroke="#ce93d8" points="111.5,-118.1 108,-108.1 104.5,-118.1 111.5,-118.1"/>
</a>
</g>
</g>
<!-- 1&#45;&gt;2 -->
<g id="edge2" class="edge">
<title>1&#45;&gt;2</title>
<g id="a_edge2"><a xlink:title="public&#45;inheritance">
<path fill="none" stroke="#ce93d8" d="M108,-71.7C108,-63.98 108,-54.71 108,-46.11"/>
<polygon fill="#ce93d8" stroke="#ce93d8" points="111.5,-46.1 108,-36.1 104.5,-46.1 111.5,-46.1"/>
</a>
</g>
</g>
</g>
</svg>
