<?xml version="1.0" encoding="UTF-8" standalone="no"?>
<!DOCTYPE svg PUBLIC "-//W3C//DTD SVG 1.1//EN"
 "http://www.w3.org/Graphics/SVG/1.1/DTD/svg11.dtd">
<!-- Generated by graphviz version 2.43.0 (0)
 -->
<!-- Title: %3 Pages: 1 -->
<svg width="396pt" height="260pt"
 viewBox="0.00 0.00 396.00 260.00" xmlns="http://www.w3.org/2000/svg" xmlns:xlink="http://www.w3.org/1999/xlink">
<g id="graph0" class="graph" transform="scale(1 1) rotate(0) translate(4 256)">
<title>%3</title>
<polygon fill="transparent" stroke="transparent" points="-4,4 -4,-256 392,-256 392,4 -4,4"/>
<!-- 5 -->
<g id="node1" class="node">
<title>5</title>
<g id="a_node1"><a xlink:title="ipc::Collision">
<polygon fill="#ffffff" stroke="black" points="108,-108 0,-108 0,-72 108,-72 108,-108"/>
<text text-anchor="middle" x="54" y="-86.3" font-family="Times,serif" font-size="14.00">ipc::Collision</text>
</a>
</g>
</g>
<!-- 4 -->
<g id="node2" class="node">
<title>4</title>
<g id="a_node2"><a xlink:title="ipc::CollisionStencil">
<polygon fill="#ffffff" stroke="black" points="234,-36 76,-36 76,0 234,0 234,-36"/>
<text text-anchor="middle" x="155" y="-14.3" font-family="Times,serif" font-size="14.00">ipc::CollisionStencil</text>
</a>
</g>
</g>
<!-- 5&#45;&gt;4 -->
<g id="edge1" class="edge">
<title>5&#45;&gt;4</title>
<g id="a_edge1"><a xlink:title="public&#45;inheritance">
<path fill="none" stroke="#ce93d8" d="M78.71,-71.88C91.67,-62.89 107.73,-51.76 121.77,-42.03"/>
<polygon fill="#ce93d8" stroke="#ce93d8" points="123.97,-44.76 130.2,-36.19 119.98,-39.01 123.97,-44.76"/>
</a>
</g>
</g>
<!-- 3 -->
<g id="node3" class="node">
<title>3</title>
<g id="a_node3"><a xlink:title="ipc::ContinuousCollisionCandidate">
<polygon fill="#ffffff" stroke="black" points="388,-108 126,-108 126,-72 388,-72 388,-108"/>
<text text-anchor="middle" x="257" y="-86.3" font-family="Times,serif" font-size="14.00">ipc::ContinuousCollisionCandidate</text>
</a>
</g>
</g>
<!-- 3&#45;&gt;4 -->
<g id="edge2" class="edge">
<title>3&#45;&gt;4</title>
<g id="a_edge2"><a xlink:title="public&#45;inheritance">
<path fill="none" stroke="#ce93d8" d="M232.05,-71.88C218.96,-62.89 202.74,-51.76 188.56,-42.03"/>
<polygon fill="#ce93d8" stroke="#ce93d8" points="190.27,-38.96 180.05,-36.19 186.31,-44.73 190.27,-38.96"/>
</a>
</g>
</g>
<!-- 2 -->
<g id="node4" class="node">
<title>2</title>
<g id="a_node4"><a xlink:title="ipc::VertexVertexCandidate">
<polygon fill="#ffffff" stroke="black" points="345,-180 133,-180 133,-144 345,-144 345,-180"/>
<text text-anchor="middle" x="239" y="-158.3" font-family="Times,serif" font-size="14.00">ipc::VertexVertexCandidate</text>
</a>
</g>
</g>
<!-- 2&#45;&gt;3 -->
<g id="edge3" class="edge">
<title>2&#45;&gt;3</title>
<g id="a_edge3"><a xlink:title="public&#45;inheritance">
<path fill="none" stroke="#ce93d8" d="M243.45,-143.7C245.45,-135.9 247.87,-126.51 250.1,-117.83"/>
<polygon fill="#ce93d8" stroke="#ce93d8" points="253.5,-118.66 252.6,-108.1 246.72,-116.92 253.5,-118.66"/>
</a>
</g>
</g>
<!-- 1 -->
<g id="node5" class="node">
<title>1</title>
<g id="a_node5"><a xlink:title="ipc::VertexVertexCollision">
<polygon fill="#bfbfbf" stroke="black" points="255.5,-252 54.5,-252 54.5,-216 255.5,-216 255.5,-252"/>
<text text-anchor="middle" x="155" y="-230.3" font-family="Times,serif" font-size="14.00">ipc::VertexVertexCollision</text>
</a>
</g>
</g>
<!-- 1&#45;&gt;5 -->
<g id="edge5" class="edge">
<title>1&#45;&gt;5</title>
<g id="a_edge5"><a xlink:title="public&#45;inheritance">
<path fill="none" stroke="#ce93d8" d="M142.82,-215.87C125.22,-191.14 92.58,-145.24 72.15,-116.51"/>
<polygon fill="#ce93d8" stroke="#ce93d8" points="74.87,-114.31 66.23,-108.19 69.17,-118.37 74.87,-114.31"/>
</a>
</g>
</g>
<!-- 1&#45;&gt;2 -->
<g id="edge4" class="edge">
<title>1&#45;&gt;2</title>
<g id="a_edge4"><a xlink:title="public&#45;inheritance">
<path fill="none" stroke="#ce93d8" d="M175.76,-215.7C186.24,-206.97 199.11,-196.24 210.5,-186.75"/>
<polygon fill="#ce93d8" stroke="#ce93d8" points="213.03,-189.19 218.47,-180.1 208.55,-183.82 213.03,-189.19"/>
</a>
</g>
</g>
</g>
</svg>
