<?xml version="1.0" encoding="UTF-8" standalone="no"?>
<!DOCTYPE svg PUBLIC "-//W3C//DTD SVG 1.1//EN"
 "http://www.w3.org/Graphics/SVG/1.1/DTD/svg11.dtd">
<!-- Generated by graphviz version 2.43.0 (0)
 -->
<!-- Title: %3 Pages: 1 -->
<svg width="1037pt" height="188pt"
 viewBox="0.00 0.00 1036.50 188.00" xmlns="http://www.w3.org/2000/svg" xmlns:xlink="http://www.w3.org/1999/xlink">
<g id="graph0" class="graph" transform="scale(1 1) rotate(0) translate(4 184)">
<title>%3</title>
<polygon fill="transparent" stroke="transparent" points="-4,4 -4,-184 1032.5,-184 1032.5,4 -4,4"/>
<!-- 7 -->
<g id="node1" class="node">
<title>7</title>
<g id="a_node1"><a xlink:title="ipc::VertexVertexCollision">
<polygon fill="#ffffff" stroke="black" points="201,-180 0,-180 0,-144 201,-144 201,-180"/>
<text text-anchor="middle" x="100.5" y="-158.3" font-family="Times,serif" font-size="14.00">ipc::VertexVertexCollision</text>
</a>
</g>
</g>
<!-- 1 -->
<g id="node2" class="node">
<title>1</title>
<g id="a_node2"><a xlink:title="ipc::Collision">
<polygon fill="#bfbfbf" stroke="black" points="573.5,-108 465.5,-108 465.5,-72 573.5,-72 573.5,-108"/>
<text text-anchor="middle" x="519.5" y="-86.3" font-family="Times,serif" font-size="14.00">ipc::Collision</text>
</a>
</g>
</g>
<!-- 7&#45;&gt;1 -->
<g id="edge1" class="edge">
<title>7&#45;&gt;1</title>
<g id="a_edge1"><a xlink:title="public&#45;inheritance">
<path fill="none" stroke="#ce93d8" d="M201.13,-144.19C280.12,-130.99 387.72,-113.02 455.39,-101.71"/>
<polygon fill="#ce93d8" stroke="#ce93d8" points="456.2,-105.12 465.48,-100.02 455.04,-98.22 456.2,-105.12"/>
</a>
</g>
</g>
<!-- 2 -->
<g id="node3" class="node">
<title>2</title>
<g id="a_node3"><a xlink:title="ipc::CollisionStencil">
<polygon fill="#ffffff" stroke="black" points="598.5,-36 440.5,-36 440.5,0 598.5,0 598.5,-36"/>
<text text-anchor="middle" x="519.5" y="-14.3" font-family="Times,serif" font-size="14.00">ipc::CollisionStencil</text>
</a>
</g>
</g>
<!-- 1&#45;&gt;2 -->
<g id="edge2" class="edge">
<title>1&#45;&gt;2</title>
<g id="a_edge2"><a xlink:title="public&#45;inheritance">
<path fill="none" stroke="#ce93d8" d="M519.5,-71.7C519.5,-63.98 519.5,-54.71 519.5,-46.11"/>
<polygon fill="#ce93d8" stroke="#ce93d8" points="523,-46.1 519.5,-36.1 516,-46.1 523,-46.1"/>
</a>
</g>
</g>
<!-- 4 -->
<g id="node4" class="node">
<title>4</title>
<g id="a_node4"><a xlink:title="ipc::EdgeVertexCollision">
<polygon fill="#ffffff" stroke="black" points="410,-180 219,-180 219,-144 410,-144 410,-180"/>
<text text-anchor="middle" x="314.5" y="-158.3" font-family="Times,serif" font-size="14.00">ipc::EdgeVertexCollision</text>
</a>
</g>
</g>
<!-- 4&#45;&gt;1 -->
<g id="edge3" class="edge">
<title>4&#45;&gt;1</title>
<g id="a_edge3"><a xlink:title="public&#45;inheritance">
<path fill="none" stroke="#ce93d8" d="M364.39,-143.97C393.15,-134.14 429.51,-121.73 459.79,-111.39"/>
<polygon fill="#ce93d8" stroke="#ce93d8" points="461.06,-114.65 469.39,-108.11 458.8,-108.03 461.06,-114.65"/>
</a>
</g>
</g>
<!-- 3 -->
<g id="node5" class="node">
<title>3</title>
<g id="a_node5"><a xlink:title="ipc::EdgeEdgeCollision">
<polygon fill="#ffffff" stroke="black" points="610.5,-180 428.5,-180 428.5,-144 610.5,-144 610.5,-180"/>
<text text-anchor="middle" x="519.5" y="-158.3" font-family="Times,serif" font-size="14.00">ipc::EdgeEdgeCollision</text>
</a>
</g>
</g>
<!-- 3&#45;&gt;1 -->
<g id="edge4" class="edge">
<title>3&#45;&gt;1</title>
<g id="a_edge4"><a xlink:title="public&#45;inheritance">
<path fill="none" stroke="#ce93d8" d="M519.5,-143.7C519.5,-135.98 519.5,-126.71 519.5,-118.11"/>
<polygon fill="#ce93d8" stroke="#ce93d8" points="523,-118.1 519.5,-108.1 516,-118.1 523,-118.1"/>
</a>
</g>
</g>
<!-- 5 -->
<g id="node6" class="node">
<title>5</title>
<g id="a_node6"><a xlink:title="ipc::FaceVertexCollision">
<polygon fill="#ffffff" stroke="black" points="816.5,-180 628.5,-180 628.5,-144 816.5,-144 816.5,-180"/>
<text text-anchor="middle" x="722.5" y="-158.3" font-family="Times,serif" font-size="14.00">ipc::FaceVertexCollision</text>
</a>
</g>
</g>
<!-- 5&#45;&gt;1 -->
<g id="edge5" class="edge">
<title>5&#45;&gt;1</title>
<g id="a_edge5"><a xlink:title="public&#45;inheritance">
<path fill="none" stroke="#ce93d8" d="M673.1,-143.97C644.61,-134.14 608.61,-121.73 578.63,-111.39"/>
<polygon fill="#ce93d8" stroke="#ce93d8" points="579.72,-108.06 569.12,-108.11 577.43,-114.68 579.72,-108.06"/>
</a>
</g>
</g>
<!-- 6 -->
<g id="node7" class="node">
<title>6</title>
<g id="a_node7"><a xlink:title="ipc::PlaneVertexCollision">
<polygon fill="#ffffff" stroke="black" points="1028.5,-180 834.5,-180 834.5,-144 1028.5,-144 1028.5,-180"/>
<text text-anchor="middle" x="931.5" y="-158.3" font-family="Times,serif" font-size="14.00">ipc::PlaneVertexCollision</text>
</a>
</g>
</g>
<!-- 6&#45;&gt;1 -->
<g id="edge6" class="edge">
<title>6&#45;&gt;1</title>
<g id="a_edge6"><a xlink:title="public&#45;inheritance">
<path fill="none" stroke="#ce93d8" d="M834.38,-144.5C756.99,-131.35 650.83,-113.31 583.7,-101.91"/>
<polygon fill="#ce93d8" stroke="#ce93d8" points="584.13,-98.43 573.68,-100.21 582.95,-105.33 584.13,-98.43"/>
</a>
</g>
</g>
</g>
</svg>
