<?xml version="1.0" encoding="UTF-8" standalone="no"?>
<!DOCTYPE svg PUBLIC "-//W3C//DTD SVG 1.1//EN"
 "http://www.w3.org/Graphics/SVG/1.1/DTD/svg11.dtd">
<!-- Generated by graphviz version 13.0.1 (20250615.1724)
 -->
<!-- Title: IPC Toolkit Dependencies Pages: 1 -->
<svg width="1753pt" height="420pt"
 viewBox="0.00 0.00 1753.00 420.00" xmlns="http://www.w3.org/2000/svg" xmlns:xlink="http://www.w3.org/1999/xlink">
<g id="graph0" class="graph" transform="scale(1 1) rotate(0) translate(4 415.5)">
<title>IPC Toolkit Dependencies</title>
<g id="clust1" class="cluster">
<title>clusterLegend</title>
<polygon fill="none" stroke="grey" stroke-width="2" points="8,-52.5 8,-361 205,-361 205,-52.5 8,-52.5"/>
<text xml:space="preserve" text-anchor="middle" x="106.5" y="-343.7" font-family="Avenir Medium" font-size="14.00" fill="grey">Legend</text>
</g>
<!-- legendNode0 -->
<g id="node1" class="node">
<title>legendNode0</title>
<path fill="#d5e8d4" stroke="#8fb976" stroke-width="2" d="M102.38,-325.5C102.38,-325.5 31.62,-325.5 31.62,-325.5 25.62,-325.5 19.62,-319.5 19.62,-313.5 19.62,-313.5 19.62,-301.5 19.62,-301.5 19.62,-295.5 25.62,-289.5 31.62,-289.5 31.62,-289.5 102.38,-289.5 102.38,-289.5 108.38,-289.5 114.38,-295.5 114.38,-301.5 114.38,-301.5 114.38,-313.5 114.38,-313.5 114.38,-319.5 108.38,-325.5 102.38,-325.5"/>
<text xml:space="preserve" text-anchor="middle" x="67" y="-303.95" font-family="Avenir Light" font-size="14.00">Static Library</text>
</g>
<!-- legendNode1 -->
<g id="node2" class="node">
<title>legendNode1</title>
<path fill="#cce7f8" stroke="#6596b2" stroke-width="2" d="M184.88,-211C184.88,-211 105.12,-211 105.12,-211 99.12,-211 93.12,-205 93.12,-199 93.12,-199 93.12,-187 93.12,-187 93.12,-181 99.12,-175 105.12,-175 105.12,-175 184.88,-175 184.88,-175 190.88,-175 196.88,-181 196.88,-187 196.88,-187 196.88,-199 196.88,-199 196.88,-205 190.88,-211 184.88,-211"/>
<text xml:space="preserve" text-anchor="middle" x="145" y="-189.45" font-family="Avenir Light" font-size="14.00">Shared Library</text>
</g>
<!-- legendNode0&#45;&gt;legendNode1 -->
<g id="edge1" class="edge">
<title>legendNode0&#45;&gt;legendNode1</title>
<path fill="none" stroke="#8fb976" stroke-width="2" d="M103.75,-288.59C103.75,-288.59 103.75,-224.96 103.75,-224.96"/>
<polygon fill="#8fb976" stroke="#8fb976" stroke-width="2" points="107.25,-224.96 103.75,-214.96 100.25,-224.96 107.25,-224.96"/>
<text xml:space="preserve" text-anchor="middle" x="126.38" y="-246.7" font-family="Avenir Light" font-size="14.00" fill="#8fb976">Public</text>
</g>
<!-- legendNode2 -->
<g id="node3" class="node">
<title>legendNode2</title>
<path fill="#ffe6cc" stroke="#daa52d" stroke-width="2" d="M151.5,-96.5C151.5,-96.5 60.5,-96.5 60.5,-96.5 54.5,-96.5 48.5,-90.5 48.5,-84.5 48.5,-84.5 48.5,-72.5 48.5,-72.5 48.5,-66.5 54.5,-60.5 60.5,-60.5 60.5,-60.5 151.5,-60.5 151.5,-60.5 157.5,-60.5 163.5,-66.5 163.5,-72.5 163.5,-72.5 163.5,-84.5 163.5,-84.5 163.5,-90.5 157.5,-96.5 151.5,-96.5"/>
<text xml:space="preserve" text-anchor="middle" x="106" y="-74.95" font-family="Avenir Light" font-size="14.00">Interface Library</text>
</g>
<!-- legendNode1&#45;&gt;legendNode2 -->
<g id="edge3" class="edge">
<title>legendNode1&#45;&gt;legendNode2</title>
<path fill="none" stroke="#be6562" stroke-width="2" d="M128.31,-174.09C128.31,-174.09 128.31,-110.46 128.31,-110.46"/>
<polygon fill="#be6562" stroke="#be6562" stroke-width="2" points="131.81,-110.46 128.31,-100.46 124.81,-110.46 131.81,-110.46"/>
<text xml:space="preserve" text-anchor="middle" x="146" y="-132.2" font-family="Avenir Light" font-size="14.00" fill="#be6562">Private</text>
</g>
<!-- legendNode2&#45;&gt;legendNode0 -->
<g id="edge2" class="edge">
<title>legendNode2&#45;&gt;legendNode0</title>
<path fill="none" stroke="#daa52d" stroke-width="2" d="M70.81,-97.24C70.81,-97.24 70.81,-275.47 70.81,-275.47"/>
<polygon fill="#daa52d" stroke="#daa52d" stroke-width="2" points="67.31,-275.47 70.81,-285.47 74.31,-275.47 67.31,-275.47"/>
<text xml:space="preserve" text-anchor="middle" x="61" y="-189.45" font-family="Avenir Light" font-size="14.00" fill="#daa52d">Interface</text>
</g>
<!-- node5 -->
<g id="node4" class="node">
<title>node5</title>
<path fill="#d5e8d4" stroke="#8fb976" stroke-width="2" d="M1024.75,-411.5C1024.75,-411.5 917.25,-411.5 917.25,-411.5 911.25,-411.5 905.25,-405.5 905.25,-399.5 905.25,-399.5 905.25,-381 905.25,-381 905.25,-375 911.25,-369 917.25,-369 917.25,-369 1024.75,-369 1024.75,-369 1030.75,-369 1036.75,-375 1036.75,-381 1036.75,-381 1036.75,-399.5 1036.75,-399.5 1036.75,-405.5 1030.75,-411.5 1024.75,-411.5"/>
<text xml:space="preserve" text-anchor="middle" x="971" y="-394.2" font-family="Menlo" font-size="14.00">ipc_toolkit</text>
<text xml:space="preserve" text-anchor="middle" x="971" y="-376.95" font-family="Menlo" font-size="14.00">(ipc::toolkit)</text>
</g>
<!-- node0 -->
<g id="node5" class="node">
<title>node0</title>
<path fill="#ffe6cc" stroke="#daa52d" stroke-width="2" d="M876.88,-42.5C876.88,-42.5 761.12,-42.5 761.12,-42.5 755.12,-42.5 749.12,-36.5 749.12,-30.5 749.12,-30.5 749.12,-12 749.12,-12 749.12,-6 755.12,0 761.12,0 761.12,0 876.88,0 876.88,0 882.88,0 888.88,-6 888.88,-12 888.88,-12 888.88,-30.5 888.88,-30.5 888.88,-36.5 882.88,-42.5 876.88,-42.5"/>
<text xml:space="preserve" text-anchor="middle" x="819" y="-25.2" font-family="Menlo" font-size="14.00">Eigen3_Eigen</text>
<text xml:space="preserve" text-anchor="middle" x="819" y="-7.95" font-family="Menlo" font-size="14.00">(Eigen3::Eigen)</text>
</g>
<!-- node5&#45;&gt;node0 -->
<g id="edge7" class="edge">
<title>node5&#45;&gt;node0</title>
<path fill="none" stroke="#8fb976" stroke-width="2" d="M961.25,-368.34C961.25,-322.36 961.25,-220 961.25,-220 961.25,-220 852.67,-220 852.67,-220 852.67,-220 852.67,-56.31 852.67,-56.31"/>
<polygon fill="#8fb976" stroke="#8fb976" stroke-width="2" points="856.17,-56.31 852.67,-46.31 849.17,-56.31 856.17,-56.31"/>
</g>
<!-- node1 -->
<g id="node6" class="node">
<title>node1</title>
<path fill="#cce7f8" stroke="#6596b2" stroke-width="2" d="M1432.75,-271.5C1432.75,-271.5 1325.25,-271.5 1325.25,-271.5 1319.25,-271.5 1313.25,-265.5 1313.25,-259.5 1313.25,-259.5 1313.25,-241 1313.25,-241 1313.25,-235 1319.25,-229 1325.25,-229 1325.25,-229 1432.75,-229 1432.75,-229 1438.75,-229 1444.75,-235 1444.75,-241 1444.75,-241 1444.75,-259.5 1444.75,-259.5 1444.75,-265.5 1438.75,-271.5 1432.75,-271.5"/>
<text xml:space="preserve" text-anchor="middle" x="1379" y="-254.2" font-family="Menlo" font-size="14.00">filib</text>
<text xml:space="preserve" text-anchor="middle" x="1379" y="-236.95" font-family="Menlo" font-size="14.00">(filib::filib)</text>
</g>
<!-- node5&#45;&gt;node1 -->
<g id="edge8" class="edge">
<title>node5&#45;&gt;node1</title>
<path fill="none" stroke="#8fb976" stroke-width="2" d="M1037.46,-380C1153.07,-380 1379,-380 1379,-380 1379,-380 1379,-285.29 1379,-285.29"/>
<polygon fill="#8fb976" stroke="#8fb976" stroke-width="2" points="1382.5,-285.29 1379,-275.29 1375.5,-285.29 1382.5,-285.29"/>
</g>
<!-- node2 -->
<g id="node7" class="node">
<title>node2</title>
<path fill="#ffe6cc" stroke="#daa52d" stroke-width="2" d="M323.38,-157C323.38,-157 240.62,-157 240.62,-157 234.62,-157 228.62,-151 228.62,-145 228.62,-145 228.62,-126.5 228.62,-126.5 228.62,-120.5 234.62,-114.5 240.62,-114.5 240.62,-114.5 323.38,-114.5 323.38,-114.5 329.38,-114.5 335.38,-120.5 335.38,-126.5 335.38,-126.5 335.38,-145 335.38,-145 335.38,-151 329.38,-157 323.38,-157"/>
<text xml:space="preserve" text-anchor="middle" x="282" y="-139.7" font-family="Menlo" font-size="14.00">igl_core</text>
<text xml:space="preserve" text-anchor="middle" x="282" y="-122.45" font-family="Menlo" font-size="14.00">(igl::core)</text>
</g>
<!-- node5&#45;&gt;node2 -->
<g id="edge9" class="edge">
<title>node5&#45;&gt;node2</title>
<path fill="none" stroke="#be6562" stroke-width="2" d="M904.49,-403C724.23,-403 239.75,-403 239.75,-403 239.75,-403 239.75,-170.65 239.75,-170.65"/>
<polygon fill="#be6562" stroke="#be6562" stroke-width="2" points="243.25,-170.65 239.75,-160.65 236.25,-170.65 243.25,-170.65"/>
</g>
<!-- node3 -->
<g id="node8" class="node">
<title>node3</title>
<path fill="#ffe6cc" stroke="#daa52d" stroke-width="2" d="M395.12,-271.5C395.12,-271.5 262.88,-271.5 262.88,-271.5 256.88,-271.5 250.88,-265.5 250.88,-259.5 250.88,-259.5 250.88,-241 250.88,-241 250.88,-235 256.88,-229 262.88,-229 262.88,-229 395.12,-229 395.12,-229 401.12,-229 407.12,-235 407.12,-241 407.12,-241 407.12,-259.5 407.12,-259.5 407.12,-265.5 401.12,-271.5 395.12,-271.5"/>
<text xml:space="preserve" text-anchor="middle" x="329" y="-254.2" font-family="Menlo" font-size="14.00">igl_predicates</text>
<text xml:space="preserve" text-anchor="middle" x="329" y="-236.95" font-family="Menlo" font-size="14.00">(igl::predicates)</text>
</g>
<!-- node5&#45;&gt;node3 -->
<g id="edge10" class="edge">
<title>node5&#45;&gt;node3</title>
<path fill="none" stroke="#be6562" stroke-width="2" d="M904.41,-395C740.18,-395 329,-395 329,-395 329,-395 329,-285.26 329,-285.26"/>
<polygon fill="#be6562" stroke="#be6562" stroke-width="2" points="332.5,-285.26 329,-275.26 325.5,-285.26 332.5,-285.26"/>
</g>
<!-- node6 -->
<g id="node10" class="node">
<title>node6</title>
<path fill="#ffe6cc" stroke="#daa52d" stroke-width="2" d="M1599,-271.5C1599,-271.5 1475,-271.5 1475,-271.5 1469,-271.5 1463,-265.5 1463,-259.5 1463,-259.5 1463,-241 1463,-241 1463,-235 1469,-229 1475,-229 1475,-229 1599,-229 1599,-229 1605,-229 1611,-235 1611,-241 1611,-241 1611,-259.5 1611,-259.5 1611,-265.5 1605,-271.5 1599,-271.5"/>
<text xml:space="preserve" text-anchor="middle" x="1537" y="-254.2" font-family="Menlo" font-size="14.00">robin_map</text>
<text xml:space="preserve" text-anchor="middle" x="1537" y="-236.95" font-family="Menlo" font-size="14.00">(tsl::robin_map)</text>
</g>
<!-- node5&#45;&gt;node6 -->
<g id="edge11" class="edge">
<title>node5&#45;&gt;node6</title>
<path fill="none" stroke="#be6562" stroke-width="2" d="M1037.59,-390C1187.21,-390 1537,-390 1537,-390 1537,-390 1537,-285.42 1537,-285.42"/>
<polygon fill="#be6562" stroke="#be6562" stroke-width="2" points="1540.5,-285.42 1537,-275.42 1533.5,-285.42 1540.5,-285.42"/>
</g>
<!-- node7 -->
<g id="node11" class="node">
<title>node7</title>
<path fill="#d5e8d4" stroke="#8fb976" stroke-width="2" d="M930.5,-271.5C930.5,-271.5 707.5,-271.5 707.5,-271.5 701.5,-271.5 695.5,-265.5 695.5,-259.5 695.5,-259.5 695.5,-241 695.5,-241 695.5,-235 701.5,-229 707.5,-229 707.5,-229 930.5,-229 930.5,-229 936.5,-229 942.5,-235 942.5,-241 942.5,-241 942.5,-259.5 942.5,-259.5 942.5,-265.5 936.5,-271.5 930.5,-271.5"/>
<text xml:space="preserve" text-anchor="middle" x="819" y="-254.2" font-family="Menlo" font-size="14.00">scalable_ccd</text>
<text xml:space="preserve" text-anchor="middle" x="819" y="-236.95" font-family="Menlo" font-size="14.00">(scalable_ccd::scalable_ccd)</text>
</g>
<!-- node5&#45;&gt;node7 -->
<g id="edge15" class="edge">
<title>node5&#45;&gt;node7</title>
<path fill="none" stroke="#be6562" stroke-width="2" d="M923.88,-368.07C923.88,-368.07 923.88,-285.36 923.88,-285.36"/>
<polygon fill="#be6562" stroke="#be6562" stroke-width="2" points="927.38,-285.36 923.88,-275.36 920.38,-285.36 927.38,-285.36"/>
</g>
<!-- node8 -->
<g id="node12" class="node">
<title>node8</title>
<path fill="#d5e8d4" stroke="#8fb976" stroke-width="2" d="M1033,-157C1033,-157 909,-157 909,-157 903,-157 897,-151 897,-145 897,-145 897,-126.5 897,-126.5 897,-120.5 903,-114.5 909,-114.5 909,-114.5 1033,-114.5 1033,-114.5 1039,-114.5 1045,-120.5 1045,-126.5 1045,-126.5 1045,-145 1045,-145 1045,-151 1039,-157 1033,-157"/>
<text xml:space="preserve" text-anchor="middle" x="971" y="-139.7" font-family="Menlo" font-size="14.00">spdlog</text>
<text xml:space="preserve" text-anchor="middle" x="971" y="-122.45" font-family="Menlo" font-size="14.00">(spdlog::spdlog)</text>
</g>
<!-- node5&#45;&gt;node8 -->
<g id="edge18" class="edge">
<title>node5&#45;&gt;node8</title>
<path fill="none" stroke="#8fb976" stroke-width="2" d="M980,-368.11C980,-368.11 980,-170.68 980,-170.68"/>
<polygon fill="#8fb976" stroke="#8fb976" stroke-width="2" points="983.5,-170.68 980,-160.68 976.5,-170.68 983.5,-170.68"/>
</g>
<!-- node9 -->
<g id="node13" class="node">
<title>node9</title>
<path fill="#d5e8d4" stroke="#8fb976" stroke-width="2" d="M768.25,-157C768.25,-157 693.75,-157 693.75,-157 687.75,-157 681.75,-151 681.75,-145 681.75,-145 681.75,-126.5 681.75,-126.5 681.75,-120.5 687.75,-114.5 693.75,-114.5 693.75,-114.5 768.25,-114.5 768.25,-114.5 774.25,-114.5 780.25,-120.5 780.25,-126.5 780.25,-126.5 780.25,-145 780.25,-145 780.25,-151 774.25,-157 768.25,-157"/>
<text xml:space="preserve" text-anchor="middle" x="731" y="-139.7" font-family="Menlo" font-size="14.00">tbb</text>
<text xml:space="preserve" text-anchor="middle" x="731" y="-122.45" font-family="Menlo" font-size="14.00">(TBB::tbb)</text>
</g>
<!-- node5&#45;&gt;node9 -->
<g id="edge19" class="edge">
<title>node5&#45;&gt;node9</title>
<path fill="none" stroke="#be6562" stroke-width="2" d="M904.44,-378C820.96,-378 688.62,-378 688.62,-378 688.62,-378 688.62,-170.7 688.62,-170.7"/>
<polygon fill="#be6562" stroke="#be6562" stroke-width="2" points="692.13,-170.7 688.63,-160.7 685.13,-170.7 692.13,-170.7"/>
</g>
<!-- node10 -->
<g id="node14" class="node">
<title>node10</title>
<path fill="#d5e8d4" stroke="#8fb976" stroke-width="2" d="M627,-271.5C627,-271.5 437,-271.5 437,-271.5 431,-271.5 425,-265.5 425,-259.5 425,-259.5 425,-241 425,-241 425,-235 431,-229 437,-229 437,-229 627,-229 627,-229 633,-229 639,-235 639,-241 639,-241 639,-259.5 639,-259.5 639,-265.5 633,-271.5 627,-271.5"/>
<text xml:space="preserve" text-anchor="middle" x="532" y="-254.2" font-family="Menlo" font-size="14.00">simple_bvh</text>
<text xml:space="preserve" text-anchor="middle" x="532" y="-236.95" font-family="Menlo" font-size="14.00">(simple_bvh::simple_bvh)</text>
</g>
<!-- node5&#45;&gt;node10 -->
<g id="edge17" class="edge">
<title>node5&#45;&gt;node10</title>
<path fill="none" stroke="#be6562" stroke-width="2" d="M904.33,-386C781.52,-386 532,-386 532,-386 532,-386 532,-285.39 532,-285.39"/>
<polygon fill="#be6562" stroke="#be6562" stroke-width="2" points="535.5,-285.39 532,-275.39 528.5,-285.39 535.5,-285.39"/>
</g>
<!-- node11 -->
<g id="node15" class="node">
<title>node11</title>
<path fill="#d5e8d4" stroke="#8fb976" stroke-width="2" d="M1283.25,-271.5C1283.25,-271.5 1010.75,-271.5 1010.75,-271.5 1004.75,-271.5 998.75,-265.5 998.75,-259.5 998.75,-259.5 998.75,-241 998.75,-241 998.75,-235 1004.75,-229 1010.75,-229 1010.75,-229 1283.25,-229 1283.25,-229 1289.25,-229 1295.25,-235 1295.25,-241 1295.25,-241 1295.25,-259.5 1295.25,-259.5 1295.25,-265.5 1289.25,-271.5 1283.25,-271.5"/>
<text xml:space="preserve" text-anchor="middle" x="1147" y="-254.2" font-family="Menlo" font-size="14.00">tight_inclusion</text>
<text xml:space="preserve" text-anchor="middle" x="1147" y="-236.95" font-family="Menlo" font-size="14.00">(tight_inclusion::tight_inclusion)</text>
</g>
<!-- node5&#45;&gt;node11 -->
<g id="edge22" class="edge">
<title>node5&#45;&gt;node11</title>
<path fill="none" stroke="#be6562" stroke-width="2" d="M1017.75,-368.07C1017.75,-368.07 1017.75,-285.36 1017.75,-285.36"/>
<polygon fill="#be6562" stroke="#be6562" stroke-width="2" points="1021.25,-285.36 1017.75,-275.36 1014.25,-285.36 1021.25,-285.36"/>
</g>
<!-- node12 -->
<g id="node16" class="node">
<title>node12</title>
<path fill="#d5e8d4" stroke="#8fb976" stroke-width="2" d="M1732.5,-271.5C1732.5,-271.5 1641.5,-271.5 1641.5,-271.5 1635.5,-271.5 1629.5,-265.5 1629.5,-259.5 1629.5,-259.5 1629.5,-241 1629.5,-241 1629.5,-235 1635.5,-229 1641.5,-229 1641.5,-229 1732.5,-229 1732.5,-229 1738.5,-229 1744.5,-235 1744.5,-241 1744.5,-241 1744.5,-259.5 1744.5,-259.5 1744.5,-265.5 1738.5,-271.5 1732.5,-271.5"/>
<text xml:space="preserve" text-anchor="middle" x="1687" y="-254.2" font-family="Menlo" font-size="14.00">absl_hash</text>
<text xml:space="preserve" text-anchor="middle" x="1687" y="-236.95" font-family="Menlo" font-size="14.00">(absl::hash)</text>
</g>
<!-- node5&#45;&gt;node12 -->
<g id="edge23" class="edge">
<title>node5&#45;&gt;node12</title>
<path fill="none" stroke="#be6562" stroke-width="2" d="M1037.72,-401C1215.46,-401 1687,-401 1687,-401 1687,-401 1687,-285.52 1687,-285.52"/>
<polygon fill="#be6562" stroke="#be6562" stroke-width="2" points="1690.5,-285.52 1687,-275.52 1683.5,-285.52 1690.5,-285.52"/>
</g>
<!-- node2&#45;&gt;node0 -->
<g id="edge4" class="edge">
<title>node2&#45;&gt;node0</title>
<path fill="none" stroke="#daa52d" stroke-width="2" d="M282,-113.7C282,-78.62 282,-14 282,-14 282,-14 735.22,-14 735.22,-14"/>
<polygon fill="#daa52d" stroke="#daa52d" stroke-width="2" points="735.22,-17.5 745.22,-14 735.22,-10.5 735.22,-17.5"/>
</g>
<!-- node3&#45;&gt;node2 -->
<g id="edge5" class="edge">
<title>node3&#45;&gt;node2</title>
<path fill="none" stroke="#daa52d" stroke-width="2" d="M293.12,-228.17C293.12,-228.17 293.12,-170.79 293.12,-170.79"/>
<polygon fill="#daa52d" stroke="#daa52d" stroke-width="2" points="296.63,-170.79 293.13,-160.79 289.63,-170.79 296.63,-170.79"/>
</g>
<!-- node4 -->
<g id="node9" class="node">
<title>node4</title>
<path fill="#d5e8d4" stroke="#8fb976" stroke-width="2" d="M555,-157C555,-157 365,-157 365,-157 359,-157 353,-151 353,-145 353,-145 353,-126.5 353,-126.5 353,-120.5 359,-114.5 365,-114.5 365,-114.5 555,-114.5 555,-114.5 561,-114.5 567,-120.5 567,-126.5 567,-126.5 567,-145 567,-145 567,-151 561,-157 555,-157"/>
<text xml:space="preserve" text-anchor="middle" x="460" y="-139.7" font-family="Menlo" font-size="14.00">predicates</text>
<text xml:space="preserve" text-anchor="middle" x="460" y="-122.45" font-family="Menlo" font-size="14.00">(predicates::predicates)</text>
</g>
<!-- node3&#45;&gt;node4 -->
<g id="edge6" class="edge">
<title>node3&#45;&gt;node4</title>
<path fill="none" stroke="#daa52d" stroke-width="2" d="M380.06,-228.17C380.06,-228.17 380.06,-170.79 380.06,-170.79"/>
<polygon fill="#daa52d" stroke="#daa52d" stroke-width="2" points="383.56,-170.79 380.06,-160.79 376.56,-170.79 383.56,-170.79"/>
</g>
<!-- node7&#45;&gt;node0 -->
<g id="edge12" class="edge">
<title>node7&#45;&gt;node0</title>
<path fill="none" stroke="#8fb976" stroke-width="2" d="M816.46,-228.29C816.46,-228.29 816.46,-56.5 816.46,-56.5"/>
<polygon fill="#8fb976" stroke="#8fb976" stroke-width="2" points="819.96,-56.5 816.46,-46.5 812.96,-56.5 819.96,-56.5"/>
</g>
<!-- node7&#45;&gt;node8 -->
<g id="edge13" class="edge">
<title>node7&#45;&gt;node8</title>
<path fill="none" stroke="#8fb976" stroke-width="2" d="M919.75,-228.17C919.75,-228.17 919.75,-170.79 919.75,-170.79"/>
<polygon fill="#8fb976" stroke="#8fb976" stroke-width="2" points="923.25,-170.79 919.75,-160.79 916.25,-170.79 923.25,-170.79"/>
</g>
<!-- node7&#45;&gt;node9 -->
<g id="edge14" class="edge">
<title>node7&#45;&gt;node9</title>
<path fill="none" stroke="#be6562" stroke-width="2" d="M737.88,-228.17C737.88,-228.17 737.88,-170.79 737.88,-170.79"/>
<polygon fill="#be6562" stroke="#be6562" stroke-width="2" points="741.38,-170.79 737.88,-160.79 734.38,-170.79 741.38,-170.79"/>
</g>
<!-- node10&#45;&gt;node0 -->
<g id="edge16" class="edge">
<title>node10&#45;&gt;node0</title>
<path fill="none" stroke="#8fb976" stroke-width="2" d="M603,-228.13C603,-171.91 603,-28 603,-28 603,-28 735.25,-28 735.25,-28"/>
<polygon fill="#8fb976" stroke="#8fb976" stroke-width="2" points="735.25,-31.5 745.25,-28 735.25,-24.5 735.25,-31.5"/>
</g>
<!-- node11&#45;&gt;node0 -->
<g id="edge20" class="edge">
<title>node11&#45;&gt;node0</title>
<path fill="none" stroke="#8fb976" stroke-width="2" d="M1170.12,-228.27C1170.12,-170.89 1170.12,-21 1170.12,-21 1170.12,-21 902.66,-21 902.66,-21"/>
<polygon fill="#8fb976" stroke="#8fb976" stroke-width="2" points="902.66,-17.5 892.66,-21 902.66,-24.5 902.66,-17.5"/>
</g>
<!-- node11&#45;&gt;node8 -->
<g id="edge21" class="edge">
<title>node11&#45;&gt;node8</title>
<path fill="none" stroke="#8fb976" stroke-width="2" d="M1021.88,-228.17C1021.88,-228.17 1021.88,-170.79 1021.88,-170.79"/>
<polygon fill="#8fb976" stroke="#8fb976" stroke-width="2" points="1025.38,-170.79 1021.88,-160.79 1018.38,-170.79 1025.38,-170.79"/>
</g>
</g>
</svg>
