<?xml version="1.0" encoding="UTF-8" standalone="no"?>
<!DOCTYPE svg PUBLIC "-//W3C//DTD SVG 1.1//EN"
 "http://www.w3.org/Graphics/SVG/1.1/DTD/svg11.dtd">
<!-- Generated by graphviz version 12.2.1 (20241206.2353)
 -->
<!-- Title: IPC Toolkit Dependencies Pages: 1 -->
<svg width="2124pt" height="420pt"
 viewBox="0.00 0.00 2123.75 419.50" xmlns="http://www.w3.org/2000/svg" xmlns:xlink="http://www.w3.org/1999/xlink">
<g id="graph0" class="graph" transform="scale(1 1) rotate(0) translate(4 415.5)">
<title>IPC Toolkit Dependencies</title>
<g id="clust1" class="cluster">
<title>clusterLegend</title>
<polygon fill="none" stroke="grey" stroke-width="2" points="8,-52.5 8,-361 201,-361 201,-52.5 8,-52.5"/>
<text text-anchor="middle" x="104.5" y="-343.7" font-family="Avenir Medium" font-size="14.00" fill="grey">Legend</text>
</g>
<!-- legendNode0 -->
<g id="node1" class="node">
<title>legendNode0</title>
<path fill="#d5e8d4" stroke="#8fb976" stroke-width="2" d="M137.38,-325.5C137.38,-325.5 66.62,-325.5 66.62,-325.5 60.62,-325.5 54.62,-319.5 54.62,-313.5 54.62,-313.5 54.62,-301.5 54.62,-301.5 54.62,-295.5 60.62,-289.5 66.62,-289.5 66.62,-289.5 137.38,-289.5 137.38,-289.5 143.38,-289.5 149.38,-295.5 149.38,-301.5 149.38,-301.5 149.38,-313.5 149.38,-313.5 149.38,-319.5 143.38,-325.5 137.38,-325.5"/>
<text text-anchor="middle" x="102" y="-303.95" font-family="Avenir Light" font-size="14.00">Static Library</text>
</g>
<!-- legendNode1 -->
<g id="node2" class="node">
<title>legendNode1</title>
<path fill="#cce7f8" stroke="#6596b2" stroke-width="2" d="M180.88,-211C180.88,-211 101.12,-211 101.12,-211 95.12,-211 89.12,-205 89.12,-199 89.12,-199 89.12,-187 89.12,-187 89.12,-181 95.12,-175 101.12,-175 101.12,-175 180.88,-175 180.88,-175 186.88,-175 192.88,-181 192.88,-187 192.88,-187 192.88,-199 192.88,-199 192.88,-205 186.88,-211 180.88,-211"/>
<text text-anchor="middle" x="141" y="-189.45" font-family="Avenir Light" font-size="14.00">Shared Library</text>
</g>
<!-- legendNode0&#45;&gt;legendNode1 -->
<g id="edge1" class="edge">
<title>legendNode0&#45;&gt;legendNode1</title>
<path fill="none" stroke="#8fb976" stroke-width="2" d="M119.25,-288.59C119.25,-288.59 119.25,-224.96 119.25,-224.96"/>
<polygon fill="#8fb976" stroke="#8fb976" stroke-width="2" points="122.75,-224.96 119.25,-214.96 115.75,-224.96 122.75,-224.96"/>
<text text-anchor="middle" x="139.38" y="-246.7" font-family="Avenir Light" font-size="14.00" fill="#8fb976">Public</text>
</g>
<!-- legendNode2 -->
<g id="node3" class="node">
<title>legendNode2</title>
<path fill="#ffe6cc" stroke="#daa52d" stroke-width="2" d="M149.5,-96.5C149.5,-96.5 58.5,-96.5 58.5,-96.5 52.5,-96.5 46.5,-90.5 46.5,-84.5 46.5,-84.5 46.5,-72.5 46.5,-72.5 46.5,-66.5 52.5,-60.5 58.5,-60.5 58.5,-60.5 149.5,-60.5 149.5,-60.5 155.5,-60.5 161.5,-66.5 161.5,-72.5 161.5,-72.5 161.5,-84.5 161.5,-84.5 161.5,-90.5 155.5,-96.5 149.5,-96.5"/>
<text text-anchor="middle" x="104" y="-74.95" font-family="Avenir Light" font-size="14.00">Interface Library</text>
</g>
<!-- legendNode1&#45;&gt;legendNode2 -->
<g id="edge3" class="edge">
<title>legendNode1&#45;&gt;legendNode2</title>
<path fill="none" stroke="#be6562" stroke-width="2" d="M125.31,-174.09C125.31,-174.09 125.31,-110.46 125.31,-110.46"/>
<polygon fill="#be6562" stroke="#be6562" stroke-width="2" points="128.81,-110.46 125.31,-100.46 121.81,-110.46 128.81,-110.46"/>
<text text-anchor="middle" x="143" y="-132.2" font-family="Avenir Light" font-size="14.00" fill="#be6562">Private</text>
</g>
<!-- legendNode2&#45;&gt;legendNode0 -->
<g id="edge2" class="edge">
<title>legendNode2&#45;&gt;legendNode0</title>
<path fill="none" stroke="#daa52d" stroke-width="2" d="M71.88,-97.24C71.88,-97.24 71.88,-275.47 71.88,-275.47"/>
<polygon fill="#daa52d" stroke="#daa52d" stroke-width="2" points="68.38,-275.47 71.88,-285.47 75.38,-275.47 68.38,-275.47"/>
<text text-anchor="middle" x="57" y="-189.45" font-family="Avenir Light" font-size="14.00" fill="#daa52d">Interface</text>
</g>
<!-- node5 -->
<g id="node4" class="node">
<title>node5</title>
<path fill="#d5e8d4" stroke="#8fb976" stroke-width="2" d="M1234.75,-411.5C1234.75,-411.5 1127.25,-411.5 1127.25,-411.5 1121.25,-411.5 1115.25,-405.5 1115.25,-399.5 1115.25,-399.5 1115.25,-381 1115.25,-381 1115.25,-375 1121.25,-369 1127.25,-369 1127.25,-369 1234.75,-369 1234.75,-369 1240.75,-369 1246.75,-375 1246.75,-381 1246.75,-381 1246.75,-399.5 1246.75,-399.5 1246.75,-405.5 1240.75,-411.5 1234.75,-411.5"/>
<text text-anchor="middle" x="1181" y="-394.2" font-family="Menlo" font-size="14.00">ipc_toolkit</text>
<text text-anchor="middle" x="1181" y="-376.95" font-family="Menlo" font-size="14.00">(ipc::toolkit)</text>
</g>
<!-- node0 -->
<g id="node5" class="node">
<title>node0</title>
<path fill="#ffe6cc" stroke="#daa52d" stroke-width="2" d="M996.88,-42.5C996.88,-42.5 881.12,-42.5 881.12,-42.5 875.12,-42.5 869.12,-36.5 869.12,-30.5 869.12,-30.5 869.12,-12 869.12,-12 869.12,-6 875.12,0 881.12,0 881.12,0 996.88,0 996.88,0 1002.88,0 1008.88,-6 1008.88,-12 1008.88,-12 1008.88,-30.5 1008.88,-30.5 1008.88,-36.5 1002.88,-42.5 996.88,-42.5"/>
<text text-anchor="middle" x="939" y="-25.2" font-family="Menlo" font-size="14.00">Eigen3_Eigen</text>
<text text-anchor="middle" x="939" y="-7.95" font-family="Menlo" font-size="14.00">(Eigen3::Eigen)</text>
</g>
<!-- node5&#45;&gt;node0 -->
<g id="edge7" class="edge">
<title>node5&#45;&gt;node0</title>
<path fill="none" stroke="#8fb976" stroke-width="2" d="M1247.62,-375C1256.23,-375 1262.12,-375 1262.12,-375 1262.12,-375 1262.12,-14 1262.12,-14 1262.12,-14 1022.54,-14 1022.54,-14"/>
<polygon fill="#8fb976" stroke="#8fb976" stroke-width="2" points="1022.54,-10.5 1012.54,-14 1022.54,-17.5 1022.54,-10.5"/>
</g>
<!-- node1 -->
<g id="node6" class="node">
<title>node1</title>
<path fill="#cce7f8" stroke="#6596b2" stroke-width="2" d="M1388.75,-271.5C1388.75,-271.5 1281.25,-271.5 1281.25,-271.5 1275.25,-271.5 1269.25,-265.5 1269.25,-259.5 1269.25,-259.5 1269.25,-241 1269.25,-241 1269.25,-235 1275.25,-229 1281.25,-229 1281.25,-229 1388.75,-229 1388.75,-229 1394.75,-229 1400.75,-235 1400.75,-241 1400.75,-241 1400.75,-259.5 1400.75,-259.5 1400.75,-265.5 1394.75,-271.5 1388.75,-271.5"/>
<text text-anchor="middle" x="1335" y="-254.2" font-family="Menlo" font-size="14.00">filib</text>
<text text-anchor="middle" x="1335" y="-236.95" font-family="Menlo" font-size="14.00">(filib::filib)</text>
</g>
<!-- node5&#45;&gt;node1 -->
<g id="edge8" class="edge">
<title>node5&#45;&gt;node1</title>
<path fill="none" stroke="#8fb976" stroke-width="2" d="M1247.65,-381C1289.27,-381 1335,-381 1335,-381 1335,-381 1335,-285.46 1335,-285.46"/>
<polygon fill="#8fb976" stroke="#8fb976" stroke-width="2" points="1338.5,-285.46 1335,-275.46 1331.5,-285.46 1338.5,-285.46"/>
</g>
<!-- node2 -->
<g id="node7" class="node">
<title>node2</title>
<path fill="#ffe6cc" stroke="#daa52d" stroke-width="2" d="M531.38,-157C531.38,-157 448.62,-157 448.62,-157 442.62,-157 436.62,-151 436.62,-145 436.62,-145 436.62,-126.5 436.62,-126.5 436.62,-120.5 442.62,-114.5 448.62,-114.5 448.62,-114.5 531.38,-114.5 531.38,-114.5 537.38,-114.5 543.38,-120.5 543.38,-126.5 543.38,-126.5 543.38,-145 543.38,-145 543.38,-151 537.38,-157 531.38,-157"/>
<text text-anchor="middle" x="490" y="-139.7" font-family="Menlo" font-size="14.00">igl_core</text>
<text text-anchor="middle" x="490" y="-122.45" font-family="Menlo" font-size="14.00">(igl::core)</text>
</g>
<!-- node5&#45;&gt;node2 -->
<g id="edge9" class="edge">
<title>node5&#45;&gt;node2</title>
<path fill="none" stroke="#be6562" stroke-width="2" d="M1114.39,-399C935.08,-399 455.69,-399 455.69,-399 455.69,-399 455.69,-170.77 455.69,-170.77"/>
<polygon fill="#be6562" stroke="#be6562" stroke-width="2" points="459.19,-170.77 455.69,-160.77 452.19,-170.77 459.19,-170.77"/>
</g>
<!-- node3 -->
<g id="node8" class="node">
<title>node3</title>
<path fill="#ffe6cc" stroke="#daa52d" stroke-width="2" d="M419.12,-271.5C419.12,-271.5 286.88,-271.5 286.88,-271.5 280.88,-271.5 274.88,-265.5 274.88,-259.5 274.88,-259.5 274.88,-241 274.88,-241 274.88,-235 280.88,-229 286.88,-229 286.88,-229 419.12,-229 419.12,-229 425.12,-229 431.12,-235 431.12,-241 431.12,-241 431.12,-259.5 431.12,-259.5 431.12,-265.5 425.12,-271.5 419.12,-271.5"/>
<text text-anchor="middle" x="353" y="-254.2" font-family="Menlo" font-size="14.00">igl_predicates</text>
<text text-anchor="middle" x="353" y="-236.95" font-family="Menlo" font-size="14.00">(igl::predicates)</text>
</g>
<!-- node5&#45;&gt;node3 -->
<g id="edge10" class="edge">
<title>node5&#45;&gt;node3</title>
<path fill="none" stroke="#be6562" stroke-width="2" d="M1114.29,-405C917.49,-405 353,-405 353,-405 353,-405 353,-285.45 353,-285.45"/>
<polygon fill="#be6562" stroke="#be6562" stroke-width="2" points="356.5,-285.45 353,-275.45 349.5,-285.45 356.5,-285.45"/>
</g>
<!-- node15 -->
<g id="node10" class="node">
<title>node15</title>
<path fill="#ffe6cc" stroke="#daa52d" stroke-width="2" d="M1534.75,-271.5C1534.75,-271.5 1427.25,-271.5 1427.25,-271.5 1421.25,-271.5 1415.25,-265.5 1415.25,-259.5 1415.25,-259.5 1415.25,-241 1415.25,-241 1415.25,-235 1421.25,-229 1427.25,-229 1427.25,-229 1534.75,-229 1534.75,-229 1540.75,-229 1546.75,-235 1546.75,-241 1546.75,-241 1546.75,-259.5 1546.75,-259.5 1546.75,-265.5 1540.75,-271.5 1534.75,-271.5"/>
<text text-anchor="middle" x="1481" y="-254.2" font-family="Menlo" font-size="14.00">xsimd</text>
<text text-anchor="middle" x="1481" y="-236.95" font-family="Menlo" font-size="14.00">(xsimd::xsimd)</text>
</g>
<!-- node5&#45;&gt;node15 -->
<g id="edge11" class="edge">
<title>node5&#45;&gt;node15</title>
<path fill="none" stroke="#be6562" stroke-width="2" d="M1247.58,-387C1335.96,-387 1481,-387 1481,-387 1481,-387 1481,-285.25 1481,-285.25"/>
<polygon fill="#be6562" stroke="#be6562" stroke-width="2" points="1484.5,-285.25 1481,-275.25 1477.5,-285.25 1484.5,-285.25"/>
</g>
<!-- node6 -->
<g id="node11" class="node">
<title>node6</title>
<path fill="#ffe6cc" stroke="#daa52d" stroke-width="2" d="M1697,-271.5C1697,-271.5 1573,-271.5 1573,-271.5 1567,-271.5 1561,-265.5 1561,-259.5 1561,-259.5 1561,-241 1561,-241 1561,-235 1567,-229 1573,-229 1573,-229 1697,-229 1697,-229 1703,-229 1709,-235 1709,-241 1709,-241 1709,-259.5 1709,-259.5 1709,-265.5 1703,-271.5 1697,-271.5"/>
<text text-anchor="middle" x="1635" y="-254.2" font-family="Menlo" font-size="14.00">robin_map</text>
<text text-anchor="middle" x="1635" y="-236.95" font-family="Menlo" font-size="14.00">(tsl::robin_map)</text>
</g>
<!-- node5&#45;&gt;node6 -->
<g id="edge12" class="edge">
<title>node5&#45;&gt;node6</title>
<path fill="none" stroke="#be6562" stroke-width="2" d="M1247.5,-393C1373.6,-393 1635,-393 1635,-393 1635,-393 1635,-285.27 1635,-285.27"/>
<polygon fill="#be6562" stroke="#be6562" stroke-width="2" points="1638.5,-285.27 1635,-275.27 1631.5,-285.27 1638.5,-285.27"/>
</g>
<!-- node7 -->
<g id="node12" class="node">
<title>node7</title>
<path fill="#d5e8d4" stroke="#8fb976" stroke-width="2" d="M1050.5,-271.5C1050.5,-271.5 827.5,-271.5 827.5,-271.5 821.5,-271.5 815.5,-265.5 815.5,-259.5 815.5,-259.5 815.5,-241 815.5,-241 815.5,-235 821.5,-229 827.5,-229 827.5,-229 1050.5,-229 1050.5,-229 1056.5,-229 1062.5,-235 1062.5,-241 1062.5,-241 1062.5,-259.5 1062.5,-259.5 1062.5,-265.5 1056.5,-271.5 1050.5,-271.5"/>
<text text-anchor="middle" x="939" y="-254.2" font-family="Menlo" font-size="14.00">scalable_ccd</text>
<text text-anchor="middle" x="939" y="-236.95" font-family="Menlo" font-size="14.00">(scalable_ccd::scalable_ccd)</text>
</g>
<!-- node5&#45;&gt;node7 -->
<g id="edge16" class="edge">
<title>node5&#45;&gt;node7</title>
<path fill="none" stroke="#be6562" stroke-width="2" d="M1114.55,-381C1042.91,-381 939,-381 939,-381 939,-381 939,-285.46 939,-285.46"/>
<polygon fill="#be6562" stroke="#be6562" stroke-width="2" points="942.5,-285.46 939,-275.46 935.5,-285.46 942.5,-285.46"/>
</g>
<!-- node8 -->
<g id="node13" class="node">
<title>node8</title>
<path fill="#d5e8d4" stroke="#8fb976" stroke-width="2" d="M855,-157C855,-157 731,-157 731,-157 725,-157 719,-151 719,-145 719,-145 719,-126.5 719,-126.5 719,-120.5 725,-114.5 731,-114.5 731,-114.5 855,-114.5 855,-114.5 861,-114.5 867,-120.5 867,-126.5 867,-126.5 867,-145 867,-145 867,-151 861,-157 855,-157"/>
<text text-anchor="middle" x="793" y="-139.7" font-family="Menlo" font-size="14.00">spdlog</text>
<text text-anchor="middle" x="793" y="-122.45" font-family="Menlo" font-size="14.00">(spdlog::spdlog)</text>
</g>
<!-- node5&#45;&gt;node8 -->
<g id="edge17" class="edge">
<title>node5&#45;&gt;node8</title>
<path fill="none" stroke="#8fb976" stroke-width="2" d="M1114.36,-387C1003.54,-387 793.38,-387 793.38,-387 793.38,-387 793.38,-170.63 793.38,-170.63"/>
<polygon fill="#8fb976" stroke="#8fb976" stroke-width="2" points="796.88,-170.63 793.38,-160.63 789.88,-170.63 796.88,-170.63"/>
</g>
<!-- node9 -->
<g id="node14" class="node">
<title>node9</title>
<path fill="#d5e8d4" stroke="#8fb976" stroke-width="2" d="M1122.25,-157C1122.25,-157 1047.75,-157 1047.75,-157 1041.75,-157 1035.75,-151 1035.75,-145 1035.75,-145 1035.75,-126.5 1035.75,-126.5 1035.75,-120.5 1041.75,-114.5 1047.75,-114.5 1047.75,-114.5 1122.25,-114.5 1122.25,-114.5 1128.25,-114.5 1134.25,-120.5 1134.25,-126.5 1134.25,-126.5 1134.25,-145 1134.25,-145 1134.25,-151 1128.25,-157 1122.25,-157"/>
<text text-anchor="middle" x="1085" y="-139.7" font-family="Menlo" font-size="14.00">tbb</text>
<text text-anchor="middle" x="1085" y="-122.45" font-family="Menlo" font-size="14.00">(TBB::tbb)</text>
</g>
<!-- node5&#45;&gt;node9 -->
<g id="edge18" class="edge">
<title>node5&#45;&gt;node9</title>
<path fill="none" stroke="#be6562" stroke-width="2" d="M1114.41,-375C1097.87,-375 1084.75,-375 1084.75,-375 1084.75,-375 1084.75,-170.86 1084.75,-170.86"/>
<polygon fill="#be6562" stroke="#be6562" stroke-width="2" points="1088.25,-170.86 1084.75,-160.86 1081.25,-170.86 1088.25,-170.86"/>
</g>
<!-- node11 -->
<g id="node15" class="node">
<title>node11</title>
<path fill="#d5e8d4" stroke="#8fb976" stroke-width="2" d="M759.25,-271.5C759.25,-271.5 486.75,-271.5 486.75,-271.5 480.75,-271.5 474.75,-265.5 474.75,-259.5 474.75,-259.5 474.75,-241 474.75,-241 474.75,-235 480.75,-229 486.75,-229 486.75,-229 759.25,-229 759.25,-229 765.25,-229 771.25,-235 771.25,-241 771.25,-241 771.25,-259.5 771.25,-259.5 771.25,-265.5 765.25,-271.5 759.25,-271.5"/>
<text text-anchor="middle" x="623" y="-254.2" font-family="Menlo" font-size="14.00">tight_inclusion</text>
<text text-anchor="middle" x="623" y="-236.95" font-family="Menlo" font-size="14.00">(tight_inclusion::tight_inclusion)</text>
</g>
<!-- node5&#45;&gt;node11 -->
<g id="edge21" class="edge">
<title>node5&#45;&gt;node11</title>
<path fill="none" stroke="#be6562" stroke-width="2" d="M1114.52,-393C966.56,-393 623,-393 623,-393 623,-393 623,-285.27 623,-285.27"/>
<polygon fill="#be6562" stroke="#be6562" stroke-width="2" points="626.5,-285.27 623,-275.27 619.5,-285.27 626.5,-285.27"/>
</g>
<!-- node12 -->
<g id="node16" class="node">
<title>node12</title>
<path fill="#d5e8d4" stroke="#8fb976" stroke-width="2" d="M1826.5,-271.5C1826.5,-271.5 1735.5,-271.5 1735.5,-271.5 1729.5,-271.5 1723.5,-265.5 1723.5,-259.5 1723.5,-259.5 1723.5,-241 1723.5,-241 1723.5,-235 1729.5,-229 1735.5,-229 1735.5,-229 1826.5,-229 1826.5,-229 1832.5,-229 1838.5,-235 1838.5,-241 1838.5,-241 1838.5,-259.5 1838.5,-259.5 1838.5,-265.5 1832.5,-271.5 1826.5,-271.5"/>
<text text-anchor="middle" x="1781" y="-254.2" font-family="Menlo" font-size="14.00">absl_hash</text>
<text text-anchor="middle" x="1781" y="-236.95" font-family="Menlo" font-size="14.00">(absl::hash)</text>
</g>
<!-- node5&#45;&gt;node12 -->
<g id="edge22" class="edge">
<title>node5&#45;&gt;node12</title>
<path fill="none" stroke="#be6562" stroke-width="2" d="M1247.5,-399C1403.72,-399 1781,-399 1781,-399 1781,-399 1781,-285.23 1781,-285.23"/>
<polygon fill="#be6562" stroke="#be6562" stroke-width="2" points="1784.5,-285.23 1781,-275.23 1777.5,-285.23 1784.5,-285.23"/>
</g>
<!-- node13 -->
<g id="node17" class="node">
<title>node13</title>
<path fill="#d5e8d4" stroke="#8fb976" stroke-width="2" d="M1243,-271.5C1243,-271.5 1119,-271.5 1119,-271.5 1113,-271.5 1107,-265.5 1107,-259.5 1107,-259.5 1107,-241 1107,-241 1107,-235 1113,-229 1119,-229 1119,-229 1243,-229 1243,-229 1249,-229 1255,-235 1255,-241 1255,-241 1255,-259.5 1255,-259.5 1255,-265.5 1249,-271.5 1243,-271.5"/>
<text text-anchor="middle" x="1181" y="-254.2" font-family="Menlo" font-size="14.00">TinyAD</text>
<text text-anchor="middle" x="1181" y="-236.95" font-family="Menlo" font-size="14.00">(TinyAD::TinyAD)</text>
</g>
<!-- node5&#45;&gt;node13 -->
<g id="edge23" class="edge">
<title>node5&#45;&gt;node13</title>
<path fill="none" stroke="#8fb976" stroke-width="2" d="M1181,-368.07C1181,-368.07 1181,-285.36 1181,-285.36"/>
<polygon fill="#8fb976" stroke="#8fb976" stroke-width="2" points="1184.5,-285.36 1181,-275.36 1177.5,-285.36 1184.5,-285.36"/>
</g>
<!-- node14 -->
<g id="node18" class="node">
<title>node14</title>
<path fill="#ffe6cc" stroke="#daa52d" stroke-width="2" d="M2103.75,-271.5C2103.75,-271.5 1864.25,-271.5 1864.25,-271.5 1858.25,-271.5 1852.25,-265.5 1852.25,-259.5 1852.25,-259.5 1852.25,-241 1852.25,-241 1852.25,-235 1858.25,-229 1864.25,-229 1864.25,-229 2103.75,-229 2103.75,-229 2109.75,-229 2115.75,-235 2115.75,-241 2115.75,-241 2115.75,-259.5 2115.75,-259.5 2115.75,-265.5 2109.75,-271.5 2103.75,-271.5"/>
<text text-anchor="middle" x="1984" y="-254.2" font-family="Menlo" font-size="14.00">nlohmann_json</text>
<text text-anchor="middle" x="1984" y="-236.95" font-family="Menlo" font-size="14.00">(nlohmann_json::nlohmann_json)</text>
</g>
<!-- node5&#45;&gt;node14 -->
<g id="edge26" class="edge">
<title>node5&#45;&gt;node14</title>
<path fill="none" stroke="#8fb976" stroke-width="2" d="M1247.74,-405C1440.43,-405 1984,-405 1984,-405 1984,-405 1984,-285.45 1984,-285.45"/>
<polygon fill="#8fb976" stroke="#8fb976" stroke-width="2" points="1987.5,-285.45 1984,-275.45 1980.5,-285.45 1987.5,-285.45"/>
</g>
<!-- node2&#45;&gt;node0 -->
<g id="edge4" class="edge">
<title>node2&#45;&gt;node0</title>
<path fill="none" stroke="#daa52d" stroke-width="2" d="M490,-113.7C490,-78.62 490,-14 490,-14 490,-14 855.32,-14 855.32,-14"/>
<polygon fill="#daa52d" stroke="#daa52d" stroke-width="2" points="855.32,-17.5 865.32,-14 855.32,-10.5 855.32,-17.5"/>
</g>
<!-- node3&#45;&gt;node2 -->
<g id="edge5" class="edge">
<title>node3&#45;&gt;node2</title>
<path fill="none" stroke="#daa52d" stroke-width="2" d="M427.06,-228.22C427.06,-195.02 427.06,-136 427.06,-136 427.06,-136 427.94,-136 427.94,-136"/>
<polygon fill="#daa52d" stroke="#daa52d" stroke-width="2" points="422.79,-139.5 432.79,-136 422.79,-132.5 422.79,-139.5"/>
</g>
<!-- node4 -->
<g id="node9" class="node">
<title>node4</title>
<path fill="#d5e8d4" stroke="#8fb976" stroke-width="2" d="M411,-157C411,-157 221,-157 221,-157 215,-157 209,-151 209,-145 209,-145 209,-126.5 209,-126.5 209,-120.5 215,-114.5 221,-114.5 221,-114.5 411,-114.5 411,-114.5 417,-114.5 423,-120.5 423,-126.5 423,-126.5 423,-145 423,-145 423,-151 417,-157 411,-157"/>
<text text-anchor="middle" x="316" y="-139.7" font-family="Menlo" font-size="14.00">predicates</text>
<text text-anchor="middle" x="316" y="-122.45" font-family="Menlo" font-size="14.00">(predicates::predicates)</text>
</g>
<!-- node3&#45;&gt;node4 -->
<g id="edge6" class="edge">
<title>node3&#45;&gt;node4</title>
<path fill="none" stroke="#daa52d" stroke-width="2" d="M348.94,-228.17C348.94,-228.17 348.94,-170.79 348.94,-170.79"/>
<polygon fill="#daa52d" stroke="#daa52d" stroke-width="2" points="352.44,-170.79 348.94,-160.79 345.44,-170.79 352.44,-170.79"/>
</g>
<!-- node7&#45;&gt;node0 -->
<g id="edge13" class="edge">
<title>node7&#45;&gt;node0</title>
<path fill="none" stroke="#8fb976" stroke-width="2" d="M939,-228.29C939,-228.29 939,-56.5 939,-56.5"/>
<polygon fill="#8fb976" stroke="#8fb976" stroke-width="2" points="942.5,-56.5 939,-46.5 935.5,-56.5 942.5,-56.5"/>
</g>
<!-- node7&#45;&gt;node8 -->
<g id="edge14" class="edge">
<title>node7&#45;&gt;node8</title>
<path fill="none" stroke="#8fb976" stroke-width="2" d="M841.25,-228.17C841.25,-228.17 841.25,-170.79 841.25,-170.79"/>
<polygon fill="#8fb976" stroke="#8fb976" stroke-width="2" points="844.75,-170.79 841.25,-160.79 837.75,-170.79 844.75,-170.79"/>
</g>
<!-- node7&#45;&gt;node9 -->
<g id="edge15" class="edge">
<title>node7&#45;&gt;node9</title>
<path fill="none" stroke="#be6562" stroke-width="2" d="M1049.12,-228.17C1049.12,-228.17 1049.12,-170.79 1049.12,-170.79"/>
<polygon fill="#be6562" stroke="#be6562" stroke-width="2" points="1052.63,-170.79 1049.13,-160.79 1045.63,-170.79 1052.63,-170.79"/>
</g>
<!-- node11&#45;&gt;node0 -->
<g id="edge19" class="edge">
<title>node11&#45;&gt;node0</title>
<path fill="none" stroke="#8fb976" stroke-width="2" d="M631.19,-228.13C631.19,-171.91 631.19,-28 631.19,-28 631.19,-28 855.35,-28 855.35,-28"/>
<polygon fill="#8fb976" stroke="#8fb976" stroke-width="2" points="855.35,-31.5 865.35,-28 855.35,-24.5 855.35,-31.5"/>
</g>
<!-- node11&#45;&gt;node8 -->
<g id="edge20" class="edge">
<title>node11&#45;&gt;node8</title>
<path fill="none" stroke="#8fb976" stroke-width="2" d="M745.12,-228.17C745.12,-228.17 745.12,-170.79 745.12,-170.79"/>
<polygon fill="#8fb976" stroke="#8fb976" stroke-width="2" points="748.63,-170.79 745.13,-160.79 741.63,-170.79 748.63,-170.79"/>
</g>
<!-- node13&#45;&gt;node0 -->
<g id="edge24" class="edge">
<title>node13&#45;&gt;node0</title>
<path fill="none" stroke="#be6562" stroke-width="2" d="M1194.62,-228.13C1194.62,-171.91 1194.62,-28 1194.62,-28 1194.62,-28 1022.89,-28 1022.89,-28"/>
<polygon fill="#be6562" stroke="#be6562" stroke-width="2" points="1022.89,-24.5 1012.89,-28 1022.89,-31.5 1022.89,-24.5"/>
</g>
<!-- node13&#45;&gt;node9 -->
<g id="edge25" class="edge">
<title>node13&#45;&gt;node9</title>
<path fill="none" stroke="#be6562" stroke-width="2" d="M1120.62,-228.17C1120.62,-228.17 1120.62,-170.79 1120.62,-170.79"/>
<polygon fill="#be6562" stroke="#be6562" stroke-width="2" points="1124.13,-170.79 1120.63,-160.79 1117.13,-170.79 1124.13,-170.79"/>
</g>
</g>
</svg>
