<?xml version="1.0" encoding="UTF-8" standalone="no"?>
<!DOCTYPE svg PUBLIC "-//W3C//DTD SVG 1.1//EN"
 "http://www.w3.org/Graphics/SVG/1.1/DTD/svg11.dtd">
<!-- Generated by graphviz version 14.1.1 (20251213.1925)
 -->
<!-- Title: IPC Toolkit Dependencies Pages: 1 -->
<svg width="2286pt" height="420pt"
 viewBox="0.00 0.00 2286.00 420.00" xmlns="http://www.w3.org/2000/svg" xmlns:xlink="http://www.w3.org/1999/xlink">
<g id="graph0" class="graph" transform="scale(1 1) rotate(0) translate(4 415.5)">
<title>IPC Toolkit Dependencies</title>
<g id="clust1" class="cluster">
<title>clusterLegend</title>
<polygon fill="none" stroke="grey" stroke-width="2" points="8,-52.5 8,-361 201,-361 201,-52.5 8,-52.5"/>
<text xml:space="preserve" text-anchor="middle" x="104.5" y="-343.7" font-family="Avenir Medium" font-size="14.00" fill="grey">Legend</text>
</g>
<!-- legendNode0 -->
<g id="node1" class="node">
<title>legendNode0</title>
<path fill="#d5e8d4" stroke="#8fb976" stroke-width="2" d="M137.38,-325.5C137.38,-325.5 66.62,-325.5 66.62,-325.5 60.62,-325.5 54.62,-319.5 54.62,-313.5 54.62,-313.5 54.62,-301.5 54.62,-301.5 54.62,-295.5 60.62,-289.5 66.62,-289.5 66.62,-289.5 137.38,-289.5 137.38,-289.5 143.38,-289.5 149.38,-295.5 149.38,-301.5 149.38,-301.5 149.38,-313.5 149.38,-313.5 149.38,-319.5 143.38,-325.5 137.38,-325.5"/>
<text xml:space="preserve" text-anchor="middle" x="102" y="-303.95" font-family="Avenir Light" font-size="14.00">Static Library</text>
</g>
<!-- legendNode1 -->
<g id="node2" class="node">
<title>legendNode1</title>
<path fill="#cce7f8" stroke="#6596b2" stroke-width="2" d="M180.88,-211C180.88,-211 101.12,-211 101.12,-211 95.12,-211 89.12,-205 89.12,-199 89.12,-199 89.12,-187 89.12,-187 89.12,-181 95.12,-175 101.12,-175 101.12,-175 180.88,-175 180.88,-175 186.88,-175 192.88,-181 192.88,-187 192.88,-187 192.88,-199 192.88,-199 192.88,-205 186.88,-211 180.88,-211"/>
<text xml:space="preserve" text-anchor="middle" x="141" y="-189.45" font-family="Avenir Light" font-size="14.00">Shared Library</text>
</g>
<!-- legendNode0&#45;&gt;legendNode1 -->
<g id="edge1" class="edge">
<title>legendNode0&#45;&gt;legendNode1</title>
<path fill="none" stroke="#8fb976" stroke-width="2" d="M119.25,-288.59C119.25,-288.59 119.25,-224.96 119.25,-224.96"/>
<polygon fill="#8fb976" stroke="#8fb976" stroke-width="2" points="122.75,-224.96 119.25,-214.96 115.75,-224.96 122.75,-224.96"/>
<text xml:space="preserve" text-anchor="middle" x="139.38" y="-246.7" font-family="Avenir Light" font-size="14.00" fill="#8fb976">Public</text>
</g>
<!-- legendNode2 -->
<g id="node3" class="node">
<title>legendNode2</title>
<path fill="#ffe6cc" stroke="#daa52d" stroke-width="2" d="M149.5,-96.5C149.5,-96.5 58.5,-96.5 58.5,-96.5 52.5,-96.5 46.5,-90.5 46.5,-84.5 46.5,-84.5 46.5,-72.5 46.5,-72.5 46.5,-66.5 52.5,-60.5 58.5,-60.5 58.5,-60.5 149.5,-60.5 149.5,-60.5 155.5,-60.5 161.5,-66.5 161.5,-72.5 161.5,-72.5 161.5,-84.5 161.5,-84.5 161.5,-90.5 155.5,-96.5 149.5,-96.5"/>
<text xml:space="preserve" text-anchor="middle" x="104" y="-74.95" font-family="Avenir Light" font-size="14.00">Interface Library</text>
</g>
<!-- legendNode1&#45;&gt;legendNode2 -->
<g id="edge3" class="edge">
<title>legendNode1&#45;&gt;legendNode2</title>
<path fill="none" stroke="#be6562" stroke-width="2" d="M125.31,-174.09C125.31,-174.09 125.31,-110.46 125.31,-110.46"/>
<polygon fill="#be6562" stroke="#be6562" stroke-width="2" points="128.81,-110.46 125.31,-100.46 121.81,-110.46 128.81,-110.46"/>
<text xml:space="preserve" text-anchor="middle" x="143" y="-132.2" font-family="Avenir Light" font-size="14.00" fill="#be6562">Private</text>
</g>
<!-- legendNode2&#45;&gt;legendNode0 -->
<g id="edge2" class="edge">
<title>legendNode2&#45;&gt;legendNode0</title>
<path fill="none" stroke="#daa52d" stroke-width="2" d="M71.88,-97.24C71.88,-97.24 71.88,-275.47 71.88,-275.47"/>
<polygon fill="#daa52d" stroke="#daa52d" stroke-width="2" points="68.38,-275.47 71.88,-285.47 75.38,-275.47 68.38,-275.47"/>
<text xml:space="preserve" text-anchor="middle" x="57" y="-189.45" font-family="Avenir Light" font-size="14.00" fill="#daa52d">Interface</text>
</g>
<!-- node5 -->
<g id="node4" class="node">
<title>node5</title>
<path fill="#d5e8d4" stroke="#8fb976" stroke-width="2" d="M1329.75,-411.5C1329.75,-411.5 1222.25,-411.5 1222.25,-411.5 1216.25,-411.5 1210.25,-405.5 1210.25,-399.5 1210.25,-399.5 1210.25,-381 1210.25,-381 1210.25,-375 1216.25,-369 1222.25,-369 1222.25,-369 1329.75,-369 1329.75,-369 1335.75,-369 1341.75,-375 1341.75,-381 1341.75,-381 1341.75,-399.5 1341.75,-399.5 1341.75,-405.5 1335.75,-411.5 1329.75,-411.5"/>
<text xml:space="preserve" text-anchor="middle" x="1276" y="-394.2" font-family="Menlo" font-size="14.00">ipc_toolkit</text>
<text xml:space="preserve" text-anchor="middle" x="1276" y="-376.95" font-family="Menlo" font-size="14.00">(ipc::toolkit)</text>
</g>
<!-- node0 -->
<g id="node5" class="node">
<title>node0</title>
<path fill="#ffe6cc" stroke="#daa52d" stroke-width="2" d="M1081.88,-42.5C1081.88,-42.5 966.12,-42.5 966.12,-42.5 960.12,-42.5 954.12,-36.5 954.12,-30.5 954.12,-30.5 954.12,-12 954.12,-12 954.12,-6 960.12,0 966.12,0 966.12,0 1081.88,0 1081.88,0 1087.88,0 1093.88,-6 1093.88,-12 1093.88,-12 1093.88,-30.5 1093.88,-30.5 1093.88,-36.5 1087.88,-42.5 1081.88,-42.5"/>
<text xml:space="preserve" text-anchor="middle" x="1024" y="-25.2" font-family="Menlo" font-size="14.00">Eigen3_Eigen</text>
<text xml:space="preserve" text-anchor="middle" x="1024" y="-7.95" font-family="Menlo" font-size="14.00">(Eigen3::Eigen)</text>
</g>
<!-- node5&#45;&gt;node0 -->
<g id="edge7" class="edge">
<title>node5&#45;&gt;node0</title>
<path fill="none" stroke="#8fb976" stroke-width="2" d="M1209.45,-375C1120.18,-375 972.75,-375 972.75,-375 972.75,-375 972.75,-56.41 972.75,-56.41"/>
<polygon fill="#8fb976" stroke="#8fb976" stroke-width="2" points="976.25,-56.41 972.75,-46.41 969.25,-56.41 976.25,-56.41"/>
</g>
<!-- node1 -->
<g id="node6" class="node">
<title>node1</title>
<path fill="#cce7f8" stroke="#6596b2" stroke-width="2" d="M1550.75,-271.5C1550.75,-271.5 1443.25,-271.5 1443.25,-271.5 1437.25,-271.5 1431.25,-265.5 1431.25,-259.5 1431.25,-259.5 1431.25,-241 1431.25,-241 1431.25,-235 1437.25,-229 1443.25,-229 1443.25,-229 1550.75,-229 1550.75,-229 1556.75,-229 1562.75,-235 1562.75,-241 1562.75,-241 1562.75,-259.5 1562.75,-259.5 1562.75,-265.5 1556.75,-271.5 1550.75,-271.5"/>
<text xml:space="preserve" text-anchor="middle" x="1497" y="-254.2" font-family="Menlo" font-size="14.00">filib</text>
<text xml:space="preserve" text-anchor="middle" x="1497" y="-236.95" font-family="Menlo" font-size="14.00">(filib::filib)</text>
</g>
<!-- node5&#45;&gt;node1 -->
<g id="edge8" class="edge">
<title>node5&#45;&gt;node1</title>
<path fill="none" stroke="#8fb976" stroke-width="2" d="M1342.61,-376C1407.68,-376 1497,-376 1497,-376 1497,-376 1497,-285.47 1497,-285.47"/>
<polygon fill="#8fb976" stroke="#8fb976" stroke-width="2" points="1500.5,-285.47 1497,-275.47 1493.5,-285.47 1500.5,-285.47"/>
</g>
<!-- node2 -->
<g id="node7" class="node">
<title>node2</title>
<path fill="#ffe6cc" stroke="#daa52d" stroke-width="2" d="M317.38,-157C317.38,-157 234.62,-157 234.62,-157 228.62,-157 222.62,-151 222.62,-145 222.62,-145 222.62,-126.5 222.62,-126.5 222.62,-120.5 228.62,-114.5 234.62,-114.5 234.62,-114.5 317.38,-114.5 317.38,-114.5 323.38,-114.5 329.38,-120.5 329.38,-126.5 329.38,-126.5 329.38,-145 329.38,-145 329.38,-151 323.38,-157 317.38,-157"/>
<text xml:space="preserve" text-anchor="middle" x="276" y="-139.7" font-family="Menlo" font-size="14.00">igl_core</text>
<text xml:space="preserve" text-anchor="middle" x="276" y="-122.45" font-family="Menlo" font-size="14.00">(igl::core)</text>
</g>
<!-- node5&#45;&gt;node2 -->
<g id="edge9" class="edge">
<title>node5&#45;&gt;node2</title>
<path fill="none" stroke="#be6562" stroke-width="2" d="M1209.42,-405C979.19,-405 230.75,-405 230.75,-405 230.75,-405 230.75,-170.81 230.75,-170.81"/>
<polygon fill="#be6562" stroke="#be6562" stroke-width="2" points="234.25,-170.81 230.75,-160.81 227.25,-170.81 234.25,-170.81"/>
</g>
<!-- node3 -->
<g id="node8" class="node">
<title>node3</title>
<path fill="#ffe6cc" stroke="#daa52d" stroke-width="2" d="M383.12,-271.5C383.12,-271.5 250.88,-271.5 250.88,-271.5 244.88,-271.5 238.88,-265.5 238.88,-259.5 238.88,-259.5 238.88,-241 238.88,-241 238.88,-235 244.88,-229 250.88,-229 250.88,-229 383.12,-229 383.12,-229 389.12,-229 395.12,-235 395.12,-241 395.12,-241 395.12,-259.5 395.12,-259.5 395.12,-265.5 389.12,-271.5 383.12,-271.5"/>
<text xml:space="preserve" text-anchor="middle" x="317" y="-254.2" font-family="Menlo" font-size="14.00">igl_predicates</text>
<text xml:space="preserve" text-anchor="middle" x="317" y="-236.95" font-family="Menlo" font-size="14.00">(igl::predicates)</text>
</g>
<!-- node5&#45;&gt;node3 -->
<g id="edge10" class="edge">
<title>node5&#45;&gt;node3</title>
<path fill="none" stroke="#be6562" stroke-width="2" d="M1209.33,-399C991.85,-399 317,-399 317,-399 317,-399 317,-285.23 317,-285.23"/>
<polygon fill="#be6562" stroke="#be6562" stroke-width="2" points="320.5,-285.23 317,-275.23 313.5,-285.23 320.5,-285.23"/>
</g>
<!-- node15 -->
<g id="node10" class="node">
<title>node15</title>
<path fill="#ffe6cc" stroke="#daa52d" stroke-width="2" d="M1696.75,-271.5C1696.75,-271.5 1589.25,-271.5 1589.25,-271.5 1583.25,-271.5 1577.25,-265.5 1577.25,-259.5 1577.25,-259.5 1577.25,-241 1577.25,-241 1577.25,-235 1583.25,-229 1589.25,-229 1589.25,-229 1696.75,-229 1696.75,-229 1702.75,-229 1708.75,-235 1708.75,-241 1708.75,-241 1708.75,-259.5 1708.75,-259.5 1708.75,-265.5 1702.75,-271.5 1696.75,-271.5"/>
<text xml:space="preserve" text-anchor="middle" x="1643" y="-254.2" font-family="Menlo" font-size="14.00">xsimd</text>
<text xml:space="preserve" text-anchor="middle" x="1643" y="-236.95" font-family="Menlo" font-size="14.00">(xsimd::xsimd)</text>
</g>
<!-- node5&#45;&gt;node15 -->
<g id="edge11" class="edge">
<title>node5&#45;&gt;node15</title>
<path fill="none" stroke="#be6562" stroke-width="2" d="M1342.46,-383C1448.22,-383 1643,-383 1643,-383 1643,-383 1643,-285.5 1643,-285.5"/>
<polygon fill="#be6562" stroke="#be6562" stroke-width="2" points="1646.5,-285.5 1643,-275.5 1639.5,-285.5 1646.5,-285.5"/>
</g>
<!-- node6 -->
<g id="node11" class="node">
<title>node6</title>
<path fill="#ffe6cc" stroke="#daa52d" stroke-width="2" d="M1859,-271.5C1859,-271.5 1735,-271.5 1735,-271.5 1729,-271.5 1723,-265.5 1723,-259.5 1723,-259.5 1723,-241 1723,-241 1723,-235 1729,-229 1735,-229 1735,-229 1859,-229 1859,-229 1865,-229 1871,-235 1871,-241 1871,-241 1871,-259.5 1871,-259.5 1871,-265.5 1865,-271.5 1859,-271.5"/>
<text xml:space="preserve" text-anchor="middle" x="1797" y="-254.2" font-family="Menlo" font-size="14.00">robin_map</text>
<text xml:space="preserve" text-anchor="middle" x="1797" y="-236.95" font-family="Menlo" font-size="14.00">(tsl::robin_map)</text>
</g>
<!-- node5&#45;&gt;node6 -->
<g id="edge12" class="edge">
<title>node5&#45;&gt;node6</title>
<path fill="none" stroke="#be6562" stroke-width="2" d="M1342.51,-390C1482.97,-390 1797,-390 1797,-390 1797,-390 1797,-285.42 1797,-285.42"/>
<polygon fill="#be6562" stroke="#be6562" stroke-width="2" points="1800.5,-285.42 1797,-275.42 1793.5,-285.42 1800.5,-285.42"/>
</g>
<!-- node7 -->
<g id="node12" class="node">
<title>node7</title>
<path fill="#d5e8d4" stroke="#8fb976" stroke-width="2" d="M1212.5,-271.5C1212.5,-271.5 989.5,-271.5 989.5,-271.5 983.5,-271.5 977.5,-265.5 977.5,-259.5 977.5,-259.5 977.5,-241 977.5,-241 977.5,-235 983.5,-229 989.5,-229 989.5,-229 1212.5,-229 1212.5,-229 1218.5,-229 1224.5,-235 1224.5,-241 1224.5,-241 1224.5,-259.5 1224.5,-259.5 1224.5,-265.5 1218.5,-271.5 1212.5,-271.5"/>
<text xml:space="preserve" text-anchor="middle" x="1101" y="-254.2" font-family="Menlo" font-size="14.00">scalable_ccd</text>
<text xml:space="preserve" text-anchor="middle" x="1101" y="-236.95" font-family="Menlo" font-size="14.00">(scalable_ccd::scalable_ccd)</text>
</g>
<!-- node5&#45;&gt;node7 -->
<g id="edge16" class="edge">
<title>node5&#45;&gt;node7</title>
<path fill="none" stroke="#be6562" stroke-width="2" d="M1217.38,-368.07C1217.38,-368.07 1217.38,-285.36 1217.38,-285.36"/>
<polygon fill="#be6562" stroke="#be6562" stroke-width="2" points="1220.88,-285.36 1217.38,-275.36 1213.88,-285.36 1220.88,-285.36"/>
</g>
<!-- node8 -->
<g id="node13" class="node">
<title>node8</title>
<path fill="#d5e8d4" stroke="#8fb976" stroke-width="2" d="M877,-157C877,-157 753,-157 753,-157 747,-157 741,-151 741,-145 741,-145 741,-126.5 741,-126.5 741,-120.5 747,-114.5 753,-114.5 753,-114.5 877,-114.5 877,-114.5 883,-114.5 889,-120.5 889,-126.5 889,-126.5 889,-145 889,-145 889,-151 883,-157 877,-157"/>
<text xml:space="preserve" text-anchor="middle" x="815" y="-139.7" font-family="Menlo" font-size="14.00">spdlog</text>
<text xml:space="preserve" text-anchor="middle" x="815" y="-122.45" font-family="Menlo" font-size="14.00">(spdlog::spdlog)</text>
</g>
<!-- node5&#45;&gt;node8 -->
<g id="edge19" class="edge">
<title>node5&#45;&gt;node8</title>
<path fill="none" stroke="#8fb976" stroke-width="2" d="M1209.55,-381C1119,-381 968,-381 968,-381 968,-381 968,-143 968,-143 968,-143 902.73,-143 902.73,-143"/>
<polygon fill="#8fb976" stroke="#8fb976" stroke-width="2" points="902.73,-139.5 892.73,-143 902.73,-146.5 902.73,-139.5"/>
</g>
<!-- node9 -->
<g id="node14" class="node">
<title>node9</title>
<path fill="#d5e8d4" stroke="#8fb976" stroke-width="2" d="M1284.25,-157C1284.25,-157 1209.75,-157 1209.75,-157 1203.75,-157 1197.75,-151 1197.75,-145 1197.75,-145 1197.75,-126.5 1197.75,-126.5 1197.75,-120.5 1203.75,-114.5 1209.75,-114.5 1209.75,-114.5 1284.25,-114.5 1284.25,-114.5 1290.25,-114.5 1296.25,-120.5 1296.25,-126.5 1296.25,-126.5 1296.25,-145 1296.25,-145 1296.25,-151 1290.25,-157 1284.25,-157"/>
<text xml:space="preserve" text-anchor="middle" x="1247" y="-139.7" font-family="Menlo" font-size="14.00">tbb</text>
<text xml:space="preserve" text-anchor="middle" x="1247" y="-122.45" font-family="Menlo" font-size="14.00">(TBB::tbb)</text>
</g>
<!-- node5&#45;&gt;node9 -->
<g id="edge20" class="edge">
<title>node5&#45;&gt;node9</title>
<path fill="none" stroke="#be6562" stroke-width="2" d="M1246.75,-368.11C1246.75,-368.11 1246.75,-170.68 1246.75,-170.68"/>
<polygon fill="#be6562" stroke="#be6562" stroke-width="2" points="1250.25,-170.68 1246.75,-160.68 1243.25,-170.68 1250.25,-170.68"/>
</g>
<!-- node10 -->
<g id="node15" class="node">
<title>node10</title>
<path fill="#d5e8d4" stroke="#8fb976" stroke-width="2" d="M611,-271.5C611,-271.5 421,-271.5 421,-271.5 415,-271.5 409,-265.5 409,-259.5 409,-259.5 409,-241 409,-241 409,-235 415,-229 421,-229 421,-229 611,-229 611,-229 617,-229 623,-235 623,-241 623,-241 623,-259.5 623,-259.5 623,-265.5 617,-271.5 611,-271.5"/>
<text xml:space="preserve" text-anchor="middle" x="516" y="-254.2" font-family="Menlo" font-size="14.00">simple_bvh</text>
<text xml:space="preserve" text-anchor="middle" x="516" y="-236.95" font-family="Menlo" font-size="14.00">(simple_bvh::simple_bvh)</text>
</g>
<!-- node5&#45;&gt;node10 -->
<g id="edge18" class="edge">
<title>node5&#45;&gt;node10</title>
<path fill="none" stroke="#be6562" stroke-width="2" d="M1209.55,-393C1024.37,-393 516,-393 516,-393 516,-393 516,-285.27 516,-285.27"/>
<polygon fill="#be6562" stroke="#be6562" stroke-width="2" points="519.5,-285.27 516,-275.27 512.5,-285.27 519.5,-285.27"/>
</g>
<!-- node11 -->
<g id="node16" class="node">
<title>node11</title>
<path fill="#d5e8d4" stroke="#8fb976" stroke-width="2" d="M951.25,-271.5C951.25,-271.5 678.75,-271.5 678.75,-271.5 672.75,-271.5 666.75,-265.5 666.75,-259.5 666.75,-259.5 666.75,-241 666.75,-241 666.75,-235 672.75,-229 678.75,-229 678.75,-229 951.25,-229 951.25,-229 957.25,-229 963.25,-235 963.25,-241 963.25,-241 963.25,-259.5 963.25,-259.5 963.25,-265.5 957.25,-271.5 951.25,-271.5"/>
<text xml:space="preserve" text-anchor="middle" x="815" y="-254.2" font-family="Menlo" font-size="14.00">tight_inclusion</text>
<text xml:space="preserve" text-anchor="middle" x="815" y="-236.95" font-family="Menlo" font-size="14.00">(tight_inclusion::tight_inclusion)</text>
</g>
<!-- node5&#45;&gt;node11 -->
<g id="edge23" class="edge">
<title>node5&#45;&gt;node11</title>
<path fill="none" stroke="#be6562" stroke-width="2" d="M1209.46,-387C1081.79,-387 815,-387 815,-387 815,-387 815,-285.25 815,-285.25"/>
<polygon fill="#be6562" stroke="#be6562" stroke-width="2" points="818.5,-285.25 815,-275.25 811.5,-285.25 818.5,-285.25"/>
</g>
<!-- node12 -->
<g id="node17" class="node">
<title>node12</title>
<path fill="#d5e8d4" stroke="#8fb976" stroke-width="2" d="M1988.5,-271.5C1988.5,-271.5 1897.5,-271.5 1897.5,-271.5 1891.5,-271.5 1885.5,-265.5 1885.5,-259.5 1885.5,-259.5 1885.5,-241 1885.5,-241 1885.5,-235 1891.5,-229 1897.5,-229 1897.5,-229 1988.5,-229 1988.5,-229 1994.5,-229 2000.5,-235 2000.5,-241 2000.5,-241 2000.5,-259.5 2000.5,-259.5 2000.5,-265.5 1994.5,-271.5 1988.5,-271.5"/>
<text xml:space="preserve" text-anchor="middle" x="1943" y="-254.2" font-family="Menlo" font-size="14.00">absl_hash</text>
<text xml:space="preserve" text-anchor="middle" x="1943" y="-236.95" font-family="Menlo" font-size="14.00">(absl::hash)</text>
</g>
<!-- node5&#45;&gt;node12 -->
<g id="edge24" class="edge">
<title>node5&#45;&gt;node12</title>
<path fill="none" stroke="#be6562" stroke-width="2" d="M1342.7,-397C1511.63,-397 1943,-397 1943,-397 1943,-397 1943,-285.25 1943,-285.25"/>
<polygon fill="#be6562" stroke="#be6562" stroke-width="2" points="1946.5,-285.25 1943,-275.25 1939.5,-285.25 1946.5,-285.25"/>
</g>
<!-- node13 -->
<g id="node18" class="node">
<title>node13</title>
<path fill="#d5e8d4" stroke="#8fb976" stroke-width="2" d="M1405,-271.5C1405,-271.5 1281,-271.5 1281,-271.5 1275,-271.5 1269,-265.5 1269,-259.5 1269,-259.5 1269,-241 1269,-241 1269,-235 1275,-229 1281,-229 1281,-229 1405,-229 1405,-229 1411,-229 1417,-235 1417,-241 1417,-241 1417,-259.5 1417,-259.5 1417,-265.5 1411,-271.5 1405,-271.5"/>
<text xml:space="preserve" text-anchor="middle" x="1343" y="-254.2" font-family="Menlo" font-size="14.00">TinyAD</text>
<text xml:space="preserve" text-anchor="middle" x="1343" y="-236.95" font-family="Menlo" font-size="14.00">(TinyAD::TinyAD)</text>
</g>
<!-- node5&#45;&gt;node13 -->
<g id="edge25" class="edge">
<title>node5&#45;&gt;node13</title>
<path fill="none" stroke="#8fb976" stroke-width="2" d="M1305.38,-368.07C1305.38,-368.07 1305.38,-285.36 1305.38,-285.36"/>
<polygon fill="#8fb976" stroke="#8fb976" stroke-width="2" points="1308.88,-285.36 1305.38,-275.36 1301.88,-285.36 1308.88,-285.36"/>
</g>
<!-- node14 -->
<g id="node19" class="node">
<title>node14</title>
<path fill="#ffe6cc" stroke="#daa52d" stroke-width="2" d="M2265.75,-271.5C2265.75,-271.5 2026.25,-271.5 2026.25,-271.5 2020.25,-271.5 2014.25,-265.5 2014.25,-259.5 2014.25,-259.5 2014.25,-241 2014.25,-241 2014.25,-235 2020.25,-229 2026.25,-229 2026.25,-229 2265.75,-229 2265.75,-229 2271.75,-229 2277.75,-235 2277.75,-241 2277.75,-241 2277.75,-259.5 2277.75,-259.5 2277.75,-265.5 2271.75,-271.5 2265.75,-271.5"/>
<text xml:space="preserve" text-anchor="middle" x="2146" y="-254.2" font-family="Menlo" font-size="14.00">nlohmann_json</text>
<text xml:space="preserve" text-anchor="middle" x="2146" y="-236.95" font-family="Menlo" font-size="14.00">(nlohmann_json::nlohmann_json)</text>
</g>
<!-- node5&#45;&gt;node14 -->
<g id="edge28" class="edge">
<title>node5&#45;&gt;node14</title>
<path fill="none" stroke="#8fb976" stroke-width="2" d="M1342.46,-404C1545.84,-404 2146,-404 2146,-404 2146,-404 2146,-285.31 2146,-285.31"/>
<polygon fill="#8fb976" stroke="#8fb976" stroke-width="2" points="2149.5,-285.31 2146,-275.31 2142.5,-285.31 2149.5,-285.31"/>
</g>
<!-- node2&#45;&gt;node0 -->
<g id="edge4" class="edge">
<title>node2&#45;&gt;node0</title>
<path fill="none" stroke="#daa52d" stroke-width="2" d="M276,-113.7C276,-78.62 276,-14 276,-14 276,-14 940.27,-14 940.27,-14"/>
<polygon fill="#daa52d" stroke="#daa52d" stroke-width="2" points="940.27,-17.5 950.27,-14 940.27,-10.5 940.27,-17.5"/>
</g>
<!-- node3&#45;&gt;node2 -->
<g id="edge5" class="edge">
<title>node3&#45;&gt;node2</title>
<path fill="none" stroke="#daa52d" stroke-width="2" d="M284.12,-228.17C284.12,-228.17 284.12,-170.79 284.12,-170.79"/>
<polygon fill="#daa52d" stroke="#daa52d" stroke-width="2" points="287.63,-170.79 284.13,-160.79 280.63,-170.79 287.63,-170.79"/>
</g>
<!-- node4 -->
<g id="node9" class="node">
<title>node4</title>
<path fill="#d5e8d4" stroke="#8fb976" stroke-width="2" d="M545,-157C545,-157 355,-157 355,-157 349,-157 343,-151 343,-145 343,-145 343,-126.5 343,-126.5 343,-120.5 349,-114.5 355,-114.5 355,-114.5 545,-114.5 545,-114.5 551,-114.5 557,-120.5 557,-126.5 557,-126.5 557,-145 557,-145 557,-151 551,-157 545,-157"/>
<text xml:space="preserve" text-anchor="middle" x="450" y="-139.7" font-family="Menlo" font-size="14.00">predicates</text>
<text xml:space="preserve" text-anchor="middle" x="450" y="-122.45" font-family="Menlo" font-size="14.00">(predicates::predicates)</text>
</g>
<!-- node3&#45;&gt;node4 -->
<g id="edge6" class="edge">
<title>node3&#45;&gt;node4</title>
<path fill="none" stroke="#daa52d" stroke-width="2" d="M369.06,-228.17C369.06,-228.17 369.06,-170.79 369.06,-170.79"/>
<polygon fill="#daa52d" stroke="#daa52d" stroke-width="2" points="372.56,-170.79 369.06,-160.79 365.56,-170.79 372.56,-170.79"/>
</g>
<!-- node7&#45;&gt;node0 -->
<g id="edge13" class="edge">
<title>node7&#45;&gt;node0</title>
<path fill="none" stroke="#8fb976" stroke-width="2" d="M1055.08,-228.29C1055.08,-228.29 1055.08,-56.5 1055.08,-56.5"/>
<polygon fill="#8fb976" stroke="#8fb976" stroke-width="2" points="1058.58,-56.5 1055.08,-46.5 1051.58,-56.5 1058.58,-56.5"/>
</g>
<!-- node7&#45;&gt;node8 -->
<g id="edge14" class="edge">
<title>node7&#45;&gt;node8</title>
<path fill="none" stroke="#8fb976" stroke-width="2" d="M1016.29,-228.01C1016.29,-193.01 1016.29,-129 1016.29,-129 1016.29,-129 902.98,-129 902.98,-129"/>
<polygon fill="#8fb976" stroke="#8fb976" stroke-width="2" points="902.98,-125.5 892.98,-129 902.98,-132.5 902.98,-125.5"/>
</g>
<!-- node7&#45;&gt;node9 -->
<g id="edge15" class="edge">
<title>node7&#45;&gt;node9</title>
<path fill="none" stroke="#be6562" stroke-width="2" d="M1211.12,-228.17C1211.12,-228.17 1211.12,-170.79 1211.12,-170.79"/>
<polygon fill="#be6562" stroke="#be6562" stroke-width="2" points="1214.63,-170.79 1211.13,-160.79 1207.63,-170.79 1214.63,-170.79"/>
</g>
<!-- node10&#45;&gt;node0 -->
<g id="edge17" class="edge">
<title>node10&#45;&gt;node0</title>
<path fill="none" stroke="#8fb976" stroke-width="2" d="M590,-228.13C590,-171.91 590,-28 590,-28 590,-28 940.28,-28 940.28,-28"/>
<polygon fill="#8fb976" stroke="#8fb976" stroke-width="2" points="940.28,-31.5 950.28,-28 940.28,-24.5 940.28,-31.5"/>
</g>
<!-- node11&#45;&gt;node0 -->
<g id="edge21" class="edge">
<title>node11&#45;&gt;node0</title>
<path fill="none" stroke="#8fb976" stroke-width="2" d="M958.69,-228.29C958.69,-228.29 958.69,-56.5 958.69,-56.5"/>
<polygon fill="#8fb976" stroke="#8fb976" stroke-width="2" points="962.19,-56.5 958.69,-46.5 955.19,-56.5 962.19,-56.5"/>
</g>
<!-- node11&#45;&gt;node8 -->
<g id="edge22" class="edge">
<title>node11&#45;&gt;node8</title>
<path fill="none" stroke="#8fb976" stroke-width="2" d="M815,-228.17C815,-228.17 815,-170.79 815,-170.79"/>
<polygon fill="#8fb976" stroke="#8fb976" stroke-width="2" points="818.5,-170.79 815,-160.79 811.5,-170.79 818.5,-170.79"/>
</g>
<!-- node13&#45;&gt;node0 -->
<g id="edge26" class="edge">
<title>node13&#45;&gt;node0</title>
<path fill="none" stroke="#be6562" stroke-width="2" d="M1356.62,-228.27C1356.62,-170.89 1356.62,-21 1356.62,-21 1356.62,-21 1107.57,-21 1107.57,-21"/>
<polygon fill="#be6562" stroke="#be6562" stroke-width="2" points="1107.57,-17.5 1097.57,-21 1107.57,-24.5 1107.57,-17.5"/>
</g>
<!-- node13&#45;&gt;node9 -->
<g id="edge27" class="edge">
<title>node13&#45;&gt;node9</title>
<path fill="none" stroke="#be6562" stroke-width="2" d="M1282.62,-228.17C1282.62,-228.17 1282.62,-170.79 1282.62,-170.79"/>
<polygon fill="#be6562" stroke="#be6562" stroke-width="2" points="1286.13,-170.79 1282.63,-160.79 1279.13,-170.79 1286.13,-170.79"/>
</g>
</g>
</svg>
