<?xml version="1.0" encoding="UTF-8" standalone="no"?>
<!DOCTYPE svg PUBLIC "-//W3C//DTD SVG 1.1//EN"
 "http://www.w3.org/Graphics/SVG/1.1/DTD/svg11.dtd">
<!-- Generated by graphviz version 2.43.0 (0)
 -->
<!-- Title: %3 Pages: 1 -->
<svg width="472pt" height="260pt"
 viewBox="0.00 0.00 472.00 260.00" xmlns="http://www.w3.org/2000/svg" xmlns:xlink="http://www.w3.org/1999/xlink">
<g id="graph0" class="graph" transform="scale(1 1) rotate(0) translate(4 256)">
<title>%3</title>
<polygon fill="transparent" stroke="transparent" points="-4,4 -4,-256 468,-256 468,4 -4,4"/>
<!-- 3 -->
<g id="node1" class="node">
<title>3</title>
<g id="a_node1"><a xlink:title="ipc::ContinuousCollisionCandidate">
<polygon fill="#ffffff" stroke="black" points="464,-108 202,-108 202,-72 464,-72 464,-108"/>
<text text-anchor="middle" x="333" y="-86.3" font-family="Times,serif" font-size="14.00">ipc::ContinuousCollisionCandidate</text>
</a>
</g>
</g>
<!-- 4 -->
<g id="node2" class="node">
<title>4</title>
<g id="a_node2"><a xlink:title="ipc::CollisionStencil">
<polygon fill="#ffffff" stroke="black" points="291,-36 133,-36 133,0 291,0 291,-36"/>
<text text-anchor="middle" x="212" y="-14.3" font-family="Times,serif" font-size="14.00">ipc::CollisionStencil</text>
</a>
</g>
</g>
<!-- 3&#45;&gt;4 -->
<g id="edge1" class="edge">
<title>3&#45;&gt;4</title>
<g id="a_edge1"><a xlink:title="public&#45;inheritance">
<path fill="none" stroke="#ce93d8" d="M303.4,-71.88C287.43,-62.64 267.54,-51.13 250.39,-41.21"/>
<polygon fill="#ce93d8" stroke="#ce93d8" points="252.12,-38.17 241.71,-36.19 248.62,-44.23 252.12,-38.17"/>
</a>
</g>
</g>
<!-- 1 -->
<g id="node3" class="node">
<title>1</title>
<g id="a_node3"><a xlink:title="ipc::EdgeEdgeConstraint">
<polygon fill="#bfbfbf" stroke="black" points="310,-252 114,-252 114,-216 310,-216 310,-252"/>
<text text-anchor="middle" x="212" y="-230.3" font-family="Times,serif" font-size="14.00">ipc::EdgeEdgeConstraint</text>
</a>
</g>
</g>
<!-- 5 -->
<g id="node4" class="node">
<title>5</title>
<g id="a_node4"><a xlink:title="ipc::CollisionConstraint">
<polygon fill="#ffffff" stroke="black" points="184,-108 0,-108 0,-72 184,-72 184,-108"/>
<text text-anchor="middle" x="92" y="-86.3" font-family="Times,serif" font-size="14.00">ipc::CollisionConstraint</text>
</a>
</g>
</g>
<!-- 1&#45;&gt;5 -->
<g id="edge3" class="edge">
<title>1&#45;&gt;5</title>
<g id="a_edge3"><a xlink:title="public&#45;inheritance">
<path fill="none" stroke="#ce93d8" d="M197.53,-215.87C176.53,-191.03 137.5,-144.85 113.25,-116.14"/>
<polygon fill="#ce93d8" stroke="#ce93d8" points="115.65,-113.57 106.53,-108.19 110.31,-118.09 115.65,-113.57"/>
</a>
</g>
</g>
<!-- 2 -->
<g id="node5" class="node">
<title>2</title>
<g id="a_node5"><a xlink:title="ipc::EdgeEdgeCandidate">
<polygon fill="#ffffff" stroke="black" points="400.5,-180 207.5,-180 207.5,-144 400.5,-144 400.5,-180"/>
<text text-anchor="middle" x="304" y="-158.3" font-family="Times,serif" font-size="14.00">ipc::EdgeEdgeCandidate</text>
</a>
</g>
</g>
<!-- 1&#45;&gt;2 -->
<g id="edge2" class="edge">
<title>1&#45;&gt;2</title>
<g id="a_edge2"><a xlink:title="public&#45;inheritance">
<path fill="none" stroke="#ce93d8" d="M234.74,-215.7C246.44,-206.8 260.86,-195.82 273.51,-186.2"/>
<polygon fill="#ce93d8" stroke="#ce93d8" points="275.68,-188.94 281.52,-180.1 271.44,-183.37 275.68,-188.94"/>
</a>
</g>
</g>
<!-- 5&#45;&gt;4 -->
<g id="edge4" class="edge">
<title>5&#45;&gt;4</title>
<g id="a_edge4"><a xlink:title="public&#45;inheritance">
<path fill="none" stroke="#ce93d8" d="M121.36,-71.88C137.05,-62.72 156.56,-51.34 173.45,-41.48"/>
<polygon fill="#ce93d8" stroke="#ce93d8" points="175.66,-44.25 182.53,-36.19 172.13,-38.21 175.66,-44.25"/>
</a>
</g>
</g>
<!-- 2&#45;&gt;3 -->
<g id="edge5" class="edge">
<title>2&#45;&gt;3</title>
<g id="a_edge5"><a xlink:title="public&#45;inheritance">
<path fill="none" stroke="#ce93d8" d="M311.17,-143.7C314.43,-135.81 318.37,-126.3 322,-117.55"/>
<polygon fill="#ce93d8" stroke="#ce93d8" points="325.32,-118.68 325.91,-108.1 318.85,-116 325.32,-118.68"/>
</a>
</g>
</g>
</g>
</svg>
