<?xml version="1.0" encoding="UTF-8" standalone="no"?>
<!DOCTYPE svg PUBLIC "-//W3C//DTD SVG 1.1//EN"
 "http://www.w3.org/Graphics/SVG/1.1/DTD/svg11.dtd">
<!-- Generated by graphviz version 2.43.0 (0)
 -->
<!-- Title: %3 Pages: 1 -->
<svg width="472pt" height="260pt"
 viewBox="0.00 0.00 472.00 260.00" xmlns="http://www.w3.org/2000/svg" xmlns:xlink="http://www.w3.org/1999/xlink">
<g id="graph0" class="graph" transform="scale(1 1) rotate(0) translate(4 256)">
<title>%3</title>
<polygon fill="transparent" stroke="transparent" points="-4,4 -4,-256 468,-256 468,4 -4,4"/>
<!-- 3 -->
<g id="node1" class="node">
<title>3</title>
<g id="a_node1"><a xlink:title="ipc::ContinuousCollisionCandidate">
<polygon fill="#ffffff" stroke="black" points="262,-108 0,-108 0,-72 262,-72 262,-108"/>
<text text-anchor="middle" x="131" y="-86.3" font-family="Times,serif" font-size="14.00">ipc::ContinuousCollisionCandidate</text>
</a>
</g>
</g>
<!-- 4 -->
<g id="node2" class="node">
<title>4</title>
<g id="a_node2"><a xlink:title="ipc::CollisionStencil">
<polygon fill="#ffffff" stroke="black" points="330,-36 172,-36 172,0 330,0 330,-36"/>
<text text-anchor="middle" x="251" y="-14.3" font-family="Times,serif" font-size="14.00">ipc::CollisionStencil</text>
</a>
</g>
</g>
<!-- 3&#45;&gt;4 -->
<g id="edge1" class="edge">
<title>3&#45;&gt;4</title>
<g id="a_edge1"><a xlink:title="public&#45;inheritance">
<path fill="none" stroke="#ce93d8" d="M160.36,-71.88C176.05,-62.72 195.56,-51.34 212.45,-41.48"/>
<polygon fill="#ce93d8" stroke="#ce93d8" points="214.66,-44.25 221.53,-36.19 211.13,-38.21 214.66,-44.25"/>
</a>
</g>
</g>
<!-- 2 -->
<g id="node3" class="node">
<title>2</title>
<g id="a_node3"><a xlink:title="ipc::EdgeVertexCandidate">
<polygon fill="#ffffff" stroke="black" points="287.5,-180 84.5,-180 84.5,-144 287.5,-144 287.5,-180"/>
<text text-anchor="middle" x="186" y="-158.3" font-family="Times,serif" font-size="14.00">ipc::EdgeVertexCandidate</text>
</a>
</g>
</g>
<!-- 2&#45;&gt;3 -->
<g id="edge2" class="edge">
<title>2&#45;&gt;3</title>
<g id="a_edge2"><a xlink:title="public&#45;inheritance">
<path fill="none" stroke="#ce93d8" d="M172.4,-143.7C165.88,-135.39 157.93,-125.28 150.75,-116.14"/>
<polygon fill="#ce93d8" stroke="#ce93d8" points="153.37,-113.81 144.44,-108.1 147.87,-118.13 153.37,-113.81"/>
</a>
</g>
</g>
<!-- 5 -->
<g id="node4" class="node">
<title>5</title>
<g id="a_node4"><a xlink:title="ipc::CollisionConstraint">
<polygon fill="#ffffff" stroke="black" points="464,-108 280,-108 280,-72 464,-72 464,-108"/>
<text text-anchor="middle" x="372" y="-86.3" font-family="Times,serif" font-size="14.00">ipc::CollisionConstraint</text>
</a>
</g>
</g>
<!-- 5&#45;&gt;4 -->
<g id="edge3" class="edge">
<title>5&#45;&gt;4</title>
<g id="a_edge3"><a xlink:title="public&#45;inheritance">
<path fill="none" stroke="#ce93d8" d="M342.4,-71.88C326.43,-62.64 306.54,-51.13 289.39,-41.21"/>
<polygon fill="#ce93d8" stroke="#ce93d8" points="291.12,-38.17 280.71,-36.19 287.62,-44.23 291.12,-38.17"/>
</a>
</g>
</g>
<!-- 1 -->
<g id="node5" class="node">
<title>1</title>
<g id="a_node5"><a xlink:title="ipc::EdgeVertexConstraint">
<polygon fill="#bfbfbf" stroke="black" points="354,-252 148,-252 148,-216 354,-216 354,-252"/>
<text text-anchor="middle" x="251" y="-230.3" font-family="Times,serif" font-size="14.00">ipc::EdgeVertexConstraint</text>
</a>
</g>
</g>
<!-- 1&#45;&gt;2 -->
<g id="edge4" class="edge">
<title>1&#45;&gt;2</title>
<g id="a_edge4"><a xlink:title="public&#45;inheritance">
<path fill="none" stroke="#ce93d8" d="M234.93,-215.7C227.06,-207.22 217.44,-196.86 208.83,-187.58"/>
<polygon fill="#ce93d8" stroke="#ce93d8" points="211.25,-185.05 201.88,-180.1 206.12,-189.81 211.25,-185.05"/>
</a>
</g>
</g>
<!-- 1&#45;&gt;5 -->
<g id="edge5" class="edge">
<title>1&#45;&gt;5</title>
<g id="a_edge5"><a xlink:title="public&#45;inheritance">
<path fill="none" stroke="#ce93d8" d="M265.6,-215.87C286.76,-191.03 326.12,-144.85 350.58,-116.14"/>
<polygon fill="#ce93d8" stroke="#ce93d8" points="353.53,-118.07 357.35,-108.19 348.2,-113.53 353.53,-118.07"/>
</a>
</g>
</g>
</g>
</svg>
