<svg xmlns="http://www.w3.org/2000/svg" xmlns:xlink="http://www.w3.org/1999/xlink" xmlns:inkscape="http://www.inkscape.org/namespaces/inkscape" version="1.1" width="141.6" height="42.0392" viewBox="0 0 141.6 42.0392">
<defs>
<clipPath id="clip_1">
<path transform="matrix(1,0,0,-1,0,42.0392)" d="M0 42.039H141.6V0H0Z"/>
</clipPath>
<path id="font_2_3" d="M.20899964 .029220581C.12998963 .029220581 .11898804 .059188844 .09199524 .117111209L.07699585 .116104129 .054992677 .04121399 .057998659 .038208009C.083999637 .016220093 .1269989-.009765625 .20698548-.009765625 .2919922-.009765625 .42599488 .048202516 .42599488 .1800232 .42599488 .25891114 .36499024 .3148651 .28799439 .32185365V.32685853C.33999635 .3388672 .4059906 .39698792 .4059906 .48014833 .4059906 .5523071 .34399415 .61035159 .24499512 .61035159 .16799927 .61035159 .11199951 .5763397 .08699036 .55430606L.083999637 .55130007 .10499573 .48716737 .11999512 .48616029C.14399719 .5422821 .17599488 .5713501 .23599243 .5713501 .2749939 .5713501 .31900025 .5302582 .31900025 .4651184 .31900025 .42103578 .3039856 .3889618 .2809906 .36691285 .26098634 .34788514 .23199463 .3388672 .19799805 .3388672 .18598938 .3388672 .1749878 .339859 .16099549 .34187318V.29786683C.17298889 .29986573 .19400025 .29986573 .20298767 .29986573 .23498535 .29986573 .272995 .2908783 .30099488 .26789857 .32699586 .2459259 .33999635 .21098328 .33999635 .17202759 .33999635 .051193239 .24499512 .029220581 .20899964 .029220581Z"/>
<path id="font_2_4" d="M.18998719 .08206177V.5643921C.18998719 .59942629 .22499085 .60443118 .27398683 .60443118 .48999024 .60443118 .5549927 .43830873 .5549927 .2842102 .5549927 .08206177 .43998719 .042037965 .29899598 .042037965 .20098877 .042037965 .18998719 .050048829 .18998719 .08206177M.14698792 .6454315C.11299133 .6454315 .09599304 .6484375 .09599304 .6484375L.09399414 .6454315C.101989749 .5884094 .10398865 .5203705 .10398865 .4453125V.20014954C.10398865 .12509156 .101989749 .05404663 .09399414 .000045776369L.09498596-.002960205C.09498596-.002960205 .11199951 .000045776369 .14698792 .000045776369 .21798706 .000045776369 .22698975-.001953125 .32998658-.001953125 .47099305-.001953125 .6579895 .062057496 .6579895 .30822755 .6579895 .49435426 .5039978 .6484375 .31199647 .6484375 .24798584 .6484375 .21099854 .6454315 .14698792 .6454315Z"/>
<path id="font_2_1" d=""/>
<path id="font_2_7" d="M.20199585-.0029296876C.21199036 .000061035159 .22299195 .000061035159 .23298645 .000061035159 .24299622 .000061035159 .2539978 .000061035159 .2630005-.0029296876 .31498719 .14291382 .3769989 .28477479 .44198609 .43164063 .43299867 .42863465 .4139862 .42863465 .4039917 .42863465 .3939972 .42863465 .3789978 .42863465 .36999513 .43164063 .3294983 .3186493 .294693 .18797302 .24879456 .09007263H.24679566C.19668579 .20445252 .16429138 .31704713 .12799073 .43164063 .114990238 .42863465 .09199524 .42863465 .07798767 .42863465 .06199646 .42863465 .035995485 .42863465 .019989014 .43164063 .08699036 .28477479 .1459961 .14291382 .20199585-.0029296876Z"/>
<path id="font_2_6" d="M.07998657 .59742739C.07998657 .5704346 .10398865 .5464325 .1309967 .5464325 .1579895 .5464325 .18199158 .5704346 .18199158 .59742739 .18199158 .6244354 .1579895 .6484375 .1309967 .6484375 .10398865 .6484375 .07998657 .6244354 .07998657 .59742739M.08999634 .2348175V.1798706C.08999634 .10494995 .0881958 .054000856 .08099365 .000061035159L.08299255-.0029296876C.09498596-.0009460449 .117996219 .000061035159 .12998963 .000061035159 .14199829 .000061035159 .16499329-.0009460449 .1769867-.0029296876L.1789856 .000061035159C.1717987 .056793214 .16999817 .10395813 .16999817 .1798706V.25079347C.16999817 .3257141 .17248535 .36167909 .1789856 .42262269 .1789856 .4316101 .17779541 .4326172 .16999817 .4326172 .14729309 .4303131 .10418701 .42991639 .08299255 .4316101L.08099365 .42861939C.08729553 .38586427 .08999634 .30973817 .08999634 .2348175Z"/>
<path id="font_2_5" d="M.125 .27339173C.14199829 .3774414 .20748902 .39944459 .23899842 .39944459 .27848817 .39944459 .32299806 .36242677 .32299806 .2873993 .32299806 .2783966 .31900025 .27339173 .30899049 .27339173H.125M.3919983 .104278568C.35699464 .0662384 .30999757 .049224855 .25498963 .049224855 .22079468 .049224855 .17349243 .0622406 .1459961 .106277469 .12838745 .13439942 .12199402 .17524719 .12199402 .23339844H.3939972C.40499879 .23339844 .4119873 .23939514 .4119873 .25039674 .4119873 .33441163 .37098695 .43945313 .23899842 .43945313 .13598633 .43945313 .033996583 .35643006 .033996583 .20936585 .033996583 .15261841 .04548645 .096466068 .07899475 .056228639 .11338806 .014923096 .17059326-.009765625 .23799134-.009765625 .30999757-.009765625 .37399293 .02722168 .4119873 .07925415L.3919983 .104278568Z"/>
<path id="font_2_8" d="M.20498657-.0040130617C.21499634-.0010070801 .22799683-.0010070801 .23799134-.0010070801 .24798584-.0010070801 .2649994-.0010070801 .27398683-.0040130617 .3013916 .072891239 .33039857 .15512085 .3625946 .23353577 .39259339 .15551758 .4244995 .07458496 .45298768-.0030059815 .46299745 0 .46899415 0 .47898866 0 .4889984 0 .5069885 0 .5159912-.0030059815 .5649872 .11495972 .644989 .3067627 .70199587 .43164063 .69299319 .42863465 .6689911 .42863465 .6589966 .42863465 .6489868 .42863465 .6339874 .42863465 .625 .43164063 .58799746 .31375123 .54299929 .18589783 .50180056 .09008789H.49378968C.45199586 .19987488 .42099 .32574464 .397995 .43164063 .3849945 .42863465 .3619995 .42863465 .34799195 .42863465 .33198548 .42863465 .30599977 .42863465 .2899933 .43164063 .30369569 .39067079 .31959535 .34672547 .336792 .30107118 .30999757 .22584534 .28279115 .15092469 .25379945 .08909607H.24778748C.19769287 .20347595 .16429138 .3160553 .12799073 .43063355 .114990238 .42764283 .09199524 .42764283 .07798767 .42764283 .06199646 .42764283 .035995485 .42764283 .019989014 .43063355 .08699036 .28378297 .14898682 .14193726 .20498657-.0040130617Z"/>
<path id="font_2_2" d="M.22200012 .5533447C.2743988 .5533447 .3277893 .5051575 .3277893 .4348755 .3277893 .39317323 .3157959 .33998109 .2896881 .3009796 .21798706 .19398499 .10348511 .093688968 .054397584 .04699707 .05319214 .043289186 .052597047 .038986207 .052597047 .03439331 .052597047 .01928711 .057495119 .0035858155 .062698367-.005004883 .13648987-.0030059815 .1789856 0 .2519989 0 .32398988 0 .35429383-.0020141602 .4256897-.005004883 .42419435 .0053863527 .42259217 .017089844 .42259217 .027999878 .42259217 .044189454 .4237976 .059799196 .42749024 .07499695 .37120057 .069992069 .34059144 .066986087 .24459839 .066986087 .20948792 .066986087 .19029236 .066986087 .16288758 .06498718 .16209412 .066589359 .16169739 .067993167 .16169739 .069992069 .16169739 .07928467 .17199707 .08988953 .17939759 .09698486 .22799683 .14398194 .2749939 .1889801 .34109498 .27798463 .37799073 .3276825 .4136963 .39187623 .4136963 .44847108 .4136963 .5439148 .3498993 .61035159 .23829651 .61035159 .14729309 .61035159 .088897708 .55934146 .066085819 .5292511L.08779907 .4599762 .10089111 .45898438C.11468506 .48908998 .11959839 .50987246 .14498902 .5302582 .16499329 .5463104 .19400025 .5533447 .22200012 .5533447Z"/>
<clipPath id="clip_3">
<path transform="matrix(1,0,0,-1,0,42.0392)" d="M19.664 21.02H28.228V26.327H19.664Z"/>
</clipPath>
<clipPath id="clip_4">
<path transform="matrix(1,0,0,-1,0,42.0392)" d="M23.9459 23.6731H23.946 23.9459Z"/>
</clipPath>
<clipPath id="clip_5">
<path transform="matrix(1,0,0,-1,0,42.0392)" d="M19.719 21.076H28.228V26.327H19.719Z"/>
</clipPath>
<clipPath id="clip_6">
<path transform="matrix(1,0,0,-1,0,42.0392)" d="M24.0002 23.7299V23.7299Z"/>
</clipPath>
<clipPath id="clip_7">
<path transform="matrix(1,0,0,-1,0,42.0392)" d="M110.946 20.939H119.509V26.244999H110.946Z"/>
</clipPath>
<clipPath id="clip_8">
<path transform="matrix(1,0,0,-1,0,42.0392)" d="M115.227 23.5927V23.5927Z"/>
</clipPath>
<clipPath id="clip_9">
<path transform="matrix(1,0,0,-1,0,42.0392)" d="M111 20.996H119.509V26.246H111Z"/>
</clipPath>
<clipPath id="clip_10">
<path transform="matrix(1,0,0,-1,0,42.0392)" d="M115.281 23.6494V23.6494Z"/>
</clipPath>
<clipPath id="clip_11">
<path transform="matrix(1,0,0,-1,0,42.0392)" d="M0 42.039H141.6V0H0Z"/>
</clipPath>
<clipPath id="clip_12">
<path transform="matrix(1,0,0,-1,0,42.0392)" d="M54.0878 4.51965V4.51965Z"/>
</clipPath>
<clipPath id="clip_13">
<path transform="matrix(1,0,0,-1,0,42.0392)" d="M128.538 21.808H132.806V25.818H128.538Z"/>
</clipPath>
<clipPath id="clip_14">
<path transform="matrix(1,0,0,-1,0,42.0392)" d="M128.594 21.934H132.806V25.817H128.594Z"/>
</clipPath>
</defs>
<g>
<g inkscape:groupmode="layer" inkscape:label="Layer 1">
<path transform="matrix(1,0,0,-1,29.4842,13.5662)" stroke-width="1" stroke-linecap="butt" stroke-miterlimit="10" stroke-linejoin="miter" fill="none" stroke="#808285" d="M0 0 15.298-21.037"/>
<path transform="matrix(1,0,0,-1,74.698,22.624899)" stroke-width="1" stroke-linecap="butt" stroke-miterlimit="10" stroke-linejoin="miter" fill="none" stroke="#808285" d="M0 0-29.916-11.978"/>
<g clip-path="url(#clip_1)">
<path transform="matrix(1,0,0,-1,45.7918,34.6032)" d="M0 0C0-.558-.452-1.01-1.01-1.01-1.567-1.01-2.02-.558-2.02 0-2.02 .558-1.567 1.01-1.01 1.01-.452 1.01 0 .558 0 0" fill="#808285"/>
<path transform="matrix(1,0,0,-1,45.7918,34.6032)" stroke-width="1" stroke-linecap="butt" stroke-miterlimit="10" stroke-linejoin="miter" fill="none" stroke="#808285" d="M0 0C0-.558-.452-1.01-1.01-1.01-1.567-1.01-2.02-.558-2.02 0-2.02 .558-1.567 1.01-1.01 1.01-.452 1.01 0 .558 0 0Z"/>
<path transform="matrix(1,0,0,-1,74.698,22.624899)" stroke-width="1" stroke-linecap="butt" stroke-miterlimit="10" stroke-linejoin="miter" fill="none" stroke="#808285" d="M0 0-8.246-13.688"/>
<path transform="matrix(1,0,0,-1,67.8836,35.613)" d="M0 0C0-.558-.452-1.01-1.01-1.01-1.568-1.01-2.02-.558-2.02 0-2.02 .558-1.568 1.01-1.01 1.01-.452 1.01 0 .558 0 0" fill="#808285"/>
<path transform="matrix(1,0,0,-1,67.8836,35.613)" stroke-width="1" stroke-linecap="butt" stroke-miterlimit="10" stroke-linejoin="miter" fill="none" stroke="#808285" d="M0 0C0-.558-.452-1.01-1.01-1.01-1.568-1.01-2.02-.558-2.02 0-2.02 .558-1.568 1.01-1.01 1.01-.452 1.01 0 .558 0 0Z"/>
<path transform="matrix(1,0,0,-1,56.9997,29.7112)" stroke-width="1" stroke-linecap="butt" stroke-miterlimit="10" stroke-linejoin="miter" fill="none" stroke="#808285" d="M0 0 9.523-6.188"/>
<path transform="matrix(1,0,0,-1,29.588,13.327299)" stroke-width="1" stroke-linecap="butt" stroke-miterlimit="10" stroke-linejoin="miter" fill="none" stroke="#808285" d="M0 0 .644-.385"/>
<path transform="matrix(1,0,0,-1,31.4758,14.4557)" stroke-width="1" stroke-linecap="butt" stroke-dasharray="1.449,1.449" stroke-miterlimit="10" stroke-linejoin="miter" fill="none" stroke="#808285" d="M0 0 24.258-14.499"/>
<path transform="matrix(1,0,0,-1,56.3559,29.3265)" stroke-width="1" stroke-linecap="butt" stroke-miterlimit="10" stroke-linejoin="miter" fill="none" stroke="#808285" d="M0 0 .644-.385"/>
<path transform="matrix(1,0,0,-1,29.2372,13.613199)" stroke-width="1" stroke-linecap="butt" stroke-miterlimit="10" stroke-linejoin="miter" fill="none" stroke="#231f20" d="M0 0 46.545-9.227"/>
<path transform="matrix(1,0,0,-1,75.7077,22.624899)" d="M0 0C0-.558-.452-1.01-1.01-1.01-1.567-1.01-2.02-.558-2.02 0-2.02 .558-1.567 1.01-1.01 1.01-.452 1.01 0 .558 0 0" fill="#231f20"/>
<path transform="matrix(1,0,0,-1,75.7077,22.624899)" stroke-width="1" stroke-linecap="butt" stroke-miterlimit="10" stroke-linejoin="miter" fill="none" stroke="#231f20" d="M0 0C0-.558-.452-1.01-1.01-1.01-1.567-1.01-2.02-.558-2.02 0-2.02 .558-1.567 1.01-1.01 1.01-.452 1.01 0 .558 0 0Z"/>
<path transform="matrix(1,0,0,-1,29.4842,13.5662)" stroke-width=".75" stroke-linecap="butt" stroke-miterlimit="10" stroke-linejoin="miter" fill="none" stroke="#00aeef" d="M0 0 .49-.099"/>
<path transform="matrix(1,0,0,-1,30.988,13.869801)" stroke-width=".75" stroke-linecap="butt" stroke-dasharray="1.034,1.034" stroke-miterlimit="10" stroke-linejoin="miter" fill="none" stroke="#00aeef" d="M0 0 21.794-4.399"/>
<path transform="matrix(1,0,0,-1,53.2892,18.3712)" stroke-width=".75" stroke-linecap="butt" stroke-miterlimit="10" stroke-linejoin="miter" fill="none" stroke="#00aeef" d="M0 0 .49-.099"/>
<path transform="matrix(1,0,0,-1,55.9978,18.9179)" d="M0 0C-1.122-.177-2.551-.576-3.495-1.114L-2.51 .507-2.789 2.382C-2.128 1.52-.966 .598 0 0" fill="#00aeef"/>
<path transform="matrix(1,0,0,-1,29.0772,13.613199)" stroke-width=".75" stroke-linecap="butt" stroke-miterlimit="10" stroke-linejoin="miter" fill="none" stroke="#00aeef" d="M0 0 27.213 7.727"/>
<path transform="matrix(1,0,0,-1,58.4671,5.267601)" d="M0 0C-.916-.671-2.003-1.68-2.596-2.591L-2.463-.699-3.57 .84C-2.587 .376-1.132 .089 0 0" fill="#00aeef"/>
<path transform="matrix(1,0,0,-1,30.247,13.613199)" d="M0 0C0-.558-.452-1.01-1.01-1.01-1.568-1.01-2.02-.558-2.02 0-2.02 .558-1.568 1.01-1.01 1.01-.452 1.01 0 .558 0 0" fill="#231f20"/>
<path transform="matrix(1,0,0,-1,30.247,13.613199)" stroke-width="1" stroke-linecap="butt" stroke-miterlimit="10" stroke-linejoin="miter" fill="none" stroke="#231f20" d="M0 0C0-.558-.452-1.01-1.01-1.01-1.568-1.01-2.02-.558-2.02 0-2.02 .558-1.568 1.01-1.01 1.01-.452 1.01 0 .558 0 0Z"/>
<path transform="matrix(1,0,0,-1,58.4671,5.267601)" stroke-width=".75" stroke-linecap="butt" stroke-miterlimit="10" stroke-linejoin="miter" fill="none" stroke="#00aeef" d="M0 0-.089-.492"/>
<path transform="matrix(1,0,0,-1,58.2018,6.734001)" stroke-width=".75" stroke-linecap="butt" stroke-dasharray=".99,.99" stroke-miterlimit="10" stroke-linejoin="miter" fill="none" stroke="#00aeef" d="M0 0-2.027-11.205"/>
<path transform="matrix(1,0,0,-1,56.0868,18.4259)" stroke-width=".75" stroke-linecap="butt" stroke-miterlimit="10" stroke-linejoin="miter" fill="none" stroke="#00aeef" d="M0 0-.089-.492"/>
<path transform="matrix(1,0,0,-1,129.6583,32.4193)" d="M0 0C.078 .001 .155-.003 .233-.013 .011 .017-.21 .046-.432 .076-.315 .057-.204 .026-.095-.019-.295 .065-.494 .149-.693 .233-.585 .185-.485 .127-.392 .055-.56 .186-.729 .316-.898 .446-.847 .405-.799 .362-.754 .315-.386 1.708-.018 3.101 .349 4.494-.499 4.327-1.071 3.579-1.633 2.984-1.914 2.686-2.186 2.373-2.509 2.12-2.341 2.25-2.172 2.38-2.003 2.511-2.141 2.406-2.286 2.315-2.445 2.245-2.245 2.329-2.046 2.413-1.847 2.497-1.872 2.486-1.897 2.476-1.921 2.467-2.247 2.39-2.53 2.24-2.772 2.019-3.044 1.843-3.258 1.609-3.416 1.318-3.598 1.031-3.697 .721-3.712 .389-3.787 .056-3.772-.276-3.668-.608-3.584-.807-3.5-1.006-3.416-1.206-3.193-1.581-2.894-1.88-2.519-2.102-2.32-2.186-2.121-2.27-1.921-2.354-1.478-2.474-1.035-2.474-.592-2.354-.3-2.242 .002-2.133 .274-1.974 .548-1.814 .796-1.6 1.042-1.403 1.226-1.257 1.393-1.091 1.555-.92 1.738-.728 1.919-.534 2.101-.341 2.293-.138 2.477 .084 2.685 .272 2.516 .142 2.347 .011 2.179-.119 2.197-.103 2.218-.091 2.241-.082 2.042-.166 1.843-.25 1.644-.334 1.655-.332 1.667-.33 1.679-.328 2.102-.209 2.47 .006 2.782 .315 3.092 .627 3.306 .995 3.425 1.419 3.664 2.288 3.406 3.21 2.782 3.851 2.068 4.585 1.025 5.02 0 5-.344 5.013-.665 4.941-.963 4.785-1.273 4.684-1.541 4.512-1.768 4.268-2.012 4.041-2.184 3.773-2.285 3.463-2.441 3.165-2.513 2.844-2.5 2.5-2.47 2.278-2.44 2.057-2.411 1.835-2.292 1.412-2.078 1.044-1.768 .732-1.284 .288-.673-.013 0 0" fill="#d1d3d4"/>
<path transform="matrix(1,0,0,-1,113.571,34.8366)" d="M0 0C.014 .003 .028 .006 .042 .009-.179-.021-.401-.05-.622-.08-.577-.076-.539-.077-.494-.082-.716-.052-.938-.022-1.159 .007-1.101-.004-1.046-.021-.991-.043-1.19 .041-1.389 .125-1.588 .209-1.191 .037-.808-.184-.433-.399-.052-.618 .322-.851 .687-1.095 .974-1.278 1.284-1.377 1.617-1.392 1.949-1.466 2.281-1.451 2.613-1.347 2.939-1.27 3.222-1.12 3.464-.899 3.736-.723 3.95-.489 4.108-.198 4.414 .382 4.568 1.085 4.36 1.728 4.276 1.927 4.192 2.126 4.108 2.326 3.885 2.701 3.586 3 3.211 3.222 2.771 3.516 2.319 3.793 1.857 4.05 1.629 4.177 1.399 4.299 1.166 4.416 .878 4.56 .58 4.7 .276 4.802 .248 4.811 .22 4.818 .191 4.824 .007 4.867-.327 4.908-.516 4.92-.545 4.922-.572 4.923-.601 4.922-.818 4.914-1.117 4.867-1.329 4.821-1.655 4.744-1.938 4.595-2.179 4.374-2.452 4.198-2.666 3.964-2.823 3.673-3.006 3.386-3.105 3.076-3.12 2.743-3.194 2.411-3.179 2.078-3.075 1.746-2.991 1.547-2.907 1.348-2.823 1.149-2.601 .773-2.302 .474-1.926 .252-1.727 .168-1.528 .084-1.329 0-.886-.119-.443-.119 0 0" fill="#d1d3d4"/>
<path transform="matrix(1,0,0,-1,126.9749,30.617402)" d="M0 0C-1-.004-2.031-.105-2.994-.381-3.341-.48-3.883-.756-4.25-.707-4.152-.694-4.054-.68-3.957-.667-4.081-.681-4.205-.695-4.329-.708-4.532-.73-4.734-.752-4.936-.775-5.967-.891-6.995-1.027-8.022-1.169-8.459-1.23-8.895-1.294-9.331-1.361-9.431-1.376-9.532-1.392-9.632-1.407-9.229-1.365-9.165-1.349-9.439-1.358-8.944-1.426-8.305-1.577-8.085-2.091-8.128-1.99-8.233-1.805-8.296-1.715-7.842-2.373-8.363-1.817-8.262-1.665-8.15-2.033-8.204-2.393-8.426-2.744-8.313-2.564-8.316-2.562-8.435-2.738-8.566-2.905-8.556-2.912-8.407-2.758-8.69-2.966-8.716-2.987-8.484-2.822-8.202-2.643-7.826-2.324-7.493-2.275-7.801-2.4-7.826-2.411-7.566-2.308-7.477-2.273-7.388-2.24-7.298-2.208-7.086-2.131-6.872-2.059-6.656-1.993-6.286-1.879-5.911-1.78-5.533-1.697-5.344-1.656-5.153-1.623-4.963-1.585-4.668-1.536-4.709-1.541-5.087-1.601-5.454-1.524-5.5-1.522-5.224-1.595-4.445-1.962-3.583-2.215-2.753-2.433-1.49-2.765 .02-2.014 .322-.687 .649 .746-.115 1.881-1.424 2.389-3.864 3.336-6.432 3.897-8.875 4.839-10.279 5.381-12.225 3.959-12.039 2.429-11.85 .871-11.738-.724-11.449-2.267-11.295-3.092-10.876-3.86-10.29-4.457-10.015-4.737-9.646-4.995-9.3-5.199-9.13-5.317-9.132-5.309-9.307-5.175-9.476-5.034-9.484-5.031-9.33-5.167-9.399-5.073-9.467-4.98-9.536-4.886-9.45-5.014-9.357-5.138-9.258-5.257-8.059-6.81-5.768-6.907-3.972-6.554-3.372-6.436-2.763-6.26-2.187-6.054-1.712-5.884-1.246-5.681-.792-5.462-.644-5.391-.495-5.32-.35-5.245 .12-5.003-.763-5.388-.225-5.186 .996-4.728 1.963-3.475 1.521-2.11 1.135-.916-.243 .127-1.554-.364-2.215-.612-2.866-.904-3.493-1.229-3.807-1.392-2.949-1.05-3.517-1.233-3.636-1.271-3.754-1.313-3.874-1.351-4.114-1.426-4.357-1.492-4.599-1.558-4.745-1.598-4.89-1.638-5.036-1.673-5.121-1.694-5.505-1.735-5.147-1.716-4.767-1.695-5.211-1.715-5.283-1.717-5.412-1.721-5.541-1.718-5.671-1.712-5.833-1.704-5.994-1.685-6.155-1.671-6.507-1.64-6.191-1.648-6.025-1.691-6.526-1.559-5.442-2.084-5.439-2.086-5.365-2.178-5.292-2.271-5.219-2.363-5.309-2.238-5.403-2.115-5.499-1.994-5.742-1.679-5.961-1.488-6.275-1.245-6.373-1.17-6.877-.712-7.027-.716-6.958-.714-6.602-1.071-6.858-.815-6.739-.934-6.498-1.203-6.513-1.389-6.507-1.309-6.578-1.172-6.597-1.091-6.611-1.032-6.686-.517-6.629-.96-6.574-1.391-6.633-.906-6.643-.823-6.66-.683-6.677-.543-6.695-.403-6.733-.089-6.771 .226-6.809 .541-6.886 1.17-6.963 1.799-7.039 2.429-8.094 1.625-9.149 .821-10.204 .018-7.761-.924-5.193-1.486-2.753-2.433-2.31-.826-1.867 .782-1.424 2.389-2.243 2.604-3.014 2.912-3.81 3.195-4.885 3.577-6.069 3.318-7.145 3.059-8.878 2.641-10.867 1.94-12.117 .608-13.084-.422-13.411-1.803-13.041-3.169-12.75-4.243-12.087-5.325-11.11-5.896-9.975-6.558-8.814-6.302-7.599-6.121-7.398-6.091-7.197-6.062-6.995-6.033-6.901-6.02-6.304-5.939-6.622-5.981-6.941-6.022-6.343-5.945-6.249-5.933-6.013-5.903-5.778-5.873-5.542-5.845-4.462-5.716-3.332-5.684-2.282-5.392-1.854-5.273-1.426-5.159-.997-5.045-.695-4.965-1.186-5.07-1.177-5.062-1.12-5.013-.862-5.03-.786-5.025-.524-5.006-.262-5.001 0-5 1.308-4.995 2.561-3.854 2.5-2.5 2.439-1.15 1.401 .005 0 0" fill="#d1d3d4"/>
<path transform="matrix(1,0,0,-1,110.9455,33.2535)" d="M0 0C1.302 .112 2.446 .563 3.612 1.132 4.634 1.63 5.528 2.376 6.11 3.361 6.623 4.23 6.521 5.353 5.915 6.138 5.287 6.95 4.283 7.262 3.287 7.034 1.97 6.732 .709 6.245-.503 5.651 .338 4.212 1.179 2.773 2.02 1.334 2.994 1.885 3.967 2.434 4.94 2.986 5.528 3.319 6.106 3.673 6.596 4.146 6.836 4.377 7.032 4.658 7.222 4.931 7.335 5.093 7.799 5.575 7.323 5.129 7.039 4.941 7.019 4.921 7.264 5.069 7.383 5.13 7.501 5.19 7.621 5.249 7.803 5.341 7.986 5.431 8.169 5.523 8.412 5.644 8.656 5.767 8.9 5.888 9.017 5.947 9.135 6.006 9.254 6.063 8.95 5.945 8.93 5.931 9.193 6.022 8.993 5.979 8.794 5.985 8.596 6.04 8.501 6.076 8.406 6.112 8.311 6.147 8.332 6.168 8.856 5.752 8.901 5.722 9.474 5.33 10.123 5.065 10.772 4.824 12 4.368 13.565 5.332 13.847 6.57 14.17 7.987 13.416 9.158 12.101 9.646 11.779 9.765 12.004 9.604 12.132 9.629 12.061 9.615 11.834 9.784 11.77 9.821 11.542 9.953 11.332 10.109 11.119 10.264 10.457 10.747 9.628 11.031 8.804 10.984 7.417 10.905 6.126 10.101 4.914 9.475 4.185 9.098 3.649 8.562 3.189 7.888 3.124 7.793 3.064 7.694 3.001 7.597 2.839 7.346 2.979 7.547 3.061 7.681 3.013 7.638 2.966 7.595 2.918 7.551 2.983 7.605 3.048 7.659 3.113 7.712 3.115 7.678 2.817 7.531 2.78 7.509 1.696 6.874 .591 6.27-.503 5.651-1.642 5.007-2.125 3.355-1.4 2.231-.622 1.024 .761 .718 2.02 1.334 2.115 1.38 2.938 1.74 2.39 1.519 2.619 1.612 2.851 1.699 3.085 1.78 3.587 1.953 4.098 2.094 4.616 2.212L1.793 5.885C1.535 5.449 2.182 6.202 1.801 5.876 1.762 5.839 1.724 5.802 1.686 5.765 1.523 5.627 1.523 5.624 1.686 5.758 1.855 5.886 1.85 5.889 1.672 5.767 1.624 5.738 1.577 5.71 1.53 5.682 1.386 5.598 1.238 5.522 1.089 5.449 .964 5.388 .838 5.331 .711 5.275 .464 5.165 .473 5.131 .706 5.268 .548 5.175 .304 5.111 .13 5.058-.022 5.012-.602 4.948 0 5-1.3 4.888-2.564 3.93-2.5 2.5-2.444 1.241-1.395-.12 0 0" fill="#d1d3d4"/>
<path transform="matrix(1,0,0,-1,120.2877,26.9278)" d="M0 0C.475-.57 1.062-1.021 1.644-1.475 2.389-2.057 3.131-2.658 3.956-3.124 5.25-3.854 6.689-4.285 7.945-5.087 9.05-5.792 10.752-5.351 11.366-4.19 12.02-2.952 11.647-1.522 10.469-.769 9.577-.2 8.595 .186 7.635 .62 6.641 1.068 5.748 1.622 4.885 2.286 5.054 2.156 5.223 2.026 5.391 1.895 4.739 2.402 4.067 2.898 3.536 3.536 3.147 4.001 2.351 4.268 1.768 4.268 1.155 4.268 .422 3.995 0 3.536-.437 3.059-.762 2.434-.732 1.768-.701 1.072-.445 .534 0 0" fill="#d1d3d4"/>
<path transform="matrix(1,0,0,-1,120.617,8.049599)" stroke-width=".75" stroke-linecap="butt" stroke-miterlimit="10" stroke-linejoin="miter" fill="none" stroke="#00aeef" d="M0 0V-13.775"/>
<path transform="matrix(1,0,0,-1,120.617,5.7864)" d="M0 0C-.395-1.065-1.069-2.386-1.783-3.205L0-2.56 1.783-3.205C1.069-2.386 .395-1.065 0 0" fill="#00aeef"/>
<path transform="matrix(1,0,0,-1,136.3498,21.5193)" stroke-width=".75" stroke-linecap="butt" stroke-miterlimit="10" stroke-linejoin="miter" fill="none" stroke="#231f20" d="M0 0C0-8.689-7.044-15.733-15.733-15.733-24.422-15.733-31.466-8.689-31.466 0-31.466 8.689-24.422 15.733-15.733 15.733-7.044 15.733 0 8.689 0 0Z"/>
<path transform="matrix(1,0,0,-1,120.617,21.183899)" stroke-width="1" stroke-linecap="butt" stroke-miterlimit="10" stroke-linejoin="miter" fill="none" stroke="#808285" d="M0 0-13.302-8.733"/>
<path transform="matrix(1,0,0,-1,134.0377,29.7328)" stroke-width="1" stroke-linecap="butt" stroke-miterlimit="10" stroke-linejoin="miter" fill="none" stroke="#808285" d="M0 0-13.421 8.214"/>
<path transform="matrix(1,0,0,-1,121.6268,21.5193)" d="M0 0C0-.558-.452-1.01-1.01-1.01-1.567-1.01-2.02-.558-2.02 0-2.02 .558-1.567 1.01-1.01 1.01-.452 1.01 0 .558 0 0" fill="#231f20"/>
<path transform="matrix(1,0,0,-1,121.6268,21.5193)" stroke-width="1" stroke-linecap="butt" stroke-miterlimit="10" stroke-linejoin="miter" fill="none" stroke="#231f20" d="M0 0C0-.558-.452-1.01-1.01-1.01-1.567-1.01-2.02-.558-2.02 0-2.02 .558-1.567 1.01-1.01 1.01-.452 1.01 0 .558 0 0Z"/>
<path transform="matrix(1,0,0,-1,108.3721,30.230999)" d="M0 0C0-.558-.452-1.01-1.01-1.01-1.568-1.01-2.02-.558-2.02 0-2.02 .558-1.568 1.01-1.01 1.01-.452 1.01 0 .558 0 0" fill="#808285"/>
<path transform="matrix(1,0,0,-1,108.3721,30.230999)" stroke-width="1" stroke-linecap="butt" stroke-miterlimit="10" stroke-linejoin="miter" fill="none" stroke="#808285" d="M0 0C0-.558-.452-1.01-1.01-1.01-1.568-1.01-2.02-.558-2.02 0-2.02 .558-1.568 1.01-1.01 1.01-.452 1.01 0 .558 0 0Z"/>
<path transform="matrix(1,0,0,-1,135.0475,29.7328)" d="M0 0C0-.558-.452-1.01-1.01-1.01-1.568-1.01-2.02-.558-2.02 0-2.02 .558-1.568 1.01-1.01 1.01-.452 1.01 0 .558 0 0" fill="#808285"/>
<path transform="matrix(1,0,0,-1,135.0475,29.7328)" stroke-width="1" stroke-linecap="butt" stroke-miterlimit="10" stroke-linejoin="miter" fill="none" stroke="#808285" d="M0 0C0-.558-.452-1.01-1.01-1.01-1.568-1.01-2.02-.558-2.02 0-2.02 .558-1.568 1.01-1.01 1.01-.452 1.01 0 .558 0 0Z"/>
</g>
<use data-text="3" xlink:href="#font_2_3" transform="matrix(7,0,0,-7,1.0469,8.171001)"/>
<use data-text="D" xlink:href="#font_2_4" transform="matrix(7,0,0,-7,4.3019,8.171001)"/>
<use data-text=" " xlink:href="#font_2_1" transform="matrix(7,0,0,-7,9.2719,8.171001)"/>
<use data-text="v" xlink:href="#font_2_7" transform="matrix(7,0,0,-7,11.0219,8.171001)"/>
<use data-text="i" xlink:href="#font_2_6" transform="matrix(7,0,0,-7,14.2559,8.171001)"/>
<use data-text="e" xlink:href="#font_2_5" transform="matrix(7,0,0,-7,16.075901,8.171001)"/>
<use data-text="w" xlink:href="#font_2_8" transform="matrix(7,0,0,-7,19.1979,8.171001)"/>
<use data-text="2" xlink:href="#font_2_2" transform="matrix(7,0,0,-7,82.1279,8.171001)"/>
<use data-text="D" xlink:href="#font_2_4" transform="matrix(7,0,0,-7,85.3829,8.171001)"/>
<use data-text=" " xlink:href="#font_2_1" transform="matrix(7,0,0,-7,90.3529,8.171001)"/>
<use data-text="v" xlink:href="#font_2_7" transform="matrix(7,0,0,-7,92.1029,8.171001)"/>
<use data-text="i" xlink:href="#font_2_6" transform="matrix(7,0,0,-7,95.3369,8.171001)"/>
<use data-text="e" xlink:href="#font_2_5" transform="matrix(7,0,0,-7,97.1569,8.171001)"/>
<use data-text="w" xlink:href="#font_2_8" transform="matrix(7,0,0,-7,100.27889,8.171001)"/>
<g clip-path="url(#clip_3)">
<g opacity="0">
<g clip-path="url(#clip_4)">
<path transform="matrix(1,0,0,-1,23.9459,18.3661)" stroke-linecap="butt" stroke-miterlimit="10" stroke-linejoin="miter" fill="none" stroke="#000000" d="M0 0V0C0 0 0 0 0 0Z"/>
</g>
</g>
</g>
<g clip-path="url(#clip_5)">
<g opacity="0">
<g clip-path="url(#clip_6)">
</g>
</g>
<path transform="matrix(1,0,0,-1,21.2782,17.5581)" d="M0 0H.412C.508 0 .556 0 .556 .103 .556 .159 .508 .159 .427 .159H.029L.13 .746C.149 .854 .216 1.218 .245 1.28 .288 1.378 .369 1.455 .47 1.455 .489 1.455 .614 1.455 .705 1.363 .494 1.342 .446 1.162 .446 1.085 .446 .967 .532 .905 .624 .905 .748 .905 .887 1.018 .887 1.213 .887 1.45 .667 1.568 .47 1.568 .307 1.568 .005 1.476-.139 .967-.168 .859-.182 .807-.297 .159H-.628C-.719 .159-.772 .159-.772 .062-.772 0-.729 0-.638 0H-.321L-.681-2.031C-.767-2.529-.849-2.997-1.098-2.997-1.117-2.997-1.237-2.997-1.328-2.905-1.108-2.889-1.065-2.704-1.065-2.627-1.065-2.509-1.151-2.447-1.242-2.447-1.367-2.447-1.506-2.56-1.506-2.756-1.506-2.987-1.295-3.11-1.098-3.11-.834-3.11-.643-2.807-.556-2.612-.403-2.288-.292-1.666-.288-1.63Z"/>
<path transform="matrix(1,0,0,-1,23.9687,20.8485)" d="M0 0C0 .015 0 .026-.082 .113-.681 .761-.834 1.733-.834 2.519-.834 3.414-.652 4.308-.062 4.951 0 5.013 0 5.023 0 5.038 0 5.074-.019 5.09-.048 5.09-.096 5.09-.527 4.74-.811 4.087-1.055 3.522-1.113 2.951-1.113 2.519-1.113 2.118-1.06 1.496-.796 .915-.508 .283-.096-.051-.048-.051-.019-.051 0-.036 0 0"/>
<path transform="matrix(1,0,0,-1,26.5852,17.6558)" d="M0 0C.019 .072 .019 .082 .019 .118 .019 .211-.048 .257-.12 .257-.168 .257-.245 .226-.288 .149-.297 .123-.336-.036-.355-.128-.388-.262-.422-.401-.451-.54L-.667-1.465C-.686-1.542-.892-1.902-1.209-1.902-1.453-1.902-1.506-1.676-1.506-1.486-1.506-1.249-1.424-.93-1.261-.478-1.185-.267-1.165-.211-1.165-.108-1.165 .123-1.319 .314-1.559 .314-2.014 .314-2.192-.432-2.192-.478-2.192-.529-2.144-.529-2.134-.529-2.086-.529-2.081-.519-2.057-.437-1.928 .046-1.736 .201-1.573 .201-1.535 .201-1.453 .201-1.453 .036-1.453-.092-1.501-.226-1.535-.324-1.726-.869-1.813-1.162-1.813-1.403-1.813-1.861-1.511-2.015-1.228-2.015-1.041-2.015-.878-1.928-.743-1.784-.806-2.051-.863-2.303-1.055-2.576-1.18-2.75-1.362-2.9-1.583-2.9-1.65-2.9-1.866-2.884-1.947-2.684-1.87-2.684-1.808-2.684-1.741-2.622-1.693-2.576-1.645-2.509-1.645-2.411-1.645-2.252-1.774-2.231-1.822-2.231-1.933-2.231-2.091-2.313-2.091-2.565-2.091-2.822-1.88-3.013-1.583-3.013-1.089-3.013-.595-2.545-.46-1.964Z"/>
<path transform="matrix(1,0,0,-1,28.1558,18.3293)" d="M0 0C0 .401-.053 1.023-.316 1.604-.604 2.236-1.017 2.571-1.065 2.571-1.094 2.571-1.113 2.55-1.113 2.519-1.113 2.504-1.113 2.494-1.021 2.401-.551 1.892-.278 1.075-.278 0-.278-.879-.456-1.784-1.05-2.432-1.113-2.493-1.113-2.504-1.113-2.519-1.113-2.55-1.094-2.571-1.065-2.571-1.017-2.571-.585-2.221-.302-1.568-.057-1.002 0-.432 0 0"/>
</g>
<g clip-path="url(#clip_7)">
<g opacity="0">
<g clip-path="url(#clip_8)">
<path transform="matrix(1,0,0,-1,115.2269,18.4465)" stroke-linecap="butt" stroke-miterlimit="10" stroke-linejoin="miter" fill="none" stroke="#000000" d="M0 0V0Z"/>
</g>
</g>
</g>
<g clip-path="url(#clip_9)">
<g opacity="0">
<g clip-path="url(#clip_10)">
</g>
</g>
<path transform="matrix(1,0,0,-1,112.5591,17.6385)" d="M0 0H.412C.508 0 .556 0 .556 .103 .556 .159 .508 .159 .427 .159H.029L.13 .746C.149 .854 .216 1.218 .245 1.28 .288 1.378 .369 1.455 .47 1.455 .489 1.455 .614 1.455 .705 1.363 .494 1.342 .446 1.162 .446 1.085 .446 .967 .532 .905 .624 .905 .748 .905 .887 1.018 .887 1.213 .887 1.45 .667 1.568 .47 1.568 .307 1.568 .005 1.476-.139 .967-.168 .859-.182 .807-.297 .159H-.628C-.719 .159-.772 .159-.772 .062-.772 0-.729 0-.638 0H-.321L-.681-2.031C-.767-2.529-.849-2.997-1.098-2.997-1.117-2.997-1.237-2.997-1.328-2.905-1.108-2.889-1.065-2.704-1.065-2.627-1.065-2.509-1.151-2.447-1.242-2.447-1.367-2.447-1.506-2.56-1.506-2.756-1.506-2.987-1.295-3.11-1.098-3.11-.834-3.11-.643-2.807-.556-2.612-.403-2.288-.292-1.666-.288-1.63Z"/>
<path transform="matrix(1,0,0,-1,115.2496,20.9289)" d="M0 0C0 .015 0 .026-.082 .113-.681 .761-.834 1.733-.834 2.519-.834 3.414-.652 4.308-.062 4.951 0 5.013 0 5.023 0 5.038 0 5.074-.019 5.09-.048 5.09-.096 5.09-.527 4.74-.811 4.087-1.055 3.522-1.113 2.951-1.113 2.519-1.113 2.118-1.06 1.496-.796 .915-.508 .283-.096-.051-.048-.051-.019-.051 0-.036 0 0"/>
<path transform="matrix(1,0,0,-1,117.8662,17.7363)" d="M0 0C.019 .072 .019 .082 .019 .118 .019 .211-.048 .257-.12 .257-.168 .257-.245 .226-.288 .149-.297 .123-.336-.036-.355-.128-.388-.262-.422-.401-.451-.54L-.667-1.465C-.686-1.542-.892-1.902-1.209-1.902-1.453-1.902-1.506-1.676-1.506-1.486-1.506-1.249-1.424-.93-1.261-.478-1.184-.267-1.165-.211-1.165-.108-1.165 .123-1.319 .314-1.559 .314-2.014 .314-2.192-.432-2.192-.478-2.192-.529-2.144-.529-2.134-.529-2.086-.529-2.081-.519-2.057-.437-1.928 .046-1.736 .201-1.573 .201-1.535 .201-1.453 .201-1.453 .036-1.453-.092-1.501-.226-1.535-.324-1.726-.869-1.813-1.162-1.813-1.403-1.813-1.861-1.511-2.015-1.228-2.015-1.041-2.015-.878-1.928-.743-1.784-.806-2.051-.863-2.303-1.055-2.576-1.18-2.75-1.362-2.9-1.583-2.9-1.65-2.9-1.866-2.884-1.947-2.684-1.87-2.684-1.808-2.684-1.741-2.622-1.693-2.576-1.645-2.509-1.645-2.411-1.645-2.252-1.774-2.231-1.822-2.231-1.933-2.231-2.091-2.313-2.091-2.565-2.091-2.822-1.88-3.013-1.583-3.013-1.089-3.013-.595-2.545-.46-1.964Z"/>
<path transform="matrix(1,0,0,-1,119.4368,18.4097)" d="M0 0C0 .401-.053 1.023-.317 1.604-.604 2.236-1.017 2.571-1.065 2.571-1.094 2.571-1.113 2.55-1.113 2.519-1.113 2.504-1.113 2.494-1.021 2.401-.551 1.892-.278 1.075-.278 0-.278-.879-.456-1.784-1.05-2.432-1.113-2.493-1.113-2.504-1.113-2.519-1.113-2.55-1.094-2.571-1.065-2.571-1.017-2.571-.585-2.221-.302-1.568-.057-1.002 0-.432 0 0"/>
</g>
<g clip-path="url(#clip_11)">
<path transform="matrix(1,0,0,-1,103.4495,29.432702)" d="M0 0-.086 .08C-.086 .075-.289-.177-.525-.177-.648-.177-.781-.096-.872-.043-1.017 .043-1.113 .08-1.204 .08-1.408 .08-1.509-.037-1.782-.337L-1.697-.417C-1.697-.412-1.493-.161-1.258-.161-1.135-.161-1.001-.241-.91-.294-.765-.38-.669-.417-.578-.417-.375-.417-.273-.3 0 0"/>
<path transform="matrix(1,0,0,-1,102.0147,31.6916)" d="M0 0C.155 0 .551 .011 .819 .123 1.194 .284 1.22 .6 1.22 .675 1.22 .91 1.017 1.13 .648 1.13 .053 1.13-.755 .61-.755-.326-.755-.872-.439-1.295 .086-1.295 .851-1.295 1.301-.728 1.301-.664 1.301-.632 1.269-.594 1.236-.594 1.21-.594 1.199-.605 1.167-.648 .744-1.178 .161-1.178 .096-1.178-.321-1.178-.369-.728-.369-.557-.369-.492-.364-.326-.284 0ZM-.251 .118C-.043 .931 .508 1.012 .648 1.012 .899 1.012 1.044 .857 1.044 .675 1.044 .118 .187 .118-.032 .118Z"/>
<path transform="matrix(1,0,0,-1,105.3996,33.0526)" d="M0 0H-.127C-.139-.082-.176-.303-.225-.341-.255-.363-.543-.363-.596-.363H-1.285C-.892-.015-.761 .09-.536 .266-.258 .487 0 .72 0 1.075 0 1.529-.397 1.806-.877 1.806-1.341 1.806-1.656 1.48-1.656 1.135-1.656 .944-1.495 .926-1.457 .926-1.367 .926-1.259 .989-1.259 1.124-1.259 1.192-1.285 1.323-1.48 1.323-1.364 1.589-1.109 1.671-.933 1.671-.558 1.671-.363 1.379-.363 1.075-.363 .749-.596 .491-.716 .356L-1.619-.536C-1.656-.569-1.656-.577-1.656-.682H-.112Z"/>
<path transform="matrix(1,0,0,-1,62.9363,3.4945985)" d="M0 0C0 .289-.139 .375-.235 .375-.369 .375-.498 .235-.498 .118-.498 .048-.471 .016-.412-.043-.3-.15-.23-.289-.23-.482-.23-.707-.557-1.932-1.183-1.932-1.456-1.932-1.579-1.745-1.579-1.467-1.579-1.167-1.435-.776-1.269-.332-1.231-.241-1.204-.166-1.204-.064-1.204 .177-1.376 .375-1.643 .375-2.146 .375-2.35-.402-2.35-.45-2.35-.503-2.296-.503-2.286-.503-2.232-.503-2.227-.493-2.2-.407-2.045 .134-1.815 .257-1.659 .257-1.617 .257-1.526 .257-1.526 .086-1.526-.048-1.579-.193-1.617-.289-1.852-.91-1.922-1.156-1.922-1.386-1.922-1.964-1.451-2.05-1.204-2.05-.305-2.05 0-.278 0 0"/>
<path transform="matrix(1,0,0,-1,124.6628,7.703499)" d="M0 0-.086 .08C-.086 .075-.289-.177-.525-.177-.647-.177-.781-.096-.872-.043-1.017 .043-1.113 .08-1.204 .08-1.408 .08-1.509-.037-1.782-.337L-1.697-.417C-1.697-.412-1.493-.161-1.258-.161-1.135-.161-1.001-.241-.91-.294-.765-.38-.669-.417-.578-.417-.374-.417-.273-.3 0 0"/>
<path transform="matrix(1,0,0,-1,124.7321,9.2075)" d="M0 0C0 .289-.139 .375-.235 .375-.369 .375-.498 .235-.498 .118-.498 .048-.471 .016-.412-.043-.3-.15-.23-.289-.23-.482-.23-.707-.557-1.932-1.183-1.932-1.456-1.932-1.579-1.745-1.579-1.467-1.579-1.167-1.435-.776-1.269-.332-1.231-.241-1.204-.166-1.204-.064-1.204 .177-1.376 .375-1.643 .375-2.146 .375-2.35-.402-2.35-.45-2.35-.503-2.296-.503-2.286-.503-2.232-.503-2.227-.493-2.2-.407-2.045 .134-1.815 .257-1.659 .257-1.617 .257-1.526 .257-1.526 .086-1.526-.048-1.579-.193-1.617-.289-1.852-.91-1.922-1.156-1.922-1.386-1.922-1.964-1.451-2.05-1.204-2.05-.305-2.05 0-.278 0 0"/>
<path transform="matrix(1,0,0,-1,138.5246,29.4023)" d="M0 0-.086 .08C-.086 .075-.289-.177-.525-.177-.648-.177-.781-.096-.872-.043-1.017 .043-1.113 .08-1.204 .08-1.408 .08-1.509-.037-1.782-.337L-1.697-.417C-1.697-.412-1.493-.161-1.258-.161-1.135-.161-1.001-.241-.91-.294-.765-.38-.669-.417-.578-.417-.375-.417-.273-.3 0 0"/>
<path transform="matrix(1,0,0,-1,137.1047,31.6612)" d="M0 0C.155 0 .551 .011 .819 .123 1.194 .284 1.22 .6 1.22 .675 1.22 .91 1.017 1.13 .648 1.13 .053 1.13-.755 .61-.755-.326-.755-.872-.439-1.295 .086-1.295 .851-1.295 1.301-.728 1.301-.664 1.301-.632 1.269-.594 1.236-.594 1.21-.594 1.199-.605 1.167-.648 .744-1.178 .161-1.178 .096-1.178-.321-1.178-.369-.728-.369-.557-.369-.492-.364-.326-.284 0ZM-.251 .118C-.043 .931 .508 1.012 .648 1.012 .899 1.012 1.044 .857 1.044 .675 1.044 .118 .187 .118-.032 .118Z"/>
<path transform="matrix(1,0,0,-1,139.8528,31.321)" d="M0 0C0 .101-.007 .105-.112 .105-.352-.131-.693-.135-.847-.135V-.27C-.757-.27-.51-.27-.303-.165V-2.076C-.303-2.199-.303-2.248-.678-2.248H-.82V-2.383C-.753-2.379-.292-2.368-.154-2.368-.037-2.368 .435-2.379 .517-2.383V-2.248H.375C0-2.248 0-2.199 0-2.076Z"/>
<g opacity="0">
<g clip-path="url(#clip_12)">
</g>
</g>
<path transform="matrix(1,0,0,-1,47.477,36.7149)" d="M0 0C.155 0 .552 .011 .82 .123 1.196 .284 1.222 .601 1.222 .676 1.222 .911 1.019 1.131 .649 1.131 .054 1.131-.756 .611-.756-.327-.756-.874-.44-1.297 .086-1.297 .853-1.297 1.303-.729 1.303-.665 1.303-.633 1.271-.595 1.238-.595 1.212-.595 1.201-.606 1.169-.649 .745-1.18 .161-1.18 .097-1.18-.322-1.18-.37-.729-.37-.558-.37-.493-.365-.327-.284 0ZM-.252 .118C-.043 .933 .509 1.013 .649 1.013 .901 1.013 1.045 .858 1.045 .676 1.045 .118 .188 .118-.032 .118Z"/>
<path transform="matrix(1,0,0,-1,50.6198,36.4155)" d="M0 0C0 .064-.049 .143-.15 .143-.259 .143-.36 .038-.36-.064-.36-.124-.315-.206-.21-.206-.109-.206 0-.109 0 0M-.796-2.529C-.859-2.788-1.058-3.006-1.28-3.006-1.328-3.006-1.374-2.999-1.415-2.984-1.317-2.938-1.287-2.848-1.287-2.792-1.287-2.702-1.359-2.653-1.434-2.653-1.55-2.653-1.647-2.755-1.647-2.875-1.647-3.017-1.501-3.111-1.276-3.111-1.051-3.111-.612-2.976-.495-2.518L-.158-1.175C-.146-1.133-.139-1.1-.139-1.043-.139-.837-.315-.691-.54-.691-.957-.691-1.197-1.212-1.197-1.265-1.197-1.313-1.145-1.313-1.133-1.313-1.088-1.313-1.084-1.302-1.058-1.246-.965-1.028-.769-.796-.552-.796-.458-.796-.424-.859-.424-.979-.424-1.021-.431-1.073-.435-1.092Z"/>
<path transform="matrix(1,0,0,-1,53.7538,37.9129)" d="M0 0C.06 0 .15 0 .15 .09 .15 .184 .064 .184 0 .184H-2.237C-2.297 .184-2.387 .184-2.387 .094-2.387 0-2.3 0-2.237 0Z"/>
<path transform="matrix(1,0,0,-1,55.5694,36.3741)" d="M0 0C0 .101-.007 .105-.112 .105-.353-.131-.694-.135-.848-.135V-.27C-.758-.27-.51-.27-.304-.165V-2.079C-.304-2.203-.304-2.252-.679-2.252H-.822V-2.387C-.754-2.383-.293-2.372-.154-2.372-.037-2.372 .435-2.383 .518-2.387V-2.252H.375C0-2.252 0-2.203 0-2.079Z"/>
<path transform="matrix(1,0,0,-1,70.4062,36.4216)" d="M0 0C.155 0 .552 .011 .82 .123 1.196 .284 1.222 .601 1.222 .676 1.222 .911 1.019 1.131 .649 1.131 .054 1.131-.756 .611-.756-.327-.756-.874-.44-1.297 .086-1.297 .853-1.297 1.303-.729 1.303-.665 1.303-.633 1.271-.595 1.238-.595 1.212-.595 1.201-.606 1.169-.649 .745-1.18 .161-1.18 .096-1.18-.322-1.18-.37-.729-.37-.558-.37-.493-.365-.327-.284 0ZM-.252 .118C-.043 .933 .509 1.013 .649 1.013 .901 1.013 1.045 .858 1.045 .676 1.045 .118 .188 .118-.032 .118Z"/>
<path transform="matrix(1,0,0,-1,73.549,36.1223)" d="M0 0C0 .064-.049 .143-.15 .143-.259 .143-.36 .038-.36-.064-.36-.124-.315-.206-.21-.206-.109-.206 0-.109 0 0M-.796-2.529C-.859-2.788-1.058-3.006-1.28-3.006-1.328-3.006-1.374-2.999-1.415-2.984-1.317-2.938-1.287-2.848-1.287-2.792-1.287-2.702-1.359-2.653-1.434-2.653-1.55-2.653-1.647-2.755-1.647-2.875-1.647-3.017-1.501-3.111-1.276-3.111-1.051-3.111-.612-2.976-.495-2.518L-.158-1.175C-.146-1.133-.139-1.1-.139-1.043-.139-.837-.315-.691-.54-.691-.957-.691-1.197-1.212-1.197-1.265-1.197-1.313-1.144-1.313-1.133-1.313-1.088-1.313-1.084-1.302-1.058-1.246-.964-1.028-.769-.796-.551-.796-.458-.796-.424-.859-.424-.98-.424-1.021-.431-1.073-.435-1.092Z"/>
<path transform="matrix(1,0,0,-1,75.6285,37.6197)" d="M0 0H1.148C1.197 0 1.287 0 1.287 .09 1.287 .184 1.201 .184 1.148 .184H0V1.336C0 1.385 0 1.475-.09 1.475-.184 1.475-.184 1.388-.184 1.336V.184H-1.336C-1.385 .184-1.475 .184-1.475 .094-1.475 0-1.389 0-1.336 0H-.184V-1.152C-.184-1.201-.184-1.291-.094-1.291 0-1.291 0-1.205 0-1.152Z"/>
<path transform="matrix(1,0,0,-1,78.4388,36.0809)" d="M0 0C0 .101-.007 .105-.112 .105-.353-.131-.694-.135-.848-.135V-.27C-.758-.27-.51-.27-.304-.165V-2.079C-.304-2.203-.304-2.252-.679-2.252H-.822V-2.387C-.754-2.383-.293-2.372-.154-2.372-.037-2.372 .435-2.383 .518-2.387V-2.252H.375C0-2.252 0-2.203 0-2.079Z"/>
<path transform="matrix(1,0,0,-1,77.9058,20.7088)" d="M0 0C.155 0 .552 .011 .82 .123 1.196 .284 1.222 .601 1.222 .676 1.222 .911 1.019 1.131 .649 1.131 .054 1.131-.756 .611-.756-.327-.756-.874-.44-1.297 .086-1.297 .853-1.297 1.303-.729 1.303-.665 1.303-.633 1.271-.595 1.238-.595 1.212-.595 1.201-.606 1.169-.649 .745-1.18 .161-1.18 .097-1.18-.322-1.18-.37-.729-.37-.558-.37-.493-.365-.327-.284 0ZM-.252 .118C-.043 .933 .509 1.013 .649 1.013 .901 1.013 1.045 .858 1.045 .676 1.045 .118 .188 .118-.032 .118Z"/>
<path transform="matrix(1,0,0,-1,81.0485,20.409399)" d="M0 0C0 .064-.049 .143-.15 .143-.259 .143-.36 .038-.36-.064-.36-.124-.315-.206-.21-.206-.109-.206 0-.109 0 0M-.796-2.529C-.859-2.788-1.058-3.006-1.28-3.006-1.328-3.006-1.374-2.999-1.415-2.984-1.317-2.938-1.287-2.848-1.287-2.792-1.287-2.702-1.359-2.653-1.434-2.653-1.55-2.653-1.647-2.755-1.647-2.875-1.647-3.017-1.501-3.111-1.276-3.111-1.051-3.111-.612-2.976-.495-2.518L-.158-1.175C-.146-1.133-.139-1.1-.139-1.043-.139-.837-.315-.691-.54-.691-.957-.691-1.197-1.212-1.197-1.265-1.197-1.313-1.144-1.313-1.133-1.313-1.088-1.313-1.084-1.302-1.058-1.246-.965-1.028-.769-.796-.552-.796-.458-.796-.424-.859-.424-.979-.424-1.021-.431-1.073-.435-1.092Z"/>
<path transform="matrix(1,0,0,-1,130.1279,21.674799)" stroke-width=".75" stroke-linecap="butt" stroke-miterlimit="10" stroke-linejoin="miter" fill="none" stroke="#231f20" d="M0 0-2.521-3.784"/>
<path transform="matrix(1,0,0,-1,131.3828,19.791399)" d="M0 0C-.919-.667-2.213-1.393-3.261-1.679L-1.42-2.131-.293-3.656C-.434-2.579-.262-1.105 0 0" fill="#231f20"/>
</g>
<g clip-path="url(#clip_13)">
<path transform="matrix(1,0,0,-1,130.6721,18.2265)" stroke-linecap="butt" stroke-miterlimit="10" stroke-linejoin="miter" fill="none" stroke="#000000" stroke-opacity="0" d="M0 0V0Z"/>
</g>
<g clip-path="url(#clip_14)">
<path transform="matrix(1,0,0,-1,130.7276,18.1008)" stroke-linecap="butt" stroke-miterlimit="10" stroke-linejoin="miter" fill="none" stroke="#000000" stroke-opacity="0" d="M0 0V0Z"/>
<path transform="matrix(1,0,0,-1,130.6772,16.250599)" d="M0 0-.074 .07C-.074 .065-.25-.153-.454-.153-.561-.153-.677-.083-.756-.037-.881 .037-.964 .07-1.043 .07-1.219 .07-1.307-.032-1.544-.292L-1.47-.362C-1.47-.357-1.293-.139-1.089-.139-.983-.139-.867-.209-.788-.255-.663-.329-.579-.362-.501-.362-.324-.362-.236-.259 0 0"/>
<path transform="matrix(1,0,0,-1,128.924,19.0042)" d="M0 0C-.014-.07-.042-.176-.042-.199-.042-.283 .023-.325 .093-.325 .148-.325 .232-.288 .264-.195 .269-.186 .325 .032 .352 .148L.454 .565C.482 .667 .51 .77 .533 .876 .552 .955 .589 1.089 .593 1.108 .663 1.252 .909 1.673 1.349 1.673 1.558 1.673 1.599 1.502 1.599 1.349 1.599 1.062 1.372 .468 1.298 .269 1.256 .162 1.252 .106 1.252 .056 1.252-.162 1.414-.325 1.632-.325 2.068-.325 2.239 .352 2.239 .389 2.239 .436 2.197 .436 2.184 .436 2.137 .436 2.137 .422 2.114 .352 2.021 .037 1.868-.223 1.641-.223 1.562-.223 1.53-.176 1.53-.07 1.53 .046 1.572 .157 1.613 .259 1.701 .505 1.896 1.015 1.896 1.279 1.896 1.59 1.697 1.776 1.363 1.776 .946 1.776 .719 1.479 .64 1.372 .617 1.632 .426 1.776 .213 1.776 0 1.776-.088 1.595-.134 1.511-.209 1.354-.274 1.08-.274 1.062-.274 1.015-.227 1.015-.218 1.015-.172 1.015-.167 1.02-.139 1.122-.06 1.451 .032 1.673 .199 1.673 .292 1.673 .343 1.613 .343 1.46 .343 1.363 .329 1.312 .269 1.071Z"/>
<path transform="matrix(1,0,0,-1,132.3836,17.9123)" d="M0 0C0 .088-.006 .091-.097 .091-.305-.114-.6-.117-.733-.117V-.234C-.655-.234-.441-.234-.263-.143V-1.798C-.263-1.905-.263-1.947-.587-1.947H-.711V-2.064C-.652-2.061-.253-2.051-.133-2.051-.032-2.051 .376-2.061 .448-2.064V-1.947H.325C0-1.947 0-1.905 0-1.798Z"/>
</g>
</g>
</g>
</svg>
