<?xml version="1.0" encoding="UTF-8"?>
<svg id="Layer_1" xmlns="http://www.w3.org/2000/svg" xmlns:inkscape="http://www.inkscape.org/namespaces/inkscape" version="1.1" viewBox="0 0 60.46 48.59">
  <!-- Generator: Adobe Illustrator 30.2.1, SVG Export Plug-In . SVG Version: 2.1.1 Build 1)  -->
  <defs>
    <style>
      .st0 {
        fill: #d5d3ea;
      }

      .st1 {
        fill: #d32329;
      }

      .st2 {
        fill: #0779ab;
      }

      .st3 {
        fill: #231f20;
      }

      .st4 {
        fill: none;
        stroke: #000;
        stroke-miterlimit: 10;
      }
    </style>
  </defs>
  <g>
    <path class="st0" d="M22.57,17.97c-10.17-2.59-12.66-2.18-13.52-4.12-1.44-3.25,3.22-9.6,8.94-12.15,4.24-1.89,8.08-1.25,14.85-.12,7.91,1.32,13.1,4.04,14.56,4.7,4.08,1.86,8.14,4.34,10.31,8.26,1.65,2.98,2.04,6.49,2.16,9.9.14,3.91.37,8.72-2.09,13.12-4.02,7.2-12.74,9.01-17.34,9.97-4.98,1.04-9.54.51-18.46-.58-12.11-1.48-18.2-2.29-20.27-5.84-2.93-5.05-.17-13.69,4.12-15.35,2.4-.93,3.5,1.01,13.75,3.21,2.02.43,3.79.59,7.33.92,4.11.37,5.22.24,6.15-.48,1.53-1.2,2.26-3.77,1.58-5.73-.66-1.89-2.65-3.3-12.08-5.7"/>
    <path class="st4" d="M22.57,17.97c-10.17-2.59-12.66-2.18-13.52-4.12-1.44-3.25,3.22-9.6,8.94-12.15,4.24-1.89,8.08-1.25,14.85-.12,7.91,1.32,13.1,4.04,14.56,4.7,4.08,1.86,8.14,4.34,10.31,8.26,1.65,2.98,2.04,6.49,2.16,9.9.14,3.91.37,8.72-2.09,13.12-4.02,7.2-12.74,9.01-17.34,9.97-4.98,1.04-9.54.51-18.46-.58-12.11-1.48-18.2-2.29-20.27-5.84-2.93-5.05-.17-13.69,4.12-15.35,2.4-.93,3.5,1.01,13.75,3.21,2.02.43,3.79.59,7.33.92,4.11.37,5.22.24,6.15-.48,1.53-1.2,2.26-3.77,1.58-5.73-.66-1.89-2.65-3.3-12.08-5.7Z"/>
    <path class="st1" d="M24.3,17.97c0,.75-.61,1.37-1.37,1.37s-1.37-.61-1.37-1.37.61-1.37,1.37-1.37,1.37.61,1.37,1.37"/>
  </g>
  <g data-text="B">
    <path id="font_2_37" class="st1" d="M24.88,10.8c.52,0,.92-.07,1.21-.21.49-.25.74-.7.74-1.35,0-.37-.1-.64-.31-.79s-.49-.23-.83-.23c-.22,0-.37.02-.44.06-.08.04-.13.11-.16.22l-.65,2.31h.44M24.36,14.1c.66,0,1.14-.17,1.45-.52s.46-.76.46-1.24c0-.54-.18-.89-.54-1.06-.23-.1-.69-.16-1.38-.17l-.62,2.26c-.02.06-.03.11-.04.16,0,.05-.01.1-.01.15,0,.18.08.3.25.36.09.04.24.05.44.05M21.87,14.26c.23-.02.4-.06.48-.13.14-.1.25-.3.34-.61l1.23-4.42c.03-.11.05-.19.07-.25.03-.15.05-.26.05-.33,0-.17-.05-.28-.16-.35s-.31-.1-.61-.1v-.17h2.58c.44,0,.83.06,1.16.17.56.24.84.66.84,1.28,0,.51-.23.91-.69,1.19-.25.15-.6.28-1.04.38.35.13.6.27.78.43.31.28.46.67.46,1.15,0,.55-.24,1-.73,1.37-.49.37-1.15.55-1.99.55h-2.76v-.17Z"/>
  </g>
  <g data-text="C">
    <path id="font_2_38" class="st2" d="M27.37,33.42c.29,0,.6.04.94.12s.54.12.62.12c.12,0,.21-.02.25-.06s.09-.09.12-.17h.21l-.37,1.99-.18-.02c-.04-.39-.12-.71-.26-.95-.26-.44-.68-.67-1.27-.67-.91,0-1.66.45-2.25,1.36-.51.79-.77,1.65-.77,2.57,0,.69.16,1.2.47,1.56.31.35.71.53,1.21.53s.97-.12,1.4-.37c.25-.15.58-.42.98-.8l.16.14c-.36.46-.78.83-1.24,1.09-.46.27-.97.4-1.52.4-.83,0-1.47-.26-1.92-.79-.45-.53-.67-1.14-.67-1.85,0-1.01.37-1.94,1.12-2.79.82-.94,1.81-1.41,2.98-1.41Z"/>
  </g>
  <g data-text="A">
    <path id="font_2_36" class="st3" d="M18.8,35.82l-.44-2.59-1.49,2.59h1.93M14.61,38.27c.22-.06.4-.16.52-.31.13-.15.38-.55.77-1.21l2.92-5h.22l.96,5.66c.06.36.14.59.22.68.08.09.27.15.54.17v.17h-2.47v-.17c.3-.03.49-.06.58-.11.14-.06.21-.19.21-.38,0-.05,0-.1,0-.16,0-.06,0-.1-.01-.14l-.2-1.31h-2.2l-.58,1.12c-.04.07-.08.15-.11.24-.06.15-.08.27-.08.37,0,.13.04.22.13.27.09.05.24.08.46.09v.17h-1.88v-.17Z"/>
  </g>
  <g>
    <path class="st4" d="M14.99,27.65l1.07-2.79"/>
    <path d="M16.92,22.61c-.01,1.21.15,2.79.55,3.87l-1.53-1.32-2.02-.04c1.02-.54,2.2-1.6,3-2.51"/>
    <path class="st4" d="M18.68,16.55l-.93,2.83"/>
    <path d="M16.99,21.68c-.05-1.21-.29-2.77-.74-3.84l1.59,1.25,2.02-.06c-1,.59-2.12,1.71-2.88,2.65"/>
    <path class="st2" d="M28.29,29.89c0,.75-.61,1.37-1.37,1.37s-1.37-.61-1.37-1.37.61-1.37,1.37-1.37,1.37.61,1.37,1.37"/>
    <path d="M20.94,29.14c0,.75-.61,1.37-1.37,1.37s-1.37-.61-1.37-1.37.61-1.37,1.37-1.37,1.37.61,1.37,1.37"/>
  </g>
</svg>