<svg xmlns="http://www.w3.org/2000/svg" xmlns:xlink="http://www.w3.org/1999/xlink" xmlns:inkscape="http://www.inkscape.org/namespaces/inkscape" version="1.1" width="252" height="141.662" viewBox="0 0 252 141.662">
<defs>
<clipPath id="clip_1">
<path transform="matrix(1,0,0,-1,0,141.662)" d="M0 141.662H252V0H0Z"/>
</clipPath>
<path id="font_2_9" d="M.4072876 .27592469C.3742981 .27442933 .33268739 .2734375 .30299378 .2734375 .27409364 .2734375 .22059632 .27513124 .19859314 .2763214L.3039856 .52207949H.30599977C.34709168 .42773438 .38038636 .34558106 .4072876 .27592469M.1789856 .22872925C.20399475 .23042298 .27349855 .23143006 .30799867 .23143006 .34599305 .23143006 .40098573 .23042298 .42529298 .22872925 .47428895 .09741211 .4968872 .019302369 .5029907-.0029296876 .519989 .000061035159 .5359955 .000061035159 .5529938 .000061035159 .56999209 .000061035159 .59599307 .000061035159 .61299136-.0029296876 .5629883 .098220828 .43099977 .43933106 .33898927 .6582031H.31098939C.21499634 .43632508 .116989139 .2184143 .015991211-.0029296876 .027999878 .000061035159 .039993287 .000061035159 .050994874 .000061035159 .06199646 .000061035159 .083999637 .000061035159 .09599304-.0029296876 .11239624 .05845642 .14329529 .14108277 .1789856 .22872925Z"/>
<path id="font_2_2" d="M.04399109 .2519989C.04399109 .20698548 .04798889-.024002076 .2559967-.20401001L.2789917-.18701172C.24598694-.14900208 .1269989-.011001587 .1269989 .2519989 .1269989 .5149994 .24699402 .6529999 .2789917 .68899539L.2559967 .70700076C.13699341 .6049957 .04399109 .43798829 .04399109 .2519989Z"/>
<path id="font_2_5" d="M.23298645 .5713501C.25 .5713501 .2659912 .56533816 .2769928 .5553436 .30799867 .5293274 .33499146 .4513092 .33499146 .31729127 .33499146 .2252655 .33198548 .17326355 .31799317 .12225342 .29599 .039230348 .24699402 .029220581 .22898865 .029220581 .13598633 .029220581 .125 .20025635 .125 .28727723 .125 .5343323 .18699646 .5713501 .23298645 .5713501M.22799683-.009765625C.30499269-.009765625 .42099 .07524109 .42099 .3092804 .42099 .46531678 .3639984 .5423279 .32798768 .5753479 .30099488 .6003418 .2689972 .61035159 .23298645 .61035159 .1329956 .61035159 .038986207 .48632813 .038986207 .28927613 .038986207 .12724304 .10398865-.009765625 .22799683-.009765625Z"/>
<path id="font_2_4" d="M.04798889 .044067384C.056793214 .010559082 .07078552 .004058838 .101989749-.0029296876 .114486698-.0029296876 .1309967-.0044403078 .1309967-.028930664 .1309967-.061935426 .101989749-.0899353 .052993776-.12294006 .052993776-.13293457 .059188844-.138031 .06599426-.14393616 .11999512-.11224365 .16999817-.08493042 .16999817-.0029296876 .16999817 .06185913 .14219666 .08895874 .10598755 .10206604H.101989749C.0717926 .08985901 .05718994 .0745697 .04798889 .048065187V.044067384Z"/>
<path id="font_2_1" d=""/>
<path id="font_2_3" d="M.2559967 .2519989C.2559967 .29699708 .2519989 .5279999 .04399109 .70799258L.020996094 .69099429C.053985597 .6529999 .17298889 .5149994 .17298889 .2519989 .17298889-.011001587 .052993776-.14900208 .020996094-.18501282L.04399109-.20300293C.16299439-.10101318 .2559967 .06599426 .2559967 .2519989Z"/>
<path id="font_2_10" d="M.18998719 .55937197C.18998719 .5927124 .19999695 .605423 .2809906 .605423 .33699037 .605423 .4079895 .58340457 .4079895 .4812622 .4079895 .39614869 .35099793 .37112428 .2679901 .37112428H.18998719V.55937197M.18998719 .328125H.2829895C.3999939 .328125 .45498658 .2551117 .45498658 .16508484 .45498658 .09597778 .43119813 .04006958 .2869873 .04006958 .21699524 .04006958 .18998719 .05506897 .18998719 .08807373V.328125M.14698792 .6454315C.11299133 .6454315 .09599304 .6484375 .09599304 .6484375L.09399414 .6454315C.101989749 .5884094 .10398865 .52030947 .10398865 .44522096V.2000885C.10398865 .1250763 .101989749 .05406189 .09399414 .000061035159L.09498596-.0029296876C.09498596-.0029296876 .11199951 .000061035159 .14698792 .000061035159 .20899964 .000061035159 .21699524-.0029296876 .30599977-.0029296876 .5049896-.0029296876 .55400088 .09806824 .55400088 .18409729 .55400088 .2801056 .4889984 .33511354 .4019928 .36012269 .45298768 .38513185 .49499513 .4382019 .49499513 .49328614 .49499513 .56036379 .45999146 .6484375 .27398683 .6484375 .23899842 .6484375 .19699097 .6454315 .14698792 .6454315Z"/>
<path id="font_2_6" d="M.32598878 .18917847V.44332887C.32598878 .5513611 .33198548 .59135439 .33399964 .6053467 .33399964 .61035159 .33099366 .61035159 .32699586 .61035159 .2619934 .5893402 .18598938 .550354 .10798645 .5263672L.11399841 .49736024C.15899658 .5023651 .20799256 .5133667 .22799683 .5133667 .24598694 .5133667 .24598694 .4733429 .24598694 .43733216V.18917847C.24598694 .11112976 .24499512 .05709839 .23799134 .000061035159L.23899842-.0029296876C.23899842-.0029296876 .2669983 .000061035159 .2849884 .000061035159 .30499269 .000061035159 .33299256-.0029296876 .33299256-.0029296876L.33499146 .000061035159C.32798768 .06010437 .32598878 .11012268 .32598878 .18917847Z"/>
<path id="font_2_15" d="M.18998719 .56533816C.18998719 .59432986 .20799256 .6093292 .27999879 .6093292 .34899903 .6093292 .42199708 .59033206 .42199708 .47132875 .42199708 .35632325 .3659973 .31933595 .2689972 .31933595 .24398804 .31933595 .20298767 .32232667 .18998719 .32933045V.56533816M.10398865 .44532777V.20025635C.10398865 .1251831 .101989749 .054122926 .09399414 .000061035159L.09599304-.0029296876C.10798645-.00093078616 .1349945 .000061035159 .14698792 .000061035159 .15899658 .000061035159 .18598938-.00093078616 .19799805-.0029296876L.19999695 .000061035159C.19198609 .057113649 .18998719 .1251831 .18998719 .20025635V.28633119C.21199036 .2793274 .23899842 .2763214 .27398683 .2763214 .45599366 .2763214 .5189972 .3913269 .5189972 .47633363 .5189972 .55033877 .47200013 .65234377 .2869873 .65234377 .26098634 .65234377 .1769867 .64533999 .14698792 .64533999 .1349945 .64533999 .10798645 .6463318 .09599304 .6483307L.09399414 .64533999C.101989749 .58833315 .10398865 .52033999 .10398865 .44532777Z"/>
<path id="font_2_22" d="M.09498596 .42871095C.07449341 .4288025 .053390504 .42910768 .040985109 .43070985 .0342865 .4143982 .028686524 .40470887 .018997193 .38970948L.023986817 .3827057C.04119873 .3840027 .07218933 .38459779 .09498596 .3847046V.24784851C.09498596 .18791199 .09199524 .115982059 .09199524 .086013797 .09199524 .021072388 .13398743-.009765625 .17999268-.009765625 .22200012-.009765625 .2539978 .00018310547 .29599 .027053833L.2836914 .051757814C.25299073 .041046144 .22999573 .04005432 .20498657 .044052125 .18128968 .047851564 .17199707 .07192993 .17199707 .12597656 .17199707 .15594483 .1749878 .19889832 .1749878 .25883485V.3847046H.21299744C.23699951 .3847046 .271698 .3840027 .2849884 .3827057 .28799439 .3986969 .29100038 .40899659 .29699708 .42370606L.2919922 .43070985C.27398683 .43000794 .24499512 .42871095 .22200012 .42871095H.1749878C.1749878 .5035095 .17549134 .5167084 .17999268 .57470706 .17999268 .58200076 .17729187 .58470156 .17098999 .58470156 .14588928 .57470706 .13349915 .564209 .100997928 .55970767L.09899902 .55670168C.09700012 .5220032 .09498596 .4867096 .09498596 .42871095Z"/>
<clipPath id="clip_3">
<path transform="matrix(1,0,0,-1,0,141.662)" d="M0 141.662H252V0H0Z"/>
</clipPath>
<clipPath id="clip_4">
<path transform="matrix(1,0,0,-1,0,141.662)" d="M0 141.662H252V0H0Z"/>
</clipPath>
<path id="font_2_11" d="M.37998963 .6582031C.21099854 .6582031 .051986696 .51220706 .051986696 .31521607 .051986696 .14222718 .15098572-.009765625 .3659973-.009765625 .45838929-.009765625 .5452881 .018920899 .61209109 .09971619 .611496 .11122131 .6094971 .13322449 .60598757 .14222718L.598999 .1452179C.5279999 .067230228 .46798707 .041229249 .375 .041229249 .24819947 .041229249 .15499878 .17822266 .15499878 .33421327 .15499878 .5372009 .28399659 .6111908 .3659973 .6111908 .45599366 .6111908 .5289917 .5751953 .56999209 .49319459L.58200076 .49420167C.58558657 .54519656 .58898928 .56269839 .59999087 .6051941L.59799197 .6082001C.59799197 .6082001 .5019989 .6582031 .37998963 .6582031Z"/>
<path id="font_2_16" d="M.35499574 .6141968C.49598695 .6141968 .58599856 .51820376 .58599856 .31021119 .58599856 .13122559 .5029907 .034225465 .3889923 .034225465 .2689972 .034225465 .15499878 .13522339 .15499878 .32720948 .15499878 .5372009 .25898744 .6141968 .35499574 .6141968M.56069949 .049423219C.6411896 .10832214 .68899539 .20751953 .68899539 .32920838 .68899539 .52719119 .5479889 .6582031 .36799623 .6582031 .18899536 .6582031 .051986696 .50619509 .051986696 .31021119 .051986696 .113220218 .19699097-.009765625 .36898805-.009765625 .4104004-.009765625 .44889833-.0032806397 .48379518 .009033203 .61369326-.05947876 .6053009-.07687378 .71598818-.13977051 .7350006-.12477112 .7739868-.10177612 .80999758-.08277893V-.07676697C.70028689-.039474489 .61828616 .017623902 .56069949 .049423219Z"/>
<clipPath id="clip_5">
<path transform="matrix(1,0,0,-1,0,141.662)" d="M0 141.662H252V0H0Z"/>
</clipPath>
<clipPath id="clip_6">
<path transform="matrix(1,0,0,-1,0,141.662)" d="M0 141.662H252V0H0Z"/>
</clipPath>
<clipPath id="clip_7">
<path transform="matrix(1,0,0,-1,0,141.662)" d="M0 141.662H252V0H0Z"/>
</clipPath>
<clipPath id="clip_8">
<path transform="matrix(1,0,0,-1,0,141.662)" d="M0 141.662H252V0H0Z"/>
</clipPath>
<clipPath id="clip_9">
<path transform="matrix(1,0,0,-1,0,141.662)" d="M0 141.662H252V0H0Z"/>
</clipPath>
<path id="font_2_7" d="M.22200012 .5533447C.2743988 .5533447 .3277893 .5051575 .3277893 .4348755 .3277893 .39317323 .3157959 .33998109 .2896881 .3009796 .21798706 .19398499 .10348511 .093688968 .054397584 .04699707 .05319214 .043289186 .052597047 .038986207 .052597047 .03439331 .052597047 .01928711 .057495119 .0035858155 .062698367-.005004883 .13648987-.0030059815 .1789856 0 .2519989 0 .32398988 0 .35429383-.0020141602 .4256897-.005004883 .42419435 .0053863527 .42259217 .017089844 .42259217 .027999878 .42259217 .044189454 .4237976 .059799196 .42749024 .07499695 .37120057 .069992069 .34059144 .066986087 .24459839 .066986087 .20948792 .066986087 .19029236 .066986087 .16288758 .06498718 .16209412 .066589359 .16169739 .067993167 .16169739 .069992069 .16169739 .07928467 .17199707 .08988953 .17939759 .09698486 .22799683 .14398194 .2749939 .1889801 .34109498 .27798463 .37799073 .3276825 .4136963 .39187623 .4136963 .44847108 .4136963 .5439148 .3498993 .61035159 .23829651 .61035159 .14729309 .61035159 .088897708 .55934146 .066085819 .5292511L.08779907 .4599762 .10089111 .45898438C.11468506 .48908998 .11959839 .50987246 .14498902 .5302582 .16499329 .5463104 .19400025 .5533447 .22200012 .5533447Z"/>
<path id="font_2_12" d="M.18998719 .08206177V.5643921C.18998719 .59942629 .22499085 .60443118 .27398683 .60443118 .48999024 .60443118 .5549927 .43830873 .5549927 .2842102 .5549927 .08206177 .43998719 .042037965 .29899598 .042037965 .20098877 .042037965 .18998719 .050048829 .18998719 .08206177M.14698792 .6454315C.11299133 .6454315 .09599304 .6484375 .09599304 .6484375L.09399414 .6454315C.101989749 .5884094 .10398865 .5203705 .10398865 .4453125V.20014954C.10398865 .12509156 .101989749 .05404663 .09399414 .000045776369L.09498596-.002960205C.09498596-.002960205 .11199951 .000045776369 .14698792 .000045776369 .21798706 .000045776369 .22698975-.001953125 .32998658-.001953125 .47099305-.001953125 .6579895 .062057496 .6579895 .30822755 .6579895 .49435426 .5039978 .6484375 .31199647 .6484375 .24798584 .6484375 .21099854 .6454315 .14698792 .6454315Z"/>
<path id="font_2_13" d="M.18998719 .19966126V.31640626C.23799134 .31640626 .34399415 .31340028 .41299439 .306427L.41600038 .30941773C.4139862 .31840516 .41299439 .33239747 .41299439 .34140016 .41299439 .35040284 .4139862 .36439515 .41600038 .37339784L.41299439 .3764038C.35398866 .37139894 .30799867 .36639405 .18998719 .36639405V.44444276C.18998719 .4614563 .19099427 .56451418 .19799805 .58851626 .33198548 .58851626 .46998597 .5765228 .46998597 .5765228L.47200013 .58052065C.47099305 .58851626 .46998597 .5975189 .46998597 .6065216 .46998597 .6145172 .47099305 .6305237 .47200013 .64453127L.46998597 .647522C.45399476 .6455231 .43099977 .64453127 .4099884 .64453127H.14698792C.11299133 .64453127 .09599304 .647522 .09599304 .647522L.09399414 .64453127C.101989749 .5875244 .10398865 .5194855 .10398865 .44444276V.19966126C.10398865 .12483215 .101989749 .053985597 .09399414 0L.09498596-.0030059815C.09498596-.0030059815 .11199951 0 .14698792 0H.41999818C.44099427 0 .46398927-.0010070801 .47999574-.0030059815L.48199464 0C.48098756 .01399231 .47999574 .020996094 .47999574 .0309906 .47999574 .040985109 .48098756 .055999757 .48199464 .0639801L.47999574 .06796265C.47999574 .06796265 .33198548 .055999757 .19799805 .055999757 .19099427 .079940799 .18998719 .18270874 .18998719 .19966126Z"/>
<path id="font_2_19" d="M.36099244 .11326599C.3244934 .06674194 .27848817 .04222107 .23799134 .04222107 .18399048 .04222107 .13798523 .09625244 .13798523 .221344 .13798523 .37142945 .21759033 .39944459 .2659912 .39944459 .31298829 .39944459 .33699037 .3794403 .36099244 .3414154V.11326599M.36099244 .058242799H.36299134L.36799623 .00022888184C.36799623-.0019378662 .37098695-.0029296876 .3769989-.0029296876 .3902893-.0012359619 .39698792 .000061035159 .41149903 .000061035159 .42408753 .000061035159 .44299317-.00093078616 .45599366-.0029296876L.45799256 .000061035159C.44999696 .04310608 .44099427 .11717224 .44099427 .19224549V.5003967C.44099427 .5743408 .44499208 .6265869 .44999696 .6882477 .44999696 .6952362 .44729615 .6982422 .44099427 .6982422 .41589356 .6882477 .39450074 .6812439 .35398866 .6782532L.35198976 .6752472C.35969544 .6325836 .36099244 .5583496 .36099244 .48240663V.41744996C.33799745 .43045045 .29699708 .43945313 .2769928 .43945313 .14678955 .43945313 .050994874 .34939576 .050994874 .2132721 .050994874 .09025574 .12399292-.009765625 .23199463-.009765625 .27999879-.009765625 .32499696 .011734009 .36099244 .058242799Z"/>
<path id="font_2_21" d="M.100997928-.10398865C.100997928-.070755008 .1309967-.033721925 .1659851-.0146484379 .1954956-.01473999 .24119568-.01171875 .25498963-.01171875 .30299378-.01171875 .33358766-.012634277 .36099244-.028778077 .3899994-.045837404 .3999939-.07493591 .3999939-.10101318 .3999939-.16221619 .31799317-.19430542 .23199463-.19430542 .16699219-.19430542 .100997928-.17224121 .100997928-.104019168V-.10398865M.3899994 .2855835C.3899994 .35450746 .36299134 .38645936 .3395996 .4018402 .36968995 .39944459 .40278626 .3956604 .44400025 .39146424L.44699098 .39445497C.44499208 .40344239 .44400025 .411438 .44400025 .42044068 .44400025 .42944337 .44499208 .43743897 .44699098 .44644166L.44400025 .44944764C.39619447 .44534303 .36088563 .43473817 .2862854 .43084718 .26838685 .43644715 .24649048 .43945313 .22499085 .43945313 .1459961 .43945313 .054992677 .38656617 .054992677 .2875824 .054992677 .21266175 .09799194 .17871094 .12599182 .16270447 .09700012 .14271546 .06199646 .113586429 .06199646 .07940674 .06199646 .038269044 .085998538 .0022735596 .13989258-.007019043 .11199951-.018447876 .08088684-.03781128 .054992677-.057876588 .042495729-.076934818 .03199768-.10533142 .03199768-.12408447 .03199768-.20301819 .117996219-.23730469 .22399903-.23730469 .38009645-.23730469 .47299195-.17193604 .47299195-.077941898 .47299195-.033691408 .45899964-.0026245118 .43099977 .021270752 .39349366 .053268434 .32499696 .054275514 .2899933 .054275514 .272995 .054275514 .23298645 .05227661 .20999146 .04927063 .19599915 .048355104 .18598938 .047348024 .18099976 .047348024 .15299988 .047348024 .12298584 .051361085 .12298584 .09454346 .12298584 .11462402 .12799073 .13168335 .1499939 .15071106 .16299439 .14370728 .19389344 .13671875 .22399903 .13671875 .32798768 .13671875 .3899994 .20687866 .3899994 .2855835M.31199647 .28459168C.31199647 .22395325 .2869873 .17671204 .22698975 .17671204 .15499878 .17671204 .1329956 .22366333 .1329956 .29257203 .1329956 .35849 .16299439 .40144349 .22099304 .40144349 .28599549 .40144349 .31199647 .35549928 .31199647 .28459168Z"/>
<path id="font_2_20" d="M.125 .27339173C.14199829 .3774414 .20748902 .39944459 .23899842 .39944459 .27848817 .39944459 .32299806 .36242677 .32299806 .2873993 .32299806 .2783966 .31900025 .27339173 .30899049 .27339173H.125M.3919983 .104278568C.35699464 .0662384 .30999757 .049224855 .25498963 .049224855 .22079468 .049224855 .17349243 .0622406 .1459961 .106277469 .12838745 .13439942 .12199402 .17524719 .12199402 .23339844H.3939972C.40499879 .23339844 .4119873 .23939514 .4119873 .25039674 .4119873 .33441163 .37098695 .43945313 .23899842 .43945313 .13598633 .43945313 .033996583 .35643006 .033996583 .20936585 .033996583 .15261841 .04548645 .096466068 .07899475 .056228639 .11338806 .014923096 .17059326-.009765625 .23799134-.009765625 .30999757-.009765625 .37399293 .02722168 .4119873 .07925415L.3919983 .104278568Z"/>
<path id="font_2_8" d="M.20899964 .029220581C.12998963 .029220581 .11898804 .059188844 .09199524 .117111209L.07699585 .116104129 .054992677 .04121399 .057998659 .038208009C.083999637 .016220093 .1269989-.009765625 .20698548-.009765625 .2919922-.009765625 .42599488 .048202516 .42599488 .1800232 .42599488 .25891114 .36499024 .3148651 .28799439 .32185365V.32685853C.33999635 .3388672 .4059906 .39698792 .4059906 .48014833 .4059906 .5523071 .34399415 .61035159 .24499512 .61035159 .16799927 .61035159 .11199951 .5763397 .08699036 .55430606L.083999637 .55130007 .10499573 .48716737 .11999512 .48616029C.14399719 .5422821 .17599488 .5713501 .23599243 .5713501 .2749939 .5713501 .31900025 .5302582 .31900025 .4651184 .31900025 .42103578 .3039856 .3889618 .2809906 .36691285 .26098634 .34788514 .23199463 .3388672 .19799805 .3388672 .18598938 .3388672 .1749878 .339859 .16099549 .34187318V.29786683C.17298889 .29986573 .19400025 .29986573 .20298767 .29986573 .23498535 .29986573 .272995 .2908783 .30099488 .26789857 .32699586 .2459259 .33999635 .21098328 .33999635 .17202759 .33999635 .051193239 .24499512 .029220581 .20899964 .029220581Z"/>
<path id="font_2_14" d="M.40699769 .64453127H.14698792C.11299133 .64453127 .09599304 .647522 .09599304 .647522L.09399414 .64453127C.101989749 .5875244 .10398865 .5194855 .10398865 .44444276V.199646C.10398865 .124801639 .101989749 .05393982 .09399414 .000061035159L.09498596-.0029296876C.09498596-.0029296876 .11199951 .000061035159 .14698792 .000061035159 .18099976 .000061035159 .19799805-.0029296876 .19799805-.0029296876L.19999695 .000061035159C.19198609 .0569458 .18998719 .124801639 .18998719 .199646V.31640626C.23799134 .31640626 .34399415 .31340028 .41299439 .306427L.41600038 .30941773C.4139862 .31840516 .41299439 .33239747 .41299439 .34140016 .41299439 .35040284 .4139862 .36439515 .41600038 .37339784L.41299439 .3764038C.35398866 .37139894 .30799867 .36639405 .18998719 .36639405V.44444276C.18998719 .4614563 .19099427 .56451418 .19799805 .58851626 .33198548 .58851626 .46998597 .5765228 .46998597 .5765228L.47200013 .58052065C.47099305 .58851626 .46998597 .6015167 .46998597 .6105194 .46998597 .6185303 .47099305 .6305237 .47200013 .64453127L.46998597 .647522C.45399476 .6455231 .43099977 .64453127 .40699769 .64453127Z"/>
<path id="font_2_17" d="M.30999757 .2253418 .30599977 .10626221C.30599977 .09326172 .2999878 .086257938 .2919922 .08024597 .2639923 .05923462 .22999573 .041229249 .19999695 .041229249 .15499878 .041229249 .12599182 .071243289 .12599182 .102264408 .12599182 .14729309 .14698792 .18132019 .22499085 .20233155L.30999757 .2253418M.3100891 .048233034C.32148744 .009124756 .35139466-.009765625 .3880005-.009765625 .41319276-.009765625 .44400025-.003768921 .46759034 .021224976L.46018983 .045928956C.44929505 .042129518 .4407959 .040725709 .43319703 .040725709 .42329408 .040725709 .4099884 .042633058 .40390016 .048233034 .39369203 .057540895 .38719178 .08175659 .38719178 .12628174 .38719178 .15530396 .3899994 .26635743 .3899994 .27737428 .3899994 .41244508 .30099488 .43945313 .22499085 .43945313 .14898682 .43945313 .102996829 .40245057 .07798767 .3814392L.07499695 .37742616 .09199524 .3103943 .10499573 .3093872C.1329956 .3544159 .16699219 .3944397 .21499634 .3944397 .25099183 .3944397 .31098939 .3894348 .31098939 .2763672 .31098939 .2693634 .30699159 .2653656 .3039856 .26435853L.21099854 .24334717C.10899353 .22033692 .04499817 .16630554 .04499817 .0982666 .04499817 .024230957 .09599304-.009765625 .16999817-.009765625 .22499085-.009765625 .25299073 .0032196046 .30599977 .048233034H.3100891Z"/>
<path id="font_2_18" d="M.25 .39944459C.28849793 .39944459 .32348634 .3709259 .34999085 .32540895L.36299134 .32640077 .38598634 .40844728 .38398744 .411438C.35299684 .42744447 .30099488 .43945313 .25099183 .43945313 .14698792 .43945313 .037994386 .3544159 .037994386 .21833802 .037994386 .07914734 .116989139-.009765625 .23899842-.009765625 .29899598-.009765625 .34599305 .010223389 .38598634 .06123352L.36698915 .08226013H.36299134C.32499696 .048233034 .29319764 .040222169 .2559967 .040222169 .18299866 .040222169 .12599182 .10626221 .12599182 .2233429 .12599182 .33340455 .18399048 .39944459 .25 .39944459Z"/>
<clipPath id="clip_10">
<path transform="matrix(1,0,0,-1,0,141.662)" d="M0 141.662H252V0H0Z"/>
</clipPath>
<clipPath id="clip_11">
<path transform="matrix(1,0,0,-1,0,141.662)" d="M0 141.662H252V0H0Z"/>
</clipPath>
<clipPath id="clip_12">
<path transform="matrix(1,0,0,-1,0,141.662)" d="M0 141.662H252V0H0Z"/>
</clipPath>
<clipPath id="clip_13">
<path transform="matrix(1,0,0,-1,0,141.662)" d="M0 141.662H252V0H0Z"/>
</clipPath>
<clipPath id="clip_14">
<path transform="matrix(1,0,0,-1,0,141.662)" d="M0 141.662H252V0H0Z"/>
</clipPath>
<clipPath id="clip_15">
<path transform="matrix(1,0,0,-1,0,141.662)" d="M0 141.662H252V0H0Z"/>
</clipPath>
</defs>
<g inkscape:groupmode="layer" inkscape:label="Layer 1">
<path transform="matrix(1,0,0,-1,33.3522,109.46561)" stroke-width="1" stroke-linecap="butt" stroke-miterlimit="10" stroke-linejoin="miter" fill="none" stroke="#808285" d="M0 0 15.298-21.037"/>
<path transform="matrix(1,0,0,-1,78.566,118.5242)" stroke-width="1" stroke-linecap="butt" stroke-miterlimit="10" stroke-linejoin="miter" fill="none" stroke="#808285" d="M0 0-29.916-11.978"/>
<g clip-path="url(#clip_1)">
<path transform="matrix(1,0,0,-1,49.6598,130.5025)" d="M0 0C0-.558-.452-1.01-1.01-1.01-1.567-1.01-2.02-.558-2.02 0-2.02 .558-1.567 1.01-1.01 1.01-.452 1.01 0 .558 0 0" fill="#808285"/>
<path transform="matrix(1,0,0,-1,49.6598,130.5025)" stroke-width="1" stroke-linecap="butt" stroke-miterlimit="10" stroke-linejoin="miter" fill="none" stroke="#808285" d="M0 0C0-.558-.452-1.01-1.01-1.01-1.567-1.01-2.02-.558-2.02 0-2.02 .558-1.567 1.01-1.01 1.01-.452 1.01 0 .558 0 0Z"/>
<path transform="matrix(1,0,0,-1,78.566,118.5242)" stroke-width="1" stroke-linecap="butt" stroke-miterlimit="10" stroke-linejoin="miter" fill="none" stroke="#808285" d="M0 0-8.246-13.688"/>
<path transform="matrix(1,0,0,-1,71.7516,131.5123)" d="M0 0C0-.558-.452-1.01-1.01-1.01-1.567-1.01-2.02-.558-2.02 0-2.02 .558-1.567 1.01-1.01 1.01-.452 1.01 0 .558 0 0" fill="#808285"/>
<path transform="matrix(1,0,0,-1,71.7516,131.5123)" stroke-width="1" stroke-linecap="butt" stroke-miterlimit="10" stroke-linejoin="miter" fill="none" stroke="#808285" d="M0 0C0-.558-.452-1.01-1.01-1.01-1.567-1.01-2.02-.558-2.02 0-2.02 .558-1.567 1.01-1.01 1.01-.452 1.01 0 .558 0 0Z"/>
<path transform="matrix(1,0,0,-1,60.8677,125.6106)" stroke-width="1" stroke-linecap="butt" stroke-miterlimit="10" stroke-linejoin="miter" fill="none" stroke="#808285" d="M0 0 9.523-6.188"/>
<path transform="matrix(1,0,0,-1,33.4561,109.2267)" stroke-width="1" stroke-linecap="butt" stroke-miterlimit="10" stroke-linejoin="miter" fill="none" stroke="#808285" d="M0 0 .644-.385"/>
<path transform="matrix(1,0,0,-1,35.3438,110.355)" stroke-width="1" stroke-linecap="butt" stroke-dasharray="1.449,1.449" stroke-miterlimit="10" stroke-linejoin="miter" fill="none" stroke="#808285" d="M0 0 24.258-14.499"/>
<path transform="matrix(1,0,0,-1,60.2239,125.2258)" stroke-width="1" stroke-linecap="butt" stroke-miterlimit="10" stroke-linejoin="miter" fill="none" stroke="#808285" d="M0 0 .644-.385"/>
<path transform="matrix(1,0,0,-1,34.0135,28.620903)" stroke-width="1" stroke-linecap="butt" stroke-miterlimit="10" stroke-linejoin="miter" fill="none" stroke="#231f20" d="M0 0H47.124"/>
<path transform="matrix(1,0,0,-1,35.0233,28.620903)" d="M0 0C0-.558-.452-1.01-1.01-1.01-1.568-1.01-2.02-.558-2.02 0-2.02 .558-1.568 1.01-1.01 1.01-.452 1.01 0 .558 0 0" fill="#231f20"/>
<path transform="matrix(1,0,0,-1,35.0233,28.620903)" stroke-width="1" stroke-linecap="butt" stroke-miterlimit="10" stroke-linejoin="miter" fill="none" stroke="#231f20" d="M0 0C0-.558-.452-1.01-1.01-1.01-1.568-1.01-2.02-.558-2.02 0-2.02 .558-1.568 1.01-1.01 1.01-.452 1.01 0 .558 0 0Z"/>
<path transform="matrix(1,0,0,-1,82.1087,28.620903)" d="M0 0C0-.558-.452-1.01-1.01-1.01-1.567-1.01-2.02-.558-2.02 0-2.02 .558-1.567 1.01-1.01 1.01-.452 1.01 0 .558 0 0" fill="#231f20"/>
<path transform="matrix(1,0,0,-1,82.1087,28.620903)" stroke-width="1" stroke-linecap="butt" stroke-miterlimit="10" stroke-linejoin="miter" fill="none" stroke="#231f20" d="M0 0C0-.558-.452-1.01-1.01-1.01-1.567-1.01-2.02-.558-2.02 0-2.02 .558-1.567 1.01-1.01 1.01-.452 1.01 0 .558 0 0Z"/>
<path transform="matrix(1,0,0,-1,52.3713,28.757302)" stroke-width="1" stroke-linecap="butt" stroke-miterlimit="10" stroke-linejoin="miter" fill="none" stroke="#231f20" d="M0 0V.5"/>
<path transform="matrix(1,0,0,-1,52.3713,27.271805)" stroke-width="1" stroke-linecap="butt" stroke-dasharray=".986,.986" stroke-miterlimit="10" stroke-linejoin="miter" fill="none" stroke="#231f20" d="M0 0V11.334"/>
<path transform="matrix(1,0,0,-1,52.3713,15.4449009)" stroke-width="1" stroke-linecap="butt" stroke-miterlimit="10" stroke-linejoin="miter" fill="none" stroke="#231f20" d="M0 0V.5"/>
<path transform="matrix(1,0,0,-1,52.3713,11.927399)" d="M0 0C.527-1.42 1.426-3.182 2.378-4.274L0-3.414-2.377-4.274C-1.425-3.182-.526-1.42 0 0" fill="#231f20"/>
<path transform="matrix(1,0,0,-1,53.0445,11.927307)" d="M0 0C0-.372-.301-.673-.673-.673-1.045-.673-1.346-.372-1.346 0-1.346 .372-1.045 .673-.673 .673-.301 .673 0 .372 0 0" fill="#ed1c24"/>
<path transform="matrix(1,0,0,-1,53.0445,11.927307)" stroke-width="1" stroke-linecap="butt" stroke-miterlimit="10" stroke-linejoin="miter" fill="none" stroke="#ed1c24" d="M0 0C0-.372-.301-.673-.673-.673-1.045-.673-1.346-.372-1.346 0-1.346 .372-1.045 .673-.673 .673-.301 .673 0 .372 0 0Z"/>
</g>
<use data-text="A" xlink:href="#font_2_9" transform="matrix(6.545,0,0,-6.545,26.7974,37.245508)"/>
<use data-text="(" xlink:href="#font_2_2" transform="matrix(6.545,0,0,-6.545,30.914204,37.245508)"/>
<use data-text="0" xlink:href="#font_2_5" transform="matrix(6.545,0,0,-6.545,32.877706,37.245508)"/>
<use data-text="," xlink:href="#font_2_4" transform="matrix(6.545,0,0,-6.545,35.92113,37.245508)"/>
<use data-text=" " xlink:href="#font_2_1" transform="matrix(6.545,0,0,-6.545,37.36103,37.245508)"/>
<use data-text="0" xlink:href="#font_2_5" transform="matrix(6.545,0,0,-6.545,38.99728,37.245508)"/>
<use data-text=")" xlink:href="#font_2_3" transform="matrix(6.545,0,0,-6.545,42.040708,37.245508)"/>
<use data-text="B" xlink:href="#font_2_10" transform="matrix(6.545,0,0,-6.545,75.16495,36.460107)"/>
<use data-text="(" xlink:href="#font_2_2" transform="matrix(6.545,0,0,-6.545,79.19667,36.460107)"/>
<use data-text="1" xlink:href="#font_2_6" transform="matrix(6.545,0,0,-6.545,81.16017,36.460107)"/>
<use data-text="," xlink:href="#font_2_4" transform="matrix(6.545,0,0,-6.545,84.2036,36.460107)"/>
<use data-text=" " xlink:href="#font_2_1" transform="matrix(6.545,0,0,-6.545,85.6435,36.460107)"/>
<use data-text="0" xlink:href="#font_2_5" transform="matrix(6.545,0,0,-6.545,87.279758,36.460107)"/>
<use data-text=")" xlink:href="#font_2_3" transform="matrix(6.545,0,0,-6.545,90.32318,36.460107)"/>
<use data-text="P" xlink:href="#font_2_15" transform="matrix(6.545,0,0,-6.545,42.597028,7.14505)" fill="#ed1c24"/>
<use data-text="(" xlink:href="#font_2_2" transform="matrix(6.545,0,0,-6.545,46.255685,7.14505)" fill="#ed1c24"/>
<use data-text="t" xlink:href="#font_2_22" transform="matrix(6.545,0,0,-6.545,48.219186,7.14505)" fill="#ed1c24"/>
<use data-text="," xlink:href="#font_2_4" transform="matrix(6.545,0,0,-6.545,50.444486,7.14505)" fill="#ed1c24"/>
<use data-text=" " xlink:href="#font_2_1" transform="matrix(6.545,0,0,-6.545,51.884386,7.14505)" fill="#ed1c24"/>
<use data-text="1" xlink:href="#font_2_6" transform="matrix(6.545,0,0,-6.545,53.520635,7.14505)" fill="#ed1c24"/>
<use data-text=")" xlink:href="#font_2_3" transform="matrix(6.545,0,0,-6.545,56.56406,7.14505)" fill="#ed1c24"/>
<g clip-path="url(#clip_3)">
<path transform="matrix(1,0,0,-1,53.0445,28.620903)" d="M0 0C0-.372-.301-.673-.673-.673-1.045-.673-1.346-.372-1.346 0-1.346 .372-1.045 .673-.673 .673-.301 .673 0 .372 0 0" fill="#00aeef"/>
<path transform="matrix(1,0,0,-1,53.0445,28.620903)" stroke-width="1" stroke-linecap="butt" stroke-miterlimit="10" stroke-linejoin="miter" fill="none" stroke="#00aeef" d="M0 0C0-.372-.301-.673-.673-.673-1.045-.673-1.346-.372-1.346 0-1.346 .372-1.045 .673-.673 .673-.301 .673 0 .372 0 0Z"/>
<path transform="matrix(1,0,0,-1,61.8627,59.4132)" stroke-width="1" stroke-linecap="butt" stroke-miterlimit="10" stroke-linejoin="miter" fill="none" stroke="#231f20" d="M0 0-28.427-13.814"/>
<path transform="matrix(1,0,0,-1,33.4361,73.2276)" stroke-width="1" stroke-linecap="butt" stroke-miterlimit="10" stroke-linejoin="miter" fill="none" stroke="#231f20" d="M0 0 41.732-8.794"/>
<path transform="matrix(1,0,0,-1,61.8627,59.4132)" stroke-width="1" stroke-linecap="butt" stroke-miterlimit="10" stroke-linejoin="miter" fill="none" stroke="#231f20" d="M0 0 13.305-22.608"/>
<path transform="matrix(1,0,0,-1,55.2011,56.454904)" stroke-width="1" stroke-linecap="butt" stroke-miterlimit="10" stroke-linejoin="miter" fill="none" stroke="#231f20" d="M0 0V-.5"/>
<path transform="matrix(1,0,0,-1,55.2011,57.9404)" stroke-width="1" stroke-linecap="butt" stroke-dasharray=".986,.986" stroke-miterlimit="10" stroke-linejoin="miter" fill="none" stroke="#231f20" d="M0 0V-11.334"/>
<path transform="matrix(1,0,0,-1,55.201,69.7673)" stroke-width="1" stroke-linecap="butt" stroke-miterlimit="10" stroke-linejoin="miter" fill="none" stroke="#231f20" d="M0 0V-.5"/>
<path transform="matrix(1,0,0,-1,55.2011,53.4373)" d="M0 0C-.527-1.42-1.426-3.182-2.378-4.274L0-3.414 2.377-4.274C1.425-3.182 .526-1.42 0 0" fill="#231f20"/>
<path transform="matrix(1,0,0,-1,55.8743,70.940509)" d="M0 0C0-.372-.301-.673-.673-.673-1.045-.673-1.346-.372-1.346 0-1.346 .372-1.045 .673-.673 .673-.301 .673 0 .372 0 0" fill="#00aeef"/>
<path transform="matrix(1,0,0,-1,55.8743,70.940509)" stroke-width="1" stroke-linecap="butt" stroke-miterlimit="10" stroke-linejoin="miter" fill="none" stroke="#00aeef" d="M0 0C0-.372-.301-.673-.673-.673-1.045-.673-1.346-.372-1.346 0-1.346 .372-1.045 .673-.673 .673-.301 .673 0 .372 0 0Z"/>
<path transform="matrix(1,0,0,-1,112.9636,28.190903)" stroke-width="1" stroke-linecap="butt" stroke-miterlimit="10" stroke-linejoin="miter" fill="none" stroke="#231f20" d="M0 0H47.124"/>
<path transform="matrix(1,0,0,-1,113.9734,28.190903)" d="M0 0C0-.558-.452-1.01-1.01-1.01-1.568-1.01-2.02-.558-2.02 0-2.02 .558-1.568 1.01-1.01 1.01-.452 1.01 0 .558 0 0" fill="#231f20"/>
<path transform="matrix(1,0,0,-1,113.9734,28.190903)" stroke-width="1" stroke-linecap="butt" stroke-miterlimit="10" stroke-linejoin="miter" fill="none" stroke="#231f20" d="M0 0C0-.558-.452-1.01-1.01-1.01-1.568-1.01-2.02-.558-2.02 0-2.02 .558-1.568 1.01-1.01 1.01-.452 1.01 0 .558 0 0Z"/>
<path transform="matrix(1,0,0,-1,161.0588,28.190903)" d="M0 0C0-.558-.452-1.01-1.01-1.01-1.568-1.01-2.02-.558-2.02 0-2.02 .558-1.568 1.01-1.01 1.01-.452 1.01 0 .558 0 0" fill="#231f20"/>
<path transform="matrix(1,0,0,-1,161.0588,28.190903)" stroke-width="1" stroke-linecap="butt" stroke-miterlimit="10" stroke-linejoin="miter" fill="none" stroke="#231f20" d="M0 0C0-.558-.452-1.01-1.01-1.01-1.568-1.01-2.02-.558-2.02 0-2.02 .558-1.568 1.01-1.01 1.01-.452 1.01 0 .558 0 0Z"/>
<path transform="matrix(1,0,0,-1,160.049,28.327301)" stroke-width="1" stroke-linecap="butt" stroke-miterlimit="10" stroke-linejoin="miter" fill="none" stroke="#231f20" d="M0 0V.5"/>
<path transform="matrix(1,0,0,-1,160.049,26.841706)" stroke-width="1" stroke-linecap="butt" stroke-dasharray=".986,.986" stroke-miterlimit="10" stroke-linejoin="miter" fill="none" stroke="#231f20" d="M0 0V11.334"/>
<path transform="matrix(1,0,0,-1,160.049,15.0149)" stroke-width="1" stroke-linecap="butt" stroke-miterlimit="10" stroke-linejoin="miter" fill="none" stroke="#231f20" d="M0 0V.5"/>
<path transform="matrix(1,0,0,-1,160.049,11.497299)" d="M0 0C.527-1.42 1.426-3.182 2.378-4.274L0-3.414-2.377-4.274C-1.425-3.182-.526-1.42 0 0" fill="#231f20"/>
<path transform="matrix(1,0,0,-1,160.7222,11.497299)" d="M0 0C0-.372-.301-.673-.673-.673-1.045-.673-1.346-.372-1.346 0-1.346 .372-1.045 .673-.673 .673-.301 .673 0 .372 0 0" fill="#ed1c24"/>
<path transform="matrix(1,0,0,-1,160.7222,11.497299)" stroke-width="1" stroke-linecap="butt" stroke-miterlimit="10" stroke-linejoin="miter" fill="none" stroke="#ed1c24" d="M0 0C0-.372-.301-.673-.673-.673-1.045-.673-1.346-.372-1.346 0-1.346 .372-1.045 .673-.673 .673-.301 .673 0 .372 0 0Z"/>
<path transform="matrix(1,0,0,-1,160.7608,28.1585)" d="M0 0C0-.372-.301-.673-.673-.673-1.045-.673-1.346-.372-1.346 0-1.346 .372-1.045 .673-.673 .673-.301 .673 0 .372 0 0" fill="#00aeef"/>
<path transform="matrix(1,0,0,-1,160.7608,28.1585)" stroke-width="1" stroke-linecap="butt" stroke-miterlimit="10" stroke-linejoin="miter" fill="none" stroke="#00aeef" d="M0 0C0-.372-.301-.673-.673-.673-1.045-.673-1.346-.372-1.346 0-1.346 .372-1.045 .673-.673 .673-.301 .673 0 .372 0 0Z"/>
<path transform="matrix(1,0,0,-1,183.1439,28.3592)" stroke-width="1" stroke-linecap="butt" stroke-miterlimit="10" stroke-linejoin="miter" fill="none" stroke="#231f20" d="M0 0H47.124"/>
<path transform="matrix(1,0,0,-1,184.1537,28.3592)" d="M0 0C0-.558-.452-1.01-1.01-1.01-1.568-1.01-2.02-.558-2.02 0-2.02 .558-1.568 1.01-1.01 1.01-.452 1.01 0 .558 0 0" fill="#231f20"/>
<path transform="matrix(1,0,0,-1,184.1537,28.3592)" stroke-width="1" stroke-linecap="butt" stroke-miterlimit="10" stroke-linejoin="miter" fill="none" stroke="#231f20" d="M0 0C0-.558-.452-1.01-1.01-1.01-1.568-1.01-2.02-.558-2.02 0-2.02 .558-1.568 1.01-1.01 1.01-.452 1.01 0 .558 0 0Z"/>
<path transform="matrix(1,0,0,-1,231.2391,28.3592)" d="M0 0C0-.558-.452-1.01-1.01-1.01-1.568-1.01-2.02-.558-2.02 0-2.02 .558-1.568 1.01-1.01 1.01-.452 1.01 0 .558 0 0" fill="#231f20"/>
<path transform="matrix(1,0,0,-1,231.2391,28.3592)" stroke-width="1" stroke-linecap="butt" stroke-miterlimit="10" stroke-linejoin="miter" fill="none" stroke="#231f20" d="M0 0C0-.558-.452-1.01-1.01-1.01-1.568-1.01-2.02-.558-2.02 0-2.02 .558-1.568 1.01-1.01 1.01-.452 1.01 0 .558 0 0Z"/>
<path transform="matrix(1,0,0,-1,230.2293,28.3592)" stroke-width="1" stroke-linecap="butt" stroke-miterlimit="10" stroke-linejoin="miter" fill="none" stroke="#231f20" d="M0 0 .383 .321"/>
<path transform="matrix(1,0,0,-1,231.4132,27.365906)" stroke-width="1" stroke-linecap="butt" stroke-dasharray="1.045,1.045" stroke-miterlimit="10" stroke-linejoin="miter" fill="none" stroke="#231f20" d="M0 0 15.617 13.103"/>
<path transform="matrix(1,0,0,-1,247.4302,13.926605)" stroke-width="1" stroke-linecap="butt" stroke-miterlimit="10" stroke-linejoin="miter" fill="none" stroke="#231f20" d="M0 0 .383 .321"/>
<path transform="matrix(1,0,0,-1,250.1249,11.665604)" d="M0 0C-.749-1.316-1.521-3.137-1.745-4.569L-2.615-2.194-4.802-.926C-3.353-.953-1.426-.509 0 0" fill="#231f20"/>
<path transform="matrix(1,0,0,-1,250.7981,11.665604)" d="M0 0C0-.372-.301-.673-.673-.673-1.045-.673-1.346-.372-1.346 0-1.346 .372-1.045 .673-.673 .673-.301 .673 0 .372 0 0" fill="#ed1c24"/>
<path transform="matrix(1,0,0,-1,250.7981,11.665604)" stroke-width="1" stroke-linecap="butt" stroke-miterlimit="10" stroke-linejoin="miter" fill="none" stroke="#ed1c24" d="M0 0C0-.372-.301-.673-.673-.673-1.045-.673-1.346-.372-1.346 0-1.346 .372-1.045 .673-.673 .673-.301 .673 0 .372 0 0Z"/>
<path transform="matrix(1,0,0,-1,230.8639,28.3592)" d="M0 0C0-.372-.301-.673-.673-.673-1.045-.673-1.346-.372-1.346 0-1.346 .372-1.045 .673-.673 .673-.301 .673 0 .372 0 0" fill="#00aeef"/>
<path transform="matrix(1,0,0,-1,230.8639,28.3592)" stroke-width="1" stroke-linecap="butt" stroke-miterlimit="10" stroke-linejoin="miter" fill="none" stroke="#00aeef" d="M0 0C0-.372-.301-.673-.673-.673-1.045-.673-1.346-.372-1.346 0-1.346 .372-1.045 .673-.673 .673-.301 .673 0 .372 0 0Z"/>
<path transform="matrix(1,0,0,-1,55.8743,53.4373)" d="M0 0C0-.372-.301-.673-.673-.673-1.045-.673-1.346-.372-1.346 0-1.346 .372-1.045 .673-.673 .673-.301 .673 0 .372 0 0" fill="#ed1c24"/>
<path transform="matrix(1,0,0,-1,55.8743,53.4373)" stroke-width="1" stroke-linecap="butt" stroke-miterlimit="10" stroke-linejoin="miter" fill="none" stroke="#ed1c24" d="M0 0C0-.372-.301-.673-.673-.673-1.045-.673-1.346-.372-1.346 0-1.346 .372-1.045 .673-.673 .673-.301 .673 0 .372 0 0Z"/>
</g>
<use data-text="P" xlink:href="#font_2_15" transform="matrix(6.545,0,0,-6.545,51.7632,50.799707)" fill="#ed1c24"/>
<g clip-path="url(#clip_4)">
<path transform="matrix(1,0,0,-1,34.4458,73.2276)" d="M0 0C0-.558-.452-1.01-1.01-1.01-1.568-1.01-2.02-.558-2.02 0-2.02 .558-1.568 1.01-1.01 1.01-.452 1.01 0 .558 0 0" fill="#231f20"/>
<path transform="matrix(1,0,0,-1,34.4458,73.2276)" stroke-width="1" stroke-linecap="butt" stroke-miterlimit="10" stroke-linejoin="miter" fill="none" stroke="#231f20" d="M0 0C0-.558-.452-1.01-1.01-1.01-1.568-1.01-2.02-.558-2.02 0-2.02 .558-1.568 1.01-1.01 1.01-.452 1.01 0 .558 0 0Z"/>
<path transform="matrix(1,0,0,-1,76.1774,82.0217)" d="M0 0C0-.558-.452-1.01-1.01-1.01-1.567-1.01-2.02-.558-2.02 0-2.02 .558-1.567 1.01-1.01 1.01-.452 1.01 0 .558 0 0" fill="#231f20"/>
<path transform="matrix(1,0,0,-1,76.1774,82.0217)" stroke-width="1" stroke-linecap="butt" stroke-miterlimit="10" stroke-linejoin="miter" fill="none" stroke="#231f20" d="M0 0C0-.558-.452-1.01-1.01-1.01-1.567-1.01-2.02-.558-2.02 0-2.02 .558-1.567 1.01-1.01 1.01-.452 1.01 0 .558 0 0Z"/>
<path transform="matrix(1,0,0,-1,62.8725,59.4132)" d="M0 0C0-.558-.452-1.01-1.01-1.01-1.567-1.01-2.02-.558-2.02 0-2.02 .558-1.567 1.01-1.01 1.01-.452 1.01 0 .558 0 0" fill="#231f20"/>
<path transform="matrix(1,0,0,-1,62.8725,59.4132)" stroke-width="1" stroke-linecap="butt" stroke-miterlimit="10" stroke-linejoin="miter" fill="none" stroke="#231f20" d="M0 0C0-.558-.452-1.01-1.01-1.01-1.567-1.01-2.02-.558-2.02 0-2.02 .558-1.567 1.01-1.01 1.01-.452 1.01 0 .558 0 0Z"/>
</g>
<use data-text="A" xlink:href="#font_2_9" transform="matrix(6.545,0,0,-6.545,28.7651,81.87981)"/>
<use data-text="B" xlink:href="#font_2_10" transform="matrix(6.545,0,0,-6.545,64.99168,61.852106)"/>
<use data-text="C" xlink:href="#font_2_11" transform="matrix(6.545,0,0,-6.545,77.32246,88.03865)"/>
<use data-text="Q" xlink:href="#font_2_16" transform="matrix(6.545,0,0,-6.545,55.15454,26.162217)" fill="#00aeef"/>
<use data-text="(" xlink:href="#font_2_2" transform="matrix(6.545,0,0,-6.545,60.004388,26.162217)" fill="#00aeef"/>
<use data-text="t" xlink:href="#font_2_22" transform="matrix(6.545,0,0,-6.545,61.967889,26.162217)" fill="#00aeef"/>
<use data-text="," xlink:href="#font_2_4" transform="matrix(6.545,0,0,-6.545,64.19319,26.162217)" fill="#00aeef"/>
<use data-text=" " xlink:href="#font_2_1" transform="matrix(6.545,0,0,-6.545,65.633098,26.162217)" fill="#00aeef"/>
<use data-text="0" xlink:href="#font_2_5" transform="matrix(6.545,0,0,-6.545,67.26935,26.162217)" fill="#00aeef"/>
<use data-text=")" xlink:href="#font_2_3" transform="matrix(6.545,0,0,-6.545,70.312778,26.162217)" fill="#00aeef"/>
<use data-text="Q" xlink:href="#font_2_16" transform="matrix(6.545,0,0,-6.545,56.777704,73.22731)" fill="#00aeef"/>
<g clip-path="url(#clip_5)">
<use data-text="P" xlink:href="#font_2_15" transform="matrix(6.545,0,0,-6.545,149.1221,6.20401)" fill="#ed1c24"/>
<use data-text="(" xlink:href="#font_2_2" transform="matrix(6.545,0,0,-6.545,152.78076,6.20401)" fill="#ed1c24"/>
<use data-text="1" xlink:href="#font_2_6" transform="matrix(6.545,0,0,-6.545,154.74427,6.20401)" fill="#ed1c24"/>
<use data-text="," xlink:href="#font_2_4" transform="matrix(6.545,0,0,-6.545,157.78769,6.20401)" fill="#ed1c24"/>
<use data-text=" " xlink:href="#font_2_1" transform="matrix(6.545,0,0,-6.545,159.22759,6.20401)" fill="#ed1c24"/>
<use data-text="1" xlink:href="#font_2_6" transform="matrix(6.545,0,0,-6.545,160.86383,6.20401)" fill="#ed1c24"/>
<use data-text=")" xlink:href="#font_2_3" transform="matrix(6.545,0,0,-6.545,163.90726,6.20401)" fill="#ed1c24"/>
</g>
<use data-text="Q" xlink:href="#font_2_16" transform="matrix(6.545,0,0,-6.545,139.7485,25.227402)" fill="#00aeef"/>
<use data-text="(" xlink:href="#font_2_2" transform="matrix(6.545,0,0,-6.545,144.59835,25.227402)" fill="#00aeef"/>
<use data-text="1" xlink:href="#font_2_6" transform="matrix(6.545,0,0,-6.545,146.56185,25.227402)" fill="#00aeef"/>
<use data-text="," xlink:href="#font_2_4" transform="matrix(6.545,0,0,-6.545,149.60527,25.227402)" fill="#00aeef"/>
<use data-text=" " xlink:href="#font_2_1" transform="matrix(6.545,0,0,-6.545,151.04517,25.227402)" fill="#00aeef"/>
<use data-text="0" xlink:href="#font_2_5" transform="matrix(6.545,0,0,-6.545,152.68141,25.227402)" fill="#00aeef"/>
<use data-text=")" xlink:href="#font_2_3" transform="matrix(6.545,0,0,-6.545,155.72484,25.227402)" fill="#00aeef"/>
<g clip-path="url(#clip_6)">
<use data-text="P" xlink:href="#font_2_15" transform="matrix(6.545,0,0,-6.545,232.3379,6.2044985)" fill="#ed1c24"/>
<use data-text="(" xlink:href="#font_2_2" transform="matrix(6.545,0,0,-6.545,235.99657,6.2044985)" fill="#ed1c24"/>
<use data-text="t" xlink:href="#font_2_22" transform="matrix(6.545,0,0,-6.545,237.96007,6.2044985)" fill="#ed1c24"/>
<use data-text="," xlink:href="#font_2_4" transform="matrix(6.545,0,0,-6.545,240.18537,6.2044985)" fill="#ed1c24"/>
<use data-text=" " xlink:href="#font_2_1" transform="matrix(6.545,0,0,-6.545,241.62526,6.2044985)" fill="#ed1c24"/>
<use data-text="1" xlink:href="#font_2_6" transform="matrix(6.545,0,0,-6.545,243.2615,6.2044985)" fill="#ed1c24"/>
<use data-text=")" xlink:href="#font_2_3" transform="matrix(6.545,0,0,-6.545,246.30493,6.2044985)" fill="#ed1c24"/>
<path transform="matrix(1,0,0,-1,145.1748,60.2621)" stroke-width="1" stroke-linecap="butt" stroke-miterlimit="10" stroke-linejoin="miter" fill="none" stroke="#231f20" d="M0 0-28.427-13.814"/>
<path transform="matrix(1,0,0,-1,116.7482,74.0765)" stroke-width="1" stroke-linecap="butt" stroke-miterlimit="10" stroke-linejoin="miter" fill="none" stroke="#231f20" d="M0 0 41.732-8.794"/>
<path transform="matrix(1,0,0,-1,145.1748,60.2621)" stroke-width="1" stroke-linecap="butt" stroke-miterlimit="10" stroke-linejoin="miter" fill="none" stroke="#231f20" d="M0 0 13.305-22.608"/>
<path transform="matrix(1,0,0,-1,128.1202,53.8543)" stroke-width="1" stroke-linecap="butt" stroke-miterlimit="10" stroke-linejoin="miter" fill="none" stroke="#231f20" d="M0 0V-.5"/>
<path transform="matrix(1,0,0,-1,128.1202,55.339906)" stroke-width="1" stroke-linecap="butt" stroke-dasharray=".986,.986" stroke-miterlimit="10" stroke-linejoin="miter" fill="none" stroke="#231f20" d="M0 0V-11.334"/>
<path transform="matrix(1,0,0,-1,128.1202,67.1667)" stroke-width="1" stroke-linecap="butt" stroke-miterlimit="10" stroke-linejoin="miter" fill="none" stroke="#231f20" d="M0 0V-.5"/>
<path transform="matrix(1,0,0,-1,128.1202,50.8367)" d="M0 0C-.527-1.42-1.426-3.182-2.378-4.274L0-3.414 2.377-4.274C1.425-3.182 .526-1.42 0 0" fill="#231f20"/>
<path transform="matrix(1,0,0,-1,128.7934,68.339908)" d="M0 0C0-.372-.301-.673-.673-.673-1.045-.673-1.346-.372-1.346 0-1.346 .372-1.045 .673-.673 .673-.301 .673 0 .372 0 0" fill="#00aeef"/>
<path transform="matrix(1,0,0,-1,128.7934,68.339908)" stroke-width="1" stroke-linecap="butt" stroke-miterlimit="10" stroke-linejoin="miter" fill="none" stroke="#00aeef" d="M0 0C0-.372-.301-.673-.673-.673-1.045-.673-1.346-.372-1.346 0-1.346 .372-1.045 .673-.673 .673-.301 .673 0 .372 0 0Z"/>
<path transform="matrix(1,0,0,-1,128.7934,50.8367)" d="M0 0C0-.372-.301-.673-.673-.673-1.045-.673-1.346-.372-1.346 0-1.346 .372-1.045 .673-.673 .673-.301 .673 0 .372 0 0" fill="#ed1c24"/>
<path transform="matrix(1,0,0,-1,128.7934,50.8367)" stroke-width="1" stroke-linecap="butt" stroke-miterlimit="10" stroke-linejoin="miter" fill="none" stroke="#ed1c24" d="M0 0C0-.372-.301-.673-.673-.673-1.045-.673-1.346-.372-1.346 0-1.346 .372-1.045 .673-.673 .673-.301 .673 0 .372 0 0Z"/>
</g>
<use data-text="P" xlink:href="#font_2_15" transform="matrix(6.545,0,0,-6.545,124.6821,48.199106)" fill="#ed1c24"/>
<g clip-path="url(#clip_7)">
<path transform="matrix(1,0,0,-1,117.758,74.0765)" d="M0 0C0-.558-.452-1.01-1.01-1.01-1.567-1.01-2.02-.558-2.02 0-2.02 .558-1.567 1.01-1.01 1.01-.452 1.01 0 .558 0 0" fill="#231f20"/>
<path transform="matrix(1,0,0,-1,117.758,74.0765)" stroke-width="1" stroke-linecap="butt" stroke-miterlimit="10" stroke-linejoin="miter" fill="none" stroke="#231f20" d="M0 0C0-.558-.452-1.01-1.01-1.01-1.567-1.01-2.02-.558-2.02 0-2.02 .558-1.567 1.01-1.01 1.01-.452 1.01 0 .558 0 0Z"/>
<path transform="matrix(1,0,0,-1,159.4896,82.870609)" d="M0 0C0-.558-.452-1.01-1.01-1.01-1.568-1.01-2.02-.558-2.02 0-2.02 .558-1.568 1.01-1.01 1.01-.452 1.01 0 .558 0 0" fill="#231f20"/>
<path transform="matrix(1,0,0,-1,159.4896,82.870609)" stroke-width="1" stroke-linecap="butt" stroke-miterlimit="10" stroke-linejoin="miter" fill="none" stroke="#231f20" d="M0 0C0-.558-.452-1.01-1.01-1.01-1.568-1.01-2.02-.558-2.02 0-2.02 .558-1.568 1.01-1.01 1.01-.452 1.01 0 .558 0 0Z"/>
<path transform="matrix(1,0,0,-1,146.1846,60.2621)" d="M0 0C0-.558-.452-1.01-1.01-1.01-1.567-1.01-2.02-.558-2.02 0-2.02 .558-1.567 1.01-1.01 1.01-.452 1.01 0 .558 0 0" fill="#231f20"/>
<path transform="matrix(1,0,0,-1,146.1846,60.2621)" stroke-width="1" stroke-linecap="butt" stroke-miterlimit="10" stroke-linejoin="miter" fill="none" stroke="#231f20" d="M0 0C0-.558-.452-1.01-1.01-1.01-1.567-1.01-2.02-.558-2.02 0-2.02 .558-1.567 1.01-1.01 1.01-.452 1.01 0 .558 0 0Z"/>
</g>
<use data-text="A" xlink:href="#font_2_9" transform="matrix(6.545,0,0,-6.545,112.0771,82.7294)"/>
<use data-text="B" xlink:href="#font_2_10" transform="matrix(6.545,0,0,-6.545,148.30368,62.701707)"/>
<use data-text="C" xlink:href="#font_2_11" transform="matrix(6.545,0,0,-6.545,160.63446,88.88825)"/>
<use data-text="Q" xlink:href="#font_2_16" transform="matrix(6.545,0,0,-6.545,130.95943,74.07692)" fill="#00aeef"/>
<g clip-path="url(#clip_8)">
<path transform="matrix(1,0,0,-1,221.1202,60.2621)" stroke-width="1" stroke-linecap="butt" stroke-miterlimit="10" stroke-linejoin="miter" fill="none" stroke="#231f20" d="M0 0-28.427-13.814"/>
<path transform="matrix(1,0,0,-1,192.6936,74.0764)" stroke-width="1" stroke-linecap="butt" stroke-miterlimit="10" stroke-linejoin="miter" fill="none" stroke="#231f20" d="M0 0 41.732-8.794"/>
<path transform="matrix(1,0,0,-1,221.1202,60.2621)" stroke-width="1" stroke-linecap="butt" stroke-miterlimit="10" stroke-linejoin="miter" fill="none" stroke="#231f20" d="M0 0 13.305-22.608"/>
<path transform="matrix(1,0,0,-1,194.9363,59.722)" stroke-width="1" stroke-linecap="butt" stroke-miterlimit="10" stroke-linejoin="miter" fill="none" stroke="#231f20" d="M0 0 .372-.335"/>
<path transform="matrix(1,0,0,-1,196.0159,60.6939)" stroke-width="1" stroke-linecap="butt" stroke-dasharray=".953,.953" stroke-miterlimit="10" stroke-linejoin="miter" fill="none" stroke="#231f20" d="M0 0 8.142-7.33"/>
<path transform="matrix(1,0,0,-1,204.5123,68.3425)" stroke-width="1" stroke-linecap="butt" stroke-miterlimit="10" stroke-linejoin="miter" fill="none" stroke="#231f20" d="M0 0 .372-.335"/>
<path transform="matrix(1,0,0,-1,192.6936,57.703004)" d="M0 0C.703-1.342 1.411-3.188 1.585-4.627L2.537-2.284 4.767-1.092C3.318-1.069 1.407-.559 0 0" fill="#231f20"/>
<path transform="matrix(1,0,0,-1,205.5571,68.152408)" d="M0 0C0-.372-.301-.673-.673-.673-1.045-.673-1.346-.372-1.346 0-1.346 .372-1.045 .673-.673 .673-.301 .673 0 .372 0 0" fill="#00aeef"/>
<path transform="matrix(1,0,0,-1,205.5571,68.152408)" stroke-width="1" stroke-linecap="butt" stroke-miterlimit="10" stroke-linejoin="miter" fill="none" stroke="#00aeef" d="M0 0C0-.372-.301-.673-.673-.673-1.045-.673-1.346-.372-1.346 0-1.346 .372-1.045 .673-.673 .673-.301 .673 0 .372 0 0Z"/>
<path transform="matrix(1,0,0,-1,193.7397,57.7761)" d="M0 0C0-.372-.301-.673-.673-.673-1.045-.673-1.346-.372-1.346 0-1.346 .372-1.045 .673-.673 .673-.301 .673 0 .372 0 0" fill="#ed1c24"/>
<path transform="matrix(1,0,0,-1,193.7397,57.7761)" stroke-width="1" stroke-linecap="butt" stroke-miterlimit="10" stroke-linejoin="miter" fill="none" stroke="#ed1c24" d="M0 0C0-.372-.301-.673-.673-.673-1.045-.673-1.346-.372-1.346 0-1.346 .372-1.045 .673-.673 .673-.301 .673 0 .372 0 0Z"/>
</g>
<use data-text="P" xlink:href="#font_2_15" transform="matrix(6.545,0,0,-6.545,189.6289,55.138605)" fill="#ed1c24"/>
<g clip-path="url(#clip_9)">
<path transform="matrix(1,0,0,-1,193.7034,74.0764)" d="M0 0C0-.558-.452-1.01-1.01-1.01-1.567-1.01-2.02-.558-2.02 0-2.02 .558-1.567 1.01-1.01 1.01-.452 1.01 0 .558 0 0" fill="#231f20"/>
<path transform="matrix(1,0,0,-1,193.7034,74.0764)" stroke-width="1" stroke-linecap="butt" stroke-miterlimit="10" stroke-linejoin="miter" fill="none" stroke="#231f20" d="M0 0C0-.558-.452-1.01-1.01-1.01-1.567-1.01-2.02-.558-2.02 0-2.02 .558-1.567 1.01-1.01 1.01-.452 1.01 0 .558 0 0Z"/>
<path transform="matrix(1,0,0,-1,235.435,82.8705)" d="M0 0C0-.558-.452-1.01-1.01-1.01-1.568-1.01-2.02-.558-2.02 0-2.02 .558-1.568 1.01-1.01 1.01-.452 1.01 0 .558 0 0" fill="#231f20"/>
<path transform="matrix(1,0,0,-1,235.435,82.8705)" stroke-width="1" stroke-linecap="butt" stroke-miterlimit="10" stroke-linejoin="miter" fill="none" stroke="#231f20" d="M0 0C0-.558-.452-1.01-1.01-1.01-1.568-1.01-2.02-.558-2.02 0-2.02 .558-1.568 1.01-1.01 1.01-.452 1.01 0 .558 0 0Z"/>
<path transform="matrix(1,0,0,-1,222.13,60.2621)" d="M0 0C0-.558-.452-1.01-1.01-1.01-1.567-1.01-2.02-.558-2.02 0-2.02 .558-1.567 1.01-1.01 1.01-.452 1.01 0 .558 0 0" fill="#231f20"/>
<path transform="matrix(1,0,0,-1,222.13,60.2621)" stroke-width="1" stroke-linecap="butt" stroke-miterlimit="10" stroke-linejoin="miter" fill="none" stroke="#231f20" d="M0 0C0-.558-.452-1.01-1.01-1.01-1.567-1.01-2.02-.558-2.02 0-2.02 .558-1.567 1.01-1.01 1.01-.452 1.01 0 .558 0 0Z"/>
</g>
<use data-text="A" xlink:href="#font_2_9" transform="matrix(6.545,0,0,-6.545,188.0225,82.7294)"/>
<use data-text="B" xlink:href="#font_2_10" transform="matrix(6.545,0,0,-6.545,224.24909,62.701707)"/>
<use data-text="C" xlink:href="#font_2_11" transform="matrix(6.545,0,0,-6.545,236.57987,88.88825)"/>
<use data-text="Q" xlink:href="#font_2_16" transform="matrix(6.545,0,0,-6.545,205.55657,74.30599)" fill="#00aeef"/>
<use data-text="Q" xlink:href="#font_2_16" transform="matrix(6.545,0,0,-6.545,212.33065,25.225037)" fill="#00aeef"/>
<use data-text="(" xlink:href="#font_2_2" transform="matrix(6.545,0,0,-6.545,217.18048,25.225037)" fill="#00aeef"/>
<use data-text="1" xlink:href="#font_2_6" transform="matrix(6.545,0,0,-6.545,219.14398,25.225037)" fill="#00aeef"/>
<use data-text="," xlink:href="#font_2_4" transform="matrix(6.545,0,0,-6.545,222.18741,25.225037)" fill="#00aeef"/>
<use data-text=" " xlink:href="#font_2_1" transform="matrix(6.545,0,0,-6.545,223.6273,25.225037)" fill="#00aeef"/>
<use data-text="0" xlink:href="#font_2_5" transform="matrix(6.545,0,0,-6.545,225.26355,25.225037)" fill="#00aeef"/>
<use data-text=")" xlink:href="#font_2_3" transform="matrix(6.545,0,0,-6.545,228.30698,25.225037)" fill="#00aeef"/>
<use data-text="A" xlink:href="#font_2_9" transform="matrix(6.545,0,0,-6.545,108.1277,35.913026)"/>
<use data-text="(" xlink:href="#font_2_2" transform="matrix(6.545,0,0,-6.545,112.24451,35.913026)"/>
<use data-text="0" xlink:href="#font_2_5" transform="matrix(6.545,0,0,-6.545,114.20801,35.913026)"/>
<use data-text="," xlink:href="#font_2_4" transform="matrix(6.545,0,0,-6.545,117.251438,35.913026)"/>
<use data-text=" " xlink:href="#font_2_1" transform="matrix(6.545,0,0,-6.545,118.69134,35.913026)"/>
<use data-text="0" xlink:href="#font_2_5" transform="matrix(6.545,0,0,-6.545,120.32759,35.913026)"/>
<use data-text=")" xlink:href="#font_2_3" transform="matrix(6.545,0,0,-6.545,123.37102,35.913026)"/>
<use data-text="B" xlink:href="#font_2_10" transform="matrix(6.545,0,0,-6.545,151.08254,35.127626)"/>
<use data-text="(" xlink:href="#font_2_2" transform="matrix(6.545,0,0,-6.545,155.11426,35.127626)"/>
<use data-text="1" xlink:href="#font_2_6" transform="matrix(6.545,0,0,-6.545,157.07776,35.127626)"/>
<use data-text="," xlink:href="#font_2_4" transform="matrix(6.545,0,0,-6.545,160.12119,35.127626)"/>
<use data-text=" " xlink:href="#font_2_1" transform="matrix(6.545,0,0,-6.545,161.56108,35.127626)"/>
<use data-text="0" xlink:href="#font_2_5" transform="matrix(6.545,0,0,-6.545,163.19733,35.127626)"/>
<use data-text=")" xlink:href="#font_2_3" transform="matrix(6.545,0,0,-6.545,166.24076,35.127626)"/>
<use data-text="A" xlink:href="#font_2_9" transform="matrix(6.545,0,0,-6.545,179.19332,35.913026)"/>
<use data-text="(" xlink:href="#font_2_2" transform="matrix(6.545,0,0,-6.545,183.31012,35.913026)"/>
<use data-text="0" xlink:href="#font_2_5" transform="matrix(6.545,0,0,-6.545,185.27362,35.913026)"/>
<use data-text="," xlink:href="#font_2_4" transform="matrix(6.545,0,0,-6.545,188.31705,35.913026)"/>
<use data-text=" " xlink:href="#font_2_1" transform="matrix(6.545,0,0,-6.545,189.75695,35.913026)"/>
<use data-text="0" xlink:href="#font_2_5" transform="matrix(6.545,0,0,-6.545,191.39319,35.913026)"/>
<use data-text=")" xlink:href="#font_2_3" transform="matrix(6.545,0,0,-6.545,194.43662,35.913026)"/>
<use data-text="B" xlink:href="#font_2_10" transform="matrix(6.545,0,0,-6.545,222.13506,35.520326)"/>
<use data-text="(" xlink:href="#font_2_2" transform="matrix(6.545,0,0,-6.545,226.16678,35.520326)"/>
<use data-text="1" xlink:href="#font_2_6" transform="matrix(6.545,0,0,-6.545,228.13028,35.520326)"/>
<use data-text="," xlink:href="#font_2_4" transform="matrix(6.545,0,0,-6.545,231.1737,35.520326)"/>
<use data-text=" " xlink:href="#font_2_1" transform="matrix(6.545,0,0,-6.545,232.6136,35.520326)"/>
<use data-text="0" xlink:href="#font_2_5" transform="matrix(6.545,0,0,-6.545,234.24985,35.520326)"/>
<use data-text=")" xlink:href="#font_2_3" transform="matrix(6.545,0,0,-6.545,237.29328,35.520326)"/>
<use data-text="2" xlink:href="#font_2_7" transform="matrix(6.545,0,0,-6.545,1.3852844,22.6594)"/>
<use data-text="D" xlink:href="#font_2_12" transform="matrix(6.545,0,0,-6.545,4.42871,22.6594)"/>
<use data-text=" " xlink:href="#font_2_1" transform="matrix(6.545,0,0,-6.545,9.075661,22.6594)"/>
<use data-text="E" xlink:href="#font_2_13" transform="matrix(6.545,0,0,-6.545,10.71191,22.6594)"/>
<use data-text="d" xlink:href="#font_2_19" transform="matrix(6.545,0,0,-6.545,14.233121,22.6594)"/>
<use data-text="g" xlink:href="#font_2_21" transform="matrix(6.545,0,0,-6.545,17.701972,22.6594)"/>
<use data-text="e" xlink:href="#font_2_20" transform="matrix(6.545,0,0,-6.545,20.967926,22.6594)"/>
<use data-text="3" xlink:href="#font_2_8" transform="matrix(6.545,0,0,-6.545,1.3852844,75.57573)"/>
<use data-text="D" xlink:href="#font_2_12" transform="matrix(6.545,0,0,-6.545,4.42871,75.57573)"/>
<use data-text=" " xlink:href="#font_2_1" transform="matrix(6.545,0,0,-6.545,9.075661,75.57573)"/>
<use data-text="F" xlink:href="#font_2_14" transform="matrix(6.545,0,0,-6.545,10.71191,75.57573)"/>
<use data-text="a" xlink:href="#font_2_17" transform="matrix(6.545,0,0,-6.545,14.010591,75.57573)"/>
<use data-text="c" xlink:href="#font_2_18" transform="matrix(6.545,0,0,-6.545,17.158736,75.57573)"/>
<use data-text="e" xlink:href="#font_2_20" transform="matrix(6.545,0,0,-6.545,19.966542,75.57573)"/>
<use data-text="3" xlink:href="#font_2_8" transform="matrix(6.545,0,0,-6.545,1.3852844,120.07518)"/>
<use data-text="D" xlink:href="#font_2_12" transform="matrix(6.545,0,0,-6.545,4.42871,120.07518)"/>
<use data-text=" " xlink:href="#font_2_1" transform="matrix(6.545,0,0,-6.545,9.075661,120.07518)"/>
<use data-text="E" xlink:href="#font_2_13" transform="matrix(6.545,0,0,-6.545,10.71191,120.07518)"/>
<use data-text="d" xlink:href="#font_2_19" transform="matrix(6.545,0,0,-6.545,14.233121,120.07518)"/>
<use data-text="g" xlink:href="#font_2_21" transform="matrix(6.545,0,0,-6.545,17.701972,120.07518)"/>
<use data-text="e" xlink:href="#font_2_20" transform="matrix(6.545,0,0,-6.545,20.967926,120.07518)"/>
<g clip-path="url(#clip_10)">
<path transform="matrix(1,0,0,-1,33.1052,109.5125)" stroke-width="1" stroke-linecap="butt" stroke-miterlimit="10" stroke-linejoin="miter" fill="none" stroke="#231f20" d="M0 0 46.545-9.227"/>
<path transform="matrix(1,0,0,-1,34.115,109.5125)" d="M0 0C0-.558-.452-1.01-1.01-1.01-1.568-1.01-2.02-.558-2.02 0-2.02 .558-1.568 1.01-1.01 1.01-.452 1.01 0 .558 0 0" fill="#231f20"/>
<path transform="matrix(1,0,0,-1,34.115,109.5125)" stroke-width="1" stroke-linecap="butt" stroke-miterlimit="10" stroke-linejoin="miter" fill="none" stroke="#231f20" d="M0 0C0-.558-.452-1.01-1.01-1.01-1.568-1.01-2.02-.558-2.02 0-2.02 .558-1.568 1.01-1.01 1.01-.452 1.01 0 .558 0 0Z"/>
<path transform="matrix(1,0,0,-1,79.5758,118.5242)" d="M0 0C0-.558-.452-1.01-1.01-1.01-1.567-1.01-2.02-.558-2.02 0-2.02 .558-1.567 1.01-1.01 1.01-.452 1.01 0 .558 0 0" fill="#231f20"/>
<path transform="matrix(1,0,0,-1,79.5758,118.5242)" stroke-width="1" stroke-linecap="butt" stroke-miterlimit="10" stroke-linejoin="miter" fill="none" stroke="#231f20" d="M0 0C0-.558-.452-1.01-1.01-1.01-1.567-1.01-2.02-.558-2.02 0-2.02 .558-1.567 1.01-1.01 1.01-.452 1.01 0 .558 0 0Z"/>
<path transform="matrix(1,0,0,-1,60.9276,114.5182)" stroke-width="1" stroke-linecap="butt" stroke-miterlimit="10" stroke-linejoin="miter" fill="none" stroke="#231f20" d="M0 0 .067 .495"/>
<path transform="matrix(1,0,0,-1,61.1364,112.9764)" stroke-width="1" stroke-linecap="butt" stroke-dasharray="1.056,1.056" stroke-miterlimit="10" stroke-linejoin="miter" fill="none" stroke="#231f20" d="M0 0 1.063 7.847"/>
<path transform="matrix(1,0,0,-1,62.27,104.605808)" stroke-width="1" stroke-linecap="butt" stroke-miterlimit="10" stroke-linejoin="miter" fill="none" stroke="#231f20" d="M0 0 .067 .495"/>
<path transform="matrix(1,0,0,-1,62.7421,101.1201)" d="M0 0C.332-1.478 .986-3.344 1.783-4.554L-.458-3.383-2.929-3.916C-1.839-2.962-.712-1.336 0 0" fill="#231f20"/>
<path transform="matrix(1,0,0,-1,63.4153,101.1201)" d="M0 0C0-.372-.301-.673-.673-.673-1.045-.673-1.346-.372-1.346 0-1.346 .372-1.045 .673-.673 .673-.301 .673 0 .372 0 0" fill="#ed1c24"/>
<path transform="matrix(1,0,0,-1,63.4153,101.1201)" stroke-width="1" stroke-linecap="butt" stroke-miterlimit="10" stroke-linejoin="miter" fill="none" stroke="#ed1c24" d="M0 0C0-.372-.301-.673-.673-.673-1.045-.673-1.346-.372-1.346 0-1.346 .372-1.045 .673-.673 .673-.301 .673 0 .372 0 0Z"/>
</g>
<use data-text="P" xlink:href="#font_2_15" transform="matrix(6.545,0,0,-6.545,61.7324,97.7499)" fill="#ed1c24"/>
<use data-text="A" xlink:href="#font_2_9" transform="matrix(6.545,0,0,-6.545,30.277127,106.5202)"/>
<use data-text="B" xlink:href="#font_2_10" transform="matrix(6.545,0,0,-6.545,81.465579,117.5158)"/>
<use data-text="C" xlink:href="#font_2_11" transform="matrix(6.545,0,0,-6.545,46.142213,137.3537)"/>
<use data-text="D" xlink:href="#font_2_12" transform="matrix(6.545,0,0,-6.545,71.746257,137.3537)"/>
<g clip-path="url(#clip_11)">
<path transform="matrix(1,0,0,-1,61.3957,115.1597)" d="M0 0C0-.372-.301-.673-.673-.673-1.045-.673-1.346-.372-1.346 0-1.346 .372-1.045 .673-.673 .673-.301 .673 0 .372 0 0" fill="#00aeef"/>
<path transform="matrix(1,0,0,-1,61.3957,115.1597)" stroke-width="1" stroke-linecap="butt" stroke-miterlimit="10" stroke-linejoin="miter" fill="none" stroke="#00aeef" d="M0 0C0-.372-.301-.673-.673-.673-1.045-.673-1.346-.372-1.346 0-1.346 .372-1.045 .673-.673 .673-.301 .673 0 .372 0 0Z"/>
</g>
<use data-text="Q" xlink:href="#font_2_16" transform="matrix(6.545,0,0,-6.545,63.6084,113.2733)" fill="#00aeef"/>
<g clip-path="url(#clip_12)">
<path transform="matrix(1,0,0,-1,113.762,109.428)" stroke-width="1" stroke-linecap="butt" stroke-miterlimit="10" stroke-linejoin="miter" fill="none" stroke="#808285" d="M0 0 15.298-21.037"/>
<path transform="matrix(1,0,0,-1,158.9758,118.4866)" stroke-width="1" stroke-linecap="butt" stroke-miterlimit="10" stroke-linejoin="miter" fill="none" stroke="#808285" d="M0 0-29.916-11.978"/>
<path transform="matrix(1,0,0,-1,130.0696,130.4649)" d="M0 0C0-.558-.452-1.01-1.01-1.01-1.568-1.01-2.02-.558-2.02 0-2.02 .558-1.568 1.01-1.01 1.01-.452 1.01 0 .558 0 0" fill="#808285"/>
<path transform="matrix(1,0,0,-1,130.0696,130.4649)" stroke-width="1" stroke-linecap="butt" stroke-miterlimit="10" stroke-linejoin="miter" fill="none" stroke="#808285" d="M0 0C0-.558-.452-1.01-1.01-1.01-1.568-1.01-2.02-.558-2.02 0-2.02 .558-1.568 1.01-1.01 1.01-.452 1.01 0 .558 0 0Z"/>
<path transform="matrix(1,0,0,-1,158.9758,118.4866)" stroke-width="1" stroke-linecap="butt" stroke-miterlimit="10" stroke-linejoin="miter" fill="none" stroke="#808285" d="M0 0-8.246-13.688"/>
<path transform="matrix(1,0,0,-1,152.1615,131.4747)" d="M0 0C0-.558-.452-1.01-1.01-1.01-1.568-1.01-2.02-.558-2.02 0-2.02 .558-1.568 1.01-1.01 1.01-.452 1.01 0 .558 0 0" fill="#808285"/>
<path transform="matrix(1,0,0,-1,152.1615,131.4747)" stroke-width="1" stroke-linecap="butt" stroke-miterlimit="10" stroke-linejoin="miter" fill="none" stroke="#808285" d="M0 0C0-.558-.452-1.01-1.01-1.01-1.568-1.01-2.02-.558-2.02 0-2.02 .558-1.568 1.01-1.01 1.01-.452 1.01 0 .558 0 0Z"/>
<path transform="matrix(1,0,0,-1,141.2775,125.573)" stroke-width="1" stroke-linecap="butt" stroke-miterlimit="10" stroke-linejoin="miter" fill="none" stroke="#808285" d="M0 0 9.523-6.188"/>
<path transform="matrix(1,0,0,-1,113.8659,109.1891)" stroke-width="1" stroke-linecap="butt" stroke-miterlimit="10" stroke-linejoin="miter" fill="none" stroke="#808285" d="M0 0 .644-.385"/>
<path transform="matrix(1,0,0,-1,115.7537,110.3174)" stroke-width="1" stroke-linecap="butt" stroke-dasharray="1.449,1.449" stroke-miterlimit="10" stroke-linejoin="miter" fill="none" stroke="#808285" d="M0 0 24.258-14.499"/>
<path transform="matrix(1,0,0,-1,140.6338,125.1882)" stroke-width="1" stroke-linecap="butt" stroke-miterlimit="10" stroke-linejoin="miter" fill="none" stroke="#808285" d="M0 0 .644-.385"/>
<path transform="matrix(1,0,0,-1,113.515,109.4749)" stroke-width="1" stroke-linecap="butt" stroke-miterlimit="10" stroke-linejoin="miter" fill="none" stroke="#231f20" d="M0 0 46.545-9.227"/>
<path transform="matrix(1,0,0,-1,114.5248,109.4749)" d="M0 0C0-.558-.452-1.01-1.01-1.01-1.568-1.01-2.02-.558-2.02 0-2.02 .558-1.568 1.01-1.01 1.01-.452 1.01 0 .558 0 0" fill="#231f20"/>
<path transform="matrix(1,0,0,-1,114.5248,109.4749)" stroke-width="1" stroke-linecap="butt" stroke-miterlimit="10" stroke-linejoin="miter" fill="none" stroke="#231f20" d="M0 0C0-.558-.452-1.01-1.01-1.01-1.568-1.01-2.02-.558-2.02 0-2.02 .558-1.568 1.01-1.01 1.01-.452 1.01 0 .558 0 0Z"/>
<path transform="matrix(1,0,0,-1,159.9856,118.4866)" d="M0 0C0-.558-.452-1.01-1.01-1.01-1.568-1.01-2.02-.558-2.02 0-2.02 .558-1.568 1.01-1.01 1.01-.452 1.01 0 .558 0 0" fill="#231f20"/>
<path transform="matrix(1,0,0,-1,159.9856,118.4866)" stroke-width="1" stroke-linecap="butt" stroke-miterlimit="10" stroke-linejoin="miter" fill="none" stroke="#231f20" d="M0 0C0-.558-.452-1.01-1.01-1.01-1.568-1.01-2.02-.558-2.02 0-2.02 .558-1.568 1.01-1.01 1.01-.452 1.01 0 .558 0 0Z"/>
<path transform="matrix(1,0,0,-1,159.0784,118.5242)" stroke-width="1" stroke-linecap="butt" stroke-miterlimit="10" stroke-linejoin="miter" fill="none" stroke="#231f20" d="M0 0 .067 .495"/>
<path transform="matrix(1,0,0,-1,159.2872,116.98241)" stroke-width="1" stroke-linecap="butt" stroke-dasharray="1.056,1.056" stroke-miterlimit="10" stroke-linejoin="miter" fill="none" stroke="#231f20" d="M0 0 1.063 7.847"/>
<path transform="matrix(1,0,0,-1,160.4208,108.61191)" stroke-width="1" stroke-linecap="butt" stroke-miterlimit="10" stroke-linejoin="miter" fill="none" stroke="#231f20" d="M0 0 .067 .495"/>
<path transform="matrix(1,0,0,-1,160.8928,105.1261)" d="M0 0C.332-1.478 .986-3.344 1.783-4.554L-.458-3.383-2.929-3.916C-1.839-2.962-.712-1.336 0 0" fill="#231f20"/>
<path transform="matrix(1,0,0,-1,161.566,105.1261)" d="M0 0C0-.372-.301-.673-.673-.673-1.045-.673-1.346-.372-1.346 0-1.346 .372-1.045 .673-.673 .673-.301 .673 0 .372 0 0" fill="#ed1c24"/>
<path transform="matrix(1,0,0,-1,161.566,105.1261)" stroke-width="1" stroke-linecap="butt" stroke-miterlimit="10" stroke-linejoin="miter" fill="none" stroke="#ed1c24" d="M0 0C0-.372-.301-.673-.673-.673-1.045-.673-1.346-.372-1.346 0-1.346 .372-1.045 .673-.673 .673-.301 .673 0 .372 0 0Z"/>
</g>
<use data-text="P" xlink:href="#font_2_15" transform="matrix(6.545,0,0,-6.545,158.9756,102.0419)" fill="#ed1c24"/>
<use data-text="A" xlink:href="#font_2_9" transform="matrix(6.545,0,0,-6.545,110.69314,106.479419)"/>
<use data-text="B" xlink:href="#font_2_10" transform="matrix(6.545,0,0,-6.545,161.39725,116.984149)"/>
<use data-text="C" xlink:href="#font_2_11" transform="matrix(6.545,0,0,-6.545,126.55821,137.31291)"/>
<use data-text="D" xlink:href="#font_2_12" transform="matrix(6.545,0,0,-6.545,152.16225,137.31291)"/>
<g clip-path="url(#clip_13)">
<path transform="matrix(1,0,0,-1,159.649,118.4866)" d="M0 0C0-.372-.301-.673-.673-.673-1.045-.673-1.346-.372-1.346 0-1.346 .372-1.045 .673-.673 .673-.301 .673 0 .372 0 0" fill="#00aeef"/>
<path transform="matrix(1,0,0,-1,159.649,118.4866)" stroke-width="1" stroke-linecap="butt" stroke-miterlimit="10" stroke-linejoin="miter" fill="none" stroke="#00aeef" d="M0 0C0-.372-.301-.673-.673-.673-1.045-.673-1.346-.372-1.346 0-1.346 .372-1.045 .673-.673 .673-.301 .673 0 .372 0 0Z"/>
</g>
<use data-text="Q" xlink:href="#font_2_16" transform="matrix(6.545,0,0,-6.545,161.0557,123.247)" fill="#00aeef"/>
<g clip-path="url(#clip_14)">
<path transform="matrix(1,0,0,-1,190.1526,109.29491)" stroke-width="1" stroke-linecap="butt" stroke-miterlimit="10" stroke-linejoin="miter" fill="none" stroke="#808285" d="M0 0 15.298-21.037"/>
<path transform="matrix(1,0,0,-1,235.3664,118.35361)" stroke-width="1" stroke-linecap="butt" stroke-miterlimit="10" stroke-linejoin="miter" fill="none" stroke="#808285" d="M0 0-29.916-11.978"/>
<path transform="matrix(1,0,0,-1,206.4602,130.33191)" d="M0 0C0-.558-.452-1.01-1.01-1.01-1.568-1.01-2.02-.558-2.02 0-2.02 .558-1.568 1.01-1.01 1.01-.452 1.01 0 .558 0 0" fill="#808285"/>
<path transform="matrix(1,0,0,-1,206.4602,130.33191)" stroke-width="1" stroke-linecap="butt" stroke-miterlimit="10" stroke-linejoin="miter" fill="none" stroke="#808285" d="M0 0C0-.558-.452-1.01-1.01-1.01-1.568-1.01-2.02-.558-2.02 0-2.02 .558-1.568 1.01-1.01 1.01-.452 1.01 0 .558 0 0Z"/>
<path transform="matrix(1,0,0,-1,235.3664,118.35361)" stroke-width="1" stroke-linecap="butt" stroke-miterlimit="10" stroke-linejoin="miter" fill="none" stroke="#808285" d="M0 0-8.246-13.688"/>
<path transform="matrix(1,0,0,-1,228.552,131.3417)" d="M0 0C0-.558-.452-1.01-1.01-1.01-1.568-1.01-2.02-.558-2.02 0-2.02 .558-1.568 1.01-1.01 1.01-.452 1.01 0 .558 0 0" fill="#808285"/>
<path transform="matrix(1,0,0,-1,228.552,131.3417)" stroke-width="1" stroke-linecap="butt" stroke-miterlimit="10" stroke-linejoin="miter" fill="none" stroke="#808285" d="M0 0C0-.558-.452-1.01-1.01-1.01-1.568-1.01-2.02-.558-2.02 0-2.02 .558-1.568 1.01-1.01 1.01-.452 1.01 0 .558 0 0Z"/>
<path transform="matrix(1,0,0,-1,217.6681,125.4399)" stroke-width="1" stroke-linecap="butt" stroke-miterlimit="10" stroke-linejoin="miter" fill="none" stroke="#808285" d="M0 0 9.523-6.188"/>
<path transform="matrix(1,0,0,-1,190.2564,109.056)" stroke-width="1" stroke-linecap="butt" stroke-miterlimit="10" stroke-linejoin="miter" fill="none" stroke="#808285" d="M0 0 .644-.385"/>
<path transform="matrix(1,0,0,-1,192.1442,110.1843)" stroke-width="1" stroke-linecap="butt" stroke-dasharray="1.449,1.449" stroke-miterlimit="10" stroke-linejoin="miter" fill="none" stroke="#808285" d="M0 0 24.258-14.499"/>
<path transform="matrix(1,0,0,-1,217.0243,125.0551)" stroke-width="1" stroke-linecap="butt" stroke-miterlimit="10" stroke-linejoin="miter" fill="none" stroke="#808285" d="M0 0 .644-.385"/>
<path transform="matrix(1,0,0,-1,189.9056,109.3418)" stroke-width="1" stroke-linecap="butt" stroke-miterlimit="10" stroke-linejoin="miter" fill="none" stroke="#231f20" d="M0 0 46.545-9.227"/>
<path transform="matrix(1,0,0,-1,190.9154,109.3418)" d="M0 0C0-.558-.452-1.01-1.01-1.01-1.567-1.01-2.02-.558-2.02 0-2.02 .558-1.567 1.01-1.01 1.01-.452 1.01 0 .558 0 0" fill="#231f20"/>
<path transform="matrix(1,0,0,-1,190.9154,109.3418)" stroke-width="1" stroke-linecap="butt" stroke-miterlimit="10" stroke-linejoin="miter" fill="none" stroke="#231f20" d="M0 0C0-.558-.452-1.01-1.01-1.01-1.567-1.01-2.02-.558-2.02 0-2.02 .558-1.567 1.01-1.01 1.01-.452 1.01 0 .558 0 0Z"/>
<path transform="matrix(1,0,0,-1,236.3762,118.35361)" d="M0 0C0-.558-.452-1.01-1.01-1.01-1.568-1.01-2.02-.558-2.02 0-2.02 .558-1.568 1.01-1.01 1.01-.452 1.01 0 .558 0 0" fill="#231f20"/>
<path transform="matrix(1,0,0,-1,236.3762,118.35361)" stroke-width="1" stroke-linecap="butt" stroke-miterlimit="10" stroke-linejoin="miter" fill="none" stroke="#231f20" d="M0 0C0-.558-.452-1.01-1.01-1.01-1.568-1.01-2.02-.558-2.02 0-2.02 .558-1.568 1.01-1.01 1.01-.452 1.01 0 .558 0 0Z"/>
<path transform="matrix(1,0,0,-1,235.4689,118.5242)" stroke-width="1" stroke-linecap="butt" stroke-miterlimit="10" stroke-linejoin="miter" fill="none" stroke="#231f20" d="M0 0 .412 .283"/>
<path transform="matrix(1,0,0,-1,236.7147,117.6677)" stroke-width="1" stroke-linecap="butt" stroke-dasharray="1.012,1.012" stroke-miterlimit="10" stroke-linejoin="miter" fill="none" stroke="#231f20" d="M0 0 9.588 6.592"/>
<path transform="matrix(1,0,0,-1,246.7198,110.788707)" stroke-width="1" stroke-linecap="butt" stroke-miterlimit="10" stroke-linejoin="miter" fill="none" stroke="#231f20" d="M0 0 .412 .283"/>
<path transform="matrix(1,0,0,-1,249.6184,108.79581)" d="M0 0C-.872-1.239-1.814-2.977-2.174-4.381L-2.813-1.934-4.869-.462C-3.429-.628-1.468-.371 0 0" fill="#231f20"/>
<path transform="matrix(1,0,0,-1,250.3781,108.736408)" d="M0 0C0-.372-.301-.673-.673-.673-1.045-.673-1.346-.372-1.346 0-1.346 .372-1.045 .673-.673 .673-.301 .673 0 .372 0 0" fill="#ed1c24"/>
<path transform="matrix(1,0,0,-1,250.3781,108.736408)" stroke-width="1" stroke-linecap="butt" stroke-miterlimit="10" stroke-linejoin="miter" fill="none" stroke="#ed1c24" d="M0 0C0-.372-.301-.673-.673-.673-1.045-.673-1.346-.372-1.346 0-1.346 .372-1.045 .673-.673 .673-.301 .673 0 .372 0 0Z"/>
</g>
<use data-text="P" xlink:href="#font_2_15" transform="matrix(6.545,0,0,-6.545,244.4951,107.9716)" fill="#ed1c24"/>
<use data-text="A" xlink:href="#font_2_9" transform="matrix(6.545,0,0,-6.545,187.08237,106.34844)"/>
<use data-text="B" xlink:href="#font_2_10" transform="matrix(6.545,0,0,-6.545,237.40033,125.68237)"/>
<use data-text="C" xlink:href="#font_2_11" transform="matrix(6.545,0,0,-6.545,202.94745,137.18848)"/>
<use data-text="D" xlink:href="#font_2_12" transform="matrix(6.545,0,0,-6.545,228.55149,137.18848)"/>
<g clip-path="url(#clip_15)">
<path transform="matrix(1,0,0,-1,236.0396,118.35361)" d="M0 0C0-.372-.301-.673-.673-.673-1.045-.673-1.346-.372-1.346 0-1.346 .372-1.045 .673-.673 .673-.301 .673 0 .372 0 0" fill="#00aeef"/>
<path transform="matrix(1,0,0,-1,236.0396,118.35361)" stroke-width="1" stroke-linecap="butt" stroke-miterlimit="10" stroke-linejoin="miter" fill="none" stroke="#00aeef" d="M0 0C0-.372-.301-.673-.673-.673-1.045-.673-1.346-.372-1.346 0-1.346 .372-1.045 .673-.673 .673-.301 .673 0 .372 0 0Z"/>
</g>
<use data-text="Q" xlink:href="#font_2_16" transform="matrix(6.545,0,0,-6.545,231.6797,114.3163)" fill="#00aeef"/>
</g>
</svg>
