<svg xmlns="http://www.w3.org/2000/svg" xmlns:xlink="http://www.w3.org/1999/xlink" xmlns:inkscape="http://www.inkscape.org/namespaces/inkscape" version="1.1" width="252" height="71.479" viewBox="0 0 252 71.479">
<defs>
<clipPath id="clip_1">
<path transform="matrix(1,0,0,-1,0,71.479)" d="M47.69 30.118H61.69V37.658H47.69Z"/>
</clipPath>
<clipPath id="clip_2">
<path transform="matrix(1,0,0,-1,0,71.479)" d="M0 71.479H252V0H0Z"/>
</clipPath>
<clipPath id="clip_3">
<path transform="matrix(1,0,0,-1,0,71.479)" d="M53.824 15.428H68.219V22.968H53.824Z"/>
</clipPath>
<clipPath id="clip_4">
<path transform="matrix(1,0,0,-1,0,71.479)" d="M0 71.479H252V0H0Z"/>
</clipPath>
<clipPath id="clip_5">
<path transform="matrix(1,0,0,-1,0,71.479)" d="M30.3868 42.7517H30.3869V42.7518H30.3868Z"/>
</clipPath>
<clipPath id="clip_6">
<path transform="matrix(1,0,0,-1,0,71.479)" d="M130.009 28.546H144.009V36.086H130.009Z"/>
</clipPath>
<clipPath id="clip_7">
<path transform="matrix(1,0,0,-1,0,71.479)" d="M0 71.479H252V0H0Z"/>
</clipPath>
<clipPath id="clip_8">
<path transform="matrix(1,0,0,-1,0,71.479)" d="M134.113 16.331H148.50801V23.870999H134.113Z"/>
</clipPath>
<clipPath id="clip_9">
<path transform="matrix(1,0,0,-1,0,71.479)" d="M0 71.479H252V0H0Z"/>
</clipPath>
<clipPath id="clip_10">
<path transform="matrix(1,0,0,-1,0,71.479)" d="M109.058 44.0251V44.0251 44.0252Z"/>
</clipPath>
<path id="font_11_1" d="M.04399109 .2519989C.04399109 .20698548 .04798889-.024002076 .2559967-.20401001L.2789917-.18701172C.24598694-.14900208 .1269989-.011001587 .1269989 .2519989 .1269989 .5149994 .24699402 .6529999 .2789917 .68899539L.2559967 .70700076C.13699341 .6049957 .04399109 .43798829 .04399109 .2519989Z"/>
<path id="font_11_3" d="M.4072876 .27592469C.3742981 .27442933 .33268739 .2734375 .30299378 .2734375 .27409364 .2734375 .22059632 .27513124 .19859314 .2763214L.3039856 .52207949H.30599977C.34709168 .42773438 .38038636 .34558106 .4072876 .27592469M.1789856 .22872925C.20399475 .23042298 .27349855 .23143006 .30799867 .23143006 .34599305 .23143006 .40098573 .23042298 .42529298 .22872925 .47428895 .09741211 .4968872 .019302369 .5029907-.0029296876 .519989 .000061035159 .5359955 .000061035159 .5529938 .000061035159 .56999209 .000061035159 .59599307 .000061035159 .61299136-.0029296876 .5629883 .098220828 .43099977 .43933106 .33898927 .6582031H.31098939C.21499634 .43632508 .116989139 .2184143 .015991211-.0029296876 .027999878 .000061035159 .039993287 .000061035159 .050994874 .000061035159 .06199646 .000061035159 .083999637 .000061035159 .09599304-.0029296876 .11239624 .05845642 .14329529 .14108277 .1789856 .22872925Z"/>
<path id="font_11_2" d="M.2559967 .2519989C.2559967 .29699708 .2519989 .5279999 .04399109 .70799258L.020996094 .69099429C.053985597 .6529999 .17298889 .5149994 .17298889 .2519989 .17298889-.011001587 .052993776-.14900208 .020996094-.18501282L.04399109-.20300293C.16299439-.10101318 .2559967 .06599426 .2559967 .2519989Z"/>
<path id="font_11_4" d="M.18998719 .55937197C.18998719 .5927124 .19999695 .605423 .2809906 .605423 .33699037 .605423 .4079895 .58340457 .4079895 .4812622 .4079895 .39614869 .35099793 .37112428 .2679901 .37112428H.18998719V.55937197M.18998719 .328125H.2829895C.3999939 .328125 .45498658 .2551117 .45498658 .16508484 .45498658 .09597778 .43119813 .04006958 .2869873 .04006958 .21699524 .04006958 .18998719 .05506897 .18998719 .08807373V.328125M.14698792 .6454315C.11299133 .6454315 .09599304 .6484375 .09599304 .6484375L.09399414 .6454315C.101989749 .5884094 .10398865 .52030947 .10398865 .44522096V.2000885C.10398865 .1250763 .101989749 .05406189 .09399414 .000061035159L.09498596-.0029296876C.09498596-.0029296876 .11199951 .000061035159 .14698792 .000061035159 .20899964 .000061035159 .21699524-.0029296876 .30599977-.0029296876 .5049896-.0029296876 .55400088 .09806824 .55400088 .18409729 .55400088 .2801056 .4889984 .33511354 .4019928 .36012269 .45298768 .38513185 .49499513 .4382019 .49499513 .49328614 .49499513 .56036379 .45999146 .6484375 .27398683 .6484375 .23899842 .6484375 .19699097 .6454315 .14698792 .6454315Z"/>
<path id="font_11_5" d="M.37998963 .6582031C.21099854 .6582031 .051986696 .51220706 .051986696 .31521607 .051986696 .14222718 .15098572-.009765625 .3659973-.009765625 .45838929-.009765625 .5452881 .018920899 .61209109 .09971619 .611496 .11122131 .6094971 .13322449 .60598757 .14222718L.598999 .1452179C.5279999 .067230228 .46798707 .041229249 .375 .041229249 .24819947 .041229249 .15499878 .17822266 .15499878 .33421327 .15499878 .5372009 .28399659 .6111908 .3659973 .6111908 .45599366 .6111908 .5289917 .5751953 .56999209 .49319459L.58200076 .49420167C.58558657 .54519656 .58898928 .56269839 .59999087 .6051941L.59799197 .6082001C.59799197 .6082001 .5019989 .6582031 .37998963 .6582031Z"/>
<clipPath id="clip_12">
<path transform="matrix(1,0,0,-1,0,71.479)" d="M206.854 40.869H220.853V48.409H206.854Z"/>
</clipPath>
<clipPath id="clip_13">
<path transform="matrix(1,0,0,-1,0,71.479)" d="M0 71.479H252V0H0Z"/>
</clipPath>
<clipPath id="clip_14">
<path transform="matrix(1,0,0,-1,0,71.479)" d="M215.083 15.91H229.478V23.45H215.083Z"/>
</clipPath>
<clipPath id="clip_15">
<path transform="matrix(1,0,0,-1,0,71.479)" d="M0 71.479H252V0H0Z"/>
</clipPath>
<clipPath id="clip_16">
<path transform="matrix(1,0,0,-1,0,71.479)" d="M185.789 33.625V33.625 33.6251Z"/>
</clipPath>
<clipPath id="clip_17">
<path transform="matrix(1,0,0,-1,0,71.479)" d="M19.8707 26.7401V26.7401 26.7402Z"/>
</clipPath>
<clipPath id="clip_18">
<path transform="matrix(1,0,0,-1,0,71.479)" d="M68.3275 48.2097V48.2097Z"/>
</clipPath>
<clipPath id="clip_19">
<path transform="matrix(1,0,0,-1,0,71.479)" d="M148.616 43.8254V43.8254Z"/>
</clipPath>
<clipPath id="clip_20">
<path transform="matrix(1,0,0,-1,0,71.479)" d="M232.275 32.9525V32.9525Z"/>
</clipPath>
<clipPath id="clip_21">
<path transform="matrix(1,0,0,-1,0,71.479)" d="M239.982 42.407H248.623V50.539H239.982Z"/>
</clipPath>
<clipPath id="clip_22">
<path transform="matrix(1,0,0,-1,0,71.479)" d="M244.303 46.4731V46.4731 46.4732Z"/>
</clipPath>
<clipPath id="clip_23">
<path transform="matrix(1,0,0,-1,0,71.479)" d="M240.201 42.59H248.623V50.539H240.201Z"/>
</clipPath>
<clipPath id="clip_24">
<path transform="matrix(1,0,0,-1,0,71.479)" d="M244.521 46.6561V46.6561Z"/>
</clipPath>
<clipPath id="clip_25">
<path transform="matrix(1,0,0,-1,0,71.479)" d="M62.446 59.767H71.086V67.899H62.446Z"/>
</clipPath>
<clipPath id="clip_26">
<path transform="matrix(1,0,0,-1,0,71.479)" d="M66.7659 63.8335H66.766 66.7659Z"/>
</clipPath>
<clipPath id="clip_27">
<path transform="matrix(1,0,0,-1,0,71.479)" d="M62.663 59.951H71.085V67.9H62.663Z"/>
</clipPath>
<clipPath id="clip_28">
<path transform="matrix(1,0,0,-1,0,71.479)" d="M66.9838 64.0165V64.0165Z"/>
</clipPath>
<clipPath id="clip_29">
<path transform="matrix(1,0,0,-1,0,71.479)" d="M149.99 57.288H158.63V65.42H149.99Z"/>
</clipPath>
<clipPath id="clip_30">
<path transform="matrix(1,0,0,-1,0,71.479)" d="M154.311 61.3534V61.3534Z"/>
</clipPath>
<clipPath id="clip_31">
<path transform="matrix(1,0,0,-1,0,71.479)" d="M150.208 57.47H158.62999V65.419H150.208Z"/>
</clipPath>
<clipPath id="clip_32">
<path transform="matrix(1,0,0,-1,0,71.479)" d="M154.528 61.5364V61.5364Z"/>
</clipPath>
</defs>
<g>
<g inkscape:groupmode="layer" inkscape:label="Layer 1">
<path transform="matrix(1,0,0,-1,0,71.479)" d="M159.571 38.138H89.098V66.156H159.571Z" fill="#d3d3fa"/>
<path transform="matrix(1,0,0,-1,204.2532,7.029396)" d="M0 0-34.23-21.289-24.294-41.416 1.44-26.85 32.259-38.807 40.05-17.945Z" fill="#d3d3fa"/>
<path transform="matrix(1,0,0,-1,205.6932,33.878896)" stroke-width="1.124" stroke-linecap="round" stroke-linejoin="bevel" fill="none" stroke="#000000" d="M0 0 32.487-12.604"/>
<path transform="matrix(1,0,0,-1,178.6982,49.157098)" stroke-width="1.124" stroke-linecap="round" stroke-linejoin="bevel" fill="none" stroke="#000000" d="M0 0 26.995 15.241"/>
<path transform="matrix(1,0,0,-1,7.2707,3.4313966)" d="M0 0 37.163-30.967 74.963 0" fill="#d3d3fa"/>
<path transform="matrix(1,0,0,-1,7.2707,3.4313966)" stroke-width="1.124" stroke-linecap="round" stroke-linejoin="bevel" fill="none" stroke="#000000" d="M0 0 37.163-30.967 74.963 0"/>
<g clip-path="url(#clip_1)">
<path transform="matrix(1,0,0,-1,50.0795,36.556798)" d="M0 0C-.147-.842-.228-1.286-.303-1.841-.398-2.566-.539-3.755-.805-4.177-.886-4.302-1.034-4.398-1.145-4.398-1.264-4.398-1.292-4.325-1.352-4.244-1.411-4.155-1.552-4.036-1.692-4.036-1.898-4.036-1.966-4.177-1.966-4.302-1.966-4.464-1.787-4.642-1.286-4.642-.983-4.642-.658-4.494-.428-4.177-.222-3.887-.058-3.327 .23-1.922 .348-1.345 .466-.747 .577-.125L.6 0H1.288C1.353 0 1.464 .03 1.48 .089 1.48 .089 1.516 .244 1.516 .252 1.516 .273 1.502 .289 1.464 .289H.652L.733 .709C.798 .983 .866 1.242 .955 1.442 1.139 1.9 1.442 2.033 1.567 2.033 1.738 2.033 1.819 1.995 1.856 1.841 1.886 1.678 1.945 1.478 2.197 1.478 2.425 1.478 2.477 1.656 2.477 1.73 2.477 2.025 2.152 2.277 1.627 2.277 1.42 2.277 .961 2.166 .658 1.803 .4 1.5 .208 .931 .075 .289L-.414 .266C-.553 .259-.606 .2-.62 .141-.628 .119-.65 .03-.65 .016-.65 0-.628 0-.606 0Z"/>
<path transform="matrix(1,0,0,-1,55.0717,34.139596)" d="M0 0C-1.072-.695-1.827-1.892-1.827-3.4-1.827-4.775-1.042-6.166-.023-6.794L.066-6.675C-.909-5.906-1.191-5.011-1.191-3.378-1.191-1.738-.888-.887 .066-.119Z"/>
<path transform="matrix(1,0,0,-1,58.428,36.8006)" d="M0 0-.377-1.797C-.473-1.9-.931-2.306-1.3-2.306-1.47-2.306-1.648-2.306-1.648-1.914-1.648-1.827-1.627-1.722-1.603-1.605L-1.316-.317C-1.264-.081-1.175 .222-1.175 .363-1.175 .503-1.219 .606-1.441 .606-1.795 .606-2.217 .355-2.558-.081-2.536-.148-2.491-.208-2.387-.208-2.195 .014-1.959 .125-1.884 .125-1.833 .125-1.811 .089-1.811 0-1.811-.067-1.848-.192-1.884-.384L-2.158-1.708C-2.18-1.827-2.203-1.952-2.203-2.063-2.203-2.433-2.098-2.712-1.559-2.712-1.272-2.712-.931-2.609-.45-2.166-.62-3.452-.931-4.109-1.575-4.109-2.033-4.109-1.87-3.719-2.239-3.719-2.32-3.719-2.52-3.822-2.52-4.006-2.52-4.317-1.936-4.377-1.663-4.377-1.397-4.377-1.064-4.295-.723-3.933-.303-3.481-.141-3.202 .148-1.892L.555-.037C.584 .095 .65 .317 .65 .406 .65 .533 .577 .606 .341 .606 .059 .606 .059 .281 0 0"/>
<path transform="matrix(1,0,0,-1,59.6718,34.139596)" d="M0 0-.067-.119C.886-.887 1.189-1.738 1.189-3.378 1.189-5.011 .909-5.906-.067-6.675L.022-6.794C1.042-6.166 1.825-4.775 1.825-3.4 1.825-1.892 1.072-.695 0 0"/>
</g>
<g clip-path="url(#clip_2)">
<path transform="matrix(1,0,0,-1,51.1599,56.051198)" d="M0 0C0-.795-.645-1.44-1.44-1.44-2.235-1.44-2.88-.795-2.88 0-2.88 .795-2.235 1.44-1.44 1.44-.645 1.44 0 .795 0 0"/>
</g>
<g clip-path="url(#clip_3)">
<path transform="matrix(1,0,0,-1,56.2129,51.2465)" d="M0 0C-.147-.842-.228-1.286-.303-1.841-.398-2.566-.539-3.755-.805-4.177-.886-4.302-1.034-4.398-1.145-4.398-1.264-4.398-1.292-4.325-1.352-4.244-1.411-4.155-1.552-4.036-1.692-4.036-1.898-4.036-1.966-4.177-1.966-4.302-1.966-4.464-1.787-4.642-1.286-4.642-.983-4.642-.658-4.494-.428-4.177-.222-3.887-.058-3.327 .23-1.922 .348-1.345 .466-.747 .577-.125L.6 0H1.288C1.353 0 1.464 .03 1.48 .089 1.48 .089 1.516 .244 1.516 .252 1.516 .273 1.502 .289 1.464 .289H.652L.733 .709C.798 .983 .866 1.242 .955 1.442 1.139 1.9 1.442 2.033 1.567 2.033 1.738 2.033 1.819 1.995 1.856 1.841 1.886 1.678 1.945 1.478 2.197 1.478 2.425 1.478 2.477 1.656 2.477 1.73 2.477 2.025 2.152 2.277 1.627 2.277 1.42 2.277 .961 2.166 .658 1.803 .4 1.5 .208 .931 .075 .289L-.414 .266C-.553 .259-.606 .2-.62 .141-.628 .119-.65 .03-.65 .016-.65 0-.628 0-.606 0Z"/>
<path transform="matrix(1,0,0,-1,61.2051,48.829298)" d="M0 0C-1.072-.695-1.827-1.892-1.827-3.4-1.827-4.775-1.042-6.166-.023-6.794L.066-6.675C-.909-5.906-1.191-5.011-1.191-3.378-1.191-1.737-.887-.887 .066-.119Z"/>
<path transform="matrix(1,0,0,-1,63.1129,51.844896)" d="M0 0 .259-.731-.428-1.745C-.503-1.856-.584-1.886-.636-1.886-.695-1.886-.777-1.87-.834-1.841-.902-1.811-.975-1.797-1.05-1.797-1.213-1.797-1.33-1.914-1.33-2.078-1.33-2.27-1.072-2.358-.902-2.358-.65-2.358-.473-2.247-.147-1.781L.363-1.042 .65-1.944C.747-2.241 .82-2.358 1.072-2.358 1.331-2.358 1.656-2.217 1.886-1.833 1.856-1.767 1.789-1.708 1.708-1.694 1.516-1.937 1.42-1.995 1.338-1.995 1.272-1.995 1.22-1.9 1.161-1.722L.761-.533 1.323 .295C1.442 .466 1.619 .495 1.67 .495 1.73 .495 1.827 .473 1.892 .422 1.944 .377 2.063 .347 2.136 .347 2.241 .347 2.373 .495 2.373 .666 2.373 .85 2.173 .961 2.003 .961 1.634 .961 1.391 .834 1.028 .311L.658-.222 .452 .428C.325 .812 .244 .961 .059 .961-.111 .961-.658 .658-.916 .466-.909 .384-.88 .287-.82 .236-.731 .273-.488 .392-.333 .392-.244 .392-.17 .377-.125 .311-.095 .252-.044 .125 0 0"/>
<path transform="matrix(1,0,0,-1,66.0052,48.829298)" d="M0 0-.067-.119C.886-.887 1.189-1.737 1.189-3.378 1.189-5.011 .909-5.906-.067-6.675L.022-6.794C1.042-6.166 1.825-4.775 1.825-3.4 1.825-1.892 1.072-.695 0 0"/>
</g>
<g clip-path="url(#clip_4)">
<path transform="matrix(1,0,0,-1,49.7199,56.051198)" stroke-width="1" stroke-linecap="butt" stroke-miterlimit="10" stroke-linejoin="miter" fill="none" stroke="#000000" d="M0 0-4.578 18.76"/>
<path transform="matrix(1,0,0,-1,47.2734,38.216699)" d="M0 0-1.985 .325-3.598-.878-2.839 3.825Z"/>
<g opacity="0">
<g clip-path="url(#clip_5)">
<path transform="matrix(1,0,0,-1,30.3868,28.727295)" stroke-linecap="butt" stroke-miterlimit="10" stroke-linejoin="miter" fill="none" stroke="#000000" d="M0 0V0Z"/>
</g>
</g>
<path transform="matrix(1,0,0,-1,88.994,33.469099)" d="M0 0 70.681 .25" fill="#d3d3fa"/>
<path transform="matrix(1,0,0,-1,88.994,33.469099)" stroke-width="1.124" stroke-linecap="round" stroke-linejoin="bevel" fill="none" stroke="#000000" d="M0 0 70.681 .25"/>
</g>
<g clip-path="url(#clip_6)">
<path transform="matrix(1,0,0,-1,132.3979,38.127897)" d="M0 0C-.147-.842-.228-1.286-.303-1.841-.398-2.566-.539-3.755-.805-4.177-.886-4.302-1.034-4.398-1.145-4.398-1.264-4.398-1.292-4.325-1.352-4.244-1.411-4.155-1.552-4.036-1.692-4.036-1.898-4.036-1.966-4.177-1.966-4.302-1.966-4.464-1.787-4.642-1.286-4.642-.983-4.642-.658-4.494-.428-4.177-.222-3.887-.058-3.327 .23-1.922 .348-1.345 .466-.747 .577-.125L.6 0H1.288C1.353 0 1.464 .03 1.48 .089 1.48 .089 1.516 .244 1.516 .252 1.516 .273 1.502 .289 1.464 .289H.652L.733 .709C.798 .983 .866 1.242 .955 1.442 1.139 1.9 1.442 2.033 1.567 2.033 1.738 2.033 1.819 1.995 1.856 1.841 1.886 1.678 1.945 1.478 2.197 1.478 2.425 1.478 2.477 1.656 2.477 1.73 2.477 2.025 2.152 2.277 1.627 2.277 1.42 2.277 .961 2.166 .658 1.803 .4 1.5 .208 .931 .075 .289L-.414 .266C-.553 .259-.606 .2-.62 .141-.628 .119-.65 .03-.65 .016-.65 0-.628 0-.606 0Z"/>
<path transform="matrix(1,0,0,-1,137.3901,35.710798)" d="M0 0C-1.072-.695-1.827-1.892-1.827-3.4-1.827-4.775-1.042-6.166-.023-6.794L.066-6.675C-.909-5.906-1.191-5.011-1.191-3.378-1.191-1.738-.887-.887 .066-.119Z"/>
<path transform="matrix(1,0,0,-1,140.7463,38.371698)" d="M0 0-.377-1.797C-.473-1.9-.931-2.306-1.3-2.306-1.47-2.306-1.648-2.306-1.648-1.914-1.648-1.827-1.627-1.722-1.603-1.605L-1.316-.317C-1.264-.081-1.175 .222-1.175 .363-1.175 .503-1.219 .606-1.441 .606-1.795 .606-2.217 .355-2.558-.081-2.536-.148-2.491-.208-2.387-.208-2.195 .014-1.959 .125-1.884 .125-1.833 .125-1.811 .089-1.811 0-1.811-.067-1.848-.192-1.884-.384L-2.158-1.708C-2.18-1.827-2.203-1.952-2.203-2.063-2.203-2.433-2.098-2.712-1.559-2.712-1.272-2.712-.931-2.609-.45-2.166-.62-3.452-.931-4.109-1.575-4.109-2.033-4.109-1.87-3.719-2.239-3.719-2.32-3.719-2.52-3.822-2.52-4.006-2.52-4.317-1.936-4.377-1.662-4.377-1.397-4.377-1.064-4.295-.723-3.933-.303-3.481-.141-3.202 .148-1.892L.555-.037C.584 .095 .65 .317 .65 .406 .65 .533 .577 .606 .341 .606 .059 .606 .059 .281 0 0"/>
<path transform="matrix(1,0,0,-1,141.9901,35.710798)" d="M0 0-.067-.119C.886-.887 1.189-1.738 1.189-3.378 1.189-5.011 .909-5.906-.067-6.675L.022-6.794C1.042-6.166 1.825-4.775 1.825-3.4 1.825-1.892 1.072-.695 0 0"/>
</g>
<g clip-path="url(#clip_7)">
<path transform="matrix(1,0,0,-1,131.4488,55.148599)" d="M0 0C0-.795-.645-1.44-1.44-1.44-2.235-1.44-2.88-.795-2.88 0-2.88 .795-2.235 1.44-1.44 1.44-.645 1.44 0 .795 0 0"/>
</g>
<g clip-path="url(#clip_8)">
<path transform="matrix(1,0,0,-1,136.5018,50.343896)" d="M0 0C-.147-.842-.228-1.286-.303-1.841-.398-2.566-.539-3.755-.805-4.177-.886-4.302-1.034-4.398-1.145-4.398-1.264-4.398-1.292-4.325-1.352-4.244-1.411-4.155-1.552-4.036-1.692-4.036-1.898-4.036-1.966-4.177-1.966-4.302-1.966-4.464-1.788-4.642-1.286-4.642-.983-4.642-.658-4.494-.428-4.177-.222-3.887-.058-3.327 .23-1.922 .348-1.345 .466-.747 .577-.125L.6 0H1.287C1.353 0 1.464 .03 1.48 .089 1.48 .089 1.516 .244 1.516 .252 1.516 .273 1.502 .289 1.464 .289H.652L.733 .709C.798 .983 .866 1.242 .955 1.442 1.139 1.9 1.442 2.033 1.567 2.033 1.738 2.033 1.819 1.995 1.856 1.841 1.886 1.678 1.945 1.478 2.197 1.478 2.425 1.478 2.477 1.656 2.477 1.73 2.477 2.025 2.152 2.277 1.627 2.277 1.42 2.277 .961 2.166 .658 1.803 .4 1.5 .208 .931 .075 .289L-.414 .266C-.553 .259-.606 .2-.62 .141-.628 .119-.65 .03-.65 .016-.65 0-.628 0-.606 0Z"/>
<path transform="matrix(1,0,0,-1,141.494,47.926797)" d="M0 0C-1.072-.695-1.827-1.892-1.827-3.4-1.827-4.775-1.042-6.166-.023-6.794L.066-6.675C-.909-5.906-1.191-5.011-1.191-3.378-1.191-1.738-.887-.887 .066-.119Z"/>
<path transform="matrix(1,0,0,-1,143.4018,50.942399)" d="M0 0 .259-.731-.428-1.745C-.503-1.856-.584-1.886-.636-1.886-.695-1.886-.777-1.87-.834-1.841-.902-1.811-.975-1.797-1.05-1.797-1.212-1.797-1.33-1.914-1.33-2.078-1.33-2.27-1.072-2.358-.902-2.358-.65-2.358-.473-2.247-.147-1.781L.363-1.042 .65-1.944C.747-2.241 .82-2.358 1.072-2.358 1.331-2.358 1.656-2.217 1.886-1.833 1.856-1.767 1.789-1.708 1.708-1.694 1.516-1.937 1.42-1.995 1.338-1.995 1.272-1.995 1.22-1.9 1.161-1.722L.761-.533 1.323 .295C1.442 .466 1.619 .495 1.67 .495 1.73 .495 1.827 .473 1.892 .422 1.944 .377 2.063 .347 2.136 .347 2.241 .347 2.373 .495 2.373 .666 2.373 .85 2.173 .961 2.003 .961 1.634 .961 1.391 .834 1.028 .311L.658-.222 .452 .428C.325 .812 .244 .961 .059 .961-.111 .961-.658 .658-.916 .466-.909 .384-.88 .287-.82 .236-.731 .273-.488 .392-.333 .392-.244 .392-.17 .377-.125 .311-.095 .252-.044 .125 0 0"/>
<path transform="matrix(1,0,0,-1,146.294,47.926797)" d="M0 0-.067-.119C.886-.887 1.189-1.738 1.189-3.378 1.189-5.011 .909-5.906-.067-6.675L.022-6.794C1.042-6.166 1.825-4.775 1.825-3.4 1.825-1.892 1.072-.695 0 0"/>
</g>
<g clip-path="url(#clip_9)">
<path transform="matrix(1,0,0,-1,130.0088,55.148599)" stroke-width="1" stroke-linecap="butt" stroke-miterlimit="10" stroke-linejoin="miter" fill="none" stroke="#000000" d="M0 0-4.578 18.76"/>
<path transform="matrix(1,0,0,-1,127.5623,37.314199)" d="M0 0-1.985 .325-3.598-.878-2.839 3.825Z"/>
<g opacity="0">
<g clip-path="url(#clip_10)">
<path transform="matrix(1,0,0,-1,109.058,27.453896)" stroke-linecap="butt" stroke-miterlimit="10" stroke-linejoin="miter" fill="none" stroke="#000000" d="M0 0V0Z"/>
</g>
</g>
<use data-text="(" xlink:href="#font_11_1" transform="matrix(8.25,0,0,-8.25,39.8003,68.7803)"/>
<use data-text="A" xlink:href="#font_11_3" transform="matrix(8.25,0,0,-8.25,42.0773,68.7803)"/>
<use data-text=")" xlink:href="#font_11_2" transform="matrix(8.25,0,0,-8.25,47.16755,68.7803)"/>
<use data-text="(" xlink:href="#font_11_1" transform="matrix(8.25,0,0,-8.25,123.13355,68.7803)"/>
<use data-text="B" xlink:href="#font_11_4" transform="matrix(8.25,0,0,-8.25,125.60855,68.7803)"/>
<use data-text=")" xlink:href="#font_11_2" transform="matrix(8.25,0,0,-8.25,130.69055,68.7803)"/>
<use data-text="(" xlink:href="#font_11_1" transform="matrix(8.25,0,0,-8.25,203.76905,68.7803)"/>
<use data-text="C" xlink:href="#font_11_5" transform="matrix(8.25,0,0,-8.25,206.16155,68.7803)"/>
<use data-text=")" xlink:href="#font_11_2" transform="matrix(8.25,0,0,-8.25,211.7468,68.7803)"/>
</g>
<g clip-path="url(#clip_12)">
<path transform="matrix(1,0,0,-1,209.243,25.805096)" d="M0 0C-.147-.842-.228-1.286-.303-1.841-.398-2.566-.539-3.755-.805-4.177-.886-4.302-1.034-4.398-1.145-4.398-1.264-4.398-1.292-4.325-1.352-4.244-1.411-4.155-1.552-4.036-1.692-4.036-1.898-4.036-1.966-4.177-1.966-4.302-1.966-4.464-1.787-4.642-1.286-4.642-.983-4.642-.658-4.494-.428-4.177-.222-3.887-.058-3.327 .23-1.922 .348-1.345 .466-.747 .577-.125L.6 0H1.288C1.353 0 1.464 .03 1.48 .089 1.48 .089 1.516 .244 1.516 .252 1.516 .273 1.502 .289 1.464 .289H.652L.733 .709C.798 .983 .866 1.242 .955 1.442 1.139 1.9 1.442 2.033 1.567 2.033 1.738 2.033 1.819 1.995 1.856 1.841 1.886 1.678 1.945 1.478 2.197 1.478 2.425 1.478 2.477 1.656 2.477 1.73 2.477 2.025 2.152 2.277 1.627 2.277 1.42 2.277 .961 2.166 .658 1.803 .4 1.5 .208 .931 .075 .289L-.414 .266C-.553 .259-.606 .2-.62 .141-.628 .119-.65 .03-.65 .016-.65 0-.628 0-.606 0Z"/>
<path transform="matrix(1,0,0,-1,214.2352,23.387898)" d="M0 0C-1.072-.695-1.827-1.892-1.827-3.4-1.827-4.775-1.042-6.166-.023-6.794L.066-6.675C-.909-5.906-1.191-5.011-1.191-3.378-1.191-1.738-.887-.888 .066-.119Z"/>
<path transform="matrix(1,0,0,-1,217.5914,26.048798)" d="M0 0-.377-1.797C-.473-1.9-.931-2.306-1.3-2.306-1.47-2.306-1.648-2.306-1.648-1.914-1.648-1.827-1.627-1.722-1.603-1.605L-1.316-.317C-1.264-.081-1.175 .222-1.175 .363-1.175 .503-1.219 .606-1.441 .606-1.795 .606-2.217 .355-2.558-.081-2.536-.148-2.491-.208-2.388-.208-2.195 .014-1.959 .125-1.884 .125-1.833 .125-1.811 .089-1.811 0-1.811-.067-1.848-.192-1.884-.384L-2.158-1.708C-2.18-1.827-2.203-1.952-2.203-2.063-2.203-2.433-2.098-2.712-1.559-2.712-1.272-2.712-.931-2.609-.45-2.166-.62-3.452-.931-4.109-1.575-4.109-2.033-4.109-1.87-3.719-2.239-3.719-2.32-3.719-2.52-3.822-2.52-4.006-2.52-4.317-1.936-4.377-1.663-4.377-1.397-4.377-1.064-4.295-.723-3.933-.303-3.481-.141-3.202 .148-1.892L.555-.037C.584 .095 .65 .317 .65 .406 .65 .533 .577 .606 .341 .606 .059 .606 .059 .281 0 0"/>
<path transform="matrix(1,0,0,-1,218.8352,23.387898)" d="M0 0-.067-.119C.886-.888 1.189-1.738 1.189-3.378 1.189-5.011 .909-5.906-.067-6.675L.022-6.794C1.042-6.166 1.825-4.775 1.825-3.4 1.825-1.892 1.072-.695 0 0"/>
</g>
<g clip-path="url(#clip_13)">
<path transform="matrix(1,0,0,-1,212.4192,55.568597)" d="M0 0C0-.795-.645-1.44-1.44-1.44-2.235-1.44-2.88-.795-2.88 0-2.88 .795-2.235 1.44-1.44 1.44-.645 1.44 0 .795 0 0"/>
</g>
<g clip-path="url(#clip_14)">
<path transform="matrix(1,0,0,-1,217.4722,50.763898)" d="M0 0C-.147-.842-.228-1.286-.303-1.841-.398-2.566-.539-3.755-.805-4.177-.886-4.302-1.034-4.398-1.145-4.398-1.264-4.398-1.292-4.325-1.352-4.244-1.411-4.155-1.552-4.036-1.692-4.036-1.898-4.036-1.966-4.177-1.966-4.302-1.966-4.464-1.788-4.642-1.286-4.642-.983-4.642-.658-4.494-.428-4.177-.222-3.887-.058-3.327 .23-1.922 .348-1.345 .466-.747 .577-.125L.6 0H1.287C1.353 0 1.464 .03 1.48 .089 1.48 .089 1.516 .244 1.516 .252 1.516 .273 1.502 .289 1.464 .289H.652L.733 .709C.798 .983 .866 1.242 .955 1.442 1.139 1.9 1.442 2.033 1.567 2.033 1.738 2.033 1.819 1.995 1.856 1.841 1.886 1.678 1.945 1.478 2.197 1.478 2.425 1.478 2.477 1.656 2.477 1.73 2.477 2.025 2.152 2.277 1.627 2.277 1.42 2.277 .961 2.166 .658 1.803 .4 1.5 .208 .931 .075 .289L-.414 .266C-.553 .259-.606 .2-.62 .141-.628 .119-.65 .03-.65 .016-.65 0-.628 0-.606 0Z"/>
<path transform="matrix(1,0,0,-1,222.4644,48.346696)" d="M0 0C-1.072-.695-1.827-1.892-1.827-3.4-1.827-4.775-1.042-6.166-.023-6.794L.066-6.675C-.909-5.906-1.191-5.011-1.191-3.378-1.191-1.738-.887-.887 .066-.119Z"/>
<path transform="matrix(1,0,0,-1,224.3722,51.362298)" d="M0 0 .259-.731-.428-1.745C-.503-1.856-.584-1.886-.636-1.886-.695-1.886-.777-1.87-.834-1.841-.902-1.811-.975-1.797-1.05-1.797-1.212-1.797-1.33-1.914-1.33-2.078-1.33-2.27-1.072-2.358-.902-2.358-.65-2.358-.473-2.247-.147-1.781L.363-1.042 .65-1.944C.747-2.241 .82-2.358 1.072-2.358 1.331-2.358 1.656-2.217 1.886-1.833 1.856-1.767 1.789-1.708 1.708-1.694 1.516-1.937 1.42-1.995 1.338-1.995 1.272-1.995 1.22-1.9 1.161-1.722L.761-.533 1.323 .295C1.442 .466 1.619 .495 1.67 .495 1.73 .495 1.827 .473 1.892 .422 1.944 .377 2.063 .347 2.136 .347 2.241 .347 2.373 .495 2.373 .666 2.373 .85 2.173 .961 2.003 .961 1.634 .961 1.391 .834 1.028 .311L.658-.222 .452 .428C.325 .812 .244 .961 .059 .961-.111 .961-.658 .658-.916 .466-.909 .384-.88 .288-.82 .236-.731 .273-.488 .392-.333 .392-.244 .392-.17 .377-.125 .311-.095 .252-.044 .125 0 0"/>
<path transform="matrix(1,0,0,-1,227.2644,48.346696)" d="M0 0-.067-.119C.886-.887 1.189-1.738 1.189-3.378 1.189-5.011 .909-5.906-.067-6.675L.022-6.794C1.042-6.166 1.825-4.775 1.825-3.4 1.825-1.892 1.072-.695 0 0"/>
</g>
<g clip-path="url(#clip_15)">
<path transform="matrix(1,0,0,-1,210.9792,55.568597)" stroke-width="1" stroke-linecap="butt" stroke-miterlimit="10" stroke-linejoin="miter" fill="none" stroke="#000000" d="M0 0-4.578 18.76"/>
<path transform="matrix(1,0,0,-1,208.5326,37.734197)" d="M0 0-1.985 .325-3.598-.878-2.839 3.825Z"/>
<g opacity="0">
<g clip-path="url(#clip_16)">
<path transform="matrix(1,0,0,-1,185.7889,37.853998)" stroke-linecap="butt" stroke-miterlimit="10" stroke-linejoin="miter" fill="none" stroke="#000000" d="M0 0V0Z"/>
</g>
</g>
<path transform="matrix(1,0,0,-1,205.6932,33.909097)" d="M0 0-19.594-11.069"/>
<path transform="matrix(1,0,0,-1,205.6932,33.909097)" stroke-width="1.124" stroke-linecap="round" stroke-linejoin="bevel" fill="none" stroke="#6c6cff" d="M0 0-16.673-9.419"/>
<path transform="matrix(1,0,0,-1,189.3706,40.740396)" d="M0 0 .254-2.247 2.047-3.624-3.271-4.238Z" fill="#6c6cff"/>
<path transform="matrix(1,0,0,-1,44.434,34.391698)" d="M0 0 21.534 17.641"/>
<path transform="matrix(1,0,0,-1,44.434,34.391698)" stroke-width="1.124" stroke-linecap="round" stroke-linejoin="bevel" fill="none" stroke="#6c6cff" d="M0 0 18.939 15.515"/>
<path transform="matrix(1,0,0,-1,63.4706,21.486397)" d="M0 0-.635 2.17-2.638 3.219 2.497 4.736Z" fill="#6c6cff"/>
<path transform="matrix(1,0,0,-1,44.434,34.391698)" d="M0 0-21.313 17.76"/>
<path transform="matrix(1,0,0,-1,44.434,34.391698)" stroke-width="1.124" stroke-linecap="round" stroke-linejoin="bevel" fill="none" stroke="#6c6cff" d="M0 0-18.736 15.612"/>
<path transform="matrix(1,0,0,-1,28.2425,18.191098)" d="M0 0-2.011-1.033-2.664-3.197-5.122 1.559Z" fill="#6c6cff"/>
<path transform="matrix(1,0,0,-1,205.6932,33.909097)" d="M0 0 22.85-8.835"/>
<path transform="matrix(1,0,0,-1,205.6932,33.909097)" stroke-width="1.124" stroke-linecap="round" stroke-linejoin="bevel" fill="none" stroke="#6c6cff" d="M0 0 19.721-7.625"/>
<path transform="matrix(1,0,0,-1,223.1921,42.906297)" d="M0 0 1.575 1.622 1.501 3.882 5.351 .162Z" fill="#6c6cff"/>
<path transform="matrix(1,0,0,-1,102.8702,33.42)" d="M0 0 44.876 .159" fill="#d3d3fa"/>
<path transform="matrix(1,0,0,-1,106.2249,33.408098)" stroke-width="1.124" stroke-linecap="round" stroke-linejoin="bevel" fill="none" stroke="#6c6cff" d="M0 0 38.167 .135"/>
<path transform="matrix(1,0,0,-1,107.8105,35.483499)" d="M0 0-.891 2.078-.015 4.162-4.94 2.064Z" fill="#6c6cff"/>
<path transform="matrix(1,0,0,-1,142.8205,35.359598)" d="M0 0 .877 2.084-.015 4.162 4.926 2.098Z" fill="#6c6cff"/>
<path transform="matrix(1,0,0,-1,44.434,34.361497)" d="M0 0V27.733"/>
<path transform="matrix(1,0,0,-1,44.434,34.361497)" stroke-width="1.124" stroke-linecap="round" stroke-linejoin="bevel" fill="none" stroke="#6c6cff" d="M0 0V24.378"/>
<path transform="matrix(1,0,0,-1,46.5149,11.561996)" d="M0 0-2.081 .884-4.162 0-2.081 4.933Z" fill="#6c6cff"/>
<path transform="matrix(1,0,0,-1,124.7146,33.198797)" d="M0 0V24.03"/>
<path transform="matrix(1,0,0,-1,124.7146,33.198797)" stroke-width="1.124" stroke-linecap="round" stroke-linejoin="bevel" fill="none" stroke="#6c6cff" d="M0 0V20.675"/>
<path transform="matrix(1,0,0,-1,126.7955,14.101795)" d="M0 0-2.081 .884-4.162 0-2.081 4.933Z" fill="#6c6cff"/>
<path transform="matrix(1,0,0,-1,205.7984,33.750196)" d="M0 0V24.622"/>
<path transform="matrix(1,0,0,-1,205.7984,33.750196)" stroke-width="1.124" stroke-linecap="round" stroke-linejoin="bevel" fill="none" stroke="#6c6cff" d="M0 0V21.267"/>
<path transform="matrix(1,0,0,-1,207.8794,14.061398)" d="M0 0-2.081 .884-4.162 0-2.081 4.933Z" fill="#6c6cff"/>
<path transform="matrix(1,0,0,-1,207.1332,33.878896)" d="M0 0C0-.795-.645-1.44-1.44-1.44-2.235-1.44-2.88-.795-2.88 0-2.88 .795-2.235 1.44-1.44 1.44-.645 1.44 0 .795 0 0"/>
<path transform="matrix(1,0,0,-1,45.874,34.361497)" d="M0 0C0-.795-.645-1.44-1.44-1.44-2.235-1.44-2.88-.795-2.88 0-2.88 .795-2.235 1.44-1.44 1.44-.645 1.44 0 .795 0 0"/>
<path transform="matrix(1,0,0,-1,126.1628,33.458997)" d="M0 0C0-.795-.645-1.44-1.44-1.44-2.235-1.44-2.88-.795-2.88 0-2.88 .795-2.235 1.44-1.44 1.44-.645 1.44 0 .795 0 0"/>
<g opacity="0">
<g clip-path="url(#clip_17)">
<path transform="matrix(1,0,0,-1,19.8707,44.738897)" stroke-linecap="butt" stroke-miterlimit="10" stroke-linejoin="miter" fill="none" stroke="#000000" d="M0 0V0Z"/>
</g>
</g>
<path transform="matrix(1,0,0,-1,26.5808,25.575695)" d="M0 0H.732C.888 0 .965 0 .965 .156 .965 .241 .888 .241 .747 .241H.062C.342 1.347 .382 1.503 .382 1.55 .382 1.682 .288 1.76 .156 1.76 .132 1.76-.086 1.752-.156 1.48L-.46 .241H-1.191C-1.347 .241-1.425 .241-1.425 .094-1.425 0-1.363 0-1.207 0H-.522C-1.082-2.211-1.114-2.344-1.114-2.484-1.114-2.905-.818-3.2-.397-3.2 .397-3.2 .841-2.063 .841-2.001 .841-1.923 .779-1.923 .747-1.923 .678-1.923 .67-1.947 .631-2.032 .296-2.842-.117-3.029-.382-3.029-.545-3.029-.623-2.928-.623-2.671-.623-2.484-.608-2.429-.576-2.297Z"/>
<path transform="matrix(1,0,0,-1,29.6048,26.396798)" d="M0 0C0 .147-.011 .152-.163 .152-.512-.191-1.008-.196-1.232-.196V-.393C-1.101-.393-.741-.393-.441-.24V-3.02C-.441-3.2-.441-3.27-.986-3.27H-1.193V-3.467C-1.095-3.461-.425-3.445-.223-3.445-.054-3.445 .632-3.461 .752-3.467V-3.27H.545C0-3.27 0-3.2 0-3.02Z"/>
<g opacity="0">
<g clip-path="url(#clip_18)">
</g>
</g>
<path transform="matrix(1,0,0,-1,66.9555,21.805596)" d="M0 0H.732C.888 0 .965 0 .965 .156 .965 .241 .888 .241 .747 .241H.062C.342 1.347 .382 1.503 .382 1.55 .382 1.682 .288 1.76 .156 1.76 .132 1.76-.086 1.752-.156 1.48L-.46 .241H-1.191C-1.347 .241-1.425 .241-1.425 .094-1.425 0-1.363 0-1.207 0H-.522C-1.082-2.211-1.114-2.344-1.114-2.484-1.114-2.905-.818-3.2-.397-3.2 .397-3.2 .841-2.063 .841-2.001 .841-1.923 .779-1.923 .747-1.923 .678-1.923 .67-1.947 .631-2.032 .296-2.842-.117-3.029-.382-3.029-.545-3.029-.623-2.928-.623-2.671-.623-2.484-.608-2.429-.576-2.297Z"/>
<path transform="matrix(1,0,0,-1,70.9062,25.101597)" d="M0 0H-.185C-.202-.12-.256-.441-.327-.496-.371-.529-.79-.529-.867-.529H-1.87C-1.297-.022-1.107 .131-.779 .387-.376 .709 0 1.047 0 1.564 0 2.224-.578 2.627-1.275 2.627-1.951 2.627-2.409 2.153-2.409 1.652-2.409 1.374-2.175 1.347-2.12 1.347-1.989 1.347-1.831 1.439-1.831 1.635-1.831 1.734-1.87 1.924-2.153 1.924-1.984 2.311-1.613 2.431-1.357 2.431-.812 2.431-.529 2.006-.529 1.564-.529 1.09-.867 .714-1.041 .518L-2.355-.779C-2.409-.828-2.409-.839-2.409-.992H-.164Z"/>
<path transform="matrix(1,0,0,-1,101.9692,25.575695)" d="M0 0H.732C.888 0 .965 0 .965 .156 .965 .241 .888 .241 .747 .241H.062C.342 1.347 .382 1.503 .382 1.55 .382 1.682 .288 1.76 .156 1.76 .132 1.76-.086 1.752-.156 1.48L-.46 .241H-1.191C-1.347 .241-1.425 .241-1.425 .094-1.425 0-1.363 0-1.207 0H-.522C-1.082-2.211-1.114-2.344-1.114-2.484-1.114-2.905-.818-3.2-.397-3.2 .397-3.2 .841-2.063 .841-2.001 .841-1.923 .779-1.923 .747-1.923 .678-1.923 .67-1.947 .631-2.032 .296-2.842-.117-3.029-.382-3.029-.545-3.029-.623-2.928-.623-2.671-.623-2.484-.608-2.429-.576-2.297Z"/>
<path transform="matrix(1,0,0,-1,104.9933,26.396798)" d="M0 0C0 .147-.011 .152-.163 .152-.512-.191-1.008-.196-1.232-.196V-.393C-1.101-.393-.741-.393-.441-.24V-3.02C-.441-3.2-.441-3.27-.986-3.27H-1.193V-3.467C-1.095-3.461-.425-3.445-.223-3.445-.054-3.445 .632-3.461 .752-3.467V-3.27H.545C0-3.27 0-3.2 0-3.02Z"/>
<path transform="matrix(1,0,0,-1,183.2063,36.792798)" d="M0 0H.732C.888 0 .965 0 .965 .156 .965 .241 .888 .241 .747 .241H.062C.342 1.347 .382 1.503 .382 1.55 .382 1.682 .288 1.76 .156 1.76 .132 1.76-.086 1.752-.156 1.48L-.46 .241H-1.191C-1.347 .241-1.425 .241-1.425 .094-1.425 0-1.363 0-1.207 0H-.522C-1.082-2.211-1.114-2.344-1.114-2.484-1.114-2.905-.818-3.2-.397-3.2 .397-3.2 .841-2.063 .841-2.001 .841-1.923 .779-1.923 .747-1.923 .678-1.923 .67-1.947 .631-2.032 .296-2.842-.117-3.029-.382-3.029-.545-3.029-.623-2.928-.623-2.671-.623-2.484-.608-2.429-.576-2.297Z"/>
<path transform="matrix(1,0,0,-1,186.2303,37.613897)" d="M0 0C0 .147-.011 .152-.163 .152-.512-.191-1.008-.196-1.232-.196V-.393C-1.101-.393-.741-.393-.441-.24V-3.02C-.441-3.2-.441-3.27-.986-3.27H-1.193V-3.467C-1.095-3.461-.425-3.445-.223-3.445-.054-3.445 .632-3.461 .752-3.467V-3.27H.545C0-3.27 0-3.2 0-3.02Z"/>
<path transform="matrix(1,0,0,-1,47.9915,6.9254)" d="M0 0H.732C.888 0 .965 0 .965 .156 .965 .241 .888 .241 .747 .241H.062C.342 1.347 .382 1.503 .382 1.55 .382 1.682 .288 1.76 .156 1.76 .132 1.76-.086 1.752-.156 1.48L-.46 .241H-1.191C-1.347 .241-1.425 .241-1.425 .094-1.425 0-1.363 0-1.207 0H-.522C-1.082-2.211-1.114-2.344-1.114-2.484-1.114-2.905-.818-3.2-.397-3.2 .397-3.2 .841-2.063 .841-2.001 .841-1.923 .779-1.923 .747-1.923 .678-1.923 .67-1.947 .631-2.032 .296-2.842-.117-3.029-.382-3.029-.545-3.029-.623-2.928-.623-2.671-.623-2.484-.608-2.429-.576-2.297Z"/>
<path transform="matrix(1,0,0,-1,50.6778,9.392796)" d="M0 0C.425 0 .73-.294 .73-.877 .73-1.553 .338-1.755 .022-1.755-.196-1.755-.676-1.695-.905-1.373-.649-1.363-.589-1.183-.589-1.068-.589-.894-.719-.768-.889-.768-1.041-.768-1.194-.861-1.194-1.085-1.194-1.597-.627-1.929 .033-1.929 .79-1.929 1.314-1.423 1.314-.877 1.314-.452 .965-.027 .365 .098 .938 .305 1.145 .714 1.145 1.046 1.145 1.477 .649 1.799 .043 1.799-.561 1.799-1.025 1.504-1.025 1.069-1.025 .883-.905 .779-.741 .779-.572 .779-.463 .905-.463 1.057-.463 1.216-.572 1.33-.741 1.341-.55 1.581-.174 1.641 .027 1.641 .273 1.641 .616 1.521 .616 1.046 .616 .818 .539 .567 .398 .398 .218 .191 .065 .18-.207 .164-.343 .153-.354 .153-.381 .147-.392 .147-.436 .136-.436 .076-.436 0-.387 0-.294 0Z"/>
<g opacity="0">
<g clip-path="url(#clip_19)">
</g>
</g>
<path transform="matrix(1,0,0,-1,147.2443,26.189896)" d="M0 0H.732C.888 0 .965 0 .965 .156 .965 .241 .888 .241 .747 .241H.062C.342 1.347 .382 1.503 .382 1.55 .382 1.682 .288 1.76 .156 1.76 .132 1.76-.086 1.752-.156 1.48L-.46 .241H-1.191C-1.347 .241-1.425 .241-1.425 .094-1.425 0-1.363 0-1.207 0H-.522C-1.082-2.211-1.114-2.344-1.114-2.484-1.114-2.905-.818-3.2-.397-3.2 .397-3.2 .841-2.063 .841-2.001 .841-1.923 .779-1.923 .747-1.923 .678-1.923 .67-1.947 .631-2.032 .296-2.842-.117-3.029-.382-3.029-.545-3.029-.623-2.928-.623-2.671-.623-2.484-.608-2.429-.576-2.297Z"/>
<path transform="matrix(1,0,0,-1,151.1951,29.485898)" d="M0 0H-.185C-.202-.12-.256-.441-.327-.496-.371-.529-.79-.529-.867-.529H-1.87C-1.297-.022-1.107 .131-.779 .387-.376 .709 0 1.047 0 1.564 0 2.224-.578 2.627-1.275 2.627-1.951 2.627-2.409 2.153-2.409 1.652-2.409 1.374-2.175 1.347-2.12 1.347-1.989 1.347-1.831 1.439-1.831 1.635-1.831 1.734-1.87 1.924-2.153 1.924-1.984 2.311-1.613 2.431-1.357 2.431-.812 2.431-.529 2.006-.529 1.564-.529 1.09-.867 .714-1.041 .518L-2.355-.779C-2.409-.828-2.409-.839-2.409-.992H-.164Z"/>
<g opacity="0">
<g clip-path="url(#clip_20)">
</g>
</g>
<path transform="matrix(1,0,0,-1,230.9026,37.062799)" d="M0 0H.732C.888 0 .965 0 .965 .156 .965 .241 .888 .241 .747 .241H.062C.342 1.347 .382 1.503 .382 1.55 .382 1.682 .288 1.76 .156 1.76 .132 1.76-.086 1.752-.156 1.48L-.46 .241H-1.191C-1.347 .241-1.425 .241-1.425 .094-1.425 0-1.363 0-1.207 0H-.522C-1.082-2.211-1.114-2.344-1.114-2.484-1.114-2.905-.818-3.2-.397-3.2 .397-3.2 .841-2.063 .841-2.001 .841-1.923 .779-1.923 .747-1.923 .678-1.923 .67-1.947 .631-2.032 .296-2.842-.117-3.029-.382-3.029-.545-3.029-.623-2.928-.623-2.671-.623-2.484-.608-2.429-.576-2.297Z"/>
<path transform="matrix(1,0,0,-1,234.8533,40.358797)" d="M0 0H-.185C-.202-.12-.256-.441-.327-.496-.371-.529-.79-.529-.867-.529H-1.87C-1.297-.022-1.107 .131-.779 .387-.376 .709 0 1.047 0 1.564 0 2.224-.578 2.627-1.275 2.627-1.951 2.627-2.409 2.153-2.409 1.652-2.409 1.374-2.175 1.347-2.12 1.347-1.989 1.347-1.831 1.439-1.831 1.635-1.831 1.734-1.87 1.924-2.153 1.924-1.984 2.311-1.613 2.431-1.357 2.431-.812 2.431-.529 2.006-.529 1.564-.529 1.09-.867 .714-1.041 .518L-2.355-.779C-2.409-.828-2.409-.839-2.409-.992H-.164Z"/>
<path transform="matrix(1,0,0,-1,128.7213,8.710995)" d="M0 0H.732C.888 0 .965 0 .965 .156 .965 .241 .888 .241 .747 .241H.062C.342 1.347 .382 1.503 .382 1.55 .382 1.682 .288 1.76 .156 1.76 .132 1.76-.086 1.752-.156 1.48L-.46 .241H-1.191C-1.347 .241-1.425 .241-1.425 .094-1.425 0-1.363 0-1.207 0H-.522C-1.082-2.211-1.114-2.344-1.114-2.484-1.114-2.905-.818-3.2-.397-3.2 .397-3.2 .841-2.063 .841-2.001 .841-1.923 .779-1.923 .747-1.923 .678-1.923 .67-1.947 .631-2.032 .296-2.842-.117-3.029-.382-3.029-.545-3.029-.623-2.928-.623-2.671-.623-2.484-.608-2.429-.576-2.297Z"/>
<path transform="matrix(1,0,0,-1,131.4076,11.178398)" d="M0 0C.425 0 .73-.294 .73-.877 .73-1.553 .338-1.755 .022-1.755-.196-1.755-.676-1.695-.905-1.373-.649-1.363-.589-1.183-.589-1.068-.589-.894-.719-.768-.889-.768-1.041-.768-1.194-.861-1.194-1.085-1.194-1.597-.627-1.929 .033-1.929 .79-1.929 1.314-1.423 1.314-.877 1.314-.452 .965-.027 .365 .098 .938 .305 1.145 .714 1.145 1.046 1.145 1.477 .649 1.799 .043 1.799-.561 1.799-1.025 1.504-1.025 1.069-1.025 .883-.905 .779-.741 .779-.572 .779-.463 .905-.463 1.057-.463 1.216-.572 1.33-.741 1.341-.55 1.581-.174 1.641 .027 1.641 .273 1.641 .616 1.521 .616 1.046 .616 .818 .539 .567 .398 .398 .218 .191 .065 .18-.207 .164-.343 .153-.354 .153-.381 .147-.392 .147-.436 .136-.436 .076-.436 0-.387 0-.294 0Z"/>
<path transform="matrix(1,0,0,-1,211.1317,8.5928959)" d="M0 0H.732C.888 0 .965 0 .965 .156 .965 .241 .888 .241 .747 .241H.062C.342 1.347 .382 1.503 .382 1.55 .382 1.682 .288 1.76 .156 1.76 .132 1.76-.086 1.752-.156 1.48L-.46 .241H-1.191C-1.347 .241-1.425 .241-1.425 .094-1.425 0-1.363 0-1.207 0H-.522C-1.082-2.211-1.114-2.344-1.114-2.484-1.114-2.905-.818-3.2-.397-3.2 .397-3.2 .841-2.063 .841-2.001 .841-1.923 .779-1.923 .747-1.923 .678-1.923 .67-1.947 .631-2.032 .296-2.842-.117-3.029-.382-3.029-.545-3.029-.623-2.928-.623-2.671-.623-2.484-.608-2.429-.576-2.297Z"/>
<path transform="matrix(1,0,0,-1,213.818,11.060295)" d="M0 0C.425 0 .73-.294 .73-.877 .73-1.553 .338-1.755 .022-1.755-.196-1.755-.676-1.695-.905-1.373-.649-1.363-.589-1.183-.589-1.068-.589-.894-.719-.768-.889-.768-1.041-.768-1.194-.861-1.194-1.085-1.194-1.597-.627-1.929 .033-1.929 .79-1.929 1.314-1.423 1.314-.877 1.314-.452 .965-.027 .365 .098 .938 .305 1.145 .714 1.145 1.046 1.145 1.477 .649 1.799 .043 1.799-.561 1.799-1.025 1.504-1.025 1.069-1.025 .883-.905 .779-.741 .779-.572 .779-.463 .905-.463 1.057-.463 1.216-.572 1.33-.741 1.341-.55 1.581-.174 1.641 .027 1.641 .273 1.641 .616 1.521 .616 1.046 .616 .818 .539 .567 .398 .398 .218 .191 .065 .18-.207 .164-.343 .153-.354 .153-.381 .147-.392 .147-.436 .136-.436 .076-.436 0-.387 0-.294 0Z"/>
</g>
<g clip-path="url(#clip_21)">
<g opacity="0">
<g clip-path="url(#clip_22)">
<path transform="matrix(1,0,0,-1,244.3027,25.005898)" stroke-linecap="butt" stroke-miterlimit="10" stroke-linejoin="miter" fill="none" stroke="#000000" d="M0 0V0C0 0 0 0 0 0Z"/>
</g>
</g>
</g>
<g clip-path="url(#clip_23)">
<g opacity="0">
<g clip-path="url(#clip_24)">
</g>
</g>
<path transform="matrix(1,0,0,-1,246.1895,25.786896)" d="M0 0H-.228C-.273-.237-.31-.446-.392-.665-.437-.81-.465-.883-.993-.883H-1.722C-1.603-.373-1.321 .064-.911 .665-.483 1.312-.109 1.94-.109 2.66-.109 3.926-1.339 4.946-2.878 4.946-4.445 4.946-5.656 3.908-5.656 2.66-5.656 1.94-5.283 1.312-4.855 .665-4.454 .064-4.163-.373-4.044-.883H-4.773C-5.302-.883-5.329-.81-5.374-.674-5.447-.465-5.493-.228-5.538 0H-5.766L-5.466-1.475H-4.008C-3.807-1.475-3.78-1.475-3.78-1.284-3.78-.646-4.063 .155-4.272 .738-4.463 1.266-4.718 1.986-4.718 2.669-4.718 4.127-3.716 4.746-2.887 4.746-2.013 4.746-1.047 4.09-1.047 2.669-1.047 1.986-1.294 1.294-1.558 .547-1.694 .164-1.986-.656-1.986-1.284-1.986-1.475-1.958-1.475-1.749-1.475H-.301Z"/>
<path transform="matrix(1,0,0,-1,248.6703,24.649796)" d="M0 0C0 .102-.077 .242-.255 .242-.427 .242-.612 .077-.612-.108-.612-.217-.529-.351-.357-.351-.172-.351 0-.172 0 0M-1.301-3.239C-1.326-3.322-1.358-3.398-1.358-3.507-1.358-3.806-1.103-4.049-.752-4.049-.115-4.049 .166-3.169 .166-3.073 .166-2.99 .083-2.99 .064-2.99-.026-2.99-.032-3.028-.058-3.099-.204-3.609-.485-3.87-.733-3.87-.861-3.87-.893-3.787-.893-3.647-.893-3.5-.848-3.379-.791-3.239-.727-3.067-.657-2.895-.587-2.729-.529-2.576-.3-1.996-.274-1.919-.255-1.855-.236-1.779-.236-1.715-.236-1.416-.491-1.173-.842-1.173-1.473-1.173-1.766-2.04-1.766-2.149-1.766-2.231-1.677-2.231-1.658-2.231-1.569-2.231-1.562-2.2-1.543-2.129-1.377-1.581-1.097-1.352-.861-1.352-.759-1.352-.702-1.403-.702-1.575-.702-1.722-.74-1.817-.899-2.212Z"/>
</g>
<g clip-path="url(#clip_25)">
<g opacity="0">
<g clip-path="url(#clip_26)">
<path transform="matrix(1,0,0,-1,66.7659,7.6454966)" stroke-linecap="butt" stroke-miterlimit="10" stroke-linejoin="miter" fill="none" stroke="#000000" d="M0 0V0Z"/>
</g>
</g>
</g>
<g clip-path="url(#clip_27)">
<g opacity="0">
<g clip-path="url(#clip_28)">
</g>
</g>
<path transform="matrix(1,0,0,-1,68.6527,8.426598)" d="M0 0H-.228C-.273-.237-.31-.446-.392-.665-.437-.81-.465-.883-.993-.883H-1.722C-1.603-.373-1.321 .064-.911 .665-.483 1.312-.109 1.94-.109 2.66-.109 3.926-1.339 4.946-2.878 4.946-4.445 4.946-5.656 3.908-5.656 2.66-5.656 1.94-5.283 1.312-4.855 .665-4.454 .064-4.163-.373-4.044-.883H-4.773C-5.302-.883-5.329-.81-5.374-.674-5.447-.465-5.493-.228-5.538 0H-5.766L-5.466-1.475H-4.008C-3.807-1.475-3.78-1.475-3.78-1.284-3.78-.646-4.063 .155-4.272 .738-4.463 1.266-4.718 1.986-4.718 2.669-4.718 4.127-3.716 4.746-2.887 4.746-2.013 4.746-1.047 4.09-1.047 2.669-1.047 1.986-1.294 1.294-1.558 .547-1.694 .164-1.986-.656-1.986-1.284-1.986-1.475-1.958-1.475-1.749-1.475H-.301Z"/>
<path transform="matrix(1,0,0,-1,71.1335,7.289398)" d="M0 0C0 .102-.077 .242-.255 .242-.427 .242-.612 .077-.612-.108-.612-.217-.529-.351-.357-.351-.172-.351 0-.172 0 0M-1.301-3.239C-1.326-3.322-1.358-3.398-1.358-3.507-1.358-3.806-1.103-4.049-.752-4.049-.115-4.049 .166-3.169 .166-3.073 .166-2.99 .083-2.99 .064-2.99-.026-2.99-.032-3.028-.058-3.099-.204-3.609-.485-3.87-.733-3.87-.861-3.87-.893-3.787-.893-3.647-.893-3.5-.848-3.379-.791-3.239-.727-3.067-.657-2.895-.587-2.729-.529-2.576-.3-1.996-.274-1.919-.255-1.855-.236-1.779-.236-1.715-.236-1.416-.491-1.173-.842-1.173-1.473-1.173-1.766-2.04-1.766-2.148-1.766-2.231-1.677-2.231-1.658-2.231-1.569-2.231-1.562-2.2-1.543-2.129-1.377-1.581-1.097-1.352-.861-1.352-.759-1.352-.702-1.403-.702-1.575-.702-1.722-.74-1.817-.899-2.212Z"/>
</g>
<g clip-path="url(#clip_29)">
<g opacity="0">
<g clip-path="url(#clip_30)">
<path transform="matrix(1,0,0,-1,154.3106,10.125595)" stroke-linecap="butt" stroke-miterlimit="10" stroke-linejoin="miter" fill="none" stroke="#000000" d="M0 0V0C0 0 0 0 0 0Z"/>
</g>
</g>
</g>
<g clip-path="url(#clip_31)">
<g opacity="0">
<g clip-path="url(#clip_32)">
</g>
</g>
<path transform="matrix(1,0,0,-1,156.1973,10.906696)" d="M0 0H-.228C-.273-.237-.31-.446-.392-.665-.437-.81-.465-.883-.993-.883H-1.722C-1.603-.373-1.321 .064-.911 .665-.483 1.312-.109 1.94-.109 2.66-.109 3.926-1.339 4.946-2.878 4.946-4.445 4.946-5.657 3.908-5.657 2.66-5.657 1.94-5.283 1.312-4.855 .665-4.454 .064-4.163-.373-4.044-.883H-4.773C-5.302-.883-5.329-.81-5.374-.674-5.447-.465-5.493-.228-5.538 0H-5.766L-5.466-1.475H-4.008C-3.807-1.475-3.78-1.475-3.78-1.284-3.78-.646-4.063 .155-4.272 .738-4.463 1.266-4.718 1.986-4.718 2.669-4.718 4.127-3.716 4.746-2.887 4.746-2.013 4.746-1.047 4.09-1.047 2.669-1.047 1.986-1.294 1.294-1.558 .547-1.694 .164-1.986-.656-1.986-1.284-1.986-1.475-1.958-1.475-1.749-1.475H-.301Z"/>
<path transform="matrix(1,0,0,-1,158.6782,9.769497)" d="M0 0C0 .102-.077 .242-.255 .242-.427 .242-.612 .077-.612-.108-.612-.217-.529-.351-.357-.351-.172-.351 0-.172 0 0M-1.301-3.239C-1.326-3.322-1.358-3.398-1.358-3.507-1.358-3.806-1.103-4.049-.752-4.049-.115-4.049 .166-3.169 .166-3.073 .166-2.99 .083-2.99 .064-2.99-.026-2.99-.032-3.028-.058-3.099-.204-3.609-.485-3.87-.733-3.87-.861-3.87-.893-3.787-.893-3.647-.893-3.5-.848-3.379-.791-3.239-.727-3.067-.657-2.895-.587-2.729-.529-2.576-.3-1.996-.274-1.919-.255-1.855-.236-1.779-.236-1.715-.236-1.416-.491-1.173-.842-1.173-1.473-1.173-1.766-2.04-1.766-2.148-1.766-2.231-1.677-2.231-1.658-2.231-1.569-2.231-1.562-2.2-1.543-2.129-1.377-1.581-1.097-1.352-.861-1.352-.759-1.352-.702-1.403-.702-1.575-.702-1.722-.74-1.817-.899-2.212Z"/>
</g>
</g>
</g>
</svg>
