<?xml version="1.0" encoding="UTF-8" standalone="no"?>
<!DOCTYPE svg PUBLIC "-//W3C//DTD SVG 1.1//EN"
 "http://www.w3.org/Graphics/SVG/1.1/DTD/svg11.dtd">
<!-- Generated by graphviz version 14.1.1 (20251213.1925)
 -->
<!-- Title: IPC Toolkit Dependencies Pages: 1 -->
<svg width="2200pt" height="420pt"
 viewBox="0.00 0.00 2200.00 420.00" xmlns="http://www.w3.org/2000/svg" xmlns:xlink="http://www.w3.org/1999/xlink">
<g id="graph0" class="graph" transform="scale(1 1) rotate(0) translate(4 415.5)">
<title>IPC Toolkit Dependencies</title>
<g id="clust1" class="cluster">
<title>clusterLegend</title>
<polygon fill="none" stroke="grey" stroke-width="2" points="8,-52.5 8,-361 205,-361 205,-52.5 8,-52.5"/>
<text xml:space="preserve" text-anchor="middle" x="106.5" y="-343.7" font-family="Avenir Medium" font-size="14.00" fill="grey">Legend</text>
</g>
<!-- legendNode0 -->
<g id="node1" class="node">
<title>legendNode0</title>
<path fill="#d5e8d4" stroke="#8fb976" stroke-width="2" d="M141.38,-325.5C141.38,-325.5 70.62,-325.5 70.62,-325.5 64.62,-325.5 58.62,-319.5 58.62,-313.5 58.62,-313.5 58.62,-301.5 58.62,-301.5 58.62,-295.5 64.62,-289.5 70.62,-289.5 70.62,-289.5 141.38,-289.5 141.38,-289.5 147.38,-289.5 153.38,-295.5 153.38,-301.5 153.38,-301.5 153.38,-313.5 153.38,-313.5 153.38,-319.5 147.38,-325.5 141.38,-325.5"/>
<text xml:space="preserve" text-anchor="middle" x="106" y="-303.95" font-family="Avenir Light" font-size="14.00">Static Library</text>
</g>
<!-- legendNode1 -->
<g id="node2" class="node">
<title>legendNode1</title>
<path fill="#cce7f8" stroke="#6596b2" stroke-width="2" d="M107.88,-211C107.88,-211 28.12,-211 28.12,-211 22.12,-211 16.12,-205 16.12,-199 16.12,-199 16.12,-187 16.12,-187 16.12,-181 22.12,-175 28.12,-175 28.12,-175 107.88,-175 107.88,-175 113.88,-175 119.88,-181 119.88,-187 119.88,-187 119.88,-199 119.88,-199 119.88,-205 113.88,-211 107.88,-211"/>
<text xml:space="preserve" text-anchor="middle" x="68" y="-189.45" font-family="Avenir Light" font-size="14.00">Shared Library</text>
</g>
<!-- legendNode0&#45;&gt;legendNode1 -->
<g id="edge1" class="edge">
<title>legendNode0&#45;&gt;legendNode1</title>
<path fill="none" stroke="#8fb976" stroke-width="2" d="M89.25,-288.59C89.25,-288.59 89.25,-224.96 89.25,-224.96"/>
<polygon fill="#8fb976" stroke="#8fb976" stroke-width="2" points="92.75,-224.96 89.25,-214.96 85.75,-224.96 92.75,-224.96"/>
<text xml:space="preserve" text-anchor="middle" x="96.38" y="-246.7" font-family="Avenir Light" font-size="14.00" fill="#8fb976">Public</text>
</g>
<!-- legendNode2 -->
<g id="node3" class="node">
<title>legendNode2</title>
<path fill="#ffe6cc" stroke="#daa52d" stroke-width="2" d="M123.5,-96.5C123.5,-96.5 32.5,-96.5 32.5,-96.5 26.5,-96.5 20.5,-90.5 20.5,-84.5 20.5,-84.5 20.5,-72.5 20.5,-72.5 20.5,-66.5 26.5,-60.5 32.5,-60.5 32.5,-60.5 123.5,-60.5 123.5,-60.5 129.5,-60.5 135.5,-66.5 135.5,-72.5 135.5,-72.5 135.5,-84.5 135.5,-84.5 135.5,-90.5 129.5,-96.5 123.5,-96.5"/>
<text xml:space="preserve" text-anchor="middle" x="78" y="-74.95" font-family="Avenir Light" font-size="14.00">Interface Library</text>
</g>
<!-- legendNode1&#45;&gt;legendNode2 -->
<g id="edge3" class="edge">
<title>legendNode1&#45;&gt;legendNode2</title>
<path fill="none" stroke="#be6562" stroke-width="2" d="M70.19,-174.09C70.19,-174.09 70.19,-110.46 70.19,-110.46"/>
<polygon fill="#be6562" stroke="#be6562" stroke-width="2" points="73.69,-110.46 70.19,-100.46 66.69,-110.46 73.69,-110.46"/>
<text xml:space="preserve" text-anchor="middle" x="94" y="-132.2" font-family="Avenir Light" font-size="14.00" fill="#be6562">Private</text>
</g>
<!-- legendNode2&#45;&gt;legendNode0 -->
<g id="edge2" class="edge">
<title>legendNode2&#45;&gt;legendNode0</title>
<path fill="none" stroke="#daa52d" stroke-width="2" d="M127.69,-97.24C127.69,-97.24 127.69,-275.47 127.69,-275.47"/>
<polygon fill="#daa52d" stroke="#daa52d" stroke-width="2" points="124.19,-275.47 127.69,-285.47 131.19,-275.47 124.19,-275.47"/>
<text xml:space="preserve" text-anchor="middle" x="170" y="-189.45" font-family="Avenir Light" font-size="14.00" fill="#daa52d">Interface</text>
</g>
<!-- node5 -->
<g id="node4" class="node">
<title>node5</title>
<path fill="#d5e8d4" stroke="#8fb976" stroke-width="2" d="M1338.75,-411.5C1338.75,-411.5 1231.25,-411.5 1231.25,-411.5 1225.25,-411.5 1219.25,-405.5 1219.25,-399.5 1219.25,-399.5 1219.25,-381 1219.25,-381 1219.25,-375 1225.25,-369 1231.25,-369 1231.25,-369 1338.75,-369 1338.75,-369 1344.75,-369 1350.75,-375 1350.75,-381 1350.75,-381 1350.75,-399.5 1350.75,-399.5 1350.75,-405.5 1344.75,-411.5 1338.75,-411.5"/>
<text xml:space="preserve" text-anchor="middle" x="1285" y="-394.2" font-family="Menlo" font-size="14.00">ipc_toolkit</text>
<text xml:space="preserve" text-anchor="middle" x="1285" y="-376.95" font-family="Menlo" font-size="14.00">(ipc::toolkit)</text>
</g>
<!-- node0 -->
<g id="node5" class="node">
<title>node0</title>
<path fill="#ffe6cc" stroke="#daa52d" stroke-width="2" d="M1113.88,-42.5C1113.88,-42.5 998.12,-42.5 998.12,-42.5 992.12,-42.5 986.12,-36.5 986.12,-30.5 986.12,-30.5 986.12,-12 986.12,-12 986.12,-6 992.12,0 998.12,0 998.12,0 1113.88,0 1113.88,0 1119.88,0 1125.88,-6 1125.88,-12 1125.88,-12 1125.88,-30.5 1125.88,-30.5 1125.88,-36.5 1119.88,-42.5 1113.88,-42.5"/>
<text xml:space="preserve" text-anchor="middle" x="1056" y="-25.2" font-family="Menlo" font-size="14.00">Eigen3_Eigen</text>
<text xml:space="preserve" text-anchor="middle" x="1056" y="-7.95" font-family="Menlo" font-size="14.00">(Eigen3::Eigen)</text>
</g>
<!-- node5&#45;&gt;node0 -->
<g id="edge7" class="edge">
<title>node5&#45;&gt;node0</title>
<path fill="none" stroke="#8fb976" stroke-width="2" d="M1218.27,-375C1135.44,-375 1004.94,-375 1004.94,-375 1004.94,-375 1004.94,-56.41 1004.94,-56.41"/>
<polygon fill="#8fb976" stroke="#8fb976" stroke-width="2" points="1008.44,-56.41 1004.94,-46.41 1001.44,-56.41 1008.44,-56.41"/>
</g>
<!-- node1 -->
<g id="node6" class="node">
<title>node1</title>
<path fill="#cce7f8" stroke="#6596b2" stroke-width="2" d="M1598.75,-271.5C1598.75,-271.5 1491.25,-271.5 1491.25,-271.5 1485.25,-271.5 1479.25,-265.5 1479.25,-259.5 1479.25,-259.5 1479.25,-241 1479.25,-241 1479.25,-235 1485.25,-229 1491.25,-229 1491.25,-229 1598.75,-229 1598.75,-229 1604.75,-229 1610.75,-235 1610.75,-241 1610.75,-241 1610.75,-259.5 1610.75,-259.5 1610.75,-265.5 1604.75,-271.5 1598.75,-271.5"/>
<text xml:space="preserve" text-anchor="middle" x="1545" y="-254.2" font-family="Menlo" font-size="14.00">filib</text>
<text xml:space="preserve" text-anchor="middle" x="1545" y="-236.95" font-family="Menlo" font-size="14.00">(filib::filib)</text>
</g>
<!-- node5&#45;&gt;node1 -->
<g id="edge8" class="edge">
<title>node5&#45;&gt;node1</title>
<path fill="none" stroke="#8fb976" stroke-width="2" d="M1351.62,-378C1428.65,-378 1545,-378 1545,-378 1545,-378 1545,-285.24 1545,-285.24"/>
<polygon fill="#8fb976" stroke="#8fb976" stroke-width="2" points="1548.5,-285.24 1545,-275.24 1541.5,-285.24 1548.5,-285.24"/>
</g>
<!-- node2 -->
<g id="node7" class="node">
<title>node2</title>
<path fill="#ffe6cc" stroke="#daa52d" stroke-width="2" d="M323.38,-157C323.38,-157 240.62,-157 240.62,-157 234.62,-157 228.62,-151 228.62,-145 228.62,-145 228.62,-126.5 228.62,-126.5 228.62,-120.5 234.62,-114.5 240.62,-114.5 240.62,-114.5 323.38,-114.5 323.38,-114.5 329.38,-114.5 335.38,-120.5 335.38,-126.5 335.38,-126.5 335.38,-145 335.38,-145 335.38,-151 329.38,-157 323.38,-157"/>
<text xml:space="preserve" text-anchor="middle" x="282" y="-139.7" font-family="Menlo" font-size="14.00">igl_core</text>
<text xml:space="preserve" text-anchor="middle" x="282" y="-122.45" font-family="Menlo" font-size="14.00">(igl::core)</text>
</g>
<!-- node5&#45;&gt;node2 -->
<g id="edge9" class="edge">
<title>node5&#45;&gt;node2</title>
<path fill="none" stroke="#be6562" stroke-width="2" d="M1218.42,-405C988.19,-405 239.75,-405 239.75,-405 239.75,-405 239.75,-170.81 239.75,-170.81"/>
<polygon fill="#be6562" stroke="#be6562" stroke-width="2" points="243.25,-170.81 239.75,-160.81 236.25,-170.81 243.25,-170.81"/>
</g>
<!-- node3 -->
<g id="node8" class="node">
<title>node3</title>
<path fill="#ffe6cc" stroke="#daa52d" stroke-width="2" d="M395.12,-271.5C395.12,-271.5 262.88,-271.5 262.88,-271.5 256.88,-271.5 250.88,-265.5 250.88,-259.5 250.88,-259.5 250.88,-241 250.88,-241 250.88,-235 256.88,-229 262.88,-229 262.88,-229 395.12,-229 395.12,-229 401.12,-229 407.12,-235 407.12,-241 407.12,-241 407.12,-259.5 407.12,-259.5 407.12,-265.5 401.12,-271.5 395.12,-271.5"/>
<text xml:space="preserve" text-anchor="middle" x="329" y="-254.2" font-family="Menlo" font-size="14.00">igl_predicates</text>
<text xml:space="preserve" text-anchor="middle" x="329" y="-236.95" font-family="Menlo" font-size="14.00">(igl::predicates)</text>
</g>
<!-- node5&#45;&gt;node3 -->
<g id="edge10" class="edge">
<title>node5&#45;&gt;node3</title>
<path fill="none" stroke="#be6562" stroke-width="2" d="M1218.53,-399C1001.74,-399 329,-399 329,-399 329,-399 329,-285.23 329,-285.23"/>
<polygon fill="#be6562" stroke="#be6562" stroke-width="2" points="332.5,-285.23 329,-275.23 325.5,-285.23 332.5,-285.23"/>
</g>
<!-- node6 -->
<g id="node10" class="node">
<title>node6</title>
<path fill="#ffe6cc" stroke="#daa52d" stroke-width="2" d="M1765,-271.5C1765,-271.5 1641,-271.5 1641,-271.5 1635,-271.5 1629,-265.5 1629,-259.5 1629,-259.5 1629,-241 1629,-241 1629,-235 1635,-229 1641,-229 1641,-229 1765,-229 1765,-229 1771,-229 1777,-235 1777,-241 1777,-241 1777,-259.5 1777,-259.5 1777,-265.5 1771,-271.5 1765,-271.5"/>
<text xml:space="preserve" text-anchor="middle" x="1703" y="-254.2" font-family="Menlo" font-size="14.00">robin_map</text>
<text xml:space="preserve" text-anchor="middle" x="1703" y="-236.95" font-family="Menlo" font-size="14.00">(tsl::robin_map)</text>
</g>
<!-- node5&#45;&gt;node6 -->
<g id="edge11" class="edge">
<title>node5&#45;&gt;node6</title>
<path fill="none" stroke="#be6562" stroke-width="2" d="M1351.7,-386C1469.71,-386 1703,-386 1703,-386 1703,-386 1703,-285.39 1703,-285.39"/>
<polygon fill="#be6562" stroke="#be6562" stroke-width="2" points="1706.5,-285.39 1703,-275.39 1699.5,-285.39 1706.5,-285.39"/>
</g>
<!-- node7 -->
<g id="node11" class="node">
<title>node7</title>
<path fill="#d5e8d4" stroke="#8fb976" stroke-width="2" d="M1244.5,-271.5C1244.5,-271.5 1021.5,-271.5 1021.5,-271.5 1015.5,-271.5 1009.5,-265.5 1009.5,-259.5 1009.5,-259.5 1009.5,-241 1009.5,-241 1009.5,-235 1015.5,-229 1021.5,-229 1021.5,-229 1244.5,-229 1244.5,-229 1250.5,-229 1256.5,-235 1256.5,-241 1256.5,-241 1256.5,-259.5 1256.5,-259.5 1256.5,-265.5 1250.5,-271.5 1244.5,-271.5"/>
<text xml:space="preserve" text-anchor="middle" x="1133" y="-254.2" font-family="Menlo" font-size="14.00">scalable_ccd</text>
<text xml:space="preserve" text-anchor="middle" x="1133" y="-236.95" font-family="Menlo" font-size="14.00">(scalable_ccd::scalable_ccd)</text>
</g>
<!-- node5&#45;&gt;node7 -->
<g id="edge15" class="edge">
<title>node5&#45;&gt;node7</title>
<path fill="none" stroke="#be6562" stroke-width="2" d="M1237.88,-368.07C1237.88,-368.07 1237.88,-285.36 1237.88,-285.36"/>
<polygon fill="#be6562" stroke="#be6562" stroke-width="2" points="1241.38,-285.36 1237.88,-275.36 1234.38,-285.36 1241.38,-285.36"/>
</g>
<!-- node8 -->
<g id="node12" class="node">
<title>node8</title>
<path fill="#d5e8d4" stroke="#8fb976" stroke-width="2" d="M905,-157C905,-157 781,-157 781,-157 775,-157 769,-151 769,-145 769,-145 769,-126.5 769,-126.5 769,-120.5 775,-114.5 781,-114.5 781,-114.5 905,-114.5 905,-114.5 911,-114.5 917,-120.5 917,-126.5 917,-126.5 917,-145 917,-145 917,-151 911,-157 905,-157"/>
<text xml:space="preserve" text-anchor="middle" x="843" y="-139.7" font-family="Menlo" font-size="14.00">spdlog</text>
<text xml:space="preserve" text-anchor="middle" x="843" y="-122.45" font-family="Menlo" font-size="14.00">(spdlog::spdlog)</text>
</g>
<!-- node5&#45;&gt;node8 -->
<g id="edge18" class="edge">
<title>node5&#45;&gt;node8</title>
<path fill="none" stroke="#8fb976" stroke-width="2" d="M1218.29,-381C1132.89,-381 995.81,-381 995.81,-381 995.81,-381 995.81,-143 995.81,-143 995.81,-143 930.64,-143 930.64,-143"/>
<polygon fill="#8fb976" stroke="#8fb976" stroke-width="2" points="930.64,-139.5 920.64,-143 930.64,-146.5 930.64,-139.5"/>
</g>
<!-- node9 -->
<g id="node13" class="node">
<title>node9</title>
<path fill="#d5e8d4" stroke="#8fb976" stroke-width="2" d="M1322.25,-157C1322.25,-157 1247.75,-157 1247.75,-157 1241.75,-157 1235.75,-151 1235.75,-145 1235.75,-145 1235.75,-126.5 1235.75,-126.5 1235.75,-120.5 1241.75,-114.5 1247.75,-114.5 1247.75,-114.5 1322.25,-114.5 1322.25,-114.5 1328.25,-114.5 1334.25,-120.5 1334.25,-126.5 1334.25,-126.5 1334.25,-145 1334.25,-145 1334.25,-151 1328.25,-157 1322.25,-157"/>
<text xml:space="preserve" text-anchor="middle" x="1285" y="-139.7" font-family="Menlo" font-size="14.00">tbb</text>
<text xml:space="preserve" text-anchor="middle" x="1285" y="-122.45" font-family="Menlo" font-size="14.00">(TBB::tbb)</text>
</g>
<!-- node5&#45;&gt;node9 -->
<g id="edge19" class="edge">
<title>node5&#45;&gt;node9</title>
<path fill="none" stroke="#be6562" stroke-width="2" d="M1284.75,-368.11C1284.75,-368.11 1284.75,-170.68 1284.75,-170.68"/>
<polygon fill="#be6562" stroke="#be6562" stroke-width="2" points="1288.25,-170.68 1284.75,-160.68 1281.25,-170.68 1288.25,-170.68"/>
</g>
<!-- node10 -->
<g id="node14" class="node">
<title>node10</title>
<path fill="#d5e8d4" stroke="#8fb976" stroke-width="2" d="M627,-271.5C627,-271.5 437,-271.5 437,-271.5 431,-271.5 425,-265.5 425,-259.5 425,-259.5 425,-241 425,-241 425,-235 431,-229 437,-229 437,-229 627,-229 627,-229 633,-229 639,-235 639,-241 639,-241 639,-259.5 639,-259.5 639,-265.5 633,-271.5 627,-271.5"/>
<text xml:space="preserve" text-anchor="middle" x="532" y="-254.2" font-family="Menlo" font-size="14.00">simple_bvh</text>
<text xml:space="preserve" text-anchor="middle" x="532" y="-236.95" font-family="Menlo" font-size="14.00">(simple_bvh::simple_bvh)</text>
</g>
<!-- node5&#45;&gt;node10 -->
<g id="edge17" class="edge">
<title>node5&#45;&gt;node10</title>
<path fill="none" stroke="#be6562" stroke-width="2" d="M1218.51,-393C1034.49,-393 532,-393 532,-393 532,-393 532,-285.27 532,-285.27"/>
<polygon fill="#be6562" stroke="#be6562" stroke-width="2" points="535.5,-285.27 532,-275.27 528.5,-285.27 535.5,-285.27"/>
</g>
<!-- node11 -->
<g id="node15" class="node">
<title>node11</title>
<path fill="#d5e8d4" stroke="#8fb976" stroke-width="2" d="M979.25,-271.5C979.25,-271.5 706.75,-271.5 706.75,-271.5 700.75,-271.5 694.75,-265.5 694.75,-259.5 694.75,-259.5 694.75,-241 694.75,-241 694.75,-235 700.75,-229 706.75,-229 706.75,-229 979.25,-229 979.25,-229 985.25,-229 991.25,-235 991.25,-241 991.25,-241 991.25,-259.5 991.25,-259.5 991.25,-265.5 985.25,-271.5 979.25,-271.5"/>
<text xml:space="preserve" text-anchor="middle" x="843" y="-254.2" font-family="Menlo" font-size="14.00">tight_inclusion</text>
<text xml:space="preserve" text-anchor="middle" x="843" y="-236.95" font-family="Menlo" font-size="14.00">(tight_inclusion::tight_inclusion)</text>
</g>
<!-- node5&#45;&gt;node11 -->
<g id="edge22" class="edge">
<title>node5&#45;&gt;node11</title>
<path fill="none" stroke="#be6562" stroke-width="2" d="M1218.35,-387C1094.87,-387 843,-387 843,-387 843,-387 843,-285.25 843,-285.25"/>
<polygon fill="#be6562" stroke="#be6562" stroke-width="2" points="846.5,-285.25 843,-275.25 839.5,-285.25 846.5,-285.25"/>
</g>
<!-- node12 -->
<g id="node16" class="node">
<title>node12</title>
<path fill="#d5e8d4" stroke="#8fb976" stroke-width="2" d="M1898.5,-271.5C1898.5,-271.5 1807.5,-271.5 1807.5,-271.5 1801.5,-271.5 1795.5,-265.5 1795.5,-259.5 1795.5,-259.5 1795.5,-241 1795.5,-241 1795.5,-235 1801.5,-229 1807.5,-229 1807.5,-229 1898.5,-229 1898.5,-229 1904.5,-229 1910.5,-235 1910.5,-241 1910.5,-241 1910.5,-259.5 1910.5,-259.5 1910.5,-265.5 1904.5,-271.5 1898.5,-271.5"/>
<text xml:space="preserve" text-anchor="middle" x="1853" y="-254.2" font-family="Menlo" font-size="14.00">absl_hash</text>
<text xml:space="preserve" text-anchor="middle" x="1853" y="-236.95" font-family="Menlo" font-size="14.00">(absl::hash)</text>
</g>
<!-- node5&#45;&gt;node12 -->
<g id="edge23" class="edge">
<title>node5&#45;&gt;node12</title>
<path fill="none" stroke="#be6562" stroke-width="2" d="M1351.55,-395C1501.54,-395 1853,-395 1853,-395 1853,-395 1853,-285.26 1853,-285.26"/>
<polygon fill="#be6562" stroke="#be6562" stroke-width="2" points="1856.5,-285.26 1853,-275.26 1849.5,-285.26 1856.5,-285.26"/>
</g>
<!-- node13 -->
<g id="node17" class="node">
<title>node13</title>
<path fill="#d5e8d4" stroke="#8fb976" stroke-width="2" d="M1449,-271.5C1449,-271.5 1325,-271.5 1325,-271.5 1319,-271.5 1313,-265.5 1313,-259.5 1313,-259.5 1313,-241 1313,-241 1313,-235 1319,-229 1325,-229 1325,-229 1449,-229 1449,-229 1455,-229 1461,-235 1461,-241 1461,-241 1461,-259.5 1461,-259.5 1461,-265.5 1455,-271.5 1449,-271.5"/>
<text xml:space="preserve" text-anchor="middle" x="1387" y="-254.2" font-family="Menlo" font-size="14.00">TinyAD</text>
<text xml:space="preserve" text-anchor="middle" x="1387" y="-236.95" font-family="Menlo" font-size="14.00">(TinyAD::TinyAD)</text>
</g>
<!-- node5&#45;&gt;node13 -->
<g id="edge24" class="edge">
<title>node5&#45;&gt;node13</title>
<path fill="none" stroke="#8fb976" stroke-width="2" d="M1331.88,-368.07C1331.88,-368.07 1331.88,-285.36 1331.88,-285.36"/>
<polygon fill="#8fb976" stroke="#8fb976" stroke-width="2" points="1335.38,-285.36 1331.88,-275.36 1328.38,-285.36 1335.38,-285.36"/>
</g>
<!-- node14 -->
<g id="node18" class="node">
<title>node14</title>
<path fill="#ffe6cc" stroke="#daa52d" stroke-width="2" d="M2179.75,-271.5C2179.75,-271.5 1940.25,-271.5 1940.25,-271.5 1934.25,-271.5 1928.25,-265.5 1928.25,-259.5 1928.25,-259.5 1928.25,-241 1928.25,-241 1928.25,-235 1934.25,-229 1940.25,-229 1940.25,-229 2179.75,-229 2179.75,-229 2185.75,-229 2191.75,-235 2191.75,-241 2191.75,-241 2191.75,-259.5 2191.75,-259.5 2191.75,-265.5 2185.75,-271.5 2179.75,-271.5"/>
<text xml:space="preserve" text-anchor="middle" x="2060" y="-254.2" font-family="Menlo" font-size="14.00">nlohmann_json</text>
<text xml:space="preserve" text-anchor="middle" x="2060" y="-236.95" font-family="Menlo" font-size="14.00">(nlohmann_json::nlohmann_json)</text>
</g>
<!-- node5&#45;&gt;node14 -->
<g id="edge27" class="edge">
<title>node5&#45;&gt;node14</title>
<path fill="none" stroke="#8fb976" stroke-width="2" d="M1351.75,-403C1539.73,-403 2060,-403 2060,-403 2060,-403 2060,-285.49 2060,-285.49"/>
<polygon fill="#8fb976" stroke="#8fb976" stroke-width="2" points="2063.5,-285.49 2060,-275.49 2056.5,-285.49 2063.5,-285.49"/>
</g>
<!-- node2&#45;&gt;node0 -->
<g id="edge4" class="edge">
<title>node2&#45;&gt;node0</title>
<path fill="none" stroke="#daa52d" stroke-width="2" d="M282,-113.7C282,-78.62 282,-14 282,-14 282,-14 972.23,-14 972.23,-14"/>
<polygon fill="#daa52d" stroke="#daa52d" stroke-width="2" points="972.23,-17.5 982.23,-14 972.23,-10.5 972.23,-17.5"/>
</g>
<!-- node3&#45;&gt;node2 -->
<g id="edge5" class="edge">
<title>node3&#45;&gt;node2</title>
<path fill="none" stroke="#daa52d" stroke-width="2" d="M293.12,-228.17C293.12,-228.17 293.12,-170.79 293.12,-170.79"/>
<polygon fill="#daa52d" stroke="#daa52d" stroke-width="2" points="296.63,-170.79 293.13,-160.79 289.63,-170.79 296.63,-170.79"/>
</g>
<!-- node4 -->
<g id="node9" class="node">
<title>node4</title>
<path fill="#d5e8d4" stroke="#8fb976" stroke-width="2" d="M555,-157C555,-157 365,-157 365,-157 359,-157 353,-151 353,-145 353,-145 353,-126.5 353,-126.5 353,-120.5 359,-114.5 365,-114.5 365,-114.5 555,-114.5 555,-114.5 561,-114.5 567,-120.5 567,-126.5 567,-126.5 567,-145 567,-145 567,-151 561,-157 555,-157"/>
<text xml:space="preserve" text-anchor="middle" x="460" y="-139.7" font-family="Menlo" font-size="14.00">predicates</text>
<text xml:space="preserve" text-anchor="middle" x="460" y="-122.45" font-family="Menlo" font-size="14.00">(predicates::predicates)</text>
</g>
<!-- node3&#45;&gt;node4 -->
<g id="edge6" class="edge">
<title>node3&#45;&gt;node4</title>
<path fill="none" stroke="#daa52d" stroke-width="2" d="M380.06,-228.17C380.06,-228.17 380.06,-170.79 380.06,-170.79"/>
<polygon fill="#daa52d" stroke="#daa52d" stroke-width="2" points="383.56,-170.79 380.06,-160.79 376.56,-170.79 383.56,-170.79"/>
</g>
<!-- node7&#45;&gt;node0 -->
<g id="edge12" class="edge">
<title>node7&#45;&gt;node0</title>
<path fill="none" stroke="#8fb976" stroke-width="2" d="M1087.08,-228.29C1087.08,-228.29 1087.08,-56.5 1087.08,-56.5"/>
<polygon fill="#8fb976" stroke="#8fb976" stroke-width="2" points="1090.58,-56.5 1087.08,-46.5 1083.58,-56.5 1090.58,-56.5"/>
</g>
<!-- node7&#45;&gt;node8 -->
<g id="edge13" class="edge">
<title>node7&#45;&gt;node8</title>
<path fill="none" stroke="#8fb976" stroke-width="2" d="M1048.29,-228.01C1048.29,-193.01 1048.29,-129 1048.29,-129 1048.29,-129 931.01,-129 931.01,-129"/>
<polygon fill="#8fb976" stroke="#8fb976" stroke-width="2" points="931.01,-125.5 921.01,-129 931.01,-132.5 931.01,-125.5"/>
</g>
<!-- node7&#45;&gt;node9 -->
<g id="edge14" class="edge">
<title>node7&#45;&gt;node9</title>
<path fill="none" stroke="#be6562" stroke-width="2" d="M1246.12,-228.17C1246.12,-228.17 1246.12,-170.79 1246.12,-170.79"/>
<polygon fill="#be6562" stroke="#be6562" stroke-width="2" points="1249.63,-170.79 1246.13,-160.79 1242.63,-170.79 1249.63,-170.79"/>
</g>
<!-- node10&#45;&gt;node0 -->
<g id="edge16" class="edge">
<title>node10&#45;&gt;node0</title>
<path fill="none" stroke="#8fb976" stroke-width="2" d="M603,-228.13C603,-171.91 603,-28 603,-28 603,-28 972.19,-28 972.19,-28"/>
<polygon fill="#8fb976" stroke="#8fb976" stroke-width="2" points="972.19,-31.5 982.19,-28 972.19,-24.5 972.19,-31.5"/>
</g>
<!-- node11&#45;&gt;node0 -->
<g id="edge20" class="edge">
<title>node11&#45;&gt;node0</title>
<path fill="none" stroke="#8fb976" stroke-width="2" d="M991.91,-250C997.26,-250 1000.38,-250 1000.38,-250 1000.38,-250 1000.38,-56.21 1000.38,-56.21"/>
<polygon fill="#8fb976" stroke="#8fb976" stroke-width="2" points="1003.88,-56.21 1000.38,-46.21 996.88,-56.21 1003.88,-56.21"/>
</g>
<!-- node11&#45;&gt;node8 -->
<g id="edge21" class="edge">
<title>node11&#45;&gt;node8</title>
<path fill="none" stroke="#8fb976" stroke-width="2" d="M843,-228.17C843,-228.17 843,-170.79 843,-170.79"/>
<polygon fill="#8fb976" stroke="#8fb976" stroke-width="2" points="846.5,-170.79 843,-160.79 839.5,-170.79 846.5,-170.79"/>
</g>
<!-- node13&#45;&gt;node0 -->
<g id="edge25" class="edge">
<title>node13&#45;&gt;node0</title>
<path fill="none" stroke="#be6562" stroke-width="2" d="M1397.62,-228.27C1397.62,-170.89 1397.62,-21 1397.62,-21 1397.62,-21 1139.81,-21 1139.81,-21"/>
<polygon fill="#be6562" stroke="#be6562" stroke-width="2" points="1139.81,-17.5 1129.81,-21 1139.81,-24.5 1139.81,-17.5"/>
</g>
<!-- node13&#45;&gt;node9 -->
<g id="edge26" class="edge">
<title>node13&#45;&gt;node9</title>
<path fill="none" stroke="#be6562" stroke-width="2" d="M1323.62,-228.17C1323.62,-228.17 1323.62,-170.79 1323.62,-170.79"/>
<polygon fill="#be6562" stroke="#be6562" stroke-width="2" points="1327.13,-170.79 1323.63,-160.79 1320.13,-170.79 1327.13,-170.79"/>
</g>
</g>
</svg>
