<?xml version="1.0" encoding="UTF-8" standalone="no"?>
<!DOCTYPE svg PUBLIC "-//W3C//DTD SVG 1.1//EN"
 "http://www.w3.org/Graphics/SVG/1.1/DTD/svg11.dtd">
<!-- Generated by graphviz version 2.43.0 (0)
 -->
<!-- Title: %3 Pages: 1 -->
<svg width="438pt" height="188pt"
 viewBox="0.00 0.00 438.00 188.00" xmlns="http://www.w3.org/2000/svg" xmlns:xlink="http://www.w3.org/1999/xlink">
<g id="graph0" class="graph" transform="scale(1 1) rotate(0) translate(4 184)">
<title>%3</title>
<polygon fill="transparent" stroke="transparent" points="-4,4 -4,-184 434,-184 434,4 -4,4"/>
<!-- 3 -->
<g id="node1" class="node">
<title>3</title>
<g id="a_node1"><a xlink:title="ipc::ContinuousCollisionCandidate">
<polygon fill="#ffffff" stroke="black" points="430,-36 168,-36 168,0 430,0 430,-36"/>
<text text-anchor="middle" x="299" y="-14.3" font-family="Times,serif" font-size="14.00">ipc::ContinuousCollisionCandidate</text>
</a>
</g>
</g>
<!-- 1 -->
<g id="node2" class="node">
<title>1</title>
<g id="a_node2"><a xlink:title="ipc::EdgeEdgeConstraint">
<polygon fill="#bfbfbf" stroke="black" points="293,-180 97,-180 97,-144 293,-144 293,-180"/>
<text text-anchor="middle" x="195" y="-158.3" font-family="Times,serif" font-size="14.00">ipc::EdgeEdgeConstraint</text>
</a>
</g>
</g>
<!-- 4 -->
<g id="node3" class="node">
<title>4</title>
<g id="a_node3"><a xlink:title="ipc::CollisionConstraint">
<polygon fill="#ffffff" stroke="black" points="184,-108 0,-108 0,-72 184,-72 184,-108"/>
<text text-anchor="middle" x="92" y="-86.3" font-family="Times,serif" font-size="14.00">ipc::CollisionConstraint</text>
</a>
</g>
</g>
<!-- 1&#45;&gt;4 -->
<g id="edge2" class="edge">
<title>1&#45;&gt;4</title>
<g id="a_edge2"><a xlink:title="public&#45;inheritance">
<path fill="none" stroke="#ce93d8" d="M169.8,-143.88C156.59,-134.89 140.21,-123.76 125.89,-114.03"/>
<polygon fill="#ce93d8" stroke="#ce93d8" points="127.53,-110.92 117.29,-108.19 123.6,-116.71 127.53,-110.92"/>
</a>
</g>
</g>
<!-- 2 -->
<g id="node4" class="node">
<title>2</title>
<g id="a_node4"><a xlink:title="ipc::EdgeEdgeCandidate">
<polygon fill="#ffffff" stroke="black" points="395.5,-108 202.5,-108 202.5,-72 395.5,-72 395.5,-108"/>
<text text-anchor="middle" x="299" y="-86.3" font-family="Times,serif" font-size="14.00">ipc::EdgeEdgeCandidate</text>
</a>
</g>
</g>
<!-- 1&#45;&gt;2 -->
<g id="edge1" class="edge">
<title>1&#45;&gt;2</title>
<g id="a_edge1"><a xlink:title="public&#45;inheritance">
<path fill="none" stroke="#ce93d8" d="M220.44,-143.88C233.79,-134.89 250.32,-123.76 264.78,-114.03"/>
<polygon fill="#ce93d8" stroke="#ce93d8" points="267.12,-116.68 273.46,-108.19 263.21,-110.87 267.12,-116.68"/>
</a>
</g>
</g>
<!-- 2&#45;&gt;3 -->
<g id="edge3" class="edge">
<title>2&#45;&gt;3</title>
<g id="a_edge3"><a xlink:title="public&#45;inheritance">
<path fill="none" stroke="#ce93d8" d="M299,-71.7C299,-63.98 299,-54.71 299,-46.11"/>
<polygon fill="#ce93d8" stroke="#ce93d8" points="302.5,-46.1 299,-36.1 295.5,-46.1 302.5,-46.1"/>
</a>
</g>
</g>
</g>
</svg>
