<?xml version="1.0" encoding="UTF-8" standalone="no"?>
<!DOCTYPE svg PUBLIC "-//W3C//DTD SVG 1.1//EN"
 "http://www.w3.org/Graphics/SVG/1.1/DTD/svg11.dtd">
<!-- Generated by graphviz version 2.43.0 (0)
 -->
<!-- Title: %3 Pages: 1 -->
<svg width="472pt" height="260pt"
 viewBox="0.00 0.00 471.50 260.00" xmlns="http://www.w3.org/2000/svg" xmlns:xlink="http://www.w3.org/1999/xlink">
<g id="graph0" class="graph" transform="scale(1 1) rotate(0) translate(4 256)">
<title>%3</title>
<polygon fill="transparent" stroke="transparent" points="-4,4 -4,-256 467.5,-256 467.5,4 -4,4"/>
<!-- 4 -->
<g id="node1" class="node">
<title>4</title>
<g id="a_node1"><a xlink:title="ipc::CollisionStencil">
<polygon fill="#ffffff" stroke="black" points="290.5,-36 132.5,-36 132.5,0 290.5,0 290.5,-36"/>
<text text-anchor="middle" x="211.5" y="-14.3" font-family="Times,serif" font-size="14.00">ipc::CollisionStencil</text>
</a>
</g>
</g>
<!-- 3 -->
<g id="node2" class="node">
<title>3</title>
<g id="a_node2"><a xlink:title="ipc::ContinuousCollisionCandidate">
<polygon fill="#ffffff" stroke="black" points="463.5,-108 201.5,-108 201.5,-72 463.5,-72 463.5,-108"/>
<text text-anchor="middle" x="332.5" y="-86.3" font-family="Times,serif" font-size="14.00">ipc::ContinuousCollisionCandidate</text>
</a>
</g>
</g>
<!-- 3&#45;&gt;4 -->
<g id="edge1" class="edge">
<title>3&#45;&gt;4</title>
<g id="a_edge1"><a xlink:title="public&#45;inheritance">
<path fill="none" stroke="#ce93d8" d="M302.9,-71.88C286.93,-62.64 267.04,-51.13 249.89,-41.21"/>
<polygon fill="#ce93d8" stroke="#ce93d8" points="251.62,-38.17 241.21,-36.19 248.12,-44.23 251.62,-38.17"/>
</a>
</g>
</g>
<!-- 5 -->
<g id="node3" class="node">
<title>5</title>
<g id="a_node3"><a xlink:title="ipc::TangentialCollision">
<polygon fill="#ffffff" stroke="black" points="183,-108 0,-108 0,-72 183,-72 183,-108"/>
<text text-anchor="middle" x="91.5" y="-86.3" font-family="Times,serif" font-size="14.00">ipc::TangentialCollision</text>
</a>
</g>
</g>
<!-- 5&#45;&gt;4 -->
<g id="edge2" class="edge">
<title>5&#45;&gt;4</title>
<g id="a_edge2"><a xlink:title="public&#45;inheritance">
<path fill="none" stroke="#ce93d8" d="M120.86,-71.88C136.55,-62.72 156.06,-51.34 172.95,-41.48"/>
<polygon fill="#ce93d8" stroke="#ce93d8" points="175.16,-44.25 182.03,-36.19 171.63,-38.21 175.16,-44.25"/>
</a>
</g>
</g>
<!-- 2 -->
<g id="node4" class="node">
<title>2</title>
<g id="a_node4"><a xlink:title="ipc::VertexVertexCandidate">
<polygon fill="#ffffff" stroke="black" points="411.5,-180 199.5,-180 199.5,-144 411.5,-144 411.5,-180"/>
<text text-anchor="middle" x="305.5" y="-158.3" font-family="Times,serif" font-size="14.00">ipc::VertexVertexCandidate</text>
</a>
</g>
</g>
<!-- 2&#45;&gt;3 -->
<g id="edge3" class="edge">
<title>2&#45;&gt;3</title>
<g id="a_edge3"><a xlink:title="public&#45;inheritance">
<path fill="none" stroke="#ce93d8" d="M312.17,-143.7C315.21,-135.81 318.88,-126.3 322.26,-117.55"/>
<polygon fill="#ce93d8" stroke="#ce93d8" points="325.57,-118.69 325.9,-108.1 319.04,-116.17 325.57,-118.69"/>
</a>
</g>
</g>
<!-- 1 -->
<g id="node5" class="node">
<title>1</title>
<g id="a_node5"><a xlink:title="ipc::VertexVertexTangentialCollision">
<polygon fill="#bfbfbf" stroke="black" points="349.5,-252 73.5,-252 73.5,-216 349.5,-216 349.5,-252"/>
<text text-anchor="middle" x="211.5" y="-230.3" font-family="Times,serif" font-size="14.00">ipc::VertexVertexTangentialCollision</text>
</a>
</g>
</g>
<!-- 1&#45;&gt;5 -->
<g id="edge5" class="edge">
<title>1&#45;&gt;5</title>
<g id="a_edge5"><a xlink:title="public&#45;inheritance">
<path fill="none" stroke="#ce93d8" d="M197.03,-215.87C176.03,-191.03 137,-144.85 112.75,-116.14"/>
<polygon fill="#ce93d8" stroke="#ce93d8" points="115.15,-113.57 106.03,-108.19 109.81,-118.09 115.15,-113.57"/>
</a>
</g>
</g>
<!-- 1&#45;&gt;2 -->
<g id="edge4" class="edge">
<title>1&#45;&gt;2</title>
<g id="a_edge4"><a xlink:title="public&#45;inheritance">
<path fill="none" stroke="#ce93d8" d="M234.74,-215.7C246.69,-206.8 261.42,-195.82 274.35,-186.2"/>
<polygon fill="#ce93d8" stroke="#ce93d8" points="276.6,-188.88 282.53,-180.1 272.42,-183.27 276.6,-188.88"/>
</a>
</g>
</g>
</g>
</svg>
