<?xml version="1.0" encoding="UTF-8" standalone="no"?>
<!DOCTYPE svg PUBLIC "-//W3C//DTD SVG 1.1//EN"
 "http://www.w3.org/Graphics/SVG/1.1/DTD/svg11.dtd">
<!-- Generated by graphviz version 2.43.0 (0)
 -->
<!-- Title: %3 Pages: 1 -->
<svg width="443pt" height="188pt"
 viewBox="0.00 0.00 443.00 188.00" xmlns="http://www.w3.org/2000/svg" xmlns:xlink="http://www.w3.org/1999/xlink">
<g id="graph0" class="graph" transform="scale(1 1) rotate(0) translate(4 184)">
<title>%3</title>
<polygon fill="transparent" stroke="transparent" points="-4,4 -4,-184 439,-184 439,4 -4,4"/>
<!-- 3 -->
<g id="node1" class="node">
<title>3</title>
<g id="a_node1"><a xlink:title="ipc::ContinuousCollisionCandidate">
<polygon fill="#ffffff" stroke="black" points="262,-36 0,-36 0,0 262,0 262,-36"/>
<text text-anchor="middle" x="131" y="-14.3" font-family="Times,serif" font-size="14.00">ipc::ContinuousCollisionCandidate</text>
</a>
</g>
</g>
<!-- 2 -->
<g id="node2" class="node">
<title>2</title>
<g id="a_node2"><a xlink:title="ipc::EdgeVertexCandidate">
<polygon fill="#ffffff" stroke="black" points="232.5,-108 29.5,-108 29.5,-72 232.5,-72 232.5,-108"/>
<text text-anchor="middle" x="131" y="-86.3" font-family="Times,serif" font-size="14.00">ipc::EdgeVertexCandidate</text>
</a>
</g>
</g>
<!-- 2&#45;&gt;3 -->
<g id="edge1" class="edge">
<title>2&#45;&gt;3</title>
<g id="a_edge1"><a xlink:title="public&#45;inheritance">
<path fill="none" stroke="#ce93d8" d="M131,-71.7C131,-63.98 131,-54.71 131,-46.11"/>
<polygon fill="#ce93d8" stroke="#ce93d8" points="134.5,-46.1 131,-36.1 127.5,-46.1 134.5,-46.1"/>
</a>
</g>
</g>
<!-- 4 -->
<g id="node3" class="node">
<title>4</title>
<g id="a_node3"><a xlink:title="ipc::CollisionConstraint">
<polygon fill="#ffffff" stroke="black" points="435,-108 251,-108 251,-72 435,-72 435,-108"/>
<text text-anchor="middle" x="343" y="-86.3" font-family="Times,serif" font-size="14.00">ipc::CollisionConstraint</text>
</a>
</g>
</g>
<!-- 1 -->
<g id="node4" class="node">
<title>1</title>
<g id="a_node4"><a xlink:title="ipc::EdgeVertexConstraint">
<polygon fill="#bfbfbf" stroke="black" points="340,-180 134,-180 134,-144 340,-144 340,-180"/>
<text text-anchor="middle" x="237" y="-158.3" font-family="Times,serif" font-size="14.00">ipc::EdgeVertexConstraint</text>
</a>
</g>
</g>
<!-- 1&#45;&gt;2 -->
<g id="edge2" class="edge">
<title>1&#45;&gt;2</title>
<g id="a_edge2"><a xlink:title="public&#45;inheritance">
<path fill="none" stroke="#ce93d8" d="M211.07,-143.88C197.34,-134.81 180.29,-123.55 165.46,-113.76"/>
<polygon fill="#ce93d8" stroke="#ce93d8" points="167.3,-110.78 157.03,-108.19 163.45,-116.62 167.3,-110.78"/>
</a>
</g>
</g>
<!-- 1&#45;&gt;4 -->
<g id="edge3" class="edge">
<title>1&#45;&gt;4</title>
<g id="a_edge3"><a xlink:title="public&#45;inheritance">
<path fill="none" stroke="#ce93d8" d="M262.93,-143.88C276.66,-134.81 293.71,-123.55 308.54,-113.76"/>
<polygon fill="#ce93d8" stroke="#ce93d8" points="310.55,-116.62 316.97,-108.19 306.7,-110.78 310.55,-116.62"/>
</a>
</g>
</g>
</g>
</svg>
