<?xml version="1.0" encoding="UTF-8" standalone="no"?>
<!DOCTYPE svg PUBLIC "-//W3C//DTD SVG 1.1//EN"
 "http://www.w3.org/Graphics/SVG/1.1/DTD/svg11.dtd">
<!-- Generated by graphviz version 2.43.0 (0)
 -->
<!-- Title: %3 Pages: 1 -->
<svg width="422pt" height="188pt"
 viewBox="0.00 0.00 421.50 188.00" xmlns="http://www.w3.org/2000/svg" xmlns:xlink="http://www.w3.org/1999/xlink">
<g id="graph0" class="graph" transform="scale(1 1) rotate(0) translate(4 184)">
<title>%3</title>
<polygon fill="transparent" stroke="transparent" points="-4,4 -4,-184 417.5,-184 417.5,4 -4,4"/>
<!-- 3 -->
<g id="node1" class="node">
<title>3</title>
<g id="a_node1"><a xlink:title="ipc::CollisionStencil">
<polygon fill="#ffffff" stroke="black" points="278.5,-36 120.5,-36 120.5,0 278.5,0 278.5,-36"/>
<text text-anchor="middle" x="199.5" y="-14.3" font-family="Times,serif" font-size="14.00">ipc::CollisionStencil</text>
</a>
</g>
</g>
<!-- 4 -->
<g id="node2" class="node">
<title>4</title>
<g id="a_node2"><a xlink:title="ipc::TangentialCollision">
<polygon fill="#ffffff" stroke="black" points="183,-108 0,-108 0,-72 183,-72 183,-108"/>
<text text-anchor="middle" x="91.5" y="-86.3" font-family="Times,serif" font-size="14.00">ipc::TangentialCollision</text>
</a>
</g>
</g>
<!-- 4&#45;&gt;3 -->
<g id="edge1" class="edge">
<title>4&#45;&gt;3</title>
<g id="a_edge1"><a xlink:title="public&#45;inheritance">
<path fill="none" stroke="#ce93d8" d="M117.92,-71.88C131.91,-62.81 149.28,-51.55 164.39,-41.76"/>
<polygon fill="#ce93d8" stroke="#ce93d8" points="166.49,-44.57 172.98,-36.19 162.68,-38.69 166.49,-44.57"/>
</a>
</g>
</g>
<!-- 2 -->
<g id="node3" class="node">
<title>2</title>
<g id="a_node3"><a xlink:title="ipc::VertexVertexCandidate">
<polygon fill="#ffffff" stroke="black" points="413.5,-108 201.5,-108 201.5,-72 413.5,-72 413.5,-108"/>
<text text-anchor="middle" x="307.5" y="-86.3" font-family="Times,serif" font-size="14.00">ipc::VertexVertexCandidate</text>
</a>
</g>
</g>
<!-- 2&#45;&gt;3 -->
<g id="edge2" class="edge">
<title>2&#45;&gt;3</title>
<g id="a_edge2"><a xlink:title="public&#45;inheritance">
<path fill="none" stroke="#ce93d8" d="M281.08,-71.88C267.09,-62.81 249.72,-51.55 234.61,-41.76"/>
<polygon fill="#ce93d8" stroke="#ce93d8" points="236.32,-38.69 226.02,-36.19 232.51,-44.57 236.32,-38.69"/>
</a>
</g>
</g>
<!-- 1 -->
<g id="node4" class="node">
<title>1</title>
<g id="a_node4"><a xlink:title="ipc::VertexVertexTangentialCollision">
<polygon fill="#bfbfbf" stroke="black" points="337.5,-180 61.5,-180 61.5,-144 337.5,-144 337.5,-180"/>
<text text-anchor="middle" x="199.5" y="-158.3" font-family="Times,serif" font-size="14.00">ipc::VertexVertexTangentialCollision</text>
</a>
</g>
</g>
<!-- 1&#45;&gt;4 -->
<g id="edge4" class="edge">
<title>1&#45;&gt;4</title>
<g id="a_edge4"><a xlink:title="public&#45;inheritance">
<path fill="none" stroke="#ce93d8" d="M173.08,-143.88C159.09,-134.81 141.72,-123.55 126.61,-113.76"/>
<polygon fill="#ce93d8" stroke="#ce93d8" points="128.32,-110.69 118.02,-108.19 124.51,-116.57 128.32,-110.69"/>
</a>
</g>
</g>
<!-- 1&#45;&gt;2 -->
<g id="edge3" class="edge">
<title>1&#45;&gt;2</title>
<g id="a_edge3"><a xlink:title="public&#45;inheritance">
<path fill="none" stroke="#ce93d8" d="M225.92,-143.88C239.91,-134.81 257.28,-123.55 272.39,-113.76"/>
<polygon fill="#ce93d8" stroke="#ce93d8" points="274.49,-116.57 280.98,-108.19 270.68,-110.69 274.49,-116.57"/>
</a>
</g>
</g>
</g>
</svg>
