<?xml version="1.0" encoding="UTF-8" standalone="no"?>
<!DOCTYPE svg PUBLIC "-//W3C//DTD SVG 1.1//EN"
 "http://www.w3.org/Graphics/SVG/1.1/DTD/svg11.dtd">
<!-- Generated by graphviz version 2.43.0 (0)
 -->
<!-- Title: %3 Pages: 1 -->
<svg width="1126pt" height="188pt"
 viewBox="0.00 0.00 1125.50 188.00" xmlns="http://www.w3.org/2000/svg" xmlns:xlink="http://www.w3.org/1999/xlink">
<g id="graph0" class="graph" transform="scale(1 1) rotate(0) translate(4 184)">
<title>%3</title>
<polygon fill="transparent" stroke="transparent" points="-4,4 -4,-184 1121.5,-184 1121.5,4 -4,4"/>
<!-- 2 -->
<g id="node1" class="node">
<title>2</title>
<g id="a_node1"><a xlink:title="ipc::CollisionStencil">
<polygon fill="#ffffff" stroke="black" points="633.5,-36 475.5,-36 475.5,0 633.5,0 633.5,-36"/>
<text text-anchor="middle" x="554.5" y="-14.3" font-family="Times,serif" font-size="14.00">ipc::CollisionStencil</text>
</a>
</g>
</g>
<!-- 5 -->
<g id="node2" class="node">
<title>5</title>
<g id="a_node2"><a xlink:title="ipc::FaceVertexTangentialCollision">
<polygon fill="#ffffff" stroke="black" points="263,-180 0,-180 0,-144 263,-144 263,-180"/>
<text text-anchor="middle" x="131.5" y="-158.3" font-family="Times,serif" font-size="14.00">ipc::FaceVertexTangentialCollision</text>
</a>
</g>
</g>
<!-- 1 -->
<g id="node6" class="node">
<title>1</title>
<g id="a_node6"><a xlink:title="ipc::TangentialCollision">
<polygon fill="#bfbfbf" stroke="black" points="646,-108 463,-108 463,-72 646,-72 646,-108"/>
<text text-anchor="middle" x="554.5" y="-86.3" font-family="Times,serif" font-size="14.00">ipc::TangentialCollision</text>
</a>
</g>
</g>
<!-- 5&#45;&gt;1 -->
<g id="edge1" class="edge">
<title>5&#45;&gt;1</title>
<g id="a_edge1"><a xlink:title="public&#45;inheritance">
<path fill="none" stroke="#ce93d8" d="M234.44,-143.97C300.85,-132.98 386.85,-118.74 452.98,-107.8"/>
<polygon fill="#ce93d8" stroke="#ce93d8" points="453.7,-111.23 463,-106.14 452.56,-104.32 453.7,-111.23"/>
</a>
</g>
</g>
<!-- 4 -->
<g id="node3" class="node">
<title>4</title>
<g id="a_node3"><a xlink:title="ipc::EdgeVertexTangentialCollision">
<polygon fill="#ffffff" stroke="black" points="547.5,-180 281.5,-180 281.5,-144 547.5,-144 547.5,-180"/>
<text text-anchor="middle" x="414.5" y="-158.3" font-family="Times,serif" font-size="14.00">ipc::EdgeVertexTangentialCollision</text>
</a>
</g>
</g>
<!-- 4&#45;&gt;1 -->
<g id="edge2" class="edge">
<title>4&#45;&gt;1</title>
<g id="a_edge2"><a xlink:title="public&#45;inheritance">
<path fill="none" stroke="#ce93d8" d="M448.75,-143.88C467.56,-134.47 491.08,-122.71 511.17,-112.67"/>
<polygon fill="#ce93d8" stroke="#ce93d8" points="512.74,-115.79 520.12,-108.19 509.61,-109.53 512.74,-115.79"/>
</a>
</g>
</g>
<!-- 3 -->
<g id="node4" class="node">
<title>3</title>
<g id="a_node4"><a xlink:title="ipc::EdgeEdgeTangentialCollision">
<polygon fill="#ffffff" stroke="black" points="823,-180 566,-180 566,-144 823,-144 823,-180"/>
<text text-anchor="middle" x="694.5" y="-158.3" font-family="Times,serif" font-size="14.00">ipc::EdgeEdgeTangentialCollision</text>
</a>
</g>
</g>
<!-- 3&#45;&gt;1 -->
<g id="edge3" class="edge">
<title>3&#45;&gt;1</title>
<g id="a_edge3"><a xlink:title="public&#45;inheritance">
<path fill="none" stroke="#ce93d8" d="M660.25,-143.88C641.44,-134.47 617.92,-122.71 597.83,-112.67"/>
<polygon fill="#ce93d8" stroke="#ce93d8" points="599.39,-109.53 588.88,-108.19 596.26,-115.79 599.39,-109.53"/>
</a>
</g>
</g>
<!-- 6 -->
<g id="node5" class="node">
<title>6</title>
<g id="a_node5"><a xlink:title="ipc::VertexVertexTangentialCollision">
<polygon fill="#ffffff" stroke="black" points="1117.5,-180 841.5,-180 841.5,-144 1117.5,-144 1117.5,-180"/>
<text text-anchor="middle" x="979.5" y="-158.3" font-family="Times,serif" font-size="14.00">ipc::VertexVertexTangentialCollision</text>
</a>
</g>
</g>
<!-- 6&#45;&gt;1 -->
<g id="edge4" class="edge">
<title>6&#45;&gt;1</title>
<g id="a_edge4"><a xlink:title="public&#45;inheritance">
<path fill="none" stroke="#ce93d8" d="M876.08,-143.97C809.24,-132.96 722.64,-118.69 656.15,-107.74"/>
<polygon fill="#ce93d8" stroke="#ce93d8" points="656.51,-104.26 646.08,-106.08 655.38,-111.16 656.51,-104.26"/>
</a>
</g>
</g>
<!-- 1&#45;&gt;2 -->
<g id="edge5" class="edge">
<title>1&#45;&gt;2</title>
<g id="a_edge5"><a xlink:title="public&#45;inheritance">
<path fill="none" stroke="#ce93d8" d="M554.5,-71.7C554.5,-63.98 554.5,-54.71 554.5,-46.11"/>
<polygon fill="#ce93d8" stroke="#ce93d8" points="558,-46.1 554.5,-36.1 551,-46.1 558,-46.1"/>
</a>
</g>
</g>
</g>
</svg>
