<?xml version="1.0" encoding="UTF-8" standalone="no"?>
<!DOCTYPE svg PUBLIC "-//W3C//DTD SVG 1.1//EN"
 "http://www.w3.org/Graphics/SVG/1.1/DTD/svg11.dtd">
<!-- Generated by graphviz version 2.43.0 (0)
 -->
<!-- Title: %3 Pages: 1 -->
<svg width="444pt" height="260pt"
 viewBox="0.00 0.00 444.00 260.00" xmlns="http://www.w3.org/2000/svg" xmlns:xlink="http://www.w3.org/1999/xlink">
<g id="graph0" class="graph" transform="scale(1 1) rotate(0) translate(4 256)">
<title>%3</title>
<polygon fill="transparent" stroke="transparent" points="-4,4 -4,-256 440,-256 440,4 -4,4"/>
<!-- 2 -->
<g id="node1" class="node">
<title>2</title>
<g id="a_node1"><a xlink:title="ipc::Potential&lt; TangentialCollisions &gt;">
<polygon fill="#ffffff" stroke="black" points="340,-108 53,-108 53,-72 340,-72 340,-108"/>
<text text-anchor="middle" x="196.5" y="-86.3" font-family="Times,serif" font-size="14.00">ipc::Potential&lt; TangentialCollisions &gt;</text>
</a>
</g>
</g>
<!-- 3 -->
<g id="node3" class="node">
<title>3</title>
<g id="a_node3"><a xlink:title="ipc::Potential&lt; TCollisions &gt;">
<polygon fill="#ffffff" stroke="black" points="307,-36 86,-36 86,0 307,0 307,-36"/>
<text text-anchor="middle" x="196.5" y="-14.3" font-family="Times,serif" font-size="14.00">ipc::Potential&lt; TCollisions &gt;</text>
</a>
</g>
</g>
<!-- 2&#45;&gt;3 -->
<g id="edge1" class="edge">
<title>2&#45;&gt;3</title>
<g id="a_edge1"><a xlink:title="template&#45;instance">
<path fill="none" stroke="#ce93d8" d="M196.5,-71.7C196.5,-63.98 196.5,-54.71 196.5,-46.11"/>
<polygon fill="#ce93d8" stroke="#ce93d8" points="200,-46.1 196.5,-36.1 193,-46.1 200,-46.1"/>
</a>
</g>
</g>
<!-- 4 -->
<g id="node2" class="node">
<title>4</title>
<g id="a_node2"><a xlink:title="ipc::FrictionPotential">
<polygon fill="#ffffff" stroke="black" points="167,-252 0,-252 0,-216 167,-216 167,-252"/>
<text text-anchor="middle" x="83.5" y="-230.3" font-family="Times,serif" font-size="14.00">ipc::FrictionPotential</text>
</a>
</g>
</g>
<!-- 1 -->
<g id="node5" class="node">
<title>1</title>
<g id="a_node5"><a xlink:title="ipc::TangentialPotential">
<polygon fill="#bfbfbf" stroke="black" points="289,-180 104,-180 104,-144 289,-144 289,-180"/>
<text text-anchor="middle" x="196.5" y="-158.3" font-family="Times,serif" font-size="14.00">ipc::TangentialPotential</text>
</a>
</g>
</g>
<!-- 4&#45;&gt;1 -->
<g id="edge2" class="edge">
<title>4&#45;&gt;1</title>
<g id="a_edge2"><a xlink:title="public&#45;inheritance">
<path fill="none" stroke="#ce93d8" d="M111.14,-215.88C125.92,-206.72 144.29,-195.34 160.2,-185.48"/>
<polygon fill="#ce93d8" stroke="#ce93d8" points="162.09,-188.43 168.75,-180.19 158.41,-182.48 162.09,-188.43"/>
</a>
</g>
</g>
<!-- 5 -->
<g id="node4" class="node">
<title>5</title>
<g id="a_node4"><a xlink:title="ipc::TangentialAdhesionPotential">
<polygon fill="#ffffff" stroke="black" points="436,-252 185,-252 185,-216 436,-216 436,-252"/>
<text text-anchor="middle" x="310.5" y="-230.3" font-family="Times,serif" font-size="14.00">ipc::TangentialAdhesionPotential</text>
</a>
</g>
</g>
<!-- 5&#45;&gt;1 -->
<g id="edge3" class="edge">
<title>5&#45;&gt;1</title>
<g id="a_edge3"><a xlink:title="public&#45;inheritance">
<path fill="none" stroke="#ce93d8" d="M282.61,-215.88C267.71,-206.72 249.17,-195.34 233.12,-185.48"/>
<polygon fill="#ce93d8" stroke="#ce93d8" points="234.85,-182.44 224.49,-180.19 231.19,-188.41 234.85,-182.44"/>
</a>
</g>
</g>
<!-- 1&#45;&gt;2 -->
<g id="edge4" class="edge">
<title>1&#45;&gt;2</title>
<g id="a_edge4"><a xlink:title="public&#45;inheritance">
<path fill="none" stroke="#ce93d8" d="M196.5,-143.7C196.5,-135.98 196.5,-126.71 196.5,-118.11"/>
<polygon fill="#ce93d8" stroke="#ce93d8" points="200,-118.1 196.5,-108.1 193,-118.1 200,-118.1"/>
</a>
</g>
</g>
</g>
</svg>
