<?xml version="1.0" encoding="UTF-8" standalone="no"?>
<!DOCTYPE svg PUBLIC "-//W3C//DTD SVG 1.1//EN"
 "http://www.w3.org/Graphics/SVG/1.1/DTD/svg11.dtd">
<!-- Generated by graphviz version 2.43.0 (0)
 -->
<!-- Title: %3 Pages: 1 -->
<svg width="2602pt" height="188pt"
 viewBox="0.00 0.00 2601.50 188.00" xmlns="http://www.w3.org/2000/svg" xmlns:xlink="http://www.w3.org/1999/xlink">
<g id="graph0" class="graph" transform="scale(1 1) rotate(0) translate(4 184)">
<title>%3</title>
<!-- 1 -->
<g id="node1" class="node">
<title>1</title>
<g id="a_node1"><a xlink:title="ipc::CollisionStencil">
<polygon fill="#bfbfbf" stroke="black" points="1336,-36 1186,-36 1186,0 1336,0 1336,-36"/>
<text text-anchor="middle" x="1261" y="-14.3" font-family="Menlo" font-size="14.00">ipc::CollisionStencil</text>
</a>
</g>
</g>
<!-- 2 -->
<g id="node2" class="node">
<title>2</title>
<g id="a_node2"><a xlink:title="ipc::EdgeEdgeCandidate">
<polygon fill="#ffffff" stroke="black" points="458.5,-108 271.5,-108 271.5,-72 458.5,-72 458.5,-108"/>
<text text-anchor="middle" x="365" y="-86.3" font-family="Menlo" font-size="14.00">ipc::EdgeEdgeCandidate</text>
</a>
</g>
</g>
<!-- 2&#45;&gt;1 -->
<g id="edge1" class="edge">
<title>2&#45;&gt;1</title>
<g id="a_edge1"><a xlink:title="public&#45;inheritance">
<path fill="none" stroke="#ce93d8" d="M458.77,-81.67C633.8,-68 1007.71,-38.79 1175.91,-25.65"/>
<polygon fill="#ce93d8" stroke="#ce93d8" points="1176.26,-29.13 1185.96,-24.86 1175.72,-22.15 1176.26,-29.13"/>
</a>
</g>
</g>
<!-- 3 -->
<g id="node3" class="node">
<title>3</title>
<g id="a_node3"><a xlink:title="ipc::EdgeEdgeNormalCollision">
<polygon fill="#ffffff" stroke="black" points="224,-180 0,-180 0,-144 224,-144 224,-180"/>
<text text-anchor="middle" x="112" y="-158.3" font-family="Menlo" font-size="14.00">ipc::EdgeEdgeNormalCollision</text>
</a>
</g>
</g>
<!-- 3&#45;&gt;2 -->
<g id="edge2" class="edge">
<title>3&#45;&gt;2</title>
<g id="a_edge2"><a xlink:title="public&#45;inheritance">
<path fill="none" stroke="#ce93d8" d="M173.57,-143.97C209.69,-133.97 255.49,-121.3 293.24,-110.85"/>
<polygon fill="#ce93d8" stroke="#ce93d8" points="294.45,-114.15 303.16,-108.11 292.59,-107.4 294.45,-114.15"/>
</a>
</g>
</g>
<!-- 11 -->
<g id="node11" class="node">
<title>11</title>
<g id="a_node11"><a xlink:title="ipc::NormalCollision">
<polygon fill="#ffffff" stroke="black" points="1147.5,-108 994.5,-108 994.5,-72 1147.5,-72 1147.5,-108"/>
<text text-anchor="middle" x="1071" y="-86.3" font-family="Menlo" font-size="14.00">ipc::NormalCollision</text>
</a>
</g>
</g>
<!-- 3&#45;&gt;11 -->
<g id="edge3" class="edge">
<title>3&#45;&gt;11</title>
<g id="a_edge3"><a xlink:title="public&#45;inheritance">
<path fill="none" stroke="#ce93d8" d="M224.03,-144.89C227.05,-144.58 230.04,-144.28 233,-144 562.88,-113 651.14,-147.86 984.27,-107.97"/>
<polygon fill="#ce93d8" stroke="#ce93d8" points="984.69,-111.44 994.2,-106.76 983.85,-104.49 984.69,-111.44"/>
</a>
</g>
</g>
<!-- 4 -->
<g id="node4" class="node">
<title>4</title>
<g id="a_node4"><a xlink:title="ipc::EdgeEdgeTangentialCollision">
<polygon fill="#ffffff" stroke="black" points="487.5,-180 242.5,-180 242.5,-144 487.5,-144 487.5,-180"/>
<text text-anchor="middle" x="365" y="-158.3" font-family="Menlo" font-size="14.00">ipc::EdgeEdgeTangentialCollision</text>
</a>
</g>
</g>
<!-- 4&#45;&gt;2 -->
<g id="edge4" class="edge">
<title>4&#45;&gt;2</title>
<g id="a_edge4"><a xlink:title="public&#45;inheritance">
<path fill="none" stroke="#ce93d8" d="M365,-143.7C365,-135.98 365,-126.71 365,-118.11"/>
<polygon fill="#ce93d8" stroke="#ce93d8" points="368.5,-118.1 365,-108.1 361.5,-118.1 368.5,-118.1"/>
</a>
</g>
</g>
<!-- 16 -->
<g id="node15" class="node">
<title>16</title>
<g id="a_node15"><a xlink:title="ipc::TangentialCollision">
<polygon fill="#ffffff" stroke="black" points="1549,-108 1375,-108 1375,-72 1549,-72 1549,-108"/>
<text text-anchor="middle" x="1462" y="-86.3" font-family="Menlo" font-size="14.00">ipc::TangentialCollision</text>
</a>
</g>
</g>
<!-- 4&#45;&gt;16 -->
<g id="edge5" class="edge">
<title>4&#45;&gt;16</title>
<g id="a_edge5"><a xlink:title="public&#45;inheritance">
<path fill="none" stroke="#ce93d8" d="M487.69,-144.75C490.49,-144.48 493.26,-144.23 496,-144 877.86,-111.38 978.95,-148.8 1364.79,-107.91"/>
<polygon fill="#ce93d8" stroke="#ce93d8" points="1365.26,-111.38 1374.83,-106.84 1364.51,-104.42 1365.26,-111.38"/>
</a>
</g>
</g>
<!-- 5 -->
<g id="node5" class="node">
<title>5</title>
<g id="a_node5"><a xlink:title="ipc::EdgeVertexCandidate">
<polygon fill="#ffffff" stroke="black" points="976,-108 780,-108 780,-72 976,-72 976,-108"/>
<text text-anchor="middle" x="878" y="-86.3" font-family="Menlo" font-size="14.00">ipc::EdgeVertexCandidate</text>
</a>
</g>
</g>
<!-- 5&#45;&gt;1 -->
<g id="edge6" class="edge">
<title>5&#45;&gt;1</title>
<g id="a_edge6"><a xlink:title="public&#45;inheritance">
<path fill="none" stroke="#ce93d8" d="M971.2,-71.97C1033.6,-60.56 1115.11,-45.66 1175.78,-34.58"/>
<polygon fill="#ce93d8" stroke="#ce93d8" points="1176.5,-38 1185.71,-32.76 1175.25,-31.12 1176.5,-38"/>
</a>
</g>
</g>
<!-- 6 -->
<g id="node6" class="node">
<title>6</title>
<g id="a_node6"><a xlink:title="ipc::EdgeVertexNormalCollision">
<polygon fill="#ffffff" stroke="black" points="738.5,-180 505.5,-180 505.5,-144 738.5,-144 738.5,-180"/>
<text text-anchor="middle" x="622" y="-158.3" font-family="Menlo" font-size="14.00">ipc::EdgeVertexNormalCollision</text>
</a>
</g>
</g>
<!-- 6&#45;&gt;5 -->
<g id="edge7" class="edge">
<title>6&#45;&gt;5</title>
<g id="a_edge7"><a xlink:title="public&#45;inheritance">
<path fill="none" stroke="#ce93d8" d="M684.3,-143.97C720.84,-133.97 767.19,-121.3 805.39,-110.85"/>
<polygon fill="#ce93d8" stroke="#ce93d8" points="806.7,-114.12 815.42,-108.11 804.85,-107.37 806.7,-114.12"/>
</a>
</g>
</g>
<!-- 6&#45;&gt;11 -->
<g id="edge8" class="edge">
<title>6&#45;&gt;11</title>
<g id="a_edge8"><a xlink:title="public&#45;inheritance">
<path fill="none" stroke="#ce93d8" d="M738.74,-144.6C821.44,-132.87 926.27,-117.74 984.22,-108.07"/>
<polygon fill="#ce93d8" stroke="#ce93d8" points="984.87,-111.51 994.14,-106.39 983.7,-104.61 984.87,-111.51"/>
</a>
</g>
</g>
<!-- 7 -->
<g id="node7" class="node">
<title>7</title>
<g id="a_node7"><a xlink:title="ipc::EdgeVertexTangentialCollision">
<polygon fill="#ffffff" stroke="black" points="1011,-180 757,-180 757,-144 1011,-144 1011,-180"/>
<text text-anchor="middle" x="884" y="-158.3" font-family="Menlo" font-size="14.00">ipc::EdgeVertexTangentialCollision</text>
</a>
</g>
</g>
<!-- 7&#45;&gt;5 -->
<g id="edge9" class="edge">
<title>7&#45;&gt;5</title>
<g id="a_edge9"><a xlink:title="public&#45;inheritance">
<path fill="none" stroke="#ce93d8" d="M882.52,-143.7C881.86,-135.98 881.06,-126.71 880.32,-118.11"/>
<polygon fill="#ce93d8" stroke="#ce93d8" points="883.81,-117.77 879.47,-108.1 876.83,-118.37 883.81,-117.77"/>
</a>
</g>
</g>
<!-- 7&#45;&gt;16 -->
<g id="edge10" class="edge">
<title>7&#45;&gt;16</title>
<g id="a_edge10"><a xlink:title="public&#45;inheritance">
<path fill="none" stroke="#ce93d8" d="M1011.04,-145.04C1014.05,-144.69 1017.05,-144.34 1020,-144 1169.87,-126.82 1210.58,-129.21 1364.49,-108.01"/>
<polygon fill="#ce93d8" stroke="#ce93d8" points="1365.37,-111.42 1374.8,-106.58 1364.41,-104.49 1365.37,-111.42"/>
</a>
</g>
</g>
<!-- 8 -->
<g id="node8" class="node">
<title>8</title>
<g id="a_node8"><a xlink:title="ipc::FaceVertexCandidate">
<polygon fill="#ffffff" stroke="black" points="1356.5,-108 1165.5,-108 1165.5,-72 1356.5,-72 1356.5,-108"/>
<text text-anchor="middle" x="1261" y="-86.3" font-family="Menlo" font-size="14.00">ipc::FaceVertexCandidate</text>
</a>
</g>
</g>
<!-- 8&#45;&gt;1 -->
<g id="edge11" class="edge">
<title>8&#45;&gt;1</title>
<g id="a_edge11"><a xlink:title="public&#45;inheritance">
<path fill="none" stroke="#ce93d8" d="M1261,-71.7C1261,-63.98 1261,-54.71 1261,-46.11"/>
<polygon fill="#ce93d8" stroke="#ce93d8" points="1264.5,-46.1 1261,-36.1 1257.5,-46.1 1264.5,-46.1"/>
</a>
</g>
</g>
<!-- 9 -->
<g id="node9" class="node">
<title>9</title>
<g id="a_node9"><a xlink:title="ipc::FaceVertexNormalCollision">
<polygon fill="#ffffff" stroke="black" points="1257,-180 1029,-180 1029,-144 1257,-144 1257,-180"/>
<text text-anchor="middle" x="1143" y="-158.3" font-family="Menlo" font-size="14.00">ipc::FaceVertexNormalCollision</text>
</a>
</g>
</g>
<!-- 9&#45;&gt;8 -->
<g id="edge12" class="edge">
<title>9&#45;&gt;8</title>
<g id="a_edge12"><a xlink:title="public&#45;inheritance">
<path fill="none" stroke="#ce93d8" d="M1171.87,-143.88C1187.29,-134.72 1206.48,-123.34 1223.1,-113.48"/>
<polygon fill="#ce93d8" stroke="#ce93d8" points="1225.21,-116.3 1232.02,-108.19 1221.64,-110.28 1225.21,-116.3"/>
</a>
</g>
</g>
<!-- 9&#45;&gt;11 -->
<g id="edge13" class="edge">
<title>9&#45;&gt;11</title>
<g id="a_edge13"><a xlink:title="public&#45;inheritance">
<path fill="none" stroke="#ce93d8" d="M1125.2,-143.7C1116.4,-135.14 1105.62,-124.66 1096,-115.3"/>
<polygon fill="#ce93d8" stroke="#ce93d8" points="1098.2,-112.57 1088.59,-108.1 1093.32,-117.58 1098.2,-112.57"/>
</a>
</g>
</g>
<!-- 10 -->
<g id="node10" class="node">
<title>10</title>
<g id="a_node10"><a xlink:title="ipc::FaceVertexTangentialCollision">
<polygon fill="#ffffff" stroke="black" points="1524.5,-180 1275.5,-180 1275.5,-144 1524.5,-144 1524.5,-180"/>
<text text-anchor="middle" x="1400" y="-158.3" font-family="Menlo" font-size="14.00">ipc::FaceVertexTangentialCollision</text>
</a>
</g>
</g>
<!-- 10&#45;&gt;8 -->
<g id="edge14" class="edge">
<title>10&#45;&gt;8</title>
<g id="a_edge14"><a xlink:title="public&#45;inheritance">
<path fill="none" stroke="#ce93d8" d="M1366,-143.88C1347.4,-134.51 1324.17,-122.81 1304.29,-112.8"/>
<polygon fill="#ce93d8" stroke="#ce93d8" points="1305.64,-109.56 1295.13,-108.19 1302.49,-115.81 1305.64,-109.56"/>
</a>
</g>
</g>
<!-- 10&#45;&gt;16 -->
<g id="edge15" class="edge">
<title>10&#45;&gt;16</title>
<g id="a_edge15"><a xlink:title="public&#45;inheritance">
<path fill="none" stroke="#ce93d8" d="M1415.33,-143.7C1422.76,-135.3 1431.82,-125.07 1439.98,-115.86"/>
<polygon fill="#ce93d8" stroke="#ce93d8" points="1442.84,-117.91 1446.85,-108.1 1437.6,-113.27 1442.84,-117.91"/>
</a>
</g>
</g>
<!-- 11&#45;&gt;1 -->
<g id="edge16" class="edge">
<title>11&#45;&gt;1</title>
<g id="a_edge16"><a xlink:title="public&#45;inheritance">
<path fill="none" stroke="#ce93d8" d="M1117.48,-71.88C1143.92,-62.14 1177.2,-49.87 1205.06,-39.61"/>
<polygon fill="#ce93d8" stroke="#ce93d8" points="1206.5,-42.81 1214.67,-36.07 1204.08,-36.24 1206.5,-42.81"/>
</a>
</g>
</g>
<!-- 14 -->
<g id="node12" class="node">
<title>14</title>
<g id="a_node12"><a xlink:title="ipc::PlaneVertexCandidate">
<polygon fill="#ffffff" stroke="black" points="1765,-108 1567,-108 1567,-72 1765,-72 1765,-108"/>
<text text-anchor="middle" x="1666" y="-86.3" font-family="Menlo" font-size="14.00">ipc::PlaneVertexCandidate</text>
</a>
</g>
</g>
<!-- 14&#45;&gt;1 -->
<g id="edge17" class="edge">
<title>14&#45;&gt;1</title>
<g id="a_edge17"><a xlink:title="public&#45;inheritance">
<path fill="none" stroke="#ce93d8" d="M1567.44,-71.97C1499.77,-60.27 1410.84,-44.9 1346.22,-33.73"/>
<polygon fill="#ce93d8" stroke="#ce93d8" points="1346.52,-30.23 1336.07,-31.98 1345.33,-37.13 1346.52,-30.23"/>
</a>
</g>
</g>
<!-- 12 -->
<g id="node13" class="node">
<title>12</title>
<g id="a_node13"><a xlink:title="ipc::PlaneVertexNormalCollision">
<polygon fill="#ffffff" stroke="black" points="1777.5,-180 1542.5,-180 1542.5,-144 1777.5,-144 1777.5,-180"/>
<text text-anchor="middle" x="1660" y="-158.3" font-family="Menlo" font-size="14.00">ipc::PlaneVertexNormalCollision</text>
</a>
</g>
</g>
<!-- 12&#45;&gt;11 -->
<g id="edge18" class="edge">
<title>12&#45;&gt;11</title>
<g id="a_edge18"><a xlink:title="public&#45;inheritance">
<path fill="none" stroke="#ce93d8" d="M1542.31,-144.97C1539.51,-144.64 1536.74,-144.32 1534,-144 1369.62,-125.09 1324.7,-132.28 1157.96,-108.21"/>
<polygon fill="#ce93d8" stroke="#ce93d8" points="1158.25,-104.72 1147.85,-106.74 1157.24,-111.64 1158.25,-104.72"/>
</a>
</g>
</g>
<!-- 12&#45;&gt;14 -->
<g id="edge19" class="edge">
<title>12&#45;&gt;14</title>
<g id="a_edge19"><a xlink:title="public&#45;inheritance">
<path fill="none" stroke="#ce93d8" d="M1661.48,-143.7C1662.14,-135.98 1662.94,-126.71 1663.68,-118.11"/>
<polygon fill="#ce93d8" stroke="#ce93d8" points="1667.17,-118.37 1664.53,-108.1 1660.19,-117.77 1667.17,-118.37"/>
</a>
</g>
</g>
<!-- 15 -->
<g id="node14" class="node">
<title>15</title>
<g id="a_node14"><a xlink:title="ipc::PlaneVertexTangentialCollision">
<polygon fill="#ffffff" stroke="black" points="2052,-180 1796,-180 1796,-144 2052,-144 2052,-180"/>
<text text-anchor="middle" x="1924" y="-158.3" font-family="Menlo" font-size="14.00">ipc::PlaneVertexTangentialCollision</text>
</a>
</g>
</g>
<!-- 15&#45;&gt;14 -->
<g id="edge20" class="edge">
<title>15&#45;&gt;14</title>
<g id="a_edge20"><a xlink:title="public&#45;inheritance">
<path fill="none" stroke="#ce93d8" d="M1861.22,-143.97C1824.38,-133.97 1777.67,-121.3 1739.18,-110.85"/>
<polygon fill="#ce93d8" stroke="#ce93d8" points="1739.63,-107.35 1729.07,-108.11 1737.8,-114.11 1739.63,-107.35"/>
</a>
</g>
</g>
<!-- 15&#45;&gt;16 -->
<g id="edge21" class="edge">
<title>15&#45;&gt;16</title>
<g id="a_edge21"><a xlink:title="public&#45;inheritance">
<path fill="none" stroke="#ce93d8" d="M1799.76,-144C1731.48,-134.42 1645.04,-121.9 1559.04,-108.14"/>
<polygon fill="#ce93d8" stroke="#ce93d8" points="1559.53,-104.68 1549.1,-106.55 1558.42,-111.59 1559.53,-104.68"/>
</a>
</g>
</g>
<!-- 16&#45;&gt;1 -->
<g id="edge22" class="edge">
<title>16&#45;&gt;1</title>
<g id="a_edge22"><a xlink:title="public&#45;inheritance">
<path fill="none" stroke="#ce93d8" d="M1413.09,-71.97C1385,-62.19 1349.54,-49.84 1319.93,-39.52"/>
<polygon fill="#ce93d8" stroke="#ce93d8" points="1320.73,-36.09 1310.13,-36.11 1318.43,-42.71 1320.73,-36.09"/>
</a>
</g>
</g>
<!-- 18 -->
<g id="node16" class="node">
<title>18</title>
<g id="a_node16"><a xlink:title="ipc::VertexVertexCandidate">
<polygon fill="#ffffff" stroke="black" points="2293.5,-108 2088.5,-108 2088.5,-72 2293.5,-72 2293.5,-108"/>
<text text-anchor="middle" x="2191" y="-86.3" font-family="Menlo" font-size="14.00">ipc::VertexVertexCandidate</text>
</a>
</g>
</g>
<!-- 18&#45;&gt;1 -->
<g id="edge23" class="edge">
<title>18&#45;&gt;1</title>
<g id="a_edge23"><a xlink:title="public&#45;inheritance">
<path fill="none" stroke="#ce93d8" d="M2088.37,-81.27C1903.45,-67.36 1517.66,-38.32 1346.24,-25.42"/>
<polygon fill="#ce93d8" stroke="#ce93d8" points="1346.49,-21.93 1336.26,-24.66 1345.97,-28.91 1346.49,-21.93"/>
</a>
</g>
</g>
<!-- 13 -->
<g id="node17" class="node">
<title>13</title>
<g id="a_node17"><a xlink:title="ipc::VertexVertexNormalCollision">
<polygon fill="#ffffff" stroke="black" points="2312,-180 2070,-180 2070,-144 2312,-144 2312,-180"/>
<text text-anchor="middle" x="2191" y="-158.3" font-family="Menlo" font-size="14.00">ipc::VertexVertexNormalCollision</text>
</a>
</g>
</g>
<!-- 13&#45;&gt;11 -->
<g id="edge24" class="edge">
<title>13&#45;&gt;11</title>
<g id="a_edge24"><a xlink:title="public&#45;inheritance">
<path fill="none" stroke="#ce93d8" d="M2069.94,-144.81C2066.93,-144.52 2063.95,-144.25 2061,-144 1663.24,-110.15 1557.46,-154.87 1157.92,-108.12"/>
<polygon fill="#ce93d8" stroke="#ce93d8" points="1158.17,-104.63 1147.82,-106.93 1157.34,-111.58 1158.17,-104.63"/>
</a>
</g>
</g>
<!-- 13&#45;&gt;18 -->
<g id="edge25" class="edge">
<title>13&#45;&gt;18</title>
<g id="a_edge25"><a xlink:title="public&#45;inheritance">
<path fill="none" stroke="#ce93d8" d="M2191,-143.7C2191,-135.98 2191,-126.71 2191,-118.11"/>
<polygon fill="#ce93d8" stroke="#ce93d8" points="2194.5,-118.1 2191,-108.1 2187.5,-118.1 2194.5,-118.1"/>
</a>
</g>
</g>
<!-- 17 -->
<g id="node18" class="node">
<title>17</title>
<g id="a_node18"><a xlink:title="ipc::VertexVertexTangentialCollision">
<polygon fill="#ffffff" stroke="black" points="2593.5,-180 2330.5,-180 2330.5,-144 2593.5,-144 2593.5,-180"/>
<text text-anchor="middle" x="2462" y="-158.3" font-family="Menlo" font-size="14.00">ipc::VertexVertexTangentialCollision</text>
</a>
</g>
</g>
<!-- 17&#45;&gt;16 -->
<g id="edge26" class="edge">
<title>17&#45;&gt;16</title>
<g id="a_edge26"><a xlink:title="public&#45;inheritance">
<path fill="none" stroke="#ce93d8" d="M2330.31,-144.82C2327.18,-144.53 2324.07,-144.26 2321,-144 1986,-115.94 1897.12,-145.1 1559.12,-108.03"/>
<polygon fill="#ce93d8" stroke="#ce93d8" points="1559.38,-104.54 1549.05,-106.92 1558.6,-111.5 1559.38,-104.54"/>
</a>
</g>
</g>
<!-- 17&#45;&gt;18 -->
<g id="edge27" class="edge">
<title>17&#45;&gt;18</title>
<g id="a_edge27"><a xlink:title="public&#45;inheritance">
<path fill="none" stroke="#ce93d8" d="M2396.05,-143.97C2357.12,-133.91 2307.67,-121.14 2267.09,-110.65"/>
<polygon fill="#ce93d8" stroke="#ce93d8" points="2267.8,-107.22 2257.24,-108.11 2266.05,-114 2267.8,-107.22"/>
</a>
</g>
</g>
</g>
</svg>
