<?xml version="1.0" encoding="UTF-8" standalone="no"?>
<!DOCTYPE svg PUBLIC "-//W3C//DTD SVG 1.1//EN"
 "http://www.w3.org/Graphics/SVG/1.1/DTD/svg11.dtd">
<!-- Generated by graphviz version 2.43.0 (0)
 -->
<!-- Title: %3 Pages: 1 -->
<svg width="538pt" height="260pt"
 viewBox="0.00 0.00 537.50 260.00" xmlns="http://www.w3.org/2000/svg" xmlns:xlink="http://www.w3.org/1999/xlink">
<g id="graph0" class="graph" transform="scale(1 1) rotate(0) translate(4 256)">
<title>%3</title>
<polygon fill="transparent" stroke="transparent" points="-4,4 -4,-256 533.5,-256 533.5,4 -4,4"/>
<!-- 2 -->
<g id="node1" class="node">
<title>2</title>
<g id="a_node1"><a xlink:title="ipc::ContinuousCollisionCandidate">
<polygon fill="#ffffff" stroke="black" points="390.5,-108 128.5,-108 128.5,-72 390.5,-72 390.5,-108"/>
<text text-anchor="middle" x="259.5" y="-86.3" font-family="Times,serif" font-size="14.00">ipc::ContinuousCollisionCandidate</text>
</a>
</g>
</g>
<!-- 3 -->
<g id="node2" class="node">
<title>3</title>
<g id="a_node2"><a xlink:title="ipc::CollisionStencil">
<polygon fill="#ffffff" stroke="black" points="338.5,-36 180.5,-36 180.5,0 338.5,0 338.5,-36"/>
<text text-anchor="middle" x="259.5" y="-14.3" font-family="Times,serif" font-size="14.00">ipc::CollisionStencil</text>
</a>
</g>
</g>
<!-- 2&#45;&gt;3 -->
<g id="edge1" class="edge">
<title>2&#45;&gt;3</title>
<g id="a_edge1"><a xlink:title="public&#45;inheritance">
<path fill="none" stroke="#ce93d8" d="M259.5,-71.7C259.5,-63.98 259.5,-54.71 259.5,-46.11"/>
<polygon fill="#ce93d8" stroke="#ce93d8" points="263,-46.1 259.5,-36.1 256,-46.1 263,-46.1"/>
</a>
</g>
</g>
<!-- 1 -->
<g id="node3" class="node">
<title>1</title>
<g id="a_node3"><a xlink:title="ipc::EdgeVertexCandidate">
<polygon fill="#bfbfbf" stroke="black" points="361,-180 158,-180 158,-144 361,-144 361,-180"/>
<text text-anchor="middle" x="259.5" y="-158.3" font-family="Times,serif" font-size="14.00">ipc::EdgeVertexCandidate</text>
</a>
</g>
</g>
<!-- 1&#45;&gt;2 -->
<g id="edge2" class="edge">
<title>1&#45;&gt;2</title>
<g id="a_edge2"><a xlink:title="public&#45;inheritance">
<path fill="none" stroke="#ce93d8" d="M259.5,-143.7C259.5,-135.98 259.5,-126.71 259.5,-118.11"/>
<polygon fill="#ce93d8" stroke="#ce93d8" points="263,-118.1 259.5,-108.1 256,-118.1 263,-118.1"/>
</a>
</g>
</g>
<!-- 4 -->
<g id="node4" class="node">
<title>4</title>
<g id="a_node4"><a xlink:title="ipc::EdgeVertexNormalCollision">
<polygon fill="#ffffff" stroke="black" points="245,-252 0,-252 0,-216 245,-216 245,-252"/>
<text text-anchor="middle" x="122.5" y="-230.3" font-family="Times,serif" font-size="14.00">ipc::EdgeVertexNormalCollision</text>
</a>
</g>
</g>
<!-- 4&#45;&gt;1 -->
<g id="edge3" class="edge">
<title>4&#45;&gt;1</title>
<g id="a_edge3"><a xlink:title="public&#45;inheritance">
<path fill="none" stroke="#ce93d8" d="M156.01,-215.88C174.34,-206.51 197.24,-194.81 216.83,-184.8"/>
<polygon fill="#ce93d8" stroke="#ce93d8" points="218.54,-187.86 225.86,-180.19 215.36,-181.62 218.54,-187.86"/>
</a>
</g>
</g>
<!-- 5 -->
<g id="node5" class="node">
<title>5</title>
<g id="a_node5"><a xlink:title="ipc::EdgeVertexTangentialCollision">
<polygon fill="#ffffff" stroke="black" points="529.5,-252 263.5,-252 263.5,-216 529.5,-216 529.5,-252"/>
<text text-anchor="middle" x="396.5" y="-230.3" font-family="Times,serif" font-size="14.00">ipc::EdgeVertexTangentialCollision</text>
</a>
</g>
</g>
<!-- 5&#45;&gt;1 -->
<g id="edge4" class="edge">
<title>5&#45;&gt;1</title>
<g id="a_edge4"><a xlink:title="public&#45;inheritance">
<path fill="none" stroke="#ce93d8" d="M362.99,-215.88C344.66,-206.51 321.76,-194.81 302.17,-184.8"/>
<polygon fill="#ce93d8" stroke="#ce93d8" points="303.64,-181.62 293.14,-180.19 300.46,-187.86 303.64,-181.62"/>
</a>
</g>
</g>
</g>
</svg>
