<?xml version="1.0" encoding="UTF-8" standalone="no"?>
<!DOCTYPE svg PUBLIC "-//W3C//DTD SVG 1.1//EN"
 "http://www.w3.org/Graphics/SVG/1.1/DTD/svg11.dtd">
<!-- Generated by graphviz version 2.43.0 (0)
 -->
<!-- Title: %3 Pages: 1 -->
<svg width="408pt" height="188pt"
 viewBox="0.00 0.00 408.00 188.00" xmlns="http://www.w3.org/2000/svg" xmlns:xlink="http://www.w3.org/1999/xlink">
<g id="graph0" class="graph" transform="scale(1 1) rotate(0) translate(4 184)">
<title>%3</title>
<polygon fill="transparent" stroke="transparent" points="-4,4 -4,-184 404,-184 404,4 -4,4"/>
<!-- 3 -->
<g id="node1" class="node">
<title>3</title>
<g id="a_node1"><a xlink:title="ipc::CollisionStencil">
<polygon fill="#ffffff" stroke="black" points="282.5,-36 124.5,-36 124.5,0 282.5,0 282.5,-36"/>
<text text-anchor="middle" x="203.5" y="-14.3" font-family="Times,serif" font-size="14.00">ipc::CollisionStencil</text>
</a>
</g>
</g>
<!-- 2 -->
<g id="node2" class="node">
<title>2</title>
<g id="a_node2"><a xlink:title="ipc::FaceVertexCandidate">
<polygon fill="#ffffff" stroke="black" points="199,-108 0,-108 0,-72 199,-72 199,-108"/>
<text text-anchor="middle" x="99.5" y="-86.3" font-family="Times,serif" font-size="14.00">ipc::FaceVertexCandidate</text>
</a>
</g>
</g>
<!-- 2&#45;&gt;3 -->
<g id="edge1" class="edge">
<title>2&#45;&gt;3</title>
<g id="a_edge1"><a xlink:title="public&#45;inheritance">
<path fill="none" stroke="#ce93d8" d="M124.94,-71.88C138.29,-62.89 154.82,-51.76 169.28,-42.03"/>
<polygon fill="#ce93d8" stroke="#ce93d8" points="171.62,-44.68 177.96,-36.19 167.71,-38.87 171.62,-44.68"/>
</a>
</g>
</g>
<!-- 1 -->
<g id="node3" class="node">
<title>1</title>
<g id="a_node3"><a xlink:title="ipc::FaceVertexTangentialCollision">
<polygon fill="#bfbfbf" stroke="black" points="335,-180 72,-180 72,-144 335,-144 335,-180"/>
<text text-anchor="middle" x="203.5" y="-158.3" font-family="Times,serif" font-size="14.00">ipc::FaceVertexTangentialCollision</text>
</a>
</g>
</g>
<!-- 1&#45;&gt;2 -->
<g id="edge2" class="edge">
<title>1&#45;&gt;2</title>
<g id="a_edge2"><a xlink:title="public&#45;inheritance">
<path fill="none" stroke="#ce93d8" d="M178.06,-143.88C164.71,-134.89 148.18,-123.76 133.72,-114.03"/>
<polygon fill="#ce93d8" stroke="#ce93d8" points="135.29,-110.87 125.04,-108.19 131.38,-116.68 135.29,-110.87"/>
</a>
</g>
</g>
<!-- 4 -->
<g id="node4" class="node">
<title>4</title>
<g id="a_node4"><a xlink:title="ipc::TangentialCollision">
<polygon fill="#ffffff" stroke="black" points="400,-108 217,-108 217,-72 400,-72 400,-108"/>
<text text-anchor="middle" x="308.5" y="-86.3" font-family="Times,serif" font-size="14.00">ipc::TangentialCollision</text>
</a>
</g>
</g>
<!-- 1&#45;&gt;4 -->
<g id="edge3" class="edge">
<title>1&#45;&gt;4</title>
<g id="a_edge3"><a xlink:title="public&#45;inheritance">
<path fill="none" stroke="#ce93d8" d="M229.19,-143.88C242.79,-134.81 259.67,-123.55 274.36,-113.76"/>
<polygon fill="#ce93d8" stroke="#ce93d8" points="276.34,-116.65 282.72,-108.19 272.45,-110.82 276.34,-116.65"/>
</a>
</g>
</g>
<!-- 4&#45;&gt;3 -->
<g id="edge4" class="edge">
<title>4&#45;&gt;3</title>
<g id="a_edge4"><a xlink:title="public&#45;inheritance">
<path fill="none" stroke="#ce93d8" d="M282.81,-71.88C269.21,-62.81 252.33,-51.55 237.64,-41.76"/>
<polygon fill="#ce93d8" stroke="#ce93d8" points="239.55,-38.82 229.28,-36.19 235.66,-44.65 239.55,-38.82"/>
</a>
</g>
</g>
</g>
</svg>
