<?xml version="1.0" encoding="UTF-8" standalone="no"?>
<!DOCTYPE svg PUBLIC "-//W3C//DTD SVG 1.1//EN"
 "http://www.w3.org/Graphics/SVG/1.1/DTD/svg11.dtd">
<!-- Generated by graphviz version 2.43.0 (0)
 -->
<!-- Title: %3 Pages: 1 -->
<svg width="370pt" height="188pt"
 viewBox="0.00 0.00 370.00 188.00" xmlns="http://www.w3.org/2000/svg" xmlns:xlink="http://www.w3.org/1999/xlink">
<g id="graph0" class="graph" transform="scale(1 1) rotate(0) translate(4 184)">
<title>%3</title>
<!-- 3 -->
<g id="node1" class="node">
<title>3</title>
<g id="a_node1"><a xlink:title="ipc::CollisionStencil">
<polygon fill="#ffffff" stroke="black" points="265.5,-36 115.5,-36 115.5,0 265.5,0 265.5,-36"/>
<text text-anchor="middle" x="190.5" y="-14.3" font-family="Menlo" font-size="14.00">ipc::CollisionStencil</text>
</a>
</g>
</g>
<!-- 2 -->
<g id="node2" class="node">
<title>2</title>
<g id="a_node2"><a xlink:title="ipc::FaceVertexCandidate">
<polygon fill="#ffffff" stroke="black" points="191,-108 0,-108 0,-72 191,-72 191,-108"/>
<text text-anchor="middle" x="95.5" y="-86.3" font-family="Menlo" font-size="14.00">ipc::FaceVertexCandidate</text>
</a>
</g>
</g>
<!-- 2&#45;&gt;3 -->
<g id="edge1" class="edge">
<title>2&#45;&gt;3</title>
<g id="a_edge1"><a xlink:title="public&#45;inheritance">
<path fill="none" stroke="#ce93d8" d="M118.98,-71.7C131.06,-62.8 145.95,-51.82 159.02,-42.2"/>
<polygon fill="#ce93d8" stroke="#ce93d8" points="161.31,-44.85 167.29,-36.1 157.16,-39.22 161.31,-44.85"/>
</a>
</g>
</g>
<!-- 1 -->
<g id="node3" class="node">
<title>1</title>
<g id="a_node3"><a xlink:title="ipc::FaceVertexNormalCollision">
<polygon fill="#bfbfbf" stroke="black" points="304.5,-180 76.5,-180 76.5,-144 304.5,-144 304.5,-180"/>
<text text-anchor="middle" x="190.5" y="-158.3" font-family="Menlo" font-size="14.00">ipc::FaceVertexNormalCollision</text>
</a>
</g>
</g>
<!-- 1&#45;&gt;2 -->
<g id="edge2" class="edge">
<title>1&#45;&gt;2</title>
<g id="a_edge2"><a xlink:title="public&#45;inheritance">
<path fill="none" stroke="#ce93d8" d="M167.02,-143.7C154.94,-134.8 140.05,-123.82 126.98,-114.2"/>
<polygon fill="#ce93d8" stroke="#ce93d8" points="128.84,-111.22 118.71,-108.1 124.69,-116.85 128.84,-111.22"/>
</a>
</g>
</g>
<!-- 4 -->
<g id="node4" class="node">
<title>4</title>
<g id="a_node4"><a xlink:title="ipc::NormalCollision">
<polygon fill="#ffffff" stroke="black" points="362,-108 209,-108 209,-72 362,-72 362,-108"/>
<text text-anchor="middle" x="285.5" y="-86.3" font-family="Menlo" font-size="14.00">ipc::NormalCollision</text>
</a>
</g>
</g>
<!-- 1&#45;&gt;4 -->
<g id="edge3" class="edge">
<title>1&#45;&gt;4</title>
<g id="a_edge3"><a xlink:title="public&#45;inheritance">
<path fill="none" stroke="#ce93d8" d="M213.98,-143.7C226.06,-134.8 240.95,-123.82 254.02,-114.2"/>
<polygon fill="#ce93d8" stroke="#ce93d8" points="256.31,-116.85 262.29,-108.1 252.16,-111.22 256.31,-116.85"/>
</a>
</g>
</g>
<!-- 4&#45;&gt;3 -->
<g id="edge4" class="edge">
<title>4&#45;&gt;3</title>
<g id="a_edge4"><a xlink:title="public&#45;inheritance">
<path fill="none" stroke="#ce93d8" d="M262.02,-71.7C249.94,-62.8 235.05,-51.82 221.98,-42.2"/>
<polygon fill="#ce93d8" stroke="#ce93d8" points="223.84,-39.22 213.71,-36.1 219.69,-44.85 223.84,-39.22"/>
</a>
</g>
</g>
</g>
</svg>
