<?xml version="1.0" encoding="UTF-8" standalone="no"?>
<!DOCTYPE svg PUBLIC "-//W3C//DTD SVG 1.1//EN"
 "http://www.w3.org/Graphics/SVG/1.1/DTD/svg11.dtd">
<!-- Generated by graphviz version 2.43.0 (0)
 -->
<!-- Title: %3 Pages: 1 -->
<svg width="450pt" height="260pt"
 viewBox="0.00 0.00 449.50 260.00" xmlns="http://www.w3.org/2000/svg" xmlns:xlink="http://www.w3.org/1999/xlink">
<g id="graph0" class="graph" transform="scale(1 1) rotate(0) translate(4 256)">
<title>%3</title>
<polygon fill="transparent" stroke="transparent" points="-4,4 -4,-256 445.5,-256 445.5,4 -4,4"/>
<!-- 4 -->
<g id="node1" class="node">
<title>4</title>
<g id="a_node1"><a xlink:title="ipc::CollisionStencil">
<polygon fill="#ffffff" stroke="black" points="325,-36 167,-36 167,0 325,0 325,-36"/>
<text text-anchor="middle" x="246" y="-14.3" font-family="Times,serif" font-size="14.00">ipc::CollisionStencil</text>
</a>
</g>
</g>
<!-- 3 -->
<g id="node2" class="node">
<title>3</title>
<g id="a_node2"><a xlink:title="ipc::ContinuousCollisionCandidate">
<polygon fill="#ffffff" stroke="black" points="262,-108 0,-108 0,-72 262,-72 262,-108"/>
<text text-anchor="middle" x="131" y="-86.3" font-family="Times,serif" font-size="14.00">ipc::ContinuousCollisionCandidate</text>
</a>
</g>
</g>
<!-- 3&#45;&gt;4 -->
<g id="edge1" class="edge">
<title>3&#45;&gt;4</title>
<g id="a_edge1"><a xlink:title="public&#45;inheritance">
<path fill="none" stroke="#ce93d8" d="M159.13,-71.88C174.17,-62.72 192.87,-51.34 209.06,-41.48"/>
<polygon fill="#ce93d8" stroke="#ce93d8" points="211.04,-44.38 217.76,-36.19 207.4,-38.4 211.04,-44.38"/>
</a>
</g>
</g>
<!-- 2 -->
<g id="node3" class="node">
<title>2</title>
<g id="a_node3"><a xlink:title="ipc::EdgeVertexCandidate">
<polygon fill="#ffffff" stroke="black" points="282.5,-180 79.5,-180 79.5,-144 282.5,-144 282.5,-180"/>
<text text-anchor="middle" x="181" y="-158.3" font-family="Times,serif" font-size="14.00">ipc::EdgeVertexCandidate</text>
</a>
</g>
</g>
<!-- 2&#45;&gt;3 -->
<g id="edge2" class="edge">
<title>2&#45;&gt;3</title>
<g id="a_edge2"><a xlink:title="public&#45;inheritance">
<path fill="none" stroke="#ce93d8" d="M168.64,-143.7C162.77,-135.47 155.63,-125.48 149.16,-116.42"/>
<polygon fill="#ce93d8" stroke="#ce93d8" points="151.88,-114.21 143.22,-108.1 146.18,-118.28 151.88,-114.21"/>
</a>
</g>
</g>
<!-- 1 -->
<g id="node4" class="node">
<title>1</title>
<g id="a_node4"><a xlink:title="ipc::EdgeVertexNormalCollision">
<polygon fill="#bfbfbf" stroke="black" points="368.5,-252 123.5,-252 123.5,-216 368.5,-216 368.5,-252"/>
<text text-anchor="middle" x="246" y="-230.3" font-family="Times,serif" font-size="14.00">ipc::EdgeVertexNormalCollision</text>
</a>
</g>
</g>
<!-- 1&#45;&gt;2 -->
<g id="edge3" class="edge">
<title>1&#45;&gt;2</title>
<g id="a_edge3"><a xlink:title="public&#45;inheritance">
<path fill="none" stroke="#ce93d8" d="M229.93,-215.7C222.06,-207.22 212.44,-196.86 203.83,-187.58"/>
<polygon fill="#ce93d8" stroke="#ce93d8" points="206.25,-185.05 196.88,-180.1 201.12,-189.81 206.25,-185.05"/>
</a>
</g>
</g>
<!-- 5 -->
<g id="node5" class="node">
<title>5</title>
<g id="a_node5"><a xlink:title="ipc::NormalCollision">
<polygon fill="#ffffff" stroke="black" points="441.5,-108 280.5,-108 280.5,-72 441.5,-72 441.5,-108"/>
<text text-anchor="middle" x="361" y="-86.3" font-family="Times,serif" font-size="14.00">ipc::NormalCollision</text>
</a>
</g>
</g>
<!-- 1&#45;&gt;5 -->
<g id="edge4" class="edge">
<title>1&#45;&gt;5</title>
<g id="a_edge4"><a xlink:title="public&#45;inheritance">
<path fill="none" stroke="#ce93d8" d="M260.76,-215.95C269.62,-205.63 281.07,-192.15 291,-180 308.32,-158.81 327.5,-134.35 341.4,-116.44"/>
<polygon fill="#ce93d8" stroke="#ce93d8" points="344.41,-118.26 347.77,-108.21 338.88,-113.98 344.41,-118.26"/>
</a>
</g>
</g>
<!-- 5&#45;&gt;4 -->
<g id="edge5" class="edge">
<title>5&#45;&gt;4</title>
<g id="a_edge5"><a xlink:title="public&#45;inheritance">
<path fill="none" stroke="#ce93d8" d="M332.87,-71.88C317.83,-62.72 299.13,-51.34 282.94,-41.48"/>
<polygon fill="#ce93d8" stroke="#ce93d8" points="284.6,-38.4 274.24,-36.19 280.96,-44.38 284.6,-38.4"/>
</a>
</g>
</g>
</g>
</svg>
