<?xml version="1.0" encoding="UTF-8" standalone="no"?>
<!DOCTYPE svg PUBLIC "-//W3C//DTD SVG 1.1//EN"
 "http://www.w3.org/Graphics/SVG/1.1/DTD/svg11.dtd">
<!-- Generated by graphviz version 2.43.0 (0)
 -->
<!-- Title: %3 Pages: 1 -->
<svg width="2440pt" height="260pt"
 viewBox="0.00 0.00 2439.50 260.00" xmlns="http://www.w3.org/2000/svg" xmlns:xlink="http://www.w3.org/1999/xlink">
<g id="graph0" class="graph" transform="scale(1 1) rotate(0) translate(4 256)">
<title>%3</title>
<polygon fill="transparent" stroke="transparent" points="-4,4 -4,-256 2435.5,-256 2435.5,4 -4,4"/>
<!-- 1 -->
<g id="node1" class="node">
<title>1</title>
<g id="a_node1"><a xlink:title="ipc::CollisionStencil">
<polygon fill="#bfbfbf" stroke="black" points="1310.5,-36 1152.5,-36 1152.5,0 1310.5,0 1310.5,-36"/>
<text text-anchor="middle" x="1231.5" y="-14.3" font-family="Times,serif" font-size="14.00">ipc::CollisionStencil</text>
</a>
</g>
</g>
<!-- 2 -->
<g id="node2" class="node">
<title>2</title>
<g id="a_node2"><a xlink:title="ipc::ContinuousCollisionCandidate">
<polygon fill="#ffffff" stroke="black" points="1362.5,-108 1100.5,-108 1100.5,-72 1362.5,-72 1362.5,-108"/>
<text text-anchor="middle" x="1231.5" y="-86.3" font-family="Times,serif" font-size="14.00">ipc::ContinuousCollisionCandidate</text>
</a>
</g>
</g>
<!-- 2&#45;&gt;1 -->
<g id="edge1" class="edge">
<title>2&#45;&gt;1</title>
<g id="a_edge1"><a xlink:title="public&#45;inheritance">
<path fill="none" stroke="#ce93d8" d="M1231.5,-71.7C1231.5,-63.98 1231.5,-54.71 1231.5,-46.11"/>
<polygon fill="#ce93d8" stroke="#ce93d8" points="1235,-46.1 1231.5,-36.1 1228,-46.1 1235,-46.1"/>
</a>
</g>
</g>
<!-- 3 -->
<g id="node3" class="node">
<title>3</title>
<g id="a_node3"><a xlink:title="ipc::EdgeEdgeCandidate">
<polygon fill="#ffffff" stroke="black" points="1002,-180 809,-180 809,-144 1002,-144 1002,-180"/>
<text text-anchor="middle" x="905.5" y="-158.3" font-family="Times,serif" font-size="14.00">ipc::EdgeEdgeCandidate</text>
</a>
</g>
</g>
<!-- 3&#45;&gt;2 -->
<g id="edge2" class="edge">
<title>3&#45;&gt;2</title>
<g id="a_edge2"><a xlink:title="public&#45;inheritance">
<path fill="none" stroke="#ce93d8" d="M984.83,-143.97C1032.35,-133.76 1092.89,-120.76 1142.09,-110.2"/>
<polygon fill="#ce93d8" stroke="#ce93d8" points="1143.05,-113.57 1152.1,-108.05 1141.58,-106.73 1143.05,-113.57"/>
</a>
</g>
</g>
<!-- 4 -->
<g id="node4" class="node">
<title>4</title>
<g id="a_node4"><a xlink:title="ipc::EdgeEdgeNormalCollision">
<polygon fill="#ffffff" stroke="black" points="1370,-252 1135,-252 1135,-216 1370,-216 1370,-252"/>
<text text-anchor="middle" x="1252.5" y="-230.3" font-family="Times,serif" font-size="14.00">ipc::EdgeEdgeNormalCollision</text>
</a>
</g>
</g>
<!-- 4&#45;&gt;3 -->
<g id="edge3" class="edge">
<title>4&#45;&gt;3</title>
<g id="a_edge3"><a xlink:title="public&#45;inheritance">
<path fill="none" stroke="#ce93d8" d="M1168.06,-215.97C1117.27,-205.72 1052.51,-192.66 1000.01,-182.07"/>
<polygon fill="#ce93d8" stroke="#ce93d8" points="1000.51,-178.6 990.02,-180.05 999.13,-185.46 1000.51,-178.6"/>
</a>
</g>
</g>
<!-- 15 -->
<g id="node12" class="node">
<title>15</title>
<g id="a_node12"><a xlink:title="ipc::NormalCollision">
<polygon fill="#ffffff" stroke="black" points="1852,-180 1691,-180 1691,-144 1852,-144 1852,-180"/>
<text text-anchor="middle" x="1771.5" y="-158.3" font-family="Times,serif" font-size="14.00">ipc::NormalCollision</text>
</a>
</g>
</g>
<!-- 4&#45;&gt;15 -->
<g id="edge4" class="edge">
<title>4&#45;&gt;15</title>
<g id="a_edge4"><a xlink:title="public&#45;inheritance">
<path fill="none" stroke="#ce93d8" d="M1370.12,-217.2C1373.28,-216.79 1376.41,-216.39 1379.5,-216 1512.72,-199.09 1546.74,-200.21 1679.5,-180 1679.96,-179.93 1680.42,-179.86 1680.89,-179.79"/>
<polygon fill="#ce93d8" stroke="#ce93d8" points="1681.45,-183.24 1690.77,-178.22 1680.35,-176.33 1681.45,-183.24"/>
</a>
</g>
</g>
<!-- 5 -->
<g id="node5" class="node">
<title>5</title>
<g id="a_node5"><a xlink:title="ipc::EdgeEdgeTangentialCollision">
<polygon fill="#ffffff" stroke="black" points="257,-252 0,-252 0,-216 257,-216 257,-252"/>
<text text-anchor="middle" x="128.5" y="-230.3" font-family="Times,serif" font-size="14.00">ipc::EdgeEdgeTangentialCollision</text>
</a>
</g>
</g>
<!-- 5&#45;&gt;3 -->
<g id="edge5" class="edge">
<title>5&#45;&gt;3</title>
<g id="a_edge5"><a xlink:title="public&#45;inheritance">
<path fill="none" stroke="#ce93d8" d="M257.19,-216.82C259.98,-216.54 262.76,-216.26 265.5,-216 500.08,-193.48 560.27,-205.86 794.5,-180 795.81,-179.86 797.12,-179.71 798.45,-179.55"/>
<polygon fill="#ce93d8" stroke="#ce93d8" points="799.19,-182.99 808.7,-178.31 798.35,-176.04 799.19,-182.99"/>
</a>
</g>
</g>
<!-- 17 -->
<g id="node14" class="node">
<title>17</title>
<g id="a_node14"><a xlink:title="ipc::TangentialCollision">
<polygon fill="#ffffff" stroke="black" points="786,-180 603,-180 603,-144 786,-144 786,-180"/>
<text text-anchor="middle" x="694.5" y="-158.3" font-family="Times,serif" font-size="14.00">ipc::TangentialCollision</text>
</a>
</g>
</g>
<!-- 5&#45;&gt;17 -->
<g id="edge6" class="edge">
<title>5&#45;&gt;17</title>
<g id="a_edge6"><a xlink:title="public&#45;inheritance">
<path fill="none" stroke="#ce93d8" d="M257.21,-217.03C260,-216.68 262.76,-216.34 265.5,-216 377.44,-202.14 505.81,-186.29 592.74,-175.56"/>
<polygon fill="#ce93d8" stroke="#ce93d8" points="593.37,-179.01 602.86,-174.31 592.51,-172.06 593.37,-179.01"/>
</a>
</g>
</g>
<!-- 6 -->
<g id="node6" class="node">
<title>6</title>
<g id="a_node6"><a xlink:title="ipc::EdgeVertexCandidate">
<polygon fill="#ffffff" stroke="black" points="1670,-180 1467,-180 1467,-144 1670,-144 1670,-180"/>
<text text-anchor="middle" x="1568.5" y="-158.3" font-family="Times,serif" font-size="14.00">ipc::EdgeVertexCandidate</text>
</a>
</g>
</g>
<!-- 6&#45;&gt;2 -->
<g id="edge7" class="edge">
<title>6&#45;&gt;2</title>
<g id="a_edge7"><a xlink:title="public&#45;inheritance">
<path fill="none" stroke="#ce93d8" d="M1486.49,-143.97C1437.27,-133.74 1374.53,-120.71 1323.6,-110.13"/>
<polygon fill="#ce93d8" stroke="#ce93d8" points="1324.09,-106.66 1313.58,-108.05 1322.66,-113.51 1324.09,-106.66"/>
</a>
</g>
</g>
<!-- 7 -->
<g id="node7" class="node">
<title>7</title>
<g id="a_node7"><a xlink:title="ipc::EdgeVertexNormalCollision">
<polygon fill="#ffffff" stroke="black" points="2165,-252 1920,-252 1920,-216 2165,-216 2165,-252"/>
<text text-anchor="middle" x="2042.5" y="-230.3" font-family="Times,serif" font-size="14.00">ipc::EdgeVertexNormalCollision</text>
</a>
</g>
</g>
<!-- 7&#45;&gt;6 -->
<g id="edge8" class="edge">
<title>7&#45;&gt;6</title>
<g id="a_edge8"><a xlink:title="public&#45;inheritance">
<path fill="none" stroke="#ce93d8" d="M1926.57,-215.99C1856.01,-205.62 1764.05,-192.08 1682.5,-180 1681.74,-179.89 1680.98,-179.77 1680.21,-179.66"/>
<polygon fill="#ce93d8" stroke="#ce93d8" points="1680.53,-176.17 1670.12,-178.16 1679.5,-183.09 1680.53,-176.17"/>
</a>
</g>
</g>
<!-- 7&#45;&gt;15 -->
<g id="edge9" class="edge">
<title>7&#45;&gt;15</title>
<g id="a_edge9"><a xlink:title="public&#45;inheritance">
<path fill="none" stroke="#ce93d8" d="M1976.55,-215.97C1937.62,-205.91 1888.17,-193.14 1847.59,-182.65"/>
<polygon fill="#ce93d8" stroke="#ce93d8" points="1848.3,-179.22 1837.74,-180.11 1846.55,-186 1848.3,-179.22"/>
</a>
</g>
</g>
<!-- 8 -->
<g id="node8" class="node">
<title>8</title>
<g id="a_node8"><a xlink:title="ipc::EdgeVertexTangentialCollision">
<polygon fill="#ffffff" stroke="black" points="1116.5,-252 850.5,-252 850.5,-216 1116.5,-216 1116.5,-252"/>
<text text-anchor="middle" x="983.5" y="-230.3" font-family="Times,serif" font-size="14.00">ipc::EdgeVertexTangentialCollision</text>
</a>
</g>
</g>
<!-- 8&#45;&gt;6 -->
<g id="edge10" class="edge">
<title>8&#45;&gt;6</title>
<g id="a_edge10"><a xlink:title="public&#45;inheritance">
<path fill="none" stroke="#ce93d8" d="M1116.53,-217.03C1119.54,-216.68 1122.54,-216.34 1125.5,-216 1270.08,-199.53 1309.16,-199.37 1456.6,-180.22"/>
<polygon fill="#ce93d8" stroke="#ce93d8" points="1457.47,-183.64 1466.94,-178.87 1456.57,-176.69 1457.47,-183.64"/>
</a>
</g>
</g>
<!-- 8&#45;&gt;17 -->
<g id="edge11" class="edge">
<title>8&#45;&gt;17</title>
<g id="a_edge11"><a xlink:title="public&#45;inheritance">
<path fill="none" stroke="#ce93d8" d="M913.17,-215.97C871.4,-205.85 818.28,-192.98 774.85,-182.46"/>
<polygon fill="#ce93d8" stroke="#ce93d8" points="775.44,-179 764.89,-180.05 773.79,-185.81 775.44,-179"/>
</a>
</g>
</g>
<!-- 9 -->
<g id="node9" class="node">
<title>9</title>
<g id="a_node9"><a xlink:title="ipc::FaceVertexCandidate">
<polygon fill="#ffffff" stroke="black" points="1219,-180 1020,-180 1020,-144 1219,-144 1219,-180"/>
<text text-anchor="middle" x="1119.5" y="-158.3" font-family="Times,serif" font-size="14.00">ipc::FaceVertexCandidate</text>
</a>
</g>
</g>
<!-- 9&#45;&gt;2 -->
<g id="edge12" class="edge">
<title>9&#45;&gt;2</title>
<g id="a_edge12"><a xlink:title="public&#45;inheritance">
<path fill="none" stroke="#ce93d8" d="M1146.9,-143.88C1161.41,-134.81 1179.42,-123.55 1195.09,-113.76"/>
<polygon fill="#ce93d8" stroke="#ce93d8" points="1197.37,-116.46 1204,-108.19 1193.66,-110.52 1197.37,-116.46"/>
</a>
</g>
</g>
<!-- 10 -->
<g id="node10" class="node">
<title>10</title>
<g id="a_node10"><a xlink:title="ipc::FaceVertexNormalCollision">
<polygon fill="#ffffff" stroke="black" points="1629,-252 1388,-252 1388,-216 1629,-216 1629,-252"/>
<text text-anchor="middle" x="1508.5" y="-230.3" font-family="Times,serif" font-size="14.00">ipc::FaceVertexNormalCollision</text>
</a>
</g>
</g>
<!-- 10&#45;&gt;9 -->
<g id="edge13" class="edge">
<title>10&#45;&gt;9</title>
<g id="a_edge13"><a xlink:title="public&#45;inheritance">
<path fill="none" stroke="#ce93d8" d="M1413.84,-215.97C1356.54,-205.66 1283.39,-192.49 1224.35,-181.87"/>
<polygon fill="#ce93d8" stroke="#ce93d8" points="1224.71,-178.38 1214.25,-180.05 1223.47,-185.27 1224.71,-178.38"/>
</a>
</g>
</g>
<!-- 10&#45;&gt;15 -->
<g id="edge14" class="edge">
<title>10&#45;&gt;15</title>
<g id="a_edge14"><a xlink:title="public&#45;inheritance">
<path fill="none" stroke="#ce93d8" d="M1572.5,-215.97C1610.21,-205.93 1658.07,-193.19 1697.41,-182.72"/>
<polygon fill="#ce93d8" stroke="#ce93d8" points="1698.45,-186.07 1707.21,-180.11 1696.65,-179.3 1698.45,-186.07"/>
</a>
</g>
</g>
<!-- 11 -->
<g id="node11" class="node">
<title>11</title>
<g id="a_node11"><a xlink:title="ipc::FaceVertexTangentialCollision">
<polygon fill="#ffffff" stroke="black" points="538,-252 275,-252 275,-216 538,-216 538,-252"/>
<text text-anchor="middle" x="406.5" y="-230.3" font-family="Times,serif" font-size="14.00">ipc::FaceVertexTangentialCollision</text>
</a>
</g>
</g>
<!-- 11&#45;&gt;9 -->
<g id="edge15" class="edge">
<title>11&#45;&gt;9</title>
<g id="a_edge15"><a xlink:title="public&#45;inheritance">
<path fill="none" stroke="#ce93d8" d="M538.2,-216.94C541.33,-216.62 544.43,-216.3 547.5,-216 749.58,-195.97 803.76,-203.66 1009.52,-180.06"/>
<polygon fill="#ce93d8" stroke="#ce93d8" points="1010.22,-183.5 1019.75,-178.87 1009.41,-176.55 1010.22,-183.5"/>
</a>
</g>
</g>
<!-- 11&#45;&gt;17 -->
<g id="edge16" class="edge">
<title>11&#45;&gt;17</title>
<g id="a_edge16"><a xlink:title="public&#45;inheritance">
<path fill="none" stroke="#ce93d8" d="M476.58,-215.97C518.14,-205.87 570.95,-193.03 614.18,-182.52"/>
<polygon fill="#ce93d8" stroke="#ce93d8" points="615.21,-185.87 624.1,-180.11 613.56,-179.07 615.21,-185.87"/>
</a>
</g>
</g>
<!-- 15&#45;&gt;1 -->
<g id="edge17" class="edge">
<title>15&#45;&gt;1</title>
<g id="a_edge17"><a xlink:title="public&#45;inheritance">
<path fill="none" stroke="#ce93d8" d="M1706.63,-143.94C1605.95,-117.47 1412.61,-66.62 1306.22,-38.65"/>
<polygon fill="#ce93d8" stroke="#ce93d8" points="1307.08,-35.26 1296.52,-36.1 1305.3,-42.03 1307.08,-35.26"/>
</a>
</g>
</g>
<!-- 16 -->
<g id="node13" class="node">
<title>16</title>
<g id="a_node13"><a xlink:title="ipc::PlaneVertexNormalCollision">
<polygon fill="#ffffff" stroke="black" points="2431.5,-252 2183.5,-252 2183.5,-216 2431.5,-216 2431.5,-252"/>
<text text-anchor="middle" x="2307.5" y="-230.3" font-family="Times,serif" font-size="14.00">ipc::PlaneVertexNormalCollision</text>
</a>
</g>
</g>
<!-- 16&#45;&gt;15 -->
<g id="edge18" class="edge">
<title>16&#45;&gt;15</title>
<g id="a_edge18"><a xlink:title="public&#45;inheritance">
<path fill="none" stroke="#ce93d8" d="M2183.18,-216.76C2085.06,-203.95 1950.46,-186.37 1862.27,-174.85"/>
<polygon fill="#ce93d8" stroke="#ce93d8" points="1862.66,-171.38 1852.29,-173.55 1861.75,-178.32 1862.66,-171.38"/>
</a>
</g>
</g>
<!-- 17&#45;&gt;1 -->
<g id="edge19" class="edge">
<title>17&#45;&gt;1</title>
<g id="a_edge19"><a xlink:title="public&#45;inheritance">
<path fill="none" stroke="#ce93d8" d="M759.01,-143.94C859.03,-117.49 1051.01,-66.73 1156.87,-38.73"/>
<polygon fill="#ce93d8" stroke="#ce93d8" points="1158.07,-42.04 1166.84,-36.1 1156.28,-35.27 1158.07,-42.04"/>
</a>
</g>
</g>
<!-- 12 -->
<g id="node15" class="node">
<title>12</title>
<g id="a_node15"><a xlink:title="ipc::VertexVertexCandidate">
<polygon fill="#ffffff" stroke="black" points="1449.5,-180 1237.5,-180 1237.5,-144 1449.5,-144 1449.5,-180"/>
<text text-anchor="middle" x="1343.5" y="-158.3" font-family="Times,serif" font-size="14.00">ipc::VertexVertexCandidate</text>
</a>
</g>
</g>
<!-- 12&#45;&gt;2 -->
<g id="edge20" class="edge">
<title>12&#45;&gt;2</title>
<g id="a_edge20"><a xlink:title="public&#45;inheritance">
<path fill="none" stroke="#ce93d8" d="M1316.1,-143.88C1301.59,-134.81 1283.58,-123.55 1267.91,-113.76"/>
<polygon fill="#ce93d8" stroke="#ce93d8" points="1269.34,-110.52 1259,-108.19 1265.63,-116.46 1269.34,-110.52"/>
</a>
</g>
</g>
<!-- 13 -->
<g id="node16" class="node">
<title>13</title>
<g id="a_node16"><a xlink:title="ipc::VertexVertexNormalCollision">
<polygon fill="#ffffff" stroke="black" points="1901.5,-252 1647.5,-252 1647.5,-216 1901.5,-216 1901.5,-252"/>
<text text-anchor="middle" x="1774.5" y="-230.3" font-family="Times,serif" font-size="14.00">ipc::VertexVertexNormalCollision</text>
</a>
</g>
</g>
<!-- 13&#45;&gt;15 -->
<g id="edge22" class="edge">
<title>13&#45;&gt;15</title>
<g id="a_edge22"><a xlink:title="public&#45;inheritance">
<path fill="none" stroke="#ce93d8" d="M1773.76,-215.7C1773.43,-207.98 1773.03,-198.71 1772.66,-190.11"/>
<polygon fill="#ce93d8" stroke="#ce93d8" points="1776.16,-189.95 1772.23,-180.1 1769.16,-190.25 1776.16,-189.95"/>
</a>
</g>
</g>
<!-- 13&#45;&gt;12 -->
<g id="edge21" class="edge">
<title>13&#45;&gt;12</title>
<g id="a_edge21"><a xlink:title="public&#45;inheritance">
<path fill="none" stroke="#ce93d8" d="M1669.62,-215.97C1605.74,-205.59 1524.08,-192.33 1458.46,-181.67"/>
<polygon fill="#ce93d8" stroke="#ce93d8" points="1458.91,-178.2 1448.48,-180.05 1457.79,-185.11 1458.91,-178.2"/>
</a>
</g>
</g>
<!-- 14 -->
<g id="node17" class="node">
<title>14</title>
<g id="a_node17"><a xlink:title="ipc::VertexVertexTangentialCollision">
<polygon fill="#ffffff" stroke="black" points="832.5,-252 556.5,-252 556.5,-216 832.5,-216 832.5,-252"/>
<text text-anchor="middle" x="694.5" y="-230.3" font-family="Times,serif" font-size="14.00">ipc::VertexVertexTangentialCollision</text>
</a>
</g>
</g>
<!-- 14&#45;&gt;17 -->
<g id="edge24" class="edge">
<title>14&#45;&gt;17</title>
<g id="a_edge24"><a xlink:title="public&#45;inheritance">
<path fill="none" stroke="#ce93d8" d="M694.5,-215.7C694.5,-207.98 694.5,-198.71 694.5,-190.11"/>
<polygon fill="#ce93d8" stroke="#ce93d8" points="698,-190.1 694.5,-180.1 691,-190.1 698,-190.1"/>
</a>
</g>
</g>
<!-- 14&#45;&gt;12 -->
<g id="edge23" class="edge">
<title>14&#45;&gt;12</title>
<g id="a_edge23"><a xlink:title="public&#45;inheritance">
<path fill="none" stroke="#ce93d8" d="M832.6,-216.94C835.59,-216.62 838.56,-216.31 841.5,-216 1009.69,-198.43 1054.76,-200.42 1227.4,-179.97"/>
<polygon fill="#ce93d8" stroke="#ce93d8" points="1227.81,-183.45 1237.33,-178.79 1226.98,-176.5 1227.81,-183.45"/>
</a>
</g>
</g>
</g>
</svg>
