<?xml version="1.0" encoding="UTF-8" standalone="no"?>
<!DOCTYPE svg PUBLIC "-//W3C//DTD SVG 1.1//EN"
 "http://www.w3.org/Graphics/SVG/1.1/DTD/svg11.dtd">
<!-- Generated by graphviz version 2.43.0 (0)
 -->
<!-- Title: %3 Pages: 1 -->
<svg width="1304pt" height="188pt"
 viewBox="0.00 0.00 1304.00 188.00" xmlns="http://www.w3.org/2000/svg" xmlns:xlink="http://www.w3.org/1999/xlink">
<g id="graph0" class="graph" transform="scale(1 1) rotate(0) translate(4 184)">
<title>%3</title>
<polygon fill="transparent" stroke="transparent" points="-4,4 -4,-184 1300,-184 1300,4 -4,4"/>
<!-- 7 -->
<g id="node1" class="node">
<title>7</title>
<g id="a_node1"><a xlink:title="ipc::VertexVertexNormalCollision">
<polygon fill="#ffffff" stroke="black" points="254,-180 0,-180 0,-144 254,-144 254,-180"/>
<text text-anchor="middle" x="127" y="-158.3" font-family="Times,serif" font-size="14.00">ipc::VertexVertexNormalCollision</text>
</a>
</g>
</g>
<!-- 1 -->
<g id="node2" class="node">
<title>1</title>
<g id="a_node2"><a xlink:title="ipc::NormalCollision">
<polygon fill="#bfbfbf" stroke="black" points="729.5,-108 568.5,-108 568.5,-72 729.5,-72 729.5,-108"/>
<text text-anchor="middle" x="649" y="-86.3" font-family="Times,serif" font-size="14.00">ipc::NormalCollision</text>
</a>
</g>
</g>
<!-- 7&#45;&gt;1 -->
<g id="edge1" class="edge">
<title>7&#45;&gt;1</title>
<g id="a_edge1"><a xlink:title="public&#45;inheritance">
<path fill="none" stroke="#ce93d8" d="M254.03,-143.97C348.13,-131.35 474.11,-114.45 558.24,-103.17"/>
<polygon fill="#ce93d8" stroke="#ce93d8" points="558.84,-106.62 568.29,-101.82 557.91,-99.68 558.84,-106.62"/>
</a>
</g>
</g>
<!-- 2 -->
<g id="node4" class="node">
<title>2</title>
<g id="a_node4"><a xlink:title="ipc::CollisionStencil">
<polygon fill="#ffffff" stroke="black" points="728,-36 570,-36 570,0 728,0 728,-36"/>
<text text-anchor="middle" x="649" y="-14.3" font-family="Times,serif" font-size="14.00">ipc::CollisionStencil</text>
</a>
</g>
</g>
<!-- 1&#45;&gt;2 -->
<g id="edge2" class="edge">
<title>1&#45;&gt;2</title>
<g id="a_edge2"><a xlink:title="public&#45;inheritance">
<path fill="none" stroke="#ce93d8" d="M649,-71.7C649,-63.98 649,-54.71 649,-46.11"/>
<polygon fill="#ce93d8" stroke="#ce93d8" points="652.5,-46.1 649,-36.1 645.5,-46.1 652.5,-46.1"/>
</a>
</g>
</g>
<!-- 5 -->
<g id="node3" class="node">
<title>5</title>
<g id="a_node3"><a xlink:title="ipc::FaceVertexNormalCollision">
<polygon fill="#ffffff" stroke="black" points="513.5,-180 272.5,-180 272.5,-144 513.5,-144 513.5,-180"/>
<text text-anchor="middle" x="393" y="-158.3" font-family="Times,serif" font-size="14.00">ipc::FaceVertexNormalCollision</text>
</a>
</g>
</g>
<!-- 5&#45;&gt;1 -->
<g id="edge3" class="edge">
<title>5&#45;&gt;1</title>
<g id="a_edge3"><a xlink:title="public&#45;inheritance">
<path fill="none" stroke="#ce93d8" d="M455.3,-143.97C491.84,-133.97 538.19,-121.3 576.39,-110.85"/>
<polygon fill="#ce93d8" stroke="#ce93d8" points="577.7,-114.12 586.42,-108.11 575.85,-107.37 577.7,-114.12"/>
</a>
</g>
</g>
<!-- 3 -->
<g id="node5" class="node">
<title>3</title>
<g id="a_node5"><a xlink:title="ipc::EdgeEdgeNormalCollision">
<polygon fill="#ffffff" stroke="black" points="766.5,-180 531.5,-180 531.5,-144 766.5,-144 766.5,-180"/>
<text text-anchor="middle" x="649" y="-158.3" font-family="Times,serif" font-size="14.00">ipc::EdgeEdgeNormalCollision</text>
</a>
</g>
</g>
<!-- 3&#45;&gt;1 -->
<g id="edge4" class="edge">
<title>3&#45;&gt;1</title>
<g id="a_edge4"><a xlink:title="public&#45;inheritance">
<path fill="none" stroke="#ce93d8" d="M649,-143.7C649,-135.98 649,-126.71 649,-118.11"/>
<polygon fill="#ce93d8" stroke="#ce93d8" points="652.5,-118.1 649,-108.1 645.5,-118.1 652.5,-118.1"/>
</a>
</g>
</g>
<!-- 4 -->
<g id="node6" class="node">
<title>4</title>
<g id="a_node6"><a xlink:title="ipc::EdgeVertexNormalCollision">
<polygon fill="#ffffff" stroke="black" points="1029.5,-180 784.5,-180 784.5,-144 1029.5,-144 1029.5,-180"/>
<text text-anchor="middle" x="907" y="-158.3" font-family="Times,serif" font-size="14.00">ipc::EdgeVertexNormalCollision</text>
</a>
</g>
</g>
<!-- 4&#45;&gt;1 -->
<g id="edge5" class="edge">
<title>4&#45;&gt;1</title>
<g id="a_edge5"><a xlink:title="public&#45;inheritance">
<path fill="none" stroke="#ce93d8" d="M844.22,-143.97C807.38,-133.97 760.67,-121.3 722.18,-110.85"/>
<polygon fill="#ce93d8" stroke="#ce93d8" points="722.63,-107.35 712.07,-108.11 720.8,-114.11 722.63,-107.35"/>
</a>
</g>
</g>
<!-- 6 -->
<g id="node7" class="node">
<title>6</title>
<g id="a_node7"><a xlink:title="ipc::PlaneVertexNormalCollision">
<polygon fill="#ffffff" stroke="black" points="1296,-180 1048,-180 1048,-144 1296,-144 1296,-180"/>
<text text-anchor="middle" x="1172" y="-158.3" font-family="Times,serif" font-size="14.00">ipc::PlaneVertexNormalCollision</text>
</a>
</g>
</g>
<!-- 6&#45;&gt;1 -->
<g id="edge6" class="edge">
<title>6&#45;&gt;1</title>
<g id="a_edge6"><a xlink:title="public&#45;inheritance">
<path fill="none" stroke="#ce93d8" d="M1047.72,-144.37C953.09,-131.7 824.99,-114.56 739.81,-103.15"/>
<polygon fill="#ce93d8" stroke="#ce93d8" points="740.01,-99.65 729.64,-101.79 739.09,-106.59 740.01,-99.65"/>
</a>
</g>
</g>
</g>
</svg>
