<?xml version="1.0" encoding="UTF-8" standalone="no"?>
<!DOCTYPE svg PUBLIC "-//W3C//DTD SVG 1.1//EN"
 "http://www.w3.org/Graphics/SVG/1.1/DTD/svg11.dtd">
<!-- Generated by graphviz version 2.43.0 (0)
 -->
<!-- Title: %3 Pages: 1 -->
<svg width="444pt" height="188pt"
 viewBox="0.00 0.00 444.00 188.00" xmlns="http://www.w3.org/2000/svg" xmlns:xlink="http://www.w3.org/1999/xlink">
<g id="graph0" class="graph" transform="scale(1 1) rotate(0) translate(4 184)">
<title>%3</title>
<polygon fill="transparent" stroke="transparent" points="-4,4 -4,-184 440,-184 440,4 -4,4"/>
<!-- 3 -->
<g id="node1" class="node">
<title>3</title>
<g id="a_node1"><a xlink:title="ipc::FrictionPotential">
<polygon fill="#ffffff" stroke="black" points="167,-180 0,-180 0,-144 167,-144 167,-180"/>
<text text-anchor="middle" x="83.5" y="-158.3" font-family="Times,serif" font-size="14.00">ipc::FrictionPotential</text>
</a>
</g>
</g>
<!-- 1 -->
<g id="node2" class="node">
<title>1</title>
<g id="a_node2"><a xlink:title="ipc::TangentialPotential">
<polygon fill="#bfbfbf" stroke="black" points="289,-108 104,-108 104,-72 289,-72 289,-108"/>
<text text-anchor="middle" x="196.5" y="-86.3" font-family="Times,serif" font-size="14.00">ipc::TangentialPotential</text>
</a>
</g>
</g>
<!-- 3&#45;&gt;1 -->
<g id="edge1" class="edge">
<title>3&#45;&gt;1</title>
<g id="a_edge1"><a xlink:title="public&#45;inheritance">
<path fill="none" stroke="#ce93d8" d="M111.14,-143.88C125.92,-134.72 144.29,-123.34 160.2,-113.48"/>
<polygon fill="#ce93d8" stroke="#ce93d8" points="162.09,-116.43 168.75,-108.19 158.41,-110.48 162.09,-116.43"/>
</a>
</g>
</g>
<!-- 2 -->
<g id="node4" class="node">
<title>2</title>
<g id="a_node4"><a xlink:title="ipc::Potential&lt; TangentialCollisions &gt;">
<polygon fill="#ffffff" stroke="black" points="340,-36 53,-36 53,0 340,0 340,-36"/>
<text text-anchor="middle" x="196.5" y="-14.3" font-family="Times,serif" font-size="14.00">ipc::Potential&lt; TangentialCollisions &gt;</text>
</a>
</g>
</g>
<!-- 1&#45;&gt;2 -->
<g id="edge2" class="edge">
<title>1&#45;&gt;2</title>
<g id="a_edge2"><a xlink:title="public&#45;inheritance">
<path fill="none" stroke="#ce93d8" d="M196.5,-71.7C196.5,-63.98 196.5,-54.71 196.5,-46.11"/>
<polygon fill="#ce93d8" stroke="#ce93d8" points="200,-46.1 196.5,-36.1 193,-46.1 200,-46.1"/>
</a>
</g>
</g>
<!-- 4 -->
<g id="node3" class="node">
<title>4</title>
<g id="a_node3"><a xlink:title="ipc::TangentialAdhesionPotential">
<polygon fill="#ffffff" stroke="black" points="436,-180 185,-180 185,-144 436,-144 436,-180"/>
<text text-anchor="middle" x="310.5" y="-158.3" font-family="Times,serif" font-size="14.00">ipc::TangentialAdhesionPotential</text>
</a>
</g>
</g>
<!-- 4&#45;&gt;1 -->
<g id="edge3" class="edge">
<title>4&#45;&gt;1</title>
<g id="a_edge3"><a xlink:title="public&#45;inheritance">
<path fill="none" stroke="#ce93d8" d="M282.61,-143.88C267.71,-134.72 249.17,-123.34 233.12,-113.48"/>
<polygon fill="#ce93d8" stroke="#ce93d8" points="234.85,-110.44 224.49,-108.19 231.19,-116.41 234.85,-110.44"/>
</a>
</g>
</g>
</g>
</svg>
