<?xml version="1.0" encoding="UTF-8" standalone="no"?>
<!DOCTYPE svg PUBLIC "-//W3C//DTD SVG 1.1//EN"
 "http://www.w3.org/Graphics/SVG/1.1/DTD/svg11.dtd">
<!-- Generated by graphviz version 2.43.0 (0)
 -->
<!-- Title: %3 Pages: 1 -->
<svg width="376pt" height="188pt"
 viewBox="0.00 0.00 375.50 188.00" xmlns="http://www.w3.org/2000/svg" xmlns:xlink="http://www.w3.org/1999/xlink">
<g id="graph0" class="graph" transform="scale(1 1) rotate(0) translate(4 184)">
<title>%3</title>
<!-- 3 -->
<g id="node1" class="node">
<title>3</title>
<g id="a_node1"><a xlink:title="ipc::CollisionStencil">
<polygon fill="#ffffff" stroke="black" points="269,-36 119,-36 119,0 269,0 269,-36"/>
<text text-anchor="middle" x="194" y="-14.3" font-family="Menlo" font-size="14.00">ipc::CollisionStencil</text>
</a>
</g>
</g>
<!-- 2 -->
<g id="node2" class="node">
<title>2</title>
<g id="a_node2"><a xlink:title="ipc::EdgeVertexCandidate">
<polygon fill="#ffffff" stroke="black" points="196,-108 0,-108 0,-72 196,-72 196,-108"/>
<text text-anchor="middle" x="98" y="-86.3" font-family="Menlo" font-size="14.00">ipc::EdgeVertexCandidate</text>
</a>
</g>
</g>
<!-- 2&#45;&gt;3 -->
<g id="edge1" class="edge">
<title>2&#45;&gt;3</title>
<g id="a_edge1"><a xlink:title="public&#45;inheritance">
<path fill="none" stroke="#ce93d8" d="M121.73,-71.7C133.94,-62.8 148.99,-51.82 162.18,-42.2"/>
<polygon fill="#ce93d8" stroke="#ce93d8" points="164.52,-44.82 170.54,-36.1 160.4,-39.17 164.52,-44.82"/>
</a>
</g>
</g>
<!-- 1 -->
<g id="node3" class="node">
<title>1</title>
<g id="a_node3"><a xlink:title="ipc::EdgeVertexNormalCollision">
<polygon fill="#bfbfbf" stroke="black" points="310.5,-180 77.5,-180 77.5,-144 310.5,-144 310.5,-180"/>
<text text-anchor="middle" x="194" y="-158.3" font-family="Menlo" font-size="14.00">ipc::EdgeVertexNormalCollision</text>
</a>
</g>
</g>
<!-- 1&#45;&gt;2 -->
<g id="edge2" class="edge">
<title>1&#45;&gt;2</title>
<g id="a_edge2"><a xlink:title="public&#45;inheritance">
<path fill="none" stroke="#ce93d8" d="M170.27,-143.7C158.06,-134.8 143.01,-123.82 129.82,-114.2"/>
<polygon fill="#ce93d8" stroke="#ce93d8" points="131.6,-111.17 121.46,-108.1 127.48,-116.82 131.6,-111.17"/>
</a>
</g>
</g>
<!-- 4 -->
<g id="node4" class="node">
<title>4</title>
<g id="a_node4"><a xlink:title="ipc::NormalCollision">
<polygon fill="#ffffff" stroke="black" points="367.5,-108 214.5,-108 214.5,-72 367.5,-72 367.5,-108"/>
<text text-anchor="middle" x="291" y="-86.3" font-family="Menlo" font-size="14.00">ipc::NormalCollision</text>
</a>
</g>
</g>
<!-- 1&#45;&gt;4 -->
<g id="edge3" class="edge">
<title>1&#45;&gt;4</title>
<g id="a_edge3"><a xlink:title="public&#45;inheritance">
<path fill="none" stroke="#ce93d8" d="M217.98,-143.7C230.31,-134.8 245.52,-123.82 258.85,-114.2"/>
<polygon fill="#ce93d8" stroke="#ce93d8" points="261.24,-116.79 267.3,-108.1 257.14,-111.12 261.24,-116.79"/>
</a>
</g>
</g>
<!-- 4&#45;&gt;3 -->
<g id="edge4" class="edge">
<title>4&#45;&gt;3</title>
<g id="a_edge4"><a xlink:title="public&#45;inheritance">
<path fill="none" stroke="#ce93d8" d="M267.02,-71.7C254.69,-62.8 239.48,-51.82 226.15,-42.2"/>
<polygon fill="#ce93d8" stroke="#ce93d8" points="227.86,-39.12 217.7,-36.1 223.76,-44.79 227.86,-39.12"/>
</a>
</g>
</g>
</g>
</svg>
