<?xml version="1.0" encoding="UTF-8" standalone="no"?>
<!DOCTYPE svg PUBLIC "-//W3C//DTD SVG 1.1//EN"
 "http://www.w3.org/Graphics/SVG/1.1/DTD/svg11.dtd">
<!-- Generated by graphviz version 2.43.0 (0)
 -->
<!-- Title: %3 Pages: 1 -->
<svg width="2440pt" height="188pt"
 viewBox="0.00 0.00 2439.50 188.00" xmlns="http://www.w3.org/2000/svg" xmlns:xlink="http://www.w3.org/1999/xlink">
<g id="graph0" class="graph" transform="scale(1 1) rotate(0) translate(4 184)">
<title>%3</title>
<polygon fill="transparent" stroke="transparent" points="-4,4 -4,-184 2435.5,-184 2435.5,4 -4,4"/>
<!-- 1 -->
<g id="node1" class="node">
<title>1</title>
<g id="a_node1"><a xlink:title="ipc::CollisionStencil">
<polygon fill="#bfbfbf" stroke="black" points="1422.5,-36 1264.5,-36 1264.5,0 1422.5,0 1422.5,-36"/>
<text text-anchor="middle" x="1343.5" y="-14.3" font-family="Times,serif" font-size="14.00">ipc::CollisionStencil</text>
</a>
</g>
</g>
<!-- 2 -->
<g id="node2" class="node">
<title>2</title>
<g id="a_node2"><a xlink:title="ipc::EdgeEdgeCandidate">
<polygon fill="#ffffff" stroke="black" points="1005,-108 812,-108 812,-72 1005,-72 1005,-108"/>
<text text-anchor="middle" x="908.5" y="-86.3" font-family="Times,serif" font-size="14.00">ipc::EdgeEdgeCandidate</text>
</a>
</g>
</g>
<!-- 2&#45;&gt;1 -->
<g id="edge1" class="edge">
<title>2&#45;&gt;1</title>
<g id="a_edge1"><a xlink:title="public&#45;inheritance">
<path fill="none" stroke="#ce93d8" d="M1005.19,-73.34C1007.99,-72.89 1010.77,-72.44 1013.5,-72 1095.1,-58.84 1188.05,-43.92 1254.47,-33.27"/>
<polygon fill="#ce93d8" stroke="#ce93d8" points="1255.16,-36.7 1264.48,-31.66 1254.05,-29.79 1255.16,-36.7"/>
</a>
</g>
</g>
<!-- 3 -->
<g id="node3" class="node">
<title>3</title>
<g id="a_node3"><a xlink:title="ipc::EdgeEdgeNormalCollision">
<polygon fill="#ffffff" stroke="black" points="1371,-180 1136,-180 1136,-144 1371,-144 1371,-180"/>
<text text-anchor="middle" x="1253.5" y="-158.3" font-family="Times,serif" font-size="14.00">ipc::EdgeEdgeNormalCollision</text>
</a>
</g>
</g>
<!-- 3&#45;&gt;2 -->
<g id="edge2" class="edge">
<title>3&#45;&gt;2</title>
<g id="a_edge2"><a xlink:title="public&#45;inheritance">
<path fill="none" stroke="#ce93d8" d="M1169.54,-143.97C1119.05,-133.72 1054.66,-120.66 1002.46,-110.07"/>
<polygon fill="#ce93d8" stroke="#ce93d8" points="1003.03,-106.61 992.53,-108.05 1001.64,-113.47 1003.03,-106.61"/>
</a>
</g>
</g>
<!-- 11 -->
<g id="node11" class="node">
<title>11</title>
<g id="a_node11"><a xlink:title="ipc::NormalCollision">
<polygon fill="#ffffff" stroke="black" points="1853,-108 1692,-108 1692,-72 1853,-72 1853,-108"/>
<text text-anchor="middle" x="1772.5" y="-86.3" font-family="Times,serif" font-size="14.00">ipc::NormalCollision</text>
</a>
</g>
</g>
<!-- 3&#45;&gt;11 -->
<g id="edge3" class="edge">
<title>3&#45;&gt;11</title>
<g id="a_edge3"><a xlink:title="public&#45;inheritance">
<path fill="none" stroke="#ce93d8" d="M1371.2,-145.06C1373.99,-144.7 1376.76,-144.35 1379.5,-144 1510.88,-127.33 1546.79,-128.53 1681.7,-108.06"/>
<polygon fill="#ce93d8" stroke="#ce93d8" points="1682.24,-111.52 1691.59,-106.55 1681.18,-104.6 1682.24,-111.52"/>
</a>
</g>
</g>
<!-- 4 -->
<g id="node4" class="node">
<title>4</title>
<g id="a_node4"><a xlink:title="ipc::EdgeEdgeTangentialCollision">
<polygon fill="#ffffff" stroke="black" points="257,-180 0,-180 0,-144 257,-144 257,-180"/>
<text text-anchor="middle" x="128.5" y="-158.3" font-family="Times,serif" font-size="14.00">ipc::EdgeEdgeTangentialCollision</text>
</a>
</g>
</g>
<!-- 4&#45;&gt;2 -->
<g id="edge4" class="edge">
<title>4&#45;&gt;2</title>
<g id="a_edge4"><a xlink:title="public&#45;inheritance">
<path fill="none" stroke="#ce93d8" d="M257.02,-144.94C260.21,-144.61 263.38,-144.3 266.5,-144 499.32,-121.69 558.94,-132.83 791.5,-108 794.92,-107.63 798.39,-107.24 801.9,-106.83"/>
<polygon fill="#ce93d8" stroke="#ce93d8" points="802.34,-110.31 811.85,-105.63 801.5,-103.36 802.34,-110.31"/>
</a>
</g>
</g>
<!-- 14 -->
<g id="node13" class="node">
<title>14</title>
<g id="a_node13"><a xlink:title="ipc::TangentialCollision">
<polygon fill="#ffffff" stroke="black" points="783,-108 600,-108 600,-72 783,-72 783,-108"/>
<text text-anchor="middle" x="691.5" y="-86.3" font-family="Times,serif" font-size="14.00">ipc::TangentialCollision</text>
</a>
</g>
</g>
<!-- 4&#45;&gt;14 -->
<g id="edge5" class="edge">
<title>4&#45;&gt;14</title>
<g id="a_edge5"><a xlink:title="public&#45;inheritance">
<path fill="none" stroke="#ce93d8" d="M257.31,-144.98C358.15,-132.45 496.48,-115.25 589.68,-103.66"/>
<polygon fill="#ce93d8" stroke="#ce93d8" points="590.19,-107.12 599.68,-102.42 589.32,-100.18 590.19,-107.12"/>
</a>
</g>
</g>
<!-- 5 -->
<g id="node5" class="node">
<title>5</title>
<g id="a_node5"><a xlink:title="ipc::EdgeVertexCandidate">
<polygon fill="#ffffff" stroke="black" points="1226,-108 1023,-108 1023,-72 1226,-72 1226,-108"/>
<text text-anchor="middle" x="1124.5" y="-86.3" font-family="Times,serif" font-size="14.00">ipc::EdgeVertexCandidate</text>
</a>
</g>
</g>
<!-- 5&#45;&gt;1 -->
<g id="edge6" class="edge">
<title>5&#45;&gt;1</title>
<g id="a_edge6"><a xlink:title="public&#45;inheritance">
<path fill="none" stroke="#ce93d8" d="M1177.79,-71.97C1208.66,-62.1 1247.7,-49.62 1280.13,-39.25"/>
<polygon fill="#ce93d8" stroke="#ce93d8" points="1281.51,-42.49 1289.97,-36.11 1279.38,-35.82 1281.51,-42.49"/>
</a>
</g>
</g>
<!-- 6 -->
<g id="node6" class="node">
<title>6</title>
<g id="a_node6"><a xlink:title="ipc::EdgeVertexNormalCollision">
<polygon fill="#ffffff" stroke="black" points="1634,-180 1389,-180 1389,-144 1634,-144 1634,-180"/>
<text text-anchor="middle" x="1511.5" y="-158.3" font-family="Times,serif" font-size="14.00">ipc::EdgeVertexNormalCollision</text>
</a>
</g>
</g>
<!-- 6&#45;&gt;5 -->
<g id="edge7" class="edge">
<title>6&#45;&gt;5</title>
<g id="a_edge7"><a xlink:title="public&#45;inheritance">
<path fill="none" stroke="#ce93d8" d="M1417.32,-143.97C1360.32,-133.66 1287.55,-120.49 1228.81,-109.87"/>
<polygon fill="#ce93d8" stroke="#ce93d8" points="1229.23,-106.39 1218.76,-108.05 1227.98,-113.27 1229.23,-106.39"/>
</a>
</g>
</g>
<!-- 6&#45;&gt;11 -->
<g id="edge8" class="edge">
<title>6&#45;&gt;11</title>
<g id="a_edge8"><a xlink:title="public&#45;inheritance">
<path fill="none" stroke="#ce93d8" d="M1575.01,-143.97C1612.43,-133.93 1659.93,-121.19 1698.97,-110.72"/>
<polygon fill="#ce93d8" stroke="#ce93d8" points="1699.95,-114.08 1708.7,-108.11 1698.14,-107.32 1699.95,-114.08"/>
</a>
</g>
</g>
<!-- 7 -->
<g id="node7" class="node">
<title>7</title>
<g id="a_node7"><a xlink:title="ipc::EdgeVertexTangentialCollision">
<polygon fill="#ffffff" stroke="black" points="541.5,-180 275.5,-180 275.5,-144 541.5,-144 541.5,-180"/>
<text text-anchor="middle" x="408.5" y="-158.3" font-family="Times,serif" font-size="14.00">ipc::EdgeVertexTangentialCollision</text>
</a>
</g>
</g>
<!-- 7&#45;&gt;5 -->
<g id="edge9" class="edge">
<title>7&#45;&gt;5</title>
<g id="a_edge9"><a xlink:title="public&#45;inheritance">
<path fill="none" stroke="#ce93d8" d="M541.51,-144.91C544.54,-144.6 547.53,-144.29 550.5,-144 752.69,-124.05 806.78,-131.4 1012.98,-108"/>
<polygon fill="#ce93d8" stroke="#ce93d8" points="1013.38,-111.48 1022.92,-106.87 1012.58,-104.53 1013.38,-111.48"/>
</a>
</g>
</g>
<!-- 7&#45;&gt;14 -->
<g id="edge10" class="edge">
<title>7&#45;&gt;14</title>
<g id="a_edge10"><a xlink:title="public&#45;inheritance">
<path fill="none" stroke="#ce93d8" d="M477.37,-143.97C518.2,-133.87 570.1,-121.03 612.58,-110.52"/>
<polygon fill="#ce93d8" stroke="#ce93d8" points="613.46,-113.91 622.32,-108.11 611.78,-107.11 613.46,-113.91"/>
</a>
</g>
</g>
<!-- 8 -->
<g id="node8" class="node">
<title>8</title>
<g id="a_node8"><a xlink:title="ipc::FaceVertexCandidate">
<polygon fill="#ffffff" stroke="black" points="1443,-108 1244,-108 1244,-72 1443,-72 1443,-108"/>
<text text-anchor="middle" x="1343.5" y="-86.3" font-family="Times,serif" font-size="14.00">ipc::FaceVertexCandidate</text>
</a>
</g>
</g>
<!-- 8&#45;&gt;1 -->
<g id="edge11" class="edge">
<title>8&#45;&gt;1</title>
<g id="a_edge11"><a xlink:title="public&#45;inheritance">
<path fill="none" stroke="#ce93d8" d="M1343.5,-71.7C1343.5,-63.98 1343.5,-54.71 1343.5,-46.11"/>
<polygon fill="#ce93d8" stroke="#ce93d8" points="1347,-46.1 1343.5,-36.1 1340,-46.1 1347,-46.1"/>
</a>
</g>
</g>
<!-- 9 -->
<g id="node9" class="node">
<title>9</title>
<g id="a_node9"><a xlink:title="ipc::FaceVertexNormalCollision">
<polygon fill="#ffffff" stroke="black" points="1893,-180 1652,-180 1652,-144 1893,-144 1893,-180"/>
<text text-anchor="middle" x="1772.5" y="-158.3" font-family="Times,serif" font-size="14.00">ipc::FaceVertexNormalCollision</text>
</a>
</g>
</g>
<!-- 9&#45;&gt;8 -->
<g id="edge12" class="edge">
<title>9&#45;&gt;8</title>
<g id="a_edge12"><a xlink:title="public&#45;inheritance">
<path fill="none" stroke="#ce93d8" d="M1668.1,-143.97C1602.99,-133.34 1519.31,-119.69 1453.22,-108.9"/>
<polygon fill="#ce93d8" stroke="#ce93d8" points="1453.62,-105.42 1443.19,-107.27 1452.5,-112.33 1453.62,-105.42"/>
</a>
</g>
</g>
<!-- 9&#45;&gt;11 -->
<g id="edge13" class="edge">
<title>9&#45;&gt;11</title>
<g id="a_edge13"><a xlink:title="public&#45;inheritance">
<path fill="none" stroke="#ce93d8" d="M1772.5,-143.7C1772.5,-135.98 1772.5,-126.71 1772.5,-118.11"/>
<polygon fill="#ce93d8" stroke="#ce93d8" points="1776,-118.1 1772.5,-108.1 1769,-118.1 1776,-118.1"/>
</a>
</g>
</g>
<!-- 10 -->
<g id="node10" class="node">
<title>10</title>
<g id="a_node10"><a xlink:title="ipc::FaceVertexTangentialCollision">
<polygon fill="#ffffff" stroke="black" points="823,-180 560,-180 560,-144 823,-144 823,-180"/>
<text text-anchor="middle" x="691.5" y="-158.3" font-family="Times,serif" font-size="14.00">ipc::FaceVertexTangentialCollision</text>
</a>
</g>
</g>
<!-- 10&#45;&gt;8 -->
<g id="edge14" class="edge">
<title>10&#45;&gt;8</title>
<g id="a_edge14"><a xlink:title="public&#45;inheritance">
<path fill="none" stroke="#ce93d8" d="M823.2,-144.99C826.33,-144.65 829.43,-144.32 832.5,-144 1007.68,-125.6 1054.76,-129.68 1233.73,-108.05"/>
<polygon fill="#ce93d8" stroke="#ce93d8" points="1234.24,-111.51 1243.74,-106.83 1233.39,-104.56 1234.24,-111.51"/>
</a>
</g>
</g>
<!-- 10&#45;&gt;14 -->
<g id="edge15" class="edge">
<title>10&#45;&gt;14</title>
<g id="a_edge15"><a xlink:title="public&#45;inheritance">
<path fill="none" stroke="#ce93d8" d="M691.5,-143.7C691.5,-135.98 691.5,-126.71 691.5,-118.11"/>
<polygon fill="#ce93d8" stroke="#ce93d8" points="695,-118.1 691.5,-108.1 688,-118.1 695,-118.1"/>
</a>
</g>
</g>
<!-- 11&#45;&gt;1 -->
<g id="edge16" class="edge">
<title>11&#45;&gt;1</title>
<g id="a_edge16"><a xlink:title="public&#45;inheritance">
<path fill="none" stroke="#ce93d8" d="M1691.57,-73.59C1688.51,-73.04 1685.48,-72.51 1682.5,-72 1598.05,-57.43 1501.46,-42.49 1433.04,-32.21"/>
<polygon fill="#ce93d8" stroke="#ce93d8" points="1433.14,-28.69 1422.73,-30.66 1432.1,-35.61 1433.14,-28.69"/>
</a>
</g>
</g>
<!-- 12 -->
<g id="node12" class="node">
<title>12</title>
<g id="a_node12"><a xlink:title="ipc::PlaneVertexNormalCollision">
<polygon fill="#ffffff" stroke="black" points="2431.5,-180 2183.5,-180 2183.5,-144 2431.5,-144 2431.5,-180"/>
<text text-anchor="middle" x="2307.5" y="-158.3" font-family="Times,serif" font-size="14.00">ipc::PlaneVertexNormalCollision</text>
</a>
</g>
</g>
<!-- 12&#45;&gt;1 -->
<g id="edge18" class="edge">
<title>12&#45;&gt;1</title>
<g id="a_edge18"><a xlink:title="public&#45;inheritance">
<path fill="none" stroke="#ce93d8" d="M2233.31,-143.95C2145.1,-124.2 1993.25,-91.84 1861.5,-72 1711.84,-49.46 1536.37,-33.74 1432.87,-25.55"/>
<polygon fill="#ce93d8" stroke="#ce93d8" points="1433.02,-22.05 1422.78,-24.76 1432.47,-29.03 1433.02,-22.05"/>
</a>
</g>
</g>
<!-- 12&#45;&gt;11 -->
<g id="edge17" class="edge">
<title>12&#45;&gt;11</title>
<g id="a_edge17"><a xlink:title="public&#45;inheritance">
<path fill="none" stroke="#ce93d8" d="M2183.42,-144.76C2085.48,-131.95 1951.13,-114.37 1863.1,-102.85"/>
<polygon fill="#ce93d8" stroke="#ce93d8" points="1863.51,-99.38 1853.14,-101.55 1862.6,-106.32 1863.51,-99.38"/>
</a>
</g>
</g>
<!-- 14&#45;&gt;1 -->
<g id="edge19" class="edge">
<title>14&#45;&gt;1</title>
<g id="a_edge19"><a xlink:title="public&#45;inheritance">
<path fill="none" stroke="#ce93d8" d="M783.21,-74.56C789.73,-73.65 796.21,-72.79 802.5,-72 961.02,-52.11 1146.47,-35.35 1253.9,-26.28"/>
<polygon fill="#ce93d8" stroke="#ce93d8" points="1254.38,-29.75 1264.05,-25.42 1253.8,-22.77 1254.38,-29.75"/>
</a>
</g>
</g>
<!-- 16 -->
<g id="node14" class="node">
<title>16</title>
<g id="a_node14"><a xlink:title="ipc::VertexVertexCandidate">
<polygon fill="#ffffff" stroke="black" points="1673.5,-108 1461.5,-108 1461.5,-72 1673.5,-72 1673.5,-108"/>
<text text-anchor="middle" x="1567.5" y="-86.3" font-family="Times,serif" font-size="14.00">ipc::VertexVertexCandidate</text>
</a>
</g>
</g>
<!-- 16&#45;&gt;1 -->
<g id="edge20" class="edge">
<title>16&#45;&gt;1</title>
<g id="a_edge20"><a xlink:title="public&#45;inheritance">
<path fill="none" stroke="#ce93d8" d="M1512.99,-71.97C1481.28,-62.06 1441.14,-49.51 1407.89,-39.12"/>
<polygon fill="#ce93d8" stroke="#ce93d8" points="1408.84,-35.75 1398.25,-36.11 1406.76,-42.43 1408.84,-35.75"/>
</a>
</g>
</g>
<!-- 13 -->
<g id="node15" class="node">
<title>13</title>
<g id="a_node15"><a xlink:title="ipc::VertexVertexNormalCollision">
<polygon fill="#ffffff" stroke="black" points="2165.5,-180 1911.5,-180 1911.5,-144 2165.5,-144 2165.5,-180"/>
<text text-anchor="middle" x="2038.5" y="-158.3" font-family="Times,serif" font-size="14.00">ipc::VertexVertexNormalCollision</text>
</a>
</g>
</g>
<!-- 13&#45;&gt;11 -->
<g id="edge21" class="edge">
<title>13&#45;&gt;11</title>
<g id="a_edge21"><a xlink:title="public&#45;inheritance">
<path fill="none" stroke="#ce93d8" d="M1973.77,-143.97C1935.63,-133.93 1887.22,-121.19 1847.44,-110.72"/>
<polygon fill="#ce93d8" stroke="#ce93d8" points="1848.08,-107.27 1837.52,-108.11 1846.3,-114.04 1848.08,-107.27"/>
</a>
</g>
</g>
<!-- 13&#45;&gt;16 -->
<g id="edge22" class="edge">
<title>13&#45;&gt;16</title>
<g id="a_edge22"><a xlink:title="public&#45;inheritance">
<path fill="none" stroke="#ce93d8" d="M1923.88,-143.97C1851.06,-133.14 1757.09,-119.18 1683.92,-108.3"/>
<polygon fill="#ce93d8" stroke="#ce93d8" points="1684.15,-104.8 1673.74,-106.79 1683.12,-111.72 1684.15,-104.8"/>
</a>
</g>
</g>
<!-- 15 -->
<g id="node16" class="node">
<title>15</title>
<g id="a_node16"><a xlink:title="ipc::VertexVertexTangentialCollision">
<polygon fill="#ffffff" stroke="black" points="1117.5,-180 841.5,-180 841.5,-144 1117.5,-144 1117.5,-180"/>
<text text-anchor="middle" x="979.5" y="-158.3" font-family="Times,serif" font-size="14.00">ipc::VertexVertexTangentialCollision</text>
</a>
</g>
</g>
<!-- 15&#45;&gt;14 -->
<g id="edge23" class="edge">
<title>15&#45;&gt;14</title>
<g id="a_edge23"><a xlink:title="public&#45;inheritance">
<path fill="none" stroke="#ce93d8" d="M909.42,-143.97C867.86,-133.87 815.05,-121.03 771.82,-110.52"/>
<polygon fill="#ce93d8" stroke="#ce93d8" points="772.44,-107.07 761.9,-108.11 770.79,-113.87 772.44,-107.07"/>
</a>
</g>
</g>
<!-- 15&#45;&gt;16 -->
<g id="edge24" class="edge">
<title>15&#45;&gt;16</title>
<g id="a_edge24"><a xlink:title="public&#45;inheritance">
<path fill="none" stroke="#ce93d8" d="M1117.6,-145.01C1120.6,-144.67 1123.56,-144.33 1126.5,-144 1267.66,-128.02 1305.67,-126.6 1451.12,-108.02"/>
<polygon fill="#ce93d8" stroke="#ce93d8" points="1451.85,-111.46 1461.32,-106.71 1450.96,-104.51 1451.85,-111.46"/>
</a>
</g>
</g>
</g>
</svg>
