<?xml version="1.0" encoding="UTF-8" standalone="no"?>
<!DOCTYPE svg PUBLIC "-//W3C//DTD SVG 1.1//EN"
 "http://www.w3.org/Graphics/SVG/1.1/DTD/svg11.dtd">
<!-- Generated by graphviz version 2.43.0 (0)
 -->
<!-- Title: %3 Pages: 1 -->
<svg width="384pt" height="188pt"
 viewBox="0.00 0.00 384.00 188.00" xmlns="http://www.w3.org/2000/svg" xmlns:xlink="http://www.w3.org/1999/xlink">
<g id="graph0" class="graph" transform="scale(1 1) rotate(0) translate(4 184)">
<title>%3</title>
<!-- 3 -->
<g id="node1" class="node">
<title>3</title>
<g id="a_node1"><a xlink:title="ipc::CollisionStencil">
<polygon fill="#ffffff" stroke="black" points="249.5,-36 99.5,-36 99.5,0 249.5,0 249.5,-36"/>
<text text-anchor="middle" x="174.5" y="-14.3" font-family="Menlo" font-size="14.00">ipc::CollisionStencil</text>
</a>
</g>
</g>
<!-- 4 -->
<g id="node2" class="node">
<title>4</title>
<g id="a_node2"><a xlink:title="ipc::NormalCollision">
<polygon fill="#ffffff" stroke="black" points="153,-108 0,-108 0,-72 153,-72 153,-108"/>
<text text-anchor="middle" x="76.5" y="-86.3" font-family="Menlo" font-size="14.00">ipc::NormalCollision</text>
</a>
</g>
</g>
<!-- 4&#45;&gt;3 -->
<g id="edge1" class="edge">
<title>4&#45;&gt;3</title>
<g id="a_edge1"><a xlink:title="public&#45;inheritance">
<path fill="none" stroke="#ce93d8" d="M100.47,-71.88C113.05,-62.89 128.63,-51.76 142.25,-42.03"/>
<polygon fill="#ce93d8" stroke="#ce93d8" points="144.33,-44.85 150.43,-36.19 140.26,-39.15 144.33,-44.85"/>
</a>
</g>
</g>
<!-- 2 -->
<g id="node3" class="node">
<title>2</title>
<g id="a_node3"><a xlink:title="ipc::VertexVertexCandidate">
<polygon fill="#ffffff" stroke="black" points="376,-108 171,-108 171,-72 376,-72 376,-108"/>
<text text-anchor="middle" x="273.5" y="-86.3" font-family="Menlo" font-size="14.00">ipc::VertexVertexCandidate</text>
</a>
</g>
</g>
<!-- 2&#45;&gt;3 -->
<g id="edge2" class="edge">
<title>2&#45;&gt;3</title>
<g id="a_edge2"><a xlink:title="public&#45;inheritance">
<path fill="none" stroke="#ce93d8" d="M249.28,-71.88C236.58,-62.89 220.84,-51.76 207.08,-42.03"/>
<polygon fill="#ce93d8" stroke="#ce93d8" points="209,-39.11 198.81,-36.19 204.96,-44.82 209,-39.11"/>
</a>
</g>
</g>
<!-- 1 -->
<g id="node4" class="node">
<title>1</title>
<g id="a_node4"><a xlink:title="ipc::VertexVertexNormalCollision">
<polygon fill="#bfbfbf" stroke="black" points="295.5,-180 53.5,-180 53.5,-144 295.5,-144 295.5,-180"/>
<text text-anchor="middle" x="174.5" y="-158.3" font-family="Menlo" font-size="14.00">ipc::VertexVertexNormalCollision</text>
</a>
</g>
</g>
<!-- 1&#45;&gt;4 -->
<g id="edge4" class="edge">
<title>1&#45;&gt;4</title>
<g id="a_edge4"><a xlink:title="public&#45;inheritance">
<path fill="none" stroke="#ce93d8" d="M150.53,-143.88C137.95,-134.89 122.37,-123.76 108.75,-114.03"/>
<polygon fill="#ce93d8" stroke="#ce93d8" points="110.74,-111.15 100.57,-108.19 106.67,-116.85 110.74,-111.15"/>
</a>
</g>
</g>
<!-- 1&#45;&gt;2 -->
<g id="edge3" class="edge">
<title>1&#45;&gt;2</title>
<g id="a_edge3"><a xlink:title="public&#45;inheritance">
<path fill="none" stroke="#ce93d8" d="M198.72,-143.88C211.42,-134.89 227.16,-123.76 240.92,-114.03"/>
<polygon fill="#ce93d8" stroke="#ce93d8" points="243.04,-116.82 249.19,-108.19 239,-111.11 243.04,-116.82"/>
</a>
</g>
</g>
</g>
</svg>
