<?xml version="1.0" encoding="UTF-8" standalone="no"?>
<!DOCTYPE svg PUBLIC "-//W3C//DTD SVG 1.1//EN"
 "http://www.w3.org/Graphics/SVG/1.1/DTD/svg11.dtd">
<!-- Generated by graphviz version 2.43.0 (0)
 -->
<!-- Title: %3 Pages: 1 -->
<svg width="274pt" height="260pt"
 viewBox="0.00 0.00 274.00 260.00" xmlns="http://www.w3.org/2000/svg" xmlns:xlink="http://www.w3.org/1999/xlink">
<g id="graph0" class="graph" transform="scale(1 1) rotate(0) translate(4 256)">
<title>%3</title>
<polygon fill="transparent" stroke="transparent" points="-4,4 -4,-256 270,-256 270,4 -4,4"/>
<!-- 3 -->
<g id="node1" class="node">
<title>3</title>
<g id="a_node1"><a xlink:title="ipc::Potential&lt; NormalCollisions &gt;">
<polygon fill="#ffffff" stroke="black" points="266,-108 0,-108 0,-72 266,-72 266,-108"/>
<text text-anchor="middle" x="133" y="-86.3" font-family="Times,serif" font-size="14.00">ipc::Potential&lt; NormalCollisions &gt;</text>
</a>
</g>
</g>
<!-- 4 -->
<g id="node4" class="node">
<title>4</title>
<g id="a_node4"><a xlink:title="ipc::Potential&lt; TCollisions &gt;">
<polygon fill="#ffffff" stroke="black" points="243.5,-36 22.5,-36 22.5,0 243.5,0 243.5,-36"/>
<text text-anchor="middle" x="133" y="-14.3" font-family="Times,serif" font-size="14.00">ipc::Potential&lt; TCollisions &gt;</text>
</a>
</g>
</g>
<!-- 3&#45;&gt;4 -->
<g id="edge1" class="edge">
<title>3&#45;&gt;4</title>
<g id="a_edge1"><a xlink:title="template&#45;instance">
<path fill="none" stroke="#ce93d8" d="M133,-71.7C133,-63.98 133,-54.71 133,-46.11"/>
<polygon fill="#ce93d8" stroke="#ce93d8" points="136.5,-46.1 133,-36.1 129.5,-46.1 136.5,-46.1"/>
</a>
</g>
</g>
<!-- 1 -->
<g id="node2" class="node">
<title>1</title>
<g id="a_node2"><a xlink:title="ipc::BarrierPotential">
<polygon fill="#bfbfbf" stroke="black" points="214,-252 52,-252 52,-216 214,-216 214,-252"/>
<text text-anchor="middle" x="133" y="-230.3" font-family="Times,serif" font-size="14.00">ipc::BarrierPotential</text>
</a>
</g>
</g>
<!-- 2 -->
<g id="node3" class="node">
<title>2</title>
<g id="a_node3"><a xlink:title="ipc::NormalPotential">
<polygon fill="#ffffff" stroke="black" points="215,-180 51,-180 51,-144 215,-144 215,-180"/>
<text text-anchor="middle" x="133" y="-158.3" font-family="Times,serif" font-size="14.00">ipc::NormalPotential</text>
</a>
</g>
</g>
<!-- 1&#45;&gt;2 -->
<g id="edge2" class="edge">
<title>1&#45;&gt;2</title>
<g id="a_edge2"><a xlink:title="public&#45;inheritance">
<path fill="none" stroke="#ce93d8" d="M133,-215.7C133,-207.98 133,-198.71 133,-190.11"/>
<polygon fill="#ce93d8" stroke="#ce93d8" points="136.5,-190.1 133,-180.1 129.5,-190.1 136.5,-190.1"/>
</a>
</g>
</g>
<!-- 2&#45;&gt;3 -->
<g id="edge3" class="edge">
<title>2&#45;&gt;3</title>
<g id="a_edge3"><a xlink:title="public&#45;inheritance">
<path fill="none" stroke="#ce93d8" d="M133,-143.7C133,-135.98 133,-126.71 133,-118.11"/>
<polygon fill="#ce93d8" stroke="#ce93d8" points="136.5,-118.1 133,-108.1 129.5,-118.1 136.5,-118.1"/>
</a>
</g>
</g>
</g>
</svg>
