<?xml version="1.0" encoding="UTF-8" standalone="no"?>
<!DOCTYPE svg PUBLIC "-//W3C//DTD SVG 1.1//EN"
 "http://www.w3.org/Graphics/SVG/1.1/DTD/svg11.dtd">
<!-- Generated by graphviz version 2.43.0 (0)
 -->
<!-- Title: %3 Pages: 1 -->
<svg width="530pt" height="188pt"
 viewBox="0.00 0.00 530.00 188.00" xmlns="http://www.w3.org/2000/svg" xmlns:xlink="http://www.w3.org/1999/xlink">
<g id="graph0" class="graph" transform="scale(1 1) rotate(0) translate(4 184)">
<title>%3</title>
<polygon fill="transparent" stroke="transparent" points="-4,4 -4,-184 526,-184 526,4 -4,4"/>
<!-- 2 -->
<g id="node1" class="node">
<title>2</title>
<g id="a_node1"><a xlink:title="ipc::CollisionStencil">
<polygon fill="#ffffff" stroke="black" points="334.5,-36 176.5,-36 176.5,0 334.5,0 334.5,-36"/>
<text text-anchor="middle" x="255.5" y="-14.3" font-family="Times,serif" font-size="14.00">ipc::CollisionStencil</text>
</a>
</g>
</g>
<!-- 1 -->
<g id="node2" class="node">
<title>1</title>
<g id="a_node2"><a xlink:title="ipc::FaceVertexCandidate">
<polygon fill="#bfbfbf" stroke="black" points="355,-108 156,-108 156,-72 355,-72 355,-108"/>
<text text-anchor="middle" x="255.5" y="-86.3" font-family="Times,serif" font-size="14.00">ipc::FaceVertexCandidate</text>
</a>
</g>
</g>
<!-- 1&#45;&gt;2 -->
<g id="edge1" class="edge">
<title>1&#45;&gt;2</title>
<g id="a_edge1"><a xlink:title="public&#45;inheritance">
<path fill="none" stroke="#ce93d8" d="M255.5,-71.7C255.5,-63.98 255.5,-54.71 255.5,-46.11"/>
<polygon fill="#ce93d8" stroke="#ce93d8" points="259,-46.1 255.5,-36.1 252,-46.1 259,-46.1"/>
</a>
</g>
</g>
<!-- 3 -->
<g id="node3" class="node">
<title>3</title>
<g id="a_node3"><a xlink:title="ipc::FaceVertexNormalCollision">
<polygon fill="#ffffff" stroke="black" points="241,-180 0,-180 0,-144 241,-144 241,-180"/>
<text text-anchor="middle" x="120.5" y="-158.3" font-family="Times,serif" font-size="14.00">ipc::FaceVertexNormalCollision</text>
</a>
</g>
</g>
<!-- 3&#45;&gt;1 -->
<g id="edge2" class="edge">
<title>3&#45;&gt;1</title>
<g id="a_edge2"><a xlink:title="public&#45;inheritance">
<path fill="none" stroke="#ce93d8" d="M153.52,-143.88C171.58,-134.51 194.15,-122.81 213.45,-112.8"/>
<polygon fill="#ce93d8" stroke="#ce93d8" points="215.08,-115.9 222.35,-108.19 211.86,-109.69 215.08,-115.9"/>
</a>
</g>
</g>
<!-- 4 -->
<g id="node4" class="node">
<title>4</title>
<g id="a_node4"><a xlink:title="ipc::FaceVertexTangentialCollision">
<polygon fill="#ffffff" stroke="black" points="522,-180 259,-180 259,-144 522,-144 522,-180"/>
<text text-anchor="middle" x="390.5" y="-158.3" font-family="Times,serif" font-size="14.00">ipc::FaceVertexTangentialCollision</text>
</a>
</g>
</g>
<!-- 4&#45;&gt;1 -->
<g id="edge3" class="edge">
<title>4&#45;&gt;1</title>
<g id="a_edge3"><a xlink:title="public&#45;inheritance">
<path fill="none" stroke="#ce93d8" d="M357.48,-143.88C339.42,-134.51 316.85,-122.81 297.55,-112.8"/>
<polygon fill="#ce93d8" stroke="#ce93d8" points="299.14,-109.69 288.65,-108.19 295.92,-115.9 299.14,-109.69"/>
</a>
</g>
</g>
</g>
</svg>
