<?xml version="1.0" encoding="UTF-8" standalone="no"?>
<!DOCTYPE svg PUBLIC "-//W3C//DTD SVG 1.1//EN"
 "http://www.w3.org/Graphics/SVG/1.1/DTD/svg11.dtd">
<!-- Generated by graphviz version 2.43.0 (0)
 -->
<!-- Title: %3 Pages: 1 -->
<svg width="400pt" height="188pt"
 viewBox="0.00 0.00 399.50 188.00" xmlns="http://www.w3.org/2000/svg" xmlns:xlink="http://www.w3.org/1999/xlink">
<g id="graph0" class="graph" transform="scale(1 1) rotate(0) translate(4 184)">
<title>%3</title>
<polygon fill="transparent" stroke="transparent" points="-4,4 -4,-184 395.5,-184 395.5,4 -4,4"/>
<!-- 3 -->
<g id="node1" class="node">
<title>3</title>
<g id="a_node1"><a xlink:title="ipc::CollisionStencil">
<polygon fill="#ffffff" stroke="black" points="261.5,-36 103.5,-36 103.5,0 261.5,0 261.5,-36"/>
<text text-anchor="middle" x="182.5" y="-14.3" font-family="Times,serif" font-size="14.00">ipc::CollisionStencil</text>
</a>
</g>
</g>
<!-- 4 -->
<g id="node2" class="node">
<title>4</title>
<g id="a_node2"><a xlink:title="ipc::NormalCollision">
<polygon fill="#ffffff" stroke="black" points="161,-108 0,-108 0,-72 161,-72 161,-108"/>
<text text-anchor="middle" x="80.5" y="-86.3" font-family="Times,serif" font-size="14.00">ipc::NormalCollision</text>
</a>
</g>
</g>
<!-- 4&#45;&gt;3 -->
<g id="edge1" class="edge">
<title>4&#45;&gt;3</title>
<g id="a_edge1"><a xlink:title="public&#45;inheritance">
<path fill="none" stroke="#ce93d8" d="M105.45,-71.88C118.54,-62.89 134.76,-51.76 148.94,-42.03"/>
<polygon fill="#ce93d8" stroke="#ce93d8" points="151.19,-44.73 157.45,-36.19 147.23,-38.96 151.19,-44.73"/>
</a>
</g>
</g>
<!-- 2 -->
<g id="node3" class="node">
<title>2</title>
<g id="a_node3"><a xlink:title="ipc::VertexVertexCandidate">
<polygon fill="#ffffff" stroke="black" points="391.5,-108 179.5,-108 179.5,-72 391.5,-72 391.5,-108"/>
<text text-anchor="middle" x="285.5" y="-86.3" font-family="Times,serif" font-size="14.00">ipc::VertexVertexCandidate</text>
</a>
</g>
</g>
<!-- 2&#45;&gt;3 -->
<g id="edge2" class="edge">
<title>2&#45;&gt;3</title>
<g id="a_edge2"><a xlink:title="public&#45;inheritance">
<path fill="none" stroke="#ce93d8" d="M260.3,-71.88C247.09,-62.89 230.71,-51.76 216.39,-42.03"/>
<polygon fill="#ce93d8" stroke="#ce93d8" points="218.03,-38.92 207.79,-36.19 214.1,-44.71 218.03,-38.92"/>
</a>
</g>
</g>
<!-- 1 -->
<g id="node4" class="node">
<title>1</title>
<g id="a_node4"><a xlink:title="ipc::VertexVertexNormalCollision">
<polygon fill="#bfbfbf" stroke="black" points="309.5,-180 55.5,-180 55.5,-144 309.5,-144 309.5,-180"/>
<text text-anchor="middle" x="182.5" y="-158.3" font-family="Times,serif" font-size="14.00">ipc::VertexVertexNormalCollision</text>
</a>
</g>
</g>
<!-- 1&#45;&gt;4 -->
<g id="edge4" class="edge">
<title>1&#45;&gt;4</title>
<g id="a_edge4"><a xlink:title="public&#45;inheritance">
<path fill="none" stroke="#ce93d8" d="M157.55,-143.88C144.46,-134.89 128.24,-123.76 114.06,-114.03"/>
<polygon fill="#ce93d8" stroke="#ce93d8" points="115.77,-110.96 105.55,-108.19 111.81,-116.73 115.77,-110.96"/>
</a>
</g>
</g>
<!-- 1&#45;&gt;2 -->
<g id="edge3" class="edge">
<title>1&#45;&gt;2</title>
<g id="a_edge3"><a xlink:title="public&#45;inheritance">
<path fill="none" stroke="#ce93d8" d="M207.7,-143.88C220.91,-134.89 237.29,-123.76 251.61,-114.03"/>
<polygon fill="#ce93d8" stroke="#ce93d8" points="253.9,-116.71 260.21,-108.19 249.97,-110.92 253.9,-116.71"/>
</a>
</g>
</g>
</g>
</svg>
