<?xml version="1.0" encoding="UTF-8" standalone="no"?>
<!DOCTYPE svg PUBLIC "-//W3C//DTD SVG 1.1//EN"
 "http://www.w3.org/Graphics/SVG/1.1/DTD/svg11.dtd">
<!-- Generated by graphviz version 2.43.0 (0)
 -->
<!-- Title: %3 Pages: 1 -->
<svg width="530pt" height="260pt"
 viewBox="0.00 0.00 530.00 260.00" xmlns="http://www.w3.org/2000/svg" xmlns:xlink="http://www.w3.org/1999/xlink">
<g id="graph0" class="graph" transform="scale(1 1) rotate(0) translate(4 256)">
<title>%3</title>
<polygon fill="transparent" stroke="transparent" points="-4,4 -4,-256 526,-256 526,4 -4,4"/>
<!-- 3 -->
<g id="node1" class="node">
<title>3</title>
<g id="a_node1"><a xlink:title="ipc::CollisionStencil">
<polygon fill="#ffffff" stroke="black" points="334.5,-36 176.5,-36 176.5,0 334.5,0 334.5,-36"/>
<text text-anchor="middle" x="255.5" y="-14.3" font-family="Times,serif" font-size="14.00">ipc::CollisionStencil</text>
</a>
</g>
</g>
<!-- 2 -->
<g id="node2" class="node">
<title>2</title>
<g id="a_node2"><a xlink:title="ipc::ContinuousCollisionCandidate">
<polygon fill="#ffffff" stroke="black" points="386.5,-108 124.5,-108 124.5,-72 386.5,-72 386.5,-108"/>
<text text-anchor="middle" x="255.5" y="-86.3" font-family="Times,serif" font-size="14.00">ipc::ContinuousCollisionCandidate</text>
</a>
</g>
</g>
<!-- 2&#45;&gt;3 -->
<g id="edge1" class="edge">
<title>2&#45;&gt;3</title>
<g id="a_edge1"><a xlink:title="public&#45;inheritance">
<path fill="none" stroke="#ce93d8" d="M255.5,-71.7C255.5,-63.98 255.5,-54.71 255.5,-46.11"/>
<polygon fill="#ce93d8" stroke="#ce93d8" points="259,-46.1 255.5,-36.1 252,-46.1 259,-46.1"/>
</a>
</g>
</g>
<!-- 1 -->
<g id="node3" class="node">
<title>1</title>
<g id="a_node3"><a xlink:title="ipc::FaceVertexCandidate">
<polygon fill="#bfbfbf" stroke="black" points="355,-180 156,-180 156,-144 355,-144 355,-180"/>
<text text-anchor="middle" x="255.5" y="-158.3" font-family="Times,serif" font-size="14.00">ipc::FaceVertexCandidate</text>
</a>
</g>
</g>
<!-- 1&#45;&gt;2 -->
<g id="edge2" class="edge">
<title>1&#45;&gt;2</title>
<g id="a_edge2"><a xlink:title="public&#45;inheritance">
<path fill="none" stroke="#ce93d8" d="M255.5,-143.7C255.5,-135.98 255.5,-126.71 255.5,-118.11"/>
<polygon fill="#ce93d8" stroke="#ce93d8" points="259,-118.1 255.5,-108.1 252,-118.1 259,-118.1"/>
</a>
</g>
</g>
<!-- 4 -->
<g id="node4" class="node">
<title>4</title>
<g id="a_node4"><a xlink:title="ipc::FaceVertexNormalCollision">
<polygon fill="#ffffff" stroke="black" points="241,-252 0,-252 0,-216 241,-216 241,-252"/>
<text text-anchor="middle" x="120.5" y="-230.3" font-family="Times,serif" font-size="14.00">ipc::FaceVertexNormalCollision</text>
</a>
</g>
</g>
<!-- 4&#45;&gt;1 -->
<g id="edge3" class="edge">
<title>4&#45;&gt;1</title>
<g id="a_edge3"><a xlink:title="public&#45;inheritance">
<path fill="none" stroke="#ce93d8" d="M153.52,-215.88C171.58,-206.51 194.15,-194.81 213.45,-184.8"/>
<polygon fill="#ce93d8" stroke="#ce93d8" points="215.08,-187.9 222.35,-180.19 211.86,-181.69 215.08,-187.9"/>
</a>
</g>
</g>
<!-- 5 -->
<g id="node5" class="node">
<title>5</title>
<g id="a_node5"><a xlink:title="ipc::FaceVertexTangentialCollision">
<polygon fill="#ffffff" stroke="black" points="522,-252 259,-252 259,-216 522,-216 522,-252"/>
<text text-anchor="middle" x="390.5" y="-230.3" font-family="Times,serif" font-size="14.00">ipc::FaceVertexTangentialCollision</text>
</a>
</g>
</g>
<!-- 5&#45;&gt;1 -->
<g id="edge4" class="edge">
<title>5&#45;&gt;1</title>
<g id="a_edge4"><a xlink:title="public&#45;inheritance">
<path fill="none" stroke="#ce93d8" d="M357.48,-215.88C339.42,-206.51 316.85,-194.81 297.55,-184.8"/>
<polygon fill="#ce93d8" stroke="#ce93d8" points="299.14,-181.69 288.65,-180.19 295.92,-187.9 299.14,-181.69"/>
</a>
</g>
</g>
</g>
</svg>
