<?xml version="1.0" encoding="UTF-8" standalone="no"?>
<!DOCTYPE svg PUBLIC "-//W3C//DTD SVG 1.1//EN"
 "http://www.w3.org/Graphics/SVG/1.1/DTD/svg11.dtd">
<!-- Generated by graphviz version 2.43.0 (0)
 -->
<!-- Title: %3 Pages: 1 -->
<svg width="278pt" height="188pt"
 viewBox="0.00 0.00 278.00 188.00" xmlns="http://www.w3.org/2000/svg" xmlns:xlink="http://www.w3.org/1999/xlink">
<g id="graph0" class="graph" transform="scale(1 1) rotate(0) translate(4 184)">
<title>%3</title>
<polygon fill="transparent" stroke="transparent" points="-4,4 -4,-184 274,-184 274,4 -4,4"/>
<!-- 1 -->
<g id="node1" class="node">
<title>1</title>
<g id="a_node1"><a xlink:title="ipc::Barrier">
<polygon fill="#bfbfbf" stroke="black" points="184,-36 86,-36 86,0 184,0 184,-36"/>
<text text-anchor="middle" x="135" y="-14.3" font-family="Times,serif" font-size="14.00">ipc::Barrier</text>
</a>
</g>
</g>
<!-- 2 -->
<g id="node2" class="node">
<title>2</title>
<g id="a_node2"><a xlink:title="ipc::ClampedLogBarrier">
<polygon fill="#ffffff" stroke="black" points="229,-108 41,-108 41,-72 229,-72 229,-108"/>
<text text-anchor="middle" x="135" y="-86.3" font-family="Times,serif" font-size="14.00">ipc::ClampedLogBarrier</text>
</a>
</g>
</g>
<!-- 2&#45;&gt;1 -->
<g id="edge1" class="edge">
<title>2&#45;&gt;1</title>
<g id="a_edge1"><a xlink:title="public&#45;inheritance">
<path fill="none" stroke="#ce93d8" d="M135,-71.7C135,-63.98 135,-54.71 135,-46.11"/>
<polygon fill="#ce93d8" stroke="#ce93d8" points="138.5,-46.1 135,-36.1 131.5,-46.1 138.5,-46.1"/>
</a>
</g>
</g>
<!-- 3 -->
<g id="node3" class="node">
<title>3</title>
<g id="a_node3"><a xlink:title="ipc::NormalizedClampedLogBarrier">
<polygon fill="#ffffff" stroke="black" points="270,-180 0,-180 0,-144 270,-144 270,-180"/>
<text text-anchor="middle" x="135" y="-158.3" font-family="Times,serif" font-size="14.00">ipc::NormalizedClampedLogBarrier</text>
</a>
</g>
</g>
<!-- 3&#45;&gt;2 -->
<g id="edge2" class="edge">
<title>3&#45;&gt;2</title>
<g id="a_edge2"><a xlink:title="public&#45;inheritance">
<path fill="none" stroke="#ce93d8" d="M135,-143.7C135,-135.98 135,-126.71 135,-118.11"/>
<polygon fill="#ce93d8" stroke="#ce93d8" points="138.5,-118.1 135,-108.1 131.5,-118.1 138.5,-118.1"/>
</a>
</g>
</g>
</g>
</svg>
