<?xml version="1.0" encoding="UTF-8" standalone="no"?>
<!DOCTYPE svg PUBLIC "-//W3C//DTD SVG 1.1//EN"
 "http://www.w3.org/Graphics/SVG/1.1/DTD/svg11.dtd">
<!-- Generated by graphviz version 2.43.0 (0)
 -->
<!-- Title: %3 Pages: 1 -->
<svg width="274pt" height="188pt"
 viewBox="0.00 0.00 274.00 188.00" xmlns="http://www.w3.org/2000/svg" xmlns:xlink="http://www.w3.org/1999/xlink">
<g id="graph0" class="graph" transform="scale(1 1) rotate(0) translate(4 184)">
<title>%3</title>
<polygon fill="transparent" stroke="transparent" points="-4,4 -4,-184 270,-184 270,4 -4,4"/>
<!-- 3 -->
<g id="node1" class="node">
<title>3</title>
<g id="a_node1"><a xlink:title="ipc::Potential&lt; NormalCollisions &gt;">
<polygon fill="#ffffff" stroke="black" points="266,-36 0,-36 0,0 266,0 266,-36"/>
<text text-anchor="middle" x="133" y="-14.3" font-family="Times,serif" font-size="14.00">ipc::Potential&lt; NormalCollisions &gt;</text>
</a>
</g>
</g>
<!-- 1 -->
<g id="node2" class="node">
<title>1</title>
<g id="a_node2"><a xlink:title="ipc::NormalAdhesionPotential">
<polygon fill="#bfbfbf" stroke="black" points="247.5,-180 18.5,-180 18.5,-144 247.5,-144 247.5,-180"/>
<text text-anchor="middle" x="133" y="-158.3" font-family="Times,serif" font-size="14.00">ipc::NormalAdhesionPotential</text>
</a>
</g>
</g>
<!-- 2 -->
<g id="node3" class="node">
<title>2</title>
<g id="a_node3"><a xlink:title="ipc::NormalPotential">
<polygon fill="#ffffff" stroke="black" points="215,-108 51,-108 51,-72 215,-72 215,-108"/>
<text text-anchor="middle" x="133" y="-86.3" font-family="Times,serif" font-size="14.00">ipc::NormalPotential</text>
</a>
</g>
</g>
<!-- 1&#45;&gt;2 -->
<g id="edge1" class="edge">
<title>1&#45;&gt;2</title>
<g id="a_edge1"><a xlink:title="public&#45;inheritance">
<path fill="none" stroke="#ce93d8" d="M133,-143.7C133,-135.98 133,-126.71 133,-118.11"/>
<polygon fill="#ce93d8" stroke="#ce93d8" points="136.5,-118.1 133,-108.1 129.5,-118.1 136.5,-118.1"/>
</a>
</g>
</g>
<!-- 2&#45;&gt;3 -->
<g id="edge2" class="edge">
<title>2&#45;&gt;3</title>
<g id="a_edge2"><a xlink:title="public&#45;inheritance">
<path fill="none" stroke="#ce93d8" d="M133,-71.7C133,-63.98 133,-54.71 133,-46.11"/>
<polygon fill="#ce93d8" stroke="#ce93d8" points="136.5,-46.1 133,-36.1 129.5,-46.1 136.5,-46.1"/>
</a>
</g>
</g>
</g>
</svg>
