<?xml version="1.0" encoding="UTF-8" standalone="no"?>
<!DOCTYPE svg PUBLIC "-//W3C//DTD SVG 1.1//EN"
 "http://www.w3.org/Graphics/SVG/1.1/DTD/svg11.dtd">
<!-- Generated by graphviz version 2.43.0 (0)
 -->
<!-- Title: %3 Pages: 1 -->
<svg width="392pt" height="188pt"
 viewBox="0.00 0.00 391.50 188.00" xmlns="http://www.w3.org/2000/svg" xmlns:xlink="http://www.w3.org/1999/xlink">
<g id="graph0" class="graph" transform="scale(1 1) rotate(0) translate(4 184)">
<title>%3</title>
<!-- 3 -->
<g id="node1" class="node">
<title>3</title>
<g id="a_node1"><a xlink:title="ipc::CollisionStencil">
<polygon fill="#ffffff" stroke="black" points="270.5,-36 120.5,-36 120.5,0 270.5,0 270.5,-36"/>
<text text-anchor="middle" x="195.5" y="-14.3" font-family="Menlo" font-size="14.00">ipc::CollisionStencil</text>
</a>
</g>
</g>
<!-- 2 -->
<g id="node2" class="node">
<title>2</title>
<g id="a_node2"><a xlink:title="ipc::FaceVertexCandidate">
<polygon fill="#ffffff" stroke="black" points="191,-108 0,-108 0,-72 191,-72 191,-108"/>
<text text-anchor="middle" x="95.5" y="-86.3" font-family="Menlo" font-size="14.00">ipc::FaceVertexCandidate</text>
</a>
</g>
</g>
<!-- 2&#45;&gt;3 -->
<g id="edge1" class="edge">
<title>2&#45;&gt;3</title>
<g id="a_edge1"><a xlink:title="public&#45;inheritance">
<path fill="none" stroke="#ce93d8" d="M119.96,-71.88C132.8,-62.89 148.7,-51.76 162.59,-42.03"/>
<polygon fill="#ce93d8" stroke="#ce93d8" points="164.76,-44.79 170.94,-36.19 160.74,-39.06 164.76,-44.79"/>
</a>
</g>
</g>
<!-- 1 -->
<g id="node3" class="node">
<title>1</title>
<g id="a_node3"><a xlink:title="ipc::FaceVertexTangentialCollision">
<polygon fill="#bfbfbf" stroke="black" points="320,-180 71,-180 71,-144 320,-144 320,-180"/>
<text text-anchor="middle" x="195.5" y="-158.3" font-family="Menlo" font-size="14.00">ipc::FaceVertexTangentialCollision</text>
</a>
</g>
</g>
<!-- 1&#45;&gt;2 -->
<g id="edge2" class="edge">
<title>1&#45;&gt;2</title>
<g id="a_edge2"><a xlink:title="public&#45;inheritance">
<path fill="none" stroke="#ce93d8" d="M171.04,-143.88C158.2,-134.89 142.3,-123.76 128.41,-114.03"/>
<polygon fill="#ce93d8" stroke="#ce93d8" points="130.26,-111.06 120.06,-108.19 126.24,-116.79 130.26,-111.06"/>
</a>
</g>
</g>
<!-- 4 -->
<g id="node4" class="node">
<title>4</title>
<g id="a_node4"><a xlink:title="ipc::TangentialCollision">
<polygon fill="#ffffff" stroke="black" points="383.5,-108 209.5,-108 209.5,-72 383.5,-72 383.5,-108"/>
<text text-anchor="middle" x="296.5" y="-86.3" font-family="Menlo" font-size="14.00">ipc::TangentialCollision</text>
</a>
</g>
</g>
<!-- 1&#45;&gt;4 -->
<g id="edge3" class="edge">
<title>1&#45;&gt;4</title>
<g id="a_edge3"><a xlink:title="public&#45;inheritance">
<path fill="none" stroke="#ce93d8" d="M220.21,-143.88C233.17,-134.89 249.23,-123.76 263.27,-114.03"/>
<polygon fill="#ce93d8" stroke="#ce93d8" points="265.47,-116.76 271.7,-108.19 261.48,-111.01 265.47,-116.76"/>
</a>
</g>
</g>
<!-- 4&#45;&gt;3 -->
<g id="edge4" class="edge">
<title>4&#45;&gt;3</title>
<g id="a_edge4"><a xlink:title="public&#45;inheritance">
<path fill="none" stroke="#ce93d8" d="M271.79,-71.88C258.83,-62.89 242.77,-51.76 228.73,-42.03"/>
<polygon fill="#ce93d8" stroke="#ce93d8" points="230.52,-39.01 220.3,-36.19 226.53,-44.76 230.52,-39.01"/>
</a>
</g>
</g>
</g>
</svg>
