<?xml version="1.0" encoding="UTF-8" standalone="no"?>
<!DOCTYPE svg PUBLIC "-//W3C//DTD SVG 1.1//EN"
 "http://www.w3.org/Graphics/SVG/1.1/DTD/svg11.dtd">
<!-- Generated by graphviz version 2.43.0 (0)
 -->
<!-- Title: %3 Pages: 1 -->
<svg width="295pt" height="188pt"
 viewBox="0.00 0.00 295.00 188.00" xmlns="http://www.w3.org/2000/svg" xmlns:xlink="http://www.w3.org/1999/xlink">
<g id="graph0" class="graph" transform="scale(1 1) rotate(0) translate(4 184)">
<title>%3</title>
<polygon fill="transparent" stroke="transparent" points="-4,4 -4,-184 291,-184 291,4 -4,4"/>
<!-- 2 -->
<g id="node1" class="node">
<title>2</title>
<g id="a_node1"><a xlink:title="ipc::TangentialPotential">
<polygon fill="#ffffff" stroke="black" points="236,-108 51,-108 51,-72 236,-72 236,-108"/>
<text text-anchor="middle" x="143.5" y="-86.3" font-family="Times,serif" font-size="14.00">ipc::TangentialPotential</text>
</a>
</g>
</g>
<!-- 3 -->
<g id="node3" class="node">
<title>3</title>
<g id="a_node3"><a xlink:title="ipc::Potential&lt; TangentialCollisions &gt;">
<polygon fill="#ffffff" stroke="black" points="287,-36 0,-36 0,0 287,0 287,-36"/>
<text text-anchor="middle" x="143.5" y="-14.3" font-family="Times,serif" font-size="14.00">ipc::Potential&lt; TangentialCollisions &gt;</text>
</a>
</g>
</g>
<!-- 2&#45;&gt;3 -->
<g id="edge1" class="edge">
<title>2&#45;&gt;3</title>
<g id="a_edge1"><a xlink:title="public&#45;inheritance">
<path fill="none" stroke="#ce93d8" d="M143.5,-71.7C143.5,-63.98 143.5,-54.71 143.5,-46.11"/>
<polygon fill="#ce93d8" stroke="#ce93d8" points="147,-46.1 143.5,-36.1 140,-46.1 147,-46.1"/>
</a>
</g>
</g>
<!-- 1 -->
<g id="node2" class="node">
<title>1</title>
<g id="a_node2"><a xlink:title="ipc::TangentialAdhesionPotential">
<polygon fill="#bfbfbf" stroke="black" points="269,-180 18,-180 18,-144 269,-144 269,-180"/>
<text text-anchor="middle" x="143.5" y="-158.3" font-family="Times,serif" font-size="14.00">ipc::TangentialAdhesionPotential</text>
</a>
</g>
</g>
<!-- 1&#45;&gt;2 -->
<g id="edge2" class="edge">
<title>1&#45;&gt;2</title>
<g id="a_edge2"><a xlink:title="public&#45;inheritance">
<path fill="none" stroke="#ce93d8" d="M143.5,-143.7C143.5,-135.98 143.5,-126.71 143.5,-118.11"/>
<polygon fill="#ce93d8" stroke="#ce93d8" points="147,-118.1 143.5,-108.1 140,-118.1 147,-118.1"/>
</a>
</g>
</g>
</g>
</svg>
