<?xml version="1.0" encoding="UTF-8" standalone="no"?>
<!DOCTYPE svg PUBLIC "-//W3C//DTD SVG 1.1//EN"
 "http://www.w3.org/Graphics/SVG/1.1/DTD/svg11.dtd">
<!-- Generated by graphviz version 2.43.0 (0)
 -->
<!-- Title: %3 Pages: 1 -->
<svg width="2173pt" height="260pt"
 viewBox="0.00 0.00 2172.50 260.00" xmlns="http://www.w3.org/2000/svg" xmlns:xlink="http://www.w3.org/1999/xlink">
<g id="graph0" class="graph" transform="scale(1 1) rotate(0) translate(4 256)">
<title>%3</title>
<polygon fill="transparent" stroke="transparent" points="-4,4 -4,-256 2168.5,-256 2168.5,4 -4,4"/>
<!-- 2 -->
<g id="node1" class="node">
<title>2</title>
<g id="a_node1"><a xlink:title="ipc::CollisionStencil">
<polygon fill="#ffffff" stroke="black" points="1139.5,-36 981.5,-36 981.5,0 1139.5,0 1139.5,-36"/>
<text text-anchor="middle" x="1060.5" y="-14.3" font-family="Times,serif" font-size="14.00">ipc::CollisionStencil</text>
</a>
</g>
</g>
<!-- 1 -->
<g id="node2" class="node">
<title>1</title>
<g id="a_node2"><a xlink:title="ipc::ContinuousCollisionCandidate">
<polygon fill="#bfbfbf" stroke="black" points="1191.5,-108 929.5,-108 929.5,-72 1191.5,-72 1191.5,-108"/>
<text text-anchor="middle" x="1060.5" y="-86.3" font-family="Times,serif" font-size="14.00">ipc::ContinuousCollisionCandidate</text>
</a>
</g>
</g>
<!-- 1&#45;&gt;2 -->
<g id="edge1" class="edge">
<title>1&#45;&gt;2</title>
<g id="a_edge1"><a xlink:title="public&#45;inheritance">
<path fill="none" stroke="#ce93d8" d="M1060.5,-71.7C1060.5,-63.98 1060.5,-54.71 1060.5,-46.11"/>
<polygon fill="#ce93d8" stroke="#ce93d8" points="1064,-46.1 1060.5,-36.1 1057,-46.1 1064,-46.1"/>
</a>
</g>
</g>
<!-- 3 -->
<g id="node3" class="node">
<title>3</title>
<g id="a_node3"><a xlink:title="ipc::EdgeEdgeCandidate">
<polygon fill="#ffffff" stroke="black" points="478,-180 285,-180 285,-144 478,-144 478,-180"/>
<text text-anchor="middle" x="381.5" y="-158.3" font-family="Times,serif" font-size="14.00">ipc::EdgeEdgeCandidate</text>
</a>
</g>
</g>
<!-- 3&#45;&gt;1 -->
<g id="edge2" class="edge">
<title>3&#45;&gt;1</title>
<g id="a_edge2"><a xlink:title="public&#45;inheritance">
<path fill="none" stroke="#ce93d8" d="M478.06,-151.05C593.32,-139.16 787.03,-119.19 919.14,-105.57"/>
<polygon fill="#ce93d8" stroke="#ce93d8" points="919.75,-109.03 929.34,-104.52 919.04,-102.07 919.75,-109.03"/>
</a>
</g>
</g>
<!-- 4 -->
<g id="node4" class="node">
<title>4</title>
<g id="a_node4"><a xlink:title="ipc::EdgeEdgeNormalCollision">
<polygon fill="#ffffff" stroke="black" points="235,-252 0,-252 0,-216 235,-216 235,-252"/>
<text text-anchor="middle" x="117.5" y="-230.3" font-family="Times,serif" font-size="14.00">ipc::EdgeEdgeNormalCollision</text>
</a>
</g>
</g>
<!-- 4&#45;&gt;3 -->
<g id="edge3" class="edge">
<title>4&#45;&gt;3</title>
<g id="a_edge3"><a xlink:title="public&#45;inheritance">
<path fill="none" stroke="#ce93d8" d="M181.74,-215.97C219.59,-205.93 267.64,-193.19 307.12,-182.72"/>
<polygon fill="#ce93d8" stroke="#ce93d8" points="308.2,-186.06 316.97,-180.11 306.4,-179.29 308.2,-186.06"/>
</a>
</g>
</g>
<!-- 5 -->
<g id="node5" class="node">
<title>5</title>
<g id="a_node5"><a xlink:title="ipc::EdgeEdgeTangentialCollision">
<polygon fill="#ffffff" stroke="black" points="510,-252 253,-252 253,-216 510,-216 510,-252"/>
<text text-anchor="middle" x="381.5" y="-230.3" font-family="Times,serif" font-size="14.00">ipc::EdgeEdgeTangentialCollision</text>
</a>
</g>
</g>
<!-- 5&#45;&gt;3 -->
<g id="edge4" class="edge">
<title>5&#45;&gt;3</title>
<g id="a_edge4"><a xlink:title="public&#45;inheritance">
<path fill="none" stroke="#ce93d8" d="M381.5,-215.7C381.5,-207.98 381.5,-198.71 381.5,-190.11"/>
<polygon fill="#ce93d8" stroke="#ce93d8" points="385,-190.1 381.5,-180.1 378,-190.1 385,-190.1"/>
</a>
</g>
</g>
<!-- 6 -->
<g id="node6" class="node">
<title>6</title>
<g id="a_node6"><a xlink:title="ipc::EdgeVertexCandidate">
<polygon fill="#ffffff" stroke="black" points="1026,-180 823,-180 823,-144 1026,-144 1026,-180"/>
<text text-anchor="middle" x="924.5" y="-158.3" font-family="Times,serif" font-size="14.00">ipc::EdgeVertexCandidate</text>
</a>
</g>
</g>
<!-- 6&#45;&gt;1 -->
<g id="edge5" class="edge">
<title>6&#45;&gt;1</title>
<g id="a_edge5"><a xlink:title="public&#45;inheritance">
<path fill="none" stroke="#ce93d8" d="M957.77,-143.88C975.96,-134.51 998.69,-122.81 1018.14,-112.8"/>
<polygon fill="#ce93d8" stroke="#ce93d8" points="1019.81,-115.88 1027.1,-108.19 1016.61,-109.65 1019.81,-115.88"/>
</a>
</g>
</g>
<!-- 7 -->
<g id="node7" class="node">
<title>7</title>
<g id="a_node7"><a xlink:title="ipc::EdgeVertexNormalCollision">
<polygon fill="#ffffff" stroke="black" points="773,-252 528,-252 528,-216 773,-216 773,-252"/>
<text text-anchor="middle" x="650.5" y="-230.3" font-family="Times,serif" font-size="14.00">ipc::EdgeVertexNormalCollision</text>
</a>
</g>
</g>
<!-- 7&#45;&gt;6 -->
<g id="edge6" class="edge">
<title>7&#45;&gt;6</title>
<g id="a_edge6"><a xlink:title="public&#45;inheritance">
<path fill="none" stroke="#ce93d8" d="M717.18,-215.97C756.63,-205.89 806.75,-193.08 847.83,-182.59"/>
<polygon fill="#ce93d8" stroke="#ce93d8" points="848.7,-185.98 857.52,-180.11 846.97,-179.2 848.7,-185.98"/>
</a>
</g>
</g>
<!-- 8 -->
<g id="node8" class="node">
<title>8</title>
<g id="a_node8"><a xlink:title="ipc::EdgeVertexTangentialCollision">
<polygon fill="#ffffff" stroke="black" points="1057.5,-252 791.5,-252 791.5,-216 1057.5,-216 1057.5,-252"/>
<text text-anchor="middle" x="924.5" y="-230.3" font-family="Times,serif" font-size="14.00">ipc::EdgeVertexTangentialCollision</text>
</a>
</g>
</g>
<!-- 8&#45;&gt;6 -->
<g id="edge7" class="edge">
<title>8&#45;&gt;6</title>
<g id="a_edge7"><a xlink:title="public&#45;inheritance">
<path fill="none" stroke="#ce93d8" d="M924.5,-215.7C924.5,-207.98 924.5,-198.71 924.5,-190.11"/>
<polygon fill="#ce93d8" stroke="#ce93d8" points="928,-190.1 924.5,-180.1 921,-190.1 928,-190.1"/>
</a>
</g>
</g>
<!-- 9 -->
<g id="node9" class="node">
<title>9</title>
<g id="a_node9"><a xlink:title="ipc::FaceVertexCandidate">
<polygon fill="#ffffff" stroke="black" points="1296,-180 1097,-180 1097,-144 1296,-144 1296,-180"/>
<text text-anchor="middle" x="1196.5" y="-158.3" font-family="Times,serif" font-size="14.00">ipc::FaceVertexCandidate</text>
</a>
</g>
</g>
<!-- 9&#45;&gt;1 -->
<g id="edge8" class="edge">
<title>9&#45;&gt;1</title>
<g id="a_edge8"><a xlink:title="public&#45;inheritance">
<path fill="none" stroke="#ce93d8" d="M1163.23,-143.88C1145.04,-134.51 1122.31,-122.81 1102.86,-112.8"/>
<polygon fill="#ce93d8" stroke="#ce93d8" points="1104.39,-109.65 1093.9,-108.19 1101.19,-115.88 1104.39,-109.65"/>
</a>
</g>
</g>
<!-- 10 -->
<g id="node10" class="node">
<title>10</title>
<g id="a_node10"><a xlink:title="ipc::FaceVertexNormalCollision">
<polygon fill="#ffffff" stroke="black" points="1317,-252 1076,-252 1076,-216 1317,-216 1317,-252"/>
<text text-anchor="middle" x="1196.5" y="-230.3" font-family="Times,serif" font-size="14.00">ipc::FaceVertexNormalCollision</text>
</a>
</g>
</g>
<!-- 10&#45;&gt;9 -->
<g id="edge9" class="edge">
<title>10&#45;&gt;9</title>
<g id="a_edge9"><a xlink:title="public&#45;inheritance">
<path fill="none" stroke="#ce93d8" d="M1196.5,-215.7C1196.5,-207.98 1196.5,-198.71 1196.5,-190.11"/>
<polygon fill="#ce93d8" stroke="#ce93d8" points="1200,-190.1 1196.5,-180.1 1193,-190.1 1200,-190.1"/>
</a>
</g>
</g>
<!-- 11 -->
<g id="node11" class="node">
<title>11</title>
<g id="a_node11"><a xlink:title="ipc::FaceVertexTangentialCollision">
<polygon fill="#ffffff" stroke="black" points="1598,-252 1335,-252 1335,-216 1598,-216 1598,-252"/>
<text text-anchor="middle" x="1466.5" y="-230.3" font-family="Times,serif" font-size="14.00">ipc::FaceVertexTangentialCollision</text>
</a>
</g>
</g>
<!-- 11&#45;&gt;9 -->
<g id="edge10" class="edge">
<title>11&#45;&gt;9</title>
<g id="a_edge10"><a xlink:title="public&#45;inheritance">
<path fill="none" stroke="#ce93d8" d="M1400.8,-215.97C1362,-205.91 1312.74,-193.14 1272.31,-182.65"/>
<polygon fill="#ce93d8" stroke="#ce93d8" points="1273.06,-179.23 1262.5,-180.11 1271.3,-186.01 1273.06,-179.23"/>
</a>
</g>
</g>
<!-- 12 -->
<g id="node12" class="node">
<title>12</title>
<g id="a_node12"><a xlink:title="ipc::VertexVertexCandidate">
<polygon fill="#ffffff" stroke="black" points="1849.5,-180 1637.5,-180 1637.5,-144 1849.5,-144 1849.5,-180"/>
<text text-anchor="middle" x="1743.5" y="-158.3" font-family="Times,serif" font-size="14.00">ipc::VertexVertexCandidate</text>
</a>
</g>
</g>
<!-- 12&#45;&gt;1 -->
<g id="edge11" class="edge">
<title>12&#45;&gt;1</title>
<g id="a_edge11"><a xlink:title="public&#45;inheritance">
<path fill="none" stroke="#ce93d8" d="M1637.16,-150.1C1520.04,-138.1 1331.19,-118.74 1201.73,-105.47"/>
<polygon fill="#ce93d8" stroke="#ce93d8" points="1202.04,-101.99 1191.73,-104.45 1201.33,-108.95 1202.04,-101.99"/>
</a>
</g>
</g>
<!-- 13 -->
<g id="node13" class="node">
<title>13</title>
<g id="a_node13"><a xlink:title="ipc::VertexVertexNormalCollision">
<polygon fill="#ffffff" stroke="black" points="1870.5,-252 1616.5,-252 1616.5,-216 1870.5,-216 1870.5,-252"/>
<text text-anchor="middle" x="1743.5" y="-230.3" font-family="Times,serif" font-size="14.00">ipc::VertexVertexNormalCollision</text>
</a>
</g>
</g>
<!-- 13&#45;&gt;12 -->
<g id="edge12" class="edge">
<title>13&#45;&gt;12</title>
<g id="a_edge12"><a xlink:title="public&#45;inheritance">
<path fill="none" stroke="#ce93d8" d="M1743.5,-215.7C1743.5,-207.98 1743.5,-198.71 1743.5,-190.11"/>
<polygon fill="#ce93d8" stroke="#ce93d8" points="1747,-190.1 1743.5,-180.1 1740,-190.1 1747,-190.1"/>
</a>
</g>
</g>
<!-- 14 -->
<g id="node14" class="node">
<title>14</title>
<g id="a_node14"><a xlink:title="ipc::VertexVertexTangentialCollision">
<polygon fill="#ffffff" stroke="black" points="2164.5,-252 1888.5,-252 1888.5,-216 2164.5,-216 2164.5,-252"/>
<text text-anchor="middle" x="2026.5" y="-230.3" font-family="Times,serif" font-size="14.00">ipc::VertexVertexTangentialCollision</text>
</a>
</g>
</g>
<!-- 14&#45;&gt;12 -->
<g id="edge13" class="edge">
<title>14&#45;&gt;12</title>
<g id="a_edge13"><a xlink:title="public&#45;inheritance">
<path fill="none" stroke="#ce93d8" d="M1957.63,-215.97C1916.8,-205.87 1864.9,-193.03 1822.42,-182.52"/>
<polygon fill="#ce93d8" stroke="#ce93d8" points="1823.22,-179.11 1812.68,-180.11 1821.54,-185.91 1823.22,-179.11"/>
</a>
</g>
</g>
</g>
</svg>
