<?xml version="1.0" encoding="UTF-8" standalone="no"?>
<!DOCTYPE svg PUBLIC "-//W3C//DTD SVG 1.1//EN"
 "http://www.w3.org/Graphics/SVG/1.1/DTD/svg11.dtd">
<!-- Generated by graphviz version 2.43.0 (0)
 -->
<!-- Title: %3 Pages: 1 -->
<svg width="380pt" height="188pt"
 viewBox="0.00 0.00 380.00 188.00" xmlns="http://www.w3.org/2000/svg" xmlns:xlink="http://www.w3.org/1999/xlink">
<g id="graph0" class="graph" transform="scale(1 1) rotate(0) translate(4 184)">
<title>%3</title>
<polygon fill="transparent" stroke="transparent" points="-4,4 -4,-184 376,-184 376,4 -4,4"/>
<!-- 3 -->
<g id="node1" class="node">
<title>3</title>
<g id="a_node1"><a xlink:title="ipc::CollisionStencil">
<polygon fill="#ffffff" stroke="black" points="272.5,-36 114.5,-36 114.5,0 272.5,0 272.5,-36"/>
<text text-anchor="middle" x="193.5" y="-14.3" font-family="Times,serif" font-size="14.00">ipc::CollisionStencil</text>
</a>
</g>
</g>
<!-- 2 -->
<g id="node2" class="node">
<title>2</title>
<g id="a_node2"><a xlink:title="ipc::EdgeEdgeCandidate">
<polygon fill="#ffffff" stroke="black" points="193,-108 0,-108 0,-72 193,-72 193,-108"/>
<text text-anchor="middle" x="96.5" y="-86.3" font-family="Times,serif" font-size="14.00">ipc::EdgeEdgeCandidate</text>
</a>
</g>
</g>
<!-- 2&#45;&gt;3 -->
<g id="edge1" class="edge">
<title>2&#45;&gt;3</title>
<g id="a_edge1"><a xlink:title="public&#45;inheritance">
<path fill="none" stroke="#ce93d8" d="M120.48,-71.7C132.81,-62.8 148.02,-51.82 161.35,-42.2"/>
<polygon fill="#ce93d8" stroke="#ce93d8" points="163.74,-44.79 169.8,-36.1 159.64,-39.12 163.74,-44.79"/>
</a>
</g>
</g>
<!-- 1 -->
<g id="node3" class="node">
<title>1</title>
<g id="a_node3"><a xlink:title="ipc::EdgeEdgeNormalCollision">
<polygon fill="#bfbfbf" stroke="black" points="311,-180 76,-180 76,-144 311,-144 311,-180"/>
<text text-anchor="middle" x="193.5" y="-158.3" font-family="Times,serif" font-size="14.00">ipc::EdgeEdgeNormalCollision</text>
</a>
</g>
</g>
<!-- 1&#45;&gt;2 -->
<g id="edge2" class="edge">
<title>1&#45;&gt;2</title>
<g id="a_edge2"><a xlink:title="public&#45;inheritance">
<path fill="none" stroke="#ce93d8" d="M169.52,-143.7C157.19,-134.8 141.98,-123.82 128.65,-114.2"/>
<polygon fill="#ce93d8" stroke="#ce93d8" points="130.36,-111.12 120.2,-108.1 126.26,-116.79 130.36,-111.12"/>
</a>
</g>
</g>
<!-- 4 -->
<g id="node4" class="node">
<title>4</title>
<g id="a_node4"><a xlink:title="ipc::NormalCollision">
<polygon fill="#ffffff" stroke="black" points="372,-108 211,-108 211,-72 372,-72 372,-108"/>
<text text-anchor="middle" x="291.5" y="-86.3" font-family="Times,serif" font-size="14.00">ipc::NormalCollision</text>
</a>
</g>
</g>
<!-- 1&#45;&gt;4 -->
<g id="edge3" class="edge">
<title>1&#45;&gt;4</title>
<g id="a_edge3"><a xlink:title="public&#45;inheritance">
<path fill="none" stroke="#ce93d8" d="M217.47,-143.88C230.05,-134.89 245.63,-123.76 259.25,-114.03"/>
<polygon fill="#ce93d8" stroke="#ce93d8" points="261.33,-116.85 267.43,-108.19 257.26,-111.15 261.33,-116.85"/>
</a>
</g>
</g>
<!-- 4&#45;&gt;3 -->
<g id="edge4" class="edge">
<title>4&#45;&gt;3</title>
<g id="a_edge4"><a xlink:title="public&#45;inheritance">
<path fill="none" stroke="#ce93d8" d="M267.53,-71.88C254.95,-62.89 239.37,-51.76 225.75,-42.03"/>
<polygon fill="#ce93d8" stroke="#ce93d8" points="227.74,-39.15 217.57,-36.19 223.67,-44.85 227.74,-39.15"/>
</a>
</g>
</g>
</g>
</svg>
