<?xml version="1.0" encoding="UTF-8" standalone="no"?>
<!DOCTYPE svg PUBLIC "-//W3C//DTD SVG 1.1//EN"
 "http://www.w3.org/Graphics/SVG/1.1/DTD/svg11.dtd">
<!-- Generated by graphviz version 2.43.0 (0)
 -->
<!-- Title: %3 Pages: 1 -->
<svg width="406pt" height="188pt"
 viewBox="0.00 0.00 405.50 188.00" xmlns="http://www.w3.org/2000/svg" xmlns:xlink="http://www.w3.org/1999/xlink">
<g id="graph0" class="graph" transform="scale(1 1) rotate(0) translate(4 184)">
<title>%3</title>
<!-- 3 -->
<g id="node1" class="node">
<title>3</title>
<g id="a_node1"><a xlink:title="ipc::CollisionStencil">
<polygon fill="#ffffff" stroke="black" points="266,-36 116,-36 116,0 266,0 266,-36"/>
<text text-anchor="middle" x="191" y="-14.3" font-family="Menlo" font-size="14.00">ipc::CollisionStencil</text>
</a>
</g>
</g>
<!-- 4 -->
<g id="node2" class="node">
<title>4</title>
<g id="a_node2"><a xlink:title="ipc::TangentialCollision">
<polygon fill="#ffffff" stroke="black" points="174,-108 0,-108 0,-72 174,-72 174,-108"/>
<text text-anchor="middle" x="87" y="-86.3" font-family="Menlo" font-size="14.00">ipc::TangentialCollision</text>
</a>
</g>
</g>
<!-- 4&#45;&gt;3 -->
<g id="edge1" class="edge">
<title>4&#45;&gt;3</title>
<g id="a_edge1"><a xlink:title="public&#45;inheritance">
<path fill="none" stroke="#ce93d8" d="M112.44,-71.88C125.79,-62.89 142.32,-51.76 156.78,-42.03"/>
<polygon fill="#ce93d8" stroke="#ce93d8" points="159.12,-44.68 165.46,-36.19 155.21,-38.87 159.12,-44.68"/>
</a>
</g>
</g>
<!-- 2 -->
<g id="node3" class="node">
<title>2</title>
<g id="a_node3"><a xlink:title="ipc::VertexVertexCandidate">
<polygon fill="#ffffff" stroke="black" points="397.5,-108 192.5,-108 192.5,-72 397.5,-72 397.5,-108"/>
<text text-anchor="middle" x="295" y="-86.3" font-family="Menlo" font-size="14.00">ipc::VertexVertexCandidate</text>
</a>
</g>
</g>
<!-- 2&#45;&gt;3 -->
<g id="edge2" class="edge">
<title>2&#45;&gt;3</title>
<g id="a_edge2"><a xlink:title="public&#45;inheritance">
<path fill="none" stroke="#ce93d8" d="M269.56,-71.88C256.21,-62.89 239.68,-51.76 225.22,-42.03"/>
<polygon fill="#ce93d8" stroke="#ce93d8" points="226.79,-38.87 216.54,-36.19 222.88,-44.68 226.79,-38.87"/>
</a>
</g>
</g>
<!-- 1 -->
<g id="node4" class="node">
<title>1</title>
<g id="a_node4"><a xlink:title="ipc::VertexVertexTangentialCollision">
<polygon fill="#bfbfbf" stroke="black" points="322.5,-180 59.5,-180 59.5,-144 322.5,-144 322.5,-180"/>
<text text-anchor="middle" x="191" y="-158.3" font-family="Menlo" font-size="14.00">ipc::VertexVertexTangentialCollision</text>
</a>
</g>
</g>
<!-- 1&#45;&gt;4 -->
<g id="edge4" class="edge">
<title>1&#45;&gt;4</title>
<g id="a_edge4"><a xlink:title="public&#45;inheritance">
<path fill="none" stroke="#ce93d8" d="M165.56,-143.88C152.21,-134.89 135.68,-123.76 121.22,-114.03"/>
<polygon fill="#ce93d8" stroke="#ce93d8" points="122.79,-110.87 112.54,-108.19 118.88,-116.68 122.79,-110.87"/>
</a>
</g>
</g>
<!-- 1&#45;&gt;2 -->
<g id="edge3" class="edge">
<title>1&#45;&gt;2</title>
<g id="a_edge3"><a xlink:title="public&#45;inheritance">
<path fill="none" stroke="#ce93d8" d="M216.44,-143.88C229.79,-134.89 246.32,-123.76 260.78,-114.03"/>
<polygon fill="#ce93d8" stroke="#ce93d8" points="263.12,-116.68 269.46,-108.19 259.21,-110.87 263.12,-116.68"/>
</a>
</g>
</g>
</g>
</svg>
