<?xml version="1.0" encoding="UTF-8" standalone="no"?>
<!DOCTYPE svg PUBLIC "-//W3C//DTD SVG 1.1//EN"
 "http://www.w3.org/Graphics/SVG/1.1/DTD/svg11.dtd">
<!-- Generated by graphviz version 2.43.0 (0)
 -->
<!-- Title: %3 Pages: 1 -->
<svg width="2439pt" height="260pt"
 viewBox="0.00 0.00 2439.00 260.00" xmlns="http://www.w3.org/2000/svg" xmlns:xlink="http://www.w3.org/1999/xlink">
<g id="graph0" class="graph" transform="scale(1 1) rotate(0) translate(4 256)">
<title>%3</title>
<polygon fill="transparent" stroke="transparent" points="-4,4 -4,-256 2435,-256 2435,4 -4,4"/>
<!-- 15 -->
<g id="node1" class="node">
<title>15</title>
<g id="a_node1"><a xlink:title="ipc::NormalCollision">
<polygon fill="#ffffff" stroke="black" points="739.5,-180 578.5,-180 578.5,-144 739.5,-144 739.5,-180"/>
<text text-anchor="middle" x="659" y="-158.3" font-family="Times,serif" font-size="14.00">ipc::NormalCollision</text>
</a>
</g>
</g>
<!-- 1 -->
<g id="node6" class="node">
<title>1</title>
<g id="a_node6"><a xlink:title="ipc::CollisionStencil">
<polygon fill="#bfbfbf" stroke="black" points="1276,-36 1118,-36 1118,0 1276,0 1276,-36"/>
<text text-anchor="middle" x="1197" y="-14.3" font-family="Times,serif" font-size="14.00">ipc::CollisionStencil</text>
</a>
</g>
</g>
<!-- 15&#45;&gt;1 -->
<g id="edge1" class="edge">
<title>15&#45;&gt;1</title>
<g id="a_edge1"><a xlink:title="public&#45;inheritance">
<path fill="none" stroke="#ce93d8" d="M723.63,-143.94C823.84,-117.49 1016.18,-66.73 1122.23,-38.73"/>
<polygon fill="#ce93d8" stroke="#ce93d8" points="1123.44,-42.03 1132.22,-36.1 1121.66,-35.27 1123.44,-42.03"/>
</a>
</g>
</g>
<!-- 13 -->
<g id="node2" class="node">
<title>13</title>
<g id="a_node2"><a xlink:title="ipc::VertexVertexNormalCollision">
<polygon fill="#ffffff" stroke="black" points="520,-252 266,-252 266,-216 520,-216 520,-252"/>
<text text-anchor="middle" x="393" y="-230.3" font-family="Times,serif" font-size="14.00">ipc::VertexVertexNormalCollision</text>
</a>
</g>
</g>
<!-- 13&#45;&gt;15 -->
<g id="edge3" class="edge">
<title>13&#45;&gt;15</title>
<g id="a_edge3"><a xlink:title="public&#45;inheritance">
<path fill="none" stroke="#ce93d8" d="M457.73,-215.97C495.87,-205.93 544.28,-193.19 584.06,-182.72"/>
<polygon fill="#ce93d8" stroke="#ce93d8" points="585.2,-186.04 593.98,-180.11 583.42,-179.27 585.2,-186.04"/>
</a>
</g>
</g>
<!-- 12 -->
<g id="node10" class="node">
<title>12</title>
<g id="a_node10"><a xlink:title="ipc::VertexVertexCandidate">
<polygon fill="#ffffff" stroke="black" points="975,-180 763,-180 763,-144 975,-144 975,-180"/>
<text text-anchor="middle" x="869" y="-158.3" font-family="Times,serif" font-size="14.00">ipc::VertexVertexCandidate</text>
</a>
</g>
</g>
<!-- 13&#45;&gt;12 -->
<g id="edge2" class="edge">
<title>13&#45;&gt;12</title>
<g id="a_edge2"><a xlink:title="public&#45;inheritance">
<path fill="none" stroke="#ce93d8" d="M508.83,-215.97C582.82,-205.09 678.42,-191.03 752.53,-180.13"/>
<polygon fill="#ce93d8" stroke="#ce93d8" points="753.45,-183.53 762.84,-178.61 752.43,-176.6 753.45,-183.53"/>
</a>
</g>
</g>
<!-- 2 -->
<g id="node3" class="node">
<title>2</title>
<g id="a_node3"><a xlink:title="ipc::ContinuousCollisionCandidate">
<polygon fill="#ffffff" stroke="black" points="1328,-108 1066,-108 1066,-72 1328,-72 1328,-108"/>
<text text-anchor="middle" x="1197" y="-86.3" font-family="Times,serif" font-size="14.00">ipc::ContinuousCollisionCandidate</text>
</a>
</g>
</g>
<!-- 2&#45;&gt;1 -->
<g id="edge4" class="edge">
<title>2&#45;&gt;1</title>
<g id="a_edge4"><a xlink:title="public&#45;inheritance">
<path fill="none" stroke="#ce93d8" d="M1197,-71.7C1197,-63.98 1197,-54.71 1197,-46.11"/>
<polygon fill="#ce93d8" stroke="#ce93d8" points="1200.5,-46.1 1197,-36.1 1193.5,-46.1 1200.5,-46.1"/>
</a>
</g>
</g>
<!-- 10 -->
<g id="node4" class="node">
<title>10</title>
<g id="a_node4"><a xlink:title="ipc::FaceVertexNormalCollision">
<polygon fill="#ffffff" stroke="black" points="1032.5,-252 791.5,-252 791.5,-216 1032.5,-216 1032.5,-252"/>
<text text-anchor="middle" x="912" y="-230.3" font-family="Times,serif" font-size="14.00">ipc::FaceVertexNormalCollision</text>
</a>
</g>
</g>
<!-- 10&#45;&gt;15 -->
<g id="edge6" class="edge">
<title>10&#45;&gt;15</title>
<g id="a_edge6"><a xlink:title="public&#45;inheritance">
<path fill="none" stroke="#ce93d8" d="M850.43,-215.97C814.31,-205.97 768.51,-193.3 730.76,-182.85"/>
<polygon fill="#ce93d8" stroke="#ce93d8" points="731.41,-179.4 720.84,-180.11 729.55,-186.15 731.41,-179.4"/>
</a>
</g>
</g>
<!-- 9 -->
<g id="node5" class="node">
<title>9</title>
<g id="a_node5"><a xlink:title="ipc::FaceVertexCandidate">
<polygon fill="#ffffff" stroke="black" points="1403.5,-180 1204.5,-180 1204.5,-144 1403.5,-144 1403.5,-180"/>
<text text-anchor="middle" x="1304" y="-158.3" font-family="Times,serif" font-size="14.00">ipc::FaceVertexCandidate</text>
</a>
</g>
</g>
<!-- 10&#45;&gt;9 -->
<g id="edge5" class="edge">
<title>10&#45;&gt;9</title>
<g id="a_edge5"><a xlink:title="public&#45;inheritance">
<path fill="none" stroke="#ce93d8" d="M1007.39,-215.97C1065.13,-205.66 1138.84,-192.49 1198.34,-181.87"/>
<polygon fill="#ce93d8" stroke="#ce93d8" points="1199.29,-185.25 1208.52,-180.05 1198.06,-178.36 1199.29,-185.25"/>
</a>
</g>
</g>
<!-- 9&#45;&gt;2 -->
<g id="edge7" class="edge">
<title>9&#45;&gt;2</title>
<g id="a_edge7"><a xlink:title="public&#45;inheritance">
<path fill="none" stroke="#ce93d8" d="M1277.82,-143.88C1263.96,-134.81 1246.76,-123.55 1231.79,-113.76"/>
<polygon fill="#ce93d8" stroke="#ce93d8" points="1233.56,-110.74 1223.28,-108.19 1229.73,-116.59 1233.56,-110.74"/>
</a>
</g>
</g>
<!-- 6 -->
<g id="node7" class="node">
<title>6</title>
<g id="a_node7"><a xlink:title="ipc::EdgeVertexCandidate">
<polygon fill="#ffffff" stroke="black" points="1624.5,-180 1421.5,-180 1421.5,-144 1624.5,-144 1624.5,-180"/>
<text text-anchor="middle" x="1523" y="-158.3" font-family="Times,serif" font-size="14.00">ipc::EdgeVertexCandidate</text>
</a>
</g>
</g>
<!-- 6&#45;&gt;2 -->
<g id="edge8" class="edge">
<title>6&#45;&gt;2</title>
<g id="a_edge8"><a xlink:title="public&#45;inheritance">
<path fill="none" stroke="#ce93d8" d="M1443.67,-143.97C1396.15,-133.76 1335.61,-120.76 1286.41,-110.2"/>
<polygon fill="#ce93d8" stroke="#ce93d8" points="1286.92,-106.73 1276.4,-108.05 1285.45,-113.57 1286.92,-106.73"/>
</a>
</g>
</g>
<!-- 11 -->
<g id="node8" class="node">
<title>11</title>
<g id="a_node8"><a xlink:title="ipc::FaceVertexTangentialCollision">
<polygon fill="#ffffff" stroke="black" points="2146.5,-252 1883.5,-252 1883.5,-216 2146.5,-216 2146.5,-252"/>
<text text-anchor="middle" x="2015" y="-230.3" font-family="Times,serif" font-size="14.00">ipc::FaceVertexTangentialCollision</text>
</a>
</g>
</g>
<!-- 11&#45;&gt;9 -->
<g id="edge9" class="edge">
<title>11&#45;&gt;9</title>
<g id="a_edge9"><a xlink:title="public&#45;inheritance">
<path fill="none" stroke="#ce93d8" d="M1883.49,-216.86C1880.63,-216.57 1877.8,-216.28 1875,-216 1673.36,-195.91 1619.3,-203.63 1413.96,-180.06"/>
<polygon fill="#ce93d8" stroke="#ce93d8" points="1414.09,-176.55 1403.75,-178.87 1413.28,-183.5 1414.09,-176.55"/>
</a>
</g>
</g>
<!-- 17 -->
<g id="node16" class="node">
<title>17</title>
<g id="a_node16"><a xlink:title="ipc::TangentialCollision">
<polygon fill="#ffffff" stroke="black" points="1828.5,-180 1645.5,-180 1645.5,-144 1828.5,-144 1828.5,-180"/>
<text text-anchor="middle" x="1737" y="-158.3" font-family="Times,serif" font-size="14.00">ipc::TangentialCollision</text>
</a>
</g>
</g>
<!-- 11&#45;&gt;17 -->
<g id="edge10" class="edge">
<title>11&#45;&gt;17</title>
<g id="a_edge10"><a xlink:title="public&#45;inheritance">
<path fill="none" stroke="#ce93d8" d="M1947.35,-215.97C1907.32,-205.89 1856.47,-193.08 1814.79,-182.59"/>
<polygon fill="#ce93d8" stroke="#ce93d8" points="1815.51,-179.16 1804.95,-180.11 1813.8,-185.95 1815.51,-179.16"/>
</a>
</g>
</g>
<!-- 4 -->
<g id="node9" class="node">
<title>4</title>
<g id="a_node9"><a xlink:title="ipc::EdgeEdgeNormalCollision">
<polygon fill="#ffffff" stroke="black" points="773.5,-252 538.5,-252 538.5,-216 773.5,-216 773.5,-252"/>
<text text-anchor="middle" x="656" y="-230.3" font-family="Times,serif" font-size="14.00">ipc::EdgeEdgeNormalCollision</text>
</a>
</g>
</g>
<!-- 4&#45;&gt;15 -->
<g id="edge12" class="edge">
<title>4&#45;&gt;15</title>
<g id="a_edge12"><a xlink:title="public&#45;inheritance">
<path fill="none" stroke="#ce93d8" d="M656.74,-215.7C657.07,-207.98 657.47,-198.71 657.84,-190.11"/>
<polygon fill="#ce93d8" stroke="#ce93d8" points="661.34,-190.25 658.27,-180.1 654.34,-189.95 661.34,-190.25"/>
</a>
</g>
</g>
<!-- 3 -->
<g id="node12" class="node">
<title>3</title>
<g id="a_node12"><a xlink:title="ipc::EdgeEdgeCandidate">
<polygon fill="#ffffff" stroke="black" points="1186.5,-180 993.5,-180 993.5,-144 1186.5,-144 1186.5,-180"/>
<text text-anchor="middle" x="1090" y="-158.3" font-family="Times,serif" font-size="14.00">ipc::EdgeEdgeCandidate</text>
</a>
</g>
</g>
<!-- 4&#45;&gt;3 -->
<g id="edge11" class="edge">
<title>4&#45;&gt;3</title>
<g id="a_edge11"><a xlink:title="public&#45;inheritance">
<path fill="none" stroke="#ce93d8" d="M761.61,-215.97C828.8,-205.13 915.52,-191.14 982.97,-180.26"/>
<polygon fill="#ce93d8" stroke="#ce93d8" points="983.89,-183.66 993.2,-178.61 982.77,-176.75 983.89,-183.66"/>
</a>
</g>
</g>
<!-- 12&#45;&gt;2 -->
<g id="edge13" class="edge">
<title>12&#45;&gt;2</title>
<g id="a_edge13"><a xlink:title="public&#45;inheritance">
<path fill="none" stroke="#ce93d8" d="M948.82,-143.97C996.63,-133.76 1057.54,-120.76 1107.05,-110.2"/>
<polygon fill="#ce93d8" stroke="#ce93d8" points="1108.06,-113.56 1117.11,-108.05 1106.6,-106.71 1108.06,-113.56"/>
</a>
</g>
</g>
<!-- 7 -->
<g id="node11" class="node">
<title>7</title>
<g id="a_node11"><a xlink:title="ipc::EdgeVertexNormalCollision">
<polygon fill="#ffffff" stroke="black" points="1295.5,-252 1050.5,-252 1050.5,-216 1295.5,-216 1295.5,-252"/>
<text text-anchor="middle" x="1173" y="-230.3" font-family="Times,serif" font-size="14.00">ipc::EdgeVertexNormalCollision</text>
</a>
</g>
</g>
<!-- 7&#45;&gt;15 -->
<g id="edge15" class="edge">
<title>7&#45;&gt;15</title>
<g id="a_edge15"><a xlink:title="public&#45;inheritance">
<path fill="none" stroke="#ce93d8" d="M1050.28,-217.06C1047.49,-216.7 1044.73,-216.35 1042,-216 914.04,-199.7 881.53,-199.37 754,-180 752.52,-179.78 751.04,-179.55 749.54,-179.31"/>
<polygon fill="#ce93d8" stroke="#ce93d8" points="749.97,-175.84 739.54,-177.72 748.87,-182.75 749.97,-175.84"/>
</a>
</g>
</g>
<!-- 7&#45;&gt;6 -->
<g id="edge14" class="edge">
<title>7&#45;&gt;6</title>
<g id="a_edge14"><a xlink:title="public&#45;inheritance">
<path fill="none" stroke="#ce93d8" d="M1258.17,-215.97C1309.4,-205.72 1374.72,-192.66 1427.67,-182.07"/>
<polygon fill="#ce93d8" stroke="#ce93d8" points="1428.63,-185.44 1437.75,-180.05 1427.26,-178.58 1428.63,-185.44"/>
</a>
</g>
</g>
<!-- 3&#45;&gt;2 -->
<g id="edge16" class="edge">
<title>3&#45;&gt;2</title>
<g id="a_edge16"><a xlink:title="public&#45;inheritance">
<path fill="none" stroke="#ce93d8" d="M1116.18,-143.88C1130.04,-134.81 1147.24,-123.55 1162.21,-113.76"/>
<polygon fill="#ce93d8" stroke="#ce93d8" points="1164.27,-116.59 1170.72,-108.19 1160.44,-110.74 1164.27,-116.59"/>
</a>
</g>
</g>
<!-- 16 -->
<g id="node13" class="node">
<title>16</title>
<g id="a_node13"><a xlink:title="ipc::PlaneVertexNormalCollision">
<polygon fill="#ffffff" stroke="black" points="248,-252 0,-252 0,-216 248,-216 248,-252"/>
<text text-anchor="middle" x="124" y="-230.3" font-family="Times,serif" font-size="14.00">ipc::PlaneVertexNormalCollision</text>
</a>
</g>
</g>
<!-- 16&#45;&gt;15 -->
<g id="edge17" class="edge">
<title>16&#45;&gt;15</title>
<g id="a_edge17"><a xlink:title="public&#45;inheritance">
<path fill="none" stroke="#ce93d8" d="M248.08,-216.76C346.02,-203.95 480.37,-186.37 568.4,-174.85"/>
<polygon fill="#ce93d8" stroke="#ce93d8" points="568.9,-178.32 578.36,-173.55 567.99,-171.38 568.9,-178.32"/>
</a>
</g>
</g>
<!-- 8 -->
<g id="node14" class="node">
<title>8</title>
<g id="a_node14"><a xlink:title="ipc::EdgeVertexTangentialCollision">
<polygon fill="#ffffff" stroke="black" points="2431,-252 2165,-252 2165,-216 2431,-216 2431,-252"/>
<text text-anchor="middle" x="2298" y="-230.3" font-family="Times,serif" font-size="14.00">ipc::EdgeVertexTangentialCollision</text>
</a>
</g>
</g>
<!-- 8&#45;&gt;6 -->
<g id="edge18" class="edge">
<title>8&#45;&gt;6</title>
<g id="a_edge18"><a xlink:title="public&#45;inheritance">
<path fill="none" stroke="#ce93d8" d="M2164.99,-216.87C2161.97,-216.57 2158.97,-216.28 2156,-216 1925.8,-194.25 1866.86,-205.07 1637,-180 1636.24,-179.92 1635.47,-179.83 1634.7,-179.75"/>
<polygon fill="#ce93d8" stroke="#ce93d8" points="1634.91,-176.25 1624.57,-178.56 1634.1,-183.2 1634.91,-176.25"/>
</a>
</g>
</g>
<!-- 8&#45;&gt;17 -->
<g id="edge19" class="edge">
<title>8&#45;&gt;17</title>
<g id="a_edge19"><a xlink:title="public&#45;inheritance">
<path fill="none" stroke="#ce93d8" d="M2164.7,-216.37C2064.75,-203.9 1930.01,-187.08 1838.66,-175.69"/>
<polygon fill="#ce93d8" stroke="#ce93d8" points="1838.94,-172.19 1828.58,-174.43 1838.07,-179.14 1838.94,-172.19"/>
</a>
</g>
</g>
<!-- 5 -->
<g id="node15" class="node">
<title>5</title>
<g id="a_node15"><a xlink:title="ipc::EdgeEdgeTangentialCollision">
<polygon fill="#ffffff" stroke="black" points="1865.5,-252 1608.5,-252 1608.5,-216 1865.5,-216 1865.5,-252"/>
<text text-anchor="middle" x="1737" y="-230.3" font-family="Times,serif" font-size="14.00">ipc::EdgeEdgeTangentialCollision</text>
</a>
</g>
</g>
<!-- 5&#45;&gt;3 -->
<g id="edge20" class="edge">
<title>5&#45;&gt;3</title>
<g id="a_edge20"><a xlink:title="public&#45;inheritance">
<path fill="none" stroke="#ce93d8" d="M1608.47,-217.02C1605.28,-216.67 1602.12,-216.33 1599,-216 1423.41,-197.35 1376.14,-202.07 1196.76,-180.04"/>
<polygon fill="#ce93d8" stroke="#ce93d8" points="1197.08,-176.55 1186.72,-178.8 1196.22,-183.5 1197.08,-176.55"/>
</a>
</g>
</g>
<!-- 5&#45;&gt;17 -->
<g id="edge21" class="edge">
<title>5&#45;&gt;17</title>
<g id="a_edge21"><a xlink:title="public&#45;inheritance">
<path fill="none" stroke="#ce93d8" d="M1737,-215.7C1737,-207.98 1737,-198.71 1737,-190.11"/>
<polygon fill="#ce93d8" stroke="#ce93d8" points="1740.5,-190.1 1737,-180.1 1733.5,-190.1 1740.5,-190.1"/>
</a>
</g>
</g>
<!-- 17&#45;&gt;1 -->
<g id="edge22" class="edge">
<title>17&#45;&gt;1</title>
<g id="a_edge22"><a xlink:title="public&#45;inheritance">
<path fill="none" stroke="#ce93d8" d="M1672.13,-143.94C1571.45,-117.47 1378.11,-66.62 1271.72,-38.65"/>
<polygon fill="#ce93d8" stroke="#ce93d8" points="1272.58,-35.26 1262.02,-36.1 1270.8,-42.03 1272.58,-35.26"/>
</a>
</g>
</g>
<!-- 14 -->
<g id="node17" class="node">
<title>14</title>
<g id="a_node17"><a xlink:title="ipc::VertexVertexTangentialCollision">
<polygon fill="#ffffff" stroke="black" points="1590,-252 1314,-252 1314,-216 1590,-216 1590,-252"/>
<text text-anchor="middle" x="1452" y="-230.3" font-family="Times,serif" font-size="14.00">ipc::VertexVertexTangentialCollision</text>
</a>
</g>
</g>
<!-- 14&#45;&gt;12 -->
<g id="edge23" class="edge">
<title>14&#45;&gt;12</title>
<g id="a_edge23"><a xlink:title="public&#45;inheritance">
<path fill="none" stroke="#ce93d8" d="M1313.9,-217.02C1310.9,-216.67 1307.94,-216.33 1305,-216 1166,-200.14 1128.6,-198.45 985.23,-180"/>
<polygon fill="#ce93d8" stroke="#ce93d8" points="985.55,-176.52 975.18,-178.71 984.65,-183.46 985.55,-176.52"/>
</a>
</g>
</g>
<!-- 14&#45;&gt;17 -->
<g id="edge24" class="edge">
<title>14&#45;&gt;17</title>
<g id="a_edge24"><a xlink:title="public&#45;inheritance">
<path fill="none" stroke="#ce93d8" d="M1521.35,-215.97C1562.47,-205.87 1614.74,-193.03 1657.52,-182.52"/>
<polygon fill="#ce93d8" stroke="#ce93d8" points="1658.46,-185.9 1667.33,-180.11 1656.79,-179.1 1658.46,-185.9"/>
</a>
</g>
</g>
</g>
</svg>
