<?xml version="1.0" encoding="UTF-8" standalone="no"?>
<!DOCTYPE svg PUBLIC "-//W3C//DTD SVG 1.1//EN"
 "http://www.w3.org/Graphics/SVG/1.1/DTD/svg11.dtd">
<!-- Generated by graphviz version 2.43.0 (0)
 -->
<!-- Title: %3 Pages: 1 -->
<svg width="378pt" height="188pt"
 viewBox="0.00 0.00 377.50 188.00" xmlns="http://www.w3.org/2000/svg" xmlns:xlink="http://www.w3.org/1999/xlink">
<g id="graph0" class="graph" transform="scale(1 1) rotate(0) translate(4 184)">
<title>%3</title>
<!-- 3 -->
<g id="node1" class="node">
<title>3</title>
<g id="a_node1"><a xlink:title="ipc::CollisionStencil">
<polygon fill="#ffffff" stroke="black" points="248.5,-36 98.5,-36 98.5,0 248.5,0 248.5,-36"/>
<text text-anchor="middle" x="173.5" y="-14.3" font-family="Menlo" font-size="14.00">ipc::CollisionStencil</text>
</a>
</g>
</g>
<!-- 4 -->
<g id="node2" class="node">
<title>4</title>
<g id="a_node2"><a xlink:title="ipc::NormalCollision">
<polygon fill="#ffffff" stroke="black" points="153,-108 0,-108 0,-72 153,-72 153,-108"/>
<text text-anchor="middle" x="76.5" y="-86.3" font-family="Menlo" font-size="14.00">ipc::NormalCollision</text>
</a>
</g>
</g>
<!-- 4&#45;&gt;3 -->
<g id="edge1" class="edge">
<title>4&#45;&gt;3</title>
<g id="a_edge1"><a xlink:title="public&#45;inheritance">
<path fill="none" stroke="#ce93d8" d="M100.48,-71.7C112.81,-62.8 128.02,-51.82 141.35,-42.2"/>
<polygon fill="#ce93d8" stroke="#ce93d8" points="143.74,-44.79 149.8,-36.1 139.64,-39.12 143.74,-44.79"/>
</a>
</g>
</g>
<!-- 2 -->
<g id="node3" class="node">
<title>2</title>
<g id="a_node3"><a xlink:title="ipc::PlaneVertexCandidate">
<polygon fill="#ffffff" stroke="black" points="369.5,-108 171.5,-108 171.5,-72 369.5,-72 369.5,-108"/>
<text text-anchor="middle" x="270.5" y="-86.3" font-family="Menlo" font-size="14.00">ipc::PlaneVertexCandidate</text>
</a>
</g>
</g>
<!-- 2&#45;&gt;3 -->
<g id="edge2" class="edge">
<title>2&#45;&gt;3</title>
<g id="a_edge2"><a xlink:title="public&#45;inheritance">
<path fill="none" stroke="#ce93d8" d="M246.52,-71.7C234.19,-62.8 218.98,-51.82 205.65,-42.2"/>
<polygon fill="#ce93d8" stroke="#ce93d8" points="207.36,-39.12 197.2,-36.1 203.26,-44.79 207.36,-39.12"/>
</a>
</g>
</g>
<!-- 1 -->
<g id="node4" class="node">
<title>1</title>
<g id="a_node4"><a xlink:title="ipc::PlaneVertexNormalCollision">
<polygon fill="#bfbfbf" stroke="black" points="291,-180 56,-180 56,-144 291,-144 291,-180"/>
<text text-anchor="middle" x="173.5" y="-158.3" font-family="Menlo" font-size="14.00">ipc::PlaneVertexNormalCollision</text>
</a>
</g>
</g>
<!-- 1&#45;&gt;4 -->
<g id="edge4" class="edge">
<title>1&#45;&gt;4</title>
<g id="a_edge4"><a xlink:title="public&#45;inheritance">
<path fill="none" stroke="#ce93d8" d="M149.52,-143.7C137.19,-134.8 121.98,-123.82 108.65,-114.2"/>
<polygon fill="#ce93d8" stroke="#ce93d8" points="110.36,-111.12 100.2,-108.1 106.26,-116.79 110.36,-111.12"/>
</a>
</g>
</g>
<!-- 1&#45;&gt;2 -->
<g id="edge3" class="edge">
<title>1&#45;&gt;2</title>
<g id="a_edge3"><a xlink:title="public&#45;inheritance">
<path fill="none" stroke="#ce93d8" d="M197.48,-143.7C209.81,-134.8 225.02,-123.82 238.35,-114.2"/>
<polygon fill="#ce93d8" stroke="#ce93d8" points="240.74,-116.79 246.8,-108.1 236.64,-111.12 240.74,-116.79"/>
</a>
</g>
</g>
</g>
</svg>
