<?xml version="1.0" encoding="UTF-8" standalone="no"?>
<!DOCTYPE svg PUBLIC "-//W3C//DTD SVG 1.1//EN"
 "http://www.w3.org/Graphics/SVG/1.1/DTD/svg11.dtd">
<!-- Generated by graphviz version 2.43.0 (0)
 -->
<!-- Title: %3 Pages: 1 -->
<svg width="553pt" height="116pt"
 viewBox="0.00 0.00 552.50 116.00" xmlns="http://www.w3.org/2000/svg" xmlns:xlink="http://www.w3.org/1999/xlink">
<g id="graph0" class="graph" transform="scale(1 1) rotate(0) translate(4 112)">
<title>%3</title>
<!-- 1 -->
<g id="node1" class="node">
<title>1</title>
<g id="a_node1"><a xlink:title="ipc::Barrier">
<polygon fill="#bfbfbf" stroke="black" points="342,-36 249,-36 249,0 342,0 342,-36"/>
<text text-anchor="middle" x="295.5" y="-14.3" font-family="Menlo" font-size="14.00">ipc::Barrier</text>
</a>
</g>
</g>
<!-- 2 -->
<g id="node2" class="node">
<title>2</title>
<g id="a_node2"><a xlink:title="ipc::ClampedLogBarrier">
<polygon fill="#ffffff" stroke="black" points="179,-108 0,-108 0,-72 179,-72 179,-108"/>
<text text-anchor="middle" x="89.5" y="-86.3" font-family="Menlo" font-size="14.00">ipc::ClampedLogBarrier</text>
</a>
</g>
</g>
<!-- 2&#45;&gt;1 -->
<g id="edge1" class="edge">
<title>2&#45;&gt;1</title>
<g id="a_edge1"><a xlink:title="public&#45;inheritance">
<path fill="none" stroke="#ce93d8" d="M139.63,-71.97C169.61,-61.78 207.8,-48.8 238.87,-38.24"/>
<polygon fill="#ce93d8" stroke="#ce93d8" points="240.34,-41.44 248.68,-34.91 238.09,-34.81 240.34,-41.44"/>
</a>
</g>
</g>
<!-- 3 -->
<g id="node3" class="node">
<title>3</title>
<g id="a_node3"><a xlink:title="ipc::ClampedLogSqBarrier">
<polygon fill="#ffffff" stroke="black" points="394,-108 197,-108 197,-72 394,-72 394,-108"/>
<text text-anchor="middle" x="295.5" y="-86.3" font-family="Menlo" font-size="14.00">ipc::ClampedLogSqBarrier</text>
</a>
</g>
</g>
<!-- 3&#45;&gt;1 -->
<g id="edge2" class="edge">
<title>3&#45;&gt;1</title>
<g id="a_edge2"><a xlink:title="public&#45;inheritance">
<path fill="none" stroke="#ce93d8" d="M295.5,-71.7C295.5,-63.98 295.5,-54.71 295.5,-46.11"/>
<polygon fill="#ce93d8" stroke="#ce93d8" points="299,-46.1 295.5,-36.1 292,-46.1 299,-46.1"/>
</a>
</g>
</g>
<!-- 4 -->
<g id="node4" class="node">
<title>4</title>
<g id="a_node4"><a xlink:title="ipc::CubicBarrier">
<polygon fill="#ffffff" stroke="black" points="544.5,-108 412.5,-108 412.5,-72 544.5,-72 544.5,-108"/>
<text text-anchor="middle" x="478.5" y="-86.3" font-family="Menlo" font-size="14.00">ipc::CubicBarrier</text>
</a>
</g>
</g>
<!-- 4&#45;&gt;1 -->
<g id="edge3" class="edge">
<title>4&#45;&gt;1</title>
<g id="a_edge3"><a xlink:title="public&#45;inheritance">
<path fill="none" stroke="#ce93d8" d="M433.73,-71.88C408.38,-62.18 376.49,-49.98 349.73,-39.74"/>
<polygon fill="#ce93d8" stroke="#ce93d8" points="350.71,-36.37 340.12,-36.07 348.21,-42.91 350.71,-36.37"/>
</a>
</g>
</g>
</g>
</svg>
