<?xml version="1.0" encoding="UTF-8" standalone="no"?>
<!DOCTYPE svg PUBLIC "-//W3C//DTD SVG 1.1//EN"
 "http://www.w3.org/Graphics/SVG/1.1/DTD/svg11.dtd">
<!-- Generated by graphviz version 2.43.0 (0)
 -->
<!-- Title: %3 Pages: 1 -->
<svg width="532pt" height="188pt"
 viewBox="0.00 0.00 531.50 188.00" xmlns="http://www.w3.org/2000/svg" xmlns:xlink="http://www.w3.org/1999/xlink">
<g id="graph0" class="graph" transform="scale(1 1) rotate(0) translate(4 184)">
<title>%3</title>
<!-- 2 -->
<g id="node1" class="node">
<title>2</title>
<g id="a_node1"><a xlink:title="ipc::CollisionStencil">
<polygon fill="#ffffff" stroke="black" points="331,-36 181,-36 181,0 331,0 331,-36"/>
<text text-anchor="middle" x="256" y="-14.3" font-family="Menlo" font-size="14.00">ipc::CollisionStencil</text>
</a>
</g>
</g>
<!-- 1 -->
<g id="node2" class="node">
<title>1</title>
<g id="a_node2"><a xlink:title="ipc::VertexVertexCandidate">
<polygon fill="#bfbfbf" stroke="black" points="358.5,-108 153.5,-108 153.5,-72 358.5,-72 358.5,-108"/>
<text text-anchor="middle" x="256" y="-86.3" font-family="Menlo" font-size="14.00">ipc::VertexVertexCandidate</text>
</a>
</g>
</g>
<!-- 1&#45;&gt;2 -->
<g id="edge1" class="edge">
<title>1&#45;&gt;2</title>
<g id="a_edge1"><a xlink:title="public&#45;inheritance">
<path fill="none" stroke="#ce93d8" d="M256,-71.7C256,-63.98 256,-54.71 256,-46.11"/>
<polygon fill="#ce93d8" stroke="#ce93d8" points="259.5,-46.1 256,-36.1 252.5,-46.1 259.5,-46.1"/>
</a>
</g>
</g>
<!-- 3 -->
<g id="node3" class="node">
<title>3</title>
<g id="a_node3"><a xlink:title="ipc::VertexVertexNormalCollision">
<polygon fill="#ffffff" stroke="black" points="242,-180 0,-180 0,-144 242,-144 242,-180"/>
<text text-anchor="middle" x="121" y="-158.3" font-family="Menlo" font-size="14.00">ipc::VertexVertexNormalCollision</text>
</a>
</g>
</g>
<!-- 3&#45;&gt;1 -->
<g id="edge2" class="edge">
<title>3&#45;&gt;1</title>
<g id="a_edge2"><a xlink:title="public&#45;inheritance">
<path fill="none" stroke="#ce93d8" d="M154.02,-143.88C172.08,-134.51 194.65,-122.81 213.95,-112.8"/>
<polygon fill="#ce93d8" stroke="#ce93d8" points="215.58,-115.9 222.85,-108.19 212.36,-109.69 215.58,-115.9"/>
</a>
</g>
</g>
<!-- 4 -->
<g id="node4" class="node">
<title>4</title>
<g id="a_node4"><a xlink:title="ipc::VertexVertexTangentialCollision">
<polygon fill="#ffffff" stroke="black" points="523.5,-180 260.5,-180 260.5,-144 523.5,-144 523.5,-180"/>
<text text-anchor="middle" x="392" y="-158.3" font-family="Menlo" font-size="14.00">ipc::VertexVertexTangentialCollision</text>
</a>
</g>
</g>
<!-- 4&#45;&gt;1 -->
<g id="edge3" class="edge">
<title>4&#45;&gt;1</title>
<g id="a_edge3"><a xlink:title="public&#45;inheritance">
<path fill="none" stroke="#ce93d8" d="M358.73,-143.88C340.54,-134.51 317.81,-122.81 298.36,-112.8"/>
<polygon fill="#ce93d8" stroke="#ce93d8" points="299.89,-109.65 289.4,-108.19 296.69,-115.88 299.89,-109.65"/>
</a>
</g>
</g>
</g>
</svg>
