<?xml version="1.0" encoding="UTF-8" standalone="no"?>
<!DOCTYPE svg PUBLIC "-//W3C//DTD SVG 1.1//EN"
 "http://www.w3.org/Graphics/SVG/1.1/DTD/svg11.dtd">
<!-- Generated by graphviz version 2.43.0 (0)
 -->
<!-- Title: %3 Pages: 1 -->
<svg width="496pt" height="188pt"
 viewBox="0.00 0.00 495.50 188.00" xmlns="http://www.w3.org/2000/svg" xmlns:xlink="http://www.w3.org/1999/xlink">
<g id="graph0" class="graph" transform="scale(1 1) rotate(0) translate(4 184)">
<title>%3</title>
<!-- 2 -->
<g id="node1" class="node">
<title>2</title>
<g id="a_node1"><a xlink:title="ipc::CollisionStencil">
<polygon fill="#ffffff" stroke="black" points="313,-36 163,-36 163,0 313,0 313,-36"/>
<text text-anchor="middle" x="238" y="-14.3" font-family="Menlo" font-size="14.00">ipc::CollisionStencil</text>
</a>
</g>
</g>
<!-- 1 -->
<g id="node2" class="node">
<title>1</title>
<g id="a_node2"><a xlink:title="ipc::EdgeEdgeCandidate">
<polygon fill="#bfbfbf" stroke="black" points="331.5,-108 144.5,-108 144.5,-72 331.5,-72 331.5,-108"/>
<text text-anchor="middle" x="238" y="-86.3" font-family="Menlo" font-size="14.00">ipc::EdgeEdgeCandidate</text>
</a>
</g>
</g>
<!-- 1&#45;&gt;2 -->
<g id="edge1" class="edge">
<title>1&#45;&gt;2</title>
<g id="a_edge1"><a xlink:title="public&#45;inheritance">
<path fill="none" stroke="#ce93d8" d="M238,-71.7C238,-63.98 238,-54.71 238,-46.11"/>
<polygon fill="#ce93d8" stroke="#ce93d8" points="241.5,-46.1 238,-36.1 234.5,-46.1 241.5,-46.1"/>
</a>
</g>
</g>
<!-- 3 -->
<g id="node3" class="node">
<title>3</title>
<g id="a_node3"><a xlink:title="ipc::EdgeEdgeNormalCollision">
<polygon fill="#ffffff" stroke="black" points="224,-180 0,-180 0,-144 224,-144 224,-180"/>
<text text-anchor="middle" x="112" y="-158.3" font-family="Menlo" font-size="14.00">ipc::EdgeEdgeNormalCollision</text>
</a>
</g>
</g>
<!-- 3&#45;&gt;1 -->
<g id="edge2" class="edge">
<title>3&#45;&gt;1</title>
<g id="a_edge2"><a xlink:title="public&#45;inheritance">
<path fill="none" stroke="#ce93d8" d="M142.82,-143.88C159.45,-134.64 180.16,-123.13 198.02,-113.21"/>
<polygon fill="#ce93d8" stroke="#ce93d8" points="200.02,-116.11 207.06,-108.19 196.62,-109.99 200.02,-116.11"/>
</a>
</g>
</g>
<!-- 4 -->
<g id="node4" class="node">
<title>4</title>
<g id="a_node4"><a xlink:title="ipc::EdgeEdgeTangentialCollision">
<polygon fill="#ffffff" stroke="black" points="487.5,-180 242.5,-180 242.5,-144 487.5,-144 487.5,-180"/>
<text text-anchor="middle" x="365" y="-158.3" font-family="Menlo" font-size="14.00">ipc::EdgeEdgeTangentialCollision</text>
</a>
</g>
</g>
<!-- 4&#45;&gt;1 -->
<g id="edge3" class="edge">
<title>4&#45;&gt;1</title>
<g id="a_edge3"><a xlink:title="public&#45;inheritance">
<path fill="none" stroke="#ce93d8" d="M333.93,-143.88C317.17,-134.64 296.29,-123.13 278.3,-113.21"/>
<polygon fill="#ce93d8" stroke="#ce93d8" points="279.63,-109.95 269.19,-108.19 276.26,-116.08 279.63,-109.95"/>
</a>
</g>
</g>
</g>
</svg>
