<?xml version="1.0" encoding="UTF-8" standalone="no"?>
<!DOCTYPE svg PUBLIC "-//W3C//DTD SVG 1.1//EN"
 "http://www.w3.org/Graphics/SVG/1.1/DTD/svg11.dtd">
<!-- Generated by graphviz version 2.43.0 (0)
 -->
<!-- Title: %3 Pages: 1 -->
<svg width="412pt" height="188pt"
 viewBox="0.00 0.00 412.00 188.00" xmlns="http://www.w3.org/2000/svg" xmlns:xlink="http://www.w3.org/1999/xlink">
<g id="graph0" class="graph" transform="scale(1 1) rotate(0) translate(4 184)">
<title>%3</title>
<polygon fill="transparent" stroke="transparent" points="-4,4 -4,-184 408,-184 408,4 -4,4"/>
<!-- 3 -->
<g id="node1" class="node">
<title>3</title>
<g id="a_node1"><a xlink:title="ipc::CollisionStencil">
<polygon fill="#ffffff" stroke="black" points="285.5,-36 127.5,-36 127.5,0 285.5,0 285.5,-36"/>
<text text-anchor="middle" x="206.5" y="-14.3" font-family="Times,serif" font-size="14.00">ipc::CollisionStencil</text>
</a>
</g>
</g>
<!-- 2 -->
<g id="node2" class="node">
<title>2</title>
<g id="a_node2"><a xlink:title="ipc::EdgeVertexCandidate">
<polygon fill="#ffffff" stroke="black" points="203,-108 0,-108 0,-72 203,-72 203,-108"/>
<text text-anchor="middle" x="101.5" y="-86.3" font-family="Times,serif" font-size="14.00">ipc::EdgeVertexCandidate</text>
</a>
</g>
</g>
<!-- 2&#45;&gt;3 -->
<g id="edge1" class="edge">
<title>2&#45;&gt;3</title>
<g id="a_edge1"><a xlink:title="public&#45;inheritance">
<path fill="none" stroke="#ce93d8" d="M127.19,-71.88C140.79,-62.81 157.67,-51.55 172.36,-41.76"/>
<polygon fill="#ce93d8" stroke="#ce93d8" points="174.34,-44.65 180.72,-36.19 170.45,-38.82 174.34,-44.65"/>
</a>
</g>
</g>
<!-- 1 -->
<g id="node3" class="node">
<title>1</title>
<g id="a_node3"><a xlink:title="ipc::EdgeVertexTangentialCollision">
<polygon fill="#bfbfbf" stroke="black" points="339.5,-180 73.5,-180 73.5,-144 339.5,-144 339.5,-180"/>
<text text-anchor="middle" x="206.5" y="-158.3" font-family="Times,serif" font-size="14.00">ipc::EdgeVertexTangentialCollision</text>
</a>
</g>
</g>
<!-- 1&#45;&gt;2 -->
<g id="edge2" class="edge">
<title>1&#45;&gt;2</title>
<g id="a_edge2"><a xlink:title="public&#45;inheritance">
<path fill="none" stroke="#ce93d8" d="M180.81,-143.88C167.21,-134.81 150.33,-123.55 135.64,-113.76"/>
<polygon fill="#ce93d8" stroke="#ce93d8" points="137.55,-110.82 127.28,-108.19 133.66,-116.65 137.55,-110.82"/>
</a>
</g>
</g>
<!-- 4 -->
<g id="node4" class="node">
<title>4</title>
<g id="a_node4"><a xlink:title="ipc::TangentialCollision">
<polygon fill="#ffffff" stroke="black" points="404,-108 221,-108 221,-72 404,-72 404,-108"/>
<text text-anchor="middle" x="312.5" y="-86.3" font-family="Times,serif" font-size="14.00">ipc::TangentialCollision</text>
</a>
</g>
</g>
<!-- 1&#45;&gt;4 -->
<g id="edge3" class="edge">
<title>1&#45;&gt;4</title>
<g id="a_edge3"><a xlink:title="public&#45;inheritance">
<path fill="none" stroke="#ce93d8" d="M232.43,-143.88C246.16,-134.81 263.21,-123.55 278.04,-113.76"/>
<polygon fill="#ce93d8" stroke="#ce93d8" points="280.05,-116.62 286.47,-108.19 276.2,-110.78 280.05,-116.62"/>
</a>
</g>
</g>
<!-- 4&#45;&gt;3 -->
<g id="edge4" class="edge">
<title>4&#45;&gt;3</title>
<g id="a_edge4"><a xlink:title="public&#45;inheritance">
<path fill="none" stroke="#ce93d8" d="M286.57,-71.88C272.84,-62.81 255.79,-51.55 240.96,-41.76"/>
<polygon fill="#ce93d8" stroke="#ce93d8" points="242.8,-38.78 232.53,-36.19 238.95,-44.62 242.8,-38.78"/>
</a>
</g>
</g>
</g>
</svg>
