<?xml version="1.0" encoding="UTF-8" standalone="no"?>
<!DOCTYPE svg PUBLIC "-//W3C//DTD SVG 1.1//EN"
 "http://www.w3.org/Graphics/SVG/1.1/DTD/svg11.dtd">
<!-- Generated by graphviz version 2.43.0 (0)
 -->
<!-- Title: %3 Pages: 1 -->
<svg width="777pt" height="116pt"
 viewBox="0.00 0.00 776.50 116.00" xmlns="http://www.w3.org/2000/svg" xmlns:xlink="http://www.w3.org/1999/xlink">
<g id="graph0" class="graph" transform="scale(1 1) rotate(0) translate(4 112)">
<title>%3</title>
<!-- 2 -->
<g id="node1" class="node">
<title>2</title>
<g id="a_node1"><a xlink:title="ipc::BVH">
<polygon fill="#ffffff" stroke="black" points="75,-108 0,-108 0,-72 75,-72 75,-108"/>
<text text-anchor="middle" x="37.5" y="-86.3" font-family="Menlo" font-size="14.00">ipc::BVH</text>
</a>
</g>
</g>
<!-- 1 -->
<g id="node2" class="node">
<title>1</title>
<g id="a_node2"><a xlink:title="ipc::BroadPhase">
<polygon fill="#bfbfbf" stroke="black" points="408.5,-36 280.5,-36 280.5,0 408.5,0 408.5,-36"/>
<text text-anchor="middle" x="344.5" y="-14.3" font-family="Menlo" font-size="14.00">ipc::BroadPhase</text>
</a>
</g>
</g>
<!-- 2&#45;&gt;1 -->
<g id="edge1" class="edge">
<title>2&#45;&gt;1</title>
<g id="a_edge1"><a xlink:title="public&#45;inheritance">
<path fill="none" stroke="#ce93d8" d="M75.25,-74.52C78.03,-73.62 80.8,-72.77 83.5,-72 145.65,-54.32 217.72,-40.15 270.36,-30.92"/>
<polygon fill="#ce93d8" stroke="#ce93d8" points="271.03,-34.36 280.29,-29.2 269.84,-27.46 271.03,-34.36"/>
</a>
</g>
</g>
<!-- 3 -->
<g id="node3" class="node">
<title>3</title>
<g id="a_node3"><a xlink:title="ipc::BruteForce">
<polygon fill="#ffffff" stroke="black" points="214,-108 93,-108 93,-72 214,-72 214,-108"/>
<text text-anchor="middle" x="153.5" y="-86.3" font-family="Menlo" font-size="14.00">ipc::BruteForce</text>
</a>
</g>
</g>
<!-- 3&#45;&gt;1 -->
<g id="edge2" class="edge">
<title>3&#45;&gt;1</title>
<g id="a_edge2"><a xlink:title="public&#45;inheritance">
<path fill="none" stroke="#ce93d8" d="M200.22,-71.88C226.8,-62.14 260.26,-49.87 288.27,-39.61"/>
<polygon fill="#ce93d8" stroke="#ce93d8" points="289.74,-42.8 297.93,-36.07 287.33,-36.22 289.74,-42.8"/>
</a>
</g>
</g>
<!-- 4 -->
<g id="node4" class="node">
<title>4</title>
<g id="a_node4"><a xlink:title="ipc::HashGrid">
<polygon fill="#ffffff" stroke="black" points="342.5,-108 232.5,-108 232.5,-72 342.5,-72 342.5,-108"/>
<text text-anchor="middle" x="287.5" y="-86.3" font-family="Menlo" font-size="14.00">ipc::HashGrid</text>
</a>
</g>
</g>
<!-- 4&#45;&gt;1 -->
<g id="edge3" class="edge">
<title>4&#45;&gt;1</title>
<g id="a_edge3"><a xlink:title="public&#45;inheritance">
<path fill="none" stroke="#ce93d8" d="M301.59,-71.7C308.42,-63.3 316.76,-53.07 324.26,-43.86"/>
<polygon fill="#ce93d8" stroke="#ce93d8" points="326.97,-46.07 330.57,-36.1 321.54,-41.65 326.97,-46.07"/>
</a>
</g>
</g>
<!-- 5 -->
<g id="node5" class="node">
<title>5</title>
<g id="a_node5"><a xlink:title="ipc::LBVH">
<polygon fill="#ffffff" stroke="black" points="444,-108 361,-108 361,-72 444,-72 444,-108"/>
<text text-anchor="middle" x="402.5" y="-86.3" font-family="Menlo" font-size="14.00">ipc::LBVH</text>
</a>
</g>
</g>
<!-- 5&#45;&gt;1 -->
<g id="edge4" class="edge">
<title>5&#45;&gt;1</title>
<g id="a_edge4"><a xlink:title="public&#45;inheritance">
<path fill="none" stroke="#ce93d8" d="M388.16,-71.7C381.21,-63.3 372.73,-53.07 365.1,-43.86"/>
<polygon fill="#ce93d8" stroke="#ce93d8" points="367.75,-41.57 358.67,-36.1 362.36,-46.04 367.75,-41.57"/>
</a>
</g>
</g>
<!-- 6 -->
<g id="node6" class="node">
<title>6</title>
<g id="a_node6"><a xlink:title="ipc::SpatialHash">
<polygon fill="#ffffff" stroke="black" points="590.5,-108 462.5,-108 462.5,-72 590.5,-72 590.5,-108"/>
<text text-anchor="middle" x="526.5" y="-86.3" font-family="Menlo" font-size="14.00">ipc::SpatialHash</text>
</a>
</g>
</g>
<!-- 6&#45;&gt;1 -->
<g id="edge5" class="edge">
<title>6&#45;&gt;1</title>
<g id="a_edge5"><a xlink:title="public&#45;inheritance">
<path fill="none" stroke="#ce93d8" d="M481.98,-71.88C456.77,-62.18 425.05,-49.98 398.43,-39.74"/>
<polygon fill="#ce93d8" stroke="#ce93d8" points="399.47,-36.39 388.88,-36.07 396.95,-42.92 399.47,-36.39"/>
</a>
</g>
</g>
<!-- 7 -->
<g id="node7" class="node">
<title>7</title>
<g id="a_node7"><a xlink:title="ipc::SweepAndPrune">
<polygon fill="#ffffff" stroke="black" points="768.5,-108 608.5,-108 608.5,-72 768.5,-72 768.5,-108"/>
<text text-anchor="middle" x="688.5" y="-86.3" font-family="Menlo" font-size="14.00">ipc::SweepAndPrune</text>
</a>
</g>
</g>
<!-- 7&#45;&gt;1 -->
<g id="edge6" class="edge">
<title>7&#45;&gt;1</title>
<g id="a_edge6"><a xlink:title="public&#45;inheritance">
<path fill="none" stroke="#ce93d8" d="M608.28,-72.68C550.97,-61.01 474.43,-45.44 418.57,-34.07"/>
<polygon fill="#ce93d8" stroke="#ce93d8" points="419.24,-30.64 408.74,-32.07 417.84,-37.5 419.24,-30.64"/>
</a>
</g>
</g>
</g>
</svg>
