<?xml version="1.0" encoding="UTF-8" standalone="no"?>
<!DOCTYPE svg PUBLIC "-//W3C//DTD SVG 1.1//EN"
 "http://www.w3.org/Graphics/SVG/1.1/DTD/svg11.dtd">
<!-- Generated by graphviz version 2.43.0 (0)
 -->
<!-- Title: %3 Pages: 1 -->
<svg width="684pt" height="116pt"
 viewBox="0.00 0.00 683.50 116.00" xmlns="http://www.w3.org/2000/svg" xmlns:xlink="http://www.w3.org/1999/xlink">
<g id="graph0" class="graph" transform="scale(1 1) rotate(0) translate(4 112)">
<title>%3</title>
<!-- 1 -->
<g id="node1" class="node">
<title>1</title>
<g id="a_node1"><a xlink:title="ipc::BroadPhase">
<polygon fill="#bfbfbf" stroke="black" points="373.5,-36 245.5,-36 245.5,0 373.5,0 373.5,-36"/>
<text text-anchor="middle" x="309.5" y="-14.3" font-family="Menlo" font-size="14.00">ipc::BroadPhase</text>
</a>
</g>
</g>
<!-- 2 -->
<g id="node2" class="node">
<title>2</title>
<g id="a_node2"><a xlink:title="ipc::BruteForce">
<polygon fill="#ffffff" stroke="black" points="121,-108 0,-108 0,-72 121,-72 121,-108"/>
<text text-anchor="middle" x="60.5" y="-86.3" font-family="Menlo" font-size="14.00">ipc::BruteForce</text>
</a>
</g>
</g>
<!-- 2&#45;&gt;1 -->
<g id="edge1" class="edge">
<title>2&#45;&gt;1</title>
<g id="a_edge1"><a xlink:title="public&#45;inheritance">
<path fill="none" stroke="#ce93d8" d="M121.09,-71.97C156.64,-61.97 201.72,-49.3 238.88,-38.85"/>
<polygon fill="#ce93d8" stroke="#ce93d8" points="239.95,-42.19 248.63,-36.11 238.06,-35.45 239.95,-42.19"/>
</a>
</g>
</g>
<!-- 3 -->
<g id="node3" class="node">
<title>3</title>
<g id="a_node3"><a xlink:title="ipc::HashGrid">
<polygon fill="#ffffff" stroke="black" points="249.5,-108 139.5,-108 139.5,-72 249.5,-72 249.5,-108"/>
<text text-anchor="middle" x="194.5" y="-86.3" font-family="Menlo" font-size="14.00">ipc::HashGrid</text>
</a>
</g>
</g>
<!-- 3&#45;&gt;1 -->
<g id="edge2" class="edge">
<title>3&#45;&gt;1</title>
<g id="a_edge2"><a xlink:title="public&#45;inheritance">
<path fill="none" stroke="#ce93d8" d="M222.63,-71.88C237.67,-62.72 256.37,-51.34 272.56,-41.48"/>
<polygon fill="#ce93d8" stroke="#ce93d8" points="274.54,-44.38 281.26,-36.19 270.9,-38.4 274.54,-44.38"/>
</a>
</g>
</g>
<!-- 4 -->
<g id="node4" class="node">
<title>4</title>
<g id="a_node4"><a xlink:title="ipc::LBVH">
<polygon fill="#ffffff" stroke="black" points="351,-108 268,-108 268,-72 351,-72 351,-108"/>
<text text-anchor="middle" x="309.5" y="-86.3" font-family="Menlo" font-size="14.00">ipc::LBVH</text>
</a>
</g>
</g>
<!-- 4&#45;&gt;1 -->
<g id="edge3" class="edge">
<title>4&#45;&gt;1</title>
<g id="a_edge3"><a xlink:title="public&#45;inheritance">
<path fill="none" stroke="#ce93d8" d="M309.5,-71.7C309.5,-63.98 309.5,-54.71 309.5,-46.11"/>
<polygon fill="#ce93d8" stroke="#ce93d8" points="313,-46.1 309.5,-36.1 306,-46.1 313,-46.1"/>
</a>
</g>
</g>
<!-- 5 -->
<g id="node5" class="node">
<title>5</title>
<g id="a_node5"><a xlink:title="ipc::SpatialHash">
<polygon fill="#ffffff" stroke="black" points="497.5,-108 369.5,-108 369.5,-72 497.5,-72 497.5,-108"/>
<text text-anchor="middle" x="433.5" y="-86.3" font-family="Menlo" font-size="14.00">ipc::SpatialHash</text>
</a>
</g>
</g>
<!-- 5&#45;&gt;1 -->
<g id="edge4" class="edge">
<title>5&#45;&gt;1</title>
<g id="a_edge4"><a xlink:title="public&#45;inheritance">
<path fill="none" stroke="#ce93d8" d="M403.17,-71.88C386.8,-62.64 366.42,-51.13 348.85,-41.21"/>
<polygon fill="#ce93d8" stroke="#ce93d8" points="350.38,-38.06 339.95,-36.19 346.94,-44.15 350.38,-38.06"/>
</a>
</g>
</g>
<!-- 6 -->
<g id="node6" class="node">
<title>6</title>
<g id="a_node6"><a xlink:title="ipc::SweepAndPrune">
<polygon fill="#ffffff" stroke="black" points="675.5,-108 515.5,-108 515.5,-72 675.5,-72 675.5,-108"/>
<text text-anchor="middle" x="595.5" y="-86.3" font-family="Menlo" font-size="14.00">ipc::SweepAndPrune</text>
</a>
</g>
</g>
<!-- 6&#45;&gt;1 -->
<g id="edge5" class="edge">
<title>6&#45;&gt;1</title>
<g id="a_edge5"><a xlink:title="public&#45;inheritance">
<path fill="none" stroke="#ce93d8" d="M525.9,-71.97C482.71,-61.39 427.25,-47.82 383.29,-37.06"/>
<polygon fill="#ce93d8" stroke="#ce93d8" points="384.07,-33.65 373.53,-34.67 382.41,-40.45 384.07,-33.65"/>
</a>
</g>
</g>
</g>
</svg>
