<?xml version="1.0" encoding="UTF-8" standalone="no"?>
<!DOCTYPE svg PUBLIC "-//W3C//DTD SVG 1.1//EN"
 "http://www.w3.org/Graphics/SVG/1.1/DTD/svg11.dtd">
<!-- Generated by graphviz version 2.43.0 (0)
 -->
<!-- Title: %3 Pages: 1 -->
<svg width="1074pt" height="188pt"
 viewBox="0.00 0.00 1074.00 188.00" xmlns="http://www.w3.org/2000/svg" xmlns:xlink="http://www.w3.org/1999/xlink">
<g id="graph0" class="graph" transform="scale(1 1) rotate(0) translate(4 184)">
<title>%3</title>
<!-- 2 -->
<g id="node1" class="node">
<title>2</title>
<g id="a_node1"><a xlink:title="ipc::CollisionStencil">
<polygon fill="#ffffff" stroke="black" points="600.5,-36 450.5,-36 450.5,0 600.5,0 600.5,-36"/>
<text text-anchor="middle" x="525.5" y="-14.3" font-family="Menlo" font-size="14.00">ipc::CollisionStencil</text>
</a>
</g>
</g>
<!-- 3 -->
<g id="node2" class="node">
<title>3</title>
<g id="a_node2"><a xlink:title="ipc::EdgeEdgeTangentialCollision">
<polygon fill="#ffffff" stroke="black" points="245,-180 0,-180 0,-144 245,-144 245,-180"/>
<text text-anchor="middle" x="122.5" y="-158.3" font-family="Menlo" font-size="14.00">ipc::EdgeEdgeTangentialCollision</text>
</a>
</g>
</g>
<!-- 1 -->
<g id="node5" class="node">
<title>1</title>
<g id="a_node5"><a xlink:title="ipc::TangentialCollision">
<polygon fill="#bfbfbf" stroke="black" points="612.5,-108 438.5,-108 438.5,-72 612.5,-72 612.5,-108"/>
<text text-anchor="middle" x="525.5" y="-86.3" font-family="Menlo" font-size="14.00">ipc::TangentialCollision</text>
</a>
</g>
</g>
<!-- 3&#45;&gt;1 -->
<g id="edge1" class="edge">
<title>3&#45;&gt;1</title>
<g id="a_edge1"><a xlink:title="public&#45;inheritance">
<path fill="none" stroke="#ce93d8" d="M220.57,-143.97C283.71,-133 365.44,-118.8 428.39,-107.87"/>
<polygon fill="#ce93d8" stroke="#ce93d8" points="429.07,-111.3 438.32,-106.14 427.87,-104.41 429.07,-111.3"/>
</a>
</g>
</g>
<!-- 4 -->
<g id="node3" class="node">
<title>4</title>
<g id="a_node3"><a xlink:title="ipc::EdgeVertexTangentialCollision">
<polygon fill="#ffffff" stroke="black" points="517.5,-180 263.5,-180 263.5,-144 517.5,-144 517.5,-180"/>
<text text-anchor="middle" x="390.5" y="-158.3" font-family="Menlo" font-size="14.00">ipc::EdgeVertexTangentialCollision</text>
</a>
</g>
</g>
<!-- 4&#45;&gt;1 -->
<g id="edge2" class="edge">
<title>4&#45;&gt;1</title>
<g id="a_edge2"><a xlink:title="public&#45;inheritance">
<path fill="none" stroke="#ce93d8" d="M423.52,-143.88C441.58,-134.51 464.15,-122.81 483.45,-112.8"/>
<polygon fill="#ce93d8" stroke="#ce93d8" points="485.08,-115.9 492.35,-108.19 481.86,-109.69 485.08,-115.9"/>
</a>
</g>
</g>
<!-- 5 -->
<g id="node4" class="node">
<title>5</title>
<g id="a_node4"><a xlink:title="ipc::FaceVertexTangentialCollision">
<polygon fill="#ffffff" stroke="black" points="785,-180 536,-180 536,-144 785,-144 785,-180"/>
<text text-anchor="middle" x="660.5" y="-158.3" font-family="Menlo" font-size="14.00">ipc::FaceVertexTangentialCollision</text>
</a>
</g>
</g>
<!-- 5&#45;&gt;1 -->
<g id="edge3" class="edge">
<title>5&#45;&gt;1</title>
<g id="a_edge3"><a xlink:title="public&#45;inheritance">
<path fill="none" stroke="#ce93d8" d="M627.48,-143.88C609.42,-134.51 586.85,-122.81 567.55,-112.8"/>
<polygon fill="#ce93d8" stroke="#ce93d8" points="569.14,-109.69 558.65,-108.19 565.92,-115.9 569.14,-109.69"/>
</a>
</g>
</g>
<!-- 1&#45;&gt;2 -->
<g id="edge4" class="edge">
<title>1&#45;&gt;2</title>
<g id="a_edge4"><a xlink:title="public&#45;inheritance">
<path fill="none" stroke="#ce93d8" d="M525.5,-71.7C525.5,-63.98 525.5,-54.71 525.5,-46.11"/>
<polygon fill="#ce93d8" stroke="#ce93d8" points="529,-46.1 525.5,-36.1 522,-46.1 529,-46.1"/>
</a>
</g>
</g>
<!-- 6 -->
<g id="node6" class="node">
<title>6</title>
<g id="a_node6"><a xlink:title="ipc::VertexVertexTangentialCollision">
<polygon fill="#ffffff" stroke="black" points="1066,-180 803,-180 803,-144 1066,-144 1066,-180"/>
<text text-anchor="middle" x="934.5" y="-158.3" font-family="Menlo" font-size="14.00">ipc::VertexVertexTangentialCollision</text>
</a>
</g>
</g>
<!-- 6&#45;&gt;1 -->
<g id="edge5" class="edge">
<title>6&#45;&gt;1</title>
<g id="a_edge5"><a xlink:title="public&#45;inheritance">
<path fill="none" stroke="#ce93d8" d="M834.97,-143.97C770.44,-132.92 686.78,-118.6 622.72,-107.64"/>
<polygon fill="#ce93d8" stroke="#ce93d8" points="623.06,-104.15 612.61,-105.91 621.88,-111.05 623.06,-104.15"/>
</a>
</g>
</g>
</g>
</svg>
