<?xml version="1.0" encoding="UTF-8" standalone="no"?>
<!DOCTYPE svg PUBLIC "-//W3C//DTD SVG 1.1//EN"
 "http://www.w3.org/Graphics/SVG/1.1/DTD/svg11.dtd">
<!-- Generated by graphviz version 2.43.0 (0)
 -->
<!-- Title: %3 Pages: 1 -->
<svg width="2328pt" height="188pt"
 viewBox="0.00 0.00 2327.50 188.00" xmlns="http://www.w3.org/2000/svg" xmlns:xlink="http://www.w3.org/1999/xlink">
<g id="graph0" class="graph" transform="scale(1 1) rotate(0) translate(4 184)">
<title>%3</title>
<!-- 1 -->
<g id="node1" class="node">
<title>1</title>
<g id="a_node1"><a xlink:title="ipc::CollisionStencil">
<polygon fill="#bfbfbf" stroke="black" points="1249,-36 1099,-36 1099,0 1249,0 1249,-36"/>
<text text-anchor="middle" x="1174" y="-14.3" font-family="Menlo" font-size="14.00">ipc::CollisionStencil</text>
</a>
</g>
</g>
<!-- 2 -->
<g id="node2" class="node">
<title>2</title>
<g id="a_node2"><a xlink:title="ipc::EdgeEdgeCandidate">
<polygon fill="#ffffff" stroke="black" points="711.5,-108 524.5,-108 524.5,-72 711.5,-72 711.5,-108"/>
<text text-anchor="middle" x="618" y="-86.3" font-family="Menlo" font-size="14.00">ipc::EdgeEdgeCandidate</text>
</a>
</g>
</g>
<!-- 2&#45;&gt;1 -->
<g id="edge1" class="edge">
<title>2&#45;&gt;1</title>
<g id="a_edge1"><a xlink:title="public&#45;inheritance">
<path fill="none" stroke="#ce93d8" d="M711.69,-77.2C817.12,-63.93 986.91,-42.55 1088.75,-29.73"/>
<polygon fill="#ce93d8" stroke="#ce93d8" points="1089.21,-33.2 1098.69,-28.48 1088.33,-26.26 1089.21,-33.2"/>
</a>
</g>
</g>
<!-- 3 -->
<g id="node3" class="node">
<title>3</title>
<g id="a_node3"><a xlink:title="ipc::EdgeEdgeNormalCollision">
<polygon fill="#ffffff" stroke="black" points="224,-180 0,-180 0,-144 224,-144 224,-180"/>
<text text-anchor="middle" x="112" y="-158.3" font-family="Menlo" font-size="14.00">ipc::EdgeEdgeNormalCollision</text>
</a>
</g>
</g>
<!-- 3&#45;&gt;2 -->
<g id="edge2" class="edge">
<title>3&#45;&gt;2</title>
<g id="a_edge2"><a xlink:title="public&#45;inheritance">
<path fill="none" stroke="#ce93d8" d="M224.07,-145.24C227.08,-144.82 230.06,-144.41 233,-144 328.13,-130.77 436.52,-115.86 514,-105.24"/>
<polygon fill="#ce93d8" stroke="#ce93d8" points="514.81,-108.66 524.24,-103.83 513.86,-101.72 514.81,-108.66"/>
</a>
</g>
</g>
<!-- 11 -->
<g id="node11" class="node">
<title>11</title>
<g id="a_node11"><a xlink:title="ipc::NormalCollision">
<polygon fill="#ffffff" stroke="black" points="951.5,-108 798.5,-108 798.5,-72 951.5,-72 951.5,-108"/>
<text text-anchor="middle" x="875" y="-86.3" font-family="Menlo" font-size="14.00">ipc::NormalCollision</text>
</a>
</g>
</g>
<!-- 3&#45;&gt;11 -->
<g id="edge3" class="edge">
<title>3&#45;&gt;11</title>
<g id="a_edge3"><a xlink:title="public&#45;inheritance">
<path fill="none" stroke="#ce93d8" d="M224.04,-144.99C227.06,-144.65 230.05,-144.32 233,-144 448.8,-120.89 503.87,-127.83 720,-108 742.09,-105.97 765.92,-103.5 788.12,-101.08"/>
<polygon fill="#ce93d8" stroke="#ce93d8" points="788.63,-104.54 798.19,-99.97 787.86,-97.58 788.63,-104.54"/>
</a>
</g>
</g>
<!-- 4 -->
<g id="node4" class="node">
<title>4</title>
<g id="a_node4"><a xlink:title="ipc::EdgeEdgeTangentialCollision">
<polygon fill="#ffffff" stroke="black" points="740.5,-180 495.5,-180 495.5,-144 740.5,-144 740.5,-180"/>
<text text-anchor="middle" x="618" y="-158.3" font-family="Menlo" font-size="14.00">ipc::EdgeEdgeTangentialCollision</text>
</a>
</g>
</g>
<!-- 4&#45;&gt;2 -->
<g id="edge4" class="edge">
<title>4&#45;&gt;2</title>
<g id="a_edge4"><a xlink:title="public&#45;inheritance">
<path fill="none" stroke="#ce93d8" d="M618,-143.7C618,-135.98 618,-126.71 618,-118.11"/>
<polygon fill="#ce93d8" stroke="#ce93d8" points="621.5,-118.1 618,-108.1 614.5,-118.1 621.5,-118.1"/>
</a>
</g>
</g>
<!-- 14 -->
<g id="node13" class="node">
<title>14</title>
<g id="a_node13"><a xlink:title="ipc::TangentialCollision">
<polygon fill="#ffffff" stroke="black" points="1568,-108 1394,-108 1394,-72 1568,-72 1568,-108"/>
<text text-anchor="middle" x="1481" y="-86.3" font-family="Menlo" font-size="14.00">ipc::TangentialCollision</text>
</a>
</g>
</g>
<!-- 4&#45;&gt;14 -->
<g id="edge5" class="edge">
<title>4&#45;&gt;14</title>
<g id="a_edge5"><a xlink:title="public&#45;inheritance">
<path fill="none" stroke="#ce93d8" d="M740.7,-144.8C743.49,-144.52 746.26,-144.26 749,-144 1027.6,-118.07 1102.04,-140.21 1383.83,-108.05"/>
<polygon fill="#ce93d8" stroke="#ce93d8" points="1384.41,-111.5 1393.95,-106.88 1383.61,-104.55 1384.41,-111.5"/>
</a>
</g>
</g>
<!-- 5 -->
<g id="node5" class="node">
<title>5</title>
<g id="a_node5"><a xlink:title="ipc::EdgeVertexCandidate">
<polygon fill="#ffffff" stroke="black" points="1166,-108 970,-108 970,-72 1166,-72 1166,-108"/>
<text text-anchor="middle" x="1068" y="-86.3" font-family="Menlo" font-size="14.00">ipc::EdgeVertexCandidate</text>
</a>
</g>
</g>
<!-- 5&#45;&gt;1 -->
<g id="edge6" class="edge">
<title>5&#45;&gt;1</title>
<g id="a_edge6"><a xlink:title="public&#45;inheritance">
<path fill="none" stroke="#ce93d8" d="M1093.93,-71.88C1107.66,-62.81 1124.71,-51.55 1139.54,-41.76"/>
<polygon fill="#ce93d8" stroke="#ce93d8" points="1141.55,-44.62 1147.97,-36.19 1137.7,-38.78 1141.55,-44.62"/>
</a>
</g>
</g>
<!-- 6 -->
<g id="node6" class="node">
<title>6</title>
<g id="a_node6"><a xlink:title="ipc::EdgeVertexNormalCollision">
<polygon fill="#ffffff" stroke="black" points="991.5,-180 758.5,-180 758.5,-144 991.5,-144 991.5,-180"/>
<text text-anchor="middle" x="875" y="-158.3" font-family="Menlo" font-size="14.00">ipc::EdgeVertexNormalCollision</text>
</a>
</g>
</g>
<!-- 6&#45;&gt;5 -->
<g id="edge7" class="edge">
<title>6&#45;&gt;5</title>
<g id="a_edge7"><a xlink:title="public&#45;inheritance">
<path fill="none" stroke="#ce93d8" d="M922.21,-143.88C949.07,-134.14 982.88,-121.87 1011.18,-111.61"/>
<polygon fill="#ce93d8" stroke="#ce93d8" points="1012.73,-114.77 1020.94,-108.07 1010.35,-108.19 1012.73,-114.77"/>
</a>
</g>
</g>
<!-- 6&#45;&gt;11 -->
<g id="edge8" class="edge">
<title>6&#45;&gt;11</title>
<g id="a_edge8"><a xlink:title="public&#45;inheritance">
<path fill="none" stroke="#ce93d8" d="M875,-143.7C875,-135.98 875,-126.71 875,-118.11"/>
<polygon fill="#ce93d8" stroke="#ce93d8" points="878.5,-118.1 875,-108.1 871.5,-118.1 878.5,-118.1"/>
</a>
</g>
</g>
<!-- 7 -->
<g id="node7" class="node">
<title>7</title>
<g id="a_node7"><a xlink:title="ipc::EdgeVertexTangentialCollision">
<polygon fill="#ffffff" stroke="black" points="1510,-180 1256,-180 1256,-144 1510,-144 1510,-180"/>
<text text-anchor="middle" x="1383" y="-158.3" font-family="Menlo" font-size="14.00">ipc::EdgeVertexTangentialCollision</text>
</a>
</g>
</g>
<!-- 7&#45;&gt;5 -->
<g id="edge9" class="edge">
<title>7&#45;&gt;5</title>
<g id="a_edge9"><a xlink:title="public&#45;inheritance">
<path fill="none" stroke="#ce93d8" d="M1306.35,-143.97C1260.53,-133.78 1202.18,-120.82 1154.69,-110.26"/>
<polygon fill="#ce93d8" stroke="#ce93d8" points="1155.25,-106.8 1144.73,-108.05 1153.73,-113.64 1155.25,-106.8"/>
</a>
</g>
</g>
<!-- 7&#45;&gt;14 -->
<g id="edge10" class="edge">
<title>7&#45;&gt;14</title>
<g id="a_edge10"><a xlink:title="public&#45;inheritance">
<path fill="none" stroke="#ce93d8" d="M1406.97,-143.88C1419.55,-134.89 1435.13,-123.76 1448.75,-114.03"/>
<polygon fill="#ce93d8" stroke="#ce93d8" points="1450.83,-116.85 1456.93,-108.19 1446.76,-111.15 1450.83,-116.85"/>
</a>
</g>
</g>
<!-- 8 -->
<g id="node8" class="node">
<title>8</title>
<g id="a_node8"><a xlink:title="ipc::FaceVertexCandidate">
<polygon fill="#ffffff" stroke="black" points="1375.5,-108 1184.5,-108 1184.5,-72 1375.5,-72 1375.5,-108"/>
<text text-anchor="middle" x="1280" y="-86.3" font-family="Menlo" font-size="14.00">ipc::FaceVertexCandidate</text>
</a>
</g>
</g>
<!-- 8&#45;&gt;1 -->
<g id="edge11" class="edge">
<title>8&#45;&gt;1</title>
<g id="a_edge11"><a xlink:title="public&#45;inheritance">
<path fill="none" stroke="#ce93d8" d="M1254.07,-71.88C1240.34,-62.81 1223.29,-51.55 1208.46,-41.76"/>
<polygon fill="#ce93d8" stroke="#ce93d8" points="1210.3,-38.78 1200.03,-36.19 1206.45,-44.62 1210.3,-38.78"/>
</a>
</g>
</g>
<!-- 9 -->
<g id="node9" class="node">
<title>9</title>
<g id="a_node9"><a xlink:title="ipc::FaceVertexNormalCollision">
<polygon fill="#ffffff" stroke="black" points="1238,-180 1010,-180 1010,-144 1238,-144 1238,-180"/>
<text text-anchor="middle" x="1124" y="-158.3" font-family="Menlo" font-size="14.00">ipc::FaceVertexNormalCollision</text>
</a>
</g>
</g>
<!-- 9&#45;&gt;8 -->
<g id="edge12" class="edge">
<title>9&#45;&gt;8</title>
<g id="a_edge12"><a xlink:title="public&#45;inheritance">
<path fill="none" stroke="#ce93d8" d="M1162.16,-143.88C1183.39,-134.35 1210.01,-122.41 1232.57,-112.28"/>
<polygon fill="#ce93d8" stroke="#ce93d8" points="1234.27,-115.36 1241.96,-108.07 1231.41,-108.97 1234.27,-115.36"/>
</a>
</g>
</g>
<!-- 9&#45;&gt;11 -->
<g id="edge13" class="edge">
<title>9&#45;&gt;11</title>
<g id="a_edge13"><a xlink:title="public&#45;inheritance">
<path fill="none" stroke="#ce93d8" d="M1063.41,-143.97C1027.86,-133.97 982.78,-121.3 945.62,-110.85"/>
<polygon fill="#ce93d8" stroke="#ce93d8" points="946.44,-107.45 935.87,-108.11 944.55,-114.19 946.44,-107.45"/>
</a>
</g>
</g>
<!-- 10 -->
<g id="node10" class="node">
<title>10</title>
<g id="a_node10"><a xlink:title="ipc::FaceVertexTangentialCollision">
<polygon fill="#ffffff" stroke="black" points="1777.5,-180 1528.5,-180 1528.5,-144 1777.5,-144 1777.5,-180"/>
<text text-anchor="middle" x="1653" y="-158.3" font-family="Menlo" font-size="14.00">ipc::FaceVertexTangentialCollision</text>
</a>
</g>
</g>
<!-- 10&#45;&gt;8 -->
<g id="edge14" class="edge">
<title>10&#45;&gt;8</title>
<g id="a_edge14"><a xlink:title="public&#45;inheritance">
<path fill="none" stroke="#ce93d8" d="M1562.23,-143.97C1507.41,-133.68 1437.44,-120.55 1380.89,-109.93"/>
<polygon fill="#ce93d8" stroke="#ce93d8" points="1381.33,-106.45 1370.85,-108.05 1380.04,-113.33 1381.33,-106.45"/>
</a>
</g>
</g>
<!-- 10&#45;&gt;14 -->
<g id="edge15" class="edge">
<title>10&#45;&gt;14</title>
<g id="a_edge15"><a xlink:title="public&#45;inheritance">
<path fill="none" stroke="#ce93d8" d="M1610.92,-143.88C1587.2,-134.22 1557.38,-122.09 1532.3,-111.88"/>
<polygon fill="#ce93d8" stroke="#ce93d8" points="1533.52,-108.6 1522.94,-108.07 1530.88,-115.08 1533.52,-108.6"/>
</a>
</g>
</g>
<!-- 11&#45;&gt;1 -->
<g id="edge16" class="edge">
<title>11&#45;&gt;1</title>
<g id="a_edge16"><a xlink:title="public&#45;inheritance">
<path fill="none" stroke="#ce93d8" d="M947.76,-71.97C991.16,-61.8 1046.4,-48.87 1091.43,-38.33"/>
<polygon fill="#ce93d8" stroke="#ce93d8" points="1092.23,-41.74 1101.17,-36.05 1090.64,-34.92 1092.23,-41.74"/>
</a>
</g>
</g>
<!-- 12 -->
<g id="node12" class="node">
<title>12</title>
<g id="a_node12"><a xlink:title="ipc::PlaneVertexNormalCollision">
<polygon fill="#ffffff" stroke="black" points="477.5,-180 242.5,-180 242.5,-144 477.5,-144 477.5,-180"/>
<text text-anchor="middle" x="360" y="-158.3" font-family="Menlo" font-size="14.00">ipc::PlaneVertexNormalCollision</text>
</a>
</g>
</g>
<!-- 12&#45;&gt;11 -->
<g id="edge17" class="edge">
<title>12&#45;&gt;11</title>
<g id="a_edge17"><a xlink:title="public&#45;inheritance">
<path fill="none" stroke="#ce93d8" d="M477.51,-145.03C572.17,-132.16 703.1,-114.36 788.41,-102.77"/>
<polygon fill="#ce93d8" stroke="#ce93d8" points="788.88,-106.24 798.32,-101.42 787.94,-99.3 788.88,-106.24"/>
</a>
</g>
</g>
<!-- 14&#45;&gt;1 -->
<g id="edge18" class="edge">
<title>14&#45;&gt;1</title>
<g id="a_edge18"><a xlink:title="public&#45;inheritance">
<path fill="none" stroke="#ce93d8" d="M1406.29,-71.97C1361.73,-61.8 1305.01,-48.87 1258.78,-38.33"/>
<polygon fill="#ce93d8" stroke="#ce93d8" points="1259.3,-34.86 1248.78,-36.05 1257.75,-41.69 1259.3,-34.86"/>
</a>
</g>
</g>
<!-- 16 -->
<g id="node14" class="node">
<title>16</title>
<g id="a_node14"><a xlink:title="ipc::VertexVertexCandidate">
<polygon fill="#ffffff" stroke="black" points="2019.5,-108 1814.5,-108 1814.5,-72 2019.5,-72 2019.5,-108"/>
<text text-anchor="middle" x="1917" y="-86.3" font-family="Menlo" font-size="14.00">ipc::VertexVertexCandidate</text>
</a>
</g>
</g>
<!-- 16&#45;&gt;1 -->
<g id="edge19" class="edge">
<title>16&#45;&gt;1</title>
<g id="a_edge19"><a xlink:title="public&#45;inheritance">
<path fill="none" stroke="#ce93d8" d="M1814.47,-79.34C1666.69,-65.42 1396.53,-39.97 1259.13,-27.02"/>
<polygon fill="#ce93d8" stroke="#ce93d8" points="1259.35,-23.53 1249.07,-26.07 1258.69,-30.49 1259.35,-23.53"/>
</a>
</g>
</g>
<!-- 13 -->
<g id="node15" class="node">
<title>13</title>
<g id="a_node15"><a xlink:title="ipc::VertexVertexNormalCollision">
<polygon fill="#ffffff" stroke="black" points="2038,-180 1796,-180 1796,-144 2038,-144 2038,-180"/>
<text text-anchor="middle" x="1917" y="-158.3" font-family="Menlo" font-size="14.00">ipc::VertexVertexNormalCollision</text>
</a>
</g>
</g>
<!-- 13&#45;&gt;11 -->
<g id="edge20" class="edge">
<title>13&#45;&gt;11</title>
<g id="a_edge20"><a xlink:title="public&#45;inheritance">
<path fill="none" stroke="#ce93d8" d="M1795.94,-144.82C1792.93,-144.53 1789.95,-144.26 1787,-144 1424.23,-112.43 1327.59,-151.05 961.87,-107.98"/>
<polygon fill="#ce93d8" stroke="#ce93d8" points="962.15,-104.49 951.8,-106.78 961.32,-111.44 962.15,-104.49"/>
</a>
</g>
</g>
<!-- 13&#45;&gt;16 -->
<g id="edge21" class="edge">
<title>13&#45;&gt;16</title>
<g id="a_edge21"><a xlink:title="public&#45;inheritance">
<path fill="none" stroke="#ce93d8" d="M1917,-143.7C1917,-135.98 1917,-126.71 1917,-118.11"/>
<polygon fill="#ce93d8" stroke="#ce93d8" points="1920.5,-118.1 1917,-108.1 1913.5,-118.1 1920.5,-118.1"/>
</a>
</g>
</g>
<!-- 15 -->
<g id="node16" class="node">
<title>15</title>
<g id="a_node16"><a xlink:title="ipc::VertexVertexTangentialCollision">
<polygon fill="#ffffff" stroke="black" points="2319.5,-180 2056.5,-180 2056.5,-144 2319.5,-144 2319.5,-180"/>
<text text-anchor="middle" x="2188" y="-158.3" font-family="Menlo" font-size="14.00">ipc::VertexVertexTangentialCollision</text>
</a>
</g>
</g>
<!-- 15&#45;&gt;14 -->
<g id="edge22" class="edge">
<title>15&#45;&gt;14</title>
<g id="a_edge22"><a xlink:title="public&#45;inheritance">
<path fill="none" stroke="#ce93d8" d="M2056.29,-145.01C2053.17,-144.66 2050.06,-144.33 2047,-144 1882.68,-126.4 1691.17,-109.15 1578.34,-99.32"/>
<polygon fill="#ce93d8" stroke="#ce93d8" points="1578.6,-95.83 1568.34,-98.45 1578,-102.81 1578.6,-95.83"/>
</a>
</g>
</g>
<!-- 15&#45;&gt;16 -->
<g id="edge23" class="edge">
<title>15&#45;&gt;16</title>
<g id="a_edge23"><a xlink:title="public&#45;inheritance">
<path fill="none" stroke="#ce93d8" d="M2122.05,-143.97C2083.12,-133.91 2033.67,-121.14 1993.09,-110.65"/>
<polygon fill="#ce93d8" stroke="#ce93d8" points="1993.8,-107.22 1983.24,-108.11 1992.05,-114 1993.8,-107.22"/>
</a>
</g>
</g>
</g>
</svg>
