<?xml version="1.0" encoding="UTF-8" standalone="no"?>
<!DOCTYPE svg PUBLIC "-//W3C//DTD SVG 1.1//EN"
 "http://www.w3.org/Graphics/SVG/1.1/DTD/svg11.dtd">
<!-- Generated by graphviz version 2.43.0 (0)
 -->
<!-- Title: %3 Pages: 1 -->
<svg width="700pt" height="116pt"
 viewBox="0.00 0.00 699.50 116.00" xmlns="http://www.w3.org/2000/svg" xmlns:xlink="http://www.w3.org/1999/xlink">
<g id="graph0" class="graph" transform="scale(1 1) rotate(0) translate(4 112)">
<title>%3</title>
<polygon fill="transparent" stroke="transparent" points="-4,4 -4,-112 695.5,-112 695.5,4 -4,4"/>
<!-- 2 -->
<g id="node1" class="node">
<title>2</title>
<g id="a_node1"><a xlink:title="ipc::BVH">
<polygon fill="#ffffff" stroke="black" points="79,-108 0,-108 0,-72 79,-72 79,-108"/>
<text text-anchor="middle" x="39.5" y="-86.3" font-family="Times,serif" font-size="14.00">ipc::BVH</text>
</a>
</g>
</g>
<!-- 1 -->
<g id="node2" class="node">
<title>1</title>
<g id="a_node2"><a xlink:title="ipc::BroadPhase">
<polygon fill="#bfbfbf" stroke="black" points="365.5,-36 233.5,-36 233.5,0 365.5,0 365.5,-36"/>
<text text-anchor="middle" x="299.5" y="-14.3" font-family="Times,serif" font-size="14.00">ipc::BroadPhase</text>
</a>
</g>
</g>
<!-- 2&#45;&gt;1 -->
<g id="edge1" class="edge">
<title>2&#45;&gt;1</title>
<g id="a_edge1"><a xlink:title="public&#45;inheritance">
<path fill="none" stroke="#ce93d8" d="M79.22,-74.61C82.01,-73.69 84.79,-72.82 87.5,-72 132.13,-58.55 182.76,-45.8 223.34,-36.18"/>
<polygon fill="#ce93d8" stroke="#ce93d8" points="224.24,-39.57 233.17,-33.87 222.63,-32.75 224.24,-39.57"/>
</a>
</g>
</g>
<!-- 3 -->
<g id="node3" class="node">
<title>3</title>
<g id="a_node3"><a xlink:title="ipc::BruteForce">
<polygon fill="#ffffff" stroke="black" points="224,-108 97,-108 97,-72 224,-72 224,-108"/>
<text text-anchor="middle" x="160.5" y="-86.3" font-family="Times,serif" font-size="14.00">ipc::BruteForce</text>
</a>
</g>
</g>
<!-- 3&#45;&gt;1 -->
<g id="edge2" class="edge">
<title>3&#45;&gt;1</title>
<g id="a_edge2"><a xlink:title="public&#45;inheritance">
<path fill="none" stroke="#ce93d8" d="M194.5,-71.88C213.1,-62.51 236.33,-50.81 256.21,-40.8"/>
<polygon fill="#ce93d8" stroke="#ce93d8" points="258.01,-43.81 265.37,-36.19 254.86,-37.56 258.01,-43.81"/>
</a>
</g>
</g>
<!-- 4 -->
<g id="node4" class="node">
<title>4</title>
<g id="a_node4"><a xlink:title="ipc::HashGrid">
<polygon fill="#ffffff" stroke="black" points="357,-108 242,-108 242,-72 357,-72 357,-108"/>
<text text-anchor="middle" x="299.5" y="-86.3" font-family="Times,serif" font-size="14.00">ipc::HashGrid</text>
</a>
</g>
</g>
<!-- 4&#45;&gt;1 -->
<g id="edge3" class="edge">
<title>4&#45;&gt;1</title>
<g id="a_edge3"><a xlink:title="public&#45;inheritance">
<path fill="none" stroke="#ce93d8" d="M299.5,-71.7C299.5,-63.98 299.5,-54.71 299.5,-46.11"/>
<polygon fill="#ce93d8" stroke="#ce93d8" points="303,-46.1 299.5,-36.1 296,-46.1 303,-46.1"/>
</a>
</g>
</g>
<!-- 5 -->
<g id="node5" class="node">
<title>5</title>
<g id="a_node5"><a xlink:title="ipc::SpatialHash">
<polygon fill="#ffffff" stroke="black" points="509.5,-108 375.5,-108 375.5,-72 509.5,-72 509.5,-108"/>
<text text-anchor="middle" x="442.5" y="-86.3" font-family="Times,serif" font-size="14.00">ipc::SpatialHash</text>
</a>
</g>
</g>
<!-- 5&#45;&gt;1 -->
<g id="edge4" class="edge">
<title>5&#45;&gt;1</title>
<g id="a_edge4"><a xlink:title="public&#45;inheritance">
<path fill="none" stroke="#ce93d8" d="M407.52,-71.88C388.3,-62.47 364.27,-50.71 343.76,-40.67"/>
<polygon fill="#ce93d8" stroke="#ce93d8" points="345.14,-37.44 334.62,-36.19 342.06,-43.73 345.14,-37.44"/>
</a>
</g>
</g>
<!-- 6 -->
<g id="node6" class="node">
<title>6</title>
<g id="a_node6"><a xlink:title="ipc::SweepAndPrune">
<polygon fill="#ffffff" stroke="black" points="691.5,-108 527.5,-108 527.5,-72 691.5,-72 691.5,-108"/>
<text text-anchor="middle" x="609.5" y="-86.3" font-family="Times,serif" font-size="14.00">ipc::SweepAndPrune</text>
</a>
</g>
</g>
<!-- 6&#45;&gt;1 -->
<g id="edge5" class="edge">
<title>6&#45;&gt;1</title>
<g id="a_edge5"><a xlink:title="public&#45;inheritance">
<path fill="none" stroke="#ce93d8" d="M534.06,-71.97C485.86,-61.08 423.57,-47.02 375.29,-36.11"/>
<polygon fill="#ce93d8" stroke="#ce93d8" points="376.05,-32.7 365.52,-33.91 374.51,-39.53 376.05,-32.7"/>
</a>
</g>
</g>
</g>
</svg>
