<?xml version="1.0" encoding="UTF-8" standalone="no"?>
<!DOCTYPE svg PUBLIC "-//W3C//DTD SVG 1.1//EN"
 "http://www.w3.org/Graphics/SVG/1.1/DTD/svg11.dtd">
<!-- Generated by graphviz version 2.43.0 (0)
 -->
<!-- Title: %3 Pages: 1 -->
<svg width="346pt" height="116pt"
 viewBox="0.00 0.00 345.50 116.00" xmlns="http://www.w3.org/2000/svg" xmlns:xlink="http://www.w3.org/1999/xlink">
<g id="graph0" class="graph" transform="scale(1 1) rotate(0) translate(4 112)">
<title>%3</title>
<polygon fill="transparent" stroke="transparent" points="-4,4 -4,-112 341.5,-112 341.5,4 -4,4"/>
<!-- 3 -->
<g id="node1" class="node">
<title>3</title>
<g id="a_node1"><a xlink:title="ipc::TightInclusionCCD">
<polygon fill="#ffffff" stroke="black" points="181,-108 0,-108 0,-72 181,-72 181,-108"/>
<text text-anchor="middle" x="90.5" y="-86.3" font-family="Times,serif" font-size="14.00">ipc::TightInclusionCCD</text>
</a>
</g>
</g>
<!-- 1 -->
<g id="node3" class="node">
<title>1</title>
<g id="a_node3"><a xlink:title="ipc::NarrowPhaseCCD">
<polygon fill="#bfbfbf" stroke="black" points="267.5,-36 91.5,-36 91.5,0 267.5,0 267.5,-36"/>
<text text-anchor="middle" x="179.5" y="-14.3" font-family="Times,serif" font-size="14.00">ipc::NarrowPhaseCCD</text>
</a>
</g>
</g>
<!-- 3&#45;&gt;1 -->
<g id="edge1" class="edge">
<title>3&#45;&gt;1</title>
<g id="a_edge1"><a xlink:title="public&#45;inheritance">
<path fill="none" stroke="#ce93d8" d="M112.5,-71.7C123.71,-62.88 137.5,-52.03 149.65,-42.47"/>
<polygon fill="#ce93d8" stroke="#ce93d8" points="152.06,-45.04 157.75,-36.1 147.73,-39.54 152.06,-45.04"/>
</a>
</g>
</g>
<!-- 2 -->
<g id="node2" class="node">
<title>2</title>
<g id="a_node2"><a xlink:title="ipc::AdditiveCCD">
<polygon fill="#ffffff" stroke="black" points="337.5,-108 199.5,-108 199.5,-72 337.5,-72 337.5,-108"/>
<text text-anchor="middle" x="268.5" y="-86.3" font-family="Times,serif" font-size="14.00">ipc::AdditiveCCD</text>
</a>
</g>
</g>
<!-- 2&#45;&gt;1 -->
<g id="edge2" class="edge">
<title>2&#45;&gt;1</title>
<g id="a_edge2"><a xlink:title="public&#45;inheritance">
<path fill="none" stroke="#ce93d8" d="M246.5,-71.7C235.29,-62.88 221.5,-52.03 209.35,-42.47"/>
<polygon fill="#ce93d8" stroke="#ce93d8" points="211.27,-39.54 201.25,-36.1 206.94,-45.04 211.27,-39.54"/>
</a>
</g>
</g>
</g>
</svg>
