<?xml version="1.0" encoding="UTF-8" standalone="no"?>
<!DOCTYPE svg PUBLIC "-//W3C//DTD SVG 1.1//EN"
 "http://www.w3.org/Graphics/SVG/1.1/DTD/svg11.dtd">
<!-- Generated by graphviz version 2.43.0 (0)
 -->
<!-- Title: %3 Pages: 1 -->
<svg width="556pt" height="260pt"
 viewBox="0.00 0.00 556.00 260.00" xmlns="http://www.w3.org/2000/svg" xmlns:xlink="http://www.w3.org/1999/xlink">
<g id="graph0" class="graph" transform="scale(1 1) rotate(0) translate(4 256)">
<title>%3</title>
<polygon fill="transparent" stroke="transparent" points="-4,4 -4,-256 552,-256 552,4 -4,4"/>
<!-- 3 -->
<g id="node1" class="node">
<title>3</title>
<g id="a_node1"><a xlink:title="ipc::CollisionStencil">
<polygon fill="#ffffff" stroke="black" points="347,-36 189,-36 189,0 347,0 347,-36"/>
<text text-anchor="middle" x="268" y="-14.3" font-family="Times,serif" font-size="14.00">ipc::CollisionStencil</text>
</a>
</g>
</g>
<!-- 2 -->
<g id="node2" class="node">
<title>2</title>
<g id="a_node2"><a xlink:title="ipc::ContinuousCollisionCandidate">
<polygon fill="#ffffff" stroke="black" points="399,-108 137,-108 137,-72 399,-72 399,-108"/>
<text text-anchor="middle" x="268" y="-86.3" font-family="Times,serif" font-size="14.00">ipc::ContinuousCollisionCandidate</text>
</a>
</g>
</g>
<!-- 2&#45;&gt;3 -->
<g id="edge1" class="edge">
<title>2&#45;&gt;3</title>
<g id="a_edge1"><a xlink:title="public&#45;inheritance">
<path fill="none" stroke="#ce93d8" d="M268,-71.7C268,-63.98 268,-54.71 268,-46.11"/>
<polygon fill="#ce93d8" stroke="#ce93d8" points="271.5,-46.1 268,-36.1 264.5,-46.1 271.5,-46.1"/>
</a>
</g>
</g>
<!-- 1 -->
<g id="node3" class="node">
<title>1</title>
<g id="a_node3"><a xlink:title="ipc::VertexVertexCandidate">
<polygon fill="#bfbfbf" stroke="black" points="374,-180 162,-180 162,-144 374,-144 374,-180"/>
<text text-anchor="middle" x="268" y="-158.3" font-family="Times,serif" font-size="14.00">ipc::VertexVertexCandidate</text>
</a>
</g>
</g>
<!-- 1&#45;&gt;2 -->
<g id="edge2" class="edge">
<title>1&#45;&gt;2</title>
<g id="a_edge2"><a xlink:title="public&#45;inheritance">
<path fill="none" stroke="#ce93d8" d="M268,-143.7C268,-135.98 268,-126.71 268,-118.11"/>
<polygon fill="#ce93d8" stroke="#ce93d8" points="271.5,-118.1 268,-108.1 264.5,-118.1 271.5,-118.1"/>
</a>
</g>
</g>
<!-- 4 -->
<g id="node4" class="node">
<title>4</title>
<g id="a_node4"><a xlink:title="ipc::VertexVertexNormalCollision">
<polygon fill="#ffffff" stroke="black" points="254,-252 0,-252 0,-216 254,-216 254,-252"/>
<text text-anchor="middle" x="127" y="-230.3" font-family="Times,serif" font-size="14.00">ipc::VertexVertexNormalCollision</text>
</a>
</g>
</g>
<!-- 4&#45;&gt;1 -->
<g id="edge3" class="edge">
<title>4&#45;&gt;1</title>
<g id="a_edge3"><a xlink:title="public&#45;inheritance">
<path fill="none" stroke="#ce93d8" d="M161.49,-215.88C180.44,-206.47 204.13,-194.71 224.36,-184.67"/>
<polygon fill="#ce93d8" stroke="#ce93d8" points="225.97,-187.77 233.37,-180.19 222.86,-181.5 225.97,-187.77"/>
</a>
</g>
</g>
<!-- 5 -->
<g id="node5" class="node">
<title>5</title>
<g id="a_node5"><a xlink:title="ipc::VertexVertexTangentialCollision">
<polygon fill="#ffffff" stroke="black" points="548,-252 272,-252 272,-216 548,-216 548,-252"/>
<text text-anchor="middle" x="410" y="-230.3" font-family="Times,serif" font-size="14.00">ipc::VertexVertexTangentialCollision</text>
</a>
</g>
</g>
<!-- 5&#45;&gt;1 -->
<g id="edge4" class="edge">
<title>5&#45;&gt;1</title>
<g id="a_edge4"><a xlink:title="public&#45;inheritance">
<path fill="none" stroke="#ce93d8" d="M375.26,-215.88C356.18,-206.47 332.32,-194.71 311.95,-184.67"/>
<polygon fill="#ce93d8" stroke="#ce93d8" points="313.39,-181.47 302.87,-180.19 310.29,-187.75 313.39,-181.47"/>
</a>
</g>
</g>
</g>
</svg>
