<?xml version="1.0" encoding="UTF-8" standalone="no"?>
<!DOCTYPE svg PUBLIC "-//W3C//DTD SVG 1.1//EN"
 "http://www.w3.org/Graphics/SVG/1.1/DTD/svg11.dtd">
<!-- Generated by graphviz version 2.43.0 (0)
 -->
<!-- Title: %3 Pages: 1 -->
<svg width="518pt" height="188pt"
 viewBox="0.00 0.00 518.00 188.00" xmlns="http://www.w3.org/2000/svg" xmlns:xlink="http://www.w3.org/1999/xlink">
<g id="graph0" class="graph" transform="scale(1 1) rotate(0) translate(4 184)">
<title>%3</title>
<polygon fill="transparent" stroke="transparent" points="-4,4 -4,-184 514,-184 514,4 -4,4"/>
<!-- 2 -->
<g id="node1" class="node">
<title>2</title>
<g id="a_node1"><a xlink:title="ipc::CollisionStencil">
<polygon fill="#ffffff" stroke="black" points="328.5,-36 170.5,-36 170.5,0 328.5,0 328.5,-36"/>
<text text-anchor="middle" x="249.5" y="-14.3" font-family="Times,serif" font-size="14.00">ipc::CollisionStencil</text>
</a>
</g>
</g>
<!-- 1 -->
<g id="node2" class="node">
<title>1</title>
<g id="a_node2"><a xlink:title="ipc::EdgeEdgeCandidate">
<polygon fill="#bfbfbf" stroke="black" points="346,-108 153,-108 153,-72 346,-72 346,-108"/>
<text text-anchor="middle" x="249.5" y="-86.3" font-family="Times,serif" font-size="14.00">ipc::EdgeEdgeCandidate</text>
</a>
</g>
</g>
<!-- 1&#45;&gt;2 -->
<g id="edge1" class="edge">
<title>1&#45;&gt;2</title>
<g id="a_edge1"><a xlink:title="public&#45;inheritance">
<path fill="none" stroke="#ce93d8" d="M249.5,-71.7C249.5,-63.98 249.5,-54.71 249.5,-46.11"/>
<polygon fill="#ce93d8" stroke="#ce93d8" points="253,-46.1 249.5,-36.1 246,-46.1 253,-46.1"/>
</a>
</g>
</g>
<!-- 3 -->
<g id="node3" class="node">
<title>3</title>
<g id="a_node3"><a xlink:title="ipc::EdgeEdgeNormalCollision">
<polygon fill="#ffffff" stroke="black" points="235,-180 0,-180 0,-144 235,-144 235,-180"/>
<text text-anchor="middle" x="117.5" y="-158.3" font-family="Times,serif" font-size="14.00">ipc::EdgeEdgeNormalCollision</text>
</a>
</g>
</g>
<!-- 3&#45;&gt;1 -->
<g id="edge2" class="edge">
<title>3&#45;&gt;1</title>
<g id="a_edge2"><a xlink:title="public&#45;inheritance">
<path fill="none" stroke="#ce93d8" d="M149.79,-143.88C167.37,-134.55 189.31,-122.92 208.13,-112.94"/>
<polygon fill="#ce93d8" stroke="#ce93d8" points="209.89,-115.97 217.09,-108.19 206.61,-109.78 209.89,-115.97"/>
</a>
</g>
</g>
<!-- 4 -->
<g id="node4" class="node">
<title>4</title>
<g id="a_node4"><a xlink:title="ipc::EdgeEdgeTangentialCollision">
<polygon fill="#ffffff" stroke="black" points="510,-180 253,-180 253,-144 510,-144 510,-180"/>
<text text-anchor="middle" x="381.5" y="-158.3" font-family="Times,serif" font-size="14.00">ipc::EdgeEdgeTangentialCollision</text>
</a>
</g>
</g>
<!-- 4&#45;&gt;1 -->
<g id="edge3" class="edge">
<title>4&#45;&gt;1</title>
<g id="a_edge3"><a xlink:title="public&#45;inheritance">
<path fill="none" stroke="#ce93d8" d="M349.21,-143.88C331.63,-134.55 309.69,-122.92 290.87,-112.94"/>
<polygon fill="#ce93d8" stroke="#ce93d8" points="292.39,-109.78 281.91,-108.19 289.11,-115.97 292.39,-109.78"/>
</a>
</g>
</g>
</g>
</svg>
