<?xml version="1.0" encoding="UTF-8" standalone="no"?>
<!DOCTYPE svg PUBLIC "-//W3C//DTD SVG 1.1//EN"
 "http://www.w3.org/Graphics/SVG/1.1/DTD/svg11.dtd">
<!-- Generated by graphviz version 2.43.0 (0)
 -->
<!-- Title: %3 Pages: 1 -->
<svg width="472pt" height="260pt"
 viewBox="0.00 0.00 471.50 260.00" xmlns="http://www.w3.org/2000/svg" xmlns:xlink="http://www.w3.org/1999/xlink">
<g id="graph0" class="graph" transform="scale(1 1) rotate(0) translate(4 256)">
<title>%3</title>
<polygon fill="transparent" stroke="transparent" points="-4,4 -4,-256 467.5,-256 467.5,4 -4,4"/>
<!-- 3 -->
<g id="node1" class="node">
<title>3</title>
<g id="a_node1"><a xlink:title="ipc::ContinuousCollisionCandidate">
<polygon fill="#ffffff" stroke="black" points="262,-108 0,-108 0,-72 262,-72 262,-108"/>
<text text-anchor="middle" x="131" y="-86.3" font-family="Times,serif" font-size="14.00">ipc::ContinuousCollisionCandidate</text>
</a>
</g>
</g>
<!-- 4 -->
<g id="node2" class="node">
<title>4</title>
<g id="a_node2"><a xlink:title="ipc::CollisionStencil">
<polygon fill="#ffffff" stroke="black" points="330,-36 172,-36 172,0 330,0 330,-36"/>
<text text-anchor="middle" x="251" y="-14.3" font-family="Times,serif" font-size="14.00">ipc::CollisionStencil</text>
</a>
</g>
</g>
<!-- 3&#45;&gt;4 -->
<g id="edge1" class="edge">
<title>3&#45;&gt;4</title>
<g id="a_edge1"><a xlink:title="public&#45;inheritance">
<path fill="none" stroke="#ce93d8" d="M160.36,-71.88C176.05,-62.72 195.56,-51.34 212.45,-41.48"/>
<polygon fill="#ce93d8" stroke="#ce93d8" points="214.66,-44.25 221.53,-36.19 211.13,-38.21 214.66,-44.25"/>
</a>
</g>
</g>
<!-- 2 -->
<g id="node3" class="node">
<title>2</title>
<g id="a_node3"><a xlink:title="ipc::VertexVertexCandidate">
<polygon fill="#ffffff" stroke="black" points="290,-180 78,-180 78,-144 290,-144 290,-180"/>
<text text-anchor="middle" x="184" y="-158.3" font-family="Times,serif" font-size="14.00">ipc::VertexVertexCandidate</text>
</a>
</g>
</g>
<!-- 2&#45;&gt;3 -->
<g id="edge2" class="edge">
<title>2&#45;&gt;3</title>
<g id="a_edge2"><a xlink:title="public&#45;inheritance">
<path fill="none" stroke="#ce93d8" d="M170.9,-143.7C164.61,-135.39 156.95,-125.28 150.04,-116.14"/>
<polygon fill="#ce93d8" stroke="#ce93d8" points="152.78,-113.96 143.95,-108.1 147.2,-118.19 152.78,-113.96"/>
</a>
</g>
</g>
<!-- 5 -->
<g id="node4" class="node">
<title>5</title>
<g id="a_node4"><a xlink:title="ipc::TangentialCollision">
<polygon fill="#ffffff" stroke="black" points="463.5,-108 280.5,-108 280.5,-72 463.5,-72 463.5,-108"/>
<text text-anchor="middle" x="372" y="-86.3" font-family="Times,serif" font-size="14.00">ipc::TangentialCollision</text>
</a>
</g>
</g>
<!-- 5&#45;&gt;4 -->
<g id="edge3" class="edge">
<title>5&#45;&gt;4</title>
<g id="a_edge3"><a xlink:title="public&#45;inheritance">
<path fill="none" stroke="#ce93d8" d="M342.4,-71.88C326.43,-62.64 306.54,-51.13 289.39,-41.21"/>
<polygon fill="#ce93d8" stroke="#ce93d8" points="291.12,-38.17 280.71,-36.19 287.62,-44.23 291.12,-38.17"/>
</a>
</g>
</g>
<!-- 1 -->
<g id="node5" class="node">
<title>1</title>
<g id="a_node5"><a xlink:title="ipc::VertexVertexTangentialCollision">
<polygon fill="#bfbfbf" stroke="black" points="389,-252 113,-252 113,-216 389,-216 389,-252"/>
<text text-anchor="middle" x="251" y="-230.3" font-family="Times,serif" font-size="14.00">ipc::VertexVertexTangentialCollision</text>
</a>
</g>
</g>
<!-- 1&#45;&gt;2 -->
<g id="edge4" class="edge">
<title>1&#45;&gt;2</title>
<g id="a_edge4"><a xlink:title="public&#45;inheritance">
<path fill="none" stroke="#ce93d8" d="M234.44,-215.7C226.32,-207.22 216.41,-196.86 207.53,-187.58"/>
<polygon fill="#ce93d8" stroke="#ce93d8" points="209.81,-184.91 200.37,-180.1 204.76,-189.75 209.81,-184.91"/>
</a>
</g>
</g>
<!-- 1&#45;&gt;5 -->
<g id="edge5" class="edge">
<title>1&#45;&gt;5</title>
<g id="a_edge5"><a xlink:title="public&#45;inheritance">
<path fill="none" stroke="#ce93d8" d="M267.22,-215.53C276.62,-205.29 288.62,-192.04 299,-180 317.17,-158.93 337.16,-134.45 351.63,-116.51"/>
<polygon fill="#ce93d8" stroke="#ce93d8" points="354.71,-118.26 358.25,-108.27 349.26,-113.87 354.71,-118.26"/>
</a>
</g>
</g>
</g>
</svg>
