<?xml version="1.0" encoding="UTF-8" standalone="no"?>
<!DOCTYPE svg PUBLIC "-//W3C//DTD SVG 1.1//EN"
 "http://www.w3.org/Graphics/SVG/1.1/DTD/svg11.dtd">
<!-- Generated by graphviz version 2.43.0 (0)
 -->
<!-- Title: %3 Pages: 1 -->
<svg width="268pt" height="188pt"
 viewBox="0.00 0.00 267.50 188.00" xmlns="http://www.w3.org/2000/svg" xmlns:xlink="http://www.w3.org/1999/xlink">
<g id="graph0" class="graph" transform="scale(1 1) rotate(0) translate(4 184)">
<title>%3</title>
<polygon fill="transparent" stroke="transparent" points="-4,4 -4,-184 263.5,-184 263.5,4 -4,4"/>
<!-- 2 -->
<g id="node1" class="node">
<title>2</title>
<g id="a_node1"><a xlink:title="ipc::CollisionStencil">
<polygon fill="#ffffff" stroke="black" points="203,-36 45,-36 45,0 203,0 203,-36"/>
<text text-anchor="middle" x="124" y="-14.3" font-family="Times,serif" font-size="14.00">ipc::CollisionStencil</text>
</a>
</g>
</g>
<!-- 3 -->
<g id="node2" class="node">
<title>3</title>
<g id="a_node2"><a xlink:title="ipc::NormalCollision">
<polygon fill="#ffffff" stroke="black" points="259.5,-108 98.5,-108 98.5,-72 259.5,-72 259.5,-108"/>
<text text-anchor="middle" x="179" y="-86.3" font-family="Times,serif" font-size="14.00">ipc::NormalCollision</text>
</a>
</g>
</g>
<!-- 3&#45;&gt;2 -->
<g id="edge1" class="edge">
<title>3&#45;&gt;2</title>
<g id="a_edge1"><a xlink:title="public&#45;inheritance">
<path fill="none" stroke="#ce93d8" d="M165.4,-71.7C158.88,-63.39 150.93,-53.28 143.75,-44.14"/>
<polygon fill="#ce93d8" stroke="#ce93d8" points="146.37,-41.81 137.44,-36.1 140.87,-46.13 146.37,-41.81"/>
</a>
</g>
</g>
<!-- 1 -->
<g id="node3" class="node">
<title>1</title>
<g id="a_node3"><a xlink:title="ipc::PlaneVertexNormalCollision">
<polygon fill="#bfbfbf" stroke="black" points="248,-180 0,-180 0,-144 248,-144 248,-180"/>
<text text-anchor="middle" x="124" y="-158.3" font-family="Times,serif" font-size="14.00">ipc::PlaneVertexNormalCollision</text>
</a>
</g>
</g>
<!-- 1&#45;&gt;2 -->
<g id="edge2" class="edge">
<title>1&#45;&gt;2</title>
<g id="a_edge2"><a xlink:title="public&#45;inheritance">
<path fill="none" stroke="#ce93d8" d="M109.25,-143.63C101.91,-133.85 93.81,-121.01 90,-108 85.5,-92.65 85.5,-87.35 90,-72 92.8,-62.45 97.91,-52.98 103.33,-44.76"/>
<polygon fill="#ce93d8" stroke="#ce93d8" points="106.35,-46.56 109.25,-36.37 100.62,-42.52 106.35,-46.56"/>
</a>
</g>
</g>
<!-- 1&#45;&gt;3 -->
<g id="edge3" class="edge">
<title>1&#45;&gt;3</title>
<g id="a_edge3"><a xlink:title="public&#45;inheritance">
<path fill="none" stroke="#ce93d8" d="M137.6,-143.7C144.12,-135.39 152.07,-125.28 159.25,-116.14"/>
<polygon fill="#ce93d8" stroke="#ce93d8" points="162.13,-118.13 165.56,-108.1 156.63,-113.81 162.13,-118.13"/>
</a>
</g>
</g>
</g>
</svg>
