<?xml version="1.0" encoding="UTF-8" standalone="no"?>
<!DOCTYPE svg PUBLIC "-//W3C//DTD SVG 1.1//EN"
 "http://www.w3.org/Graphics/SVG/1.1/DTD/svg11.dtd">
<!-- Generated by graphviz version 2.43.0 (0)
 -->
<!-- Title: %3 Pages: 1 -->
<svg width="1349pt" height="188pt"
 viewBox="0.00 0.00 1349.00 188.00" xmlns="http://www.w3.org/2000/svg" xmlns:xlink="http://www.w3.org/1999/xlink">
<g id="graph0" class="graph" transform="scale(1 1) rotate(0) translate(4 184)">
<title>%3</title>
<!-- 2 -->
<g id="node1" class="node">
<title>2</title>
<g id="a_node1"><a xlink:title="ipc::CollisionStencil">
<polygon fill="#ffffff" stroke="black" points="735.5,-36 585.5,-36 585.5,0 735.5,0 735.5,-36"/>
<text text-anchor="middle" x="660.5" y="-14.3" font-family="Menlo" font-size="14.00">ipc::CollisionStencil</text>
</a>
</g>
</g>
<!-- 3 -->
<g id="node2" class="node">
<title>3</title>
<g id="a_node2"><a xlink:title="ipc::EdgeEdgeTangentialCollision">
<polygon fill="#ffffff" stroke="black" points="245,-180 0,-180 0,-144 245,-144 245,-180"/>
<text text-anchor="middle" x="122.5" y="-158.3" font-family="Menlo" font-size="14.00">ipc::EdgeEdgeTangentialCollision</text>
</a>
</g>
</g>
<!-- 1 -->
<g id="node6" class="node">
<title>1</title>
<g id="a_node6"><a xlink:title="ipc::TangentialCollision">
<polygon fill="#bfbfbf" stroke="black" points="747.5,-108 573.5,-108 573.5,-72 747.5,-72 747.5,-108"/>
<text text-anchor="middle" x="660.5" y="-86.3" font-family="Menlo" font-size="14.00">ipc::TangentialCollision</text>
</a>
</g>
</g>
<!-- 3&#45;&gt;1 -->
<g id="edge1" class="edge">
<title>3&#45;&gt;1</title>
<g id="a_edge1"><a xlink:title="public&#45;inheritance">
<path fill="none" stroke="#ce93d8" d="M245.25,-145.03C341.71,-132.48 474.2,-115.24 563.36,-103.64"/>
<polygon fill="#ce93d8" stroke="#ce93d8" points="564.01,-107.08 573.47,-102.32 563.11,-100.14 564.01,-107.08"/>
</a>
</g>
</g>
<!-- 4 -->
<g id="node3" class="node">
<title>4</title>
<g id="a_node3"><a xlink:title="ipc::EdgeVertexTangentialCollision">
<polygon fill="#ffffff" stroke="black" points="517.5,-180 263.5,-180 263.5,-144 517.5,-144 517.5,-180"/>
<text text-anchor="middle" x="390.5" y="-158.3" font-family="Menlo" font-size="14.00">ipc::EdgeVertexTangentialCollision</text>
</a>
</g>
</g>
<!-- 4&#45;&gt;1 -->
<g id="edge2" class="edge">
<title>4&#45;&gt;1</title>
<g id="a_edge2"><a xlink:title="public&#45;inheritance">
<path fill="none" stroke="#ce93d8" d="M456.2,-143.97C495,-133.91 544.26,-121.14 584.69,-110.65"/>
<polygon fill="#ce93d8" stroke="#ce93d8" points="585.7,-114.01 594.5,-108.11 583.94,-107.23 585.7,-114.01"/>
</a>
</g>
</g>
<!-- 5 -->
<g id="node4" class="node">
<title>5</title>
<g id="a_node4"><a xlink:title="ipc::FaceVertexTangentialCollision">
<polygon fill="#ffffff" stroke="black" points="785,-180 536,-180 536,-144 785,-144 785,-180"/>
<text text-anchor="middle" x="660.5" y="-158.3" font-family="Menlo" font-size="14.00">ipc::FaceVertexTangentialCollision</text>
</a>
</g>
</g>
<!-- 5&#45;&gt;1 -->
<g id="edge3" class="edge">
<title>5&#45;&gt;1</title>
<g id="a_edge3"><a xlink:title="public&#45;inheritance">
<path fill="none" stroke="#ce93d8" d="M660.5,-143.7C660.5,-135.98 660.5,-126.71 660.5,-118.11"/>
<polygon fill="#ce93d8" stroke="#ce93d8" points="664,-118.1 660.5,-108.1 657,-118.1 664,-118.1"/>
</a>
</g>
</g>
<!-- 6 -->
<g id="node5" class="node">
<title>6</title>
<g id="a_node5"><a xlink:title="ipc::PlaneVertexTangentialCollision">
<polygon fill="#ffffff" stroke="black" points="1059.5,-180 803.5,-180 803.5,-144 1059.5,-144 1059.5,-180"/>
<text text-anchor="middle" x="931.5" y="-158.3" font-family="Menlo" font-size="14.00">ipc::PlaneVertexTangentialCollision</text>
</a>
</g>
</g>
<!-- 6&#45;&gt;1 -->
<g id="edge4" class="edge">
<title>6&#45;&gt;1</title>
<g id="a_edge4"><a xlink:title="public&#45;inheritance">
<path fill="none" stroke="#ce93d8" d="M865.55,-143.97C826.62,-133.91 777.17,-121.14 736.59,-110.65"/>
<polygon fill="#ce93d8" stroke="#ce93d8" points="737.3,-107.22 726.74,-108.11 735.55,-114 737.3,-107.22"/>
</a>
</g>
</g>
<!-- 1&#45;&gt;2 -->
<g id="edge5" class="edge">
<title>1&#45;&gt;2</title>
<g id="a_edge5"><a xlink:title="public&#45;inheritance">
<path fill="none" stroke="#ce93d8" d="M660.5,-71.7C660.5,-63.98 660.5,-54.71 660.5,-46.11"/>
<polygon fill="#ce93d8" stroke="#ce93d8" points="664,-46.1 660.5,-36.1 657,-46.1 664,-46.1"/>
</a>
</g>
</g>
<!-- 7 -->
<g id="node7" class="node">
<title>7</title>
<g id="a_node7"><a xlink:title="ipc::VertexVertexTangentialCollision">
<polygon fill="#ffffff" stroke="black" points="1341,-180 1078,-180 1078,-144 1341,-144 1341,-180"/>
<text text-anchor="middle" x="1209.5" y="-158.3" font-family="Menlo" font-size="14.00">ipc::VertexVertexTangentialCollision</text>
</a>
</g>
</g>
<!-- 7&#45;&gt;1 -->
<g id="edge6" class="edge">
<title>7&#45;&gt;1</title>
<g id="a_edge6"><a xlink:title="public&#45;inheritance">
<path fill="none" stroke="#ce93d8" d="M1077.65,-144.19C979.13,-131.63 846.67,-114.74 757.68,-103.39"/>
<polygon fill="#ce93d8" stroke="#ce93d8" points="757.95,-99.9 747.59,-102.1 757.06,-106.84 757.95,-99.9"/>
</a>
</g>
</g>
</g>
</svg>
