<?xml version="1.0" encoding="UTF-8" standalone="no"?>
<!DOCTYPE svg PUBLIC "-//W3C//DTD SVG 1.1//EN"
 "http://www.w3.org/Graphics/SVG/1.1/DTD/svg11.dtd">
<!-- Generated by graphviz version 2.43.0 (0)
 -->
<!-- Title: %3 Pages: 1 -->
<svg width="1109pt" height="188pt"
 viewBox="0.00 0.00 1109.00 188.00" xmlns="http://www.w3.org/2000/svg" xmlns:xlink="http://www.w3.org/1999/xlink">
<g id="graph0" class="graph" transform="scale(1 1) rotate(0) translate(4 184)">
<title>%3</title>
<polygon fill="transparent" stroke="transparent" points="-4,4 -4,-184 1105,-184 1105,4 -4,4"/>
<!-- 6 -->
<g id="node1" class="node">
<title>6</title>
<g id="a_node1"><a xlink:title="ipc::PlaneVertexConstraint">
<polygon fill="#ffffff" stroke="black" points="209,-180 0,-180 0,-144 209,-144 209,-180"/>
<text text-anchor="middle" x="104.5" y="-158.3" font-family="Times,serif" font-size="14.00">ipc::PlaneVertexConstraint</text>
</a>
</g>
</g>
<!-- 1 -->
<g id="node5" class="node">
<title>1</title>
<g id="a_node5"><a xlink:title="ipc::CollisionConstraint">
<polygon fill="#bfbfbf" stroke="black" points="634.5,-108 450.5,-108 450.5,-72 634.5,-72 634.5,-108"/>
<text text-anchor="middle" x="542.5" y="-86.3" font-family="Times,serif" font-size="14.00">ipc::CollisionConstraint</text>
</a>
</g>
</g>
<!-- 6&#45;&gt;1 -->
<g id="edge1" class="edge">
<title>6&#45;&gt;1</title>
<g id="a_edge1"><a xlink:title="public&#45;inheritance">
<path fill="none" stroke="#ce93d8" d="M209.13,-144.28C279.08,-133.1 370.66,-118.46 440.13,-107.36"/>
<polygon fill="#ce93d8" stroke="#ce93d8" points="440.9,-110.78 450.22,-105.75 439.79,-103.87 440.9,-110.78"/>
</a>
</g>
</g>
<!-- 2 -->
<g id="node2" class="node">
<title>2</title>
<g id="a_node2"><a xlink:title="ipc::CollisionStencil">
<polygon fill="#ffffff" stroke="black" points="621.5,-36 463.5,-36 463.5,0 621.5,0 621.5,-36"/>
<text text-anchor="middle" x="542.5" y="-14.3" font-family="Times,serif" font-size="14.00">ipc::CollisionStencil</text>
</a>
</g>
</g>
<!-- 3 -->
<g id="node3" class="node">
<title>3</title>
<g id="a_node3"><a xlink:title="ipc::EdgeEdgeConstraint">
<polygon fill="#ffffff" stroke="black" points="423.5,-180 227.5,-180 227.5,-144 423.5,-144 423.5,-180"/>
<text text-anchor="middle" x="325.5" y="-158.3" font-family="Times,serif" font-size="14.00">ipc::EdgeEdgeConstraint</text>
</a>
</g>
</g>
<!-- 3&#45;&gt;1 -->
<g id="edge2" class="edge">
<title>3&#45;&gt;1</title>
<g id="a_edge2"><a xlink:title="public&#45;inheritance">
<path fill="none" stroke="#ce93d8" d="M378.31,-143.97C408.89,-134.1 447.57,-121.62 479.71,-111.25"/>
<polygon fill="#ce93d8" stroke="#ce93d8" points="481.01,-114.51 489.46,-108.11 478.86,-107.85 481.01,-114.51"/>
</a>
</g>
</g>
<!-- 5 -->
<g id="node4" class="node">
<title>5</title>
<g id="a_node4"><a xlink:title="ipc::FaceVertexConstraint">
<polygon fill="#ffffff" stroke="black" points="643.5,-180 441.5,-180 441.5,-144 643.5,-144 643.5,-180"/>
<text text-anchor="middle" x="542.5" y="-158.3" font-family="Times,serif" font-size="14.00">ipc::FaceVertexConstraint</text>
</a>
</g>
</g>
<!-- 5&#45;&gt;1 -->
<g id="edge3" class="edge">
<title>5&#45;&gt;1</title>
<g id="a_edge3"><a xlink:title="public&#45;inheritance">
<path fill="none" stroke="#ce93d8" d="M542.5,-143.7C542.5,-135.98 542.5,-126.71 542.5,-118.11"/>
<polygon fill="#ce93d8" stroke="#ce93d8" points="546,-118.1 542.5,-108.1 539,-118.1 546,-118.1"/>
</a>
</g>
</g>
<!-- 1&#45;&gt;2 -->
<g id="edge4" class="edge">
<title>1&#45;&gt;2</title>
<g id="a_edge4"><a xlink:title="public&#45;inheritance">
<path fill="none" stroke="#ce93d8" d="M542.5,-71.7C542.5,-63.98 542.5,-54.71 542.5,-46.11"/>
<polygon fill="#ce93d8" stroke="#ce93d8" points="546,-46.1 542.5,-36.1 539,-46.1 546,-46.1"/>
</a>
</g>
</g>
<!-- 4 -->
<g id="node6" class="node">
<title>4</title>
<g id="a_node6"><a xlink:title="ipc::EdgeVertexConstraint">
<polygon fill="#ffffff" stroke="black" points="867.5,-180 661.5,-180 661.5,-144 867.5,-144 867.5,-180"/>
<text text-anchor="middle" x="764.5" y="-158.3" font-family="Times,serif" font-size="14.00">ipc::EdgeVertexConstraint</text>
</a>
</g>
</g>
<!-- 4&#45;&gt;1 -->
<g id="edge5" class="edge">
<title>4&#45;&gt;1</title>
<g id="a_edge5"><a xlink:title="public&#45;inheritance">
<path fill="none" stroke="#ce93d8" d="M710.48,-143.97C679.05,-134.06 639.27,-121.51 606.31,-111.12"/>
<polygon fill="#ce93d8" stroke="#ce93d8" points="607.36,-107.78 596.77,-108.11 605.25,-114.46 607.36,-107.78"/>
</a>
</g>
</g>
<!-- 7 -->
<g id="node7" class="node">
<title>7</title>
<g id="a_node7"><a xlink:title="ipc::VertexVertexConstraint">
<polygon fill="#ffffff" stroke="black" points="1101,-180 886,-180 886,-144 1101,-144 1101,-180"/>
<text text-anchor="middle" x="993.5" y="-158.3" font-family="Times,serif" font-size="14.00">ipc::VertexVertexConstraint</text>
</a>
</g>
</g>
<!-- 7&#45;&gt;1 -->
<g id="edge6" class="edge">
<title>7&#45;&gt;1</title>
<g id="a_edge6"><a xlink:title="public&#45;inheritance">
<path fill="none" stroke="#ce93d8" d="M885.76,-144.28C812.6,-132.92 716.44,-118 644.52,-106.83"/>
<polygon fill="#ce93d8" stroke="#ce93d8" points="644.95,-103.36 634.53,-105.28 643.88,-110.28 644.95,-103.36"/>
</a>
</g>
</g>
</g>
</svg>
