<?xml version="1.0" encoding="UTF-8" standalone="no"?>
<!DOCTYPE svg PUBLIC "-//W3C//DTD SVG 1.1//EN"
 "http://www.w3.org/Graphics/SVG/1.1/DTD/svg11.dtd">
<!-- Generated by graphviz version 2.43.0 (0)
 -->
<!-- Title: %3 Pages: 1 -->
<svg width="907pt" height="260pt"
 viewBox="0.00 0.00 907.00 260.00" xmlns="http://www.w3.org/2000/svg" xmlns:xlink="http://www.w3.org/1999/xlink">
<g id="graph0" class="graph" transform="scale(1 1) rotate(0) translate(4 256)">
<title>%3</title>
<polygon fill="transparent" stroke="transparent" points="-4,4 -4,-256 903,-256 903,4 -4,4"/>
<!-- 2 -->
<g id="node1" class="node">
<title>2</title>
<g id="a_node1"><a xlink:title="ipc::Potential&lt; NormalCollisions &gt;">
<polygon fill="#ffffff" stroke="black" points="720.5,-108 454.5,-108 454.5,-72 720.5,-72 720.5,-108"/>
<text text-anchor="middle" x="587.5" y="-86.3" font-family="Times,serif" font-size="14.00">ipc::Potential&lt; NormalCollisions &gt;</text>
</a>
</g>
</g>
<!-- 1 -->
<g id="node7" class="node">
<title>1</title>
<g id="a_node7"><a xlink:title="ipc::Potential&lt; TCollisions &gt;">
<polygon fill="#bfbfbf" stroke="black" points="550,-36 329,-36 329,0 550,0 550,-36"/>
<text text-anchor="middle" x="439.5" y="-14.3" font-family="Times,serif" font-size="14.00">ipc::Potential&lt; TCollisions &gt;</text>
</a>
</g>
</g>
<!-- 2&#45;&gt;1 -->
<g id="edge1" class="edge">
<title>2&#45;&gt;1</title>
<g id="a_edge1"><a xlink:title="template&#45;instance">
<path fill="none" stroke="#ce93d8" d="M551.3,-71.88C531.24,-62.39 506.13,-50.51 484.79,-40.42"/>
<polygon fill="#ce93d8" stroke="#ce93d8" points="486.12,-37.18 475.59,-36.07 483.13,-43.51 486.12,-37.18"/>
</a>
</g>
</g>
<!-- 6 -->
<g id="node2" class="node">
<title>6</title>
<g id="a_node2"><a xlink:title="ipc::Potential&lt; TangentialCollisions &gt;">
<polygon fill="#ffffff" stroke="black" points="436,-108 149,-108 149,-72 436,-72 436,-108"/>
<text text-anchor="middle" x="292.5" y="-86.3" font-family="Times,serif" font-size="14.00">ipc::Potential&lt; TangentialCollisions &gt;</text>
</a>
</g>
</g>
<!-- 6&#45;&gt;1 -->
<g id="edge2" class="edge">
<title>6&#45;&gt;1</title>
<g id="a_edge2"><a xlink:title="template&#45;instance">
<path fill="none" stroke="#ce93d8" d="M328.46,-71.88C348.38,-62.39 373.32,-50.51 394.52,-40.42"/>
<polygon fill="#ce93d8" stroke="#ce93d8" points="396.13,-43.53 403.66,-36.07 393.12,-37.21 396.13,-43.53"/>
</a>
</g>
</g>
<!-- 4 -->
<g id="node3" class="node">
<title>4</title>
<g id="a_node3"><a xlink:title="ipc::BarrierPotential">
<polygon fill="#ffffff" stroke="black" points="651.5,-252 489.5,-252 489.5,-216 651.5,-216 651.5,-252"/>
<text text-anchor="middle" x="570.5" y="-230.3" font-family="Times,serif" font-size="14.00">ipc::BarrierPotential</text>
</a>
</g>
</g>
<!-- 3 -->
<g id="node6" class="node">
<title>3</title>
<g id="a_node6"><a xlink:title="ipc::NormalPotential">
<polygon fill="#ffffff" stroke="black" points="669.5,-180 505.5,-180 505.5,-144 669.5,-144 669.5,-180"/>
<text text-anchor="middle" x="587.5" y="-158.3" font-family="Times,serif" font-size="14.00">ipc::NormalPotential</text>
</a>
</g>
</g>
<!-- 4&#45;&gt;3 -->
<g id="edge3" class="edge">
<title>4&#45;&gt;3</title>
<g id="a_edge3"><a xlink:title="public&#45;inheritance">
<path fill="none" stroke="#ce93d8" d="M574.7,-215.7C576.6,-207.9 578.88,-198.51 580.98,-189.83"/>
<polygon fill="#ce93d8" stroke="#ce93d8" points="584.39,-190.65 583.35,-180.1 577.58,-189 584.39,-190.65"/>
</a>
</g>
</g>
<!-- 8 -->
<g id="node4" class="node">
<title>8</title>
<g id="a_node4"><a xlink:title="ipc::FrictionPotential">
<polygon fill="#ffffff" stroke="black" points="167,-252 0,-252 0,-216 167,-216 167,-252"/>
<text text-anchor="middle" x="83.5" y="-230.3" font-family="Times,serif" font-size="14.00">ipc::FrictionPotential</text>
</a>
</g>
</g>
<!-- 7 -->
<g id="node9" class="node">
<title>7</title>
<g id="a_node9"><a xlink:title="ipc::TangentialPotential">
<polygon fill="#ffffff" stroke="black" points="385,-180 200,-180 200,-144 385,-144 385,-180"/>
<text text-anchor="middle" x="292.5" y="-158.3" font-family="Times,serif" font-size="14.00">ipc::TangentialPotential</text>
</a>
</g>
</g>
<!-- 8&#45;&gt;7 -->
<g id="edge4" class="edge">
<title>8&#45;&gt;7</title>
<g id="a_edge4"><a xlink:title="public&#45;inheritance">
<path fill="none" stroke="#ce93d8" d="M134.36,-215.97C163.69,-206.14 200.75,-193.73 231.62,-183.39"/>
<polygon fill="#ce93d8" stroke="#ce93d8" points="233.04,-186.61 241.41,-180.11 230.82,-179.97 233.04,-186.61"/>
</a>
</g>
</g>
<!-- 5 -->
<g id="node5" class="node">
<title>5</title>
<g id="a_node5"><a xlink:title="ipc::NormalAdhesionPotential">
<polygon fill="#ffffff" stroke="black" points="899,-252 670,-252 670,-216 899,-216 899,-252"/>
<text text-anchor="middle" x="784.5" y="-230.3" font-family="Times,serif" font-size="14.00">ipc::NormalAdhesionPotential</text>
</a>
</g>
</g>
<!-- 5&#45;&gt;3 -->
<g id="edge5" class="edge">
<title>5&#45;&gt;3</title>
<g id="a_edge5"><a xlink:title="public&#45;inheritance">
<path fill="none" stroke="#ce93d8" d="M736.56,-215.97C709.03,-206.19 674.28,-193.84 645.26,-183.52"/>
<polygon fill="#ce93d8" stroke="#ce93d8" points="646.25,-180.16 635.65,-180.11 643.91,-186.76 646.25,-180.16"/>
</a>
</g>
</g>
<!-- 3&#45;&gt;2 -->
<g id="edge6" class="edge">
<title>3&#45;&gt;2</title>
<g id="a_edge6"><a xlink:title="public&#45;inheritance">
<path fill="none" stroke="#ce93d8" d="M587.5,-143.7C587.5,-135.98 587.5,-126.71 587.5,-118.11"/>
<polygon fill="#ce93d8" stroke="#ce93d8" points="591,-118.1 587.5,-108.1 584,-118.1 591,-118.1"/>
</a>
</g>
</g>
<!-- 9 -->
<g id="node8" class="node">
<title>9</title>
<g id="a_node8"><a xlink:title="ipc::TangentialAdhesionPotential">
<polygon fill="#ffffff" stroke="black" points="436,-252 185,-252 185,-216 436,-216 436,-252"/>
<text text-anchor="middle" x="310.5" y="-230.3" font-family="Times,serif" font-size="14.00">ipc::TangentialAdhesionPotential</text>
</a>
</g>
</g>
<!-- 9&#45;&gt;7 -->
<g id="edge7" class="edge">
<title>9&#45;&gt;7</title>
<g id="a_edge7"><a xlink:title="public&#45;inheritance">
<path fill="none" stroke="#ce93d8" d="M306.05,-215.7C304.05,-207.9 301.63,-198.51 299.4,-189.83"/>
<polygon fill="#ce93d8" stroke="#ce93d8" points="302.78,-188.92 296.9,-180.1 296,-190.66 302.78,-188.92"/>
</a>
</g>
</g>
<!-- 7&#45;&gt;6 -->
<g id="edge8" class="edge">
<title>7&#45;&gt;6</title>
<g id="a_edge8"><a xlink:title="public&#45;inheritance">
<path fill="none" stroke="#ce93d8" d="M292.5,-143.7C292.5,-135.98 292.5,-126.71 292.5,-118.11"/>
<polygon fill="#ce93d8" stroke="#ce93d8" points="296,-118.1 292.5,-108.1 289,-118.1 296,-118.1"/>
</a>
</g>
</g>
</g>
</svg>
