<?xml version="1.0" encoding="UTF-8" standalone="no"?>
<!DOCTYPE svg PUBLIC "-//W3C//DTD SVG 1.1//EN"
 "http://www.w3.org/Graphics/SVG/1.1/DTD/svg11.dtd">
<!-- Generated by graphviz version 2.43.0 (0)
 -->
<!-- Title: %3 Pages: 1 -->
<svg width="386pt" height="188pt"
 viewBox="0.00 0.00 386.00 188.00" xmlns="http://www.w3.org/2000/svg" xmlns:xlink="http://www.w3.org/1999/xlink">
<g id="graph0" class="graph" transform="scale(1 1) rotate(0) translate(4 184)">
<title>%3</title>
<polygon fill="transparent" stroke="transparent" points="-4,4 -4,-184 382,-184 382,4 -4,4"/>
<!-- 3 -->
<g id="node1" class="node">
<title>3</title>
<g id="a_node1"><a xlink:title="ipc::CollisionStencil">
<polygon fill="#ffffff" stroke="black" points="277.5,-36 119.5,-36 119.5,0 277.5,0 277.5,-36"/>
<text text-anchor="middle" x="198.5" y="-14.3" font-family="Times,serif" font-size="14.00">ipc::CollisionStencil</text>
</a>
</g>
</g>
<!-- 2 -->
<g id="node2" class="node">
<title>2</title>
<g id="a_node2"><a xlink:title="ipc::FaceVertexCandidate">
<polygon fill="#ffffff" stroke="black" points="199,-108 0,-108 0,-72 199,-72 199,-108"/>
<text text-anchor="middle" x="99.5" y="-86.3" font-family="Times,serif" font-size="14.00">ipc::FaceVertexCandidate</text>
</a>
</g>
</g>
<!-- 2&#45;&gt;3 -->
<g id="edge1" class="edge">
<title>2&#45;&gt;3</title>
<g id="a_edge1"><a xlink:title="public&#45;inheritance">
<path fill="none" stroke="#ce93d8" d="M123.72,-71.88C136.42,-62.89 152.16,-51.76 165.92,-42.03"/>
<polygon fill="#ce93d8" stroke="#ce93d8" points="168.04,-44.82 174.19,-36.19 164,-39.11 168.04,-44.82"/>
</a>
</g>
</g>
<!-- 1 -->
<g id="node3" class="node">
<title>1</title>
<g id="a_node3"><a xlink:title="ipc::FaceVertexNormalCollision">
<polygon fill="#bfbfbf" stroke="black" points="319,-180 78,-180 78,-144 319,-144 319,-180"/>
<text text-anchor="middle" x="198.5" y="-158.3" font-family="Times,serif" font-size="14.00">ipc::FaceVertexNormalCollision</text>
</a>
</g>
</g>
<!-- 1&#45;&gt;2 -->
<g id="edge2" class="edge">
<title>1&#45;&gt;2</title>
<g id="a_edge2"><a xlink:title="public&#45;inheritance">
<path fill="none" stroke="#ce93d8" d="M174.28,-143.88C161.58,-134.89 145.84,-123.76 132.08,-114.03"/>
<polygon fill="#ce93d8" stroke="#ce93d8" points="134,-111.11 123.81,-108.19 129.96,-116.82 134,-111.11"/>
</a>
</g>
</g>
<!-- 4 -->
<g id="node4" class="node">
<title>4</title>
<g id="a_node4"><a xlink:title="ipc::NormalCollision">
<polygon fill="#ffffff" stroke="black" points="378,-108 217,-108 217,-72 378,-72 378,-108"/>
<text text-anchor="middle" x="297.5" y="-86.3" font-family="Times,serif" font-size="14.00">ipc::NormalCollision</text>
</a>
</g>
</g>
<!-- 1&#45;&gt;4 -->
<g id="edge3" class="edge">
<title>1&#45;&gt;4</title>
<g id="a_edge3"><a xlink:title="public&#45;inheritance">
<path fill="none" stroke="#ce93d8" d="M222.72,-143.88C235.42,-134.89 251.16,-123.76 264.92,-114.03"/>
<polygon fill="#ce93d8" stroke="#ce93d8" points="267.04,-116.82 273.19,-108.19 263,-111.11 267.04,-116.82"/>
</a>
</g>
</g>
<!-- 4&#45;&gt;3 -->
<g id="edge4" class="edge">
<title>4&#45;&gt;3</title>
<g id="a_edge4"><a xlink:title="public&#45;inheritance">
<path fill="none" stroke="#ce93d8" d="M273.28,-71.88C260.58,-62.89 244.84,-51.76 231.08,-42.03"/>
<polygon fill="#ce93d8" stroke="#ce93d8" points="233,-39.11 222.81,-36.19 228.96,-44.82 233,-39.11"/>
</a>
</g>
</g>
</g>
</svg>
