<?xml version="1.0" encoding="UTF-8" standalone="no"?>
<!DOCTYPE svg PUBLIC "-//W3C//DTD SVG 1.1//EN"
 "http://www.w3.org/Graphics/SVG/1.1/DTD/svg11.dtd">
<!-- Generated by graphviz version 2.43.0 (0)
 -->
<!-- Title: %3 Pages: 1 -->
<svg width="504pt" height="188pt"
 viewBox="0.00 0.00 503.50 188.00" xmlns="http://www.w3.org/2000/svg" xmlns:xlink="http://www.w3.org/1999/xlink">
<g id="graph0" class="graph" transform="scale(1 1) rotate(0) translate(4 184)">
<title>%3</title>
<!-- 2 -->
<g id="node1" class="node">
<title>2</title>
<g id="a_node1"><a xlink:title="ipc::CollisionStencil">
<polygon fill="#ffffff" stroke="black" points="317,-36 167,-36 167,0 317,0 317,-36"/>
<text text-anchor="middle" x="242" y="-14.3" font-family="Menlo" font-size="14.00">ipc::CollisionStencil</text>
</a>
</g>
</g>
<!-- 1 -->
<g id="node2" class="node">
<title>1</title>
<g id="a_node2"><a xlink:title="ipc::FaceVertexCandidate">
<polygon fill="#bfbfbf" stroke="black" points="337.5,-108 146.5,-108 146.5,-72 337.5,-72 337.5,-108"/>
<text text-anchor="middle" x="242" y="-86.3" font-family="Menlo" font-size="14.00">ipc::FaceVertexCandidate</text>
</a>
</g>
</g>
<!-- 1&#45;&gt;2 -->
<g id="edge1" class="edge">
<title>1&#45;&gt;2</title>
<g id="a_edge1"><a xlink:title="public&#45;inheritance">
<path fill="none" stroke="#ce93d8" d="M242,-71.7C242,-63.98 242,-54.71 242,-46.11"/>
<polygon fill="#ce93d8" stroke="#ce93d8" points="245.5,-46.1 242,-36.1 238.5,-46.1 245.5,-46.1"/>
</a>
</g>
</g>
<!-- 3 -->
<g id="node3" class="node">
<title>3</title>
<g id="a_node3"><a xlink:title="ipc::FaceVertexNormalCollision">
<polygon fill="#ffffff" stroke="black" points="228,-180 0,-180 0,-144 228,-144 228,-180"/>
<text text-anchor="middle" x="114" y="-158.3" font-family="Menlo" font-size="14.00">ipc::FaceVertexNormalCollision</text>
</a>
</g>
</g>
<!-- 3&#45;&gt;1 -->
<g id="edge2" class="edge">
<title>3&#45;&gt;1</title>
<g id="a_edge2"><a xlink:title="public&#45;inheritance">
<path fill="none" stroke="#ce93d8" d="M145.31,-143.88C162.2,-134.64 183.25,-123.13 201.38,-113.21"/>
<polygon fill="#ce93d8" stroke="#ce93d8" points="203.47,-116.06 210.57,-108.19 200.11,-109.92 203.47,-116.06"/>
</a>
</g>
</g>
<!-- 4 -->
<g id="node4" class="node">
<title>4</title>
<g id="a_node4"><a xlink:title="ipc::FaceVertexTangentialCollision">
<polygon fill="#ffffff" stroke="black" points="495.5,-180 246.5,-180 246.5,-144 495.5,-144 495.5,-180"/>
<text text-anchor="middle" x="371" y="-158.3" font-family="Menlo" font-size="14.00">ipc::FaceVertexTangentialCollision</text>
</a>
</g>
</g>
<!-- 4&#45;&gt;1 -->
<g id="edge3" class="edge">
<title>4&#45;&gt;1</title>
<g id="a_edge3"><a xlink:title="public&#45;inheritance">
<path fill="none" stroke="#ce93d8" d="M339.44,-143.88C322.34,-134.6 301.02,-123.03 282.68,-113.08"/>
<polygon fill="#ce93d8" stroke="#ce93d8" points="284.14,-109.88 273.68,-108.19 280.8,-116.04 284.14,-109.88"/>
</a>
</g>
</g>
</g>
</svg>
