<?xml version="1.0" encoding="UTF-8" standalone="no"?>
<!DOCTYPE svg PUBLIC "-//W3C//DTD SVG 1.1//EN"
 "http://www.w3.org/Graphics/SVG/1.1/DTD/svg11.dtd">
<!-- Generated by graphviz version 2.43.0 (0)
 -->
<!-- Title: %3 Pages: 1 -->
<svg width="700pt" height="116pt"
 viewBox="0.00 0.00 699.50 116.00" xmlns="http://www.w3.org/2000/svg" xmlns:xlink="http://www.w3.org/1999/xlink">
<g id="graph0" class="graph" transform="scale(1 1) rotate(0) translate(4 112)">
<title>%3</title>
<polygon fill="transparent" stroke="transparent" points="-4,4 -4,-112 695.5,-112 695.5,4 -4,4"/>
<!-- 2 -->
<g id="node1" class="node">
<title>2</title>
<g id="a_node1"><a xlink:title="ipc::BVH">
<polygon fill="#ffffff" stroke="black" points="79,-108 0,-108 0,-72 79,-72 79,-108"/>
<text text-anchor="middle" x="39.5" y="-86.3" font-family="Times,serif" font-size="14.00">ipc::BVH</text>
</a>
</g>
</g>
<!-- 1 -->
<g id="node4" class="node">
<title>1</title>
<g id="a_node4"><a xlink:title="ipc::BroadPhase">
<polygon fill="#bfbfbf" stroke="black" points="359.5,-36 227.5,-36 227.5,0 359.5,0 359.5,-36"/>
<text text-anchor="middle" x="293.5" y="-14.3" font-family="Times,serif" font-size="14.00">ipc::BroadPhase</text>
</a>
</g>
</g>
<!-- 2&#45;&gt;1 -->
<g id="edge1" class="edge">
<title>2&#45;&gt;1</title>
<g id="a_edge1"><a xlink:title="public&#45;inheritance">
<path fill="none" stroke="#ce93d8" d="M79.22,-74.63C82.01,-73.71 84.79,-72.83 87.5,-72 130.16,-58.99 178.41,-46.46 217.49,-36.85"/>
<polygon fill="#ce93d8" stroke="#ce93d8" points="218.33,-40.25 227.22,-34.47 216.67,-33.45 218.33,-40.25"/>
</a>
</g>
</g>
<!-- 4 -->
<g id="node2" class="node">
<title>4</title>
<g id="a_node2"><a xlink:title="ipc::HashGrid">
<polygon fill="#ffffff" stroke="black" points="212,-108 97,-108 97,-72 212,-72 212,-108"/>
<text text-anchor="middle" x="154.5" y="-86.3" font-family="Times,serif" font-size="14.00">ipc::HashGrid</text>
</a>
</g>
</g>
<!-- 4&#45;&gt;1 -->
<g id="edge2" class="edge">
<title>4&#45;&gt;1</title>
<g id="a_edge2"><a xlink:title="public&#45;inheritance">
<path fill="none" stroke="#ce93d8" d="M188.5,-71.88C207.1,-62.51 230.33,-50.81 250.21,-40.8"/>
<polygon fill="#ce93d8" stroke="#ce93d8" points="252.01,-43.81 259.37,-36.19 248.86,-37.56 252.01,-43.81"/>
</a>
</g>
</g>
<!-- 3 -->
<g id="node3" class="node">
<title>3</title>
<g id="a_node3"><a xlink:title="ipc::BruteForce">
<polygon fill="#ffffff" stroke="black" points="357,-108 230,-108 230,-72 357,-72 357,-108"/>
<text text-anchor="middle" x="293.5" y="-86.3" font-family="Times,serif" font-size="14.00">ipc::BruteForce</text>
</a>
</g>
</g>
<!-- 3&#45;&gt;1 -->
<g id="edge3" class="edge">
<title>3&#45;&gt;1</title>
<g id="a_edge3"><a xlink:title="public&#45;inheritance">
<path fill="none" stroke="#ce93d8" d="M293.5,-71.7C293.5,-63.98 293.5,-54.71 293.5,-46.11"/>
<polygon fill="#ce93d8" stroke="#ce93d8" points="297,-46.1 293.5,-36.1 290,-46.1 297,-46.1"/>
</a>
</g>
</g>
<!-- 5 -->
<g id="node5" class="node">
<title>5</title>
<g id="a_node5"><a xlink:title="ipc::SpatialHash">
<polygon fill="#ffffff" stroke="black" points="509.5,-108 375.5,-108 375.5,-72 509.5,-72 509.5,-108"/>
<text text-anchor="middle" x="442.5" y="-86.3" font-family="Times,serif" font-size="14.00">ipc::SpatialHash</text>
</a>
</g>
</g>
<!-- 5&#45;&gt;1 -->
<g id="edge4" class="edge">
<title>5&#45;&gt;1</title>
<g id="a_edge4"><a xlink:title="public&#45;inheritance">
<path fill="none" stroke="#ce93d8" d="M406.05,-71.88C385.86,-62.39 360.58,-50.51 339.09,-40.42"/>
<polygon fill="#ce93d8" stroke="#ce93d8" points="340.37,-37.15 329.83,-36.07 337.39,-43.49 340.37,-37.15"/>
</a>
</g>
</g>
<!-- 6 -->
<g id="node6" class="node">
<title>6</title>
<g id="a_node6"><a xlink:title="ipc::SweepAndPrune">
<polygon fill="#ffffff" stroke="black" points="691.5,-108 527.5,-108 527.5,-72 691.5,-72 691.5,-108"/>
<text text-anchor="middle" x="609.5" y="-86.3" font-family="Times,serif" font-size="14.00">ipc::SweepAndPrune</text>
</a>
</g>
</g>
<!-- 6&#45;&gt;1 -->
<g id="edge5" class="edge">
<title>6&#45;&gt;1</title>
<g id="a_edge5"><a xlink:title="public&#45;inheritance">
<path fill="none" stroke="#ce93d8" d="M532.6,-71.97C483.12,-61 419.08,-46.82 369.73,-35.89"/>
<polygon fill="#ce93d8" stroke="#ce93d8" points="370.27,-32.42 359.75,-33.68 368.76,-39.26 370.27,-32.42"/>
</a>
</g>
</g>
</g>
</svg>
