<?xml version="1.0" encoding="UTF-8" standalone="no"?>
<!DOCTYPE svg PUBLIC "-//W3C//DTD SVG 1.1//EN"
 "http://www.w3.org/Graphics/SVG/1.1/DTD/svg11.dtd">
<!-- Generated by graphviz version 2.43.0 (0)
 -->
<!-- Title: %3 Pages: 1 -->
<svg width="459pt" height="188pt"
 viewBox="0.00 0.00 459.00 188.00" xmlns="http://www.w3.org/2000/svg" xmlns:xlink="http://www.w3.org/1999/xlink">
<g id="graph0" class="graph" transform="scale(1 1) rotate(0) translate(4 184)">
<title>%3</title>
<polygon fill="transparent" stroke="transparent" points="-4,4 -4,-184 455,-184 455,4 -4,4"/>
<!-- 4 -->
<g id="node1" class="node">
<title>4</title>
<g id="a_node1"><a xlink:title="ipc::ContinuousCollisionCandidate">
<polygon fill="#ffffff" stroke="black" points="262,-36 0,-36 0,0 262,0 262,-36"/>
<text text-anchor="middle" x="131" y="-14.3" font-family="Times,serif" font-size="14.00">ipc::ContinuousCollisionCandidate</text>
</a>
</g>
</g>
<!-- 2 -->
<g id="node2" class="node">
<title>2</title>
<g id="a_node2"><a xlink:title="ipc::FaceVertexCandidate">
<polygon fill="#ffffff" stroke="black" points="248.5,-108 49.5,-108 49.5,-72 248.5,-72 248.5,-108"/>
<text text-anchor="middle" x="149" y="-86.3" font-family="Times,serif" font-size="14.00">ipc::FaceVertexCandidate</text>
</a>
</g>
</g>
<!-- 2&#45;&gt;4 -->
<g id="edge2" class="edge">
<title>2&#45;&gt;4</title>
<g id="a_edge2"><a xlink:title="public&#45;inheritance">
<path fill="none" stroke="#ce93d8" d="M144.55,-71.7C142.55,-63.9 140.13,-54.51 137.9,-45.83"/>
<polygon fill="#ce93d8" stroke="#ce93d8" points="141.28,-44.92 135.4,-36.1 134.5,-46.66 141.28,-44.92"/>
</a>
</g>
</g>
<!-- 3 -->
<g id="node3" class="node">
<title>3</title>
<g id="a_node3"><a xlink:title="ipc::CollisionStencil">
<polygon fill="#ffffff" stroke="black" points="438,-36 280,-36 280,0 438,0 438,-36"/>
<text text-anchor="middle" x="359" y="-14.3" font-family="Times,serif" font-size="14.00">ipc::CollisionStencil</text>
</a>
</g>
</g>
<!-- 2&#45;&gt;3 -->
<g id="edge1" class="edge">
<title>2&#45;&gt;3</title>
<g id="a_edge1"><a xlink:title="public&#45;inheritance">
<path fill="none" stroke="#ce93d8" d="M200.1,-71.97C229.57,-62.14 266.81,-49.73 297.83,-39.39"/>
<polygon fill="#ce93d8" stroke="#ce93d8" points="299.29,-42.59 307.67,-36.11 297.07,-35.95 299.29,-42.59"/>
</a>
</g>
</g>
<!-- 1 -->
<g id="node4" class="node">
<title>1</title>
<g id="a_node4"><a xlink:title="ipc::FaceVertexConstraint">
<polygon fill="#bfbfbf" stroke="black" points="355,-180 153,-180 153,-144 355,-144 355,-180"/>
<text text-anchor="middle" x="254" y="-158.3" font-family="Times,serif" font-size="14.00">ipc::FaceVertexConstraint</text>
</a>
</g>
</g>
<!-- 1&#45;&gt;2 -->
<g id="edge3" class="edge">
<title>1&#45;&gt;2</title>
<g id="a_edge3"><a xlink:title="public&#45;inheritance">
<path fill="none" stroke="#ce93d8" d="M228.31,-143.88C214.71,-134.81 197.83,-123.55 183.14,-113.76"/>
<polygon fill="#ce93d8" stroke="#ce93d8" points="185.05,-110.82 174.78,-108.19 181.16,-116.65 185.05,-110.82"/>
</a>
</g>
</g>
<!-- 5 -->
<g id="node5" class="node">
<title>5</title>
<g id="a_node5"><a xlink:title="ipc::CollisionConstraint">
<polygon fill="#ffffff" stroke="black" points="451,-108 267,-108 267,-72 451,-72 451,-108"/>
<text text-anchor="middle" x="359" y="-86.3" font-family="Times,serif" font-size="14.00">ipc::CollisionConstraint</text>
</a>
</g>
</g>
<!-- 1&#45;&gt;5 -->
<g id="edge4" class="edge">
<title>1&#45;&gt;5</title>
<g id="a_edge4"><a xlink:title="public&#45;inheritance">
<path fill="none" stroke="#ce93d8" d="M279.69,-143.88C293.29,-134.81 310.17,-123.55 324.86,-113.76"/>
<polygon fill="#ce93d8" stroke="#ce93d8" points="326.84,-116.65 333.22,-108.19 322.95,-110.82 326.84,-116.65"/>
</a>
</g>
</g>
<!-- 5&#45;&gt;3 -->
<g id="edge5" class="edge">
<title>5&#45;&gt;3</title>
<g id="a_edge5"><a xlink:title="public&#45;inheritance">
<path fill="none" stroke="#ce93d8" d="M359,-71.7C359,-63.98 359,-54.71 359,-46.11"/>
<polygon fill="#ce93d8" stroke="#ce93d8" points="362.5,-46.1 359,-36.1 355.5,-46.1 362.5,-46.1"/>
</a>
</g>
</g>
</g>
</svg>
