<?xml version="1.0" encoding="UTF-8" standalone="no"?>
<!DOCTYPE svg PUBLIC "-//W3C//DTD SVG 1.1//EN"
 "http://www.w3.org/Graphics/SVG/1.1/DTD/svg11.dtd">
<!-- Generated by graphviz version 2.43.0 (0)
 -->
<!-- Title: %3 Pages: 1 -->
<svg width="1244pt" height="188pt"
 viewBox="0.00 0.00 1244.00 188.00" xmlns="http://www.w3.org/2000/svg" xmlns:xlink="http://www.w3.org/1999/xlink">
<g id="graph0" class="graph" transform="scale(1 1) rotate(0) translate(4 184)">
<title>%3</title>
<!-- 2 -->
<g id="node1" class="node">
<title>2</title>
<g id="a_node1"><a xlink:title="ipc::CollisionStencil">
<polygon fill="#ffffff" stroke="black" points="683,-36 533,-36 533,0 683,0 683,-36"/>
<text text-anchor="middle" x="608" y="-14.3" font-family="Menlo" font-size="14.00">ipc::CollisionStencil</text>
</a>
</g>
</g>
<!-- 3 -->
<g id="node2" class="node">
<title>3</title>
<g id="a_node2"><a xlink:title="ipc::EdgeEdgeNormalCollision">
<polygon fill="#ffffff" stroke="black" points="224,-180 0,-180 0,-144 224,-144 224,-180"/>
<text text-anchor="middle" x="112" y="-158.3" font-family="Menlo" font-size="14.00">ipc::EdgeEdgeNormalCollision</text>
</a>
</g>
</g>
<!-- 1 -->
<g id="node5" class="node">
<title>1</title>
<g id="a_node5"><a xlink:title="ipc::NormalCollision">
<polygon fill="#bfbfbf" stroke="black" points="684.5,-108 531.5,-108 531.5,-72 684.5,-72 684.5,-108"/>
<text text-anchor="middle" x="608" y="-86.3" font-family="Menlo" font-size="14.00">ipc::NormalCollision</text>
</a>
</g>
</g>
<!-- 3&#45;&gt;1 -->
<g id="edge1" class="edge">
<title>3&#45;&gt;1</title>
<g id="a_edge1"><a xlink:title="public&#45;inheritance">
<path fill="none" stroke="#ce93d8" d="M224.24,-145.16C314.22,-132.46 438.67,-114.9 521.15,-103.26"/>
<polygon fill="#ce93d8" stroke="#ce93d8" points="521.84,-106.69 531.25,-101.83 520.86,-99.76 521.84,-106.69"/>
</a>
</g>
</g>
<!-- 4 -->
<g id="node3" class="node">
<title>4</title>
<g id="a_node3"><a xlink:title="ipc::EdgeVertexNormalCollision">
<polygon fill="#ffffff" stroke="black" points="475.5,-180 242.5,-180 242.5,-144 475.5,-144 475.5,-180"/>
<text text-anchor="middle" x="359" y="-158.3" font-family="Menlo" font-size="14.00">ipc::EdgeVertexNormalCollision</text>
</a>
</g>
</g>
<!-- 4&#45;&gt;1 -->
<g id="edge2" class="edge">
<title>4&#45;&gt;1</title>
<g id="a_edge2"><a xlink:title="public&#45;inheritance">
<path fill="none" stroke="#ce93d8" d="M419.59,-143.97C455.14,-133.97 500.22,-121.3 537.38,-110.85"/>
<polygon fill="#ce93d8" stroke="#ce93d8" points="538.45,-114.19 547.13,-108.11 536.56,-107.45 538.45,-114.19"/>
</a>
</g>
</g>
<!-- 5 -->
<g id="node4" class="node">
<title>5</title>
<g id="a_node4"><a xlink:title="ipc::FaceVertexNormalCollision">
<polygon fill="#ffffff" stroke="black" points="722,-180 494,-180 494,-144 722,-144 722,-180"/>
<text text-anchor="middle" x="608" y="-158.3" font-family="Menlo" font-size="14.00">ipc::FaceVertexNormalCollision</text>
</a>
</g>
</g>
<!-- 5&#45;&gt;1 -->
<g id="edge3" class="edge">
<title>5&#45;&gt;1</title>
<g id="a_edge3"><a xlink:title="public&#45;inheritance">
<path fill="none" stroke="#ce93d8" d="M608,-143.7C608,-135.98 608,-126.71 608,-118.11"/>
<polygon fill="#ce93d8" stroke="#ce93d8" points="611.5,-118.1 608,-108.1 604.5,-118.1 611.5,-118.1"/>
</a>
</g>
</g>
<!-- 1&#45;&gt;2 -->
<g id="edge4" class="edge">
<title>1&#45;&gt;2</title>
<g id="a_edge4"><a xlink:title="public&#45;inheritance">
<path fill="none" stroke="#ce93d8" d="M608,-71.7C608,-63.98 608,-54.71 608,-46.11"/>
<polygon fill="#ce93d8" stroke="#ce93d8" points="611.5,-46.1 608,-36.1 604.5,-46.1 611.5,-46.1"/>
</a>
</g>
</g>
<!-- 6 -->
<g id="node6" class="node">
<title>6</title>
<g id="a_node6"><a xlink:title="ipc::PlaneVertexNormalCollision">
<polygon fill="#ffffff" stroke="black" points="975.5,-180 740.5,-180 740.5,-144 975.5,-144 975.5,-180"/>
<text text-anchor="middle" x="858" y="-158.3" font-family="Menlo" font-size="14.00">ipc::PlaneVertexNormalCollision</text>
</a>
</g>
</g>
<!-- 6&#45;&gt;1 -->
<g id="edge5" class="edge">
<title>6&#45;&gt;1</title>
<g id="a_edge5"><a xlink:title="public&#45;inheritance">
<path fill="none" stroke="#ce93d8" d="M797.16,-143.97C761.47,-133.97 716.21,-121.3 678.91,-110.85"/>
<polygon fill="#ce93d8" stroke="#ce93d8" points="679.68,-107.44 669.11,-108.11 677.8,-114.18 679.68,-107.44"/>
</a>
</g>
</g>
<!-- 7 -->
<g id="node7" class="node">
<title>7</title>
<g id="a_node7"><a xlink:title="ipc::VertexVertexNormalCollision">
<polygon fill="#ffffff" stroke="black" points="1236,-180 994,-180 994,-144 1236,-144 1236,-180"/>
<text text-anchor="middle" x="1115" y="-158.3" font-family="Menlo" font-size="14.00">ipc::VertexVertexNormalCollision</text>
</a>
</g>
</g>
<!-- 7&#45;&gt;1 -->
<g id="edge6" class="edge">
<title>7&#45;&gt;1</title>
<g id="a_edge6"><a xlink:title="public&#45;inheritance">
<path fill="none" stroke="#ce93d8" d="M993.88,-144.28C901.79,-131.56 777.3,-114.37 694.92,-103"/>
<polygon fill="#ce93d8" stroke="#ce93d8" points="695.22,-99.51 684.84,-101.61 694.27,-106.44 695.22,-99.51"/>
</a>
</g>
</g>
</g>
</svg>
