<?xml version="1.0" encoding="UTF-8" standalone="no"?>
<!DOCTYPE svg PUBLIC "-//W3C//DTD SVG 1.1//EN"
 "http://www.w3.org/Graphics/SVG/1.1/DTD/svg11.dtd">
<!-- Generated by graphviz version 2.43.0 (0)
 -->
<!-- Title: %3 Pages: 1 -->
<svg width="2173pt" height="260pt"
 viewBox="0.00 0.00 2172.50 260.00" xmlns="http://www.w3.org/2000/svg" xmlns:xlink="http://www.w3.org/1999/xlink">
<g id="graph0" class="graph" transform="scale(1 1) rotate(0) translate(4 256)">
<title>%3</title>
<polygon fill="transparent" stroke="transparent" points="-4,4 -4,-256 2168.5,-256 2168.5,4 -4,4"/>
<!-- 13 -->
<g id="node1" class="node">
<title>13</title>
<g id="a_node1"><a xlink:title="ipc::VertexVertexNormalCollision">
<polygon fill="#ffffff" stroke="black" points="254,-252 0,-252 0,-216 254,-216 254,-252"/>
<text text-anchor="middle" x="127" y="-230.3" font-family="Times,serif" font-size="14.00">ipc::VertexVertexNormalCollision</text>
</a>
</g>
</g>
<!-- 12 -->
<g id="node9" class="node">
<title>12</title>
<g id="a_node9"><a xlink:title="ipc::VertexVertexCandidate">
<polygon fill="#ffffff" stroke="black" points="516,-180 304,-180 304,-144 516,-144 516,-180"/>
<text text-anchor="middle" x="410" y="-158.3" font-family="Times,serif" font-size="14.00">ipc::VertexVertexCandidate</text>
</a>
</g>
</g>
<!-- 13&#45;&gt;12 -->
<g id="edge1" class="edge">
<title>13&#45;&gt;12</title>
<g id="a_edge1"><a xlink:title="public&#45;inheritance">
<path fill="none" stroke="#ce93d8" d="M195.87,-215.97C236.7,-205.87 288.6,-193.03 331.08,-182.52"/>
<polygon fill="#ce93d8" stroke="#ce93d8" points="331.96,-185.91 340.82,-180.11 330.28,-179.11 331.96,-185.91"/>
</a>
</g>
</g>
<!-- 1 -->
<g id="node2" class="node">
<title>1</title>
<g id="a_node2"><a xlink:title="ipc::ContinuousCollisionCandidate">
<polygon fill="#bfbfbf" stroke="black" points="1224,-108 962,-108 962,-72 1224,-72 1224,-108"/>
<text text-anchor="middle" x="1093" y="-86.3" font-family="Times,serif" font-size="14.00">ipc::ContinuousCollisionCandidate</text>
</a>
</g>
</g>
<!-- 2 -->
<g id="node5" class="node">
<title>2</title>
<g id="a_node5"><a xlink:title="ipc::CollisionStencil">
<polygon fill="#ffffff" stroke="black" points="1172,-36 1014,-36 1014,0 1172,0 1172,-36"/>
<text text-anchor="middle" x="1093" y="-14.3" font-family="Times,serif" font-size="14.00">ipc::CollisionStencil</text>
</a>
</g>
</g>
<!-- 1&#45;&gt;2 -->
<g id="edge2" class="edge">
<title>1&#45;&gt;2</title>
<g id="a_edge2"><a xlink:title="public&#45;inheritance">
<path fill="none" stroke="#ce93d8" d="M1093,-71.7C1093,-63.98 1093,-54.71 1093,-46.11"/>
<polygon fill="#ce93d8" stroke="#ce93d8" points="1096.5,-46.1 1093,-36.1 1089.5,-46.1 1096.5,-46.1"/>
</a>
</g>
</g>
<!-- 10 -->
<g id="node3" class="node">
<title>10</title>
<g id="a_node3"><a xlink:title="ipc::FaceVertexNormalCollision">
<polygon fill="#ffffff" stroke="black" points="807.5,-252 566.5,-252 566.5,-216 807.5,-216 807.5,-252"/>
<text text-anchor="middle" x="687" y="-230.3" font-family="Times,serif" font-size="14.00">ipc::FaceVertexNormalCollision</text>
</a>
</g>
</g>
<!-- 9 -->
<g id="node4" class="node">
<title>9</title>
<g id="a_node4"><a xlink:title="ipc::FaceVertexCandidate">
<polygon fill="#ffffff" stroke="black" points="1056.5,-180 857.5,-180 857.5,-144 1056.5,-144 1056.5,-180"/>
<text text-anchor="middle" x="957" y="-158.3" font-family="Times,serif" font-size="14.00">ipc::FaceVertexCandidate</text>
</a>
</g>
</g>
<!-- 10&#45;&gt;9 -->
<g id="edge3" class="edge">
<title>10&#45;&gt;9</title>
<g id="a_edge3"><a xlink:title="public&#45;inheritance">
<path fill="none" stroke="#ce93d8" d="M752.7,-215.97C791.5,-205.91 840.76,-193.14 881.19,-182.65"/>
<polygon fill="#ce93d8" stroke="#ce93d8" points="882.2,-186.01 891,-180.11 880.44,-179.23 882.2,-186.01"/>
</a>
</g>
</g>
<!-- 9&#45;&gt;1 -->
<g id="edge4" class="edge">
<title>9&#45;&gt;1</title>
<g id="a_edge4"><a xlink:title="public&#45;inheritance">
<path fill="none" stroke="#ce93d8" d="M990.27,-143.88C1008.46,-134.51 1031.19,-122.81 1050.64,-112.8"/>
<polygon fill="#ce93d8" stroke="#ce93d8" points="1052.31,-115.88 1059.6,-108.19 1049.11,-109.65 1052.31,-115.88"/>
</a>
</g>
</g>
<!-- 6 -->
<g id="node6" class="node">
<title>6</title>
<g id="a_node6"><a xlink:title="ipc::EdgeVertexCandidate">
<polygon fill="#ffffff" stroke="black" points="1330.5,-180 1127.5,-180 1127.5,-144 1330.5,-144 1330.5,-180"/>
<text text-anchor="middle" x="1229" y="-158.3" font-family="Times,serif" font-size="14.00">ipc::EdgeVertexCandidate</text>
</a>
</g>
</g>
<!-- 6&#45;&gt;1 -->
<g id="edge5" class="edge">
<title>6&#45;&gt;1</title>
<g id="a_edge5"><a xlink:title="public&#45;inheritance">
<path fill="none" stroke="#ce93d8" d="M1195.73,-143.88C1177.54,-134.51 1154.81,-122.81 1135.36,-112.8"/>
<polygon fill="#ce93d8" stroke="#ce93d8" points="1136.89,-109.65 1126.4,-108.19 1133.69,-115.88 1136.89,-109.65"/>
</a>
</g>
</g>
<!-- 11 -->
<g id="node7" class="node">
<title>11</title>
<g id="a_node7"><a xlink:title="ipc::FaceVertexTangentialCollision">
<polygon fill="#ffffff" stroke="black" points="1088.5,-252 825.5,-252 825.5,-216 1088.5,-216 1088.5,-252"/>
<text text-anchor="middle" x="957" y="-230.3" font-family="Times,serif" font-size="14.00">ipc::FaceVertexTangentialCollision</text>
</a>
</g>
</g>
<!-- 11&#45;&gt;9 -->
<g id="edge6" class="edge">
<title>11&#45;&gt;9</title>
<g id="a_edge6"><a xlink:title="public&#45;inheritance">
<path fill="none" stroke="#ce93d8" d="M957,-215.7C957,-207.98 957,-198.71 957,-190.11"/>
<polygon fill="#ce93d8" stroke="#ce93d8" points="960.5,-190.1 957,-180.1 953.5,-190.1 960.5,-190.1"/>
</a>
</g>
</g>
<!-- 4 -->
<g id="node8" class="node">
<title>4</title>
<g id="a_node8"><a xlink:title="ipc::EdgeEdgeNormalCollision">
<polygon fill="#ffffff" stroke="black" points="1889.5,-252 1654.5,-252 1654.5,-216 1889.5,-216 1889.5,-252"/>
<text text-anchor="middle" x="1772" y="-230.3" font-family="Times,serif" font-size="14.00">ipc::EdgeEdgeNormalCollision</text>
</a>
</g>
</g>
<!-- 3 -->
<g id="node11" class="node">
<title>3</title>
<g id="a_node11"><a xlink:title="ipc::EdgeEdgeCandidate">
<polygon fill="#ffffff" stroke="black" points="1868.5,-180 1675.5,-180 1675.5,-144 1868.5,-144 1868.5,-180"/>
<text text-anchor="middle" x="1772" y="-158.3" font-family="Times,serif" font-size="14.00">ipc::EdgeEdgeCandidate</text>
</a>
</g>
</g>
<!-- 4&#45;&gt;3 -->
<g id="edge7" class="edge">
<title>4&#45;&gt;3</title>
<g id="a_edge7"><a xlink:title="public&#45;inheritance">
<path fill="none" stroke="#ce93d8" d="M1772,-215.7C1772,-207.98 1772,-198.71 1772,-190.11"/>
<polygon fill="#ce93d8" stroke="#ce93d8" points="1775.5,-190.1 1772,-180.1 1768.5,-190.1 1775.5,-190.1"/>
</a>
</g>
</g>
<!-- 12&#45;&gt;1 -->
<g id="edge8" class="edge">
<title>12&#45;&gt;1</title>
<g id="a_edge8"><a xlink:title="public&#45;inheritance">
<path fill="none" stroke="#ce93d8" d="M516.34,-150.1C633.46,-138.1 822.31,-118.74 951.77,-105.47"/>
<polygon fill="#ce93d8" stroke="#ce93d8" points="952.17,-108.95 961.77,-104.45 951.46,-101.99 952.17,-108.95"/>
</a>
</g>
</g>
<!-- 7 -->
<g id="node10" class="node">
<title>7</title>
<g id="a_node10"><a xlink:title="ipc::EdgeVertexNormalCollision">
<polygon fill="#ffffff" stroke="black" points="1351.5,-252 1106.5,-252 1106.5,-216 1351.5,-216 1351.5,-252"/>
<text text-anchor="middle" x="1229" y="-230.3" font-family="Times,serif" font-size="14.00">ipc::EdgeVertexNormalCollision</text>
</a>
</g>
</g>
<!-- 7&#45;&gt;6 -->
<g id="edge9" class="edge">
<title>7&#45;&gt;6</title>
<g id="a_edge9"><a xlink:title="public&#45;inheritance">
<path fill="none" stroke="#ce93d8" d="M1229,-215.7C1229,-207.98 1229,-198.71 1229,-190.11"/>
<polygon fill="#ce93d8" stroke="#ce93d8" points="1232.5,-190.1 1229,-180.1 1225.5,-190.1 1232.5,-190.1"/>
</a>
</g>
</g>
<!-- 3&#45;&gt;1 -->
<g id="edge10" class="edge">
<title>3&#45;&gt;1</title>
<g id="a_edge10"><a xlink:title="public&#45;inheritance">
<path fill="none" stroke="#ce93d8" d="M1675.44,-151.05C1560.18,-139.16 1366.47,-119.19 1234.36,-105.57"/>
<polygon fill="#ce93d8" stroke="#ce93d8" points="1234.46,-102.07 1224.16,-104.52 1233.75,-109.03 1234.46,-102.07"/>
</a>
</g>
</g>
<!-- 8 -->
<g id="node12" class="node">
<title>8</title>
<g id="a_node12"><a xlink:title="ipc::EdgeVertexTangentialCollision">
<polygon fill="#ffffff" stroke="black" points="1636,-252 1370,-252 1370,-216 1636,-216 1636,-252"/>
<text text-anchor="middle" x="1503" y="-230.3" font-family="Times,serif" font-size="14.00">ipc::EdgeVertexTangentialCollision</text>
</a>
</g>
</g>
<!-- 8&#45;&gt;6 -->
<g id="edge11" class="edge">
<title>8&#45;&gt;6</title>
<g id="a_edge11"><a xlink:title="public&#45;inheritance">
<path fill="none" stroke="#ce93d8" d="M1436.32,-215.97C1396.87,-205.89 1346.75,-193.08 1305.67,-182.59"/>
<polygon fill="#ce93d8" stroke="#ce93d8" points="1306.53,-179.2 1295.98,-180.11 1304.8,-185.98 1306.53,-179.2"/>
</a>
</g>
</g>
<!-- 5 -->
<g id="node13" class="node">
<title>5</title>
<g id="a_node13"><a xlink:title="ipc::EdgeEdgeTangentialCollision">
<polygon fill="#ffffff" stroke="black" points="2164.5,-252 1907.5,-252 1907.5,-216 2164.5,-216 2164.5,-252"/>
<text text-anchor="middle" x="2036" y="-230.3" font-family="Times,serif" font-size="14.00">ipc::EdgeEdgeTangentialCollision</text>
</a>
</g>
</g>
<!-- 5&#45;&gt;3 -->
<g id="edge12" class="edge">
<title>5&#45;&gt;3</title>
<g id="a_edge12"><a xlink:title="public&#45;inheritance">
<path fill="none" stroke="#ce93d8" d="M1971.76,-215.97C1933.91,-205.93 1885.86,-193.19 1846.38,-182.72"/>
<polygon fill="#ce93d8" stroke="#ce93d8" points="1847.1,-179.29 1836.53,-180.11 1845.3,-186.06 1847.1,-179.29"/>
</a>
</g>
</g>
<!-- 14 -->
<g id="node14" class="node">
<title>14</title>
<g id="a_node14"><a xlink:title="ipc::VertexVertexTangentialCollision">
<polygon fill="#ffffff" stroke="black" points="548,-252 272,-252 272,-216 548,-216 548,-252"/>
<text text-anchor="middle" x="410" y="-230.3" font-family="Times,serif" font-size="14.00">ipc::VertexVertexTangentialCollision</text>
</a>
</g>
</g>
<!-- 14&#45;&gt;12 -->
<g id="edge13" class="edge">
<title>14&#45;&gt;12</title>
<g id="a_edge13"><a xlink:title="public&#45;inheritance">
<path fill="none" stroke="#ce93d8" d="M410,-215.7C410,-207.98 410,-198.71 410,-190.11"/>
<polygon fill="#ce93d8" stroke="#ce93d8" points="413.5,-190.1 410,-180.1 406.5,-190.1 413.5,-190.1"/>
</a>
</g>
</g>
</g>
</svg>
