<?xml version="1.0" encoding="UTF-8" standalone="no"?>
<!DOCTYPE svg PUBLIC "-//W3C//DTD SVG 1.1//EN"
 "http://www.w3.org/Graphics/SVG/1.1/DTD/svg11.dtd">
<!-- Generated by graphviz version 2.43.0 (0)
 -->
<!-- Title: %3 Pages: 1 -->
<svg width="418pt" height="188pt"
 viewBox="0.00 0.00 417.50 188.00" xmlns="http://www.w3.org/2000/svg" xmlns:xlink="http://www.w3.org/1999/xlink">
<g id="graph0" class="graph" transform="scale(1 1) rotate(0) translate(4 184)">
<title>%3</title>
<polygon fill="transparent" stroke="transparent" points="-4,4 -4,-184 413.5,-184 413.5,4 -4,4"/>
<!-- 2 -->
<g id="node1" class="node">
<title>2</title>
<g id="a_node1"><a xlink:title="ipc::Potential&lt; NormalCollisions &gt;">
<polygon fill="#ffffff" stroke="black" points="321,-36 55,-36 55,0 321,0 321,-36"/>
<text text-anchor="middle" x="188" y="-14.3" font-family="Times,serif" font-size="14.00">ipc::Potential&lt; NormalCollisions &gt;</text>
</a>
</g>
</g>
<!-- 3 -->
<g id="node2" class="node">
<title>3</title>
<g id="a_node2"><a xlink:title="ipc::BarrierPotential">
<polygon fill="#ffffff" stroke="black" points="162,-180 0,-180 0,-144 162,-144 162,-180"/>
<text text-anchor="middle" x="81" y="-158.3" font-family="Times,serif" font-size="14.00">ipc::BarrierPotential</text>
</a>
</g>
</g>
<!-- 1 -->
<g id="node4" class="node">
<title>1</title>
<g id="a_node4"><a xlink:title="ipc::NormalPotential">
<polygon fill="#bfbfbf" stroke="black" points="270,-108 106,-108 106,-72 270,-72 270,-108"/>
<text text-anchor="middle" x="188" y="-86.3" font-family="Times,serif" font-size="14.00">ipc::NormalPotential</text>
</a>
</g>
</g>
<!-- 3&#45;&gt;1 -->
<g id="edge1" class="edge">
<title>3&#45;&gt;1</title>
<g id="a_edge1"><a xlink:title="public&#45;inheritance">
<path fill="none" stroke="#ce93d8" d="M107.18,-143.88C121.04,-134.81 138.24,-123.55 153.21,-113.76"/>
<polygon fill="#ce93d8" stroke="#ce93d8" points="155.27,-116.59 161.72,-108.19 151.44,-110.74 155.27,-116.59"/>
</a>
</g>
</g>
<!-- 4 -->
<g id="node3" class="node">
<title>4</title>
<g id="a_node3"><a xlink:title="ipc::NormalAdhesionPotential">
<polygon fill="#ffffff" stroke="black" points="409.5,-180 180.5,-180 180.5,-144 409.5,-144 409.5,-180"/>
<text text-anchor="middle" x="295" y="-158.3" font-family="Times,serif" font-size="14.00">ipc::NormalAdhesionPotential</text>
</a>
</g>
</g>
<!-- 4&#45;&gt;1 -->
<g id="edge2" class="edge">
<title>4&#45;&gt;1</title>
<g id="a_edge2"><a xlink:title="public&#45;inheritance">
<path fill="none" stroke="#ce93d8" d="M268.82,-143.88C254.96,-134.81 237.76,-123.55 222.79,-113.76"/>
<polygon fill="#ce93d8" stroke="#ce93d8" points="224.56,-110.74 214.28,-108.19 220.73,-116.59 224.56,-110.74"/>
</a>
</g>
</g>
<!-- 1&#45;&gt;2 -->
<g id="edge3" class="edge">
<title>1&#45;&gt;2</title>
<g id="a_edge3"><a xlink:title="public&#45;inheritance">
<path fill="none" stroke="#ce93d8" d="M188,-71.7C188,-63.98 188,-54.71 188,-46.11"/>
<polygon fill="#ce93d8" stroke="#ce93d8" points="191.5,-46.1 188,-36.1 184.5,-46.1 191.5,-46.1"/>
</a>
</g>
</g>
</g>
</svg>
