<?xml version="1.0" encoding="UTF-8" standalone="no"?>
<!DOCTYPE svg PUBLIC "-//W3C//DTD SVG 1.1//EN"
 "http://www.w3.org/Graphics/SVG/1.1/DTD/svg11.dtd">
<!-- Generated by graphviz version 2.43.0 (0)
 -->
<!-- Title: %3 Pages: 1 -->
<svg width="459pt" height="188pt"
 viewBox="0.00 0.00 459.00 188.00" xmlns="http://www.w3.org/2000/svg" xmlns:xlink="http://www.w3.org/1999/xlink">
<g id="graph0" class="graph" transform="scale(1 1) rotate(0) translate(4 184)">
<title>%3</title>
<polygon fill="transparent" stroke="transparent" points="-4,4 -4,-184 455,-184 455,4 -4,4"/>
<!-- 4 -->
<g id="node1" class="node">
<title>4</title>
<g id="a_node1"><a xlink:title="ipc::ContinuousCollisionCandidate">
<polygon fill="#ffffff" stroke="black" points="451,-36 189,-36 189,0 451,0 451,-36"/>
<text text-anchor="middle" x="320" y="-14.3" font-family="Times,serif" font-size="14.00">ipc::ContinuousCollisionCandidate</text>
</a>
</g>
</g>
<!-- 3 -->
<g id="node2" class="node">
<title>3</title>
<g id="a_node2"><a xlink:title="ipc::CollisionStencil">
<polygon fill="#ffffff" stroke="black" points="171,-36 13,-36 13,0 171,0 171,-36"/>
<text text-anchor="middle" x="92" y="-14.3" font-family="Times,serif" font-size="14.00">ipc::CollisionStencil</text>
</a>
</g>
</g>
<!-- 1 -->
<g id="node3" class="node">
<title>1</title>
<g id="a_node3"><a xlink:title="ipc::EdgeEdgeConstraint">
<polygon fill="#bfbfbf" stroke="black" points="293,-180 97,-180 97,-144 293,-144 293,-180"/>
<text text-anchor="middle" x="195" y="-158.3" font-family="Times,serif" font-size="14.00">ipc::EdgeEdgeConstraint</text>
</a>
</g>
</g>
<!-- 5 -->
<g id="node4" class="node">
<title>5</title>
<g id="a_node4"><a xlink:title="ipc::CollisionConstraint">
<polygon fill="#ffffff" stroke="black" points="184,-108 0,-108 0,-72 184,-72 184,-108"/>
<text text-anchor="middle" x="92" y="-86.3" font-family="Times,serif" font-size="14.00">ipc::CollisionConstraint</text>
</a>
</g>
</g>
<!-- 1&#45;&gt;5 -->
<g id="edge2" class="edge">
<title>1&#45;&gt;5</title>
<g id="a_edge2"><a xlink:title="public&#45;inheritance">
<path fill="none" stroke="#ce93d8" d="M169.8,-143.88C156.59,-134.89 140.21,-123.76 125.89,-114.03"/>
<polygon fill="#ce93d8" stroke="#ce93d8" points="127.53,-110.92 117.29,-108.19 123.6,-116.71 127.53,-110.92"/>
</a>
</g>
</g>
<!-- 2 -->
<g id="node5" class="node">
<title>2</title>
<g id="a_node5"><a xlink:title="ipc::EdgeEdgeCandidate">
<polygon fill="#ffffff" stroke="black" points="395.5,-108 202.5,-108 202.5,-72 395.5,-72 395.5,-108"/>
<text text-anchor="middle" x="299" y="-86.3" font-family="Times,serif" font-size="14.00">ipc::EdgeEdgeCandidate</text>
</a>
</g>
</g>
<!-- 1&#45;&gt;2 -->
<g id="edge1" class="edge">
<title>1&#45;&gt;2</title>
<g id="a_edge1"><a xlink:title="public&#45;inheritance">
<path fill="none" stroke="#ce93d8" d="M220.44,-143.88C233.79,-134.89 250.32,-123.76 264.78,-114.03"/>
<polygon fill="#ce93d8" stroke="#ce93d8" points="267.12,-116.68 273.46,-108.19 263.21,-110.87 267.12,-116.68"/>
</a>
</g>
</g>
<!-- 5&#45;&gt;3 -->
<g id="edge3" class="edge">
<title>5&#45;&gt;3</title>
<g id="a_edge3"><a xlink:title="public&#45;inheritance">
<path fill="none" stroke="#ce93d8" d="M92,-71.7C92,-63.98 92,-54.71 92,-46.11"/>
<polygon fill="#ce93d8" stroke="#ce93d8" points="95.5,-46.1 92,-36.1 88.5,-46.1 95.5,-46.1"/>
</a>
</g>
</g>
<!-- 2&#45;&gt;4 -->
<g id="edge5" class="edge">
<title>2&#45;&gt;4</title>
<g id="a_edge5"><a xlink:title="public&#45;inheritance">
<path fill="none" stroke="#ce93d8" d="M304.19,-71.7C306.53,-63.9 309.35,-54.51 311.95,-45.83"/>
<polygon fill="#ce93d8" stroke="#ce93d8" points="315.35,-46.69 314.87,-36.1 308.64,-44.68 315.35,-46.69"/>
</a>
</g>
</g>
<!-- 2&#45;&gt;3 -->
<g id="edge4" class="edge">
<title>2&#45;&gt;3</title>
<g id="a_edge4"><a xlink:title="public&#45;inheritance">
<path fill="none" stroke="#ce93d8" d="M248.63,-71.97C219.58,-62.14 182.87,-49.73 152.29,-39.39"/>
<polygon fill="#ce93d8" stroke="#ce93d8" points="153.19,-36 142.6,-36.11 150.95,-42.63 153.19,-36"/>
</a>
</g>
</g>
</g>
</svg>
