<?xml version="1.0" encoding="UTF-8" standalone="no"?>
<!DOCTYPE svg PUBLIC "-//W3C//DTD SVG 1.1//EN"
 "http://www.w3.org/Graphics/SVG/1.1/DTD/svg11.dtd">
<!-- Generated by graphviz version 2.43.0 (0)
 -->
<!-- Title: %3 Pages: 1 -->
<svg width="514pt" height="188pt"
 viewBox="0.00 0.00 513.50 188.00" xmlns="http://www.w3.org/2000/svg" xmlns:xlink="http://www.w3.org/1999/xlink">
<g id="graph0" class="graph" transform="scale(1 1) rotate(0) translate(4 184)">
<title>%3</title>
<!-- 2 -->
<g id="node1" class="node">
<title>2</title>
<g id="a_node1"><a xlink:title="ipc::CollisionStencil">
<polygon fill="#ffffff" stroke="black" points="322.5,-36 172.5,-36 172.5,0 322.5,0 322.5,-36"/>
<text text-anchor="middle" x="247.5" y="-14.3" font-family="Menlo" font-size="14.00">ipc::CollisionStencil</text>
</a>
</g>
</g>
<!-- 1 -->
<g id="node2" class="node">
<title>1</title>
<g id="a_node2"><a xlink:title="ipc::EdgeVertexCandidate">
<polygon fill="#bfbfbf" stroke="black" points="345.5,-108 149.5,-108 149.5,-72 345.5,-72 345.5,-108"/>
<text text-anchor="middle" x="247.5" y="-86.3" font-family="Menlo" font-size="14.00">ipc::EdgeVertexCandidate</text>
</a>
</g>
</g>
<!-- 1&#45;&gt;2 -->
<g id="edge1" class="edge">
<title>1&#45;&gt;2</title>
<g id="a_edge1"><a xlink:title="public&#45;inheritance">
<path fill="none" stroke="#ce93d8" d="M247.5,-71.7C247.5,-63.98 247.5,-54.71 247.5,-46.11"/>
<polygon fill="#ce93d8" stroke="#ce93d8" points="251,-46.1 247.5,-36.1 244,-46.1 251,-46.1"/>
</a>
</g>
</g>
<!-- 3 -->
<g id="node3" class="node">
<title>3</title>
<g id="a_node3"><a xlink:title="ipc::EdgeVertexNormalCollision">
<polygon fill="#ffffff" stroke="black" points="233,-180 0,-180 0,-144 233,-144 233,-180"/>
<text text-anchor="middle" x="116.5" y="-158.3" font-family="Menlo" font-size="14.00">ipc::EdgeVertexNormalCollision</text>
</a>
</g>
</g>
<!-- 3&#45;&gt;1 -->
<g id="edge2" class="edge">
<title>3&#45;&gt;1</title>
<g id="a_edge2"><a xlink:title="public&#45;inheritance">
<path fill="none" stroke="#ce93d8" d="M148.55,-143.88C165.99,-134.55 187.77,-122.92 206.44,-112.94"/>
<polygon fill="#ce93d8" stroke="#ce93d8" points="208.16,-115.99 215.33,-108.19 204.86,-109.82 208.16,-115.99"/>
</a>
</g>
</g>
<!-- 4 -->
<g id="node4" class="node">
<title>4</title>
<g id="a_node4"><a xlink:title="ipc::EdgeVertexTangentialCollision">
<polygon fill="#ffffff" stroke="black" points="505.5,-180 251.5,-180 251.5,-144 505.5,-144 505.5,-180"/>
<text text-anchor="middle" x="378.5" y="-158.3" font-family="Menlo" font-size="14.00">ipc::EdgeVertexTangentialCollision</text>
</a>
</g>
</g>
<!-- 4&#45;&gt;1 -->
<g id="edge3" class="edge">
<title>4&#45;&gt;1</title>
<g id="a_edge3"><a xlink:title="public&#45;inheritance">
<path fill="none" stroke="#ce93d8" d="M346.45,-143.88C329.01,-134.55 307.23,-122.92 288.56,-112.94"/>
<polygon fill="#ce93d8" stroke="#ce93d8" points="290.14,-109.82 279.67,-108.19 286.84,-115.99 290.14,-109.82"/>
</a>
</g>
</g>
</g>
</svg>
