<?xml version="1.0" encoding="UTF-8" standalone="no"?>
<!DOCTYPE svg PUBLIC "-//W3C//DTD SVG 1.1//EN"
 "http://www.w3.org/Graphics/SVG/1.1/DTD/svg11.dtd">
<!-- Generated by graphviz version 2.43.0 (0)
 -->
<!-- Title: %3 Pages: 1 -->
<svg width="675pt" height="116pt"
 viewBox="0.00 0.00 674.50 116.00" xmlns="http://www.w3.org/2000/svg" xmlns:xlink="http://www.w3.org/1999/xlink">
<g id="graph0" class="graph" transform="scale(1 1) rotate(0) translate(4 112)">
<title>%3</title>
<!-- 2 -->
<g id="node1" class="node">
<title>2</title>
<g id="a_node1"><a xlink:title="ipc::BVH">
<polygon fill="#ffffff" stroke="black" points="75,-108 0,-108 0,-72 75,-72 75,-108"/>
<text text-anchor="middle" x="37.5" y="-86.3" font-family="Menlo" font-size="14.00">ipc::BVH</text>
</a>
</g>
</g>
<!-- 1 -->
<g id="node2" class="node">
<title>1</title>
<g id="a_node2"><a xlink:title="ipc::BroadPhase">
<polygon fill="#bfbfbf" stroke="black" points="351.5,-36 223.5,-36 223.5,0 351.5,0 351.5,-36"/>
<text text-anchor="middle" x="287.5" y="-14.3" font-family="Menlo" font-size="14.00">ipc::BroadPhase</text>
</a>
</g>
</g>
<!-- 2&#45;&gt;1 -->
<g id="edge1" class="edge">
<title>2&#45;&gt;1</title>
<g id="a_edge1"><a xlink:title="public&#45;inheritance">
<path fill="none" stroke="#ce93d8" d="M75.05,-74.78C77.9,-73.8 80.74,-72.87 83.5,-72 125.97,-58.67 174.13,-46.05 212.99,-36.46"/>
<polygon fill="#ce93d8" stroke="#ce93d8" points="214.3,-39.75 223.18,-33.97 212.63,-32.95 214.3,-39.75"/>
</a>
</g>
</g>
<!-- 3 -->
<g id="node3" class="node">
<title>3</title>
<g id="a_node3"><a xlink:title="ipc::BruteForce">
<polygon fill="#ffffff" stroke="black" points="214,-108 93,-108 93,-72 214,-72 214,-108"/>
<text text-anchor="middle" x="153.5" y="-86.3" font-family="Menlo" font-size="14.00">ipc::BruteForce</text>
</a>
</g>
</g>
<!-- 3&#45;&gt;1 -->
<g id="edge2" class="edge">
<title>3&#45;&gt;1</title>
<g id="a_edge2"><a xlink:title="public&#45;inheritance">
<path fill="none" stroke="#ce93d8" d="M186.28,-71.88C204.13,-62.55 226.4,-50.92 245.5,-40.94"/>
<polygon fill="#ce93d8" stroke="#ce93d8" points="247.35,-43.92 254.59,-36.19 244.11,-37.72 247.35,-43.92"/>
</a>
</g>
</g>
<!-- 4 -->
<g id="node4" class="node">
<title>4</title>
<g id="a_node4"><a xlink:title="ipc::HashGrid">
<polygon fill="#ffffff" stroke="black" points="342.5,-108 232.5,-108 232.5,-72 342.5,-72 342.5,-108"/>
<text text-anchor="middle" x="287.5" y="-86.3" font-family="Menlo" font-size="14.00">ipc::HashGrid</text>
</a>
</g>
</g>
<!-- 4&#45;&gt;1 -->
<g id="edge3" class="edge">
<title>4&#45;&gt;1</title>
<g id="a_edge3"><a xlink:title="public&#45;inheritance">
<path fill="none" stroke="#ce93d8" d="M287.5,-71.7C287.5,-63.98 287.5,-54.71 287.5,-46.11"/>
<polygon fill="#ce93d8" stroke="#ce93d8" points="291,-46.1 287.5,-36.1 284,-46.1 291,-46.1"/>
</a>
</g>
</g>
<!-- 5 -->
<g id="node5" class="node">
<title>5</title>
<g id="a_node5"><a xlink:title="ipc::SpatialHash">
<polygon fill="#ffffff" stroke="black" points="488.5,-108 360.5,-108 360.5,-72 488.5,-72 488.5,-108"/>
<text text-anchor="middle" x="424.5" y="-86.3" font-family="Menlo" font-size="14.00">ipc::SpatialHash</text>
</a>
</g>
</g>
<!-- 5&#45;&gt;1 -->
<g id="edge4" class="edge">
<title>5&#45;&gt;1</title>
<g id="a_edge4"><a xlink:title="public&#45;inheritance">
<path fill="none" stroke="#ce93d8" d="M390.99,-71.88C372.66,-62.51 349.76,-50.81 330.17,-40.8"/>
<polygon fill="#ce93d8" stroke="#ce93d8" points="331.64,-37.62 321.14,-36.19 328.46,-43.86 331.64,-37.62"/>
</a>
</g>
</g>
<!-- 6 -->
<g id="node6" class="node">
<title>6</title>
<g id="a_node6"><a xlink:title="ipc::SweepAndPrune">
<polygon fill="#ffffff" stroke="black" points="666.5,-108 506.5,-108 506.5,-72 666.5,-72 666.5,-108"/>
<text text-anchor="middle" x="586.5" y="-86.3" font-family="Menlo" font-size="14.00">ipc::SweepAndPrune</text>
</a>
</g>
</g>
<!-- 6&#45;&gt;1 -->
<g id="edge5" class="edge">
<title>6&#45;&gt;1</title>
<g id="a_edge5"><a xlink:title="public&#45;inheritance">
<path fill="none" stroke="#ce93d8" d="M513.74,-71.97C467.68,-61.18 408.29,-47.28 361.92,-36.42"/>
<polygon fill="#ce93d8" stroke="#ce93d8" points="362.46,-32.96 351.93,-34.08 360.87,-39.77 362.46,-32.96"/>
</a>
</g>
</g>
</g>
</svg>
