<?xml version="1.0" encoding="UTF-8" standalone="no"?>
<!DOCTYPE svg PUBLIC "-//W3C//DTD SVG 1.1//EN"
 "http://www.w3.org/Graphics/SVG/1.1/DTD/svg11.dtd">
<!-- Generated by graphviz version 2.43.0 (0)
 -->
<!-- Title: %3 Pages: 1 -->
<svg width="450pt" height="260pt"
 viewBox="0.00 0.00 449.50 260.00" xmlns="http://www.w3.org/2000/svg" xmlns:xlink="http://www.w3.org/1999/xlink">
<g id="graph0" class="graph" transform="scale(1 1) rotate(0) translate(4 256)">
<title>%3</title>
<polygon fill="transparent" stroke="transparent" points="-4,4 -4,-256 445.5,-256 445.5,4 -4,4"/>
<!-- 5 -->
<g id="node1" class="node">
<title>5</title>
<g id="a_node1"><a xlink:title="ipc::NormalCollision">
<polygon fill="#ffffff" stroke="black" points="161,-108 0,-108 0,-72 161,-72 161,-108"/>
<text text-anchor="middle" x="80.5" y="-86.3" font-family="Times,serif" font-size="14.00">ipc::NormalCollision</text>
</a>
</g>
</g>
<!-- 4 -->
<g id="node3" class="node">
<title>4</title>
<g id="a_node3"><a xlink:title="ipc::CollisionStencil">
<polygon fill="#ffffff" stroke="black" points="274.5,-36 116.5,-36 116.5,0 274.5,0 274.5,-36"/>
<text text-anchor="middle" x="195.5" y="-14.3" font-family="Times,serif" font-size="14.00">ipc::CollisionStencil</text>
</a>
</g>
</g>
<!-- 5&#45;&gt;4 -->
<g id="edge1" class="edge">
<title>5&#45;&gt;4</title>
<g id="a_edge1"><a xlink:title="public&#45;inheritance">
<path fill="none" stroke="#ce93d8" d="M108.63,-71.88C123.67,-62.72 142.37,-51.34 158.56,-41.48"/>
<polygon fill="#ce93d8" stroke="#ce93d8" points="160.54,-44.38 167.26,-36.19 156.9,-38.4 160.54,-44.38"/>
</a>
</g>
</g>
<!-- 3 -->
<g id="node2" class="node">
<title>3</title>
<g id="a_node2"><a xlink:title="ipc::ContinuousCollisionCandidate">
<polygon fill="#ffffff" stroke="black" points="441.5,-108 179.5,-108 179.5,-72 441.5,-72 441.5,-108"/>
<text text-anchor="middle" x="310.5" y="-86.3" font-family="Times,serif" font-size="14.00">ipc::ContinuousCollisionCandidate</text>
</a>
</g>
</g>
<!-- 3&#45;&gt;4 -->
<g id="edge2" class="edge">
<title>3&#45;&gt;4</title>
<g id="a_edge2"><a xlink:title="public&#45;inheritance">
<path fill="none" stroke="#ce93d8" d="M282.37,-71.88C267.33,-62.72 248.63,-51.34 232.44,-41.48"/>
<polygon fill="#ce93d8" stroke="#ce93d8" points="234.1,-38.4 223.74,-36.19 230.46,-44.38 234.1,-38.4"/>
</a>
</g>
</g>
<!-- 1 -->
<g id="node4" class="node">
<title>1</title>
<g id="a_node4"><a xlink:title="ipc::EdgeEdgeNormalCollision">
<polygon fill="#bfbfbf" stroke="black" points="312,-252 77,-252 77,-216 312,-216 312,-252"/>
<text text-anchor="middle" x="194.5" y="-230.3" font-family="Times,serif" font-size="14.00">ipc::EdgeEdgeNormalCollision</text>
</a>
</g>
</g>
<!-- 1&#45;&gt;5 -->
<g id="edge4" class="edge">
<title>1&#45;&gt;5</title>
<g id="a_edge4"><a xlink:title="public&#45;inheritance">
<path fill="none" stroke="#ce93d8" d="M180.75,-215.87C160.81,-191.03 123.73,-144.85 100.68,-116.14"/>
<polygon fill="#ce93d8" stroke="#ce93d8" points="103.29,-113.8 94.3,-108.19 97.83,-118.18 103.29,-113.8"/>
</a>
</g>
</g>
<!-- 2 -->
<g id="node5" class="node">
<title>2</title>
<g id="a_node5"><a xlink:title="ipc::EdgeEdgeCandidate">
<polygon fill="#ffffff" stroke="black" points="380,-180 187,-180 187,-144 380,-144 380,-180"/>
<text text-anchor="middle" x="283.5" y="-158.3" font-family="Times,serif" font-size="14.00">ipc::EdgeEdgeCandidate</text>
</a>
</g>
</g>
<!-- 1&#45;&gt;2 -->
<g id="edge3" class="edge">
<title>1&#45;&gt;2</title>
<g id="a_edge3"><a xlink:title="public&#45;inheritance">
<path fill="none" stroke="#ce93d8" d="M216.5,-215.7C227.71,-206.88 241.5,-196.03 253.65,-186.47"/>
<polygon fill="#ce93d8" stroke="#ce93d8" points="256.06,-189.04 261.75,-180.1 251.73,-183.54 256.06,-189.04"/>
</a>
</g>
</g>
<!-- 2&#45;&gt;3 -->
<g id="edge5" class="edge">
<title>2&#45;&gt;3</title>
<g id="a_edge5"><a xlink:title="public&#45;inheritance">
<path fill="none" stroke="#ce93d8" d="M290.17,-143.7C293.21,-135.81 296.88,-126.3 300.26,-117.55"/>
<polygon fill="#ce93d8" stroke="#ce93d8" points="303.57,-118.69 303.9,-108.1 297.04,-116.17 303.57,-118.69"/>
</a>
</g>
</g>
</g>
</svg>
