<?xml version="1.0" encoding="UTF-8" standalone="no"?>
<!DOCTYPE svg PUBLIC "-//W3C//DTD SVG 1.1//EN"
 "http://www.w3.org/Graphics/SVG/1.1/DTD/svg11.dtd">
<!-- Generated by graphviz version 2.43.0 (0)
 -->
<!-- Title: %3 Pages: 1 -->
<svg width="1126pt" height="188pt"
 viewBox="0.00 0.00 1125.50 188.00" xmlns="http://www.w3.org/2000/svg" xmlns:xlink="http://www.w3.org/1999/xlink">
<g id="graph0" class="graph" transform="scale(1 1) rotate(0) translate(4 184)">
<title>%3</title>
<polygon fill="transparent" stroke="transparent" points="-4,4 -4,-184 1121.5,-184 1121.5,4 -4,4"/>
<!-- 2 -->
<g id="node1" class="node">
<title>2</title>
<g id="a_node1"><a xlink:title="ipc::CollisionStencil">
<polygon fill="#ffffff" stroke="black" points="628.5,-36 470.5,-36 470.5,0 628.5,0 628.5,-36"/>
<text text-anchor="middle" x="549.5" y="-14.3" font-family="Times,serif" font-size="14.00">ipc::CollisionStencil</text>
</a>
</g>
</g>
<!-- 3 -->
<g id="node2" class="node">
<title>3</title>
<g id="a_node2"><a xlink:title="ipc::EdgeEdgeTangentialCollision">
<polygon fill="#ffffff" stroke="black" points="257,-180 0,-180 0,-144 257,-144 257,-180"/>
<text text-anchor="middle" x="128.5" y="-158.3" font-family="Times,serif" font-size="14.00">ipc::EdgeEdgeTangentialCollision</text>
</a>
</g>
</g>
<!-- 1 -->
<g id="node5" class="node">
<title>1</title>
<g id="a_node5"><a xlink:title="ipc::TangentialCollision">
<polygon fill="#bfbfbf" stroke="black" points="641,-108 458,-108 458,-72 641,-72 641,-108"/>
<text text-anchor="middle" x="549.5" y="-86.3" font-family="Times,serif" font-size="14.00">ipc::TangentialCollision</text>
</a>
</g>
</g>
<!-- 3&#45;&gt;1 -->
<g id="edge1" class="edge">
<title>3&#45;&gt;1</title>
<g id="a_edge1"><a xlink:title="public&#45;inheritance">
<path fill="none" stroke="#ce93d8" d="M230.95,-143.97C296.81,-133.01 382.04,-118.84 447.76,-107.92"/>
<polygon fill="#ce93d8" stroke="#ce93d8" points="448.44,-111.35 457.73,-106.26 447.29,-104.45 448.44,-111.35"/>
</a>
</g>
</g>
<!-- 4 -->
<g id="node3" class="node">
<title>4</title>
<g id="a_node3"><a xlink:title="ipc::EdgeVertexTangentialCollision">
<polygon fill="#ffffff" stroke="black" points="541.5,-180 275.5,-180 275.5,-144 541.5,-144 541.5,-180"/>
<text text-anchor="middle" x="408.5" y="-158.3" font-family="Times,serif" font-size="14.00">ipc::EdgeVertexTangentialCollision</text>
</a>
</g>
</g>
<!-- 4&#45;&gt;1 -->
<g id="edge2" class="edge">
<title>4&#45;&gt;1</title>
<g id="a_edge2"><a xlink:title="public&#45;inheritance">
<path fill="none" stroke="#ce93d8" d="M442.99,-143.88C461.94,-134.47 485.63,-122.71 505.86,-112.67"/>
<polygon fill="#ce93d8" stroke="#ce93d8" points="507.47,-115.77 514.87,-108.19 504.36,-109.5 507.47,-115.77"/>
</a>
</g>
</g>
<!-- 5 -->
<g id="node4" class="node">
<title>5</title>
<g id="a_node4"><a xlink:title="ipc::FaceVertexTangentialCollision">
<polygon fill="#ffffff" stroke="black" points="823,-180 560,-180 560,-144 823,-144 823,-180"/>
<text text-anchor="middle" x="691.5" y="-158.3" font-family="Times,serif" font-size="14.00">ipc::FaceVertexTangentialCollision</text>
</a>
</g>
</g>
<!-- 5&#45;&gt;1 -->
<g id="edge3" class="edge">
<title>5&#45;&gt;1</title>
<g id="a_edge3"><a xlink:title="public&#45;inheritance">
<path fill="none" stroke="#ce93d8" d="M656.76,-143.88C637.68,-134.47 613.82,-122.71 593.45,-112.67"/>
<polygon fill="#ce93d8" stroke="#ce93d8" points="594.89,-109.47 584.37,-108.19 591.79,-115.75 594.89,-109.47"/>
</a>
</g>
</g>
<!-- 1&#45;&gt;2 -->
<g id="edge4" class="edge">
<title>1&#45;&gt;2</title>
<g id="a_edge4"><a xlink:title="public&#45;inheritance">
<path fill="none" stroke="#ce93d8" d="M549.5,-71.7C549.5,-63.98 549.5,-54.71 549.5,-46.11"/>
<polygon fill="#ce93d8" stroke="#ce93d8" points="553,-46.1 549.5,-36.1 546,-46.1 553,-46.1"/>
</a>
</g>
</g>
<!-- 6 -->
<g id="node6" class="node">
<title>6</title>
<g id="a_node6"><a xlink:title="ipc::VertexVertexTangentialCollision">
<polygon fill="#ffffff" stroke="black" points="1117.5,-180 841.5,-180 841.5,-144 1117.5,-144 1117.5,-180"/>
<text text-anchor="middle" x="979.5" y="-158.3" font-family="Times,serif" font-size="14.00">ipc::VertexVertexTangentialCollision</text>
</a>
</g>
</g>
<!-- 6&#45;&gt;1 -->
<g id="edge5" class="edge">
<title>6&#45;&gt;1</title>
<g id="a_edge5"><a xlink:title="public&#45;inheritance">
<path fill="none" stroke="#ce93d8" d="M874.86,-143.97C806.88,-132.9 718.7,-118.54 651.29,-107.57"/>
<polygon fill="#ce93d8" stroke="#ce93d8" points="651.51,-104.06 641.08,-105.91 650.39,-110.97 651.51,-104.06"/>
</a>
</g>
</g>
</g>
</svg>
