<?xml version="1.0" encoding="UTF-8" standalone="no"?>
<!DOCTYPE svg PUBLIC "-//W3C//DTD SVG 1.1//EN"
 "http://www.w3.org/Graphics/SVG/1.1/DTD/svg11.dtd">
<!-- Generated by graphviz version 2.43.0 (0)
 -->
<!-- Title: %3 Pages: 1 -->
<svg width="1109pt" height="116pt"
 viewBox="0.00 0.00 1109.00 116.00" xmlns="http://www.w3.org/2000/svg" xmlns:xlink="http://www.w3.org/1999/xlink">
<g id="graph0" class="graph" transform="scale(1 1) rotate(0) translate(4 112)">
<title>%3</title>
<polygon fill="transparent" stroke="transparent" points="-4,4 -4,-112 1105,-112 1105,4 -4,4"/>
<!-- 5 -->
<g id="node1" class="node">
<title>5</title>
<g id="a_node1"><a xlink:title="ipc::PlaneVertexConstraint">
<polygon fill="#ffffff" stroke="black" points="209,-108 0,-108 0,-72 209,-72 209,-108"/>
<text text-anchor="middle" x="104.5" y="-86.3" font-family="Times,serif" font-size="14.00">ipc::PlaneVertexConstraint</text>
</a>
</g>
</g>
<!-- 1 -->
<g id="node4" class="node">
<title>1</title>
<g id="a_node4"><a xlink:title="ipc::CollisionConstraint">
<polygon fill="#bfbfbf" stroke="black" points="634.5,-36 450.5,-36 450.5,0 634.5,0 634.5,-36"/>
<text text-anchor="middle" x="542.5" y="-14.3" font-family="Times,serif" font-size="14.00">ipc::CollisionConstraint</text>
</a>
</g>
</g>
<!-- 5&#45;&gt;1 -->
<g id="edge1" class="edge">
<title>5&#45;&gt;1</title>
<g id="a_edge1"><a xlink:title="public&#45;inheritance">
<path fill="none" stroke="#ce93d8" d="M209.13,-72.28C279.08,-61.1 370.66,-46.46 440.13,-35.36"/>
<polygon fill="#ce93d8" stroke="#ce93d8" points="440.9,-38.78 450.22,-33.75 439.79,-31.87 440.9,-38.78"/>
</a>
</g>
</g>
<!-- 2 -->
<g id="node2" class="node">
<title>2</title>
<g id="a_node2"><a xlink:title="ipc::EdgeEdgeConstraint">
<polygon fill="#ffffff" stroke="black" points="423.5,-108 227.5,-108 227.5,-72 423.5,-72 423.5,-108"/>
<text text-anchor="middle" x="325.5" y="-86.3" font-family="Times,serif" font-size="14.00">ipc::EdgeEdgeConstraint</text>
</a>
</g>
</g>
<!-- 2&#45;&gt;1 -->
<g id="edge2" class="edge">
<title>2&#45;&gt;1</title>
<g id="a_edge2"><a xlink:title="public&#45;inheritance">
<path fill="none" stroke="#ce93d8" d="M378.31,-71.97C408.89,-62.1 447.57,-49.62 479.71,-39.25"/>
<polygon fill="#ce93d8" stroke="#ce93d8" points="481.01,-42.51 489.46,-36.11 478.86,-35.85 481.01,-42.51"/>
</a>
</g>
</g>
<!-- 4 -->
<g id="node3" class="node">
<title>4</title>
<g id="a_node3"><a xlink:title="ipc::FaceVertexConstraint">
<polygon fill="#ffffff" stroke="black" points="643.5,-108 441.5,-108 441.5,-72 643.5,-72 643.5,-108"/>
<text text-anchor="middle" x="542.5" y="-86.3" font-family="Times,serif" font-size="14.00">ipc::FaceVertexConstraint</text>
</a>
</g>
</g>
<!-- 4&#45;&gt;1 -->
<g id="edge3" class="edge">
<title>4&#45;&gt;1</title>
<g id="a_edge3"><a xlink:title="public&#45;inheritance">
<path fill="none" stroke="#ce93d8" d="M542.5,-71.7C542.5,-63.98 542.5,-54.71 542.5,-46.11"/>
<polygon fill="#ce93d8" stroke="#ce93d8" points="546,-46.1 542.5,-36.1 539,-46.1 546,-46.1"/>
</a>
</g>
</g>
<!-- 3 -->
<g id="node5" class="node">
<title>3</title>
<g id="a_node5"><a xlink:title="ipc::EdgeVertexConstraint">
<polygon fill="#ffffff" stroke="black" points="867.5,-108 661.5,-108 661.5,-72 867.5,-72 867.5,-108"/>
<text text-anchor="middle" x="764.5" y="-86.3" font-family="Times,serif" font-size="14.00">ipc::EdgeVertexConstraint</text>
</a>
</g>
</g>
<!-- 3&#45;&gt;1 -->
<g id="edge4" class="edge">
<title>3&#45;&gt;1</title>
<g id="a_edge4"><a xlink:title="public&#45;inheritance">
<path fill="none" stroke="#ce93d8" d="M710.48,-71.97C679.05,-62.06 639.27,-49.51 606.31,-39.12"/>
<polygon fill="#ce93d8" stroke="#ce93d8" points="607.36,-35.78 596.77,-36.11 605.25,-42.46 607.36,-35.78"/>
</a>
</g>
</g>
<!-- 6 -->
<g id="node6" class="node">
<title>6</title>
<g id="a_node6"><a xlink:title="ipc::VertexVertexConstraint">
<polygon fill="#ffffff" stroke="black" points="1101,-108 886,-108 886,-72 1101,-72 1101,-108"/>
<text text-anchor="middle" x="993.5" y="-86.3" font-family="Times,serif" font-size="14.00">ipc::VertexVertexConstraint</text>
</a>
</g>
</g>
<!-- 6&#45;&gt;1 -->
<g id="edge5" class="edge">
<title>6&#45;&gt;1</title>
<g id="a_edge5"><a xlink:title="public&#45;inheritance">
<path fill="none" stroke="#ce93d8" d="M885.76,-72.28C812.6,-60.92 716.44,-46 644.52,-34.83"/>
<polygon fill="#ce93d8" stroke="#ce93d8" points="644.95,-31.36 634.53,-33.28 643.88,-38.28 644.95,-31.36"/>
</a>
</g>
</g>
</g>
</svg>
