<?xml version="1.0" encoding="UTF-8" standalone="no"?>
<!DOCTYPE svg PUBLIC "-//W3C//DTD SVG 1.1//EN"
 "http://www.w3.org/Graphics/SVG/1.1/DTD/svg11.dtd">
<!-- Generated by graphviz version 14.1.1 (20251213.1925)
 -->
<!-- Title: IPC Toolkit Dependencies Pages: 1 -->
<svg width="2253pt" height="420pt"
 viewBox="0.00 0.00 2253.00 420.00" xmlns="http://www.w3.org/2000/svg" xmlns:xlink="http://www.w3.org/1999/xlink">
<g id="graph0" class="graph" transform="scale(1 1) rotate(0) translate(4 415.5)">
<title>IPC Toolkit Dependencies</title>
<g id="clust1" class="cluster">
<title>clusterLegend</title>
<polygon fill="none" stroke="grey" stroke-width="2" points="8,-52.5 8,-361 201,-361 201,-52.5 8,-52.5"/>
<text xml:space="preserve" text-anchor="middle" x="104.5" y="-343.7" font-family="Avenir Medium" font-size="14.00" fill="grey">Legend</text>
</g>
<!-- legendNode0 -->
<g id="node1" class="node">
<title>legendNode0</title>
<path fill="#d5e8d4" stroke="#8fb976" stroke-width="2" d="M139.38,-325.5C139.38,-325.5 68.62,-325.5 68.62,-325.5 62.62,-325.5 56.62,-319.5 56.62,-313.5 56.62,-313.5 56.62,-301.5 56.62,-301.5 56.62,-295.5 62.62,-289.5 68.62,-289.5 68.62,-289.5 139.38,-289.5 139.38,-289.5 145.38,-289.5 151.38,-295.5 151.38,-301.5 151.38,-301.5 151.38,-313.5 151.38,-313.5 151.38,-319.5 145.38,-325.5 139.38,-325.5"/>
<text xml:space="preserve" text-anchor="middle" x="104" y="-303.95" font-family="Avenir Light" font-size="14.00">Static Library</text>
</g>
<!-- legendNode1 -->
<g id="node2" class="node">
<title>legendNode1</title>
<path fill="#cce7f8" stroke="#6596b2" stroke-width="2" d="M107.88,-211C107.88,-211 28.12,-211 28.12,-211 22.12,-211 16.12,-205 16.12,-199 16.12,-199 16.12,-187 16.12,-187 16.12,-181 22.12,-175 28.12,-175 28.12,-175 107.88,-175 107.88,-175 113.88,-175 119.88,-181 119.88,-187 119.88,-187 119.88,-199 119.88,-199 119.88,-205 113.88,-211 107.88,-211"/>
<text xml:space="preserve" text-anchor="middle" x="68" y="-189.45" font-family="Avenir Light" font-size="14.00">Shared Library</text>
</g>
<!-- legendNode0&#45;&gt;legendNode1 -->
<g id="edge1" class="edge">
<title>legendNode0&#45;&gt;legendNode1</title>
<path fill="none" stroke="#8fb976" stroke-width="2" d="M88.25,-288.59C88.25,-288.59 88.25,-224.96 88.25,-224.96"/>
<polygon fill="#8fb976" stroke="#8fb976" stroke-width="2" points="91.75,-224.96 88.25,-214.96 84.75,-224.96 91.75,-224.96"/>
<text xml:space="preserve" text-anchor="middle" x="96.38" y="-246.7" font-family="Avenir Light" font-size="14.00" fill="#8fb976">Public</text>
</g>
<!-- legendNode2 -->
<g id="node3" class="node">
<title>legendNode2</title>
<path fill="#ffe6cc" stroke="#daa52d" stroke-width="2" d="M123.5,-96.5C123.5,-96.5 32.5,-96.5 32.5,-96.5 26.5,-96.5 20.5,-90.5 20.5,-84.5 20.5,-84.5 20.5,-72.5 20.5,-72.5 20.5,-66.5 26.5,-60.5 32.5,-60.5 32.5,-60.5 123.5,-60.5 123.5,-60.5 129.5,-60.5 135.5,-66.5 135.5,-72.5 135.5,-72.5 135.5,-84.5 135.5,-84.5 135.5,-90.5 129.5,-96.5 123.5,-96.5"/>
<text xml:space="preserve" text-anchor="middle" x="78" y="-74.95" font-family="Avenir Light" font-size="14.00">Interface Library</text>
</g>
<!-- legendNode1&#45;&gt;legendNode2 -->
<g id="edge3" class="edge">
<title>legendNode1&#45;&gt;legendNode2</title>
<path fill="none" stroke="#be6562" stroke-width="2" d="M70.19,-174.09C70.19,-174.09 70.19,-110.46 70.19,-110.46"/>
<polygon fill="#be6562" stroke="#be6562" stroke-width="2" points="73.69,-110.46 70.19,-100.46 66.69,-110.46 73.69,-110.46"/>
<text xml:space="preserve" text-anchor="middle" x="94" y="-132.2" font-family="Avenir Light" font-size="14.00" fill="#be6562">Private</text>
</g>
<!-- legendNode2&#45;&gt;legendNode0 -->
<g id="edge2" class="edge">
<title>legendNode2&#45;&gt;legendNode0</title>
<path fill="none" stroke="#daa52d" stroke-width="2" d="M127.69,-97.24C127.69,-97.24 127.69,-275.47 127.69,-275.47"/>
<polygon fill="#daa52d" stroke="#daa52d" stroke-width="2" points="124.19,-275.47 127.69,-285.47 131.19,-275.47 124.19,-275.47"/>
<text xml:space="preserve" text-anchor="middle" x="166" y="-189.45" font-family="Avenir Light" font-size="14.00" fill="#daa52d">Interface</text>
</g>
<!-- node5 -->
<g id="node4" class="node">
<title>node5</title>
<path fill="#d5e8d4" stroke="#8fb976" stroke-width="2" d="M1283.75,-411.5C1283.75,-411.5 1176.25,-411.5 1176.25,-411.5 1170.25,-411.5 1164.25,-405.5 1164.25,-399.5 1164.25,-399.5 1164.25,-381 1164.25,-381 1164.25,-375 1170.25,-369 1176.25,-369 1176.25,-369 1283.75,-369 1283.75,-369 1289.75,-369 1295.75,-375 1295.75,-381 1295.75,-381 1295.75,-399.5 1295.75,-399.5 1295.75,-405.5 1289.75,-411.5 1283.75,-411.5"/>
<text xml:space="preserve" text-anchor="middle" x="1230" y="-394.2" font-family="Menlo" font-size="14.00">ipc_toolkit</text>
<text xml:space="preserve" text-anchor="middle" x="1230" y="-376.95" font-family="Menlo" font-size="14.00">(ipc::toolkit)</text>
</g>
<!-- node0 -->
<g id="node5" class="node">
<title>node0</title>
<path fill="#ffe6cc" stroke="#daa52d" stroke-width="2" d="M930.88,-42.5C930.88,-42.5 815.12,-42.5 815.12,-42.5 809.12,-42.5 803.12,-36.5 803.12,-30.5 803.12,-30.5 803.12,-12 803.12,-12 803.12,-6 809.12,0 815.12,0 815.12,0 930.88,0 930.88,0 936.88,0 942.88,-6 942.88,-12 942.88,-12 942.88,-30.5 942.88,-30.5 942.88,-36.5 936.88,-42.5 930.88,-42.5"/>
<text xml:space="preserve" text-anchor="middle" x="873" y="-25.2" font-family="Menlo" font-size="14.00">Eigen3_Eigen</text>
<text xml:space="preserve" text-anchor="middle" x="873" y="-7.95" font-family="Menlo" font-size="14.00">(Eigen3::Eigen)</text>
</g>
<!-- node5&#45;&gt;node0 -->
<g id="edge7" class="edge">
<title>node5&#45;&gt;node0</title>
<path fill="none" stroke="#8fb976" stroke-width="2" d="M1198.5,-368.12C1198.5,-287.47 1198.5,-14 1198.5,-14 1198.5,-14 956.66,-14 956.66,-14"/>
<polygon fill="#8fb976" stroke="#8fb976" stroke-width="2" points="956.66,-10.5 946.66,-14 956.66,-17.5 956.66,-10.5"/>
</g>
<!-- node1 -->
<g id="node6" class="node">
<title>node1</title>
<path fill="#cce7f8" stroke="#6596b2" stroke-width="2" d="M1322.75,-271.5C1322.75,-271.5 1215.25,-271.5 1215.25,-271.5 1209.25,-271.5 1203.25,-265.5 1203.25,-259.5 1203.25,-259.5 1203.25,-241 1203.25,-241 1203.25,-235 1209.25,-229 1215.25,-229 1215.25,-229 1322.75,-229 1322.75,-229 1328.75,-229 1334.75,-235 1334.75,-241 1334.75,-241 1334.75,-259.5 1334.75,-259.5 1334.75,-265.5 1328.75,-271.5 1322.75,-271.5"/>
<text xml:space="preserve" text-anchor="middle" x="1269" y="-254.2" font-family="Menlo" font-size="14.00">filib</text>
<text xml:space="preserve" text-anchor="middle" x="1269" y="-236.95" font-family="Menlo" font-size="14.00">(filib::filib)</text>
</g>
<!-- node5&#45;&gt;node1 -->
<g id="edge8" class="edge">
<title>node5&#45;&gt;node1</title>
<path fill="none" stroke="#8fb976" stroke-width="2" d="M1249.5,-368.07C1249.5,-368.07 1249.5,-285.36 1249.5,-285.36"/>
<polygon fill="#8fb976" stroke="#8fb976" stroke-width="2" points="1253,-285.36 1249.5,-275.36 1246,-285.36 1253,-285.36"/>
</g>
<!-- node2 -->
<g id="node7" class="node">
<title>node2</title>
<path fill="#ffe6cc" stroke="#daa52d" stroke-width="2" d="M317.38,-157C317.38,-157 234.62,-157 234.62,-157 228.62,-157 222.62,-151 222.62,-145 222.62,-145 222.62,-126.5 222.62,-126.5 222.62,-120.5 228.62,-114.5 234.62,-114.5 234.62,-114.5 317.38,-114.5 317.38,-114.5 323.38,-114.5 329.38,-120.5 329.38,-126.5 329.38,-126.5 329.38,-145 329.38,-145 329.38,-151 323.38,-157 317.38,-157"/>
<text xml:space="preserve" text-anchor="middle" x="276" y="-139.7" font-family="Menlo" font-size="14.00">igl_core</text>
<text xml:space="preserve" text-anchor="middle" x="276" y="-122.45" font-family="Menlo" font-size="14.00">(igl::core)</text>
</g>
<!-- node5&#45;&gt;node2 -->
<g id="edge9" class="edge">
<title>node5&#45;&gt;node2</title>
<path fill="none" stroke="#be6562" stroke-width="2" d="M1163.27,-404C939.66,-404 230.75,-404 230.75,-404 230.75,-404 230.75,-170.73 230.75,-170.73"/>
<polygon fill="#be6562" stroke="#be6562" stroke-width="2" points="234.25,-170.73 230.75,-160.73 227.25,-170.73 234.25,-170.73"/>
</g>
<!-- node3 -->
<g id="node8" class="node">
<title>node3</title>
<path fill="#ffe6cc" stroke="#daa52d" stroke-width="2" d="M383.12,-271.5C383.12,-271.5 250.88,-271.5 250.88,-271.5 244.88,-271.5 238.88,-265.5 238.88,-259.5 238.88,-259.5 238.88,-241 238.88,-241 238.88,-235 244.88,-229 250.88,-229 250.88,-229 383.12,-229 383.12,-229 389.12,-229 395.12,-235 395.12,-241 395.12,-241 395.12,-259.5 395.12,-259.5 395.12,-265.5 389.12,-271.5 383.12,-271.5"/>
<text xml:space="preserve" text-anchor="middle" x="317" y="-254.2" font-family="Menlo" font-size="14.00">igl_predicates</text>
<text xml:space="preserve" text-anchor="middle" x="317" y="-236.95" font-family="Menlo" font-size="14.00">(igl::predicates)</text>
</g>
<!-- node5&#45;&gt;node3 -->
<g id="edge10" class="edge">
<title>node5&#45;&gt;node3</title>
<path fill="none" stroke="#be6562" stroke-width="2" d="M1163.6,-397C953.51,-397 317,-397 317,-397 317,-397 317,-285.25 317,-285.25"/>
<polygon fill="#be6562" stroke="#be6562" stroke-width="2" points="320.5,-285.25 317,-275.25 313.5,-285.25 320.5,-285.25"/>
</g>
<!-- node15 -->
<g id="node10" class="node">
<title>node15</title>
<path fill="#ffe6cc" stroke="#daa52d" stroke-width="2" d="M1468.75,-271.5C1468.75,-271.5 1361.25,-271.5 1361.25,-271.5 1355.25,-271.5 1349.25,-265.5 1349.25,-259.5 1349.25,-259.5 1349.25,-241 1349.25,-241 1349.25,-235 1355.25,-229 1361.25,-229 1361.25,-229 1468.75,-229 1468.75,-229 1474.75,-229 1480.75,-235 1480.75,-241 1480.75,-241 1480.75,-259.5 1480.75,-259.5 1480.75,-265.5 1474.75,-271.5 1468.75,-271.5"/>
<text xml:space="preserve" text-anchor="middle" x="1415" y="-254.2" font-family="Menlo" font-size="14.00">xsimd</text>
<text xml:space="preserve" text-anchor="middle" x="1415" y="-236.95" font-family="Menlo" font-size="14.00">(xsimd::xsimd)</text>
</g>
<!-- node5&#45;&gt;node15 -->
<g id="edge11" class="edge">
<title>node5&#45;&gt;node15</title>
<path fill="none" stroke="#be6562" stroke-width="2" d="M1296.53,-376C1349.57,-376 1415,-376 1415,-376 1415,-376 1415,-285.47 1415,-285.47"/>
<polygon fill="#be6562" stroke="#be6562" stroke-width="2" points="1418.5,-285.47 1415,-275.47 1411.5,-285.47 1418.5,-285.47"/>
</g>
<!-- node6 -->
<g id="node11" class="node">
<title>node6</title>
<path fill="#ffe6cc" stroke="#daa52d" stroke-width="2" d="M1631,-271.5C1631,-271.5 1507,-271.5 1507,-271.5 1501,-271.5 1495,-265.5 1495,-259.5 1495,-259.5 1495,-241 1495,-241 1495,-235 1501,-229 1507,-229 1507,-229 1631,-229 1631,-229 1637,-229 1643,-235 1643,-241 1643,-241 1643,-259.5 1643,-259.5 1643,-265.5 1637,-271.5 1631,-271.5"/>
<text xml:space="preserve" text-anchor="middle" x="1569" y="-254.2" font-family="Menlo" font-size="14.00">robin_map</text>
<text xml:space="preserve" text-anchor="middle" x="1569" y="-236.95" font-family="Menlo" font-size="14.00">(tsl::robin_map)</text>
</g>
<!-- node5&#45;&gt;node6 -->
<g id="edge12" class="edge">
<title>node5&#45;&gt;node6</title>
<path fill="none" stroke="#be6562" stroke-width="2" d="M1296.57,-383C1395.3,-383 1569,-383 1569,-383 1569,-383 1569,-285.5 1569,-285.5"/>
<polygon fill="#be6562" stroke="#be6562" stroke-width="2" points="1572.5,-285.5 1569,-275.5 1565.5,-285.5 1572.5,-285.5"/>
</g>
<!-- node7 -->
<g id="node12" class="node">
<title>node7</title>
<path fill="#d5e8d4" stroke="#8fb976" stroke-width="2" d="M984.5,-271.5C984.5,-271.5 761.5,-271.5 761.5,-271.5 755.5,-271.5 749.5,-265.5 749.5,-259.5 749.5,-259.5 749.5,-241 749.5,-241 749.5,-235 755.5,-229 761.5,-229 761.5,-229 984.5,-229 984.5,-229 990.5,-229 996.5,-235 996.5,-241 996.5,-241 996.5,-259.5 996.5,-259.5 996.5,-265.5 990.5,-271.5 984.5,-271.5"/>
<text xml:space="preserve" text-anchor="middle" x="873" y="-254.2" font-family="Menlo" font-size="14.00">scalable_ccd</text>
<text xml:space="preserve" text-anchor="middle" x="873" y="-236.95" font-family="Menlo" font-size="14.00">(scalable_ccd::scalable_ccd)</text>
</g>
<!-- node5&#45;&gt;node7 -->
<g id="edge16" class="edge">
<title>node5&#45;&gt;node7</title>
<path fill="none" stroke="#be6562" stroke-width="2" d="M1163.27,-376C1059.94,-376 873,-376 873,-376 873,-376 873,-285.47 873,-285.47"/>
<polygon fill="#be6562" stroke="#be6562" stroke-width="2" points="876.5,-285.47 873,-275.47 869.5,-285.47 876.5,-285.47"/>
</g>
<!-- node8 -->
<g id="node13" class="node">
<title>node8</title>
<path fill="#d5e8d4" stroke="#8fb976" stroke-width="2" d="M789,-157C789,-157 665,-157 665,-157 659,-157 653,-151 653,-145 653,-145 653,-126.5 653,-126.5 653,-120.5 659,-114.5 665,-114.5 665,-114.5 789,-114.5 789,-114.5 795,-114.5 801,-120.5 801,-126.5 801,-126.5 801,-145 801,-145 801,-151 795,-157 789,-157"/>
<text xml:space="preserve" text-anchor="middle" x="727" y="-139.7" font-family="Menlo" font-size="14.00">spdlog</text>
<text xml:space="preserve" text-anchor="middle" x="727" y="-122.45" font-family="Menlo" font-size="14.00">(spdlog::spdlog)</text>
</g>
<!-- node5&#45;&gt;node8 -->
<g id="edge17" class="edge">
<title>node5&#45;&gt;node8</title>
<path fill="none" stroke="#8fb976" stroke-width="2" d="M1163.26,-383C1026.53,-383 727.38,-383 727.38,-383 727.38,-383 727.38,-170.72 727.38,-170.72"/>
<polygon fill="#8fb976" stroke="#8fb976" stroke-width="2" points="730.88,-170.72 727.38,-160.72 723.88,-170.72 730.88,-170.72"/>
</g>
<!-- node9 -->
<g id="node14" class="node">
<title>node9</title>
<path fill="#d5e8d4" stroke="#8fb976" stroke-width="2" d="M1056.25,-157C1056.25,-157 981.75,-157 981.75,-157 975.75,-157 969.75,-151 969.75,-145 969.75,-145 969.75,-126.5 969.75,-126.5 969.75,-120.5 975.75,-114.5 981.75,-114.5 981.75,-114.5 1056.25,-114.5 1056.25,-114.5 1062.25,-114.5 1068.25,-120.5 1068.25,-126.5 1068.25,-126.5 1068.25,-145 1068.25,-145 1068.25,-151 1062.25,-157 1056.25,-157"/>
<text xml:space="preserve" text-anchor="middle" x="1019" y="-139.7" font-family="Menlo" font-size="14.00">tbb</text>
<text xml:space="preserve" text-anchor="middle" x="1019" y="-122.45" font-family="Menlo" font-size="14.00">(TBB::tbb)</text>
</g>
<!-- node5&#45;&gt;node9 -->
<g id="edge18" class="edge">
<title>node5&#45;&gt;node9</title>
<path fill="none" stroke="#be6562" stroke-width="2" d="M1193.75,-368.13C1193.75,-306.27 1193.75,-136 1193.75,-136 1193.75,-136 1082.1,-136 1082.1,-136"/>
<polygon fill="#be6562" stroke="#be6562" stroke-width="2" points="1082.1,-132.5 1072.1,-136 1082.1,-139.5 1082.1,-132.5"/>
</g>
<!-- node11 -->
<g id="node15" class="node">
<title>node11</title>
<path fill="#d5e8d4" stroke="#8fb976" stroke-width="2" d="M693.25,-271.5C693.25,-271.5 420.75,-271.5 420.75,-271.5 414.75,-271.5 408.75,-265.5 408.75,-259.5 408.75,-259.5 408.75,-241 408.75,-241 408.75,-235 414.75,-229 420.75,-229 420.75,-229 693.25,-229 693.25,-229 699.25,-229 705.25,-235 705.25,-241 705.25,-241 705.25,-259.5 705.25,-259.5 705.25,-265.5 699.25,-271.5 693.25,-271.5"/>
<text xml:space="preserve" text-anchor="middle" x="557" y="-254.2" font-family="Menlo" font-size="14.00">tight_inclusion</text>
<text xml:space="preserve" text-anchor="middle" x="557" y="-236.95" font-family="Menlo" font-size="14.00">(tight_inclusion::tight_inclusion)</text>
</g>
<!-- node5&#45;&gt;node11 -->
<g id="edge21" class="edge">
<title>node5&#45;&gt;node11</title>
<path fill="none" stroke="#be6562" stroke-width="2" d="M1163.32,-390C993.31,-390 557,-390 557,-390 557,-390 557,-285.42 557,-285.42"/>
<polygon fill="#be6562" stroke="#be6562" stroke-width="2" points="560.5,-285.42 557,-275.42 553.5,-285.42 560.5,-285.42"/>
</g>
<!-- node12 -->
<g id="node16" class="node">
<title>node12</title>
<path fill="#d5e8d4" stroke="#8fb976" stroke-width="2" d="M1760.5,-271.5C1760.5,-271.5 1669.5,-271.5 1669.5,-271.5 1663.5,-271.5 1657.5,-265.5 1657.5,-259.5 1657.5,-259.5 1657.5,-241 1657.5,-241 1657.5,-235 1663.5,-229 1669.5,-229 1669.5,-229 1760.5,-229 1760.5,-229 1766.5,-229 1772.5,-235 1772.5,-241 1772.5,-241 1772.5,-259.5 1772.5,-259.5 1772.5,-265.5 1766.5,-271.5 1760.5,-271.5"/>
<text xml:space="preserve" text-anchor="middle" x="1715" y="-254.2" font-family="Menlo" font-size="14.00">absl_hash</text>
<text xml:space="preserve" text-anchor="middle" x="1715" y="-236.95" font-family="Menlo" font-size="14.00">(absl::hash)</text>
</g>
<!-- node5&#45;&gt;node12 -->
<g id="edge22" class="edge">
<title>node5&#45;&gt;node12</title>
<path fill="none" stroke="#be6562" stroke-width="2" d="M1296.67,-390C1429.61,-390 1715,-390 1715,-390 1715,-390 1715,-285.42 1715,-285.42"/>
<polygon fill="#be6562" stroke="#be6562" stroke-width="2" points="1718.5,-285.42 1715,-275.42 1711.5,-285.42 1718.5,-285.42"/>
</g>
<!-- node13 -->
<g id="node17" class="node">
<title>node13</title>
<path fill="#d5e8d4" stroke="#8fb976" stroke-width="2" d="M1177,-271.5C1177,-271.5 1053,-271.5 1053,-271.5 1047,-271.5 1041,-265.5 1041,-259.5 1041,-259.5 1041,-241 1041,-241 1041,-235 1047,-229 1053,-229 1053,-229 1177,-229 1177,-229 1183,-229 1189,-235 1189,-241 1189,-241 1189,-259.5 1189,-259.5 1189,-265.5 1183,-271.5 1177,-271.5"/>
<text xml:space="preserve" text-anchor="middle" x="1115" y="-254.2" font-family="Menlo" font-size="14.00">TinyAD</text>
<text xml:space="preserve" text-anchor="middle" x="1115" y="-236.95" font-family="Menlo" font-size="14.00">(TinyAD::TinyAD)</text>
</g>
<!-- node5&#45;&gt;node13 -->
<g id="edge23" class="edge">
<title>node5&#45;&gt;node13</title>
<path fill="none" stroke="#8fb976" stroke-width="2" d="M1176.62,-368.07C1176.62,-368.07 1176.62,-285.36 1176.62,-285.36"/>
<polygon fill="#8fb976" stroke="#8fb976" stroke-width="2" points="1180.13,-285.36 1176.63,-275.36 1173.13,-285.36 1180.13,-285.36"/>
</g>
<!-- node14 -->
<g id="node18" class="node">
<title>node14</title>
<path fill="#ffe6cc" stroke="#daa52d" stroke-width="2" d="M2037.75,-271.5C2037.75,-271.5 1798.25,-271.5 1798.25,-271.5 1792.25,-271.5 1786.25,-265.5 1786.25,-259.5 1786.25,-259.5 1786.25,-241 1786.25,-241 1786.25,-235 1792.25,-229 1798.25,-229 1798.25,-229 2037.75,-229 2037.75,-229 2043.75,-229 2049.75,-235 2049.75,-241 2049.75,-241 2049.75,-259.5 2049.75,-259.5 2049.75,-265.5 2043.75,-271.5 2037.75,-271.5"/>
<text xml:space="preserve" text-anchor="middle" x="1918" y="-254.2" font-family="Menlo" font-size="14.00">nlohmann_json</text>
<text xml:space="preserve" text-anchor="middle" x="1918" y="-236.95" font-family="Menlo" font-size="14.00">(nlohmann_json::nlohmann_json)</text>
</g>
<!-- node5&#45;&gt;node14 -->
<g id="edge26" class="edge">
<title>node5&#45;&gt;node14</title>
<path fill="none" stroke="#8fb976" stroke-width="2" d="M1296.59,-397C1469.26,-397 1918,-397 1918,-397 1918,-397 1918,-285.25 1918,-285.25"/>
<polygon fill="#8fb976" stroke="#8fb976" stroke-width="2" points="1921.5,-285.25 1918,-275.25 1914.5,-285.25 1921.5,-285.25"/>
</g>
<!-- node16 -->
<g id="node19" class="node">
<title>node16</title>
<path fill="#d5e8d4" stroke="#8fb976" stroke-width="2" d="M2232.5,-271.5C2232.5,-271.5 2075.5,-271.5 2075.5,-271.5 2069.5,-271.5 2063.5,-265.5 2063.5,-259.5 2063.5,-259.5 2063.5,-241 2063.5,-241 2063.5,-235 2069.5,-229 2075.5,-229 2075.5,-229 2232.5,-229 2232.5,-229 2238.5,-229 2244.5,-235 2244.5,-241 2244.5,-241 2244.5,-259.5 2244.5,-259.5 2244.5,-265.5 2238.5,-271.5 2232.5,-271.5"/>
<text xml:space="preserve" text-anchor="middle" x="2154" y="-254.2" font-family="Menlo" font-size="14.00">TracyClient</text>
<text xml:space="preserve" text-anchor="middle" x="2154" y="-236.95" font-family="Menlo" font-size="14.00">(Tracy::TracyClient)</text>
</g>
<!-- node5&#45;&gt;node16 -->
<g id="edge27" class="edge">
<title>node5&#45;&gt;node16</title>
<path fill="none" stroke="#8fb976" stroke-width="2" d="M1296.45,-404C1508.32,-404 2154,-404 2154,-404 2154,-404 2154,-285.31 2154,-285.31"/>
<polygon fill="#8fb976" stroke="#8fb976" stroke-width="2" points="2157.5,-285.31 2154,-275.31 2150.5,-285.31 2157.5,-285.31"/>
</g>
<!-- node2&#45;&gt;node0 -->
<g id="edge4" class="edge">
<title>node2&#45;&gt;node0</title>
<path fill="none" stroke="#daa52d" stroke-width="2" d="M276,-113.7C276,-78.62 276,-14 276,-14 276,-14 789.14,-14 789.14,-14"/>
<polygon fill="#daa52d" stroke="#daa52d" stroke-width="2" points="789.14,-17.5 799.14,-14 789.14,-10.5 789.14,-17.5"/>
</g>
<!-- node3&#45;&gt;node2 -->
<g id="edge5" class="edge">
<title>node3&#45;&gt;node2</title>
<path fill="none" stroke="#daa52d" stroke-width="2" d="M284.12,-228.17C284.12,-228.17 284.12,-170.79 284.12,-170.79"/>
<polygon fill="#daa52d" stroke="#daa52d" stroke-width="2" points="287.63,-170.79 284.13,-160.79 280.63,-170.79 287.63,-170.79"/>
</g>
<!-- node4 -->
<g id="node9" class="node">
<title>node4</title>
<path fill="#d5e8d4" stroke="#8fb976" stroke-width="2" d="M545,-157C545,-157 355,-157 355,-157 349,-157 343,-151 343,-145 343,-145 343,-126.5 343,-126.5 343,-120.5 349,-114.5 355,-114.5 355,-114.5 545,-114.5 545,-114.5 551,-114.5 557,-120.5 557,-126.5 557,-126.5 557,-145 557,-145 557,-151 551,-157 545,-157"/>
<text xml:space="preserve" text-anchor="middle" x="450" y="-139.7" font-family="Menlo" font-size="14.00">predicates</text>
<text xml:space="preserve" text-anchor="middle" x="450" y="-122.45" font-family="Menlo" font-size="14.00">(predicates::predicates)</text>
</g>
<!-- node3&#45;&gt;node4 -->
<g id="edge6" class="edge">
<title>node3&#45;&gt;node4</title>
<path fill="none" stroke="#daa52d" stroke-width="2" d="M369.06,-228.17C369.06,-228.17 369.06,-170.79 369.06,-170.79"/>
<polygon fill="#daa52d" stroke="#daa52d" stroke-width="2" points="372.56,-170.79 369.06,-160.79 365.56,-170.79 372.56,-170.79"/>
</g>
<!-- node7&#45;&gt;node0 -->
<g id="edge13" class="edge">
<title>node7&#45;&gt;node0</title>
<path fill="none" stroke="#8fb976" stroke-width="2" d="M873,-228.29C873,-228.29 873,-56.5 873,-56.5"/>
<polygon fill="#8fb976" stroke="#8fb976" stroke-width="2" points="876.5,-56.5 873,-46.5 869.5,-56.5 876.5,-56.5"/>
</g>
<!-- node7&#45;&gt;node8 -->
<g id="edge14" class="edge">
<title>node7&#45;&gt;node8</title>
<path fill="none" stroke="#8fb976" stroke-width="2" d="M775.25,-228.17C775.25,-228.17 775.25,-170.79 775.25,-170.79"/>
<polygon fill="#8fb976" stroke="#8fb976" stroke-width="2" points="778.75,-170.79 775.25,-160.79 771.75,-170.79 778.75,-170.79"/>
</g>
<!-- node7&#45;&gt;node9 -->
<g id="edge15" class="edge">
<title>node7&#45;&gt;node9</title>
<path fill="none" stroke="#be6562" stroke-width="2" d="M983.12,-228.17C983.12,-228.17 983.12,-170.79 983.12,-170.79"/>
<polygon fill="#be6562" stroke="#be6562" stroke-width="2" points="986.63,-170.79 983.13,-160.79 979.63,-170.79 986.63,-170.79"/>
</g>
<!-- node11&#45;&gt;node0 -->
<g id="edge19" class="edge">
<title>node11&#45;&gt;node0</title>
<path fill="none" stroke="#8fb976" stroke-width="2" d="M605,-228.13C605,-171.91 605,-28 605,-28 605,-28 789.21,-28 789.21,-28"/>
<polygon fill="#8fb976" stroke="#8fb976" stroke-width="2" points="789.21,-31.5 799.21,-28 789.21,-24.5 789.21,-31.5"/>
</g>
<!-- node11&#45;&gt;node8 -->
<g id="edge20" class="edge">
<title>node11&#45;&gt;node8</title>
<path fill="none" stroke="#8fb976" stroke-width="2" d="M679.12,-228.17C679.12,-228.17 679.12,-170.79 679.12,-170.79"/>
<polygon fill="#8fb976" stroke="#8fb976" stroke-width="2" points="682.63,-170.79 679.13,-160.79 675.63,-170.79 682.63,-170.79"/>
</g>
<!-- node13&#45;&gt;node0 -->
<g id="edge24" class="edge">
<title>node13&#45;&gt;node0</title>
<path fill="none" stroke="#be6562" stroke-width="2" d="M1128.62,-228.13C1128.62,-171.91 1128.62,-28 1128.62,-28 1128.62,-28 956.89,-28 956.89,-28"/>
<polygon fill="#be6562" stroke="#be6562" stroke-width="2" points="956.89,-24.5 946.89,-28 956.89,-31.5 956.89,-24.5"/>
</g>
<!-- node13&#45;&gt;node9 -->
<g id="edge25" class="edge">
<title>node13&#45;&gt;node9</title>
<path fill="none" stroke="#be6562" stroke-width="2" d="M1054.62,-228.17C1054.62,-228.17 1054.62,-170.79 1054.62,-170.79"/>
<polygon fill="#be6562" stroke="#be6562" stroke-width="2" points="1058.13,-170.79 1054.63,-160.79 1051.13,-170.79 1058.13,-170.79"/>
</g>
</g>
</svg>
