<?xml version="1.0" encoding="UTF-8" standalone="no"?>
<!DOCTYPE svg PUBLIC "-//W3C//DTD SVG 1.1//EN"
 "http://www.w3.org/Graphics/SVG/1.1/DTD/svg11.dtd">
<!-- Generated by graphviz version 2.43.0 (0)
 -->
<!-- Title: %3 Pages: 1 -->
<svg width="390pt" height="188pt"
 viewBox="0.00 0.00 390.00 188.00" xmlns="http://www.w3.org/2000/svg" xmlns:xlink="http://www.w3.org/1999/xlink">
<g id="graph0" class="graph" transform="scale(1 1) rotate(0) translate(4 184)">
<title>%3</title>
<polygon fill="transparent" stroke="transparent" points="-4,4 -4,-184 386,-184 386,4 -4,4"/>
<!-- 3 -->
<g id="node1" class="node">
<title>3</title>
<g id="a_node1"><a xlink:title="ipc::CollisionStencil">
<polygon fill="#ffffff" stroke="black" points="280.5,-36 122.5,-36 122.5,0 280.5,0 280.5,-36"/>
<text text-anchor="middle" x="201.5" y="-14.3" font-family="Times,serif" font-size="14.00">ipc::CollisionStencil</text>
</a>
</g>
</g>
<!-- 2 -->
<g id="node2" class="node">
<title>2</title>
<g id="a_node2"><a xlink:title="ipc::EdgeVertexCandidate">
<polygon fill="#ffffff" stroke="black" points="203,-108 0,-108 0,-72 203,-72 203,-108"/>
<text text-anchor="middle" x="101.5" y="-86.3" font-family="Times,serif" font-size="14.00">ipc::EdgeVertexCandidate</text>
</a>
</g>
</g>
<!-- 2&#45;&gt;3 -->
<g id="edge1" class="edge">
<title>2&#45;&gt;3</title>
<g id="a_edge1"><a xlink:title="public&#45;inheritance">
<path fill="none" stroke="#ce93d8" d="M125.96,-71.88C138.8,-62.89 154.7,-51.76 168.59,-42.03"/>
<polygon fill="#ce93d8" stroke="#ce93d8" points="170.76,-44.79 176.94,-36.19 166.74,-39.06 170.76,-44.79"/>
</a>
</g>
</g>
<!-- 1 -->
<g id="node3" class="node">
<title>1</title>
<g id="a_node3"><a xlink:title="ipc::EdgeVertexNormalCollision">
<polygon fill="#bfbfbf" stroke="black" points="324,-180 79,-180 79,-144 324,-144 324,-180"/>
<text text-anchor="middle" x="201.5" y="-158.3" font-family="Times,serif" font-size="14.00">ipc::EdgeVertexNormalCollision</text>
</a>
</g>
</g>
<!-- 1&#45;&gt;2 -->
<g id="edge2" class="edge">
<title>1&#45;&gt;2</title>
<g id="a_edge2"><a xlink:title="public&#45;inheritance">
<path fill="none" stroke="#ce93d8" d="M177.04,-143.88C164.2,-134.89 148.3,-123.76 134.41,-114.03"/>
<polygon fill="#ce93d8" stroke="#ce93d8" points="136.26,-111.06 126.06,-108.19 132.24,-116.79 136.26,-111.06"/>
</a>
</g>
</g>
<!-- 4 -->
<g id="node4" class="node">
<title>4</title>
<g id="a_node4"><a xlink:title="ipc::NormalCollision">
<polygon fill="#ffffff" stroke="black" points="382,-108 221,-108 221,-72 382,-72 382,-108"/>
<text text-anchor="middle" x="301.5" y="-86.3" font-family="Times,serif" font-size="14.00">ipc::NormalCollision</text>
</a>
</g>
</g>
<!-- 1&#45;&gt;4 -->
<g id="edge3" class="edge">
<title>1&#45;&gt;4</title>
<g id="a_edge3"><a xlink:title="public&#45;inheritance">
<path fill="none" stroke="#ce93d8" d="M225.96,-143.88C238.8,-134.89 254.7,-123.76 268.59,-114.03"/>
<polygon fill="#ce93d8" stroke="#ce93d8" points="270.76,-116.79 276.94,-108.19 266.74,-111.06 270.76,-116.79"/>
</a>
</g>
</g>
<!-- 4&#45;&gt;3 -->
<g id="edge4" class="edge">
<title>4&#45;&gt;3</title>
<g id="a_edge4"><a xlink:title="public&#45;inheritance">
<path fill="none" stroke="#ce93d8" d="M277.04,-71.88C264.2,-62.89 248.3,-51.76 234.41,-42.03"/>
<polygon fill="#ce93d8" stroke="#ce93d8" points="236.26,-39.06 226.06,-36.19 232.24,-44.79 236.26,-39.06"/>
</a>
</g>
</g>
</g>
</svg>
