<?xml version="1.0" encoding="UTF-8" standalone="no"?>
<!DOCTYPE svg PUBLIC "-//W3C//DTD SVG 1.1//EN"
 "http://www.w3.org/Graphics/SVG/1.1/DTD/svg11.dtd">
<!-- Generated by graphviz version 2.43.0 (0)
 -->
<!-- Title: %3 Pages: 1 -->
<svg width="1304pt" height="188pt"
 viewBox="0.00 0.00 1303.50 188.00" xmlns="http://www.w3.org/2000/svg" xmlns:xlink="http://www.w3.org/1999/xlink">
<g id="graph0" class="graph" transform="scale(1 1) rotate(0) translate(4 184)">
<title>%3</title>
<polygon fill="transparent" stroke="transparent" points="-4,4 -4,-184 1299.5,-184 1299.5,4 -4,4"/>
<!-- 2 -->
<g id="node1" class="node">
<title>2</title>
<g id="a_node1"><a xlink:title="ipc::CollisionStencil">
<polygon fill="#ffffff" stroke="black" points="715.5,-36 557.5,-36 557.5,0 715.5,0 715.5,-36"/>
<text text-anchor="middle" x="636.5" y="-14.3" font-family="Times,serif" font-size="14.00">ipc::CollisionStencil</text>
</a>
</g>
</g>
<!-- 3 -->
<g id="node2" class="node">
<title>3</title>
<g id="a_node2"><a xlink:title="ipc::EdgeEdgeNormalCollision">
<polygon fill="#ffffff" stroke="black" points="235,-180 0,-180 0,-144 235,-144 235,-180"/>
<text text-anchor="middle" x="117.5" y="-158.3" font-family="Times,serif" font-size="14.00">ipc::EdgeEdgeNormalCollision</text>
</a>
</g>
</g>
<!-- 1 -->
<g id="node5" class="node">
<title>1</title>
<g id="a_node5"><a xlink:title="ipc::NormalCollision">
<polygon fill="#bfbfbf" stroke="black" points="717,-108 556,-108 556,-72 717,-72 717,-108"/>
<text text-anchor="middle" x="636.5" y="-86.3" font-family="Times,serif" font-size="14.00">ipc::NormalCollision</text>
</a>
</g>
</g>
<!-- 3&#45;&gt;1 -->
<g id="edge1" class="edge">
<title>3&#45;&gt;1</title>
<g id="a_edge1"><a xlink:title="public&#45;inheritance">
<path fill="none" stroke="#ce93d8" d="M235.21,-145.12C238,-144.74 240.77,-144.37 243.5,-144 347.21,-130.01 466.31,-113.95 545.96,-103.21"/>
<polygon fill="#ce93d8" stroke="#ce93d8" points="546.52,-106.66 555.96,-101.86 545.59,-99.73 546.52,-106.66"/>
</a>
</g>
</g>
<!-- 4 -->
<g id="node3" class="node">
<title>4</title>
<g id="a_node3"><a xlink:title="ipc::EdgeVertexNormalCollision">
<polygon fill="#ffffff" stroke="black" points="498,-180 253,-180 253,-144 498,-144 498,-180"/>
<text text-anchor="middle" x="375.5" y="-158.3" font-family="Times,serif" font-size="14.00">ipc::EdgeVertexNormalCollision</text>
</a>
</g>
</g>
<!-- 4&#45;&gt;1 -->
<g id="edge2" class="edge">
<title>4&#45;&gt;1</title>
<g id="a_edge2"><a xlink:title="public&#45;inheritance">
<path fill="none" stroke="#ce93d8" d="M439.01,-143.97C476.43,-133.93 523.93,-121.19 562.97,-110.72"/>
<polygon fill="#ce93d8" stroke="#ce93d8" points="563.95,-114.08 572.7,-108.11 562.14,-107.32 563.95,-114.08"/>
</a>
</g>
</g>
<!-- 5 -->
<g id="node4" class="node">
<title>5</title>
<g id="a_node4"><a xlink:title="ipc::FaceVertexNormalCollision">
<polygon fill="#ffffff" stroke="black" points="757,-180 516,-180 516,-144 757,-144 757,-180"/>
<text text-anchor="middle" x="636.5" y="-158.3" font-family="Times,serif" font-size="14.00">ipc::FaceVertexNormalCollision</text>
</a>
</g>
</g>
<!-- 5&#45;&gt;1 -->
<g id="edge3" class="edge">
<title>5&#45;&gt;1</title>
<g id="a_edge3"><a xlink:title="public&#45;inheritance">
<path fill="none" stroke="#ce93d8" d="M636.5,-143.7C636.5,-135.98 636.5,-126.71 636.5,-118.11"/>
<polygon fill="#ce93d8" stroke="#ce93d8" points="640,-118.1 636.5,-108.1 633,-118.1 640,-118.1"/>
</a>
</g>
</g>
<!-- 1&#45;&gt;2 -->
<g id="edge4" class="edge">
<title>1&#45;&gt;2</title>
<g id="a_edge4"><a xlink:title="public&#45;inheritance">
<path fill="none" stroke="#ce93d8" d="M636.5,-71.7C636.5,-63.98 636.5,-54.71 636.5,-46.11"/>
<polygon fill="#ce93d8" stroke="#ce93d8" points="640,-46.1 636.5,-36.1 633,-46.1 640,-46.1"/>
</a>
</g>
</g>
<!-- 6 -->
<g id="node6" class="node">
<title>6</title>
<g id="a_node6"><a xlink:title="ipc::PlaneVertexNormalCollision">
<polygon fill="#ffffff" stroke="black" points="1023.5,-180 775.5,-180 775.5,-144 1023.5,-144 1023.5,-180"/>
<text text-anchor="middle" x="899.5" y="-158.3" font-family="Times,serif" font-size="14.00">ipc::PlaneVertexNormalCollision</text>
</a>
</g>
</g>
<!-- 6&#45;&gt;1 -->
<g id="edge5" class="edge">
<title>6&#45;&gt;1</title>
<g id="a_edge5"><a xlink:title="public&#45;inheritance">
<path fill="none" stroke="#ce93d8" d="M835.5,-143.97C797.79,-133.93 749.93,-121.19 710.59,-110.72"/>
<polygon fill="#ce93d8" stroke="#ce93d8" points="711.35,-107.3 700.79,-108.11 709.55,-114.07 711.35,-107.3"/>
</a>
</g>
</g>
<!-- 7 -->
<g id="node7" class="node">
<title>7</title>
<g id="a_node7"><a xlink:title="ipc::VertexVertexNormalCollision">
<polygon fill="#ffffff" stroke="black" points="1295.5,-180 1041.5,-180 1041.5,-144 1295.5,-144 1295.5,-180"/>
<text text-anchor="middle" x="1168.5" y="-158.3" font-family="Times,serif" font-size="14.00">ipc::VertexVertexNormalCollision</text>
</a>
</g>
</g>
<!-- 7&#45;&gt;1 -->
<g id="edge6" class="edge">
<title>7&#45;&gt;1</title>
<g id="a_edge6"><a xlink:title="public&#45;inheritance">
<path fill="none" stroke="#ce93d8" d="M1041.41,-144.28C944.58,-131.54 813.62,-114.31 727.18,-102.93"/>
<polygon fill="#ce93d8" stroke="#ce93d8" points="727.5,-99.44 717.13,-101.61 726.59,-106.38 727.5,-99.44"/>
</a>
</g>
</g>
</g>
</svg>
