<?xml version="1.0" encoding="UTF-8" standalone="no"?>
<!DOCTYPE svg PUBLIC "-//W3C//DTD SVG 1.1//EN"
 "http://www.w3.org/Graphics/SVG/1.1/DTD/svg11.dtd">
<!-- Generated by graphviz version 2.43.0 (0)
 -->
<!-- Title: %3 Pages: 1 -->
<svg width="402pt" height="188pt"
 viewBox="0.00 0.00 402.00 188.00" xmlns="http://www.w3.org/2000/svg" xmlns:xlink="http://www.w3.org/1999/xlink">
<g id="graph0" class="graph" transform="scale(1 1) rotate(0) translate(4 184)">
<title>%3</title>
<polygon fill="transparent" stroke="transparent" points="-4,4 -4,-184 398,-184 398,4 -4,4"/>
<!-- 3 -->
<g id="node1" class="node">
<title>3</title>
<g id="a_node1"><a xlink:title="ipc::CollisionStencil">
<polygon fill="#ffffff" stroke="black" points="278.5,-36 120.5,-36 120.5,0 278.5,0 278.5,-36"/>
<text text-anchor="middle" x="199.5" y="-14.3" font-family="Times,serif" font-size="14.00">ipc::CollisionStencil</text>
</a>
</g>
</g>
<!-- 2 -->
<g id="node2" class="node">
<title>2</title>
<g id="a_node2"><a xlink:title="ipc::EdgeEdgeCandidate">
<polygon fill="#ffffff" stroke="black" points="193,-108 0,-108 0,-72 193,-72 193,-108"/>
<text text-anchor="middle" x="96.5" y="-86.3" font-family="Times,serif" font-size="14.00">ipc::EdgeEdgeCandidate</text>
</a>
</g>
</g>
<!-- 2&#45;&gt;3 -->
<g id="edge1" class="edge">
<title>2&#45;&gt;3</title>
<g id="a_edge1"><a xlink:title="public&#45;inheritance">
<path fill="none" stroke="#ce93d8" d="M121.7,-71.88C134.91,-62.89 151.29,-51.76 165.61,-42.03"/>
<polygon fill="#ce93d8" stroke="#ce93d8" points="167.9,-44.71 174.21,-36.19 163.97,-38.92 167.9,-44.71"/>
</a>
</g>
</g>
<!-- 1 -->
<g id="node3" class="node">
<title>1</title>
<g id="a_node3"><a xlink:title="ipc::EdgeEdgeTangentialCollision">
<polygon fill="#bfbfbf" stroke="black" points="328,-180 71,-180 71,-144 328,-144 328,-180"/>
<text text-anchor="middle" x="199.5" y="-158.3" font-family="Times,serif" font-size="14.00">ipc::EdgeEdgeTangentialCollision</text>
</a>
</g>
</g>
<!-- 1&#45;&gt;2 -->
<g id="edge2" class="edge">
<title>1&#45;&gt;2</title>
<g id="a_edge2"><a xlink:title="public&#45;inheritance">
<path fill="none" stroke="#ce93d8" d="M174.3,-143.88C161.09,-134.89 144.71,-123.76 130.39,-114.03"/>
<polygon fill="#ce93d8" stroke="#ce93d8" points="132.03,-110.92 121.79,-108.19 128.1,-116.71 132.03,-110.92"/>
</a>
</g>
</g>
<!-- 4 -->
<g id="node4" class="node">
<title>4</title>
<g id="a_node4"><a xlink:title="ipc::TangentialCollision">
<polygon fill="#ffffff" stroke="black" points="394,-108 211,-108 211,-72 394,-72 394,-108"/>
<text text-anchor="middle" x="302.5" y="-86.3" font-family="Times,serif" font-size="14.00">ipc::TangentialCollision</text>
</a>
</g>
</g>
<!-- 1&#45;&gt;4 -->
<g id="edge3" class="edge">
<title>1&#45;&gt;4</title>
<g id="a_edge3"><a xlink:title="public&#45;inheritance">
<path fill="none" stroke="#ce93d8" d="M224.7,-143.88C237.91,-134.89 254.29,-123.76 268.61,-114.03"/>
<polygon fill="#ce93d8" stroke="#ce93d8" points="270.9,-116.71 277.21,-108.19 266.97,-110.92 270.9,-116.71"/>
</a>
</g>
</g>
<!-- 4&#45;&gt;3 -->
<g id="edge4" class="edge">
<title>4&#45;&gt;3</title>
<g id="a_edge4"><a xlink:title="public&#45;inheritance">
<path fill="none" stroke="#ce93d8" d="M277.3,-71.88C264.09,-62.89 247.71,-51.76 233.39,-42.03"/>
<polygon fill="#ce93d8" stroke="#ce93d8" points="235.03,-38.92 224.79,-36.19 231.1,-44.71 235.03,-38.92"/>
</a>
</g>
</g>
</g>
</svg>
