<?xml version="1.0" encoding="UTF-8" standalone="no"?>
<!DOCTYPE svg PUBLIC "-//W3C//DTD SVG 1.1//EN"
 "http://www.w3.org/Graphics/SVG/1.1/DTD/svg11.dtd">
<!-- Generated by graphviz version 2.43.0 (0)
 -->
<!-- Title: %3 Pages: 1 -->
<svg width="346pt" height="116pt"
 viewBox="0.00 0.00 345.50 116.00" xmlns="http://www.w3.org/2000/svg" xmlns:xlink="http://www.w3.org/1999/xlink">
<g id="graph0" class="graph" transform="scale(1 1) rotate(0) translate(4 112)">
<title>%3</title>
<polygon fill="transparent" stroke="transparent" points="-4,4 -4,-112 341.5,-112 341.5,4 -4,4"/>
<!-- 2 -->
<g id="node1" class="node">
<title>2</title>
<g id="a_node1"><a xlink:title="ipc::AdditiveCCD">
<polygon fill="#ffffff" stroke="black" points="138,-108 0,-108 0,-72 138,-72 138,-108"/>
<text text-anchor="middle" x="69" y="-86.3" font-family="Times,serif" font-size="14.00">ipc::AdditiveCCD</text>
</a>
</g>
</g>
<!-- 1 -->
<g id="node2" class="node">
<title>1</title>
<g id="a_node2"><a xlink:title="ipc::NarrowPhaseCCD">
<polygon fill="#bfbfbf" stroke="black" points="246,-36 70,-36 70,0 246,0 246,-36"/>
<text text-anchor="middle" x="158" y="-14.3" font-family="Times,serif" font-size="14.00">ipc::NarrowPhaseCCD</text>
</a>
</g>
</g>
<!-- 2&#45;&gt;1 -->
<g id="edge1" class="edge">
<title>2&#45;&gt;1</title>
<g id="a_edge1"><a xlink:title="public&#45;inheritance">
<path fill="none" stroke="#ce93d8" d="M91,-71.7C102.21,-62.88 116,-52.03 128.15,-42.47"/>
<polygon fill="#ce93d8" stroke="#ce93d8" points="130.56,-45.04 136.25,-36.1 126.23,-39.54 130.56,-45.04"/>
</a>
</g>
</g>
<!-- 3 -->
<g id="node3" class="node">
<title>3</title>
<g id="a_node3"><a xlink:title="ipc::TightInclusionCCD">
<polygon fill="#ffffff" stroke="black" points="337.5,-108 156.5,-108 156.5,-72 337.5,-72 337.5,-108"/>
<text text-anchor="middle" x="247" y="-86.3" font-family="Times,serif" font-size="14.00">ipc::TightInclusionCCD</text>
</a>
</g>
</g>
<!-- 3&#45;&gt;1 -->
<g id="edge2" class="edge">
<title>3&#45;&gt;1</title>
<g id="a_edge2"><a xlink:title="public&#45;inheritance">
<path fill="none" stroke="#ce93d8" d="M225,-71.7C213.79,-62.88 200,-52.03 187.85,-42.47"/>
<polygon fill="#ce93d8" stroke="#ce93d8" points="189.77,-39.54 179.75,-36.1 185.44,-45.04 189.77,-39.54"/>
</a>
</g>
</g>
</g>
</svg>
