<?xml version="1.0" encoding="UTF-8" standalone="no"?>
<!DOCTYPE svg PUBLIC "-//W3C//DTD SVG 1.1//EN"
 "http://www.w3.org/Graphics/SVG/1.1/DTD/svg11.dtd">
<!-- Generated by graphviz version 2.43.0 (0)
 -->
<!-- Title: %3 Pages: 1 -->
<svg width="2440pt" height="188pt"
 viewBox="0.00 0.00 2439.50 188.00" xmlns="http://www.w3.org/2000/svg" xmlns:xlink="http://www.w3.org/1999/xlink">
<g id="graph0" class="graph" transform="scale(1 1) rotate(0) translate(4 184)">
<title>%3</title>
<polygon fill="transparent" stroke="transparent" points="-4,4 -4,-184 2435.5,-184 2435.5,4 -4,4"/>
<!-- 1 -->
<g id="node1" class="node">
<title>1</title>
<g id="a_node1"><a xlink:title="ipc::CollisionStencil">
<polygon fill="#bfbfbf" stroke="black" points="1305.5,-36 1147.5,-36 1147.5,0 1305.5,0 1305.5,-36"/>
<text text-anchor="middle" x="1226.5" y="-14.3" font-family="Times,serif" font-size="14.00">ipc::CollisionStencil</text>
</a>
</g>
</g>
<!-- 2 -->
<g id="node2" class="node">
<title>2</title>
<g id="a_node2"><a xlink:title="ipc::EdgeEdgeCandidate">
<polygon fill="#ffffff" stroke="black" points="745,-108 552,-108 552,-72 745,-72 745,-108"/>
<text text-anchor="middle" x="648.5" y="-86.3" font-family="Times,serif" font-size="14.00">ipc::EdgeEdgeCandidate</text>
</a>
</g>
</g>
<!-- 2&#45;&gt;1 -->
<g id="edge1" class="edge">
<title>2&#45;&gt;1</title>
<g id="a_edge1"><a xlink:title="public&#45;inheritance">
<path fill="none" stroke="#ce93d8" d="M745.24,-77.28C854.52,-64.05 1030.91,-42.69 1137.08,-29.83"/>
<polygon fill="#ce93d8" stroke="#ce93d8" points="1137.62,-33.29 1147.13,-28.61 1136.78,-26.34 1137.62,-33.29"/>
</a>
</g>
</g>
<!-- 3 -->
<g id="node3" class="node">
<title>3</title>
<g id="a_node3"><a xlink:title="ipc::EdgeEdgeNormalCollision">
<polygon fill="#ffffff" stroke="black" points="235,-180 0,-180 0,-144 235,-144 235,-180"/>
<text text-anchor="middle" x="117.5" y="-158.3" font-family="Times,serif" font-size="14.00">ipc::EdgeEdgeNormalCollision</text>
</a>
</g>
</g>
<!-- 3&#45;&gt;2 -->
<g id="edge2" class="edge">
<title>3&#45;&gt;2</title>
<g id="a_edge2"><a xlink:title="public&#45;inheritance">
<path fill="none" stroke="#ce93d8" d="M235.13,-145.24C238.28,-144.82 241.41,-144.41 244.5,-144 345.21,-130.65 460.06,-115.6 541.5,-104.96"/>
<polygon fill="#ce93d8" stroke="#ce93d8" points="542.3,-108.39 551.76,-103.62 541.39,-101.44 542.3,-108.39"/>
</a>
</g>
</g>
<!-- 11 -->
<g id="node11" class="node">
<title>11</title>
<g id="a_node11"><a xlink:title="ipc::NormalCollision">
<polygon fill="#ffffff" stroke="black" points="998,-108 837,-108 837,-72 998,-72 998,-108"/>
<text text-anchor="middle" x="917.5" y="-86.3" font-family="Times,serif" font-size="14.00">ipc::NormalCollision</text>
</a>
</g>
</g>
<!-- 3&#45;&gt;11 -->
<g id="edge3" class="edge">
<title>3&#45;&gt;11</title>
<g id="a_edge3"><a xlink:title="public&#45;inheritance">
<path fill="none" stroke="#ce93d8" d="M235.1,-145C238.26,-144.65 241.4,-144.32 244.5,-144 470.11,-120.94 527.57,-127.69 753.5,-108 777.2,-105.93 802.81,-103.42 826.57,-100.96"/>
<polygon fill="#ce93d8" stroke="#ce93d8" points="827.05,-104.43 836.64,-99.91 826.33,-97.47 827.05,-104.43"/>
</a>
</g>
</g>
<!-- 4 -->
<g id="node4" class="node">
<title>4</title>
<g id="a_node4"><a xlink:title="ipc::EdgeEdgeTangentialCollision">
<polygon fill="#ffffff" stroke="black" points="777,-180 520,-180 520,-144 777,-144 777,-180"/>
<text text-anchor="middle" x="648.5" y="-158.3" font-family="Times,serif" font-size="14.00">ipc::EdgeEdgeTangentialCollision</text>
</a>
</g>
</g>
<!-- 4&#45;&gt;2 -->
<g id="edge4" class="edge">
<title>4&#45;&gt;2</title>
<g id="a_edge4"><a xlink:title="public&#45;inheritance">
<path fill="none" stroke="#ce93d8" d="M648.5,-143.7C648.5,-135.98 648.5,-126.71 648.5,-118.11"/>
<polygon fill="#ce93d8" stroke="#ce93d8" points="652,-118.1 648.5,-108.1 645,-118.1 652,-118.1"/>
</a>
</g>
</g>
<!-- 14 -->
<g id="node13" class="node">
<title>14</title>
<g id="a_node13"><a xlink:title="ipc::TangentialCollision">
<polygon fill="#ffffff" stroke="black" points="1637,-108 1454,-108 1454,-72 1637,-72 1637,-108"/>
<text text-anchor="middle" x="1545.5" y="-86.3" font-family="Times,serif" font-size="14.00">ipc::TangentialCollision</text>
</a>
</g>
</g>
<!-- 4&#45;&gt;14 -->
<g id="edge5" class="edge">
<title>4&#45;&gt;14</title>
<g id="a_edge5"><a xlink:title="public&#45;inheritance">
<path fill="none" stroke="#ce93d8" d="M777.18,-144.77C779.98,-144.5 782.75,-144.24 785.5,-144 1074.82,-118.19 1151.83,-140.16 1443.71,-108.13"/>
<polygon fill="#ce93d8" stroke="#ce93d8" points="1444.18,-111.6 1453.74,-107.02 1443.41,-104.64 1444.18,-111.6"/>
</a>
</g>
</g>
<!-- 5 -->
<g id="node5" class="node">
<title>5</title>
<g id="a_node5"><a xlink:title="ipc::EdgeVertexCandidate">
<polygon fill="#ffffff" stroke="black" points="1219,-108 1016,-108 1016,-72 1219,-72 1219,-108"/>
<text text-anchor="middle" x="1117.5" y="-86.3" font-family="Times,serif" font-size="14.00">ipc::EdgeVertexCandidate</text>
</a>
</g>
</g>
<!-- 5&#45;&gt;1 -->
<g id="edge6" class="edge">
<title>5&#45;&gt;1</title>
<g id="a_edge6"><a xlink:title="public&#45;inheritance">
<path fill="none" stroke="#ce93d8" d="M1144.16,-71.88C1158.28,-62.81 1175.81,-51.55 1191.06,-41.76"/>
<polygon fill="#ce93d8" stroke="#ce93d8" points="1193.21,-44.54 1199.73,-36.19 1189.43,-38.65 1193.21,-44.54"/>
</a>
</g>
</g>
<!-- 6 -->
<g id="node6" class="node">
<title>6</title>
<g id="a_node6"><a xlink:title="ipc::EdgeVertexNormalCollision">
<polygon fill="#ffffff" stroke="black" points="1040,-180 795,-180 795,-144 1040,-144 1040,-180"/>
<text text-anchor="middle" x="917.5" y="-158.3" font-family="Times,serif" font-size="14.00">ipc::EdgeVertexNormalCollision</text>
</a>
</g>
</g>
<!-- 6&#45;&gt;5 -->
<g id="edge7" class="edge">
<title>6&#45;&gt;5</title>
<g id="a_edge7"><a xlink:title="public&#45;inheritance">
<path fill="none" stroke="#ce93d8" d="M966.17,-143.97C994.11,-134.19 1029.4,-121.84 1058.86,-111.52"/>
<polygon fill="#ce93d8" stroke="#ce93d8" points="1060.33,-114.72 1068.61,-108.11 1058.02,-108.11 1060.33,-114.72"/>
</a>
</g>
</g>
<!-- 6&#45;&gt;11 -->
<g id="edge8" class="edge">
<title>6&#45;&gt;11</title>
<g id="a_edge8"><a xlink:title="public&#45;inheritance">
<path fill="none" stroke="#ce93d8" d="M917.5,-143.7C917.5,-135.98 917.5,-126.71 917.5,-118.11"/>
<polygon fill="#ce93d8" stroke="#ce93d8" points="921,-118.1 917.5,-108.1 914,-118.1 921,-118.1"/>
</a>
</g>
</g>
<!-- 7 -->
<g id="node7" class="node">
<title>7</title>
<g id="a_node7"><a xlink:title="ipc::EdgeVertexTangentialCollision">
<polygon fill="#ffffff" stroke="black" points="1583.5,-180 1317.5,-180 1317.5,-144 1583.5,-144 1583.5,-180"/>
<text text-anchor="middle" x="1450.5" y="-158.3" font-family="Times,serif" font-size="14.00">ipc::EdgeVertexTangentialCollision</text>
</a>
</g>
</g>
<!-- 7&#45;&gt;5 -->
<g id="edge9" class="edge">
<title>7&#45;&gt;5</title>
<g id="a_edge9"><a xlink:title="public&#45;inheritance">
<path fill="none" stroke="#ce93d8" d="M1369.46,-143.97C1320.82,-133.74 1258.83,-120.71 1208.51,-110.13"/>
<polygon fill="#ce93d8" stroke="#ce93d8" points="1209.12,-106.68 1198.61,-108.05 1207.68,-113.53 1209.12,-106.68"/>
</a>
</g>
</g>
<!-- 7&#45;&gt;14 -->
<g id="edge10" class="edge">
<title>7&#45;&gt;14</title>
<g id="a_edge10"><a xlink:title="public&#45;inheritance">
<path fill="none" stroke="#ce93d8" d="M1473.98,-143.7C1486.06,-134.8 1500.95,-123.82 1514.02,-114.2"/>
<polygon fill="#ce93d8" stroke="#ce93d8" points="1516.31,-116.85 1522.29,-108.1 1512.16,-111.22 1516.31,-116.85"/>
</a>
</g>
</g>
<!-- 8 -->
<g id="node8" class="node">
<title>8</title>
<g id="a_node8"><a xlink:title="ipc::FaceVertexCandidate">
<polygon fill="#ffffff" stroke="black" points="1436,-108 1237,-108 1237,-72 1436,-72 1436,-108"/>
<text text-anchor="middle" x="1336.5" y="-86.3" font-family="Times,serif" font-size="14.00">ipc::FaceVertexCandidate</text>
</a>
</g>
</g>
<!-- 8&#45;&gt;1 -->
<g id="edge11" class="edge">
<title>8&#45;&gt;1</title>
<g id="a_edge11"><a xlink:title="public&#45;inheritance">
<path fill="none" stroke="#ce93d8" d="M1309.59,-71.88C1295.34,-62.81 1277.65,-51.55 1262.26,-41.76"/>
<polygon fill="#ce93d8" stroke="#ce93d8" points="1263.83,-38.61 1253.51,-36.19 1260.07,-44.51 1263.83,-38.61"/>
</a>
</g>
</g>
<!-- 9 -->
<g id="node9" class="node">
<title>9</title>
<g id="a_node9"><a xlink:title="ipc::FaceVertexNormalCollision">
<polygon fill="#ffffff" stroke="black" points="1299,-180 1058,-180 1058,-144 1299,-144 1299,-180"/>
<text text-anchor="middle" x="1178.5" y="-158.3" font-family="Times,serif" font-size="14.00">ipc::FaceVertexNormalCollision</text>
</a>
</g>
</g>
<!-- 9&#45;&gt;8 -->
<g id="edge12" class="edge">
<title>9&#45;&gt;8</title>
<g id="a_edge12"><a xlink:title="public&#45;inheritance">
<path fill="none" stroke="#ce93d8" d="M1217.15,-143.88C1238.75,-134.31 1265.85,-122.3 1288.77,-112.15"/>
<polygon fill="#ce93d8" stroke="#ce93d8" points="1290.25,-115.32 1297.97,-108.07 1287.41,-108.92 1290.25,-115.32"/>
</a>
</g>
</g>
<!-- 9&#45;&gt;11 -->
<g id="edge13" class="edge">
<title>9&#45;&gt;11</title>
<g id="a_edge13"><a xlink:title="public&#45;inheritance">
<path fill="none" stroke="#ce93d8" d="M1114.99,-143.97C1077.57,-133.93 1030.07,-121.19 991.03,-110.72"/>
<polygon fill="#ce93d8" stroke="#ce93d8" points="991.86,-107.32 981.3,-108.11 990.05,-114.08 991.86,-107.32"/>
</a>
</g>
</g>
<!-- 10 -->
<g id="node10" class="node">
<title>10</title>
<g id="a_node10"><a xlink:title="ipc::FaceVertexTangentialCollision">
<polygon fill="#ffffff" stroke="black" points="1865,-180 1602,-180 1602,-144 1865,-144 1865,-180"/>
<text text-anchor="middle" x="1733.5" y="-158.3" font-family="Times,serif" font-size="14.00">ipc::FaceVertexTangentialCollision</text>
</a>
</g>
</g>
<!-- 10&#45;&gt;8 -->
<g id="edge14" class="edge">
<title>10&#45;&gt;8</title>
<g id="a_edge14"><a xlink:title="public&#45;inheritance">
<path fill="none" stroke="#ce93d8" d="M1636.89,-143.97C1578.3,-133.63 1503.45,-120.44 1443.13,-109.8"/>
<polygon fill="#ce93d8" stroke="#ce93d8" points="1443.65,-106.34 1433.2,-108.05 1442.44,-113.23 1443.65,-106.34"/>
</a>
</g>
</g>
<!-- 10&#45;&gt;14 -->
<g id="edge15" class="edge">
<title>10&#45;&gt;14</title>
<g id="a_edge15"><a xlink:title="public&#45;inheritance">
<path fill="none" stroke="#ce93d8" d="M1687.51,-143.88C1661.35,-134.14 1628.41,-121.87 1600.85,-111.61"/>
<polygon fill="#ce93d8" stroke="#ce93d8" points="1601.93,-108.28 1591.34,-108.07 1599.49,-114.84 1601.93,-108.28"/>
</a>
</g>
</g>
<!-- 11&#45;&gt;1 -->
<g id="edge16" class="edge">
<title>11&#45;&gt;1</title>
<g id="a_edge16"><a xlink:title="public&#45;inheritance">
<path fill="none" stroke="#ce93d8" d="M992.69,-71.97C1037.64,-61.78 1094.87,-48.82 1141.46,-38.26"/>
<polygon fill="#ce93d8" stroke="#ce93d8" points="1142.26,-41.67 1151.24,-36.05 1140.71,-34.85 1142.26,-41.67"/>
</a>
</g>
</g>
<!-- 12 -->
<g id="node12" class="node">
<title>12</title>
<g id="a_node12"><a xlink:title="ipc::PlaneVertexNormalCollision">
<polygon fill="#ffffff" stroke="black" points="501.5,-180 253.5,-180 253.5,-144 501.5,-144 501.5,-180"/>
<text text-anchor="middle" x="377.5" y="-158.3" font-family="Times,serif" font-size="14.00">ipc::PlaneVertexNormalCollision</text>
</a>
</g>
</g>
<!-- 12&#45;&gt;11 -->
<g id="edge17" class="edge">
<title>12&#45;&gt;11</title>
<g id="a_edge17"><a xlink:title="public&#45;inheritance">
<path fill="none" stroke="#ce93d8" d="M501.73,-144.9C600.83,-132.05 737.36,-114.35 826.51,-102.79"/>
<polygon fill="#ce93d8" stroke="#ce93d8" points="827.13,-106.24 836.6,-101.49 826.23,-99.3 827.13,-106.24"/>
</a>
</g>
</g>
<!-- 14&#45;&gt;1 -->
<g id="edge18" class="edge">
<title>14&#45;&gt;1</title>
<g id="a_edge18"><a xlink:title="public&#45;inheritance">
<path fill="none" stroke="#ce93d8" d="M1467.87,-71.97C1421.37,-61.76 1362.14,-48.76 1313.99,-38.2"/>
<polygon fill="#ce93d8" stroke="#ce93d8" points="1314.72,-34.77 1304.2,-36.05 1313.22,-41.61 1314.72,-34.77"/>
</a>
</g>
</g>
<!-- 16 -->
<g id="node14" class="node">
<title>16</title>
<g id="a_node14"><a xlink:title="ipc::VertexVertexCandidate">
<polygon fill="#ffffff" stroke="black" points="2116.5,-108 1904.5,-108 1904.5,-72 2116.5,-72 2116.5,-108"/>
<text text-anchor="middle" x="2010.5" y="-86.3" font-family="Times,serif" font-size="14.00">ipc::VertexVertexCandidate</text>
</a>
</g>
</g>
<!-- 16&#45;&gt;1 -->
<g id="edge19" class="edge">
<title>16&#45;&gt;1</title>
<g id="a_edge19"><a xlink:title="public&#45;inheritance">
<path fill="none" stroke="#ce93d8" d="M1904.36,-79.52C1748.71,-65.63 1461.31,-39.97 1315.84,-26.98"/>
<polygon fill="#ce93d8" stroke="#ce93d8" points="1315.89,-23.47 1305.62,-26.06 1315.27,-30.44 1315.89,-23.47"/>
</a>
</g>
</g>
<!-- 13 -->
<g id="node15" class="node">
<title>13</title>
<g id="a_node15"><a xlink:title="ipc::VertexVertexNormalCollision">
<polygon fill="#ffffff" stroke="black" points="2137.5,-180 1883.5,-180 1883.5,-144 2137.5,-144 2137.5,-180"/>
<text text-anchor="middle" x="2010.5" y="-158.3" font-family="Times,serif" font-size="14.00">ipc::VertexVertexNormalCollision</text>
</a>
</g>
</g>
<!-- 13&#45;&gt;11 -->
<g id="edge20" class="edge">
<title>13&#45;&gt;11</title>
<g id="a_edge20"><a xlink:title="public&#45;inheritance">
<path fill="none" stroke="#ce93d8" d="M1883.49,-144.79C1880.46,-144.51 1877.46,-144.25 1874.5,-144 1493,-112.3 1391.78,-151.66 1008.4,-108.13"/>
<polygon fill="#ce93d8" stroke="#ce93d8" points="1008.76,-104.64 998.43,-106.98 1007.96,-111.6 1008.76,-104.64"/>
</a>
</g>
</g>
<!-- 13&#45;&gt;16 -->
<g id="edge21" class="edge">
<title>13&#45;&gt;16</title>
<g id="a_edge21"><a xlink:title="public&#45;inheritance">
<path fill="none" stroke="#ce93d8" d="M2010.5,-143.7C2010.5,-135.98 2010.5,-126.71 2010.5,-118.11"/>
<polygon fill="#ce93d8" stroke="#ce93d8" points="2014,-118.1 2010.5,-108.1 2007,-118.1 2014,-118.1"/>
</a>
</g>
</g>
<!-- 15 -->
<g id="node16" class="node">
<title>15</title>
<g id="a_node16"><a xlink:title="ipc::VertexVertexTangentialCollision">
<polygon fill="#ffffff" stroke="black" points="2431.5,-180 2155.5,-180 2155.5,-144 2431.5,-144 2431.5,-180"/>
<text text-anchor="middle" x="2293.5" y="-158.3" font-family="Times,serif" font-size="14.00">ipc::VertexVertexTangentialCollision</text>
</a>
</g>
</g>
<!-- 15&#45;&gt;14 -->
<g id="edge22" class="edge">
<title>15&#45;&gt;14</title>
<g id="a_edge22"><a xlink:title="public&#45;inheritance">
<path fill="none" stroke="#ce93d8" d="M2155.41,-144.92C2152.41,-144.61 2149.44,-144.3 2146.5,-144 1971.33,-126.15 1767.07,-108.89 1647.45,-99.14"/>
<polygon fill="#ce93d8" stroke="#ce93d8" points="1647.46,-95.63 1637.21,-98.31 1646.89,-102.61 1647.46,-95.63"/>
</a>
</g>
</g>
<!-- 15&#45;&gt;16 -->
<g id="edge23" class="edge">
<title>15&#45;&gt;16</title>
<g id="a_edge23"><a xlink:title="public&#45;inheritance">
<path fill="none" stroke="#ce93d8" d="M2224.63,-143.97C2183.8,-133.87 2131.9,-121.03 2089.42,-110.52"/>
<polygon fill="#ce93d8" stroke="#ce93d8" points="2090.22,-107.11 2079.68,-108.11 2088.54,-113.91 2090.22,-107.11"/>
</a>
</g>
</g>
</g>
</svg>
