<?xml version="1.0" encoding="UTF-8" standalone="no"?>
<!DOCTYPE svg PUBLIC "-//W3C//DTD SVG 1.1//EN"
 "http://www.w3.org/Graphics/SVG/1.1/DTD/svg11.dtd">
<!-- Generated by graphviz version 2.43.0 (0)
 -->
<!-- Title: %3 Pages: 1 -->
<svg width="578pt" height="116pt"
 viewBox="0.00 0.00 577.50 116.00" xmlns="http://www.w3.org/2000/svg" xmlns:xlink="http://www.w3.org/1999/xlink">
<g id="graph0" class="graph" transform="scale(1 1) rotate(0) translate(4 112)">
<title>%3</title>
<polygon fill="transparent" stroke="transparent" points="-4,4 -4,-112 573.5,-112 573.5,4 -4,4"/>
<!-- 1 -->
<g id="node1" class="node">
<title>1</title>
<g id="a_node1"><a xlink:title="ipc::Barrier">
<polygon fill="#bfbfbf" stroke="black" points="358,-36 260,-36 260,0 358,0 358,-36"/>
<text text-anchor="middle" x="309" y="-14.3" font-family="Times,serif" font-size="14.00">ipc::Barrier</text>
</a>
</g>
</g>
<!-- 2 -->
<g id="node2" class="node">
<title>2</title>
<g id="a_node2"><a xlink:title="ipc::ClampedLogBarrier">
<polygon fill="#ffffff" stroke="black" points="188,-108 0,-108 0,-72 188,-72 188,-108"/>
<text text-anchor="middle" x="94" y="-86.3" font-family="Times,serif" font-size="14.00">ipc::ClampedLogBarrier</text>
</a>
</g>
</g>
<!-- 2&#45;&gt;1 -->
<g id="edge1" class="edge">
<title>2&#45;&gt;1</title>
<g id="a_edge1"><a xlink:title="public&#45;inheritance">
<path fill="none" stroke="#ce93d8" d="M146.32,-71.97C177.64,-61.77 217.52,-48.78 249.96,-38.22"/>
<polygon fill="#ce93d8" stroke="#ce93d8" points="251.35,-41.45 259.77,-35.03 249.18,-34.8 251.35,-41.45"/>
</a>
</g>
</g>
<!-- 3 -->
<g id="node3" class="node">
<title>3</title>
<g id="a_node3"><a xlink:title="ipc::ClampedLogSqBarrier">
<polygon fill="#ffffff" stroke="black" points="412,-108 206,-108 206,-72 412,-72 412,-108"/>
<text text-anchor="middle" x="309" y="-86.3" font-family="Times,serif" font-size="14.00">ipc::ClampedLogSqBarrier</text>
</a>
</g>
</g>
<!-- 3&#45;&gt;1 -->
<g id="edge2" class="edge">
<title>3&#45;&gt;1</title>
<g id="a_edge2"><a xlink:title="public&#45;inheritance">
<path fill="none" stroke="#ce93d8" d="M309,-71.7C309,-63.98 309,-54.71 309,-46.11"/>
<polygon fill="#ce93d8" stroke="#ce93d8" points="312.5,-46.1 309,-36.1 305.5,-46.1 312.5,-46.1"/>
</a>
</g>
</g>
<!-- 4 -->
<g id="node4" class="node">
<title>4</title>
<g id="a_node4"><a xlink:title="ipc::CubicBarrier">
<polygon fill="#ffffff" stroke="black" points="569.5,-108 430.5,-108 430.5,-72 569.5,-72 569.5,-108"/>
<text text-anchor="middle" x="500" y="-86.3" font-family="Times,serif" font-size="14.00">ipc::CubicBarrier</text>
</a>
</g>
</g>
<!-- 4&#45;&gt;1 -->
<g id="edge3" class="edge">
<title>4&#45;&gt;1</title>
<g id="a_edge3"><a xlink:title="public&#45;inheritance">
<path fill="none" stroke="#ce93d8" d="M453.28,-71.88C426.7,-62.14 393.24,-49.87 365.23,-39.61"/>
<polygon fill="#ce93d8" stroke="#ce93d8" points="366.17,-36.22 355.57,-36.07 363.76,-42.8 366.17,-36.22"/>
</a>
</g>
</g>
</g>
</svg>
