<?xml version="1.0" encoding="UTF-8" standalone="no"?>
<!DOCTYPE svg PUBLIC "-//W3C//DTD SVG 1.1//EN"
 "http://www.w3.org/Graphics/SVG/1.1/DTD/svg11.dtd">
<!-- Generated by graphviz version 2.43.0 (0)
 -->
<!-- Title: %3 Pages: 1 -->
<svg width="1109pt" height="188pt"
 viewBox="0.00 0.00 1108.50 188.00" xmlns="http://www.w3.org/2000/svg" xmlns:xlink="http://www.w3.org/1999/xlink">
<g id="graph0" class="graph" transform="scale(1 1) rotate(0) translate(4 184)">
<title>%3</title>
<polygon fill="transparent" stroke="transparent" points="-4,4 -4,-184 1104.5,-184 1104.5,4 -4,4"/>
<!-- 1 -->
<g id="node1" class="node">
<title>1</title>
<g id="a_node1"><a xlink:title="ipc::CollisionConstraint">
<polygon fill="#bfbfbf" stroke="black" points="631,-108 447,-108 447,-72 631,-72 631,-108"/>
<text text-anchor="middle" x="539" y="-86.3" font-family="Times,serif" font-size="14.00">ipc::CollisionConstraint</text>
</a>
</g>
</g>
<!-- 2 -->
<g id="node2" class="node">
<title>2</title>
<g id="a_node2"><a xlink:title="ipc::CollisionStencil">
<polygon fill="#ffffff" stroke="black" points="618,-36 460,-36 460,0 618,0 618,-36"/>
<text text-anchor="middle" x="539" y="-14.3" font-family="Times,serif" font-size="14.00">ipc::CollisionStencil</text>
</a>
</g>
</g>
<!-- 1&#45;&gt;2 -->
<g id="edge1" class="edge">
<title>1&#45;&gt;2</title>
<g id="a_edge1"><a xlink:title="public&#45;inheritance">
<path fill="none" stroke="#ce93d8" d="M539,-71.7C539,-63.98 539,-54.71 539,-46.11"/>
<polygon fill="#ce93d8" stroke="#ce93d8" points="542.5,-46.1 539,-36.1 535.5,-46.1 542.5,-46.1"/>
</a>
</g>
</g>
<!-- 3 -->
<g id="node3" class="node">
<title>3</title>
<g id="a_node3"><a xlink:title="ipc::EdgeEdgeConstraint">
<polygon fill="#ffffff" stroke="black" points="196,-180 0,-180 0,-144 196,-144 196,-180"/>
<text text-anchor="middle" x="98" y="-158.3" font-family="Times,serif" font-size="14.00">ipc::EdgeEdgeConstraint</text>
</a>
</g>
</g>
<!-- 3&#45;&gt;1 -->
<g id="edge2" class="edge">
<title>3&#45;&gt;1</title>
<g id="a_edge2"><a xlink:title="public&#45;inheritance">
<path fill="none" stroke="#ce93d8" d="M196.25,-145.39C199.2,-144.92 202.12,-144.46 205,-144 282.77,-131.65 370.72,-117.7 436.84,-107.21"/>
<polygon fill="#ce93d8" stroke="#ce93d8" points="437.52,-110.64 446.85,-105.62 436.43,-103.73 437.52,-110.64"/>
</a>
</g>
</g>
<!-- 4 -->
<g id="node4" class="node">
<title>4</title>
<g id="a_node4"><a xlink:title="ipc::EdgeVertexConstraint">
<polygon fill="#ffffff" stroke="black" points="420,-180 214,-180 214,-144 420,-144 420,-180"/>
<text text-anchor="middle" x="317" y="-158.3" font-family="Times,serif" font-size="14.00">ipc::EdgeVertexConstraint</text>
</a>
</g>
</g>
<!-- 4&#45;&gt;1 -->
<g id="edge3" class="edge">
<title>4&#45;&gt;1</title>
<g id="a_edge3"><a xlink:title="public&#45;inheritance">
<path fill="none" stroke="#ce93d8" d="M371.02,-143.97C402.45,-134.06 442.23,-121.51 475.19,-111.12"/>
<polygon fill="#ce93d8" stroke="#ce93d8" points="476.25,-114.46 484.73,-108.11 474.14,-107.78 476.25,-114.46"/>
</a>
</g>
</g>
<!-- 5 -->
<g id="node5" class="node">
<title>5</title>
<g id="a_node5"><a xlink:title="ipc::FaceVertexConstraint">
<polygon fill="#ffffff" stroke="black" points="640,-180 438,-180 438,-144 640,-144 640,-180"/>
<text text-anchor="middle" x="539" y="-158.3" font-family="Times,serif" font-size="14.00">ipc::FaceVertexConstraint</text>
</a>
</g>
</g>
<!-- 5&#45;&gt;1 -->
<g id="edge4" class="edge">
<title>5&#45;&gt;1</title>
<g id="a_edge4"><a xlink:title="public&#45;inheritance">
<path fill="none" stroke="#ce93d8" d="M539,-143.7C539,-135.98 539,-126.71 539,-118.11"/>
<polygon fill="#ce93d8" stroke="#ce93d8" points="542.5,-118.1 539,-108.1 535.5,-118.1 542.5,-118.1"/>
</a>
</g>
</g>
<!-- 6 -->
<g id="node6" class="node">
<title>6</title>
<g id="a_node6"><a xlink:title="ipc::PlaneVertexConstraint">
<polygon fill="#ffffff" stroke="black" points="867.5,-180 658.5,-180 658.5,-144 867.5,-144 867.5,-180"/>
<text text-anchor="middle" x="763" y="-158.3" font-family="Times,serif" font-size="14.00">ipc::PlaneVertexConstraint</text>
</a>
</g>
</g>
<!-- 6&#45;&gt;1 -->
<g id="edge5" class="edge">
<title>6&#45;&gt;1</title>
<g id="a_edge5"><a xlink:title="public&#45;inheritance">
<path fill="none" stroke="#ce93d8" d="M708.49,-143.97C676.78,-134.06 636.64,-121.51 603.39,-111.12"/>
<polygon fill="#ce93d8" stroke="#ce93d8" points="604.34,-107.75 593.75,-108.11 602.26,-114.43 604.34,-107.75"/>
</a>
</g>
</g>
<!-- 7 -->
<g id="node7" class="node">
<title>7</title>
<g id="a_node7"><a xlink:title="ipc::VertexVertexConstraint">
<polygon fill="#ffffff" stroke="black" points="1100.5,-180 885.5,-180 885.5,-144 1100.5,-144 1100.5,-180"/>
<text text-anchor="middle" x="993" y="-158.3" font-family="Times,serif" font-size="14.00">ipc::VertexVertexConstraint</text>
</a>
</g>
</g>
<!-- 7&#45;&gt;1 -->
<g id="edge6" class="edge">
<title>7&#45;&gt;1</title>
<g id="a_edge6"><a xlink:title="public&#45;inheritance">
<path fill="none" stroke="#ce93d8" d="M885.41,-144.41C811.53,-133.02 714.06,-117.99 641.34,-106.78"/>
<polygon fill="#ce93d8" stroke="#ce93d8" points="641.66,-103.29 631.25,-105.22 640.6,-110.21 641.66,-103.29"/>
</a>
</g>
</g>
</g>
</svg>
