<?xml version="1.0" encoding="UTF-8" standalone="no"?>
<!DOCTYPE svg PUBLIC "-//W3C//DTD SVG 1.1//EN"
 "http://www.w3.org/Graphics/SVG/1.1/DTD/svg11.dtd">
<!-- Generated by graphviz version 2.43.0 (0)
 -->
<!-- Title: %3 Pages: 1 -->
<svg width="366pt" height="188pt"
 viewBox="0.00 0.00 366.00 188.00" xmlns="http://www.w3.org/2000/svg" xmlns:xlink="http://www.w3.org/1999/xlink">
<g id="graph0" class="graph" transform="scale(1 1) rotate(0) translate(4 184)">
<title>%3</title>
<!-- 3 -->
<g id="node1" class="node">
<title>3</title>
<g id="a_node1"><a xlink:title="ipc::CollisionStencil">
<polygon fill="#ffffff" stroke="black" points="262.5,-36 112.5,-36 112.5,0 262.5,0 262.5,-36"/>
<text text-anchor="middle" x="187.5" y="-14.3" font-family="Menlo" font-size="14.00">ipc::CollisionStencil</text>
</a>
</g>
</g>
<!-- 2 -->
<g id="node2" class="node">
<title>2</title>
<g id="a_node2"><a xlink:title="ipc::EdgeEdgeCandidate">
<polygon fill="#ffffff" stroke="black" points="187,-108 0,-108 0,-72 187,-72 187,-108"/>
<text text-anchor="middle" x="93.5" y="-86.3" font-family="Menlo" font-size="14.00">ipc::EdgeEdgeCandidate</text>
</a>
</g>
</g>
<!-- 2&#45;&gt;3 -->
<g id="edge1" class="edge">
<title>2&#45;&gt;3</title>
<g id="a_edge1"><a xlink:title="public&#45;inheritance">
<path fill="none" stroke="#ce93d8" d="M116.74,-71.7C128.69,-62.8 143.42,-51.82 156.35,-42.2"/>
<polygon fill="#ce93d8" stroke="#ce93d8" points="158.6,-44.88 164.53,-36.1 154.42,-39.27 158.6,-44.88"/>
</a>
</g>
</g>
<!-- 1 -->
<g id="node3" class="node">
<title>1</title>
<g id="a_node3"><a xlink:title="ipc::EdgeEdgeNormalCollision">
<polygon fill="#bfbfbf" stroke="black" points="299.5,-180 75.5,-180 75.5,-144 299.5,-144 299.5,-180"/>
<text text-anchor="middle" x="187.5" y="-158.3" font-family="Menlo" font-size="14.00">ipc::EdgeEdgeNormalCollision</text>
</a>
</g>
</g>
<!-- 1&#45;&gt;2 -->
<g id="edge2" class="edge">
<title>1&#45;&gt;2</title>
<g id="a_edge2"><a xlink:title="public&#45;inheritance">
<path fill="none" stroke="#ce93d8" d="M164.26,-143.7C152.31,-134.8 137.58,-123.82 124.65,-114.2"/>
<polygon fill="#ce93d8" stroke="#ce93d8" points="126.58,-111.27 116.47,-108.1 122.4,-116.88 126.58,-111.27"/>
</a>
</g>
</g>
<!-- 4 -->
<g id="node4" class="node">
<title>4</title>
<g id="a_node4"><a xlink:title="ipc::NormalCollision">
<polygon fill="#ffffff" stroke="black" points="358,-108 205,-108 205,-72 358,-72 358,-108"/>
<text text-anchor="middle" x="281.5" y="-86.3" font-family="Menlo" font-size="14.00">ipc::NormalCollision</text>
</a>
</g>
</g>
<!-- 1&#45;&gt;4 -->
<g id="edge3" class="edge">
<title>1&#45;&gt;4</title>
<g id="a_edge3"><a xlink:title="public&#45;inheritance">
<path fill="none" stroke="#ce93d8" d="M210.74,-143.7C222.69,-134.8 237.42,-123.82 250.35,-114.2"/>
<polygon fill="#ce93d8" stroke="#ce93d8" points="252.6,-116.88 258.53,-108.1 248.42,-111.27 252.6,-116.88"/>
</a>
</g>
</g>
<!-- 4&#45;&gt;3 -->
<g id="edge4" class="edge">
<title>4&#45;&gt;3</title>
<g id="a_edge4"><a xlink:title="public&#45;inheritance">
<path fill="none" stroke="#ce93d8" d="M258.26,-71.7C246.31,-62.8 231.58,-51.82 218.65,-42.2"/>
<polygon fill="#ce93d8" stroke="#ce93d8" points="220.58,-39.27 210.47,-36.1 216.4,-44.88 220.58,-39.27"/>
</a>
</g>
</g>
</g>
</svg>
