<?xml version="1.0" encoding="UTF-8" standalone="no"?>
<!DOCTYPE svg PUBLIC "-//W3C//DTD SVG 1.1//EN"
 "http://www.w3.org/Graphics/SVG/1.1/DTD/svg11.dtd">
<!-- Generated by graphviz version 2.43.0 (0)
 -->
<!-- Title: %3 Pages: 1 -->
<svg width="729pt" height="116pt"
 viewBox="0.00 0.00 728.50 116.00" xmlns="http://www.w3.org/2000/svg" xmlns:xlink="http://www.w3.org/1999/xlink">
<g id="graph0" class="graph" transform="scale(1 1) rotate(0) translate(4 112)">
<title>%3</title>
<!-- 1 -->
<g id="node1" class="node">
<title>1</title>
<g id="a_node1"><a xlink:title="ipc::Barrier">
<polygon fill="#bfbfbf" stroke="black" points="433,-36 340,-36 340,0 433,0 433,-36"/>
<text text-anchor="middle" x="386.5" y="-14.3" font-family="Menlo" font-size="14.00">ipc::Barrier</text>
</a>
</g>
</g>
<!-- 2 -->
<g id="node2" class="node">
<title>2</title>
<g id="a_node2"><a xlink:title="ipc::ClampedLogBarrier">
<polygon fill="#ffffff" stroke="black" points="179,-108 0,-108 0,-72 179,-72 179,-108"/>
<text text-anchor="middle" x="89.5" y="-86.3" font-family="Menlo" font-size="14.00">ipc::ClampedLogBarrier</text>
</a>
</g>
</g>
<!-- 2&#45;&gt;1 -->
<g id="edge1" class="edge">
<title>2&#45;&gt;1</title>
<g id="a_edge1"><a xlink:title="public&#45;inheritance">
<path fill="none" stroke="#ce93d8" d="M161.77,-71.97C213.55,-59.76 282.29,-43.56 330.05,-32.3"/>
<polygon fill="#ce93d8" stroke="#ce93d8" points="330.98,-35.68 339.91,-29.98 329.38,-28.87 330.98,-35.68"/>
</a>
</g>
</g>
<!-- 3 -->
<g id="node3" class="node">
<title>3</title>
<g id="a_node3"><a xlink:title="ipc::ClampedLogSqBarrier">
<polygon fill="#ffffff" stroke="black" points="394,-108 197,-108 197,-72 394,-72 394,-108"/>
<text text-anchor="middle" x="295.5" y="-86.3" font-family="Menlo" font-size="14.00">ipc::ClampedLogSqBarrier</text>
</a>
</g>
</g>
<!-- 3&#45;&gt;1 -->
<g id="edge2" class="edge">
<title>3&#45;&gt;1</title>
<g id="a_edge2"><a xlink:title="public&#45;inheritance">
<path fill="none" stroke="#ce93d8" d="M317.99,-71.7C329.46,-62.88 343.56,-52.03 355.98,-42.47"/>
<polygon fill="#ce93d8" stroke="#ce93d8" points="358.47,-44.98 364.26,-36.1 354.2,-39.43 358.47,-44.98"/>
</a>
</g>
</g>
<!-- 4 -->
<g id="node4" class="node">
<title>4</title>
<g id="a_node4"><a xlink:title="ipc::CubicBarrier">
<polygon fill="#ffffff" stroke="black" points="544.5,-108 412.5,-108 412.5,-72 544.5,-72 544.5,-108"/>
<text text-anchor="middle" x="478.5" y="-86.3" font-family="Menlo" font-size="14.00">ipc::CubicBarrier</text>
</a>
</g>
</g>
<!-- 4&#45;&gt;1 -->
<g id="edge3" class="edge">
<title>4&#45;&gt;1</title>
<g id="a_edge3"><a xlink:title="public&#45;inheritance">
<path fill="none" stroke="#ce93d8" d="M455.76,-71.7C444.06,-62.8 429.64,-51.82 416.99,-42.2"/>
<polygon fill="#ce93d8" stroke="#ce93d8" points="419.06,-39.37 408.98,-36.1 414.82,-44.94 419.06,-39.37"/>
</a>
</g>
</g>
<!-- 5 -->
<g id="node5" class="node">
<title>5</title>
<g id="a_node5"><a xlink:title="ipc::TwoStageBarrier">
<polygon fill="#ffffff" stroke="black" points="720.5,-108 562.5,-108 562.5,-72 720.5,-72 720.5,-108"/>
<text text-anchor="middle" x="641.5" y="-86.3" font-family="Menlo" font-size="14.00">ipc::TwoStageBarrier</text>
</a>
</g>
</g>
<!-- 5&#45;&gt;1 -->
<g id="edge4" class="edge">
<title>5&#45;&gt;1</title>
<g id="a_edge4"><a xlink:title="public&#45;inheritance">
<path fill="none" stroke="#ce93d8" d="M579.45,-71.97C537.77,-60.53 483.3,-45.57 442.86,-34.47"/>
<polygon fill="#ce93d8" stroke="#ce93d8" points="443.73,-31.08 433.16,-31.81 441.88,-37.83 443.73,-31.08"/>
</a>
</g>
</g>
</g>
</svg>
