<?xml version="1.0" encoding="UTF-8" standalone="no"?>
<!DOCTYPE svg PUBLIC "-//W3C//DTD SVG 1.1//EN"
 "http://www.w3.org/Graphics/SVG/1.1/DTD/svg11.dtd">
<!-- Generated by graphviz version 2.43.0 (0)
 -->
<!-- Title: %3 Pages: 1 -->
<svg width="396pt" height="188pt"
 viewBox="0.00 0.00 396.00 188.00" xmlns="http://www.w3.org/2000/svg" xmlns:xlink="http://www.w3.org/1999/xlink">
<g id="graph0" class="graph" transform="scale(1 1) rotate(0) translate(4 184)">
<title>%3</title>
<!-- 3 -->
<g id="node1" class="node">
<title>3</title>
<g id="a_node1"><a xlink:title="ipc::CollisionStencil">
<polygon fill="#ffffff" stroke="black" points="274,-36 124,-36 124,0 274,0 274,-36"/>
<text text-anchor="middle" x="199" y="-14.3" font-family="Menlo" font-size="14.00">ipc::CollisionStencil</text>
</a>
</g>
</g>
<!-- 2 -->
<g id="node2" class="node">
<title>2</title>
<g id="a_node2"><a xlink:title="ipc::EdgeVertexCandidate">
<polygon fill="#ffffff" stroke="black" points="196,-108 0,-108 0,-72 196,-72 196,-108"/>
<text text-anchor="middle" x="98" y="-86.3" font-family="Menlo" font-size="14.00">ipc::EdgeVertexCandidate</text>
</a>
</g>
</g>
<!-- 2&#45;&gt;3 -->
<g id="edge1" class="edge">
<title>2&#45;&gt;3</title>
<g id="a_edge1"><a xlink:title="public&#45;inheritance">
<path fill="none" stroke="#ce93d8" d="M122.71,-71.88C135.67,-62.89 151.73,-51.76 165.77,-42.03"/>
<polygon fill="#ce93d8" stroke="#ce93d8" points="167.97,-44.76 174.2,-36.19 163.98,-39.01 167.97,-44.76"/>
</a>
</g>
</g>
<!-- 1 -->
<g id="node3" class="node">
<title>1</title>
<g id="a_node3"><a xlink:title="ipc::EdgeVertexTangentialCollision">
<polygon fill="#bfbfbf" stroke="black" points="326,-180 72,-180 72,-144 326,-144 326,-180"/>
<text text-anchor="middle" x="199" y="-158.3" font-family="Menlo" font-size="14.00">ipc::EdgeVertexTangentialCollision</text>
</a>
</g>
</g>
<!-- 1&#45;&gt;2 -->
<g id="edge2" class="edge">
<title>1&#45;&gt;2</title>
<g id="a_edge2"><a xlink:title="public&#45;inheritance">
<path fill="none" stroke="#ce93d8" d="M174.29,-143.88C161.33,-134.89 145.27,-123.76 131.23,-114.03"/>
<polygon fill="#ce93d8" stroke="#ce93d8" points="133.02,-111.01 122.8,-108.19 129.03,-116.76 133.02,-111.01"/>
</a>
</g>
</g>
<!-- 4 -->
<g id="node4" class="node">
<title>4</title>
<g id="a_node4"><a xlink:title="ipc::TangentialCollision">
<polygon fill="#ffffff" stroke="black" points="388,-108 214,-108 214,-72 388,-72 388,-108"/>
<text text-anchor="middle" x="301" y="-86.3" font-family="Menlo" font-size="14.00">ipc::TangentialCollision</text>
</a>
</g>
</g>
<!-- 1&#45;&gt;4 -->
<g id="edge3" class="edge">
<title>1&#45;&gt;4</title>
<g id="a_edge3"><a xlink:title="public&#45;inheritance">
<path fill="none" stroke="#ce93d8" d="M223.95,-143.88C237.04,-134.89 253.26,-123.76 267.44,-114.03"/>
<polygon fill="#ce93d8" stroke="#ce93d8" points="269.69,-116.73 275.95,-108.19 265.73,-110.96 269.69,-116.73"/>
</a>
</g>
</g>
<!-- 4&#45;&gt;3 -->
<g id="edge4" class="edge">
<title>4&#45;&gt;3</title>
<g id="a_edge4"><a xlink:title="public&#45;inheritance">
<path fill="none" stroke="#ce93d8" d="M276.05,-71.88C262.96,-62.89 246.74,-51.76 232.56,-42.03"/>
<polygon fill="#ce93d8" stroke="#ce93d8" points="234.27,-38.96 224.05,-36.19 230.31,-44.73 234.27,-38.96"/>
</a>
</g>
</g>
</g>
</svg>
