<?xml version="1.0" encoding="UTF-8" standalone="no"?>
<!DOCTYPE svg PUBLIC "-//W3C//DTD SVG 1.1//EN"
 "http://www.w3.org/Graphics/SVG/1.1/DTD/svg11.dtd">
<!-- Generated by graphviz version 2.43.0 (0)
 -->
<!-- Title: %3 Pages: 1 -->
<svg width="332pt" height="116pt"
 viewBox="0.00 0.00 331.50 116.00" xmlns="http://www.w3.org/2000/svg" xmlns:xlink="http://www.w3.org/1999/xlink">
<g id="graph0" class="graph" transform="scale(1 1) rotate(0) translate(4 112)">
<title>%3</title>
<!-- 2 -->
<g id="node1" class="node">
<title>2</title>
<g id="a_node1"><a xlink:title="ipc::AdditiveCCD">
<polygon fill="#ffffff" stroke="black" points="132,-108 0,-108 0,-72 132,-72 132,-108"/>
<text text-anchor="middle" x="66" y="-86.3" font-family="Menlo" font-size="14.00">ipc::AdditiveCCD</text>
</a>
</g>
</g>
<!-- 1 -->
<g id="node2" class="node">
<title>1</title>
<g id="a_node2"><a xlink:title="ipc::NarrowPhaseCCD">
<polygon fill="#bfbfbf" stroke="black" points="234,-36 68,-36 68,0 234,0 234,-36"/>
<text text-anchor="middle" x="151" y="-14.3" font-family="Menlo" font-size="14.00">ipc::NarrowPhaseCCD</text>
</a>
</g>
</g>
<!-- 2&#45;&gt;1 -->
<g id="edge1" class="edge">
<title>2&#45;&gt;1</title>
<g id="a_edge1"><a xlink:title="public&#45;inheritance">
<path fill="none" stroke="#ce93d8" d="M87.01,-71.7C97.72,-62.88 110.89,-52.03 122.5,-42.47"/>
<polygon fill="#ce93d8" stroke="#ce93d8" points="124.74,-45.16 130.23,-36.1 120.29,-39.76 124.74,-45.16"/>
</a>
</g>
</g>
<!-- 3 -->
<g id="node3" class="node">
<title>3</title>
<g id="a_node3"><a xlink:title="ipc::TightInclusionCCD">
<polygon fill="#ffffff" stroke="black" points="323.5,-108 150.5,-108 150.5,-72 323.5,-72 323.5,-108"/>
<text text-anchor="middle" x="237" y="-86.3" font-family="Menlo" font-size="14.00">ipc::TightInclusionCCD</text>
</a>
</g>
</g>
<!-- 3&#45;&gt;1 -->
<g id="edge2" class="edge">
<title>3&#45;&gt;1</title>
<g id="a_edge2"><a xlink:title="public&#45;inheritance">
<path fill="none" stroke="#ce93d8" d="M215.74,-71.7C204.91,-62.88 191.58,-52.03 179.84,-42.47"/>
<polygon fill="#ce93d8" stroke="#ce93d8" points="181.98,-39.7 172.01,-36.1 177.56,-45.13 181.98,-39.7"/>
</a>
</g>
</g>
</g>
</svg>
