<?xml version="1.0" encoding="UTF-8" standalone="no"?>
<!DOCTYPE svg PUBLIC "-//W3C//DTD SVG 1.1//EN"
 "http://www.w3.org/Graphics/SVG/1.1/DTD/svg11.dtd">
<!-- Generated by graphviz version 2.43.0 (0)
 -->
<!-- Title: %3 Pages: 1 -->
<svg width="388pt" height="188pt"
 viewBox="0.00 0.00 387.50 188.00" xmlns="http://www.w3.org/2000/svg" xmlns:xlink="http://www.w3.org/1999/xlink">
<g id="graph0" class="graph" transform="scale(1 1) rotate(0) translate(4 184)">
<title>%3</title>
<!-- 3 -->
<g id="node1" class="node">
<title>3</title>
<g id="a_node1"><a xlink:title="ipc::CollisionStencil">
<polygon fill="#ffffff" stroke="black" points="267.5,-36 117.5,-36 117.5,0 267.5,0 267.5,-36"/>
<text text-anchor="middle" x="192.5" y="-14.3" font-family="Menlo" font-size="14.00">ipc::CollisionStencil</text>
</a>
</g>
</g>
<!-- 2 -->
<g id="node2" class="node">
<title>2</title>
<g id="a_node2"><a xlink:title="ipc::EdgeEdgeCandidate">
<polygon fill="#ffffff" stroke="black" points="187,-108 0,-108 0,-72 187,-72 187,-108"/>
<text text-anchor="middle" x="93.5" y="-86.3" font-family="Menlo" font-size="14.00">ipc::EdgeEdgeCandidate</text>
</a>
</g>
</g>
<!-- 2&#45;&gt;3 -->
<g id="edge1" class="edge">
<title>2&#45;&gt;3</title>
<g id="a_edge1"><a xlink:title="public&#45;inheritance">
<path fill="none" stroke="#ce93d8" d="M117.72,-71.88C130.42,-62.89 146.16,-51.76 159.92,-42.03"/>
<polygon fill="#ce93d8" stroke="#ce93d8" points="162.04,-44.82 168.19,-36.19 158,-39.11 162.04,-44.82"/>
</a>
</g>
</g>
<!-- 1 -->
<g id="node3" class="node">
<title>1</title>
<g id="a_node3"><a xlink:title="ipc::EdgeEdgeTangentialCollision">
<polygon fill="#bfbfbf" stroke="black" points="315,-180 70,-180 70,-144 315,-144 315,-180"/>
<text text-anchor="middle" x="192.5" y="-158.3" font-family="Menlo" font-size="14.00">ipc::EdgeEdgeTangentialCollision</text>
</a>
</g>
</g>
<!-- 1&#45;&gt;2 -->
<g id="edge2" class="edge">
<title>1&#45;&gt;2</title>
<g id="a_edge2"><a xlink:title="public&#45;inheritance">
<path fill="none" stroke="#ce93d8" d="M168.28,-143.88C155.58,-134.89 139.84,-123.76 126.08,-114.03"/>
<polygon fill="#ce93d8" stroke="#ce93d8" points="128,-111.11 117.81,-108.19 123.96,-116.82 128,-111.11"/>
</a>
</g>
</g>
<!-- 4 -->
<g id="node4" class="node">
<title>4</title>
<g id="a_node4"><a xlink:title="ipc::TangentialCollision">
<polygon fill="#ffffff" stroke="black" points="379.5,-108 205.5,-108 205.5,-72 379.5,-72 379.5,-108"/>
<text text-anchor="middle" x="292.5" y="-86.3" font-family="Menlo" font-size="14.00">ipc::TangentialCollision</text>
</a>
</g>
</g>
<!-- 1&#45;&gt;4 -->
<g id="edge3" class="edge">
<title>1&#45;&gt;4</title>
<g id="a_edge3"><a xlink:title="public&#45;inheritance">
<path fill="none" stroke="#ce93d8" d="M216.96,-143.88C229.8,-134.89 245.7,-123.76 259.59,-114.03"/>
<polygon fill="#ce93d8" stroke="#ce93d8" points="261.76,-116.79 267.94,-108.19 257.74,-111.06 261.76,-116.79"/>
</a>
</g>
</g>
<!-- 4&#45;&gt;3 -->
<g id="edge4" class="edge">
<title>4&#45;&gt;3</title>
<g id="a_edge4"><a xlink:title="public&#45;inheritance">
<path fill="none" stroke="#ce93d8" d="M268.04,-71.88C255.2,-62.89 239.3,-51.76 225.41,-42.03"/>
<polygon fill="#ce93d8" stroke="#ce93d8" points="227.26,-39.06 217.06,-36.19 223.24,-44.79 227.26,-39.06"/>
</a>
</g>
</g>
</g>
</svg>
