<?xml version="1.0" encoding="UTF-8" standalone="no"?>
<!DOCTYPE svg PUBLIC "-//W3C//DTD SVG 1.1//EN"
 "http://www.w3.org/Graphics/SVG/1.1/DTD/svg11.dtd">
<!-- Generated by graphviz version 2.43.0 (0)
 -->
<!-- Title: %3 Pages: 1 -->
<svg width="1109pt" height="116pt"
 viewBox="0.00 0.00 1108.50 116.00" xmlns="http://www.w3.org/2000/svg" xmlns:xlink="http://www.w3.org/1999/xlink">
<g id="graph0" class="graph" transform="scale(1 1) rotate(0) translate(4 112)">
<title>%3</title>
<polygon fill="transparent" stroke="transparent" points="-4,4 -4,-112 1104.5,-112 1104.5,4 -4,4"/>
<!-- 1 -->
<g id="node1" class="node">
<title>1</title>
<g id="a_node1"><a xlink:title="ipc::CollisionConstraint">
<polygon fill="#bfbfbf" stroke="black" points="631,-36 447,-36 447,0 631,0 631,-36"/>
<text text-anchor="middle" x="539" y="-14.3" font-family="Times,serif" font-size="14.00">ipc::CollisionConstraint</text>
</a>
</g>
</g>
<!-- 2 -->
<g id="node2" class="node">
<title>2</title>
<g id="a_node2"><a xlink:title="ipc::EdgeEdgeConstraint">
<polygon fill="#ffffff" stroke="black" points="196,-108 0,-108 0,-72 196,-72 196,-108"/>
<text text-anchor="middle" x="98" y="-86.3" font-family="Times,serif" font-size="14.00">ipc::EdgeEdgeConstraint</text>
</a>
</g>
</g>
<!-- 2&#45;&gt;1 -->
<g id="edge1" class="edge">
<title>2&#45;&gt;1</title>
<g id="a_edge1"><a xlink:title="public&#45;inheritance">
<path fill="none" stroke="#ce93d8" d="M196.25,-73.39C199.2,-72.92 202.12,-72.46 205,-72 282.77,-59.65 370.72,-45.7 436.84,-35.21"/>
<polygon fill="#ce93d8" stroke="#ce93d8" points="437.52,-38.64 446.85,-33.62 436.43,-31.73 437.52,-38.64"/>
</a>
</g>
</g>
<!-- 3 -->
<g id="node3" class="node">
<title>3</title>
<g id="a_node3"><a xlink:title="ipc::EdgeVertexConstraint">
<polygon fill="#ffffff" stroke="black" points="420,-108 214,-108 214,-72 420,-72 420,-108"/>
<text text-anchor="middle" x="317" y="-86.3" font-family="Times,serif" font-size="14.00">ipc::EdgeVertexConstraint</text>
</a>
</g>
</g>
<!-- 3&#45;&gt;1 -->
<g id="edge2" class="edge">
<title>3&#45;&gt;1</title>
<g id="a_edge2"><a xlink:title="public&#45;inheritance">
<path fill="none" stroke="#ce93d8" d="M371.02,-71.97C402.45,-62.06 442.23,-49.51 475.19,-39.12"/>
<polygon fill="#ce93d8" stroke="#ce93d8" points="476.25,-42.46 484.73,-36.11 474.14,-35.78 476.25,-42.46"/>
</a>
</g>
</g>
<!-- 4 -->
<g id="node4" class="node">
<title>4</title>
<g id="a_node4"><a xlink:title="ipc::FaceVertexConstraint">
<polygon fill="#ffffff" stroke="black" points="640,-108 438,-108 438,-72 640,-72 640,-108"/>
<text text-anchor="middle" x="539" y="-86.3" font-family="Times,serif" font-size="14.00">ipc::FaceVertexConstraint</text>
</a>
</g>
</g>
<!-- 4&#45;&gt;1 -->
<g id="edge3" class="edge">
<title>4&#45;&gt;1</title>
<g id="a_edge3"><a xlink:title="public&#45;inheritance">
<path fill="none" stroke="#ce93d8" d="M539,-71.7C539,-63.98 539,-54.71 539,-46.11"/>
<polygon fill="#ce93d8" stroke="#ce93d8" points="542.5,-46.1 539,-36.1 535.5,-46.1 542.5,-46.1"/>
</a>
</g>
</g>
<!-- 5 -->
<g id="node5" class="node">
<title>5</title>
<g id="a_node5"><a xlink:title="ipc::PlaneVertexConstraint">
<polygon fill="#ffffff" stroke="black" points="867.5,-108 658.5,-108 658.5,-72 867.5,-72 867.5,-108"/>
<text text-anchor="middle" x="763" y="-86.3" font-family="Times,serif" font-size="14.00">ipc::PlaneVertexConstraint</text>
</a>
</g>
</g>
<!-- 5&#45;&gt;1 -->
<g id="edge4" class="edge">
<title>5&#45;&gt;1</title>
<g id="a_edge4"><a xlink:title="public&#45;inheritance">
<path fill="none" stroke="#ce93d8" d="M708.49,-71.97C676.78,-62.06 636.64,-49.51 603.39,-39.12"/>
<polygon fill="#ce93d8" stroke="#ce93d8" points="604.34,-35.75 593.75,-36.11 602.26,-42.43 604.34,-35.75"/>
</a>
</g>
</g>
<!-- 6 -->
<g id="node6" class="node">
<title>6</title>
<g id="a_node6"><a xlink:title="ipc::VertexVertexConstraint">
<polygon fill="#ffffff" stroke="black" points="1100.5,-108 885.5,-108 885.5,-72 1100.5,-72 1100.5,-108"/>
<text text-anchor="middle" x="993" y="-86.3" font-family="Times,serif" font-size="14.00">ipc::VertexVertexConstraint</text>
</a>
</g>
</g>
<!-- 6&#45;&gt;1 -->
<g id="edge5" class="edge">
<title>6&#45;&gt;1</title>
<g id="a_edge5"><a xlink:title="public&#45;inheritance">
<path fill="none" stroke="#ce93d8" d="M885.41,-72.41C811.53,-61.02 714.06,-45.99 641.34,-34.78"/>
<polygon fill="#ce93d8" stroke="#ce93d8" points="641.66,-31.29 631.25,-33.22 640.6,-38.21 641.66,-31.29"/>
</a>
</g>
</g>
</g>
</svg>
