<?xml version="1.0" encoding="UTF-8" standalone="no"?>
<!DOCTYPE svg PUBLIC "-//W3C//DTD SVG 1.1//EN"
 "http://www.w3.org/Graphics/SVG/1.1/DTD/svg11.dtd">
<!-- Generated by graphviz version 2.43.0 (0)
 -->
<!-- Title: %3 Pages: 1 -->
<svg width="964pt" height="116pt"
 viewBox="0.00 0.00 964.00 116.00" xmlns="http://www.w3.org/2000/svg" xmlns:xlink="http://www.w3.org/1999/xlink">
<g id="graph0" class="graph" transform="scale(1 1) rotate(0) translate(4 112)">
<title>%3</title>
<polygon fill="transparent" stroke="transparent" points="-4,4 -4,-112 960,-112 960,4 -4,4"/>
<!-- 4 -->
<g id="node1" class="node">
<title>4</title>
<g id="a_node1"><a xlink:title="ipc::Constraints">
<polygon fill="#ffffff" stroke="black" points="130,-36 0,-36 0,0 130,0 130,-36"/>
<text text-anchor="middle" x="65" y="-14.3" font-family="Times,serif" font-size="14.00">ipc::Constraints</text>
</a>
</g>
</g>
<!-- 1 -->
<g id="node2" class="node">
<title>1</title>
<g id="a_node2"><a xlink:title="ipc::Constraints::Builder">
<polygon fill="#bfbfbf" stroke="black" points="438.5,-108 247.5,-108 247.5,-72 438.5,-72 438.5,-108"/>
<text text-anchor="middle" x="343" y="-86.3" font-family="Times,serif" font-size="14.00">ipc::Constraints::Builder</text>
</a>
</g>
</g>
<!-- 1&#45;&gt;4 -->
<g id="edge3" class="edge">
<title>1&#45;&gt;4</title>
<g id="a_edge3"><a xlink:title="usage">
<path fill="none" stroke="#ce93d8" d="M275.35,-71.97C234.43,-61.66 182.2,-48.51 140.02,-37.89"/>
<polygon fill="#ce93d8" stroke="#ce93d8" points="140.63,-34.43 130.08,-35.39 138.92,-41.22 140.63,-34.43"/>
</a>
</g>
</g>
<!-- 3 -->
<g id="node3" class="node">
<title>3</title>
<g id="a_node3"><a xlink:title="unordered_map&lt; ipc::EdgeVertexConstraint, long &gt;">
<polygon fill="#ffffff" stroke="black" points="538,-36 148,-36 148,0 538,0 538,-36"/>
<text text-anchor="middle" x="343" y="-14.3" font-family="Times,serif" font-size="14.00">unordered_map&lt; ipc::EdgeVertexConstraint, long &gt;</text>
</a>
</g>
</g>
<!-- 1&#45;&gt;3 -->
<g id="edge2" class="edge">
<title>1&#45;&gt;3</title>
<g id="a_edge2"><a xlink:title="usage">
<path fill="none" stroke="#ce93d8" d="M343,-71.7C343,-63.98 343,-54.71 343,-46.11"/>
<polygon fill="#ce93d8" stroke="#ce93d8" points="346.5,-46.1 343,-36.1 339.5,-46.1 346.5,-46.1"/>
</a>
</g>
</g>
<!-- 2 -->
<g id="node4" class="node">
<title>2</title>
<g id="a_node4"><a xlink:title="unordered_map&lt; ipc::VertexVertexConstraint, long &gt;">
<polygon fill="#ffffff" stroke="black" points="956,-36 556,-36 556,0 956,0 956,-36"/>
<text text-anchor="middle" x="756" y="-14.3" font-family="Times,serif" font-size="14.00">unordered_map&lt; ipc::VertexVertexConstraint, long &gt;</text>
</a>
</g>
</g>
<!-- 1&#45;&gt;2 -->
<g id="edge1" class="edge">
<title>1&#45;&gt;2</title>
<g id="a_edge1"><a xlink:title="usage">
<path fill="none" stroke="#ce93d8" d="M438.53,-72.81C500.27,-62.34 580.84,-48.69 645.36,-37.75"/>
<polygon fill="#ce93d8" stroke="#ce93d8" points="646.3,-41.14 655.57,-36.02 645.13,-34.24 646.3,-41.14"/>
</a>
</g>
</g>
</g>
</svg>
