<?xml version="1.0" encoding="UTF-8" standalone="no"?>
<!DOCTYPE svg PUBLIC "-//W3C//DTD SVG 1.1//EN"
 "http://www.w3.org/Graphics/SVG/1.1/DTD/svg11.dtd">
<!-- Generated by graphviz version 2.43.0 (0)
 -->
<!-- Title: %3 Pages: 1 -->
<svg width="964pt" height="116pt"
 viewBox="0.00 0.00 964.00 116.00" xmlns="http://www.w3.org/2000/svg" xmlns:xlink="http://www.w3.org/1999/xlink">
<g id="graph0" class="graph" transform="scale(1 1) rotate(0) translate(4 112)">
<title>%3</title>
<polygon fill="transparent" stroke="transparent" points="-4,4 -4,-112 960,-112 960,4 -4,4"/>
<!-- 4 -->
<g id="node1" class="node">
<title>4</title>
<g id="a_node1"><a xlink:title="unordered_map&lt; ipc::VertexVertexConstraint, long &gt;">
<polygon fill="#ffffff" stroke="black" points="400,-36 0,-36 0,0 400,0 400,-36"/>
<text text-anchor="middle" x="200" y="-14.3" font-family="Times,serif" font-size="14.00">unordered_map&lt; ipc::VertexVertexConstraint, long &gt;</text>
</a>
</g>
</g>
<!-- 2 -->
<g id="node2" class="node">
<title>2</title>
<g id="a_node2"><a xlink:title="ipc::Constraints">
<polygon fill="#ffffff" stroke="black" points="548,-36 418,-36 418,0 548,0 548,-36"/>
<text text-anchor="middle" x="483" y="-14.3" font-family="Times,serif" font-size="14.00">ipc::Constraints</text>
</a>
</g>
</g>
<!-- 1 -->
<g id="node3" class="node">
<title>1</title>
<g id="a_node3"><a xlink:title="ipc::Constraints::Builder">
<polygon fill="#bfbfbf" stroke="black" points="578.5,-108 387.5,-108 387.5,-72 578.5,-72 578.5,-108"/>
<text text-anchor="middle" x="483" y="-86.3" font-family="Times,serif" font-size="14.00">ipc::Constraints::Builder</text>
</a>
</g>
</g>
<!-- 1&#45;&gt;4 -->
<g id="edge3" class="edge">
<title>1&#45;&gt;4</title>
<g id="a_edge3"><a xlink:title="usage">
<path fill="none" stroke="#ce93d8" d="M414.13,-71.97C373.3,-61.87 321.4,-49.03 278.92,-38.52"/>
<polygon fill="#ce93d8" stroke="#ce93d8" points="279.72,-35.11 269.18,-36.11 278.04,-41.91 279.72,-35.11"/>
</a>
</g>
</g>
<!-- 1&#45;&gt;2 -->
<g id="edge1" class="edge">
<title>1&#45;&gt;2</title>
<g id="a_edge1"><a xlink:title="usage">
<path fill="none" stroke="#ce93d8" d="M483,-71.7C483,-63.98 483,-54.71 483,-46.11"/>
<polygon fill="#ce93d8" stroke="#ce93d8" points="486.5,-46.1 483,-36.1 479.5,-46.1 486.5,-46.1"/>
</a>
</g>
</g>
<!-- 3 -->
<g id="node4" class="node">
<title>3</title>
<g id="a_node4"><a xlink:title="unordered_map&lt; ipc::EdgeVertexConstraint, long &gt;">
<polygon fill="#ffffff" stroke="black" points="956,-36 566,-36 566,0 956,0 956,-36"/>
<text text-anchor="middle" x="761" y="-14.3" font-family="Times,serif" font-size="14.00">unordered_map&lt; ipc::EdgeVertexConstraint, long &gt;</text>
</a>
</g>
</g>
<!-- 1&#45;&gt;3 -->
<g id="edge2" class="edge">
<title>1&#45;&gt;3</title>
<g id="a_edge2"><a xlink:title="usage">
<path fill="none" stroke="#ce93d8" d="M550.65,-71.97C590.68,-61.89 641.53,-49.08 683.21,-38.59"/>
<polygon fill="#ce93d8" stroke="#ce93d8" points="684.2,-41.95 693.05,-36.11 682.49,-35.16 684.2,-41.95"/>
</a>
</g>
</g>
</g>
</svg>
