<?xml version="1.0" encoding="UTF-8" standalone="no"?>
<!DOCTYPE svg PUBLIC "-//W3C//DTD SVG 1.1//EN"
 "http://www.w3.org/Graphics/SVG/1.1/DTD/svg11.dtd">
<!-- Generated by graphviz version 2.43.0 (0)
 -->
<!-- Title: %3 Pages: 1 -->
<svg width="443pt" height="188pt"
 viewBox="0.00 0.00 443.00 188.00" xmlns="http://www.w3.org/2000/svg" xmlns:xlink="http://www.w3.org/1999/xlink">
<g id="graph0" class="graph" transform="scale(1 1) rotate(0) translate(4 184)">
<title>%3</title>
<polygon fill="transparent" stroke="transparent" points="-4,4 -4,-184 439,-184 439,4 -4,4"/>
<!-- 4 -->
<g id="node1" class="node">
<title>4</title>
<g id="a_node1"><a xlink:title="ipc::CollisionConstraint">
<polygon fill="#ffffff" stroke="black" points="184,-108 0,-108 0,-72 184,-72 184,-108"/>
<text text-anchor="middle" x="92" y="-86.3" font-family="Times,serif" font-size="14.00">ipc::CollisionConstraint</text>
</a>
</g>
</g>
<!-- 3 -->
<g id="node2" class="node">
<title>3</title>
<g id="a_node2"><a xlink:title="ipc::ContinuousCollisionCandidate">
<polygon fill="#ffffff" stroke="black" points="435,-36 173,-36 173,0 435,0 435,-36"/>
<text text-anchor="middle" x="304" y="-14.3" font-family="Times,serif" font-size="14.00">ipc::ContinuousCollisionCandidate</text>
</a>
</g>
</g>
<!-- 2 -->
<g id="node3" class="node">
<title>2</title>
<g id="a_node3"><a xlink:title="ipc::EdgeVertexCandidate">
<polygon fill="#ffffff" stroke="black" points="405.5,-108 202.5,-108 202.5,-72 405.5,-72 405.5,-108"/>
<text text-anchor="middle" x="304" y="-86.3" font-family="Times,serif" font-size="14.00">ipc::EdgeVertexCandidate</text>
</a>
</g>
</g>
<!-- 2&#45;&gt;3 -->
<g id="edge1" class="edge">
<title>2&#45;&gt;3</title>
<g id="a_edge1"><a xlink:title="public&#45;inheritance">
<path fill="none" stroke="#ce93d8" d="M304,-71.7C304,-63.98 304,-54.71 304,-46.11"/>
<polygon fill="#ce93d8" stroke="#ce93d8" points="307.5,-46.1 304,-36.1 300.5,-46.1 307.5,-46.1"/>
</a>
</g>
</g>
<!-- 1 -->
<g id="node4" class="node">
<title>1</title>
<g id="a_node4"><a xlink:title="ipc::EdgeVertexConstraint">
<polygon fill="#bfbfbf" stroke="black" points="301,-180 95,-180 95,-144 301,-144 301,-180"/>
<text text-anchor="middle" x="198" y="-158.3" font-family="Times,serif" font-size="14.00">ipc::EdgeVertexConstraint</text>
</a>
</g>
</g>
<!-- 1&#45;&gt;4 -->
<g id="edge3" class="edge">
<title>1&#45;&gt;4</title>
<g id="a_edge3"><a xlink:title="public&#45;inheritance">
<path fill="none" stroke="#ce93d8" d="M172.07,-143.88C158.34,-134.81 141.29,-123.55 126.46,-113.76"/>
<polygon fill="#ce93d8" stroke="#ce93d8" points="128.3,-110.78 118.03,-108.19 124.45,-116.62 128.3,-110.78"/>
</a>
</g>
</g>
<!-- 1&#45;&gt;2 -->
<g id="edge2" class="edge">
<title>1&#45;&gt;2</title>
<g id="a_edge2"><a xlink:title="public&#45;inheritance">
<path fill="none" stroke="#ce93d8" d="M223.93,-143.88C237.66,-134.81 254.71,-123.55 269.54,-113.76"/>
<polygon fill="#ce93d8" stroke="#ce93d8" points="271.55,-116.62 277.97,-108.19 267.7,-110.78 271.55,-116.62"/>
</a>
</g>
</g>
</g>
</svg>
