<?xml version="1.0" encoding="UTF-8" standalone="no"?>
<!DOCTYPE svg PUBLIC "-//W3C//DTD SVG 1.1//EN"
 "http://www.w3.org/Graphics/SVG/1.1/DTD/svg11.dtd">
<!-- Generated by graphviz version 2.43.0 (0)
 -->
<!-- Title: %3 Pages: 1 -->
<svg width="441pt" height="188pt"
 viewBox="0.00 0.00 441.00 188.00" xmlns="http://www.w3.org/2000/svg" xmlns:xlink="http://www.w3.org/1999/xlink">
<g id="graph0" class="graph" transform="scale(1 1) rotate(0) translate(4 184)">
<title>%3</title>
<polygon fill="transparent" stroke="transparent" points="-4,4 -4,-184 437,-184 437,4 -4,4"/>
<!-- 4 -->
<g id="node1" class="node">
<title>4</title>
<g id="a_node1"><a xlink:title="ipc::CollisionConstraint">
<polygon fill="#ffffff" stroke="black" points="184,-108 0,-108 0,-72 184,-72 184,-108"/>
<text text-anchor="middle" x="92" y="-86.3" font-family="Times,serif" font-size="14.00">ipc::CollisionConstraint</text>
</a>
</g>
</g>
<!-- 3 -->
<g id="node2" class="node">
<title>3</title>
<g id="a_node2"><a xlink:title="ipc::ContinuousCollisionCandidate">
<polygon fill="#ffffff" stroke="black" points="433,-36 171,-36 171,0 433,0 433,-36"/>
<text text-anchor="middle" x="302" y="-14.3" font-family="Times,serif" font-size="14.00">ipc::ContinuousCollisionCandidate</text>
</a>
</g>
</g>
<!-- 2 -->
<g id="node3" class="node">
<title>2</title>
<g id="a_node3"><a xlink:title="ipc::FaceVertexCandidate">
<polygon fill="#ffffff" stroke="black" points="401.5,-108 202.5,-108 202.5,-72 401.5,-72 401.5,-108"/>
<text text-anchor="middle" x="302" y="-86.3" font-family="Times,serif" font-size="14.00">ipc::FaceVertexCandidate</text>
</a>
</g>
</g>
<!-- 2&#45;&gt;3 -->
<g id="edge1" class="edge">
<title>2&#45;&gt;3</title>
<g id="a_edge1"><a xlink:title="public&#45;inheritance">
<path fill="none" stroke="#ce93d8" d="M302,-71.7C302,-63.98 302,-54.71 302,-46.11"/>
<polygon fill="#ce93d8" stroke="#ce93d8" points="305.5,-46.1 302,-36.1 298.5,-46.1 305.5,-46.1"/>
</a>
</g>
</g>
<!-- 1 -->
<g id="node4" class="node">
<title>1</title>
<g id="a_node4"><a xlink:title="ipc::FaceVertexConstraint">
<polygon fill="#bfbfbf" stroke="black" points="298,-180 96,-180 96,-144 298,-144 298,-180"/>
<text text-anchor="middle" x="197" y="-158.3" font-family="Times,serif" font-size="14.00">ipc::FaceVertexConstraint</text>
</a>
</g>
</g>
<!-- 1&#45;&gt;4 -->
<g id="edge3" class="edge">
<title>1&#45;&gt;4</title>
<g id="a_edge3"><a xlink:title="public&#45;inheritance">
<path fill="none" stroke="#ce93d8" d="M171.31,-143.88C157.71,-134.81 140.83,-123.55 126.14,-113.76"/>
<polygon fill="#ce93d8" stroke="#ce93d8" points="128.05,-110.82 117.78,-108.19 124.16,-116.65 128.05,-110.82"/>
</a>
</g>
</g>
<!-- 1&#45;&gt;2 -->
<g id="edge2" class="edge">
<title>1&#45;&gt;2</title>
<g id="a_edge2"><a xlink:title="public&#45;inheritance">
<path fill="none" stroke="#ce93d8" d="M222.69,-143.88C236.29,-134.81 253.17,-123.55 267.86,-113.76"/>
<polygon fill="#ce93d8" stroke="#ce93d8" points="269.84,-116.65 276.22,-108.19 265.95,-110.82 269.84,-116.65"/>
</a>
</g>
</g>
</g>
</svg>
